<?xml version="1.0" encoding="utf-8"?>
<!-- Generator: Adobe Illustrator 24.0.1, SVG Export Plug-In . SVG Version: 6.00 Build 0)  -->
<svg version="1.1" id="圖層_1" xmlns="http://www.w3.org/2000/svg" xmlns:xlink="http://www.w3.org/1999/xlink" x="0px" y="0px"
	 viewBox="0 0 41 60" style="enable-background:new 0 0 41 60;" xml:space="preserve">
<style type="text/css">
	.st0{clip-path:url(#SVGID_2_);}
	.st1{fill:#FFFFFF;}
	.st2{fill:#7ECEF4;}
	.st3{fill:#004098;}
	.st4{fill:#FFE100;}
	.st5{fill:#E60012;}
	.st6{fill:#E4007F;}
	.st7{fill:#920783;}
	.st8{fill:#F39800;}
	.st9{fill:#00A73C;}
	.st10{fill:#0068B7;}
</style>
<g>
	<defs>
		<rect id="SVGID_1_" x="0" width="40.9" height="60"/>
	</defs>
	<clipPath id="SVGID_2_">
		<use xlink:href="#SVGID_1_"  style="overflow:visible;"/>
	</clipPath>
	<g class="st0">
		<path class="st1" d="M19.4,42.4l-6.3-8.5c0,0-3,13.1-3,14.3l3.8,3l17.2-1l7.6-14.1l-0.8-4l-0.4-0.8l0.5-2.7l-0.2-1.2l-1-0.8
			l-6.5,8.9L19.4,42.4z"/>
		<path class="st2" d="M26.3,0.3c0.9,0.6,2.5,0.4,2.8,1.7c0.9,0.6,1.3,1.5,1.8,2.3c0.7,1,1.3,2.2,2,3.2c0,0.6,0.5,1.1,0.9,1.5
			c0,0.9,0.4,1.7,0.6,2.6c0.9,0.6,0.4,1.8,0.9,2.6c-0.3,1.4,0.5,2.7,0.8,4c-0.5,1,0,2,0.3,2.9c0.1,1.3,1.1,2.5,0.4,3.8
			c0.1,0.3,0.2,0.6,0.4,0.8c-0.3,0.7,0.2,1.3,0.6,1.8c-0.4,0.5-0.4,1.1-1,1.5c-0.2,0.6-0.7,1.2-1.1,1.8c-0.5,1.1-1.5,2-2.4,2.9v0.2
			c-1.4,1.7-2.6,3.8-4.6,5.2c-0.4,0.1-0.7,0.6-1.1,0.4c0.1,0,0.1,0.2,0.2,0.1c-0.6,0.9-2.3,0.3-2.4,1.7c-1.4,1.1-3.5,0.6-4.9,1.8
			c-1.6,0.4-3.6,0.6-4.9-0.4c-1.1-0.9-1.5-2.1-2.5-3c-0.4-0.7-0.7-1.9-0.3-2.7c-0.4-1.4,0.4-2.7,0.3-4c0.3-2.5,0.6-4.9,0.7-7.4
			c0.7-1.7-0.6-3.6,0.6-5.2c0.1-1,1.1-1.9,0.4-2.9c0.4-0.7-0.2-1.4,0.3-2.1c0-0.9,0.2-1.8,0.4-2.6c0.2-0.7,0.7-0.2,1.2-0.4
			c1-0.1,1.4-1.2,2.2-1.7C19,9.7,19.5,8.5,19,7.5C18.2,7,17.4,6,16.4,5.8c-0.7-0.4-0.7-1.2-0.6-1.9c0.5-0.9,0.5-2.6,2-2.9
			c1.6-1,3.5,0,5.1-1C24,0.3,25.2,0.2,26.3,0.3z"/>
		<path class="st3" d="M13.4,19.7c0.8,1.2,2.1,2.2,2.5,3.6c0.4,2.1,1.4,4.4,0.5,6.5c0.2,0.3,0,0.6-0.3,0.8c0.3,1.2-1,1.9-1.6,2.6
			c-1.7,0.1-2.5-1.7-3.7-2.6c-0.2-0.6-0.8-1-1.2-1.5c-0.4-0.9-0.7-1.8-0.7-2.8c-0.2-0.5,0.2-0.9,0.1-1.5c-0.8-1-0.2-2.2-0.3-3.2
			c0.9-0.7,1.1-2.9,2.7-2.3C12,19.2,12.8,19.3,13.4,19.7z"/>
		<path class="st4" d="M25.8,24.6c0.4,0,1-0.3,1.2,0.2c1.2,2.2,2.3,5.6,0.4,7.8c-1,1-2.1,1.9-3.5,1.5c-1.5,0.2-3.2,0.3-4.6-0.3
			c-0.7,0.5-1.3-0.2-2.1-0.1c-0.5-0.2-1.2-0.6-1.3-1c1.2-2.4,1.8-5,1.8-7.9c1.3-1.9,3.7-0.7,5.5-1L25.8,24.6z"/>
		<path class="st5" d="M11.8,32.8c0.7,0.5,1.8,0.3,2.1,1.3c-0.7,0.4-0.5,1.5-1.3,1.9c0,0.5-0.5,0.4-0.7,0.7c-0.7,1.1-1.7,2.5-3,3
			c-0.5,1.4-2,1.6-3.2,1.8c-1.5-0.4-3.1-0.8-4.1-2.2c-0.5-1.2-1.3-2.2-1.2-3.6c-0.3-0.5-0.1-1.2-0.2-1.8c1.8-0.8,2.7-2.7,3.3-4.3
			c0.7-0.8,1.6-1.5,2.7-1.1C8.4,29.2,9.6,31.5,11.8,32.8z"/>
		<path class="st6" d="M17.1,34.1c0.3,0.6,0.9,1,0.7,1.8c-0.3,0.4-0.9-0.3-1.2,0.3c-0.4,0.1-1,0.8-1.5,0.2c-0.6-0.1-1.4,0.6-1.6-0.4
			c0.2-0.2-0.1-0.6,0.1-0.9c0.4-0.8,1.2-1.4,2-1.8C16.1,33.5,16.5,34,17.1,34.1z"/>
		<path class="st7" d="M23.8,35c1.8,1.1,2.9,3.1,4.6,4.3c0.2,0.2,0.1,0.4,0.1,0.6c-1.1,1.5-3,1-4.6,0.9c-1.5-0.2-2.8-1-4.2-1.7
			c-0.4-0.5-0.4-1.2-0.9-1.6c-0.3,0-0.5,0-0.5-0.3c0.4-0.6-0.6-1.7,0.7-1.9c0.2-0.7,1.1-0.4,1.6-0.8C21.8,34.3,22.6,35.2,23.8,35z"
			/>
		<path class="st8" d="M18.9,38.8l0.4,1.8c-0.6,0.5-0.1,1.2-0.8,1.6c-0.3,0.4-0.9,0-1,0.5c-0.4-0.5-1.2-0.7-1.4-1.4
			c-0.2-1.2-0.2-2.3-0.2-3.5c0.2-0.3,0.3-0.7,0.6-0.8C17.6,37,18.2,38,18.9,38.8z"/>
		<path class="st9" d="M14.8,37.6c0.1,0.4,1.1,0.8,0.5,1.4c0,0.9,0.1,1.9-0.5,2.8c-0.7,1.8-2.6,2.7-4.3,3.3
			c-0.7,0.2-1.5,0.2-2.3,0.2c-0.4-0.2-0.6-0.7-0.4-1.1c1.5-1.7,1.5-3.9,3.2-5.5c0.5-0.9,1.5-0.9,2.3-1.5
			C13.7,37.4,14.6,36.7,14.8,37.6z"/>
		<path class="st10" d="M40.5,54.3c0.2-1.1-0.7-2.1-0.2-3.3c0.3-1.2-0.7-1.9-0.6-3c0.2-0.6-0.1-1.3-0.2-1.8L39,37
			c-0.2-1.4-0.7-2.7-0.9-4.2c-0.1-0.4,0-1.1-0.2-1.3c0,0-0.1,0.1-0.1,0.1c0,0,0-0.1-0.1-0.1c0-0.2,0.1-0.3,0.3-0.4
			c0-0.9,0.3-1.6,0-2.4c-0.4,1.2-1.5,2.3-1.4,3.6c0.4,0,0.6-0.7,1-0.4c-0.4,1.3-0.8,2.3-1.8,3.4v0.3h0.2l1.5-1.9h0.3
			c-0.2,1.1-1.3,1.9-1.8,3l1-1l0.1,0.1c-0.6,0.8-1.2,1.7-1.8,2.5c-1.3,1.3-2.8,2.5-4.3,3.6c0.2,0.9,0.9-0.1,1.2,0l-0.9,0.8
			c-0.6-0.5-0.7,0.6-1.2,0.8c0.1,1-1.2,1-1.7,1.8c-2,0.6-3.4,2.6-5.6,2.7c-0.2,0-0.4,0.2-0.4,0.4c0.6,0.5,1.3-0.3,2-0.3
			c1.2-0.2,2.1-1.3,3.1-1.8c0.4,0.1,0.7-0.7,1.1-0.2c-0.1,0.5-0.5,0.8-0.9,1l-0.2-0.3c-0.7,0.9-1.5,1.5-2.4,1.9
			c-1.7,0.5-3.4,1.8-5.3,1c-0.3,0.2-0.3,0.5-0.4,0.8c-0.2,0-0.4-0.1-0.6-0.1c-1,0.5-1.9-0.3-2.9,0c-0.3,0.1-0.8-0.6-0.9,0.1
			c-0.6,0.2-0.7-0.3-1-0.6c-1.6-0.1-2.7-1.2-3.8-2.3C9.6,48.6,9.4,50,9,51.3C9,52.5,7.8,54,9,54.9c0.5,1.2,0.7,2.6,1.3,3.7
			c2.3,0.8,4.6,1.9,7.3,1.2c2.2-0.6,4.5,0.3,6.9,0.2c5.2-0.7,11,0.2,15.9-1C41.4,57.6,40.8,55.7,40.5,54.3z M29.2,45.5
			c0-0.5,0.6-0.7,1-1.1C30.2,45,29.5,45.2,29.2,45.5z M32,43.1c-0.4-0.1-0.2,0.4-0.4,0.5L30.7,44c0.6-0.6,1.4-1.4,2.2-1.8
			C32.7,42.5,32.4,42.9,32,43.1z"/>
		<path class="st10" d="M36.2,33.8c0.1-0.4,0.9-0.7,0.6-1.2c-1,0-1.1,1.1-1.7,1.7l0.4-0.3c0.2,0.4-0.5,0.7-0.7,1.1l0.1,0.1
			C35.6,34.9,35.8,34.3,36.2,33.8z"/>
		<path class="st1" d="M24.9,58.2L23.7,57l-0.4,0.5l-0.1-0.1c-0.2-0.1-0.3-0.3-0.4-0.5l0.4-0.4c0.1-0.1,0.2-0.2,0.3-0.3
			c0.2-0.2,0.4-0.5,0.7-0.8c0.1,0.2,0.3,0.5,0.4,0.6l-0.4,0.4l1.3,1.1L24.9,58.2z"/>
		<path class="st1" d="M28.4,56.4l-0.1-0.6c0-0.1,0-0.3-0.1-0.4c0-0.3-0.1-0.7-0.2-1.4l0.8-0.1c0,0.6,0,1,0.1,1.4
			c0,0.3,0.1,0.6,0.2,0.9c-0.1,0-0.1,0-0.2,0l-0.2,0C28.7,56.4,28.5,56.4,28.4,56.4z"/>
		<path class="st1" d="M30,56.5l0.2-1.7l-0.6,0l0-0.1c0-0.2,0.1-0.4,0.1-0.6l0.5,0.1c0.1,0,0.3,0,0.4,0c0.3,0,0.6,0,1,0.1
			c-0.1,0.3-0.2,0.5-0.2,0.7l-0.5-0.1l-0.1,1.7L30,56.5z"/>
		<path class="st1" d="M31.9,54.8l0.8,0.1c0,0,0,0.1-0.1,0.4c-0.1,0.6-0.2,1-0.3,1.3c0.2,0.1,0.4,0.2,0.7,0.3c0-0.3,0.1-0.8,0.1-1.3
			c0-0.2,0-0.3,0-0.3l0.8,0c-0.1,0.5-0.1,0.8-0.2,1.1c0,0.3-0.1,0.8-0.1,1.3l-0.7,0l0-0.4l-0.3,0.3c-0.5-0.1-0.9-0.2-1.2-0.4
			c0.2-0.6,0.3-1,0.3-1.3C31.9,55.4,31.9,55.1,31.9,54.8z"/>
		<path class="st1" d="M34.2,57.8c0.1-0.4,0.1-0.8,0.1-1c0-0.3,0.1-0.8,0.1-1.3c0.1,0,0.2,0,0.3,0c0.1,0,0.1,0,0.2,0
			c0.4,0.3,0.7,0.7,1.1,1.2l0-1.1l0.8,0.1l-0.1,0.6c0,0.2,0,0.3,0,0.4c0,0.3-0.1,0.7-0.1,1.4c-0.1,0-0.3,0-0.4,0l-0.1,0
			c-0.4-0.4-0.7-0.9-1.1-1.4l-0.2,1.3L34.2,57.8z"/>
		<path class="st1" d="M39.1,55.9C39.1,55.9,39.1,55.9,39.1,55.9c0.1,0.2,0.1,0.4,0.1,0.5c0.1,0.2,0.1,0.4,0.3,0.7l-1,0.4
			c-0.2,0.1-0.4,0-0.7-0.1c-0.2-0.1-0.3-0.2-0.5-0.3c-0.1-0.1-0.2-0.2-0.2-0.3c0-0.1,0-0.3,0-0.5c0-0.2,0.1-0.4,0.2-0.6
			c0.2-0.3,0.5-0.6,0.8-0.8l0.6,0.3c-0.3,0.3-0.5,0.5-0.7,0.7c-0.2,0.2-0.2,0.4-0.2,0.5c0,0.1,0.1,0.1,0.2,0.2
			c0.1,0.1,0.3,0.1,0.4,0.1c0.1,0,0.1,0,0.2,0l0,0c-0.1-0.2-0.2-0.5-0.3-0.7C38.5,55.9,38.8,55.9,39.1,55.9z"/>
		<path class="st1" d="M26.6,55.8L26.6,55.8L26.6,55.8l0.8,0.8l0.7-0.4L26,54.6l-0.5,0.2c0,0.9,0.1,1.7,0,2.6l0.6-0.3l0-1.8
			L26.6,55.8z"/>
		<path class="st1" d="M27.1,55.8l-1.3,0.6l0.2,0.5l1.3-0.6L27.1,55.8z"/>
	</g>
</g>
</svg>
