<?xml version="1.0" encoding="utf-8"?>
<!-- Generator: Adobe Illustrator 24.0.1, SVG Export Plug-In . SVG Version: 6.00 Build 0)  -->
<svg version="1.1" id="圖層_1" xmlns="http://www.w3.org/2000/svg" xmlns:xlink="http://www.w3.org/1999/xlink" x="0px" y="0px"
	 viewBox="0 0 230 120" style="enable-background:new 0 0 230 120;" xml:space="preserve">
<style type="text/css">
	.st0{clip-path:url(#SVGID_2_);}
	.st1{fill:#FFFFFF;}
	.st2{fill:#7DCCF3;}
	.st3{fill:#004097;}
	.st4{fill:#FFE100;}
	.st5{fill:#E50012;}
	.st6{fill:#E3007F;}
	.st7{fill:#910782;}
	.st8{fill:#F29600;}
	.st9{fill:#00A63C;}
	.st10{fill:#0068B6;}
</style>
<g>
	<defs>
		<rect id="SVGID_1_" width="81" height="120"/>
	</defs>
	<clipPath id="SVGID_2_">
		<use xlink:href="#SVGID_1_"  style="overflow:visible;"/>
	</clipPath>
	<g class="st0">
		<path class="st1" d="M38.4,84.9l-12.5-17c0,0-5.9,26.2-5.9,28.7l7.5,6l34-1.9l15-28.1l-1.7-8l-0.7-1.7l0.9-5.4l-0.3-2.3l-2-1.6
			L59.8,71.3L38.4,84.9z"/>
		<path class="st2" d="M51.9,0.6c1.7,1.3,4.9,0.8,5.5,3.3c1.7,1.2,2.6,3,3.5,4.6c1.5,2.1,2.6,4.4,4,6.4c-0.1,1.3,1,2.2,1.7,3.1
			c0,1.9,0.9,3.4,1.2,5.2c1.7,1.3,0.8,3.7,1.7,5.3c-0.6,2.8,1,5.3,1.6,8c-0.9,1.9,0,4,0.6,5.8c0.3,2.6,2.1,5,0.7,7.6
			c0.2,0.6,0.5,1.1,0.9,1.6c-0.6,1.4,0.5,2.5,1.1,3.5c-0.9,0.9-0.8,2.2-2,3c-0.5,1.3-1.5,2.3-2.2,3.6c-1.1,2.1-3.1,3.9-4.8,5.9v0.4
			c-2.8,3.5-5.2,7.5-9.1,10.4c-0.8,0.1-1.4,1.2-2.2,0.9c0.1,0.1,0.2,0.3,0.4,0.3c-1.2,1.8-4.5,0.6-4.8,3.4c-2.9,2.2-7,1.2-9.6,3.7
			c-3.1,0.9-7.1,1.1-9.7-0.9c-2.3-1.8-3-4.2-5-6c-0.9-1.5-1.5-3.7-0.5-5.4c-0.7-2.8,0.8-5.3,0.6-8c0.6-5,1.3-9.8,1.3-14.9
			c1.5-3.3-1.2-7.3,1.1-10.4c0.3-1.9,2.1-3.8,0.7-5.9c0.7-1.5-0.4-2.9,0.5-4.3c0-1.7,0.5-3.5,0.9-5.3c0.4-1.3,1.4-0.4,2.3-0.9
			c2-0.1,2.8-2.4,4.5-3.3c0.5-1.9,1.6-4.1,0.5-6.1c-1.6-1.1-3.1-3-5-3.4c-1.3-0.9-1.3-2.4-1.1-3.8c1.1-1.9,1-5.2,3.9-5.8
			c3.2-2,7-0.1,10.2-2.1C47.4,0.6,49.9,0.4,51.9,0.6z"/>
		<path class="st3" d="M26.4,39.4c1.6,2.4,4.2,4.5,4.9,7.2c0.7,4.2,2.9,8.8,1,13c0.4,0.6-0.1,1.3-0.6,1.7c0.7,2.4-1.9,3.7-3.2,5.3
			c-3.3,0.2-5-3.4-7.4-5.3c-0.4-1.2-1.5-2.1-2.4-3.1c-0.7-1.7-1.5-3.6-1.3-5.6c-0.3-1,0.4-1.8,0.3-3c-1.6-2-0.3-4.4-0.5-6.5
			c1.8-1.5,2.2-5.7,5.3-4.5C23.7,38.4,25.3,38.6,26.4,39.4z"/>
		<path class="st4" d="M51,49.2c0.9-0.1,1.9-0.6,2.3,0.5c2.3,4.4,4.6,11.3,0.9,15.7c-1.9,2-4.2,3.8-7,3.1c-3,0.4-6.4,0.5-9.2-0.6
			c-1.4,1.1-2.6-0.4-4.2-0.1c-1-0.4-2.3-1.1-2.7-2.1c2.4-4.8,3.6-10,3.5-15.8c2.6-3.8,7.3-1.4,10.9-2.1L51,49.2z"/>
		<path class="st5" d="M23.2,65.6c1.3,1,3.5,0.7,4.1,2.6c-1.4,0.9-1.1,3-2.7,3.9c0,0.9-1,0.9-1.5,1.4c-1.4,2.2-3.3,5-5.9,6
			c-1.1,2.8-3.9,3.2-6.4,3.6c-3-0.7-6.2-1.6-8.1-4.4c-1-2.3-2.5-4.5-2.5-7.3c-0.7-1-0.2-2.5-0.4-3.7c3.5-1.6,5.3-5.4,6.5-8.7
			c1.5-1.5,3.1-3,5.4-2.3C16.6,58.5,18.9,63,23.2,65.6z"/>
		<path class="st6" d="M33.8,68.3c0.7,1.1,1.8,2,1.3,3.7c-0.6,0.7-1.8-0.5-2.5,0.6c-0.9,0.2-2,1.5-3.1,0.4c-1.2-0.3-2.7,1.2-3.2-0.8
			c0.5-0.5-0.1-1.2,0.3-1.8c0.7-1.6,2.4-2.8,4-3.5C31.8,67,32.6,68,33.8,68.3z"/>
		<path class="st7" d="M47,70.1c3.5,2.3,5.7,6.2,9.2,8.6c0.4,0.3,0.2,0.8,0.3,1.2c-2.2,3-6,2-9.2,1.8c-3.1-0.4-5.6-2-8.3-3.3
			c-0.8-1-0.9-2.3-1.8-3.2c-0.5,0.1-1-0.1-1-0.6c0.8-1.2-1.2-3.4,1.3-3.8c0.5-1.3,2.1-0.8,3.1-1.6C43.1,68.6,44.6,70.3,47,70.1z"/>
		<path class="st8" d="M37.3,77.5L38,81c-1.1,1-0.2,2.4-1.5,3.2c-0.7,0.7-1.7,0-2,1.1c-0.8-1-2.4-1.4-2.8-2.8
			c-0.4-2.4-0.3-4.7-0.5-7c0.4-0.5,0.6-1.4,1.2-1.6C34.7,74,36,76,37.3,77.5z"/>
		<path class="st9" d="M29.2,75.1c0.1,0.9,2.3,1.7,1.1,2.7c0,1.8,0.2,3.9-1,5.5c-1.5,3.7-5.2,5.3-8.5,6.6c-1.4,0.4-3,0.4-4.6,0.4
			c-0.9-0.4-1.2-1.4-0.9-2.3c3-3.4,2.9-7.7,6.3-11c1-1.8,3.1-1.8,4.6-2.9C27,74.8,28.7,73.3,29.2,75.1z"/>
		<path class="st10" d="M80.1,108.6c0.5-2.3-1.3-4.3-0.4-6.6c0.5-2.4-1.4-3.8-1.2-6c0.5-1.2-0.2-2.5-0.5-3.7l-1-18.3
			c-0.5-2.8-1.4-5.4-1.7-8.3c-0.3-0.8,0-2.2-0.4-2.7c-0.1,0-0.2,0.2-0.3,0.1c-0.1,0-0.1-0.3-0.2-0.3c0.1-0.4,0.2-0.6,0.5-0.9
			c0-1.7,0.6-3.1,0-4.8c-0.9,2.4-3,4.6-2.7,7.2c0.8,0,1.3-1.4,2.1-0.7c-0.8,2.6-1.6,4.7-3.7,6.7v0.6h0.4l3.1-3.8h0.5
			c-0.4,2.3-2.5,3.9-3.6,5.9l1.9-2l0.2,0.2c-1.2,1.6-2.3,3.4-3.6,4.9c-2.6,2.7-5.5,5-8.4,7.1c0.3,1.7,1.7-0.3,2.5,0l-1.7,1.6
			c-1.2-1.1-1.5,1.2-2.4,1.6c0.1,2-2.4,2.1-3.4,3.6c-3.9,1.3-6.7,5.2-11,5.4c-0.3,0-0.9,0.5-0.7,0.9c1.3,0.9,2.5-0.6,3.9-0.6
			c2.4-0.4,4.1-2.5,6.2-3.5c0.8,0.2,1.4-1.4,2.1-0.4c-0.2,1-1,1.6-1.8,2l-0.4-0.5c-1.3,1.7-3.1,3-4.8,3.8c-3.3,1-6.8,3.6-10.4,2
			c-0.7,0.4-0.6,1.1-0.7,1.6c-0.5,0-0.8-0.1-1.1-0.3c-1.9,1.1-3.8-0.6-5.8,0c-0.6,0.1-1.6-1.2-1.8,0.1c-1.1,0.5-1.3-0.7-1.9-1.2
			c-3.1-0.1-5.4-2.4-7.6-4.7c-1.1,2.5-1.7,5.2-2.5,7.9c0,2.3-2.2,5.3,0.1,7.1c0.9,2.5,1.4,5.2,2.6,7.5c4.5,1.5,9.2,3.8,14.5,2.4
			c4.5-1.2,9,0.6,13.6,0.4c10.2-1.4,21.8,0.5,31.5-2.1C81.9,115.2,80.7,111.5,80.1,108.6z M57.8,91.1c0-1,1.3-1.5,1.9-2.2
			C59.7,89.9,58.4,90.4,57.8,91.1z M63.3,86.2c-0.8-0.2-0.4,0.7-0.9,1L60.6,88c1.1-1.1,2.7-2.8,4.3-3.7C64.7,85,64.1,85.9,63.3,86.2
			z"/>
		<path class="st10" d="M71.7,67.7c0.3-0.9,1.7-1.4,1.2-2.4c-2,0-2.2,2.3-3.3,3.4l0.8-0.6c0.3,0.9-1.1,1.3-1.4,2.1l0.3,0.2
			C70.3,69.9,70.9,68.5,71.7,67.7z"/>
	</g>
</g>
<path class="st10" d="M123.2,44.2c0.4,0,0.7,0.2,0.7,0.7c0,0.5-0.2,0.7-0.7,0.7h-8.7v1.1h7.5c0.5,0,0.7,0.2,0.7,0.7
	c0,0.5-0.2,0.7-0.7,0.7h-16.6c-0.5,0-0.7-0.2-0.7-0.7c0-0.4,0.2-0.7,0.7-0.7h7.4v-1.1h-8.8c-0.4,0-0.6-0.2-0.6-0.7
	c0-0.4,0.2-0.7,0.6-0.7h8.8v-0.4c0-0.6,0.3-0.8,0.9-0.8c0.6,0,0.8,0.3,0.8,0.8v0.4H123.2z M106.2,49.1h14.9c0.8,0,1.1,0.3,1.1,0.8
	v1.7c0,0.6-0.4,0.9-1.1,0.9h-14.9c-0.8,0-1.1-0.3-1.1-0.9V50C105.1,49.4,105.4,49.1,106.2,49.1z M120.5,51.4c0.1,0,0.1-0.1,0.1-0.4
	v-0.4c0-0.2,0-0.3-0.1-0.3h-13.6c-0.1,0-0.1,0.1-0.1,0.3V51c0,0.2,0,0.4,0.1,0.4H120.5z M104.5,53.4h17.9c0.7,0,1.1,0.2,1.5,0.7
	c0.3,0.3,0.4,0.8,0.4,1.5c0,0.5-0.1,1-0.2,1.5c-0.1,0.4-0.5,0.7-1,0.7c-0.5,0-0.8-0.3-0.8-0.8c0.2-0.6,0.3-1.1,0.3-1.2
	c0-0.6-0.3-0.9-0.8-0.9h-16.7c-0.4,0-0.5,0.2-0.5,0.6v1.6c0,0.6-0.3,0.8-0.9,0.8c-0.6,0-0.8-0.3-0.8-0.8v-1.8
	C102.8,54,103.4,53.4,104.5,53.4z M120.5,55.9c0.4,0,0.5,0.2,0.5,0.5c0,0.4-0.2,0.6-0.5,0.6h-1.1c0.8,0.4,1.7,1,2.6,1.7
	c0.4,0.2,0.6,0.4,0.6,0.7c0,0.6-0.3,0.9-0.8,0.9c-0.1,0-0.2-0.1-0.4-0.2c-0.5-0.4-1-0.7-1.5-1c0,0,0,0-0.1,0
	c-1.8,0.1-3.6,0.2-5.3,0.3v1.3h6.2c0.4,0,0.6,0.2,0.6,0.6c0,0.4-0.2,0.7-0.6,0.7h-6.2v1h9.2c0.5,0,0.8,0.3,0.8,0.8
	c0,0.5-0.3,0.7-0.8,0.7h-20.1c-0.5,0-0.8-0.2-0.8-0.7c0-0.5,0.3-0.8,0.8-0.8h9.2v-1H106c-0.4,0-0.5-0.2-0.5-0.7
	c0-0.4,0.2-0.6,0.5-0.6h6.7v-1.2c-2.6,0.1-5.1,0.3-7.5,0.3c-0.4,0-0.7-0.3-0.7-0.8c0-0.4,0.2-0.7,0.7-0.7c1.1,0,2.2,0,3.3,0l1.1-1.4
	h-3.5c-0.4,0-0.6-0.2-0.6-0.6c0-0.4,0.2-0.5,0.6-0.5H120.5z M118,58.1c-0.1,0-0.2-0.1-0.2-0.1c-0.4-0.1-0.6-0.4-0.6-0.8
	c0-0.1,0-0.1,0-0.2h-5.7l-1.1,1.4C113.1,58.3,115.6,58.2,118,58.1z M150.2,44.5c0.6,0,0.8,0.3,0.8,0.8c0,0.6-0.3,0.9-0.8,0.9h-9.6v2
	h6.5c1.1,0,1.7,0.5,1.7,1.5v6c0,1.1-0.6,1.6-1.7,1.6H141c1.3,1,2.6,1.8,4,2.5c2.1,1.1,4,1.9,5.7,2.5c0.4,0.2,0.6,0.5,0.6,0.9
	c0,0.2-0.1,0.4-0.2,0.6c-0.2,0.2-0.4,0.3-0.7,0.3c-0.3,0-0.7-0.1-1-0.2c-1.6-0.7-3.1-1.4-4.5-2.2c-1.5-0.8-2.9-1.8-4.3-2.8v5.5
	c0,0.6-0.3,0.8-0.9,0.8c-0.6,0-0.8-0.3-0.8-0.8V59c-1,0.8-2,1.6-3,2.2c-1.4,0.9-3.3,1.9-5.8,2.9c-0.3,0.1-0.6,0.1-0.7,0.1
	c-0.6,0-0.9-0.3-0.9-1c0-0.5,0.2-0.8,0.7-0.9c2.7-0.9,4.7-1.9,6.2-2.7c1.3-0.7,2.4-1.5,3.3-2.3h-6.3c-1,0-1.6-0.5-1.6-1.6v-6
	c0-1,0.5-1.5,1.6-1.5h6.5v-2h-9.4c-0.5,0-0.8-0.3-0.8-0.9c0-0.6,0.3-0.8,0.8-0.8h9.4v-0.7c0-0.6,0.3-0.8,0.8-0.8
	c0.6,0,0.9,0.3,0.9,0.8v0.7H150.2z M146.5,55.7c0.5,0,0.7-0.2,0.7-0.7v-1.6h-6.5v2.3H146.5z M138.9,55.7v-2.3h-6.3v1.6
	c0,0.5,0.2,0.7,0.5,0.7H138.9z M132.6,51.9h6.3v-2.1h-5.7c-0.4,0-0.5,0.2-0.5,0.6V51.9z M140.7,49.8v2.1h6.5v-1.4
	c0-0.4-0.2-0.6-0.7-0.6H140.7z M158.5,48v1.5h4.6V48H158.5z M163,46.6v-0.7c0-0.4-0.2-0.6-0.7-0.6H159c-0.4,0-0.6,0.2-0.6,0.6v0.7
	H163z M158.5,50.9v1.3h4.6v-1.3H158.5z M158.5,53.6v1.5h4.6v-1.5H158.5z M165,55.1c0.5,0,0.7,0.3,0.7,0.8c0,0.6-0.2,0.8-0.7,0.8
	h-3.2v7.6c0,0.6-0.3,0.8-0.8,0.8c-0.6,0-0.8-0.3-0.8-0.8v-7.6h-3.7c-0.5,0-0.8-0.3-0.8-0.8c0-0.5,0.3-0.8,0.8-0.8h0.4v-10
	c0-1,0.5-1.4,1.4-1.4h4.9c1,0,1.5,0.5,1.5,1.4v10H165z M158.1,57.6c0.5,0,0.8,0.2,0.8,0.7c0,0.2,0,0.4-0.1,0.7
	c-0.4,1.9-1,3.6-1.8,5.2c-0.2,0.3-0.4,0.4-0.8,0.4c-0.6,0-0.9-0.2-0.9-0.7c0-0.2,0.1-0.4,0.2-0.6c0.7-1.6,1.3-3.3,1.7-5.1
	C157.4,57.8,157.7,57.6,158.1,57.6z M163.8,57.5c0.4,0,0.6,0.2,0.8,0.5c0.3,0.7,0.5,1.9,0.8,3.6c0.1,0.3,0.1,0.6,0.1,0.7
	c0,0.4-0.3,0.7-0.8,0.7c-0.5,0-0.7-0.2-0.8-0.7c-0.2-1.5-0.4-2.8-0.7-3.9l-0.1-0.3C163.1,57.7,163.3,57.5,163.8,57.5z M175.6,43.4
	c0.5,0,0.8,0.3,0.8,0.9c0,0.4-0.3,0.7-0.9,0.8c-1,0.2-2.3,0.4-3.9,0.6c0,0-0.1,0-0.1,0c0.3,0.1,0.4,0.4,0.4,0.8
	c0,0.3-0.1,0.5-0.4,0.8c-0.6,0.9-1.4,1.7-2.3,2.5c0.7,0.6,1.3,1.3,1.9,2c1.1-1.2,2.1-2.5,3-3.8c0.2-0.3,0.4-0.4,0.7-0.4
	c0.2,0,0.4,0.1,0.6,0.3c0.2,0.2,0.2,0.4,0.2,0.6s-0.1,0.4-0.2,0.6c-1,1.3-2,2.5-3.1,3.6c-0.7,0.7-1.4,1.3-2.2,1.9
	c1.8-0.1,3.4-0.2,4.9-0.4c-0.3-0.5-0.5-1-0.7-1.4c-0.1-0.2-0.2-0.4-0.2-0.5c0-0.5,0.3-0.7,0.8-0.7c0.2,0,0.4,0.1,0.6,0.4
	c0.7,1.1,1.2,2.3,1.7,3.6c0.1,0.2,0.1,0.4,0.1,0.6c0,0.5-0.3,0.8-0.9,0.8c-0.3,0-0.5-0.2-0.7-0.6c-0.1-0.3-0.2-0.5-0.2-0.8
	c-0.1,0.1-0.2,0.1-0.4,0.1c-1,0.2-1.9,0.3-2.8,0.4v8.4c0,0.6-0.3,0.8-0.8,0.8c-0.6,0-0.9-0.3-0.9-0.8v-8.2c-1.2,0.1-2.4,0.2-3.5,0.3
	c-0.5,0-0.8-0.3-0.8-1c0-0.5,0.3-0.7,0.8-0.8c0.3,0,0.6,0,1,0c0.7-0.6,1.4-1.1,2-1.7c0,0-0.1-0.1-0.1-0.1c-0.8-0.8-1.4-1.5-1.9-2
	c-0.5-0.4-1-0.8-1.5-1.2c-0.2-0.2-0.3-0.4-0.3-0.6c0-0.5,0.3-0.8,0.8-0.8c0.1,0,0.3,0.1,0.6,0.2c0.2,0.1,0.3,0.3,0.5,0.4
	c1-1,1.7-1.9,2.3-2.7c0.1-0.1,0.2-0.2,0.2-0.2c-1.3,0.1-2.3,0.2-2.9,0.2c-0.6,0-0.9-0.3-0.9-0.8c0-0.5,0.3-0.8,0.8-0.8
	c1.4,0,2.7-0.1,3.9-0.2C172.9,44,174.3,43.8,175.6,43.4z M168.4,57.4c0.6,0,0.8,0.2,0.8,0.7c0,0.2,0,0.4-0.1,0.6
	c-0.4,1.8-0.9,3.5-1.5,5c-0.2,0.3-0.4,0.5-0.8,0.5c-0.5,0-0.8-0.3-0.8-0.8c0-0.2,0.1-0.4,0.2-0.6c0.6-1.5,1.1-3.2,1.4-4.9
	C167.7,57.6,168,57.4,168.4,57.4z M174.7,57.4c0.4,0,0.6,0.2,0.8,0.5c0.4,0.9,0.8,2.4,1.2,4.5c0.1,0.4,0.1,0.7,0.1,0.9
	c0,0.5-0.3,0.8-0.8,0.8c-0.5,0-0.8-0.3-0.8-0.8c-0.3-1.9-0.7-3.5-1.1-4.8L174,58C174,57.6,174.3,57.4,174.7,57.4z M192.4,44.9
	c0.5,0,0.8,0.3,0.8,0.8c0,0.5-0.3,0.8-0.8,0.8h-3.2v4.9h2.5c0.5,0,0.8,0.3,0.8,0.8c0,0.6-0.3,0.8-0.8,0.8h-2.5v7.5
	c0.8-0.4,1.7-0.8,2.7-1.4c0.2-0.1,0.4-0.1,0.4-0.1c0.6,0,0.8,0.3,0.8,0.9c0,0.2-0.2,0.5-0.5,0.8c-0.9,0.6-2.1,1.2-3.6,1.9
	c-1.8,0.8-3.5,1.5-5.2,1.9c-0.3,0.1-0.5,0.1-0.7,0.1c-0.6,0-0.8-0.3-0.8-0.9c0-0.5,0.2-0.8,0.7-0.9c0.2-0.1,0.4-0.1,0.7-0.2V51.2
	c0-0.6,0.3-0.9,0.8-0.9c0.5,0,0.8,0.3,0.8,0.9v10.9c0.8-0.2,1.4-0.5,1.9-0.7c0.1,0,0.2-0.1,0.2-0.1V46.6h-3.9
	c-0.6,0-0.8-0.3-0.8-0.8c0-0.6,0.3-0.8,0.8-0.8H192.4z M195.4,43.2c0.5,0,0.8,0.3,0.8,0.8c0,0.8-0.1,1.5-0.1,2.3h6.8
	c0.6,0,0.8,0.3,0.8,0.8s-0.3,0.8-0.8,0.8H202c0,1-0.1,2.2-0.4,3.8c-0.3,1.8-0.7,3.5-1.3,5.1c-0.4,1-0.9,1.9-1.4,2.7
	c0.5,0.7,1.2,1.4,2,2.1c0.6,0.5,1.3,1.1,2.3,1.6c0.5,0.2,0.7,0.4,0.7,0.8c0,0.6-0.3,0.9-0.9,0.9c-0.1,0-0.2,0-0.3-0.1
	c-1.2-0.8-2.2-1.5-3-2.1c-0.7-0.6-1.3-1.2-1.8-1.9c-0.2,0.2-0.4,0.4-0.6,0.6c-1.4,1.3-2.9,2.4-4.6,3.3c-0.3,0.1-0.5,0.2-0.7,0.2
	c-0.7,0-1-0.3-1-0.9c0-0.3,0.1-0.5,0.4-0.7c2-1,3.6-2.2,4.7-3.4c0.2-0.3,0.4-0.5,0.6-0.7c-0.4-0.7-0.7-1.4-1.1-2.3
	c-0.5-1.2-0.8-2.5-1.1-3.9c-0.3,0.7-0.6,1.4-0.9,2c-0.3,0.3-0.6,0.4-0.8,0.4c-0.7,0-1-0.3-1-0.9c0-0.1,0.1-0.2,0.3-0.4
	c0.9-1.5,1.5-3.1,1.8-4.7c0.3-1.5,0.5-3.3,0.7-5.4C194.5,43.5,194.8,43.2,195.4,43.2z M195.1,51.4c0,0,0.1,0,0.1,0
	c0.4,0,0.6,0.2,0.8,0.6c0.4,1.9,0.8,3.4,1.3,4.5c0.2,0.5,0.4,0.9,0.6,1.3c0.4-0.6,0.7-1.3,1-2.1c0.8-1.9,1.2-4.5,1.5-7.8h-4.5
	c-0.1,0.7-0.2,1.4-0.3,2C195.4,50.4,195.3,50.9,195.1,51.4z M216.6,47.3c0.3,0,0.5,0.1,0.6,0.2c0.2,0.2,0.3,0.4,0.3,0.7
	c0,0.1,0,0.3-0.1,0.4c-0.4,1.5-0.8,2.8-1.4,4v11.7c0,0.5-0.3,0.8-0.8,0.8c-0.5,0-0.8-0.3-0.8-0.8v-8.8c-0.4,0.6-0.8,1.2-1.3,1.8
	c-0.3,0.3-0.5,0.4-0.7,0.4c-0.6,0-0.9-0.3-0.9-0.8c0-0.2,0.1-0.4,0.2-0.5c0.9-1.1,1.7-2.3,2.4-3.6c0.8-1.4,1.4-3.1,1.9-4.9
	C216,47.5,216.2,47.3,216.6,47.3z M229.2,50.8c0.6,0,0.8,0.3,0.8,0.8c0,0.6-0.3,0.8-0.8,0.8h-2v10.4c0,1.4-0.9,2.1-2.8,2.1
	c-0.9,0-2.2-0.3-3.8-0.9c-0.4-0.1-0.6-0.4-0.6-0.8c0-0.5,0.2-0.8,0.6-0.8c0.2,0,0.4,0,0.7,0.1c1.6,0.6,2.7,0.8,3.2,0.8
	c0.7,0,1-0.2,1-0.7V52.5h-7.3c-0.6,0-0.9-0.3-0.9-0.8c0-0.5,0.3-0.8,0.9-0.8h7.3v-2.6c0-0.6,0.3-0.8,0.9-0.8c0.6,0,0.8,0.3,0.8,0.8
	v2.6H229.2z M219.4,53.9c0.3,0,0.5,0.1,0.7,0.4c1,1.4,1.8,2.9,2.5,4.6c0.1,0.2,0.1,0.4,0.1,0.6c0,0.5-0.3,0.8-1,0.8
	c-0.3,0-0.5-0.2-0.6-0.6c-0.7-1.9-1.5-3.5-2.4-4.6c-0.1-0.2-0.2-0.4-0.2-0.5C218.4,54.2,218.8,53.9,219.4,53.9z M219.4,43.1
	c0.6,0,1,0.3,1,0.9v1.1h8.6c0.6,0,0.8,0.3,0.8,0.8c0,0.6-0.3,0.8-0.8,0.8h-17.1c-0.5,0-0.8,0.2-0.8,0.7v6.8c0,2.5-0.2,4.6-0.5,6.2
	c-0.3,1.5-0.6,2.8-0.9,3.8c-0.2,0.4-0.4,0.6-0.8,0.6c-0.6,0-0.9-0.3-0.9-0.8c0-0.1,0.1-0.4,0.2-0.9c0.1-0.4,0.2-0.8,0.3-1.2
	c0.2-0.7,0.3-1.5,0.5-2.3c0.2-1.7,0.4-3.5,0.4-5.4v-7.7c0-1,0.5-1.5,1.6-1.5h7.4v-1.1C218.4,43.4,218.8,43.1,219.4,43.1z
	 M105.6,69.9c0,0.2-0.1,0.3-0.3,0.3H104v5.4c0,0.2-0.1,0.3-0.3,0.3c-0.2,0-0.3-0.1-0.3-0.3v-5.4h-1.3c-0.2,0-0.3-0.1-0.3-0.3
	c0-0.2,0.1-0.3,0.3-0.3h3.2C105.5,69.6,105.6,69.7,105.6,69.9z M110.6,75.6c0,0.1,0,0.1-0.1,0.2c-0.1,0.1-0.1,0.1-0.2,0.1
	c-0.2,0-0.2-0.1-0.3-0.2c0-0.1-0.1-0.2-0.1-0.4c-0.3,0.5-0.7,0.7-1.2,0.7c-0.5,0-0.9-0.1-1.2-0.4c-0.3-0.3-0.4-0.6-0.4-1.1
	c0-0.6,0.2-1,0.6-1.2c0.2-0.1,0.6-0.2,1.2-0.3c0.5-0.1,0.8-0.2,0.9-0.4v-0.1c0-0.6-0.3-0.9-0.9-0.9c-0.4,0-0.8,0.2-1,0.7
	c-0.1,0.1-0.1,0.2-0.2,0.2c-0.1,0-0.2,0-0.2-0.1c-0.1-0.1-0.1-0.1-0.1-0.2c0,0,0-0.1,0-0.1c0.3-0.7,0.8-1,1.5-1c0.4,0,0.8,0.1,1,0.4
	c0.3,0.3,0.5,0.7,0.5,1.2v2c0,0.2,0,0.4,0.1,0.7C110.5,75.4,110.6,75.5,110.6,75.6z M109.8,74.3L109.8,74.3v-1.1
	c-0.2,0.1-0.5,0.2-0.9,0.3c-0.4,0.1-0.7,0.1-0.8,0.2c-0.2,0.1-0.4,0.4-0.4,0.7c0,0.6,0.3,0.9,1,0.9c0.3,0,0.5-0.1,0.7-0.3
	C109.5,74.8,109.7,74.6,109.8,74.3z M114.4,70c0,0.1,0,0.2-0.1,0.3c-0.1,0.1-0.2,0.1-0.3,0.1c-0.1,0-0.2,0-0.3-0.1
	c-0.1-0.1-0.1-0.2-0.1-0.3s0-0.2,0.1-0.3c0.1-0.1,0.2-0.1,0.3-0.1c0.1,0,0.2,0,0.3,0.1C114.3,69.7,114.4,69.8,114.4,70z M114.2,75.6
	c0,0.2-0.1,0.3-0.3,0.3c-0.2,0-0.3-0.1-0.3-0.3v-4.5c0-0.2,0.1-0.3,0.3-0.3c0.2,0,0.3,0.1,0.3,0.3V75.6z M120.5,75.6
	c0,0.2-0.1,0.3-0.3,0.3h-0.3c-0.9,0-1.3-0.4-1.3-1.3v-2.8h-0.7c-0.2,0-0.3-0.1-0.3-0.3c0-0.2,0.1-0.3,0.3-0.3h0.7v-1.4
	c0-0.2,0.1-0.3,0.3-0.3c0.2,0,0.3,0.1,0.3,0.3v1.4h0.8c0.2,0,0.3,0.1,0.3,0.3c0,0.2-0.1,0.3-0.3,0.3h-0.8v2.8c0,0.2,0.1,0.4,0.2,0.5
	c0.1,0.1,0.3,0.1,0.5,0.1h0.3C120.4,75.3,120.5,75.4,120.5,75.6z M125.9,75.6c0,0.2-0.1,0.3-0.3,0.3c-0.2,0-0.3-0.1-0.3-0.3v-0.4
	c-0.3,0.5-0.7,0.7-1.3,0.7c-1.1,0-1.6-0.7-1.6-2v-2.8c0-0.2,0.1-0.3,0.3-0.3c0.2,0,0.3,0.1,0.3,0.3V74c0,0.5,0.1,0.9,0.3,1.1
	c0.2,0.2,0.4,0.3,0.7,0.3c0.3,0,0.6-0.1,0.9-0.4c0.3-0.3,0.4-0.7,0.4-1.1v-2.7c0-0.2,0.1-0.3,0.3-0.3c0.2,0,0.3,0.1,0.3,0.3V75.6z
	 M131,75.6c0,0.2-0.1,0.3-0.3,0.3c-0.2,0-0.3-0.1-0.3-0.3v-2.9c0-0.9-0.3-1.3-1-1.3c-0.4,0-0.7,0.2-0.9,0.5
	c-0.2,0.3-0.3,0.6-0.3,0.9v2.7c0,0.2-0.1,0.3-0.3,0.3c-0.2,0-0.3-0.1-0.3-0.3v-4.5c0-0.2,0.1-0.3,0.3-0.3c0.2,0,0.3,0.1,0.3,0.3v0.5
	c0.3-0.5,0.7-0.8,1.3-0.8c0.6,0,1,0.2,1.3,0.6c0.2,0.3,0.4,0.8,0.4,1.4V75.6z M136.1,74.9c0,0.7-0.2,1.2-0.5,1.6
	c-0.3,0.3-0.7,0.5-1.2,0.5c-0.6,0-1.1-0.2-1.5-0.7c0-0.1-0.1-0.1-0.1-0.2c0-0.1,0-0.2,0.1-0.2c0.1-0.1,0.1-0.1,0.2-0.1
	c0.1,0,0.2,0,0.2,0.1c0.2,0.3,0.6,0.5,1,0.5c0.7,0,1.1-0.5,1.1-1.5v-0.2c-0.3,0.5-0.7,0.7-1.1,0.7c-0.5,0-1-0.2-1.3-0.6
	c-0.3-0.4-0.5-0.9-0.5-1.6c0-0.7,0.2-1.3,0.5-1.7c0.3-0.4,0.8-0.7,1.3-0.7c0.4,0,0.8,0.2,1.1,0.6v-0.3c0-0.2,0.1-0.3,0.3-0.3
	c0.2,0,0.3,0.1,0.3,0.3V74.9z M135.5,73.1c0-0.5-0.1-0.9-0.3-1.2c-0.2-0.3-0.5-0.5-0.8-0.5c-0.3,0-0.6,0.1-0.8,0.4
	c-0.2,0.3-0.4,0.8-0.4,1.4c0,0.5,0.1,1,0.3,1.2c0.2,0.3,0.5,0.4,0.8,0.4c0.3,0,0.5-0.2,0.7-0.5C135.4,74,135.5,73.6,135.5,73.1z
	 M146.4,73.9c-0.1,0.5-0.3,1-0.6,1.4c-0.4,0.4-0.8,0.6-1.3,0.6c-0.6,0-1-0.3-1.4-0.8c-0.4-0.6-0.5-1.3-0.5-2.3
	c0-0.9,0.2-1.7,0.5-2.3c0.4-0.6,0.9-1,1.5-1c0.6,0,1,0.2,1.3,0.7c0.3,0.4,0.4,0.8,0.4,1.3c0,0.2-0.1,0.3-0.3,0.3
	c-0.2,0-0.3-0.1-0.3-0.3c0-0.4-0.1-0.7-0.3-1c-0.2-0.3-0.5-0.5-0.8-0.5c-0.4,0-0.7,0.2-1,0.7c-0.3,0.5-0.4,1.2-0.4,2
	c0,0.9,0.1,1.6,0.4,2c0.2,0.3,0.5,0.5,0.9,0.5c0.3,0,0.6-0.1,0.8-0.4c0.2-0.3,0.4-0.6,0.5-1.1c0-0.2,0.1-0.3,0.3-0.3
	c0.1,0,0.2,0,0.2,0.1C146.4,73.8,146.5,73.8,146.4,73.9z M151.4,73.4c0,0.7-0.1,1.3-0.4,1.7c-0.3,0.5-0.7,0.8-1.4,0.8
	c-0.6,0-1.1-0.3-1.4-0.8c-0.3-0.4-0.4-1-0.4-1.7c0-0.7,0.1-1.3,0.4-1.8c0.3-0.5,0.7-0.8,1.4-0.8c0.6,0,1.1,0.3,1.4,0.8
	C151.3,72.1,151.4,72.6,151.4,73.4z M150.8,73.4c0-0.6-0.1-1.1-0.3-1.5c-0.2-0.3-0.5-0.5-0.8-0.5c-0.4,0-0.6,0.2-0.8,0.5
	c-0.2,0.3-0.3,0.8-0.3,1.4c0,0.6,0.1,1.1,0.3,1.5c0.2,0.3,0.5,0.5,0.8,0.5c0.4,0,0.6-0.2,0.8-0.5C150.7,74.5,150.8,74,150.8,73.4z
	 M156.5,75.6c0,0.2-0.1,0.3-0.3,0.3c-0.2,0-0.3-0.1-0.3-0.3v-0.4c-0.3,0.5-0.7,0.7-1.3,0.7c-1.1,0-1.6-0.7-1.6-2v-2.8
	c0-0.2,0.1-0.3,0.3-0.3c0.2,0,0.3,0.1,0.3,0.3V74c0,0.5,0.1,0.9,0.3,1.1c0.2,0.2,0.4,0.3,0.7,0.3c0.3,0,0.6-0.1,0.9-0.4
	c0.3-0.3,0.4-0.7,0.4-1.1v-2.7c0-0.2,0.1-0.3,0.3-0.3c0.2,0,0.3,0.1,0.3,0.3V75.6z M161.6,75.6c0,0.2-0.1,0.3-0.3,0.3
	c-0.2,0-0.3-0.1-0.3-0.3v-2.9c0-0.9-0.3-1.3-1-1.3c-0.4,0-0.7,0.2-0.9,0.5c-0.2,0.3-0.3,0.6-0.3,0.9v2.7c0,0.2-0.1,0.3-0.3,0.3
	c-0.2,0-0.3-0.1-0.3-0.3v-4.5c0-0.2,0.1-0.3,0.3-0.3c0.2,0,0.3,0.1,0.3,0.3v0.5c0.3-0.5,0.7-0.8,1.3-0.8c0.6,0,1,0.2,1.3,0.6
	c0.2,0.3,0.4,0.8,0.4,1.4V75.6z M166.4,75.6c0,0.2-0.1,0.3-0.3,0.3h-0.3c-0.9,0-1.3-0.4-1.3-1.3v-2.8h-0.7c-0.2,0-0.3-0.1-0.3-0.3
	c0-0.2,0.1-0.3,0.3-0.3h0.7v-1.4c0-0.2,0.1-0.3,0.3-0.3s0.3,0.1,0.3,0.3v1.4h0.8c0.2,0,0.3,0.1,0.3,0.3c0,0.2-0.1,0.3-0.3,0.3h-0.8
	v2.8c0,0.2,0.1,0.4,0.2,0.5c0.1,0.1,0.3,0.1,0.5,0.1h0.3C166.3,75.3,166.4,75.4,166.4,75.6z M171.8,71.1
	C171.8,71.1,171.7,71.2,171.8,71.1l-1.5,4.8c-0.2,0.8-0.6,1.1-1.2,1.1h-0.5c-0.1,0-0.2,0-0.2-0.1c-0.1-0.1-0.1-0.1-0.1-0.2
	c0-0.1,0-0.1,0.1-0.2c0.1-0.1,0.1-0.1,0.2-0.1h0.5c0.2,0,0.4-0.2,0.6-0.7l0.2-0.6l-1.4-4c0,0,0-0.1,0-0.1c0-0.1,0-0.1,0.1-0.2
	c0.1,0,0.1-0.1,0.2-0.1c0.1,0,0.2,0.1,0.2,0.2l1.1,3.2l1-3.2c0-0.1,0.1-0.2,0.3-0.2C171.6,70.8,171.8,70.9,171.8,71.1z M182.1,75.6
	c0,0.2-0.1,0.3-0.3,0.3c-0.2,0-0.3-0.1-0.3-0.3v-0.5c-0.3,0.5-0.8,0.8-1.3,0.8c-0.5,0-1-0.2-1.3-0.7c-0.4-0.6-0.5-1.4-0.5-2.4
	c0-0.9,0.2-1.7,0.5-2.3c0.3-0.7,0.8-1,1.5-1c0.7,0,1.3,0.4,1.6,1.2c0.1,0.3,0.2,0.5,0.2,0.7c0,0.2-0.1,0.3-0.3,0.3
	c-0.2,0-0.3-0.1-0.3-0.3c0-0.4-0.2-0.7-0.3-0.9c-0.2-0.3-0.5-0.4-0.8-0.4c-0.4,0-0.7,0.2-0.9,0.7c-0.3,0.5-0.4,1.1-0.4,2
	c0,0.9,0.2,1.6,0.5,2c0.2,0.3,0.5,0.5,0.8,0.5c0.4,0,0.7-0.2,1-0.6c0.2-0.4,0.4-0.7,0.4-1.2c0-0.2,0-0.4,0-0.4
	c0-0.1-0.1-0.1-0.2-0.1h-0.8c-0.2,0-0.3-0.1-0.3-0.3c0-0.2,0.1-0.3,0.3-0.3h1c0.2,0,0.4,0.1,0.5,0.2c0.1,0.1,0.1,0.3,0.1,0.6V75.6z
	 M187.1,73.4c0,0.7-0.1,1.3-0.4,1.7c-0.3,0.5-0.7,0.8-1.4,0.8c-0.6,0-1.1-0.3-1.4-0.8c-0.3-0.4-0.4-1-0.4-1.7c0-0.7,0.1-1.3,0.4-1.8
	c0.3-0.5,0.7-0.8,1.4-0.8c0.6,0,1.1,0.3,1.4,0.8C187,72.1,187.1,72.6,187.1,73.4z M186.5,73.4c0-0.6-0.1-1.1-0.3-1.5
	c-0.2-0.3-0.5-0.5-0.8-0.5c-0.4,0-0.6,0.2-0.8,0.5c-0.2,0.3-0.3,0.8-0.3,1.4c0,0.6,0.1,1.1,0.3,1.5c0.2,0.3,0.5,0.5,0.8,0.5
	c0.4,0,0.6-0.2,0.8-0.5C186.4,74.5,186.5,74,186.5,73.4z M192.2,71.1C192.2,71.1,192.2,71.2,192.2,71.1l-1.4,4.6
	c0,0.2-0.1,0.2-0.3,0.2c-0.2,0-0.3-0.1-0.3-0.2l-1.4-4.5c0,0,0-0.1,0-0.1c0-0.1,0-0.2,0.1-0.2c0.1,0,0.1-0.1,0.2-0.1
	c0.1,0,0.2,0.1,0.3,0.2l1.1,3.7l1.1-3.7c0-0.1,0.1-0.2,0.3-0.2c0.1,0,0.2,0,0.2,0.1C192.2,71,192.2,71,192.2,71.1z M197.3,72.8
	c0,0.5-0.2,0.7-0.7,0.7h-2.2c0,0.6,0.1,1,0.4,1.4c0.2,0.3,0.5,0.4,0.9,0.4c0.5,0,0.8-0.3,1.1-1c0-0.1,0.1-0.2,0.3-0.2
	c0.2,0,0.3,0.1,0.3,0.3c0,0.1-0.1,0.3-0.3,0.6c-0.3,0.5-0.7,0.8-1.4,0.8c-0.6,0-1-0.2-1.4-0.7c-0.3-0.5-0.5-1.1-0.5-1.8
	c0-0.7,0.1-1.3,0.4-1.8c0.3-0.5,0.8-0.8,1.4-0.8c0.5,0,0.9,0.2,1.3,0.7C197.1,71.9,197.3,72.3,197.3,72.8z M196.7,72.8
	c0-0.4-0.1-0.7-0.3-1c-0.2-0.3-0.4-0.4-0.8-0.4c-0.3,0-0.6,0.2-0.8,0.5c-0.2,0.3-0.3,0.6-0.3,1h2C196.6,72.9,196.7,72.9,196.7,72.8z
	 M201.9,71.1c0,0.2-0.1,0.3-0.3,0.3c-0.4,0-0.8,0.2-1.1,0.6c-0.3,0.4-0.5,0.8-0.5,1.3v2.3c0,0.2-0.1,0.3-0.3,0.3
	c-0.2,0-0.3-0.1-0.3-0.3v-4.5c0-0.2,0.1-0.3,0.3-0.3c0.2,0,0.3,0.1,0.3,0.3v0.7c0.5-0.7,1-1,1.6-1C201.8,70.8,201.9,70.9,201.9,71.1
	z M207.5,75.6c0,0.2-0.1,0.3-0.3,0.3c-0.2,0-0.3-0.1-0.3-0.3v-2.9c0-0.9-0.3-1.3-1-1.3c-0.4,0-0.7,0.2-0.9,0.5
	c-0.2,0.3-0.3,0.6-0.3,0.9v2.7c0,0.2-0.1,0.3-0.3,0.3c-0.2,0-0.3-0.1-0.3-0.3v-4.5c0-0.2,0.1-0.3,0.3-0.3c0.2,0,0.3,0.1,0.3,0.3v0.5
	c0.3-0.5,0.7-0.8,1.3-0.8c0.6,0,1,0.2,1.3,0.6c0.2,0.3,0.4,0.8,0.4,1.4V75.6z M212.8,75.6c0,0.2-0.1,0.3-0.3,0.3
	c-0.2,0-0.3-0.1-0.3-0.3v-3.4c0-0.3-0.1-0.5-0.2-0.6c-0.1-0.1-0.2-0.2-0.4-0.2c-0.2,0-0.3,0.1-0.4,0.3c-0.1,0.2-0.1,0.3-0.1,0.6v3.4
	c0,0.2-0.1,0.3-0.3,0.3c-0.2,0-0.3-0.1-0.3-0.3v-3.4c0-0.2-0.1-0.4-0.1-0.6c-0.1-0.2-0.2-0.2-0.4-0.2c-0.1,0-0.3,0.1-0.4,0.2
	c-0.1,0.1-0.2,0.4-0.2,0.6v3.4c0,0.2-0.1,0.3-0.3,0.3c-0.2,0-0.3-0.1-0.3-0.3v-4.5c0-0.2,0.1-0.3,0.3-0.3c0.2,0,0.3,0.1,0.3,0.3v0.2
	c0.1-0.1,0.1-0.2,0.3-0.3c0.1-0.1,0.2-0.1,0.4-0.1c0.4,0,0.7,0.2,0.8,0.6c0.2-0.4,0.5-0.6,0.8-0.6c0.4,0,0.7,0.1,0.8,0.4
	c0.2,0.2,0.3,0.6,0.3,1V75.6z M217.7,72.8c0,0.5-0.2,0.7-0.7,0.7h-2.2c0,0.6,0.1,1,0.4,1.4c0.2,0.3,0.5,0.4,0.9,0.4
	c0.5,0,0.8-0.3,1.1-1c0-0.1,0.1-0.2,0.3-0.2c0.2,0,0.3,0.1,0.3,0.3c0,0.1-0.1,0.3-0.3,0.6c-0.3,0.5-0.7,0.8-1.4,0.8
	c-0.6,0-1-0.2-1.4-0.7c-0.3-0.5-0.5-1.1-0.5-1.8c0-0.7,0.1-1.3,0.4-1.8c0.3-0.5,0.8-0.8,1.4-0.8c0.5,0,0.9,0.2,1.3,0.7
	C217.5,71.9,217.7,72.3,217.7,72.8z M217.1,72.8c0-0.4-0.1-0.7-0.3-1c-0.2-0.3-0.4-0.4-0.8-0.4c-0.3,0-0.6,0.2-0.8,0.5
	c-0.2,0.3-0.3,0.6-0.3,1h2C217,72.9,217.1,72.9,217.1,72.8z M222.8,75.6c0,0.2-0.1,0.3-0.3,0.3c-0.2,0-0.3-0.1-0.3-0.3v-2.9
	c0-0.9-0.3-1.3-1-1.3c-0.4,0-0.7,0.2-0.9,0.5c-0.2,0.3-0.3,0.6-0.3,0.9v2.7c0,0.2-0.1,0.3-0.3,0.3c-0.2,0-0.3-0.1-0.3-0.3v-4.5
	c0-0.2,0.1-0.3,0.3-0.3c0.2,0,0.3,0.1,0.3,0.3v0.5c0.3-0.5,0.7-0.8,1.3-0.8c0.6,0,1,0.2,1.3,0.6c0.2,0.3,0.4,0.8,0.4,1.4V75.6z
	 M227.6,75.6c0,0.2-0.1,0.3-0.3,0.3H227c-0.9,0-1.3-0.4-1.3-1.3v-2.8H225c-0.2,0-0.3-0.1-0.3-0.3c0-0.2,0.1-0.3,0.3-0.3h0.7v-1.4
	c0-0.2,0.1-0.3,0.3-0.3c0.2,0,0.3,0.1,0.3,0.3v1.4h0.8c0.2,0,0.3,0.1,0.3,0.3c0,0.2-0.1,0.3-0.3,0.3h-0.8v2.8c0,0.2,0.1,0.4,0.2,0.5
	c0.1,0.1,0.3,0.1,0.5,0.1h0.3C227.5,75.3,227.6,75.4,227.6,75.6z"/>
</svg>
