<?xml version="1.0" encoding="utf-8"?>
<!-- Generator: Adobe Illustrator 21.1.0, SVG Export Plug-In . SVG Version: 6.00 Build 0)  -->
<svg version="1.1" id="圖層_1" xmlns="http://www.w3.org/2000/svg" xmlns:xlink="http://www.w3.org/1999/xlink" x="0px" y="0px"
	 viewBox="0 0 1126 430" style="enable-background:new 0 0 1126 430;" xml:space="preserve">
<style type="text/css">
	.st0{fill:#85E4ED;}
	.st1{clip-path:url(#SVGID_2_);}
	.st2{fill:#518287;}
	.st3{fill:none;stroke:#85E4ED;stroke-width:4;stroke-miterlimit:10;}
	.st4{fill:#FFFFFF;}
	.st5{fill:#66A9B0;}
	.st6{fill:#518287;stroke:#518287;stroke-width:0.7139;stroke-miterlimit:10;}
	.st7{fill:#66A9B0;stroke:#518287;stroke-width:2.7891;stroke-miterlimit:10;}
	.st8{fill:#FFFFFF;stroke:#FFFFFF;stroke-width:5.711;stroke-miterlimit:10;}
	.st9{fill:none;stroke:#66A9B0;stroke-width:0.5579;stroke-miterlimit:10;}
	.st10{fill:#518287;stroke:#518287;stroke-width:0.4022;stroke-miterlimit:10;}
	.st11{fill:#1D3030;stroke:#1D3030;stroke-width:0.4796;stroke-miterlimit:10;}
	.st12{fill:#1D3030;}
	.st13{fill:none;stroke:#66A9B0;stroke-width:5.3185;stroke-miterlimit:10;}
</style>
<g>
	<rect x="-12.9" y="-14.8" class="st0" width="1158" height="458.8"/>
	<g>
		<g>
			<g>
				<g>
					<g>
						<g>
							<g>
								<g>
									<g>
										<g>
											<g>
												<g>
													<g>
														<defs>
															<path id="SVGID_1_" d="M1127,239H29c-16.6,0-30-13.4-30-30V0h1128V239z"/>
														</defs>
														<clipPath id="SVGID_2_">
															<use xlink:href="#SVGID_1_"  style="overflow:visible;"/>
														</clipPath>
														<g class="st1">
															<g>
																<g>
																	<polygon class="st2" points="1379.6,515.1 -187.7,508.9 -187.7,-169.6 1379.6,-163.4 																	"/>
																	<g>
																		<polyline class="st3" points="-186.4,-131 273.7,-131 273.7,-64.9 428.3,-64.9 428.3,61.5 																		"/>
																		<polyline class="st3" points="653.7,-120.9 835.9,-120.9 835.9,-167.6 																		"/>
																		<polyline class="st3" points="653.3,253.2 653.3,425.2 972.2,425.2 972.2,510.9 																		"/>
																		<polyline class="st3" points="636.6,253.9 847.1,253.9 847.1,144 1058.6,144 1058.6,1.4 1420.5,1.4 
																																					"/>
																		<polyline class="st3" points="510.7,171.7 309.3,171.7 309.3,77.6 149.9,77.6 149.9,296.3 43.2,296.3 
																																					"/>
																		<polyline class="st3" points="1558.1,368.5 1380.2,368.5 1380.2,227.4 1225.8,227.4 1225.8,493.2 1194.6,493.2 
																																					"/>
																		<polyline class="st3" points="595,306.2 378,306.2 378,411.7 297.5,411.7 297.5,287.8 200.8,287.8 200.8,438.8 
																			-32.3,438.8 -32.3,510.9 																		"/>
																		<polyline class="st3" points="549.6,87.5 549.6,-131 481.1,-131 481.1,-167.6 																		"/>
																		<polyline class="st3" points="1420.5,-91.8 972.2,-91.8 972.2,-15.9 780.8,-15.9 780.8,77.6 618.5,77.6 
																																					"/>
																		<polyline class="st3" points="514.5,226.4 514.5,354.8 419.7,354.8 419.7,418.4 																		"/>
																		<polyline class="st3" points="696.8,252.5 696.8,350.5 909.5,350.5 909.5,275.1 1225.5,275.1 																		
																			"/>
																		<polyline class="st3" points="20.7,77.6 84.3,77.6 85.6,-25.4 227.1,-25.4 227.1,12.7 385.8,12.7 385.8,141.4 
																			445.4,141.4 																		"/>
																		<polyline class="st3" points="149.9,210.9 201.3,210.9 201.3,77.6 																		"/>
																		<polyline class="st3" points="1085.4,218.3 1162,218.3 1162,123.4 																		"/>
																		<polyline class="st3" points="654.9,-25.4 709.7,-25.4 709.7,-120.9 																		"/>
																		<line class="st3" x1="369.2" y1="-64.9" x2="369.2" y2="-167.6"/>
																		<polyline class="st3" points="550.2,-64.9 598.2,-64.9 598.2,-167.6 																		"/>
																		<polyline class="st3" points="160.6,510.9 160.6,475.7 340,475.7 																		"/>
																		<line class="st3" x1="586.3" y1="280.7" x2="586.3" y2="510.9"/>
																		<polyline class="st3" points="586.3,423.1 514.4,423.1 514.4,510.9 																		"/>
																		<polyline class="st3" points="757.8,425.2 757.8,459.2 847.1,459.2 847.1,510.9 																		"/>
																		<polyline class="st3" points="1111.9,446.2 1111.9,480.3 1195,480.3 1195,531.9 																		"/>
																		<polyline class="st3" points="200.8,375.3 -80.6,374.7 -80.6,446.5 																		"/>
																		<polyline class="st3" points="309.3,128.3 251.7,128.3 251.7,287.8 																		"/>
																		<polyline class="st3" points="297.5,326.3 345.1,326.3 345.1,253.9 536.5,252.6 																		"/>
																		<line class="st3" x1="340" y1="411.7" x2="340" y2="474"/>
																		<polyline class="st3" points="359,12.7 359,97.2 309.3,97.2 																		"/>
																		<polyline class="st3" points="280.6,12.7 280.6,42.3 85.6,42.3 																		"/>
																		<polyline class="st3" points="321.3,-64.9 321.3,-25.4 428.3,-25.4 																		"/>
																		<polyline class="st3" points="369.2,-105.5 499.3,-105.5 499.3,26.2 547.7,26.2 																		"/>
																		<polyline class="st3" points="628.1,73.5 628.1,-146.3 709.7,-146.3 709.7,-167.6 																		"/>
																		<line class="st3" x1="767.3" y1="-120.9" x2="767.3" y2="-167.6"/>
																		<line class="st3" x1="412.4" y1="-105.5" x2="412.4" y2="-167.6"/>
																		<polyline class="st3" points="1016.3,-167.6 1016.3,-136.6 903.5,-136.6 903.5,-70.5 749.5,-70.5 749.5,26.8 
																			692.1,26.8 692.1,77.9 																		"/>
																		<line class="st3" x1="1065.1" y1="-167.6" x2="1065.1" y2="-91.8"/>
																		<polyline class="st3" points="1058.6,77.6 892.1,77.6 892.1,-15.9 																		"/>
																		<line class="st3" x1="780.7" y1="164.3" x2="780.7" y2="220.3"/>
																		<polyline class="st3" points="658.6,112.7 975.5,112.7 975.5,144 																		"/>
																		<line class="st3" x1="892.1" y1="30.8" x2="1058.6" y2="30.8"/>
																		<polyline class="st3" points="972.2,-48 1085.5,-48 1085.5,1.9 																		"/>
																		<polyline class="st3" points="1058.6,103.2 1085.5,103.2 1085.5,275.3 																		"/>
																		<polyline class="st3" points="909.5,334.8 753.7,334.8 753.7,350.5 																		"/>
																		<polyline class="st3" points="847.1,222.2 991.3,222.2 991.3,275.3 																		"/>
																		<line class="st3" x1="909.5" y1="144" x2="909.5" y2="222.2"/>
																		<polyline class="st3" points="909.5,182.8 1039.2,182.8 1039.2,275.1 																		"/>
																		<polyline class="st3" points="655.9,377.9 725.7,377.9 725.7,503.4 																		"/>
																		<line class="st3" x1="696.8" y1="425.2" x2="696.8" y2="510.9"/>
																		<polyline class="st3" points="782.1,425.2 782.1,376.9 1039.2,376.9 1039.2,293.1 1225.5,293.1 
																																					"/>
																		<polyline class="st3" points="1420.5,411.7 1034.1,411.7 1034.1,510.9 																		"/>
																		<line class="st3" x1="972.2" y1="461.2" x2="1034.1" y2="461.2"/>
																		<line class="st3" x1="916.3" y1="425.7" x2="916.3" y2="510.9"/>
																		<polyline class="st3" points="960.3,386.9 960.3,350.4 1039.2,350.4 																		"/>
																		<polyline class="st3" points="1420.5,448.1 1072,448.1 1072,510.9 																		"/>
																		<path class="st3" d="M-98.9,189"/>
																		<line class="st3" x1="149.9" y1="132.7" x2="20.7" y2="132.7"/>
																		<polyline class="st3" points="260.1,474 260.1,350.5 201.3,350.5 																		"/>
																		<polyline class="st3" points="121.1,373.6 121.1,326.9 -69.4,326.9 -69.4,213.7 																		"/>
																		<polyline class="st3" points="103.6,296.3 103.6,162.9 20.7,162.9 																		"/>
																		<line class="st3" x1="297.5" y1="218.3" x2="356.8" y2="218.3"/>
																		<polyline class="st3" points="-186.4,-98 158.4,-98 158.4,-25.4 																		"/>
																		<polyline class="st3" points="158.4,-54.8 260.1,-54.8 260.1,12.7 																		"/>
																		<line class="st3" x1="175.6" y1="-131" x2="175.6" y2="-167.6"/>
																		<line class="st3" x1="205" y1="-131" x2="205" y2="-54.8"/>
																		<polyline class="st3" points="303.5,-65.9 303.5,-120.9 334.2,-120.9 334.2,-167.6 																		"/>
																		<polyline class="st3" points="1296.1,229.8 1296.1,123.2 1146.5,123.2 1146.5,57.1 1058.4,57.1 
																																					"/>
																		<line class="st3" x1="1253.1" y1="123.2" x2="1253.1" y2="-6.6"/>
																		<polyline class="st3" points="1194.1,123.2 1194.1,162.7 1296.1,162.7 																		"/>
																		<polyline class="st3" points="1180,126 1180,85 1214.4,85 1214.4,-2.9 																		"/>
																		<polyline class="st3" points="532.6,330 533.9,448.1 435.8,448.1 390.9,448.1 390.9,510.9 																		"/>
																		<line class="st3" x1="85.6" y1="408.2" x2="153.2" y2="408.2"/>
																		<line class="st3" x1="103.6" y1="463.3" x2="103.6" y2="493.3"/>
																		<line class="st3" x1="72.7" y1="203.5" x2="72.7" y2="251.9"/>
																		<line class="st3" x1="179.5" y1="247.9" x2="219.6" y2="247.9"/>
																		<line class="st3" x1="129.1" y1="9.7" x2="175.6" y2="9.7"/>
																		<line class="st3" x1="80.6" y1="-63" x2="121.1" y2="-63"/>
																		<line class="st3" x1="550.4" y1="451.7" x2="550.4" y2="488"/>
																		<line class="st3" x1="1131.8" y1="245.4" x2="1197.3" y2="245.4"/>
																		<line class="st3" x1="887.4" y1="404.2" x2="934.5" y2="404.2"/>
																		<line class="st3" x1="659" y1="466.7" x2="659" y2="493.3"/>
																		<line class="st3" x1="842.9" y1="18.6" x2="842.9" y2="65.8"/>
																		<line class="st3" x1="941.7" y1="306.5" x2="991.3" y2="306.5"/>
																		<line class="st3" x1="1079.6" y1="331.4" x2="1079.6" y2="377.9"/>
																		<line class="st3" x1="763.5" y1="287.4" x2="855.2" y2="287.4"/>
																		<line class="st3" x1="934.5" y1="-91.8" x2="934.5" y2="-45.2"/>
																		<line class="st3" x1="462.5" y1="-65.9" x2="462.5" y2="115.4"/>
																		<line class="st3" x1="420.5" y1="483.3" x2="470.3" y2="483.3"/>
																		<polyline class="st3" points="1112.2,294.4 1111.4,358.2 1225.5,359.2 																		"/>
																		<polyline class="st3" points="1252.4,229.6 1252.4,266.4 1289.2,266.4 1289.2,446.7 1153,446.7 1153,524.5 
																																					"/>
																		<polyline class="st3" points="46.9,-165.3 45.6,39.2 21.1,39.2 20.1,212.9 43.9,212.9 43.9,299.2 
																																					"/>
																		<line class="st3" x1="1245.3" y1="304.1" x2="1245.3" y2="372.2"/>
																		<line class="st3" x1="1094.3" y1="28.9" x2="1176" y2="28.9"/>
																		<line class="st3" x1="1241" y1="162.7" x2="1241" y2="227.4"/>
																		<line class="st3" x1="-32.3" y1="328.9" x2="-32.3" y2="377.2"/>
																		<line class="st3" x1="-39.1" y1="242.8" x2="-39.1" y2="299.2"/>
																		<line class="st3" x1="39.7" y1="104.8" x2="121.4" y2="104.8"/>
																		<polyline class="st3" points="1253.1,26.8 1306,26.8 1306,-53.7 1370.4,-53.7 																		"/>
																		<line class="st3" x1="7.3" y1="352.4" x2="72.9" y2="352.4"/>
																		<line class="st3" x1="-27.3" y1="77.6" x2="-27.3" y2="132.7"/>
																	</g>
																	<g>
																		<circle class="st0" cx="297.5" cy="287.7" r="7.4"/>
																		<circle class="st0" cx="345.1" cy="327.3" r="7.4"/>
																		<circle class="st0" cx="297.5" cy="411.7" r="7.4"/>
																		<circle class="st0" cx="200.8" cy="287.8" r="7.4"/>
																		<circle class="st0" cx="259.3" cy="350.5" r="7.4"/>
																		<circle class="st0" cx="200.8" cy="438.8" r="7.4"/>
																		<circle class="st0" cx="160.6" cy="475.7" r="7.4"/>
																		<circle class="st0" cx="121.1" cy="327.9" r="7.4"/>
																		<circle class="st0" cx="-68.3" cy="327.9" r="7.4"/>
																		<circle class="st0" cx="85.6" cy="408.2" r="7.4"/>
																		<circle class="st0" cx="153.2" cy="408.2" r="7.4"/>
																		<circle class="st0" cx="103.6" cy="460.9" r="7.4"/>
																		<circle class="st0" cx="103.6" cy="495.6" r="7.4"/>
																		<circle class="st0" cx="149.9" cy="296.3" r="7.4"/>
																		<circle class="st0" cx="103.6" cy="162.9" r="7.4"/>
																		<circle class="st0" cx="-25.1" cy="162.9" r="7.4"/>
																		<circle class="st0" cx="41.5" cy="104.7" r="7.4"/>
																		<circle class="st0" cx="121.7" cy="104.7" r="7.4"/>
																		<circle class="st0" cx="44.5" cy="213.1" r="7.4"/>
																		<circle class="st0" cx="44.5" cy="296.3" r="7.4"/>
																		<circle class="st0" cx="4.6" cy="353.3" r="7.4"/>
																		<circle class="st0" cx="72.7" cy="353.3" r="7.4"/>
																		<circle class="st0" cx="72.7" cy="203.5" r="7.4"/>
																		<circle class="st0" cx="72.7" cy="253.1" r="7.4"/>
																		<circle class="st0" cx="201.3" cy="210.9" r="7.4"/>
																		<circle class="st0" cx="149.9" cy="77.6" r="7.4"/>
																		<circle class="st0" cx="85.6" cy="75.8" r="7.4"/>
																		<circle class="st0" cx="85.6" cy="-25.4" r="7.4"/>
																		<circle class="st0" cx="46.4" cy="38.2" r="7.4"/>
																		<circle class="st0" cx="158.4" cy="-98" r="7.4"/>
																		<circle class="st0" cx="124.9" cy="-63" r="7.4"/>
																		<circle class="st0" cx="179.2" cy="9.7" r="7.4"/>
																		<circle class="st0" cx="124.9" cy="9.7" r="7.4"/>
																		<circle class="st0" cx="-97.7" cy="213.1" r="7.4"/>
																		<circle class="st0" cx="-97.7" cy="36.2" r="7.4"/>
																		<circle class="st0" cx="-39.5" cy="240.4" r="7.4"/>
																		<circle class="st0" cx="-39.5" cy="302.3" r="7.4"/>
																		<circle class="st0" cx="-79.1" cy="374.1" r="7.4"/>
																		<circle class="st0" cx="259.3" cy="-54.3" r="7.4"/>
																		<circle class="st0" cx="227.1" cy="12.7" r="7.4"/>
																		<circle class="st0" cx="274.1" cy="-131" r="7.4"/>
																		<circle class="st0" cx="334.2" cy="-121.4" r="7.4"/>
																		<circle class="st0" cx="428.3" cy="-65.9" r="7.4"/>
																		<circle class="st0" cx="412.4" cy="-105.5" r="7.4"/>
																		<circle class="st0" cx="499.3" cy="-105.5" r="7.4"/>
																		<circle class="st0" cx="462.5" cy="-70.5" r="7.4"/>
																		<circle class="st0" cx="428.1" cy="62.7" r="7.4"/>
																		<circle class="st0" cx="499" cy="26.7" r="7.4"/>
																		<circle class="st0" cx="598.2" cy="-64.9" r="7.4"/>
																		<circle class="st0" cx="628.1" cy="-146" r="7.4"/>
																		<circle class="st0" cx="709.7" cy="-149" r="7.4"/>
																		<circle class="st0" cx="709.7" cy="-25.4" r="7.4"/>
																		<circle class="st0" cx="749.3" cy="27.8" r="7.4"/>
																		<circle class="st0" cx="693.6" cy="27.8" r="7.4"/>
																		<circle class="st0" cx="664.8" cy="-120.9" r="7.4"/>
																		<circle class="st0" cx="847.1" cy="-120.9" r="7.4"/>
																		<circle class="st0" cx="749.5" cy="-70.5" r="7.4"/>
																		<circle class="st0" cx="902.7" cy="-70.5" r="7.4"/>
																		<circle class="st0" cx="1015.4" cy="-136.6" r="7.4"/>
																		<circle class="st0" cx="902.7" cy="-136.6" r="7.4"/>
																		<circle class="st0" cx="971.4" cy="-91.8" r="7.4"/>
																		<circle class="st0" cx="934.5" cy="-96.4" r="7.4"/>
																		<circle class="st0" cx="934.5" cy="-40.5" r="7.4"/>
																		<circle class="st0" cx="1084.6" cy="-48" r="7.4"/>
																		<circle class="st0" cx="971.4" cy="-15.9" r="7.4"/>
																		<circle class="st0" cx="780.5" cy="-15.9" r="7.4"/>
																		<circle class="st0" cx="892.1" cy="77.6" r="7.4"/>
																		<circle class="st0" cx="842.9" cy="12.6" r="7.4"/>
																		<circle class="st0" cx="842.9" cy="65.8" r="7.4"/>
																		<circle class="st0" cx="780.5" cy="75.5" r="7.4"/>
																		<circle class="st0" cx="974.3" cy="112.7" r="7.4"/>
																		<circle class="st0" cx="847.1" cy="144" r="7.4"/>
																		<circle class="st0" cx="780.7" cy="164.2" r="7.4"/>
																		<circle class="st0" cx="780.7" cy="220.9" r="7.4"/>
																		<circle class="st0" cx="696.8" cy="350.5" r="7.4"/>
																		<circle class="st0" cx="1136.8" cy="245.4" r="7.4"/>
																		<circle class="st0" cx="909.5" cy="350.5" r="7.4"/>
																		<circle class="st0" cx="782.1" cy="377.9" r="7.4"/>
																		<circle class="st0" cx="1198" cy="245.4" r="7.4"/>
																		<circle class="st0" cx="1094.7" cy="28.5" r="7.4"/>
																		<circle class="st0" cx="1177" cy="16.5" r="7.4"/>
																		<circle class="st0" cx="725.3" cy="379.1" r="7.4"/>
																		<circle class="st0" cx="514.4" cy="423.1" r="7.4"/>
																		<circle class="st0" cx="550.4" cy="448.1" r="7.4"/>
																		<circle class="st0" cx="550.4" cy="493.3" r="7.4"/>
																		<circle class="st0" cx="653.3" cy="425.2" r="7.4"/>
																		<circle class="st0" cx="659" cy="463.1" r="7.4"/>
																		<circle class="st0" cx="659" cy="497.9" r="7.4"/>
																		<circle class="st0" cx="847.1" cy="459.2" r="7.4"/>
																		<circle class="st0" cx="972.2" cy="425.7" r="7.4"/>
																		<circle class="st0" cx="1039.2" cy="377.3" r="7.4"/>
																		<circle class="st0" cx="1079.6" cy="328.9" r="7.4"/>
																		<circle class="st0" cx="1079.6" cy="380.1" r="7.4"/>
																		<circle class="st0" cx="1245.5" cy="304.2" r="7.4"/>
																		<circle class="st0" cx="1252.9" cy="267.1" r="7.4"/>
																		<circle class="st0" cx="1245.5" cy="367.8" r="7.4"/>
																		<circle class="st0" cx="1119.2" cy="357.8" r="7.4"/>
																		<circle class="st0" cx="1039.2" cy="292.8" r="7.4"/>
																		<circle class="st0" cx="995.1" cy="306.5" r="7.4"/>
																		<circle class="st0" cx="937.4" cy="306.5" r="7.4"/>
																		<circle class="st0" cx="960.3" cy="350.4" r="7.4"/>
																		<circle class="st0" cx="885.7" cy="404.2" r="7.4"/>
																		<circle class="st0" cx="935.5" cy="404.2" r="7.4"/>
																		<circle class="st0" cx="1034.1" cy="414.3" r="7.4"/>
																		<circle class="st0" cx="909.5" cy="275.1" r="7.4"/>
																		<circle class="st0" cx="759.5" cy="287.4" r="7.4"/>
																		<circle class="st0" cx="754.6" cy="338.1" r="7.4"/>
																		<circle class="st0" cx="857.6" cy="287.4" r="7.4"/>
																		<circle class="st0" cx="1072" cy="448.1" r="7.4"/>
																		<circle class="st0" cx="419.7" cy="356" r="7.4"/>
																		<circle class="st0" cx="485.6" cy="448.1" r="7.4"/>
																		<circle class="st0" cx="470.3" cy="483.3" r="7.4"/>
																		<circle class="st0" cx="420.5" cy="483.3" r="7.4"/>
																		<circle class="st0" cx="847.1" cy="253.1" r="7.4"/>
																		<circle class="st0" cx="991.3" cy="221.3" r="7.4"/>
																		<circle class="st0" cx="1039.6" cy="182.9" r="7.4"/>
																		<circle class="st0" cx="1226.5" cy="228.7" r="7.4"/>
																		<circle class="st0" cx="179.5" cy="247.9" r="7.4"/>
																		<circle class="st0" cx="219.6" cy="247.9" r="7.4"/>
																		<circle class="st0" cx="280.6" cy="42.4" r="7.4"/>
																		<circle class="st0" cx="1195.2" cy="163" r="7.4"/>
																		<circle class="st0" cx="1295.5" cy="122.1" r="7.4"/>
																		<circle class="st0" cx="1289.3" cy="293" r="7.4"/>
																		<circle class="st0" cx="1085.5" cy="103.2" r="7.4"/>
																		<circle class="st0" cx="1147.4" cy="58.6" r="7.4"/>
																		<circle class="st0" cx="1179.6" cy="85.9" r="7.4"/>
																		<circle class="st0" cx="1213" cy="85.9" r="7.4"/>
																		<circle class="st0" cx="1147.4" cy="121.8" r="7.4"/>
																		<circle class="st0" cx="1162.3" cy="218.3" r="7.4"/>
																		<circle class="st0" cx="481.1" cy="-131" r="7.4"/>
																		<circle class="st0" cx="321.3" cy="-25.4" r="7.4"/>
																		<circle class="st0" cx="310.5" cy="77.6" r="7.4"/>
																		<circle class="st0" cx="358.8" cy="97.4" r="7.4"/>
																		<circle class="st0" cx="385.8" cy="12.7" r="7.4"/>
																		<circle class="st0" cx="385.8" cy="140.7" r="7.4"/>
																		<circle class="st0" cx="251.7" cy="128.3" r="7.4"/>
																		<circle class="st0" cx="310.5" cy="172.6" r="7.4"/>
																		<circle class="st0" cx="294.4" cy="218.3" r="7.4"/>
																		<circle class="st0" cx="356.8" cy="218.3" r="7.4"/>
																		<circle class="st0" cx="378" cy="411.7" r="7.4"/>
																		<circle class="st0" cx="340" cy="475.7" r="7.4"/>
																		<circle class="st0" cx="378" cy="307.1" r="7.4"/>
																		<circle class="st0" cx="346" cy="254.1" r="7.4"/>
																		<circle class="st0" cx="-56.1" cy="134.1" r="7.4"/>
																		<circle class="st0" cx="-56.1" cy="188.6" r="7.4"/>
																		<circle class="st0" cx="-47.4" cy="75.8" r="7.4"/>
																		<circle class="st0" cx="-75.9" cy="15.2" r="7.4"/>
																		<circle class="st0" cx="-20.2" cy="15.2" r="7.4"/>
																		<circle class="st0" cx="725" cy="153.7" r="7.4"/>
																	</g>
																</g>
																<line class="st3" x1="-130.1" y1="105" x2="-185.8" y2="105"/>
																<polyline class="st3" points="-19.9,35.5 -19.9,14.4 -76.9,14.4 -76.9,-108.1 																"/>
																<polyline class="st3" points="-69.4,248.4 -115.2,248.7 -185.8,248.7 																"/>
																<line class="st3" x1="-130.1" y1="374.7" x2="-130.1" y2="248.4"/>
															</g>
														</g>
													</g>
												</g>
											</g>
										</g>
									</g>
								</g>
							</g>
						</g>
					</g>
				</g>
			</g>
		</g>
		<g>
			<g>
				<circle class="st0" cx="563" cy="164.2" r="125"/>
				<g>
					<g>
						<g>
							<g>
								<g>
									<path class="st4" d="M536.1,249.5c-0.4-2.7-1.5-5.4-2.7-7.8c-1.1-0.2-2.1-0.4-3.2-0.4c-1-0.1-2.1-0.1-3.1-0.6
										c-0.3-0.1-0.6-0.3-0.8-0.5c-1.9,2.5-3.9,4.9-5.4,7.7C525.4,250.6,531.1,250.1,536.1,249.5z"/>
									<g>
										<path class="st5" d="M536.5,195.8c1.6,0.4,3.4,0.9,4.9,1.5s3,1.1,4.4,1.9c0.5-1.6,1.1-3.1,1.9-4.6c0-0.1,0.1-0.1,0.1-0.1
											c-0.6-0.4-1.2-0.6-1.9-1c-2.3-1.4-4.4-3.1-6.4-4.9c-0.9,1.2-1.5,2.6-2,4C537.2,193.7,536.9,194.8,536.5,195.8z"/>
										<path class="st5" d="M536.5,210.8c-0.9-0.4-2-0.8-2.9-1.2c-0.4-0.2-0.9-0.4-1.4-0.6c-0.1,0.4-0.3,1-0.4,1.4
											c-0.7,2.9-1.4,5.7-1.9,8.6c2.8,1,5.8,1.5,8.7,2.6c0.4-1.5,0.9-3,1.4-4.5s1-3.2,1.5-4.7C539.7,212,538.1,211.4,536.5,210.8
											z"/>
										<path class="st5" d="M529.7,220.7c-0.3,1.6-0.5,3.1-0.7,4.7c-0.2,1.6-0.4,3.2-0.7,4.9c0.3,0.1,0.6,0.1,0.9,0.2
											c0.9,0.2,1.9,0.5,2.9,0.6c0.9,0.1,1.7,0.4,2.6,0.4c0.3,0,0.6,0,0.9-0.1c0.1,0,0.2-0.1,0.3-0.1c0.2-0.9,0.5-1.9,0.7-2.8
											c0.4-1.8,0.9-3.6,1.4-5.3C535.2,222.4,532.3,221.7,529.7,220.7z"/>
										<path class="st5" d="M535.9,197.7c-0.2,0.6-0.4,1.1-0.6,1.7c-0.9,2.6-1.7,5.1-2.5,7.7c0.6,0.2,1.1,0.4,1.6,0.6
											c0.9,0.4,1.9,0.8,2.9,1.1c1.5,0.6,3.1,1.1,4.7,1.5c0.6-1.8,1.2-3.6,1.9-5.4c0.4-1.2,0.9-2.4,1.4-3.6
											c-1.5-0.9-3.1-1.6-4.8-2.1C538.9,198.7,537.3,198.3,535.9,197.7z"/>
										<path class="st5" d="M531.9,233.2c-1.1-0.2-2.1-0.5-3.1-0.7c-0.3-0.1-0.6-0.1-0.9-0.2c0,0.2-0.1,0.5-0.1,0.7
											c-0.1,1.2-0.4,2.4-0.5,3.6c0,0.6-0.1,1.3,0.1,1.9c0.1,0.1,0.4,0.4,0.6,0.5c0.5,0.1,0.9,0.2,1.4,0.3
											c1.2,0.1,2.4,0.2,3.6,0.4c0.8-2,1.4-4,2-6.1c-0.1,0-0.2,0.1-0.4,0.1C533.8,233.5,532.8,233.4,531.9,233.2z"/>
									</g>
									<path class="st2" d="M529.9,218.7c-0.1-0.1-0.3-0.1-0.5-0.1c-1-0.4-1.7,1.4-0.7,1.8c0.3,0.1,0.6,0.2,0.9,0.4
										c2.7,1.1,5.5,1.7,8.3,2.6c0.3,0.1,0.5,0.1,0.8,0.2c1.3,0.4,1.7-1.5,0.5-1.9c-0.2-0.1-0.5-0.1-0.7-0.3
										C535.7,220.2,532.7,219.7,529.9,218.7z"/>
									<path class="st2" d="M537.2,208.9c-0.9-0.4-1.9-0.8-2.9-1.1c-0.5-0.2-1.1-0.4-1.6-0.6c-0.4-0.1-0.8-0.2-1.1-0.3
										c-0.9-0.1-1.6,1-0.6,1.6c0.4,0.2,0.8,0.4,1.3,0.6c0.4,0.2,0.9,0.4,1.4,0.6c0.9,0.4,1.9,0.8,2.9,1.2
										c1.6,0.6,3.2,1.2,4.9,1.6c0.2,0.1,0.4,0.1,0.7,0.1c1.3,0.2,1.9-1.8,0.6-2c-0.2,0-0.4-0.1-0.6-0.1
										C540.3,210,538.7,209.5,537.2,208.9z"/>
									<path class="st2" d="M536.5,195.8c-0.4-0.1-0.7-0.1-1.1-0.2c-0.9-0.1-1.6,1.1-0.6,1.6c0.4,0.2,0.7,0.4,1.1,0.5
										c1.4,0.6,3,1,4.4,1.5c1.6,0.6,3.3,1.2,4.8,2.1c0.2,0.1,0.4,0.2,0.6,0.4c1.1,0.8,2.2-1.1,1.1-1.9c-0.3-0.2-0.6-0.4-1-0.6
										c-1.4-0.8-2.9-1.4-4.4-1.9C539.8,196.8,538.2,196.2,536.5,195.8z"/>
									<g>
										<path class="st6" d="M547.9,194.6c0,0.1-0.1,0.1-0.1,0.1c-0.9,1.4-1.4,3-1.9,4.6c0.4,0.2,0.6,0.4,1,0.6
											c1.1,0.8,0.1,2.6-1.1,1.9c-0.2-0.1-0.4-0.3-0.6-0.4c-0.4,1.2-0.9,2.4-1.4,3.6c-0.6,1.8-1.2,3.6-1.9,5.4
											c0.2,0.1,0.4,0.1,0.6,0.1c1.3,0.2,0.8,2.2-0.6,2c-0.2-0.1-0.5-0.1-0.7-0.1c-0.5,1.5-1,3.1-1.4,4.6
											c-0.4,1.4-0.9,2.9-1.4,4.4c0.2,0.1,0.5,0.1,0.7,0.3c1.2,0.5,0.7,2.4-0.5,1.9c-0.3-0.1-0.5-0.1-0.8-0.2
											c-0.5,1.8-1,3.5-1.4,5.3c-0.2,0.9-0.4,1.9-0.7,2.8c0.1,0,0.1,0,0.2,0s0.2,0,0.3,0.1c0.6,0.1,0.9,0.7,0.7,1.3
											c0,0-0.1,0.1-0.1,0.3c-0.1,0.1-0.2,0.3-0.4,0.4c-0.1,0.1-0.4,0.1-0.6,0.2c-0.2,0.1-0.5,0.1-0.8,0.1
											c-0.6,2.1-1.2,4.1-2,6.1c-1.2-0.2-2.4-0.3-3.6-0.4c-0.5-0.1-0.9-0.1-1.4-0.3c-0.2-0.1-0.5-0.3-0.6-0.5
											c-0.2-0.6-0.2-1.3-0.1-1.9c0.1-1.2,0.3-2.4,0.5-3.6c0-0.2,0.1-0.4,0.1-0.7c-0.6-0.1-1.1-0.3-1.6-0.5
											c-0.9-0.4-0.4-1.8,0.4-1.7c0.5,0,0.9,0.1,1.4,0.3c0.2-1.6,0.4-3.2,0.7-4.9c0.2-1.6,0.5-3.1,0.7-4.7
											c-0.3-0.1-0.6-0.2-0.9-0.4c-1-0.4-0.3-2.1,0.7-1.8c0.1,0.1,0.3,0.1,0.5,0.1c0.5-2.8,1.1-5.6,1.9-8.4
											c0.1-0.4,0.3-0.9,0.4-1.4c-0.4-0.2-0.9-0.4-1.3-0.6c-0.9-0.6-0.3-1.7,0.6-1.6c0.4,0.1,0.8,0.1,1.1,0.3
											c0.8-2.6,1.7-5.1,2.5-7.7c0.2-0.6,0.4-1.1,0.6-1.7c-0.4-0.1-0.7-0.3-1.1-0.5c-0.9-0.5-0.2-1.7,0.6-1.6
											c0.4,0.1,0.7,0.1,1.1,0.2c0.4-1.1,0.8-2.1,1.2-3.2c0.6-1.3,1.1-2.8,2-4c0.1-0.2,0.4-0.5,0.5-0.6c0.9-0.9-0.5-2.3-1.4-1.4
											c-0.2,0.2-0.4,0.4-0.6,0.6c-1.9,2.1-2.9,5.2-3.9,7.8c-1.1,3.2-2.1,6.5-3.2,9.7c-3.4,9.6-4.4,19.8-5.9,29.8
											c-0.1,1.1-0.4,2.6-0.2,3.8c0.9-0.8,2.4,0.4,1.6,1.4c-0.2,0.3-0.4,0.5-0.6,0.8c0.2,0.2,0.5,0.4,0.8,0.5
											c0.9,0.4,2,0.5,3,0.6c1.1,0.1,2.1,0.2,3.1,0.4c-0.1-0.1-0.1-0.3-0.2-0.5c-0.6-1.3,1.2-2.4,1.9-1.1
											c0.1,0.2,0.1,0.4,0.3,0.6c1.4-3.5,2.4-7.1,3.4-10.9c1-3.9,2.1-7.8,3.4-11.6c1.3-4,2.5-8,3.9-11.9c0.6-1.9,1.4-3.8,2.1-5.7
											c0.6-1.6,1.1-3.4,2-4.9c0.1-0.1,0.1-0.2,0.1-0.3C550.1,194.5,548.6,193.7,547.9,194.6z"/>
										<path class="st6" d="M532.9,241.4c0.1,0.1,0.1,0.3,0.2,0.5c1.1,2.4,2.1,5,2.6,7.6c-4.9,0.6-10.4,1-14.8-1.6
											c1.4-2.7,3.4-5.1,5.2-7.5c0.2-0.3,0.4-0.5,0.6-0.8c0.7-1-0.9-2.2-1.6-1.4l-0.1,0.1c-2.4,3-4.9,5.9-6.5,9.4
											c-0.3,0.6-0.1,1.1,0.4,1.6c5.1,3.9,12.2,3.1,18.1,2.4c0.6-0.1,1.2-0.5,1.1-1.1c-0.4-3.4-1.6-6.6-3.1-9.6
											c-0.1-0.2-0.1-0.4-0.3-0.6C534.1,239.1,532.3,240.2,532.9,241.4z"/>
										<path class="st6" d="M534.9,231.4c-0.9,0-1.8-0.1-2.6-0.4c-0.9-0.2-1.9-0.4-2.9-0.6c-0.3-0.1-0.6-0.1-0.9-0.2
											c-0.5-0.1-0.9-0.2-1.4-0.3c-0.9,0-1.4,1.4-0.4,1.7c0.5,0.2,1.1,0.4,1.6,0.5c0.3,0.1,0.6,0.1,0.9,0.2
											c1,0.3,2.1,0.6,3.1,0.7c0.9,0.2,1.9,0.4,2.9,0.4c0.1,0,0.2,0,0.4-0.1c0.3,0,0.5,0,0.8-0.1c0.2-0.1,0.4-0.1,0.6-0.2
											c0.1-0.1,0.3-0.2,0.4-0.4c0.1-0.1,0.1-0.2,0.1-0.3c0.2-0.5-0.1-1.2-0.7-1.3c-0.1,0-0.2-0.1-0.3-0.1s-0.1,0-0.2,0
											c-0.1,0-0.1,0.1-0.3,0.1C535.5,231.4,535.2,231.4,534.9,231.4z"/>
									</g>
								</g>
								<g>
									<path class="st4" d="M495.3,205.2c-0.1,0-0.1,0-0.1,0c-2.9,1.1-4.9,5-3.7,7.8c0.5,1.2,1.2,2.5,2.2,3.4
										c0.3,0.3,0.9,0.7,1.1,0.7c0.1,0,0.1,0,0.2-0.1c0.2-0.2,0.4-0.4,0.4-0.6c0.4-0.8-0.1-1.5-0.2-2.3c-0.1-0.9,0-1.7,0.6-2.4
										c1.3-1.4,3.4-1.6,4.8-0.1c1.1,1.2,1.4,3.1,0.8,4.6c-0.1,0.4-0.9,1.4-0.7,1.9c0.2,0.7,1.4,0.8,2,0.6c1.9-0.8,3-3.4,3.1-5.3
										c0.1-2.3-0.6-4.4-1.8-6.4c-0.1,0-0.1,0-0.1,0C501,206.2,498.2,205.2,495.3,205.2z"/>
									<g>
										<path class="st5" d="M517.2,164.8c1.9,3.6,4,6.9,5.4,10.6c0.6-0.4,1.1-0.7,1.7-1.1c-0.2-4.5-0.3-9.1-0.1-13.6
											C521.7,161.7,519.3,163.1,517.2,164.8z"/>
										<path class="st5" d="M515.7,166.2c-0.8,0.7-1.5,1.4-2.2,2.1c-1.4,1.5-2.8,3.1-4.1,4.7c3.1,1.6,5.6,4.6,7.3,7.6
											c1.4-1.4,2.8-2.8,4.4-3.9C519.7,173,517.5,169.6,515.7,166.2z"/>
										<path class="st5" d="M508.2,174.7c-1,1.4-1.9,2.7-2.8,4.1s-1.7,2.9-2.4,4.4c2.6,1.9,5.4,3.4,7.9,5.3
											c0.1-0.3,0.3-0.5,0.4-0.8c1.2-2,2.6-3.9,4.1-5.6c-0.1-0.1-0.1-0.1-0.2-0.2C513.5,179,511.1,176.1,508.2,174.7z"/>
										<path class="st5" d="M502,184.9c-1.6,3.1-2.9,6.5-3.9,9.9c1.3,0.1,2.6,0.5,3.8,0.9c1.6,0.6,3.1,1.4,4.4,2.3
											c1-2.7,2.1-5.3,3.5-7.9c0,0-0.1,0-0.1-0.1C507.3,188.2,504.5,186.8,502,184.9z"/>
										<path class="st5" d="M497.5,196.8c-0.6,2.1-0.9,4.3-1.2,6.4c2.6,0.2,5.1,1.1,7.7,1.7c0.5-1.7,1.1-3.4,1.6-5
											c-0.1,0-0.1-0.1-0.2-0.1C503.2,198.3,500.3,196.8,497.5,196.8z"/>
									</g>
									<g>
										<path class="st6" d="M496,203.2c0.1,0,0.2,0,0.4,0c0.3-2.1,0.7-4.3,1.2-6.4c-0.2,0-0.4,0-0.6,0c-1.3,0.1-1.3-1.9,0-2
											c0.4-0.1,0.8-0.1,1.2,0c1-3.4,2.3-6.7,3.9-9.9c-0.1-0.1-0.3-0.2-0.4-0.3c-1-0.8,0-2.5,1-1.7c0.1,0.1,0.2,0.1,0.4,0.2
											c0.8-1.5,1.6-2.9,2.4-4.4c0.9-1.4,1.9-2.8,2.8-4.1c-0.1,0-0.1-0.1-0.1-0.1c-1.1-0.6-0.1-2.3,1-1.7
											c0.1,0.1,0.2,0.1,0.4,0.2c1.3-1.6,2.6-3.2,4.1-4.7c0.7-0.8,1.5-1.5,2.2-2.1c-0.1-0.3-0.4-0.6-0.5-1
											c-0.6-1.1,1.1-2.1,1.7-1c0.1,0.2,0.2,0.4,0.4,0.6c2.1-1.7,4.4-3.1,7-4.1c0.1-0.1,0.3-0.1,0.4-0.1c1.1-0.4,0.7-2.1-0.3-1.9
											c-0.1,0-0.1,0-0.2,0c-4.4,1.5-8.1,4.2-11.4,7.5c-3.1,3.1-5.9,6.6-8.3,10.2c-4.9,7.4-8.4,15.8-9.9,24.6
											c-0.1,0.8-0.2,1.6-0.4,2.4c0.3-0.1,0.6-0.2,0.9-0.3C495.5,203,495.8,203,496,203.2z"/>
										<path class="st6" d="M524.7,174.1c-0.1,0.1-0.2,0.1-0.4,0.2c-0.6,0.4-1.1,0.7-1.7,1.1c0.1,0.4,0.3,0.6,0.4,1
											c0.4,1.2-1.5,1.7-1.9,0.6c0-0.1-0.1-0.2-0.1-0.3c-1.6,1.2-3,2.5-4.4,3.9c0.1,0.1,0.1,0.2,0.1,0.3c0.6,1-0.8,1.9-1.5,1.2
											c-1.5,1.7-2.9,3.6-4.1,5.6c-0.1,0.3-0.3,0.5-0.4,0.8c0.1,0.1,0.2,0.1,0.4,0.3c1,0.8-0.4,2.1-1.4,1.4
											c-1.4,2.5-2.5,5.1-3.5,7.9c0.1,0,0.1,0.1,0.1,0.1c1,0.6,0.2,2.2-0.8,1.8c-0.6,1.6-1.1,3.4-1.6,5c0.1,0,0.2,0.1,0.4,0.1
											c0.2,0.1,0.4,0.2,0.5,0.4c0.3,0,0.6,0.1,0.8,0.4c0.1,0.1,0.1,0.1,0.1,0.2c1.8-5.9,3.9-11.8,7.1-17.1
											c2.9-4.9,6.9-9.1,11.7-12.3c0.4-0.3,0.8-0.5,1.2-0.8C526.9,175.3,525.9,173.5,524.7,174.1z"/>
										<path class="st6" d="M504.9,205.3c-0.7-0.1-1.4,0.7-1,1.5c0,0.1,0.1,0.1,0.1,0.1c1.1,2,1.9,4.1,1.8,6.4
											c-0.1,1.9-1.2,4.5-3.1,5.3c-0.6,0.2-1.8,0.1-2-0.6c-0.1-0.4,0.6-1.5,0.7-1.9c0.6-1.5,0.3-3.5-0.8-4.6
											c-1.4-1.5-3.5-1.2-4.8,0.1c-0.6,0.7-0.7,1.6-0.6,2.4c0.1,0.8,0.6,1.5,0.2,2.3c-0.1,0.3-0.3,0.5-0.4,0.6s-0.1,0.1-0.2,0.1
											c-0.3,0-0.9-0.4-1.1-0.7c-1-0.9-1.7-2.2-2.2-3.4c-1.1-2.9,0.9-6.8,3.7-7.8c0.2-0.1,0.4-0.1,0.6-0.1
											c0.9-0.2,0.9-1.3,0.3-1.8c-0.2-0.1-0.5-0.2-0.8-0.1c-0.3,0.1-0.6,0.1-0.9,0.3c-3.3,1.2-5.1,4.9-5.2,8.3
											c0,1.4,0.6,2.8,1.4,3.9c0.7,1.2,1.6,2.4,2.9,3.1c1.1,0.6,2.5,0.5,3.4-0.5c0.5-0.6,0.8-1.4,0.9-2.2
											c0.1-0.9-0.4-1.6-0.4-2.4c-0.1-0.6,1-1.2,1.6-0.9s0.9,1.1,0.9,1.8c0.1,1.6-1.1,2.7-0.9,4.3c0.3,1.7,2.6,2.3,4,2.1
											c1.6-0.3,3-1.9,3.8-3.4c2-3.6,1.2-7.9-0.9-11.4c-0.1-0.1-0.1-0.1-0.1-0.2C505.5,205.5,505.2,205.3,504.9,205.3z"/>
										<path class="st6" d="M498.1,194.8c-0.4,0-0.8,0-1.2,0c-1.3,0.1-1.3,2.1,0,2c0.2,0,0.4,0,0.6,0c2.8,0,5.7,1.6,7.9,3
											c0.1,0.1,0.1,0.1,0.2,0.1c1,0.4,1.8-1.1,0.8-1.8c-0.1,0-0.1-0.1-0.1-0.1c-1.4-0.9-2.9-1.6-4.4-2.3
											C500.7,195.3,499.4,194.9,498.1,194.8z"/>
										<path class="st6" d="M502.5,182.9c-1.1-0.8-2,1-1,1.7c0.1,0.1,0.3,0.2,0.4,0.3c2.5,1.8,5.3,3.3,7.7,5.2c0,0,0.1,0,0.1,0.1
											c1,0.6,2.3-0.6,1.4-1.4c-0.1-0.1-0.2-0.1-0.4-0.3c-2.5-1.9-5.3-3.4-7.9-5.3C502.8,183,502.7,183,502.5,182.9z"/>
										<path class="st6" d="M509,172.8c-1.1-0.6-2.1,1.1-1,1.7c0.1,0,0.1,0.1,0.1,0.1c3,1.5,5.4,4.4,6.9,7.2
											c0.1,0.1,0.1,0.1,0.2,0.2c0.7,0.7,2.1-0.2,1.5-1.2c-0.1-0.1-0.1-0.2-0.1-0.3c-1.6-3-4.2-6-7.3-7.6
											C509.2,173,509.2,172.9,509,172.8z"/>
										<path class="st6" d="M517.2,164.8c-0.1-0.2-0.2-0.4-0.4-0.6c-0.6-1.1-2.3-0.1-1.7,1c0.1,0.4,0.4,0.6,0.5,1
											c1.9,3.5,3.9,6.8,5.4,10.5c0.1,0.1,0.1,0.2,0.1,0.3c0.4,1.2,2.4,0.7,1.9-0.6c-0.1-0.4-0.2-0.6-0.4-1
											C521.2,171.8,519.1,168.3,517.2,164.8z"/>
										<path class="st6" d="M496,203.2c0.6,0.4,0.6,1.6-0.3,1.8c-0.2,0.1-0.4,0.1-0.6,0.1c0.1,0,0.1,0,0.1,0
											c2.9,0,5.8,1.1,8.6,1.8c0.1,0,0.1,0,0.1,0c0-0.1-0.1-0.1-0.1-0.1c-0.5-0.8,0.3-1.5,1-1.5c-0.1-0.1-0.3-0.3-0.5-0.4
											c-0.1,0-0.2-0.1-0.4-0.1c-2.6-0.6-5.1-1.5-7.7-1.7C496.2,203.2,496.1,203.2,496,203.2z"/>
									</g>
								</g>
								<g>
									<path class="st4" d="M630.7,127.4C630.8,127.4,630.8,127.4,630.7,127.4c3-1.1,5-5,3.8-7.8c-0.5-1.2-1.2-2.5-2.2-3.4
										c-0.3-0.3-0.9-0.7-1.1-0.7c-0.1,0-0.1,0-0.2,0.1c-0.2,0.2-0.4,0.4-0.4,0.6c-0.4,0.8,0.1,1.5,0.2,2.3c0.1,0.9,0,1.7-0.6,2.4
										c-1.3,1.4-3.4,1.6-4.8,0.1c-1.1-1.2-1.4-3.1-0.8-4.6c0.1-0.4,0.9-1.4,0.7-1.9c-0.2-0.7-1.4-0.8-2-0.6
										c-1.9,0.8-3,3.4-3.1,5.3c-0.1,2.3,0.6,4.4,1.8,6.4c0.1,0,0.1,0,0.1,0C625,126.4,627.8,127.4,630.7,127.4z"/>
									<g>
										<path class="st5" d="M608.8,167.8c-1.9-3.6-4-6.9-5.4-10.6c-0.6,0.4-1.1,0.7-1.7,1.1c0.2,4.5,0.3,9.1,0.1,13.6
											C604.3,170.9,606.7,169.5,608.8,167.8z"/>
										<path class="st5" d="M610.3,166.4c0.8-0.7,1.5-1.4,2.2-2.1c1.4-1.5,2.8-3.1,4.1-4.7c-3.1-1.6-5.6-4.6-7.3-7.6
											c-1.4,1.4-2.8,2.8-4.4,3.9C606.4,159.6,608.5,163,610.3,166.4z"/>
										<path class="st5" d="M617.8,157.9c1-1.4,1.9-2.7,2.8-4.1c0.9-1.4,1.7-2.9,2.4-4.4c-2.6-1.9-5.4-3.4-7.9-5.3
											c-0.1,0.3-0.3,0.5-0.4,0.8c-1.2,2-2.6,3.9-4.1,5.6c0.1,0.1,0.1,0.1,0.2,0.2C612.5,153.6,614.9,156.5,617.8,157.9z"/>
										<path class="st5" d="M624,147.7c1.6-3.1,2.9-6.5,3.9-9.9c-1.3-0.1-2.6-0.5-3.8-0.9c-1.6-0.6-3.1-1.4-4.4-2.3
											c-1,2.7-2.1,5.3-3.5,7.9c0,0,0.1,0,0.1,0.1C618.7,144.4,621.5,145.9,624,147.7z"/>
										<path class="st5" d="M628.5,135.8c0.6-2.1,0.9-4.3,1.2-6.4c-2.6-0.2-5.1-1.1-7.7-1.7c-0.5,1.7-1.1,3.4-1.6,5
											c0.1,0,0.1,0.1,0.2,0.1C622.8,134.3,625.7,135.9,628.5,135.8z"/>
									</g>
									<g>
										<path class="st6" d="M630,129.4c-0.1,0-0.2,0-0.4,0c-0.3,2.1-0.7,4.3-1.2,6.4c0.2,0,0.4,0,0.6,0c1.3-0.1,1.3,1.9,0,2
											c-0.4,0.1-0.8,0.1-1.2,0c-1,3.4-2.3,6.7-3.9,9.9c0.1,0.1,0.3,0.2,0.4,0.3c1,0.8,0,2.5-1,1.7c-0.1-0.1-0.2-0.1-0.4-0.2
											c-0.8,1.5-1.6,2.9-2.4,4.4c-0.9,1.4-1.9,2.8-2.8,4.1c0.1,0,0.1,0.1,0.1,0.1c1.1,0.6,0.1,2.3-1,1.7
											c-0.1-0.1-0.2-0.1-0.4-0.2c-1.3,1.6-2.6,3.2-4.1,4.7c-0.7,0.8-1.5,1.5-2.2,2.1c0.1,0.3,0.4,0.6,0.5,1
											c0.6,1.1-1.1,2.1-1.7,1c-0.1-0.2-0.2-0.4-0.4-0.6c-2.1,1.7-4.4,3.1-7,4.1c-0.1,0.1-0.3,0.1-0.4,0.1
											c-1.1,0.4-0.7,2.1,0.3,1.9c0.1,0,0.1,0,0.2,0c4.4-1.5,8.1-4.2,11.4-7.5c3.1-3.1,5.9-6.6,8.3-10.2
											c4.9-7.4,8.4-15.8,9.9-24.6c0.1-0.8,0.2-1.6,0.4-2.4c-0.3,0.1-0.6,0.2-0.9,0.3C630.5,129.6,630.2,129.6,630,129.4z"/>
										<path class="st6" d="M601.3,158.5c0.1-0.1,0.2-0.1,0.4-0.2c0.6-0.4,1.1-0.7,1.7-1.1c-0.1-0.4-0.3-0.6-0.4-1
											c-0.4-1.2,1.5-1.7,1.9-0.6c0,0.1,0.1,0.2,0.1,0.3c1.6-1.2,3-2.5,4.4-3.9c-0.1-0.1-0.1-0.2-0.1-0.3c-0.6-1,0.8-1.9,1.5-1.2
											c1.5-1.7,2.9-3.6,4.1-5.6c0.1-0.3,0.3-0.5,0.4-0.8c-0.1-0.1-0.2-0.1-0.4-0.3c-1-0.8,0.4-2.1,1.4-1.4
											c1.4-2.5,2.5-5.1,3.5-7.9c-0.1,0-0.1-0.1-0.1-0.1c-1-0.6-0.2-2.2,0.8-1.8c0.6-1.6,1.1-3.4,1.6-5c-0.1,0-0.2-0.1-0.4-0.1
											c-0.2-0.1-0.4-0.2-0.5-0.4c-0.3,0-0.6-0.1-0.8-0.4c-0.1-0.1-0.1-0.1-0.1-0.2c-1.8,5.9-3.9,11.8-7.1,17.1
											c-2.9,4.9-6.9,9.1-11.7,12.3c-0.4,0.3-0.8,0.5-1.2,0.8C599.1,157.3,600.1,159.1,601.3,158.5z"/>
										<path class="st6" d="M630,129.4c-0.6-0.4-0.6-1.6,0.3-1.8c0.2-0.1,0.4-0.1,0.6-0.1c-0.1,0-0.1,0-0.1,0
											c-2.9,0-5.8-1.1-8.6-1.8c-0.1,0-0.1,0-0.1,0c0,0.1,0.1,0.1,0.1,0.1c0.5,0.8-0.3,1.5-1,1.5c0.1,0.1,0.3,0.3,0.5,0.4
											c0.1,0,0.2,0.1,0.4,0.1c2.6,0.6,5.1,1.5,7.7,1.7C629.8,129.4,629.9,129.4,630,129.4z"/>
										<path class="st6" d="M621.1,127.3c0.7,0.1,1.4-0.7,1-1.5c0-0.1-0.1-0.1-0.1-0.1c-1.1-2-1.9-4.1-1.8-6.4
											c0.1-1.9,1.2-4.5,3.1-5.3c0.6-0.2,1.8-0.1,2,0.6c0.1,0.4-0.6,1.5-0.7,1.9c-0.6,1.5-0.3,3.5,0.8,4.6
											c1.4,1.5,3.5,1.2,4.8-0.1c0.6-0.7,0.7-1.6,0.6-2.4c-0.1-0.8-0.6-1.5-0.2-2.3c0.1-0.3,0.3-0.5,0.4-0.6
											c0.1-0.1,0.1-0.1,0.2-0.1c0.3,0,0.9,0.4,1.1,0.7c1,0.9,1.7,2.2,2.2,3.4c1.1,2.9-0.9,6.8-3.7,7.8c-0.2,0.1-0.4,0.1-0.6,0.1
											c-0.9,0.2-0.9,1.3-0.3,1.8c0.2,0.1,0.5,0.2,0.8,0.1c0.3-0.1,0.6-0.1,0.9-0.3c3.3-1.2,5.1-4.9,5.2-8.3
											c0-1.4-0.6-2.8-1.4-3.9c-0.7-1.2-1.6-2.4-2.9-3.1c-1.1-0.6-2.5-0.5-3.4,0.5c-0.5,0.6-0.8,1.4-0.9,2.2
											c-0.1,0.9,0.4,1.6,0.4,2.4c0.1,0.6-1,1.2-1.6,0.9c-0.6-0.3-0.9-1.1-0.9-1.8c-0.1-1.6,1.1-2.7,0.9-4.3
											c-0.3-1.7-2.6-2.3-4-2.1c-1.6,0.3-3,1.9-3.8,3.4c-2,3.6-1.2,7.9,0.9,11.4c0.1,0.1,0.1,0.1,0.1,0.2
											C620.5,127.1,620.8,127.3,621.1,127.3z"/>
										<path class="st6" d="M627.9,137.8c0.4,0,0.8,0,1.2,0c1.3-0.1,1.3-2.1,0-2c-0.2,0-0.4,0-0.6,0c-2.8,0-5.7-1.6-7.9-3
											c-0.1-0.1-0.1-0.1-0.2-0.1c-1-0.4-1.8,1.1-0.8,1.8c0.1,0,0.1,0.1,0.1,0.1c1.4,0.9,2.9,1.6,4.4,2.3
											C625.3,137.4,626.6,137.7,627.9,137.8z"/>
										<path class="st6" d="M623.5,149.7c1.1,0.8,2-1,1-1.7c-0.1-0.1-0.3-0.2-0.4-0.3c-2.5-1.8-5.3-3.3-7.7-5.2
											c0,0-0.1,0-0.1-0.1c-1-0.6-2.3,0.6-1.4,1.4c0.1,0.1,0.2,0.1,0.4,0.3c2.5,1.9,5.3,3.4,7.9,5.3
											C623.2,149.6,623.3,149.6,623.5,149.7z"/>
										<path class="st6" d="M617,159.8c1.1,0.6,2.1-1.1,1-1.7c-0.1,0-0.1-0.1-0.1-0.1c-3-1.5-5.4-4.4-6.9-7.2
											c-0.1-0.1-0.1-0.1-0.2-0.2c-0.7-0.7-2.1,0.2-1.5,1.2c0.1,0.1,0.1,0.2,0.1,0.3c1.6,3,4.2,6,7.3,7.6
											C616.8,159.6,616.8,159.7,617,159.8z"/>
										<path class="st6" d="M608.8,167.8c0.1,0.2,0.2,0.4,0.4,0.6c0.6,1.1,2.3,0.1,1.7-1c-0.1-0.4-0.4-0.6-0.5-1
											c-1.9-3.5-3.9-6.8-5.4-10.5c-0.1-0.1-0.1-0.2-0.1-0.3c-0.4-1.2-2.4-0.7-1.9,0.6c0.1,0.4,0.2,0.6,0.4,1
											C604.8,160.8,606.9,164.3,608.8,167.8z"/>
									</g>
								</g>
								<g>
									<path class="st4" d="M596.3,241.1c-1.1,0.1-2.1,0.2-3.3,0.4c-1.1,2.5-2.2,5.2-2.7,7.9c5.1,0.6,10.9,1,15.3-1.8
										c-1.5-2.8-3.6-5.2-5.5-7.7c-0.2,0.2-0.5,0.4-0.8,0.5C598.5,241,597.4,241,596.3,241.1z"/>
									<g>
										<path class="st5" d="M580.9,201.2c0.4,1.2,0.9,2.4,1.4,3.6c0.6,1.8,1.3,3.6,1.9,5.4c1.6-0.4,3.1-0.9,4.7-1.5
											c0.9-0.4,1.9-0.8,2.9-1.1c0.5-0.2,1.1-0.4,1.6-0.6c-0.8-2.6-1.7-5.1-2.6-7.7c-0.2-0.6-0.4-1.1-0.6-1.7
											c-1.4,0.6-3,1-4.4,1.5C584.1,199.6,582.4,200.3,580.9,201.2z"/>
										<path class="st5" d="M578.4,195c0.8,1.4,1.3,2.8,1.8,4.2c1.4-0.8,2.9-1.4,4.4-2c1.6-0.6,3.2-1.1,4.9-1.5
											c-0.4-1.1-0.8-2.1-1.2-3.2c-0.5-1.1-1-2.5-1.8-3.6c-1.6,1.8-3.4,3.4-5.5,4.6C580.1,194,579.3,194.5,578.4,195z"/>
										<path class="st5" d="M589.6,210.6c-1.6,0.6-3.2,1.2-4.9,1.6c0.5,1.5,1,3.1,1.5,4.6c0.5,1.4,0.9,2.9,1.4,4.4
											c2.8-1,5.7-1.5,8.5-2.6c-0.5-2.8-1.1-5.6-1.9-8.4c-0.1-0.4-0.3-0.9-0.4-1.4c-0.4,0.2-0.9,0.4-1.4,0.6
											C591.6,209.8,590.6,210.2,589.6,210.6z"/>
										<path class="st5" d="M589.8,228.4c0.2,0.9,0.5,1.9,0.7,2.8c0.1,0,0.1,0.1,0.3,0.1c0.3,0.1,0.6,0.1,0.9,0.1
											c0.9,0,1.8-0.2,2.6-0.4c0.9-0.2,1.9-0.4,2.9-0.7c0.3-0.1,0.6-0.1,0.9-0.2c-0.2-1.6-0.4-3.2-0.7-4.9
											c-0.2-1.6-0.5-3.1-0.8-4.7c-2.6,1.1-5.5,1.8-8.2,2.6C588.8,224.8,589.3,226.6,589.8,228.4z"/>
										<path class="st5" d="M594.3,232.9c-0.9,0.2-1.9,0.4-2.9,0.4c-0.1,0-0.2,0-0.4-0.1c0.6,2.1,1.2,4.1,2,6.1
											c1.2-0.2,2.4-0.4,3.6-0.4c0.5-0.1,0.9-0.1,1.4-0.3c0.2-0.1,0.5-0.3,0.6-0.5c0.2-0.6,0.2-1.3,0.1-1.9
											c-0.1-1.2-0.4-2.4-0.5-3.6c0-0.2-0.1-0.4-0.1-0.7c-0.3,0.1-0.6,0.1-0.9,0.2C596.4,232.5,595.3,232.7,594.3,232.9z"/>
									</g>
									<g>
										<path class="st6" d="M593.3,241.2c-0.1,0.1-0.1,0.3-0.2,0.5c1-0.2,2.1-0.4,3.1-0.4c1-0.1,2.1-0.1,3-0.6
											c0.3-0.1,0.6-0.3,0.8-0.5c-0.2-0.3-0.4-0.5-0.6-0.8c-0.7-1,0.8-2.2,1.6-1.4c0.1-1.3-0.1-2.7-0.2-3.8
											c-1.5-10-2.6-20.2-6.1-29.7c-1.1-3.2-2.1-6.5-3.3-9.7c-0.9-2.5-1.9-5.4-3.7-7.6c-0.2-0.3-0.5-0.6-0.8-0.8
											c-1-0.9-2.4,0.5-1.4,1.4c0.3,0.3,0.6,0.6,0.8,1c0.7,1.1,1.3,2.4,1.8,3.6c0.4,1.1,0.9,2.1,1.2,3.2c0.4-0.1,0.7-0.1,1.1-0.2
											c0.9-0.1,1.6,1.1,0.6,1.6c-0.4,0.2-0.7,0.4-1.1,0.5c0.2,0.6,0.4,1.1,0.6,1.7c0.9,2.6,1.8,5.1,2.6,7.7
											c0.4-0.1,0.8-0.2,1.1-0.3c0.9-0.1,1.6,1,0.6,1.6c-0.4,0.2-0.8,0.4-1.2,0.6c0.1,0.4,0.3,0.9,0.4,1.4
											c0.8,2.8,1.4,5.6,1.9,8.4c0.1-0.1,0.3-0.1,0.5-0.1c1-0.4,1.7,1.3,0.7,1.7c-0.3,0.1-0.6,0.2-0.9,0.4
											c0.3,1.6,0.6,3.1,0.8,4.7c0.2,1.6,0.5,3.2,0.7,4.9c0.5-0.1,0.9-0.2,1.4-0.3c0.9,0,1.4,1.4,0.5,1.7
											c-0.5,0.2-1.1,0.4-1.6,0.5c0,0.2,0.1,0.4,0.1,0.7c0.1,1.2,0.4,2.4,0.5,3.6c0.1,0.6,0.1,1.3-0.1,1.9
											c-0.1,0.1-0.4,0.4-0.6,0.5c-0.5,0.1-0.9,0.2-1.4,0.3c-1.2,0.1-2.4,0.2-3.6,0.4c-0.8-2-1.4-4-2-6.1c-0.3,0-0.5,0-0.8-0.1
											c-0.2-0.1-0.4-0.1-0.6-0.2c-0.1-0.1-0.3-0.2-0.4-0.4c-0.1-0.1-0.1-0.2-0.1-0.3c-0.2-0.5,0.1-1.2,0.7-1.3
											c0.1,0,0.2-0.1,0.3-0.1s0.1,0,0.2,0c-0.2-0.9-0.5-1.9-0.7-2.8c-0.4-1.8-0.9-3.5-1.5-5.3c-0.3,0.1-0.6,0.1-0.8,0.2
											c-1.3,0.4-1.7-1.5-0.6-1.9c0.2-0.1,0.5-0.2,0.7-0.3c-0.4-1.4-0.9-2.9-1.4-4.4s-1-3.1-1.5-4.6c-0.2,0.1-0.4,0.1-0.7,0.1
											c-1.3,0.2-1.9-1.8-0.6-2c0.2,0,0.4-0.1,0.6-0.1c-0.6-1.8-1.2-3.6-1.9-5.4c-0.4-1.2-0.9-2.4-1.4-3.6
											c-0.2,0.1-0.4,0.2-0.6,0.4c-1.1,0.8-2.2-1.1-1.1-1.9c0.3-0.2,0.6-0.4,0.9-0.6c-0.5-1.4-1-2.9-1.8-4.2
											c-0.1-0.1-0.1-0.2-0.2-0.4c-0.8-1.2-2.6-0.1-1.9,1.1c0,0.1,0.1,0.1,0.1,0.1c0.9,1.5,1.4,3.1,1.9,4.8
											c0.6,1.9,1.4,3.8,2.1,5.7c1.4,3.9,2.7,7.9,4,11.9c1.2,3.9,2.4,7.6,3.4,11.6c0.9,3.7,2,7.4,3.4,10.9
											c0.1-0.2,0.1-0.4,0.3-0.6C592.1,238.9,593.9,240,593.3,241.2z"/>
										<path class="st6" d="M594.2,230.9c-0.9,0.2-1.7,0.4-2.6,0.4c-0.3,0-0.6,0-0.9-0.1c-0.1,0-0.2-0.1-0.3-0.1s-0.1,0-0.2,0
											s-0.2,0-0.3,0.1c-0.6,0.1-0.9,0.7-0.7,1.3c0,0,0.1,0.1,0.1,0.3c0.1,0.1,0.2,0.3,0.4,0.4c0.1,0.1,0.4,0.1,0.6,0.2
											c0.2,0.1,0.5,0.1,0.8,0.1c0.1,0,0.2,0.1,0.4,0.1c1,0,1.9-0.1,2.9-0.4c1-0.2,2.1-0.5,3.1-0.8c0.3-0.1,0.6-0.1,0.9-0.2
											c0.6-0.1,1.1-0.3,1.6-0.5c0.9-0.4,0.4-1.8-0.5-1.7c-0.5,0-0.9,0.1-1.4,0.3c-0.3,0.1-0.6,0.1-0.9,0.2
											C596.1,230.4,595.1,230.7,594.2,230.9z"/>
										<path class="st6" d="M586.9,221.4c-1.1,0.5-0.7,2.4,0.6,1.9c0.3-0.1,0.5-0.1,0.8-0.2c2.8-0.9,5.6-1.6,8.2-2.6
											c0.3-0.1,0.6-0.2,0.9-0.4c1-0.4,0.3-2.1-0.7-1.7c-0.1,0.1-0.3,0.1-0.5,0.1c-2.8,1-5.7,1.5-8.5,2.6
											C587.4,221.2,587.1,221.2,586.9,221.4z"/>
										<path class="st6" d="M588.8,208.7c-1.5,0.6-3.1,1.1-4.7,1.5c-0.2,0.1-0.4,0.1-0.6,0.1c-1.3,0.2-0.7,2.2,0.6,2
											c0.2-0.1,0.5-0.1,0.7-0.1c1.6-0.4,3.3-0.9,4.9-1.6c0.9-0.4,1.9-0.8,2.9-1.2c0.4-0.2,0.9-0.4,1.4-0.6s0.9-0.4,1.2-0.6
											c0.9-0.6,0.3-1.7-0.6-1.6c-0.4,0.1-0.8,0.1-1.1,0.3c-0.6,0.2-1.1,0.4-1.6,0.6C590.7,208,589.8,208.3,588.8,208.7z"/>
										<path class="st6" d="M580.2,199.2c-0.4,0.2-0.6,0.4-0.9,0.6c-1.1,0.8-0.1,2.6,1.1,1.9c0.2-0.1,0.4-0.3,0.6-0.4
											c1.5-0.9,3.1-1.6,4.8-2.1c1.4-0.5,3-0.9,4.4-1.5c0.4-0.1,0.7-0.3,1.1-0.5c0.9-0.5,0.2-1.7-0.6-1.6
											c-0.4,0.1-0.7,0.1-1.1,0.2c-1.6,0.4-3.4,0.9-4.9,1.5C583.1,197.8,581.6,198.3,580.2,199.2z"/>
										<path class="st6" d="M607.8,247.4c-1.6-3.5-4.2-6.4-6.6-9.4c0-0.1-0.1-0.1-0.1-0.1c-0.9-0.8-2.4,0.5-1.6,1.4
											c0.2,0.3,0.4,0.5,0.6,0.8c1.9,2.4,3.9,4.8,5.3,7.4c-4.3,2.7-9.9,2.3-14.7,1.7c0.4-2.6,1.5-5.2,2.6-7.6
											c0.1-0.1,0.1-0.3,0.2-0.5c0.6-1.3-1.2-2.4-1.9-1.1c-0.1,0.2-0.1,0.4-0.3,0.6c-1.6,3-2.7,6.4-3.1,9.7
											c-0.1,0.7,0.6,1.1,1.1,1.1c5.9,0.7,13.1,1.4,18.1-2.6C607.9,248.6,608.1,248,607.8,247.4z"/>
									</g>
								</g>
							</g>
						</g>
					</g>
					<g>
						<g>
							<rect x="560.4" y="83.2" class="st2" width="5.1" height="11.4"/>
							<g>
								<g>
									<circle class="st2" cx="563" cy="85" r="3.4"/>
									<path class="st2" d="M563,79.5c2.5,0,4.6,1.6,5.3,3.9l2.2-2.2c-1.4-2.7-4.2-4.6-7.5-4.6s-6.1,1.9-7.5,4.6l2.2,2.2
										C558.4,81.2,560.5,79.5,563,79.5z"/>
									<path class="st2" d="M563,74.8c3.8,0,7.1,2.1,8.9,5.1l2.1-2.1c-2.4-3.6-6.4-5.9-11-5.9s-8.6,2.4-11,5.9l2.1,2.1
										C555.9,76.8,559.2,74.8,563,74.8z"/>
									<path class="st2" d="M563,69.9c5.1,0,9.6,2.6,12.4,6.5l2.1-2.1c-3.3-4.4-8.6-7.3-14.5-7.3s-11.2,2.9-14.5,7.4l2.1,2.1
										C553.3,72.5,557.9,69.9,563,69.9z"/>
								</g>
							</g>
							<rect x="556.3" y="138.6" class="st2" width="13.4" height="18.7"/>
						</g>
						<g>
							<g>
								<path class="st7" d="M586.6,214.4h-47.3c-9.3,0-16.9-7.6-16.9-16.9v-29.3c0-9.3,7.6-16.9,16.9-16.9h47.3
									c9.3,0,16.9,7.6,16.9,16.9v29.3C603.5,206.7,595.9,214.4,586.6,214.4z"/>
							</g>
							<g>
								<path class="st8" d="M581.8,180.9c1.8-3.1,3.8-6.9,3.9-10.6c0-1.4-0.2-2.8-1.4-3.6c-1.2-0.9-2.7-0.6-3.7,0.4
									c-2.7,2.6-3.6,6.4-5.7,9.4c-0.6,0.9-1.9,0.1-1.9-0.8c0,0,0,0,0-0.1c-0.9-3.1-2.2-7.5-5.6-8.8c-1.4-0.6-3,0.1-3.9,1.4
									c-0.9,1.1-0.9,2.6-0.6,4c0.5,3.7,2.4,7.3,4.3,10.5c2.1,3.4,4.4,6.6,7.2,9.5c1.4-2,4.1-5.6,5.2-7.3
									C580.2,183.5,581,182.2,581.8,180.9z"/>
								<g>
									<line class="st9" x1="576.7" y1="155.1" x2="551.1" y2="180.8"/>
									<line class="st9" x1="581.2" y1="159.2" x2="555.6" y2="184.9"/>
									<line class="st9" x1="585.7" y1="163.3" x2="560.1" y2="189"/>
									<line class="st9" x1="590.2" y1="167.4" x2="564.6" y2="193"/>
									<line class="st9" x1="594.7" y1="171.5" x2="569.1" y2="197.1"/>
								</g>
							</g>
						</g>
						<path class="st7" d="M582.6,145.4h-39.3c-8.5,0-15.5-7-15.5-15.5v-22.7c0-8.5,7-15.5,15.5-15.5h39.3c8.5,0,15.5,7,15.5,15.5
							v22.7C598.1,138.4,591.1,145.4,582.6,145.4z"/>
						<g>
							<circle class="st4" cx="538.8" cy="118.5" r="4"/>
							<circle class="st4" cx="587.1" cy="118.5" r="4"/>
						</g>
					</g>
				</g>
			</g>
		</g>
		<g>
			<g>
				<path class="st10" d="M528.3,383.3v3.2h4.1v0.9h-5v-5h4.1v-2.3h-4v-0.9h5v3c0,0.6-0.5,1.1-1.1,1.1L528.3,383.3L528.3,383.3z"/>
				<path class="st10" d="M540.1,387.3h-4v-8.1h5.1v7.1C541.2,386.9,540.7,387.3,540.1,387.3z M537.1,380.1v6.4h3.2v-6.4H537.1z"/>
				<path class="st10" d="M544.3,380.1v-0.9h2.8v8.1h-1V380L544.3,380.1L544.3,380.1z"/>
				<path class="st10" d="M550.9,387.3v-8.1h5v7.1c0,0.6-0.5,1-1,1.1L550.9,387.3L550.9,387.3z M551.9,380.1v2.3h3.1v-2.3H551.9z
					 M551.9,383.3v3.2h3.1v-3.2H551.9z"/>
				<path class="st10" d="M559.7,387.6v-1.1h1.4v1.1H559.7z"/>
				<path class="st10" d="M564.2,380.1v-0.9h2.8v8.1h-1V380L564.2,380.1L564.2,380.1z"/>
				<path class="st10" d="M571.7,383.3v3.2h4.1v0.9h-5v-5h4.1v-2.3h-4v-0.9h5v3c0,0.6-0.5,1.1-1.1,1.1L571.7,383.3L571.7,383.3z"/>
				<path class="st10" d="M579.6,387.6v-1.1h1.4v1.1H579.6z"/>
				<path class="st10" d="M588.8,387.3h-4v-8.1h5.1v7.1C589.9,386.9,589.4,387.3,588.8,387.3z M585.7,380.1v6.4h3.2v-6.4H585.7z"/>
				<path class="st10" d="M594.7,383.3v3.2h4.1v0.9h-5v-5h4.1v-2.3h-4v-0.9h5v3c0,0.6-0.5,1.1-1.1,1.1L594.7,383.3L594.7,383.3z"/>
				<path class="st10" d="M503.6,398.6v0.9h-1.9v7.2h-1v-7.2h-1.9v-0.9H503.6z"/>
				<path class="st10" d="M511.2,398.6h1v8.1h-1v-4.2h-3.4v4.2h-1v-8.1h1v3h3.4V398.6z"/>
				<path class="st10" d="M520.1,406.8H516v-8.1h4.1v0.9H517v2.1h2.8v0.9H517v3.3h3.1V406.8z"/>
				<path class="st10" d="M533.8,402.5H532l1.7,4.2h-1l-1.7-4.2h-1.2v4.2h-1v-8.1h5V402.5L533.8,402.5z M529.7,399.5v2.1h3.1v-2.1
					H529.7z"/>
				<path class="st10" d="M542.8,406.7h-5.2v-8.1h5.2V406.7z M538.6,405.8h3.3v-6.3h-3.3V405.8z"/>
				<path class="st10" d="M551,401.6h0.9v5.1h-5.2v-8.1h4.3V401.6z M550,399.5h-2.4v2.1h2.4V399.5z M547.6,405.8h3.3v-3.3h-3.3
					V405.8z"/>
				<path class="st10" d="M560.8,406.7h-5.2v-8.1h5.2V406.7z M556.6,405.8h3.3v-6.3h-3.3V405.8z"/>
				<path class="st10" d="M568.8,398.6v0.9h-1.9v7.2h-1v-7.2H564v-0.9H568.8z"/>
				<path class="st10" d="M582.3,406.7h-5v-8.1h5v0.9h-4v6.3h4V406.7z"/>
				<path class="st10" d="M591,406.7h-5.2v-8.1h5.2V406.7z M586.8,405.8h3.3v-6.3h-3.3V405.8z"/>
				<path class="st10" d="M598.5,403.5h-1.2l-1.6-3v6.2h-1v-8.1h1l2.1,3.9l2-3.9h1.2v8.1h-1v-6.4L598.5,403.5z"/>
				<path class="st10" d="M609.2,401.6h0.9v5.1h-5.2v-8.1h4.3V401.6z M608.2,399.5h-2.4v2.1h2.4V399.5z M605.9,405.8h3.3v-3.3h-3.3
					V405.8z"/>
				<path class="st10" d="M613.9,398.6h5.3v8.1h-1v-4.2h-3.3v4.2h-1V398.6z M614.9,401.6h3.3v-2.1h-3.3V401.6z"/>
				<path class="st10" d="M627.1,398.6v0.9h-1.9v7.2h-1v-7.2h-1.9v-0.9H627.1z"/>
			</g>
			<g>
				<g>
					<path class="st11" d="M483.4,277.3l2.1,6.3H483v13.3h-2.4v-11.8l-1.3,4.3h-2.5l3.2-12.1h-2.9v-2.5h3.5v-5.4h2.4v5.4h2.5v2.5
						L483.4,277.3L483.4,277.3z M496.1,268.8l0.5,15.3h7.7v2.4h-6.7l1.7,3l1-1.8h2.8l-2.4,4.3l2.9,5h-2.8l-1.4-2.5l-1,1.8h-2.7
						l2.3-4.3l-3.1-5.5h-5v0.8l3.5,5.1h-3.1l-0.7-1.1l-1.3,5h-2.5l1.5-6.1l0.2-3.7h-1V284h7.9l-0.5-15.3L496.1,268.8L496.1,268.8z
						 M486.3,281.7l2.1-4.3l-2.3-2.2l2.5-5.4h2.3l-2.3,4.9l0.7,0.7l0.7-1.7h2.3l-2.7,5.7h1.5V278h1.9l0.2,4.1h-1.9v-0.6L486.3,281.7
						z M499.1,277.4l-2.5-2.4l2.7-5.3h2.4l-2.5,4.8l0.9,0.9l0.8-1.8h2.3l-2.8,5.6h1.7l-0.2-1.3h2l0.5,4.1h-2l-0.1-0.8l-5.4,0.3
						L499.1,277.4z M498.7,282.2h2.5l1,1.5h-2.5L498.7,282.2z"/>
					<path class="st11" d="M540.7,288.7h-2.6v6.9h-9.8v-7.7h6.1l-8-4.5l-7.3,4.5h6.5v7.7h-9.7v-6.9h-2.5l8.5-5.3H514V281h11.1
						l0.4-2.6h2.5l-0.5,2.6h12.4v2.4h-8.7L540.7,288.7z M525.7,270v8h-9.9v-8H525.7z M538.1,270v8h-9.9v-8H538.1z"/>
					<path class="st11" d="M574.2,294.2l-2.3,1.8l-8.6-11.1l-8,11.1h-3.6l10.1-14.1v-12h2.9v11.9L574.2,294.2"/>
					<path class="st11" d="M612,276.5v2.8h-10.2l10,16.9h-3.1l-9.1-15.3l-8.1,15.3h-3.1l8.8-16.9H587v-2.8h11.1v-6.6h2.7v6.6H612z"
						/>
					<path class="st11" d="M643.5,281.6l5.6,4h-3.7l-1.9-1.4v9.3h-15.3v-9.2l-1.4,1.2h-3.5l5-3.9h-5.9v-1.8h8.1v-0.9h-2.7V277h2.7
						v-1h-4.2v-1.9h4.2v-1.2h2v1.2h6.6v-1.2h2v1.2h4.2v1.9h-4.2v1h2.7v1.9h-2.7v0.9h8.1v1.8L643.5,281.6L643.5,281.6z M625.3,272.4
						v1.8h-1.8v-3.6h11.4v-1.3h1.9v1.3h11.4v3.6h-1.8v-1.8H625.3z M627.3,296.8l1.6-1.9h3.3l-1.6,1.9H627.3z M629.7,283.3h12.5
						l-2.4-1.7h-7.9L629.7,283.3z M641.7,286v-1H630v1H641.7z M630,287.9v1h11.7v-1H630z M630,291.8h11.7v-1H630V291.8z M632.5,276
						v1h6.6v-1H632.5z M639.1,278.9h-6.6v0.9h6.6V278.9z M640.1,295h3.2l1.4,1.9h-3.2L640.1,295z"/>
					<path class="st11" d="M494.5,315.7l6.2-7.1l6.2,6.6h-3.5l-2.6-2.8l-3,3.3H494.5L494.5,315.7z M498.5,329.9h-2.3l-0.6-4.2h2.3
						L498.5,329.9z M501.9,323.9v7.4l3.9-0.8v2.7l-10,2.1v-2.7l3.7-0.8v-8h-3.9v-2.3h3.9V319h-2.7v-2.4h7.9v2.4h-2.8v2.6h3.6v2.3
						H501.9L501.9,323.9z M503.1,329l0.6-3.2h2.2l-0.5,3.2H503.1z M507.5,309h14.9v26.9H520v-24.5h-10.2v24.5h-2.4V309H507.5z
						 M518.7,313.7l-1,4.4h1.9v2.2h-3.5v8.6h0.9v-6h2.1v8.1h-8.3v-8.1h2.1v6h0.9v-8.6h-3.5v-2.2h5l1-4.4H518.7L518.7,313.7z
						 M513.5,313.7l0.7,2.9h-2.1l-0.7-2.9H513.5z"/>
					<path class="st11" d="M530.4,316l5.2-7.2l5.2,6.7h-3l-2.2-2.7l-2.3,3.2H530.4z M534,330.2h-2.2l-0.5-4.3h2.2L534,330.2z
						 M536.7,324v7.5l3.1-0.8v2.5l-8.3,2.1v-2.5l3-0.8v-8h-3.1v-2.2h3.1v-2.7h-2.1v-2.3h6.5v2.3h-2.1v2.7h2.9v2.2L536.7,324
						L536.7,324z M537.5,329.2l0.4-3.3h2.1l-0.5,3.3H537.5z M559.1,317.7h-5.5l1.2,4.8l0.7-1.9h2.5l-2.2,6.1l2.2,9.1h-2.4l-1.2-5
						l-1.7,4.9h-2.5l3.2-9l-2.1-8.8h-10v-2.2h3.5v-1.6h-2.5v-2.3h2.5v-2.4h2.4v2.4h2.6v2.3H547v1.6h3.8v-5.9h2.4v5.9h5.8
						L559.1,317.7L559.1,317.7z M541.5,332.7l3.2-0.6v-1.8h-2.5v-2h2.5V327h-3.1v-2h9.1v2H547v1.3h3.2v2H547v1.4l3.3-0.6v2.3
						l-8.9,1.5L541.5,332.7L541.5,332.7z M542,318.6h7.8v5.5H542V318.6z M547.7,322v-1.3H544v1.3H547.7z M557.7,313.4h-2.4l-1-3.5
						h2.4L557.7,313.4z"/>
					<path class="st11" d="M572.2,316v5.2l2.4-1.3v2.9l-2.4,1.3v12h-2.5v-10.7l-2.2,1.2v-3l2.2-1.2V316h-2v-2.5h2v-5.1h2.5v5.1h2.1
						v2.5H572.2L572.2,316z M586.9,313.1h8.4v6.6H593v-4.3h-6.1v6.5h-2.3v-6.5h-6v4.3h-2.3v-6.6h8.3V311h-6.1v-2.3h14.6v2.3H587
						L586.9,313.1L586.9,313.1z M578.2,335.5v-11.7h15.3v11.7H578.2z M583.5,316.7v2.1h-3.9v-2.1H583.5z M579.6,321.9v-2.1h3.9v2.1
						H579.6z M580.3,326v2.5h4.3V326H580.3z M580.3,330.7v2.5h4.3v-2.5H580.3z M586.9,326v2.5h4.3V326H586.9z M586.9,330.7v2.5h4.3
						v-2.5H586.9z M591.9,316.7v2.1H588v-2.1H591.9z M588,321.9v-2.1h3.9v2.1H588z"/>
					<path class="st11" d="M626.5,323l-0.7-2.4l-19.1,0.8l5.8-12.3h3.1l-4.4,9.4L625,318l-1.2-4.2h2.9l2.7,9.2H626.5L626.5,323z
						 M608.4,335.5v-11.1h18.5v11.1H608.4z M611.2,327.2v5.6h13v-5.6H611.2z"/>
				</g>
				<circle class="st0" cx="520.7" cy="273.8" r="2.4"/>
				<circle class="st0" cx="533.2" cy="273.8" r="2.4"/>
				<circle class="st0" cx="521.2" cy="291.6" r="2.4"/>
				<circle class="st0" cx="533.2" cy="291.6" r="2.4"/>
				<g>
					<path class="st12" d="M573.6,293.8c-0.1,0.1,0,0.4,0.2,0.4l0,0c0.6,0,1.2,0.2,1.7,0.6c0.4,0.3,0.8,0.9,0.7,1.5
						c0,0.1-0.2,0.4-0.4,0.4c-0.1,0-0.2-0.3-0.3-0.4c-0.2-0.4-0.7-0.6-1.2-0.5s-0.8,0.6-0.6,1.1c0,0.2,0.2,0.4,0.5,0.5
						c0.2,0.1,0.4,0.1,0.6,0.3c0,0,0,0.1,0.1,0.2l0,0c0,0-0.2,0.1-0.3,0.1c-0.4,0.1-0.7,0-1.1,0c-0.8-0.2-1.4-1.2-1.2-2v-0.1
						c0.1-0.2-0.1-0.4-0.4-0.3l-0.1,0.1c0,0.1,0,0.1,0,0.2c-0.2,0.9,0.3,1.9,1.1,2.4c0.3,0.2,0.7,0.3,1.1,0.3s0.8,0,1.1-0.2
						c0.3-0.1,0.5-0.5,0.4-0.8c0-0.2-0.2-0.4-0.4-0.6c-0.2-0.1-0.4-0.1-0.6-0.3c-0.1-0.1-0.1-0.4,0-0.5s0.4,0,0.6,0
						c0.4,0.2,0.5,0.6,0.8,0.8c0.4,0.2,0.9-0.2,1.1-0.6c0.2-0.4,0-1-0.2-1.3c-0.5-1-1.6-1.4-2.6-1.5l0,0
						C573.8,293.7,573.7,293.8,573.6,293.8z"/>
				</g>
			</g>
			<g>
				<g>
					<line class="st13" x1="418.3" y1="356.7" x2="707.9" y2="356.7"/>
					<circle class="st5" cx="421.3" cy="356.7" r="10.5"/>
					<circle class="st5" cx="704.8" cy="356.7" r="10.5"/>
				</g>
			</g>
		</g>
	</g>
</g>
<polyline class="st3" points="683.8,152.6 725.6,152.6 725.6,324.7 "/>
</svg>
