<?xml version="1.0" encoding="utf-8"?>
<!-- Generator: Adobe Illustrator 21.1.0, SVG Export Plug-In . SVG Version: 6.00 Build 0)  -->
<svg version="1.1" id="圖層_1" xmlns="http://www.w3.org/2000/svg" xmlns:xlink="http://www.w3.org/1999/xlink" x="0px" y="0px"
	 viewBox="0 0 750 1334" style="enable-background:new 0 0 750 1334;" xml:space="preserve">
<style type="text/css">
	.st0{fill:#85E4ED;}
	.st1{clip-path:url(#SVGID_2_);}
	.st2{fill:#518287;}
	.st3{fill:none;stroke:#85E4ED;stroke-width:6.2668;stroke-miterlimit:10;}
	.st4{fill:none;stroke:#85E4ED;stroke-width:6.194;stroke-miterlimit:10;}
	.st5{fill:#FFFFFF;}
	.st6{fill:#66A9B0;}
	.st7{fill:#518287;stroke:#518287;stroke-width:1.5488;stroke-miterlimit:10;}
	.st8{fill:#66A9B0;stroke:#518287;stroke-width:6.0513;stroke-miterlimit:10;}
	.st9{fill:#FFFFFF;stroke:#FFFFFF;stroke-width:12.3906;stroke-miterlimit:10;}
	.st10{fill:none;stroke:#66A9B0;stroke-width:1.2104;stroke-miterlimit:10;}
	.st11{fill:#518287;stroke:#518287;stroke-width:1.1099;stroke-miterlimit:10;}
	.st12{fill:none;stroke:#66A9B0;stroke-width:5.2934;stroke-miterlimit:10;}
	.st13{fill:#1D3030;stroke:#1D3030;stroke-width:1.3234;stroke-miterlimit:10;}
	.st14{fill:#1D3030;}
</style>
<g id="圖層_1_1_">
	<g>
		<rect class="st0" width="750" height="1334"/>
	</g>
</g>
<g id="圖層_2">
	<g>
		<g>
			<g>
				<g>
					<g>
						<g>
							<g>
								<g>
									<g>
										<g>
											<g>
												<g>
													<defs>
														<path id="SVGID_1_" d="M751,650.8H46.7c-25.8,0-46.7-21-46.7-47V0h751V650.8z"/>
													</defs>
													<clipPath id="SVGID_2_">
														<use xlink:href="#SVGID_1_"  style="overflow:visible;"/>
													</clipPath>
													<g class="st1">
														<g>
															<g>
																<polygon class="st2" points="1669.2,777.2 -786.4,767.7 -786.4,-295.6 1669.2,-285.7 																"/>
																<polygon class="st2" points="1863.3,776 -592.3,766.2 -592.3,-296.8 1863.3,-287 																"/>
																<g>
																	<path class="st3" d="M189,41.7"/>
																	<line class="st3" x1="-437.3" y1="-55.8" x2="-82.4" y2="-55.8"/>
																	<polyline class="st3" points="513,-21 798.5,-21 798.5,-113.2 																	"/>
																	<polyline class="st3" points="512.3,546.1 512.3,815.6 1012.2,815.6 1012.2,949.8 																	"/>
																	<polyline class="st3" points="725.1,603.7 725.1,576.3 725.1,518.1 1147.4,522.1 1147.4,151.8 1714.4,151.8 
																																			"/>
																	<polyline class="st3" points="-276.3,271 -276.3,613.6 -443.5,613.6 																	"/>
																	<polyline class="st3" points="289,418.5 23.1,418.5 23.1,142 188.9,142 																	"/>
																	<polyline class="st3" points="1929.9,726.7 1651.2,726.7 1651.2,505.8 1409.4,505.8 1409.4,922.2 1360.3,922.2 
																																			"/>
																	<polyline class="st3" points="421,629.1 81.2,629.1 81.2,794.4 -45.1,794.4 -45.1,600.3 -196.5,600.3 
																		-196.5,836.9 -561.7,836.9 -561.7,949.8 																	"/>
																	<polyline class="st3" points="836,33.6 715,33.6 715,122 670.3,122 670.3,271 530.7,271 530.7,355.2 
																																			"/>
																	<polyline class="st3" points="295,504.1 295,705.4 146.4,705.4 146.4,804.9 																	"/>
																	<polyline class="st3" points="580.7,545.1 580.7,698.6 913.8,698.6 913.8,580.4 1408.9,580.4 																	"/>
																	<polyline class="st3" points="111.2,169.4 111.2,370.9 277.4,370.9 																	"/>
																	<polyline class="st3" points="-478.6,271 -379.1,271 -376.9,109.6 -155.3,109.6 																	"/>
																	<polyline class="st3" points="-276.3,479.8 -195.8,479.8 -195.8,271 																	"/>
																	<polyline class="st3" points="1194.1,491.5 1309.4,491.5 1309.4,342.7 																	"/>
																	<line class="st3" x1="568.8" y1="109.6" x2="568.8" y2="-22"/>
																	<line class="st3" x1="67.4" y1="-54.8" x2="67.4" y2="-352.8"/>
																	<polyline class="st3" points="310.1,16.8 426,16.8 426,-276.1 																	"/>
																	<polyline class="st3" points="-259.5,949.8 -259.5,894.7 21.5,894.7 																	"/>
																	<line class="st3" x1="407.5" y1="589.2" x2="407.5" y2="949.8"/>
																	<polyline class="st3" points="407.5,812.3 294.7,812.3 294.7,949.8 																	"/>
																	<polyline class="st3" points="676.1,815.6 676.1,869 816.1,869 816.1,949.8 																	"/>
																	<polyline class="st3" points="1231,848.5 1231,901.8 1361.1,901.8 1361.1,982.8 																	"/>
																	<polyline class="st3" points="-196.5,737.4 -637.4,736.5 -637.4,849.1 																	"/>
																	<polyline class="st3" points="-26.4,350.6 -116.8,350.6 -116.8,600.3 																	"/>
																	<polyline class="st3" points="-45.1,660.6 29.5,660.6 29.5,547.2 329.4,545.2 																	"/>
																	<line class="st3" x1="21.5" y1="794.4" x2="21.5" y2="892.2"/>
																	<polyline class="st3" points="111.2,218.1 63.2,218.1 63.2,301.7 25,301.7 																	"/>
																	<polyline class="st3" points="-71.5,169.4 -71.5,215.8 -376.9,215.8 																	"/>
																	<polyline class="st3" points="127,-16 271,-16 271,190.6 359,190.6 																	"/>
																	<polyline class="st3" points="472.9,300.7 472.9,-79.9 600.8,-79.9 601.1,-185.1 601.4,-289.3 																	
																		"/>
																	<line class="st3" x1="721.4" y1="-51" x2="721.4" y2="-266.9"/>
																	<polyline class="st3" points="150.1,-16 150.1,41.7 189,41.7 188.9,274.8 111.2,274.8 																	"/>
																	<line class="st3" x1="1081.1" y1="-113.2" x2="1081.1" y2="-64.5"/>
																	<line class="st3" x1="1157.5" y1="-113.2" x2="1157.5" y2="5.6"/>
																	<polyline class="st3" points="1147.4,271 886.6,271 886.6,124.6 																	"/>
																	<line class="st3" x1="682.3" y1="406.9" x2="682.3" y2="494.6"/>
																	<line class="st3" x1="886.6" y1="197.7" x2="1147.4" y2="197.7"/>
																	<polyline class="st3" points="1012.2,74.3 1189.5,74.3 1189.5,152.6 																	"/>
																	<polyline class="st3" points="1147.4,311 1189.5,311 1189.5,580.8 																	"/>
																	<polyline class="st3" points="913.8,674 669.7,674 669.7,698.6 																	"/>
																	<polyline class="st3" points="816.1,497.6 1042,497.6 1042,580.8 																	"/>
																	<line class="st3" x1="913.8" y1="375.1" x2="913.8" y2="497.6"/>
																	<polyline class="st3" points="913.8,435.8 1116.9,435.8 1116.9,580.4 																	"/>
																	<polyline class="st3" points="516.5,741.6 625.8,741.6 625.8,938.1 																	"/>
																	<line class="st3" x1="580.7" y1="815.6" x2="580.7" y2="949.8"/>
																	<polyline class="st3" points="714.2,815.6 714.2,739.9 1116.9,739.9 1116.9,608.6 1408.9,608.6 																	
																		"/>
																	<polyline class="st3" points="1714.4,794.4 1109.1,794.4 1109.1,949.8 																	"/>
																	<line class="st3" x1="1012.2" y1="871.9" x2="1109.1" y2="871.9"/>
																	<line class="st3" x1="924.6" y1="816.5" x2="924.6" y2="949.8"/>
																	<polyline class="st3" points="993.4,755.6 993.4,698.5 1116.9,698.5 																	"/>
																	<polyline class="st3" points="1714.4,851.6 1168.3,851.6 1168.3,949.8 																	"/>
																	<path class="st3" d="M-666,445.5"/>
																	<line class="st3" x1="-276.3" y1="357.3" x2="-478.6" y2="357.3"/>
																	<polyline class="st3" points="-103.6,892.2 -103.6,698.6 -195.8,698.6 																	"/>
																	<polyline class="st3" points="-321.4,734.8 -321.4,661.6 -619.8,661.6 -619.8,484.2 																	"/>
																	<polyline class="st3" points="-348.8,613.6 -348.8,404.7 -478.6,404.7 																	"/>
																	<polyline class="st3" points="-437.3,-4.1 -263,-4.1 -263,109.6 																	"/>
																	<polyline class="st3" points="-263,63.6 -103.6,63.6 -103.6,169.4 																	"/>
																	<line class="st3" x1="-235.9" y1="-55.8" x2="-235.9" y2="-250.1"/>
																	<line class="st3" x1="-190" y1="-55.8" x2="-190" y2="63.6"/>
																	<line class="st3" x1="37.6" y1="-80" x2="37.6" y2="-194.9"/>
																	<polyline class="st3" points="1519.5,509.6 1519.5,342.5 1285.1,342.5 1285.1,238.9 1147.2,238.9 
																																			"/>
																	<line class="st3" x1="1452.1" y1="342.5" x2="1452.1" y2="139.1"/>
																	<polyline class="st3" points="1359.6,342.5 1359.6,404.4 1519.5,404.4 																	"/>
																	<polyline class="st3" points="1337.6,346.9 1337.6,282.7 1391.5,282.7 1391.5,145 																	"/>
																	<polyline class="st3" points="323.3,666.5 325.3,851.6 171.7,851.6 101.3,851.6 101.3,949.8 																	"/>
																	<line class="st3" x1="-376.9" y1="789" x2="-271.2" y2="789"/>
																	<line class="st3" x1="-348.8" y1="875.3" x2="-348.8" y2="922.3"/>
																	<line class="st3" x1="-397.2" y1="468.3" x2="-397.2" y2="544"/>
																	<line class="st3" x1="-230" y1="537.8" x2="-167.1" y2="537.8"/>
																	<line class="st3" x1="-308.9" y1="164.6" x2="-235.9" y2="164.6"/>
																	<line class="st3" x1="-384.8" y1="50.8" x2="-321.4" y2="50.8"/>
																	<line class="st3" x1="351.3" y1="857.2" x2="351.3" y2="914.1"/>
																	<line class="st3" x1="1261.9" y1="533.9" x2="1364.6" y2="533.9"/>
																	<line class="st3" x1="879.1" y1="782.8" x2="952.9" y2="782.8"/>
																	<line class="st3" x1="521.3" y1="880.7" x2="521.3" y2="922.3"/>
																	<line class="st3" x1="809.4" y1="178.5" x2="809.4" y2="252.5"/>
																	<line class="st3" x1="964.3" y1="629.7" x2="1042" y2="629.7"/>
																	<line class="st3" x1="1180.4" y1="668.6" x2="1180.4" y2="741.6"/>
																	<line class="st3" x1="685.2" y1="601" x2="828.7" y2="601"/>
																	<line class="st3" x1="952.9" y1="5.6" x2="952.9" y2="78.7"/>
																	<line class="st3" x1="147.7" y1="906.7" x2="225.7" y2="906.7"/>
																	<polyline class="st3" points="1231.3,610.8 1230.1,710.8 1408.9,712.2 																	"/>
																	<polyline class="st3" points="1451.1,509.1 1451.1,566.8 1508.7,566.8 1508.7,849.3 1295.4,849.3 1295.4,971.2 
																																			"/>
																	<polyline class="st3" points="-493.4,-265 -493.4,-132.5 -437.7,-132.5 -439.7,210.8 -477.9,210.8 -479.6,483 
																		-442.3,483 -442.3,618.1 																	"/>
																	<line class="st3" x1="1439.9" y1="625.9" x2="1439.9" y2="732.5"/>
																	<line class="st3" x1="1203.5" y1="194.7" x2="1331.3" y2="194.7"/>
																	<line class="st3" x1="1433.2" y1="404.4" x2="1433.2" y2="505.8"/>
																	<line class="st3" x1="-561.7" y1="664.8" x2="-561.7" y2="740.3"/>
																	<line class="st3" x1="-572.3" y1="529.8" x2="-572.3" y2="618.1"/>
																	<line class="st3" x1="-448.9" y1="313.7" x2="-320.9" y2="313.7"/>
																	<polyline class="st3" points="1452.1,191.5 1535,191.5 1535,65.2 1635.9,65.2 																	"/>
																	<line class="st3" x1="-499.6" y1="701.7" x2="-396.7" y2="701.7"/>
																	<line class="st3" x1="-553.9" y1="271" x2="-553.9" y2="357.3"/>
																</g>
																<g>
																	<circle class="st0" cx="-45.1" cy="600.2" r="11.7"/>
																	<circle class="st0" cx="29.5" cy="662.2" r="11.7"/>
																	<circle class="st0" cx="-45.1" cy="794.4" r="11.7"/>
																	<circle class="st0" cx="-196.5" cy="600.3" r="11.7"/>
																	<circle class="st0" cx="-104.9" cy="698.6" r="11.7"/>
																	<circle class="st0" cx="-196.5" cy="836.9" r="11.7"/>
																	<circle class="st0" cx="-259.5" cy="894.7" r="11.7"/>
																	<circle class="st0" cx="-321.4" cy="663.1" r="11.7"/>
																	<circle class="st0" cx="-618" cy="663.1" r="11.7"/>
																	<circle class="st0" cx="-376.9" cy="789" r="11.7"/>
																	<circle class="st0" cx="-271.2" cy="789" r="11.7"/>
																	<circle class="st0" cx="-348.8" cy="871.6" r="11.7"/>
																	<circle class="st0" cx="-348.8" cy="925.9" r="11.7"/>
																	<circle class="st0" cx="-276.3" cy="613.6" r="11.7"/>
																	<circle class="st0" cx="-348.8" cy="404.7" r="11.7"/>
																	<circle class="st0" cx="-550.5" cy="404.7" r="11.7"/>
																	<circle class="st0" cx="-446.1" cy="313.5" r="11.7"/>
																	<circle class="st0" cx="-320.4" cy="313.5" r="11.7"/>
																	<circle class="st0" cx="-441.4" cy="483.3" r="11.7"/>
																	<circle class="st0" cx="-441.4" cy="613.6" r="11.7"/>
																	<circle class="st0" cx="-504" cy="702.9" r="11.7"/>
																	<circle class="st0" cx="-397.2" cy="702.9" r="11.7"/>
																	<circle class="st0" cx="-397.2" cy="468.3" r="11.7"/>
																	<circle class="st0" cx="-397.2" cy="546" r="11.7"/>
																	<circle class="st0" cx="-195.8" cy="479.8" r="11.7"/>
																	<circle class="st0" cx="-276.3" cy="271" r="11.7"/>
																	<circle class="st0" cx="-376.9" cy="268.2" r="11.7"/>
																	<circle class="st0" cx="-376.9" cy="109.6" r="11.7"/>
																	<circle class="st0" cx="-438.5" cy="209.3" r="11.7"/>
																	<circle class="st0" cx="-263" cy="-4.1" r="11.7"/>
																	<circle class="st0" cx="-315.4" cy="50.8" r="11.7"/>
																	<circle class="st0" cx="-230.3" cy="164.6" r="11.7"/>
																	<circle class="st0" cx="-315.4" cy="164.6" r="11.7"/>
																	<circle class="st0" cx="-664.1" cy="483.3" r="11.7"/>
																	<circle class="st0" cx="-664.1" cy="206.2" r="11.7"/>
																	<circle class="st0" cx="-572.9" cy="526.1" r="11.7"/>
																	<circle class="st0" cx="-572.9" cy="623.1" r="11.7"/>
																	<circle class="st0" cx="-635.1" cy="735.6" r="11.7"/>
																	<circle class="st0" cx="-104.9" cy="64.4" r="11.7"/>
																	<circle class="st0" cx="-155.3" cy="169.4" r="11.7"/>
																	<circle class="st0" cx="-81.7" cy="-55.8" r="11.7"/>
																	<circle class="st0" cx="37.6" cy="-80.8" r="11.7"/>
																	<circle class="st0" cx="37.6" cy="-195.4" r="11.7"/>
																	<line class="st3" x1="511.9" y1="-125.6" x2="511.9" y2="-199.6"/>
																	<circle class="st0" cx="511.9" cy="-126.4" r="11.7"/>
																	<circle class="st0" cx="314.3" cy="-187" r="11.7"/>
																	<circle class="st0" cx="314.3" cy="-114.5" r="11.7"/>
																	<circle class="st0" cx="511.9" cy="-200.2" r="11.7"/>
																	<circle class="st0" cx="656.7" cy="-185.7" r="11.7"/>
																	<circle class="st0" cx="656.7" cy="-102.7" r="11.7"/>
																	<circle class="st0" cx="271" cy="-16" r="11.7"/>
																	<circle class="st0" cx="151" cy="-16" r="11.7"/>
																	<circle class="st0" cx="151" cy="41.7" r="11.7"/>
																	<circle class="st0" cx="190.9" cy="41.7" r="11.7"/>
																	<circle class="st0" cx="188.9" cy="274.6" r="11.7"/>
																	<circle class="st0" cx="235.4" cy="230.7" r="11.7"/>
																	<circle class="st0" cx="235.4" cy="109.4" r="11.7"/>
																	<circle class="st0" cx="271" cy="190.9" r="11.7"/>
																	<circle class="st0" cx="407" cy="120.6" r="11.7"/>
																	<circle class="st0" cx="715" cy="34.2" r="11.7"/>
																	<circle class="st0" cx="715" cy="121.2" r="11.7"/>
																	<circle class="st0" cx="407" cy="223.5" r="11.7"/>
																	<circle class="st0" cx="289.4" cy="294.7" r="11.7"/>
																	<circle class="st0" cx="426" cy="16.8" r="11.7"/>
																	<circle class="st0" cx="472.9" cy="-79.3" r="11.7"/>
																	<circle class="st0" cx="600.8" cy="-83.9" r="11.7"/>
																	<circle class="st0" cx="568.8" cy="109.6" r="11.7"/>
																	<circle class="st0" cx="530.9" cy="270.9" r="11.7"/>
																	<circle class="st0" cx="591.3" cy="184.8" r="11.7"/>
																	<path class="st0" d="M512.6-32.5c8-1.3,14.8,5.5,13.5,13.5c-0.8,4.8-4.7,8.7-9.5,9.5c-8,1.3-14.8-5.5-13.5-13.5
																		C503.9-27.8,507.8-31.7,512.6-32.5z"/>
																	<circle class="st0" cx="816.1" cy="-40" r="11.7"/>
																	<circle class="st0" cx="903.1" cy="39" r="11.7"/>
																	<circle class="st0" cx="1079.8" cy="-64.5" r="11.7"/>
																	<circle class="st0" cx="903.1" cy="-64.5" r="11.7"/>
																	<circle class="st0" cx="1010.7" cy="5.6" r="11.7"/>
																	<circle class="st0" cx="952.9" cy="-1.6" r="11.7"/>
																	<circle class="st0" cx="952.9" cy="85.9" r="11.7"/>
																	<circle class="st0" cx="1188.1" cy="74.3" r="11.7"/>
																	<circle class="st0" cx="1010.7" cy="202.6" r="11.7"/>
																	<circle class="st0" cx="886.6" cy="271" r="11.7"/>
																	<circle class="st0" cx="809.4" cy="169.3" r="11.7"/>
																	<circle class="st0" cx="809.4" cy="252.5" r="11.7"/>
																	<circle class="st0" cx="669.7" cy="270.7" r="11.7"/>
																	<path class="st0" d="M661.2,112.6c12.5-9.5,26.6,4.6,17.1,17.1C665.8,139.2,651.7,125.1,661.2,112.6z"/>
																	<circle class="st0" cx="1015.4" cy="326" r="11.7"/>
																	<circle class="st0" cx="816.1" cy="375.1" r="11.7"/>
																	<circle class="st0" cx="682.3" cy="406.7" r="11.7"/>
																	<circle class="st0" cx="682.3" cy="495.5" r="11.7"/>
																	<circle class="st0" cx="580.7" cy="698.6" r="11.7"/>
																	<circle class="st0" cx="1269.9" cy="533.9" r="11.7"/>
																	<circle class="st0" cx="913.8" cy="698.6" r="11.7"/>
																	<circle class="st0" cx="714.2" cy="741.6" r="11.7"/>
																	<circle class="st0" cx="1365.8" cy="533.9" r="11.7"/>
																	<circle class="st0" cx="1203.9" cy="194.1" r="11.7"/>
																	<circle class="st0" cx="1332.8" cy="175.3" r="11.7"/>
																	<circle class="st0" cx="625.2" cy="743.4" r="11.7"/>
																	<circle class="st0" cx="294.7" cy="812.3" r="11.7"/>
																	<circle class="st0" cx="351.3" cy="851.6" r="11.7"/>
																	<circle class="st0" cx="351.3" cy="922.3" r="11.7"/>
																	<circle class="st0" cx="512.3" cy="815.6" r="11.7"/>
																	<circle class="st0" cx="521.3" cy="875" r="11.7"/>
																	<circle class="st0" cx="521.3" cy="929.5" r="11.7"/>
																	<circle class="st0" cx="816.1" cy="869" r="11.7"/>
																	<circle class="st0" cx="1012.2" cy="816.5" r="11.7"/>
																	<circle class="st0" cx="1116.9" cy="740.6" r="11.7"/>
																	<circle class="st0" cx="1180.4" cy="664.8" r="11.7"/>
																	<circle class="st0" cx="1180.4" cy="745" r="11.7"/>
																	<circle class="st0" cx="1440.3" cy="626" r="11.7"/>
																	<circle class="st0" cx="1451.9" cy="567.8" r="11.7"/>
																	<circle class="st0" cx="1440.3" cy="725.8" r="11.7"/>
																	<circle class="st0" cx="1242.4" cy="710" r="11.7"/>
																	<circle class="st0" cx="1116.9" cy="608.1" r="11.7"/>
																	<circle class="st0" cx="1047.9" cy="629.7" r="11.7"/>
																	<circle class="st0" cx="957.5" cy="629.7" r="11.7"/>
																	<circle class="st0" cx="993.4" cy="698.5" r="11.7"/>
																	<circle class="st0" cx="876.6" cy="782.8" r="11.7"/>
																	<circle class="st0" cx="954.6" cy="782.8" r="11.7"/>
																	<circle class="st0" cx="1109.1" cy="798.6" r="11.7"/>
																	<circle class="st0" cx="913.8" cy="580.4" r="11.7"/>
																	<circle class="st0" cx="678.7" cy="601" r="11.7"/>
																	<circle class="st0" cx="671.1" cy="679.2" r="11.7"/>
																	<circle class="st0" cx="832.5" cy="599.8" r="11.7"/>
																	<circle class="st0" cx="1168.3" cy="851.6" r="11.7"/>
																	<circle class="st0" cx="146.4" cy="707.2" r="11.7"/>
																	<circle class="st0" cx="249.6" cy="851.6" r="11.7"/>
																	<circle class="st0" cx="225.7" cy="906.7" r="11.7"/>
																	<circle class="st0" cx="147.7" cy="906.7" r="11.7"/>
																	<circle class="st0" cx="816.1" cy="546" r="11.7"/>
																	<circle class="st0" cx="1042" cy="496.3" r="11.7"/>
																	<circle class="st0" cx="1117.6" cy="435.9" r="11.7"/>
																	<circle class="st0" cx="1410.5" cy="507.8" r="11.7"/>
																	<circle class="st0" cx="913.8" cy="496.3" r="11.7"/>
																	<circle class="st0" cx="-230" cy="537.8" r="11.7"/>
																	<circle class="st0" cx="-167.1" cy="537.8" r="11.7"/>
																	<circle class="st0" cx="-71.5" cy="215.9" r="11.7"/>
																	<circle class="st0" cx="1361.3" cy="404.8" r="11.7"/>
																	<circle class="st0" cx="1518.4" cy="340.8" r="11.7"/>
																	<circle class="st0" cx="1508.8" cy="608.4" r="11.7"/>
																	<circle class="st0" cx="1189.5" cy="311" r="11.7"/>
																	<circle class="st0" cx="1286.5" cy="241.3" r="11.7"/>
																	<circle class="st0" cx="1336.9" cy="284" r="11.7"/>
																	<circle class="st0" cx="1389.3" cy="284" r="11.7"/>
																	<circle class="st0" cx="1286.5" cy="340.2" r="11.7"/>
																	<circle class="st0" cx="1309.8" cy="491.5" r="11.7"/>
																	<circle class="st0" cx="242.7" cy="-55.8" r="11.7"/>
																	<circle class="st0" cx="349.8" cy="-55.8" r="11.7"/>
																	<circle class="st0" cx="194.6" cy="-194.2" r="11.7"/>
																	<circle class="st0" cx="62.4" cy="221.6" r="11.7"/>
																	<circle class="st0" cx="22.7" cy="417.3" r="11.7"/>
																	<circle class="st0" cx="62.4" cy="302" r="11.7"/>
																	<circle class="st0" cx="111.2" cy="176.4" r="11.7"/>
																	<circle class="st0" cx="23.5" cy="142.1" r="11.7"/>
																	<circle class="st0" cx="111.2" cy="369.8" r="11.7"/>
																	<circle class="st0" cx="-116.8" cy="350.6" r="11.7"/>
																	<circle class="st0" cx="81.2" cy="794.4" r="11.7"/>
																	<circle class="st0" cx="21.5" cy="894.7" r="11.7"/>
																	<circle class="st0" cx="81.2" cy="630.6" r="11.7"/>
																	<circle class="st0" cx="30.9" cy="547.6" r="11.7"/>
																	<circle class="st0" cx="-599" cy="359.6" r="11.7"/>
																	<circle class="st0" cx="-599" cy="444.9" r="11.7"/>
																	<circle class="st0" cx="-585.4" cy="268.2" r="11.7"/>
																	<circle class="st0" cx="-630.1" cy="173.3" r="11.7"/>
																	<circle class="st0" cx="-542.8" cy="173.3" r="11.7"/>
																</g>
															</g>
															<line class="st3" x1="-714.9" y1="314" x2="-802.2" y2="314"/>
															<polyline class="st3" points="-542.2,205.1 -542.2,172 -631.6,172 -631.6,-19.8 															"/>
															<polyline class="st3" points="-619.8,538.6 -691.6,539.1 -802.2,539.1 															"/>
															<line class="st3" x1="-714.9" y1="736.5" x2="-714.9" y2="538.6"/>
														</g>
														<g>
															<polyline class="st4" points="475.1,222.7 406.8,222.7 406.8,119.5 358.2,119.5 															"/>
															<line class="st3" x1="672.5" y1="78" x2="603.7" y2="78"/>
															<circle class="st0" cx="672.5" cy="78" r="11.7"/>
															<circle class="st0" cx="602.7" cy="78" r="11.7"/>
															<polyline class="st3" points="591.1,271 591.1,185 515,185 515,30 475,30 															"/>
															<polyline class="st3" points="614.4,271 614.4,322.1 724.8,322.1 															"/>
															<path class="st0" d="M613.4,310.9c8-1.3,14.8,5.5,13.5,13.5c-0.8,4.8-4.7,8.7-9.5,9.5c-8,1.3-14.8-5.5-13.5-13.5
																C604.7,315.6,608.6,311.7,613.4,310.9z"/>
															<line class="st3" x1="670.3" y1="222.7" x2="760" y2="222.7"/>
															<circle class="st0" cx="516.3" cy="184.8" r="11.7"/>
															<circle class="st0" cx="516.3" cy="30" r="11.7"/>
															<circle class="st0" cx="360.3" cy="71" r="11.7"/>
															<circle class="st0" cx="311.4" cy="71" r="11.7"/>
															<polyline class="st3" points="359.4,276 359.4,71 471.3,71 															"/>
															<line class="st3" x1="312.4" y1="71" x2="312.4" y2="-82"/>
															<polyline class="st3" points="665,-21 665,26 568.8,26 															"/>
															<circle class="st0" cx="665" cy="26" r="11.7"/>
															<polyline class="st3" points="269.3,110 234.3,110 234.3,230 188.9,230 															"/>
															<line class="st3" x1="300.8" y1="190.6" x2="300.8" y2="312"/>
															<line class="st3" x1="111.2" y1="331.1" x2="247" y2="331.1"/>
															<line class="st3" x1="73" y1="420.6" x2="73" y2="547.6"/>
															<line class="st3" x1="29.5" y1="595.6" x2="128" y2="595.6"/>
															<path class="st0" d="M716.3,371c12.5-9.5,26.6,4.6,17.1,17.1C720.9,397.6,706.8,383.5,716.3,371z"/>
															<polyline class="st3" points="724.8,379.6 724.8,271 812.1,271 															"/>
															<path class="st0" d="M722.8,259.5c8-1.3,14.8,5.5,13.5,13.5c-0.8,4.8-4.7,8.7-9.5,9.5c-8,1.3-14.8-5.5-13.5-13.5
																C714.1,264.2,718,260.3,722.8,259.5z"/>
															<line class="st3" x1="615.4" y1="570.8" x2="725.1" y2="570.8"/>
														</g>
													</g>
												</g>
											</g>
										</g>
									</g>
								</g>
							</g>
						</g>
					</g>
				</g>
			</g>
			<circle class="st0" cx="724.8" cy="519.2" r="11.7"/>
			<g>
				<g>
					<circle class="st0" cx="375.5" cy="530.4" r="271.2"/>
					<g>
						<g>
							<g>
								<g>
									<g>
										<path class="st5" d="M317.2,715.5c-1-5.9-3.3-11.6-5.9-17c-2.4-0.5-4.6-0.8-7-1c-2.2-0.2-4.6-0.3-6.7-1.3
											c-0.6-0.3-1.3-0.6-1.7-1.1c-4.1,5.4-8.4,10.7-11.6,16.7C293.8,717.8,306.2,716.7,317.2,715.5z"/>
										<g>
											<path class="st6" d="M318,599c3.6,0.8,7.3,2,10.7,3.3c3.3,1.2,6.5,2.5,9.6,4.2c1.1-3.4,2.3-6.8,4.2-9.9
												c0-0.2,0.2-0.2,0.2-0.3c-1.4-0.8-2.6-1.4-4-2.2c-5-3.1-9.6-6.7-13.8-10.7c-1.9,2.6-3.3,5.7-4.3,8.7
												C319.6,594.4,318.8,596.7,318,599z"/>
											<path class="st6" d="M318,631.4c-2.1-0.8-4.3-1.8-6.3-2.7c-0.9-0.5-2.1-0.8-3-1.3c-0.3,1-0.6,2.1-0.8,3
												c-1.6,6.2-3,12.4-4.1,18.6c6.2,2.2,12.6,3.3,18.8,5.6c0.9-3.2,1.9-6.5,3-9.7c1.1-3.3,2.2-6.9,3.2-10.2
												C325,634.1,321.5,632.9,318,631.4z"/>
											<path class="st6" d="M303.2,652.9c-0.6,3.4-1.1,6.8-1.5,10.2c-0.5,3.6-0.9,7-1.5,10.5c0.6,0.2,1.4,0.3,2,0.5
												c2,0.5,4.2,1.1,6.2,1.4c1.9,0.3,3.7,0.8,5.7,0.8c0.6,0,1.2,0,1.9-0.2c0.2,0,0.5-0.2,0.6-0.2c0.5-2,1.1-4,1.5-6
												c0.9-3.9,2-7.7,3.1-11.5C315.1,656.6,308.9,655.2,303.2,652.9z"/>
											<path class="st6" d="M316.6,603c-0.5,1.2-0.8,2.5-1.2,3.7c-1.9,5.6-3.7,11.2-5.4,16.7c1.2,0.5,2.3,0.9,3.4,1.4
												c2,0.8,4.2,1.7,6.2,2.5c3.3,1.2,6.7,2.5,10.2,3.3c1.2-3.9,2.6-7.7,4-11.6c0.9-2.6,1.9-5.3,2.9-7.9
												c-3.3-2-6.8-3.4-10.4-4.6C323.1,605.2,319.7,604.4,316.6,603z"/>
											<path class="st6" d="M308,680c-2.3-0.5-4.5-1.1-6.7-1.5c-0.6-0.2-1.2-0.3-1.9-0.5c0,0.5-0.2,1.1-0.2,1.5
												c-0.3,2.6-0.9,5.3-1.1,7.9c0,1.4-0.2,2.8,0.3,4c0.2,0.3,0.8,0.9,1.2,1.1c1.1,0.3,2,0.5,3.1,0.6c2.6,0.2,5.3,0.5,7.9,0.9
												c1.7-4.3,3.1-8.7,4.3-13.2c-0.3,0-0.5,0.2-0.8,0.2C312.2,680.8,310,680.5,308,680z"/>
										</g>
										<path class="st2" d="M303.8,648.7c-0.3-0.2-0.6-0.2-1.1-0.3c-2.2-0.8-3.7,2.9-1.5,3.9c0.6,0.3,1.2,0.5,1.9,0.8
											c5.9,2.3,11.9,3.7,18,5.6c0.6,0.2,1.1,0.3,1.7,0.5c2.8,0.9,3.7-3.3,1.1-4.2c-0.5-0.2-1.1-0.3-1.5-0.6
											C316.3,652,309.8,650.9,303.8,648.7z"/>
										<path class="st2" d="M319.6,627.4c-2-0.8-4.2-1.7-6.2-2.5c-1.1-0.5-2.3-0.9-3.4-1.4c-0.8-0.3-1.7-0.5-2.5-0.6
											c-2-0.3-3.4,2.2-1.4,3.4c0.8,0.5,1.7,0.9,2.8,1.4c0.9,0.5,2,0.8,2.9,1.2c2,0.9,4.2,1.7,6.2,2.6c3.4,1.4,7,2.6,10.5,3.4
											c0.5,0.2,0.9,0.2,1.5,0.3c2.8,0.5,4-3.9,1.2-4.3c-0.5,0-0.9-0.2-1.2-0.3C326.2,629.8,322.8,628.6,319.6,627.4z"/>
										<path class="st2" d="M318,599c-0.8-0.2-1.5-0.3-2.3-0.5c-2-0.3-3.4,2.3-1.4,3.4c0.8,0.5,1.5,0.8,2.3,1.1
											c3.1,1.2,6.5,2.2,9.6,3.3c3.6,1.2,7.1,2.6,10.4,4.6c0.5,0.3,0.9,0.5,1.4,0.8c2.5,1.7,4.8-2.3,2.3-4
											c-0.6-0.5-1.4-0.9-2.2-1.2c-3.1-1.7-6.4-3.1-9.6-4.2C325.2,601,321.6,599.8,318,599z"/>
										<g>
											<path class="st7" d="M342.7,596.4c0,0.2-0.2,0.2-0.2,0.3c-1.9,3.1-3.1,6.5-4.2,9.9c0.8,0.5,1.4,0.8,2.2,1.2
												c2.5,1.7,0.2,5.6-2.3,4c-0.5-0.3-0.9-0.6-1.4-0.8c-0.9,2.6-1.9,5.3-2.9,7.9c-1.4,3.9-2.6,7.7-4,11.6
												c0.5,0.2,0.9,0.2,1.2,0.3c2.8,0.5,1.7,4.8-1.2,4.3c-0.5-0.2-1.1-0.2-1.5-0.3c-1.1,3.3-2.2,6.7-3.1,9.9
												c-0.9,3.1-2,6.4-2.9,9.4c0.5,0.2,1.1,0.3,1.5,0.6c2.6,1.1,1.5,5.1-1.1,4.2c-0.6-0.2-1.1-0.3-1.7-0.5
												c-1.1,3.9-2.2,7.6-3.1,11.5c-0.5,2-0.9,4-1.5,6c0.2,0,0.3,0,0.5,0s0.5,0,0.6,0.2c1.2,0.2,2,1.5,1.5,2.8
												c0,0-0.2,0.2-0.2,0.6c-0.2,0.3-0.5,0.6-0.8,0.8s-0.9,0.3-1.2,0.5c-0.5,0.2-1.1,0.2-1.7,0.2c-1.2,4.5-2.6,8.8-4.3,13.2
												c-2.6-0.5-5.3-0.6-7.9-0.9c-1.1-0.2-2-0.2-3.1-0.6c-0.5-0.2-1.1-0.6-1.2-1.1c-0.5-1.2-0.5-2.8-0.3-4
												c0.2-2.6,0.6-5.3,1.1-7.9c0-0.5,0.2-0.9,0.2-1.5c-1.2-0.3-2.3-0.6-3.6-1.1c-1.9-0.8-0.9-3.9,0.9-3.7c1.1,0,2,0.3,3.1,0.6
												c0.5-3.6,0.9-7,1.5-10.5c0.5-3.4,1.1-6.8,1.5-10.2c-0.6-0.3-1.2-0.5-1.9-0.8c-2.2-0.9-0.6-4.6,1.5-3.9
												c0.3,0.2,0.6,0.2,1.1,0.3c1.1-6,2.3-12.1,4-18.1c0.3-0.9,0.6-2,0.8-2.9c-0.9-0.5-1.9-0.8-2.8-1.4c-2-1.2-0.6-3.7,1.4-3.4
												c0.8,0.2,1.7,0.3,2.5,0.6c1.7-5.6,3.7-11.2,5.4-16.7c0.5-1.2,0.8-2.5,1.2-3.7c-0.8-0.3-1.5-0.6-2.3-1.1
												c-2-1.1-0.5-3.7,1.4-3.4c0.8,0.2,1.5,0.3,2.3,0.5c0.8-2.3,1.7-4.6,2.6-7c1.2-2.8,2.5-6,4.3-8.7c0.3-0.5,0.8-1.1,1.1-1.4
												c2-2-1.1-5-3.1-3.1c-0.5,0.5-0.8,0.8-1.2,1.2c-4.2,4.6-6.4,11.3-8.4,16.9c-2.5,7-4.5,14.1-7,21.1
												c-7.4,20.8-9.6,42.9-12.7,64.6c-0.3,2.5-0.8,5.6-0.5,8.2c1.9-1.7,5.1,0.9,3.6,3.1c-0.5,0.6-0.8,1.1-1.2,1.7
												c0.5,0.5,1.1,0.8,1.7,1.1c2,0.9,4.3,1.1,6.5,1.2c2.3,0.2,4.5,0.5,6.8,0.9c-0.2-0.3-0.3-0.6-0.5-1.1
												c-1.2-2.8,2.6-5.1,4-2.3c0.2,0.5,0.3,0.8,0.6,1.2c3.1-7.6,5.3-15.5,7.3-23.5c2.2-8.5,4.6-16.9,7.3-25.1
												c2.8-8.7,5.4-17.3,8.5-25.9c1.4-4.2,3.1-8.2,4.5-12.4c1.2-3.6,2.3-7.4,4.3-10.7c0.2-0.2,0.2-0.5,0.3-0.6
												C347.5,596.1,344.2,594.4,342.7,596.4z"/>
											<path class="st7" d="M310.1,698c0.2,0.3,0.3,0.6,0.5,1.1c2.5,5.3,4.6,10.8,5.7,16.6c-10.7,1.2-22.6,2.2-32.1-3.6
												c3.1-5.9,7.3-11,11.3-16.3c0.5-0.6,0.8-1.1,1.2-1.7c1.5-2.2-1.9-4.8-3.6-3.1c0,0-0.2,0.2-0.3,0.2
												c-5.1,6.5-10.7,12.9-14.1,20.4c-0.6,1.4-0.3,2.5,0.9,3.4c11,8.4,26.5,6.8,39.3,5.3c1.2-0.2,2.6-1.1,2.5-2.5
												c-0.9-7.3-3.4-14.4-6.8-20.9c-0.2-0.5-0.3-0.8-0.6-1.2C312.8,692.9,308.9,695.2,310.1,698z"/>
											<path class="st7" d="M314.6,676.3c-1.9,0-3.9-0.3-5.7-0.8c-2-0.5-4.2-0.9-6.2-1.4c-0.6-0.2-1.2-0.3-2-0.5
												c-1.1-0.3-2-0.5-3.1-0.6c-1.9,0-2.9,2.9-0.9,3.7c1.1,0.5,2.3,0.8,3.6,1.1c0.6,0.2,1.2,0.3,1.9,0.5
												c2.2,0.6,4.5,1.2,6.7,1.5c2,0.5,4.2,0.8,6.4,0.8c0.3,0,0.5,0,0.8-0.2c0.6,0,1.1,0,1.7-0.2c0.5-0.2,0.9-0.3,1.2-0.5
												c0.3-0.2,0.6-0.5,0.8-0.8c0.2-0.3,0.2-0.5,0.2-0.6c0.5-1.1-0.3-2.6-1.5-2.8c-0.2,0-0.5-0.2-0.6-0.2c-0.2,0-0.3,0-0.5,0
												s-0.3,0.2-0.6,0.2C315.8,676.3,315.2,676.3,314.6,676.3z"/>
										</g>
									</g>
									<g>
										<path class="st5" d="M228.5,619.3c-0.2,0-0.2,0-0.3,0c-6.2,2.3-10.5,10.8-8.1,16.9c1.1,2.6,2.6,5.4,4.8,7.4
											c0.6,0.6,1.9,1.5,2.5,1.5c0.3,0,0.3,0,0.5-0.2c0.5-0.5,0.8-0.9,0.9-1.4c0.8-1.7-0.3-3.3-0.5-5c-0.3-1.9,0-3.7,1.2-5.3
											c2.8-3.1,7.4-3.6,10.4-0.3c2.3,2.6,2.9,6.8,1.7,10.1c-0.3,0.9-1.9,3.1-1.5,4c0.5,1.5,3.1,1.7,4.3,1.2
											c4-1.7,6.5-7.3,6.7-11.5c0.3-5-1.2-9.6-3.9-13.9c-0.2,0-0.2,0-0.3,0C241.1,621.6,234.9,619.3,228.5,619.3z"/>
										<g>
											<path class="st6" d="M276.2,531.8c4,7.7,8.7,15,11.8,23.1c1.2-0.8,2.5-1.5,3.7-2.3c-0.5-9.8-0.6-19.7-0.3-29.4
												C285.8,525,280.7,528.1,276.2,531.8z"/>
											<path class="st6" d="M272.8,534.7c-1.7,1.5-3.3,3.1-4.8,4.6c-3.1,3.3-6,6.7-8.8,10.2c6.7,3.4,12.1,9.9,15.8,16.4
												c2.9-3.1,6-6,9.4-8.5C281.5,549.5,276.8,542.2,272.8,534.7z"/>
											<path class="st6" d="M256.5,553.2c-2.2,2.9-4.2,5.9-6,9c-1.9,3.1-3.7,6.2-5.3,9.4c5.6,4,11.6,7.3,17,11.5
												c0.3-0.6,0.6-1.1,0.9-1.7c2.6-4.3,5.6-8.4,8.8-12.1c-0.2-0.2-0.3-0.3-0.5-0.5C268.2,562.6,262.9,556.3,256.5,553.2z"/>
											<path class="st6" d="M243.1,575.3c-3.4,6.8-6.2,14.1-8.4,21.4c2.8,0.2,5.6,1.1,8.2,2c3.4,1.4,6.7,2.9,9.6,5
												c2.2-5.9,4.6-11.5,7.6-17c0,0-0.2,0-0.2-0.2C254.7,582.4,248.7,579.3,243.1,575.3z"/>
											<path class="st6" d="M233.5,601.2c-1.2,4.6-2,9.3-2.6,13.9c5.7,0.5,11.2,2.3,16.7,3.7c1.1-3.7,2.3-7.3,3.6-10.8
												c-0.2,0-0.3-0.2-0.5-0.2C245.9,604.4,239.5,601,233.5,601.2z"/>
										</g>
										<g>
											<path class="st7" d="M230.1,615c0.3,0,0.5,0,0.8,0c0.6-4.6,1.5-9.3,2.6-13.9c-0.5,0-0.9,0-1.4,0c-2.8,0.3-2.8-4,0-4.3
												c0.9-0.2,1.7-0.2,2.6,0c2.2-7.3,5-14.6,8.4-21.4c-0.3-0.2-0.6-0.5-0.9-0.6c-2.2-1.7,0-5.4,2.2-3.7
												c0.3,0.2,0.5,0.3,0.8,0.5c1.7-3.3,3.4-6.4,5.3-9.4c1.9-3.1,4-6,6-9c-0.2,0-0.2-0.2-0.3-0.2c-2.5-1.2-0.3-5,2.2-3.7
												c0.3,0.2,0.5,0.3,0.8,0.5c2.8-3.6,5.7-7,8.8-10.2c1.5-1.7,3.3-3.3,4.8-4.6c-0.3-0.6-0.8-1.4-1.1-2.2
												c-1.2-2.5,2.5-4.6,3.7-2.2c0.3,0.5,0.5,0.9,0.8,1.4c4.6-3.7,9.6-6.7,15.2-8.8c0.3-0.2,0.6-0.2,0.8-0.3
												c2.5-0.8,1.5-4.5-0.6-4.2c-0.2,0-0.3,0-0.5,0c-9.6,3.3-17.5,9.1-24.6,16.3c-6.8,6.7-12.7,14.2-18,22.1
												c-10.5,16-18.1,34.4-21.4,53.3c-0.3,1.7-0.5,3.4-0.8,5.1c0.6-0.2,1.2-0.5,1.9-0.6C229.1,614.5,229.6,614.7,230.1,615z"/>
											<path class="st7" d="M292.5,551.9c-0.3,0.2-0.5,0.3-0.8,0.5c-1.2,0.8-2.5,1.5-3.7,2.3c0.3,0.8,0.6,1.4,0.8,2.2
												c0.9,2.6-3.3,3.7-4.2,1.2c0-0.2-0.2-0.5-0.3-0.6c-3.4,2.6-6.5,5.4-9.4,8.5c0.2,0.2,0.3,0.5,0.3,0.6
												c1.2,2.2-1.7,4.2-3.3,2.6c-3.3,3.7-6.2,7.7-8.8,12.1c-0.3,0.6-0.6,1.1-0.9,1.7c0.3,0.2,0.5,0.3,0.8,0.6
												c2.2,1.7-0.8,4.6-2.9,3.1c-2.9,5.4-5.4,11.2-7.6,17c0.2,0,0.2,0.2,0.3,0.2c2.2,1.4,0.5,4.8-1.7,3.9
												c-1.2,3.6-2.5,7.3-3.6,10.8c0.3,0,0.5,0.2,0.8,0.2c0.5,0.2,0.9,0.5,1.1,0.8c0.6,0,1.2,0.3,1.7,0.9
												c0.2,0.2,0.2,0.3,0.3,0.5c3.9-12.9,8.4-25.6,15.3-37.2c6.4-10.7,14.9-19.8,25.4-26.6c0.9-0.6,1.7-1.1,2.6-1.7
												C297.1,554.4,295,550.5,292.5,551.9z"/>
											<path class="st7" d="M249.4,619.6c-1.5-0.2-3.1,1.5-2.2,3.3c0,0.2,0.2,0.2,0.2,0.3c2.5,4.3,4.2,9,3.9,13.9
												c-0.3,4-2.6,9.8-6.7,11.5c-1.2,0.5-3.9,0.3-4.3-1.2c-0.3-0.9,1.2-3.3,1.5-4c1.2-3.3,0.6-7.6-1.7-10.1
												c-2.9-3.3-7.6-2.6-10.4,0.3c-1.4,1.5-1.5,3.4-1.2,5.3c0.3,1.7,1.2,3.3,0.5,5c-0.3,0.6-0.6,1.1-0.9,1.4
												c-0.2,0.2-0.3,0.2-0.5,0.2c-0.6,0-1.9-0.9-2.5-1.5c-2.2-2-3.7-4.8-4.8-7.4c-2.3-6.2,2-14.7,8.1-16.9
												c0.5-0.2,0.8-0.3,1.2-0.3c2-0.5,1.9-2.8,0.6-3.9c-0.5-0.3-1.1-0.5-1.7-0.3c-0.6,0.2-1.2,0.3-1.9,0.6
												c-7.1,2.6-11.2,10.7-11.3,18c0,2.9,1.4,6,2.9,8.5c1.5,2.6,3.6,5.3,6.2,6.8c2.5,1.4,5.4,1.1,7.3-1.1
												c1.1-1.4,1.7-3.1,2-4.8c0.2-1.9-0.9-3.6-0.9-5.3c-0.2-1.4,2.2-2.6,3.4-2c1.4,0.6,1.9,2.5,2,3.9c0.3,3.4-2.5,5.9-1.9,9.3
												c0.6,3.7,5.7,5,8.7,4.5c3.6-0.6,6.5-4.2,8.2-7.3c4.3-7.9,2.6-17.2-1.9-24.6c-0.2-0.2-0.2-0.3-0.3-0.5
												C250.7,619.9,250,619.6,249.4,619.6z"/>
											<path class="st7" d="M234.7,596.8c-0.9,0-1.7,0-2.6,0c-2.8,0.3-2.8,4.6,0,4.3c0.5,0,0.9,0,1.4,0c6,0,12.4,3.4,17,6.5
												c0.2,0.2,0.3,0.2,0.5,0.2c2.2,0.9,3.9-2.5,1.7-3.9c-0.2,0-0.2-0.2-0.3-0.2c-2.9-2-6.2-3.6-9.6-5
												C240.3,597.8,237.5,597,234.7,596.8z"/>
											<path class="st7" d="M244.3,571c-2.3-1.7-4.3,2.2-2.2,3.7c0.3,0.2,0.6,0.5,0.9,0.6c5.4,3.9,11.5,7.1,16.7,11.3
												c0,0,0.2,0,0.2,0.2c2.2,1.4,5-1.4,2.9-3.1c-0.3-0.2-0.5-0.3-0.8-0.6c-5.4-4.2-11.5-7.4-17-11.5
												C244.9,571.3,244.6,571.1,244.3,571z"/>
											<path class="st7" d="M258.4,549.1c-2.5-1.2-4.6,2.5-2.2,3.7c0.2,0,0.2,0.2,0.3,0.2c6.5,3.3,11.6,9.4,14.9,15.6
												c0.2,0.2,0.3,0.3,0.5,0.5c1.5,1.5,4.5-0.5,3.3-2.6c-0.2-0.2-0.2-0.5-0.3-0.6c-3.6-6.5-9.1-13-15.8-16.4
												C258.9,549.5,258.7,549.3,258.4,549.1z"/>
											<path class="st7" d="M276.2,531.8c-0.3-0.5-0.5-0.9-0.8-1.4c-1.2-2.5-5-0.3-3.7,2.2c0.3,0.8,0.8,1.4,1.1,2.2
												c4,7.6,8.5,14.7,11.6,22.8c0.2,0.2,0.2,0.5,0.3,0.6c0.9,2.6,5.1,1.5,4.2-1.2c-0.3-0.8-0.5-1.4-0.8-2.2
												C284.7,546.8,280.2,539.4,276.2,531.8z"/>
											<path class="st7" d="M230.1,615c1.2,0.9,1.4,3.4-0.6,3.9c-0.5,0.2-0.8,0.2-1.2,0.3c0.2,0,0.2,0,0.3,0
												c6.4,0,12.5,2.5,18.6,3.9c0.2,0,0.2,0,0.3,0c0-0.2-0.2-0.2-0.2-0.3c-1.1-1.7,0.6-3.3,2.2-3.3c-0.3-0.3-0.6-0.6-1.1-0.8
												c-0.3,0-0.5-0.2-0.8-0.2c-5.6-1.4-11-3.3-16.7-3.7C230.5,615,230.4,615,230.1,615z"/>
										</g>
									</g>
									<g>
										<path class="st5" d="M522.5,450.6c0.2,0,0.2,0,0.3,0c6.2-2.3,10.5-10.8,8.1-16.9c-1.1-2.6-2.6-5.4-4.8-7.4
											c-0.6-0.6-1.9-1.5-2.5-1.5c-0.3,0-0.3,0-0.5,0.2c-0.5,0.5-0.8,0.9-0.9,1.4c-0.8,1.7,0.3,3.3,0.5,5c0.3,1.9,0,3.7-1.2,5.3
											c-2.8,3.1-7.4,3.6-10.4,0.3c-2.3-2.6-2.9-6.8-1.7-10.1c0.3-0.9,1.9-3.1,1.5-4c-0.5-1.5-3.1-1.7-4.3-1.2
											c-4,1.7-6.5,7.3-6.7,11.5c-0.3,5,1.2,9.6,3.9,13.9c0.2,0,0.2,0,0.3,0C509.9,448.3,516.1,450.6,522.5,450.6z"/>
										<g>
											<path class="st6" d="M474.8,538.1c-4-7.7-8.7-15-11.8-23.1c-1.2,0.8-2.5,1.5-3.7,2.3c0.5,9.8,0.6,19.7,0.3,29.4
												C465.2,545,470.3,541.9,474.8,538.1z"/>
											<path class="st6" d="M478.2,535.2c1.7-1.5,3.3-3.1,4.8-4.6c3.1-3.3,6-6.7,8.8-10.2c-6.7-3.4-12.1-9.9-15.8-16.4
												c-2.9,3.1-6,6-9.4,8.5C469.7,520.5,474.2,527.8,478.2,535.2z"/>
											<path class="st6" d="M494.5,516.8c2.2-2.9,4.2-5.9,6-9c1.9-3.1,3.7-6.2,5.3-9.4c-5.6-4-11.6-7.3-17-11.5
												c-0.3,0.6-0.6,1.1-0.9,1.7c-2.6,4.3-5.6,8.4-8.8,12.1c0.2,0.2,0.3,0.3,0.5,0.5C483,507.3,488.1,513.7,494.5,516.8z"/>
											<path class="st6" d="M507.9,494.6c3.4-6.8,6.2-14.1,8.4-21.4c-2.8-0.2-5.6-1.1-8.2-2c-3.4-1.4-6.7-2.9-9.6-5
												c-2.2,5.9-4.6,11.5-7.6,17c0,0,0.2,0,0.2,0.2C496.3,487.5,502.3,490.6,507.9,494.6z"/>
											<path class="st6" d="M517.5,468.8c1.2-4.6,2-9.3,2.6-13.9c-5.7-0.5-11.2-2.3-16.7-3.7c-1.1,3.7-2.3,7.3-3.6,10.8
												c0.2,0,0.3,0.2,0.5,0.2C505.1,465.5,511.5,468.9,517.5,468.8z"/>
										</g>
										<g>
											<path class="st7" d="M520.9,455c-0.3,0-0.5,0-0.8,0c-0.6,4.6-1.5,9.3-2.6,13.9c0.5,0,0.9,0,1.4,0c2.8-0.3,2.8,4,0,4.3
												c-0.9,0.2-1.7,0.2-2.6,0c-2.2,7.3-5,14.6-8.4,21.4c0.3,0.2,0.6,0.5,0.9,0.6c2.2,1.7,0,5.4-2.2,3.7
												c-0.3-0.2-0.5-0.3-0.8-0.5c-1.7,3.3-3.4,6.4-5.3,9.4s-4,6-6,9c0.2,0,0.2,0.2,0.3,0.2c2.5,1.2,0.3,5-2.2,3.7
												c-0.3-0.2-0.5-0.3-0.8-0.5c-2.8,3.6-5.7,7-8.8,10.2c-1.5,1.7-3.3,3.3-4.8,4.6c0.3,0.6,0.8,1.4,1.1,2.2
												c1.2,2.5-2.5,4.6-3.7,2.2c-0.3-0.5-0.5-0.9-0.8-1.4c-4.6,3.7-9.6,6.7-15.2,8.8c-0.3,0.2-0.6,0.2-0.8,0.3
												c-2.5,0.8-1.5,4.5,0.6,4.2c0.2,0,0.3,0,0.5,0c9.6-3.3,17.5-9.1,24.6-16.3c6.8-6.7,12.7-14.2,18-22.1
												c10.5-16,18.1-34.4,21.4-53.3c0.3-1.7,0.5-3.4,0.8-5.1c-0.6,0.2-1.2,0.5-1.9,0.6C522,455.4,521.4,455.3,520.9,455z"/>
											<path class="st7" d="M458.5,518c0.3-0.2,0.5-0.3,0.8-0.5c1.2-0.8,2.5-1.5,3.7-2.3c-0.3-0.8-0.6-1.4-0.8-2.2
												c-0.9-2.6,3.3-3.7,4.2-1.2c0,0.2,0.2,0.5,0.3,0.6c3.4-2.6,6.5-5.4,9.4-8.5c-0.2-0.2-0.3-0.5-0.3-0.6
												c-1.2-2.2,1.7-4.2,3.3-2.6c3.3-3.7,6.2-7.7,8.8-12.1c0.3-0.6,0.6-1.1,0.9-1.7c-0.3-0.2-0.5-0.3-0.8-0.6
												c-2.2-1.7,0.8-4.6,2.9-3.1c2.9-5.4,5.4-11.2,7.6-17c-0.2,0-0.2-0.2-0.3-0.2c-2.2-1.4-0.5-4.8,1.7-3.9
												c1.2-3.6,2.5-7.3,3.6-10.8c-0.3,0-0.5-0.2-0.8-0.2c-0.5-0.2-0.9-0.5-1.1-0.8c-0.6,0-1.2-0.3-1.7-0.9
												c-0.2-0.2-0.2-0.3-0.3-0.5c-3.9,12.9-8.4,25.6-15.3,37.2c-6.4,10.7-14.9,19.8-25.4,26.6c-0.9,0.6-1.7,1.1-2.6,1.7
												C453.9,515.5,456,519.4,458.5,518z"/>
											<path class="st7" d="M520.9,455c-1.2-0.9-1.4-3.4,0.6-3.9c0.5-0.2,0.8-0.2,1.2-0.3c-0.2,0-0.2,0-0.3,0
												c-6.4,0-12.5-2.5-18.6-3.9c-0.2,0-0.2,0-0.3,0c0,0.2,0.2,0.2,0.2,0.3c1.1,1.7-0.6,3.3-2.2,3.3c0.3,0.3,0.6,0.6,1.1,0.8
												c0.3,0,0.5,0.2,0.8,0.2c5.6,1.4,11,3.3,16.7,3.7C520.5,455,520.6,455,520.9,455z"/>
											<path class="st7" d="M501.6,450.3c1.5,0.2,3.1-1.5,2.2-3.3c0-0.2-0.2-0.2-0.2-0.3c-2.5-4.3-4.2-9-3.9-13.9
												c0.3-4,2.6-9.8,6.7-11.5c1.2-0.5,3.9-0.3,4.3,1.2c0.3,0.9-1.2,3.3-1.5,4c-1.2,3.3-0.6,7.6,1.7,10.1
												c2.9,3.3,7.6,2.6,10.4-0.3c1.4-1.5,1.5-3.4,1.2-5.3c-0.3-1.7-1.2-3.3-0.5-5c0.3-0.6,0.6-1.1,0.9-1.4
												c0.2-0.2,0.3-0.2,0.5-0.2c0.6,0,1.9,0.9,2.5,1.5c2.2,2,3.7,4.8,4.8,7.4c2.3,6.2-2,14.7-8.1,16.9
												c-0.5,0.2-0.8,0.3-1.2,0.3c-2,0.5-1.9,2.8-0.6,3.9c0.5,0.3,1.1,0.5,1.7,0.3c0.6-0.2,1.2-0.3,1.9-0.6
												c7.1-2.6,11.2-10.7,11.3-18c0-2.9-1.4-6-2.9-8.5c-1.5-2.6-3.6-5.3-6.2-6.8c-2.5-1.4-5.4-1.1-7.3,1.1
												c-1.1,1.4-1.7,3.1-2,4.8c-0.2,1.9,0.9,3.6,0.9,5.3c0.2,1.4-2.2,2.6-3.4,2c-1.4-0.6-1.9-2.5-2-3.9
												c-0.3-3.4,2.5-5.9,1.9-9.3c-0.6-3.7-5.7-5-8.7-4.5c-3.6,0.6-6.5,4.2-8.2,7.3c-4.3,7.9-2.6,17.2,1.9,24.6
												c0.2,0.2,0.2,0.3,0.3,0.5C500.3,450,501,450.3,501.6,450.3z"/>
											<path class="st7" d="M516.3,473.1c0.9,0,1.7,0,2.6,0c2.8-0.3,2.8-4.6,0-4.3c-0.5,0-0.9,0-1.4,0c-6,0-12.4-3.4-17-6.5
												c-0.2-0.2-0.3-0.2-0.5-0.2c-2.2-0.9-3.9,2.5-1.7,3.9c0.2,0,0.2,0.2,0.3,0.2c2.9,2,6.2,3.6,9.6,5
												C510.7,472.2,513.5,472.9,516.3,473.1z"/>
											<path class="st7" d="M506.7,499c2.3,1.7,4.3-2.2,2.2-3.7c-0.3-0.2-0.6-0.5-0.9-0.6c-5.4-3.9-11.5-7.1-16.7-11.3
												c0,0-0.2,0-0.2-0.2c-2.2-1.4-5,1.4-2.9,3.1c0.3,0.2,0.5,0.3,0.8,0.6c5.4,4.2,11.5,7.4,17,11.5
												C506.1,498.6,506.4,498.8,506.7,499z"/>
											<path class="st7" d="M492.6,520.8c2.5,1.2,4.6-2.5,2.2-3.7c-0.2,0-0.2-0.2-0.3-0.2c-6.5-3.3-11.6-9.4-14.9-15.6
												c-0.2-0.2-0.3-0.3-0.5-0.5c-1.5-1.5-4.5,0.5-3.3,2.6c0.2,0.2,0.2,0.5,0.3,0.6c3.6,6.5,9.1,13,15.8,16.4
												C492.1,520.5,492.3,520.6,492.6,520.8z"/>
											<path class="st7" d="M474.8,538.1c0.3,0.5,0.5,0.9,0.8,1.4c1.2,2.5,5,0.3,3.7-2.2c-0.3-0.8-0.8-1.4-1.1-2.2
												c-4-7.6-8.5-14.7-11.6-22.8c-0.2-0.2-0.2-0.5-0.3-0.6c-0.9-2.6-5.1-1.5-4.2,1.2c0.3,0.8,0.5,1.4,0.8,2.2
												C466.3,523.1,470.8,530.6,474.8,538.1z"/>
										</g>
									</g>
									<g>
										<path class="st5" d="M447.8,697.2c-2.4,0.2-4.7,0.5-7.1,1c-2.4,5.5-4.8,11.2-5.8,17.2c11.1,1.3,23.6,2.1,33.1-3.9
											c-3.2-6.1-7.7-11.2-11.9-16.7c-0.5,0.5-1.1,0.8-1.8,1.1C452.5,696.9,450.1,697.1,447.8,697.2z"/>
										<g>
											<path class="st6" d="M414.4,610.6c0.9,2.6,2,5.3,2.9,7.9c1.4,3.9,2.8,7.7,4,11.6c3.6-0.8,6.8-2,10.2-3.3
												c2-0.8,4.2-1.7,6.2-2.5c1.1-0.5,2.3-0.9,3.4-1.4c-1.7-5.6-3.7-11.2-5.6-16.7c-0.5-1.2-0.8-2.5-1.2-3.7
												c-3.1,1.2-6.5,2.2-9.6,3.3C421.2,607.2,417.6,608.6,414.4,610.6z"/>
											<path class="st6" d="M409,597.2c1.7,2.9,2.8,6,3.9,9.1c3.1-1.7,6.4-3.1,9.6-4.3c3.4-1.2,7-2.5,10.5-3.3
												c-0.8-2.3-1.7-4.6-2.6-7c-1.1-2.5-2.2-5.4-3.9-7.9c-3.6,3.9-7.4,7.3-11.9,10.1C412.7,595.1,410.8,596.2,409,597.2z"/>
											<path class="st6" d="M433.3,631.1c-3.4,1.4-7,2.6-10.5,3.4c1.1,3.3,2.2,6.7,3.3,9.9c1.1,3.1,2,6.2,2.9,9.4
												c6-2.2,12.4-3.3,18.4-5.6c-1.1-6-2.5-12.1-4-18.1c-0.3-0.9-0.6-2-0.9-2.9c-0.9,0.5-2,0.8-2.9,1.2
												C437.5,629.4,435.3,630.1,433.3,631.1z"/>
											<path class="st6" d="M433.6,669.6c0.5,2,1.1,4,1.5,6c0.2,0,0.3,0.2,0.6,0.2c0.6,0.2,1.2,0.2,1.9,0.2
												c1.9,0,3.9-0.5,5.7-0.8c2-0.5,4.2-0.9,6.2-1.5c0.6-0.2,1.2-0.3,2-0.5c-0.5-3.6-0.9-7-1.5-10.5c-0.5-3.4-1.1-6.8-1.7-10.2
												c-5.7,2.3-11.9,3.9-17.8,5.7C431.4,661.9,432.5,665.8,433.6,669.6z"/>
											<path class="st6" d="M443.5,679.6c-2,0.5-4.2,0.8-6.4,0.8c-0.3,0-0.5,0-0.8-0.2c1.2,4.5,2.6,8.8,4.3,13.2
												c2.6-0.5,5.3-0.8,7.9-0.9c1.1-0.2,2-0.2,3.1-0.6c0.5-0.2,1.1-0.6,1.2-1.1c0.5-1.2,0.5-2.8,0.3-4.2
												c-0.2-2.6-0.8-5.3-1.1-7.9c0-0.5-0.2-0.9-0.2-1.5c-0.6,0.2-1.2,0.3-1.9,0.5C448,678.6,445.7,679.1,443.5,679.6z"/>
										</g>
										<g>
											<path class="st7" d="M441.3,697.5c-0.2,0.3-0.3,0.6-0.5,1.1c2.2-0.5,4.5-0.8,6.8-0.9c2.2-0.2,4.5-0.3,6.5-1.2
												c0.6-0.3,1.2-0.6,1.7-1.1c-0.5-0.6-0.9-1.1-1.2-1.7c-1.5-2.2,1.7-4.8,3.6-3.1c0.3-2.8-0.2-5.9-0.5-8.2
												c-3.3-21.7-5.6-43.8-13.2-64.4c-2.5-7-4.5-14.1-7.1-21.1c-2-5.4-4-11.8-8.1-16.4c-0.5-0.6-1.1-1.2-1.7-1.7
												c-2.2-1.9-5.1,1.1-3.1,3.1c0.6,0.6,1.2,1.4,1.7,2.2c1.5,2.5,2.8,5.3,3.9,7.9c0.9,2.3,1.9,4.6,2.6,7
												c0.8-0.2,1.5-0.3,2.3-0.5c2-0.3,3.4,2.3,1.4,3.4c-0.8,0.5-1.5,0.8-2.3,1.1c0.5,1.2,0.8,2.5,1.2,3.7
												c1.9,5.6,3.9,11.2,5.6,16.7c0.8-0.3,1.7-0.5,2.5-0.6c2-0.3,3.4,2.2,1.4,3.4c-0.8,0.5-1.7,0.9-2.6,1.4
												c0.3,0.9,0.6,2,0.9,2.9c1.7,6,2.9,12.1,4,18.1c0.3-0.2,0.6-0.3,1.1-0.3c2.2-0.9,3.7,2.8,1.5,3.7
												c-0.6,0.3-1.2,0.5-1.9,0.8c0.6,3.4,1.2,6.8,1.7,10.2c0.5,3.6,1.1,7,1.5,10.5c1.1-0.3,2-0.5,3.1-0.6
												c1.9,0,2.9,2.9,1.1,3.7c-1.1,0.5-2.3,0.8-3.4,1.1c0,0.5,0.2,0.9,0.2,1.5c0.3,2.6,0.9,5.3,1.1,7.9
												c0.2,1.4,0.2,2.8-0.3,4.2c-0.2,0.3-0.8,0.9-1.2,1.1c-1.1,0.3-2,0.5-3.1,0.6c-2.6,0.3-5.3,0.5-7.9,0.9
												c-1.7-4.3-3.1-8.7-4.3-13.2c-0.6,0-1.1,0-1.7-0.2c-0.5-0.2-0.9-0.3-1.2-0.5s-0.6-0.5-0.8-0.8c-0.2-0.3-0.3-0.5-0.3-0.6
												c-0.5-1.1,0.3-2.6,1.5-2.8c0.2,0,0.5-0.2,0.6-0.2c0.2,0,0.3,0,0.5,0c-0.5-2-1.1-4-1.5-6c-0.9-3.9-2-7.6-3.3-11.5
												c-0.6,0.2-1.2,0.3-1.7,0.5c-2.8,0.9-3.7-3.3-1.2-4.2c0.5-0.2,1.1-0.5,1.5-0.6c-0.9-3.1-2-6.2-2.9-9.4
												c-1.1-3.3-2.2-6.7-3.3-9.9c-0.5,0.2-0.9,0.3-1.5,0.3c-2.8,0.5-4-3.9-1.2-4.3c0.5,0,0.9-0.2,1.2-0.3
												c-1.2-3.9-2.6-7.7-4-11.6c-0.9-2.6-2-5.3-2.9-7.9c-0.5,0.3-0.9,0.5-1.4,0.8c-2.5,1.7-4.8-2.3-2.3-4
												c0.6-0.5,1.4-0.9,2-1.2c-1.1-3.1-2.2-6.4-3.9-9.1c-0.2-0.3-0.3-0.5-0.5-0.8c-1.7-2.6-5.7-0.2-4.2,2.5
												c0,0.2,0.2,0.2,0.2,0.3c1.9,3.3,2.9,6.8,4.2,10.4c1.4,4.2,3.1,8.2,4.6,12.4c3.1,8.5,5.9,17.2,8.7,25.9
												c2.6,8.4,5.1,16.6,7.4,25.1c2,8.1,4.3,16,7.4,23.5c0.2-0.5,0.3-0.8,0.6-1.2C438.7,692.4,442.6,694.9,441.3,697.5z"/>
											<path class="st7" d="M443.2,675.2c-1.9,0.5-3.7,0.8-5.7,0.8c-0.6,0-1.2,0-1.9-0.2c-0.2,0-0.5-0.2-0.6-0.2
												c-0.2,0-0.3,0-0.5,0s-0.5,0-0.6,0.2c-1.2,0.2-2,1.5-1.5,2.8c0,0,0.2,0.2,0.3,0.6c0.2,0.3,0.5,0.6,0.8,0.8
												s0.9,0.3,1.2,0.5c0.5,0.2,1.1,0.2,1.7,0.2c0.3,0,0.5,0.2,0.8,0.2c2.2,0,4.2-0.3,6.4-0.8c2.2-0.5,4.5-1.1,6.7-1.7
												c0.6-0.2,1.2-0.3,1.9-0.5c1.2-0.3,2.3-0.6,3.4-1.1c1.9-0.8,0.9-3.9-1.1-3.7c-1.1,0-2,0.3-3.1,0.6c-0.6,0.2-1.4,0.3-2,0.5
												C447.4,674.1,445.2,674.8,443.2,675.2z"/>
											<path class="st7" d="M427.4,654.5c-2.5,1.1-1.5,5.1,1.2,4.2c0.6-0.2,1.1-0.3,1.7-0.5c6-1.9,12.1-3.4,17.8-5.7
												c0.6-0.3,1.2-0.5,1.9-0.8c2.2-0.9,0.6-4.6-1.5-3.7c-0.3,0.2-0.6,0.3-1.1,0.3c-6,2.2-12.4,3.3-18.4,5.6
												C428.5,654,427.9,654.2,427.4,654.5z"/>
											<path class="st7" d="M431.6,626.9c-3.3,1.4-6.7,2.5-10.2,3.3c-0.5,0.2-0.9,0.2-1.2,0.3c-2.8,0.5-1.5,4.8,1.2,4.3
												c0.5-0.2,1.1-0.2,1.5-0.3c3.6-0.8,7.1-2,10.5-3.4c2-0.8,4.2-1.7,6.2-2.6c0.9-0.5,2-0.8,2.9-1.2c0.9-0.5,1.9-0.8,2.6-1.4
												c2-1.2,0.6-3.7-1.4-3.4c-0.8,0.2-1.7,0.3-2.5,0.6c-1.2,0.5-2.3,0.9-3.4,1.4C435.6,625.3,433.6,626.1,431.6,626.9z"/>
											<path class="st7" d="M412.8,606.3c-0.8,0.5-1.4,0.8-2,1.2c-2.5,1.7-0.2,5.6,2.3,4c0.5-0.3,0.9-0.6,1.4-0.8
												c3.3-2,6.8-3.4,10.4-4.6c3.1-1.1,6.5-2,9.6-3.3c0.8-0.3,1.5-0.6,2.3-1.1c2-1.1,0.5-3.7-1.4-3.4c-0.8,0.2-1.5,0.3-2.3,0.5
												c-3.6,0.8-7.3,2-10.5,3.3C419,603.2,415.8,604.4,412.8,606.3z"/>
											<path class="st7" d="M472.6,711c-3.6-7.6-9.1-13.9-14.2-20.3c0-0.2-0.2-0.2-0.3-0.2c-1.9-1.7-5.1,1.1-3.6,3.1
												c0.5,0.6,0.8,1.1,1.2,1.7c4,5.3,8.4,10.4,11.5,16.1c-9.3,5.9-21.4,5-31.9,3.7c0.9-5.7,3.3-11.3,5.6-16.6
												c0.2-0.3,0.3-0.6,0.5-1.1c1.2-2.8-2.6-5.1-4-2.3c-0.2,0.5-0.3,0.8-0.6,1.2c-3.4,6.5-5.9,13.8-6.7,21.1
												c-0.2,1.5,1.2,2.3,2.5,2.5c12.9,1.5,28.3,2.9,39.3-5.6C472.9,713.5,473.4,712.2,472.6,711z"/>
										</g>
									</g>
								</g>
							</g>
						</g>
						<g>
							<g>
								<rect x="369.8" y="354.8" class="st2" width="11.2" height="24.6"/>
								<g>
									<g>
										<circle class="st2" cx="375.5" cy="358.5" r="7.3"/>
										<path class="st2" d="M375.5,346.7c5.4,0,9.9,3.6,11.5,8.5l4.8-4.8c-2.9-5.9-9.1-10.1-16.3-10.1c-7.1,0-13.3,4.2-16.3,10.1
											l4.8,4.8C365.4,350.4,370.1,346.7,375.5,346.7z"/>
										<path class="st2" d="M375.5,336.3c8.2,0,15.3,4.5,19.2,11.2l4.5-4.5c-5.1-7.7-13.9-12.9-23.9-12.9
											c-9.9,0-18.7,5.1-23.9,12.9l4.5,4.5C360,340.8,367.3,336.3,375.5,336.3z"/>
										<path class="st2" d="M375.5,325.8c11.2,0,20.9,5.6,26.9,14.1l4.5-4.5c-7.1-9.6-18.6-15.8-31.4-15.8
											c-12.9,0-24.3,6.2-31.4,16l4.5,4.5C354.4,331.4,364.3,325.8,375.5,325.8z"/>
									</g>
								</g>
								<rect x="360.9" y="474.8" class="st2" width="29.1" height="40.6"/>
							</g>
							<g>
								<g>
									<path class="st8" d="M426.8,639.3H324.1c-20.1,0-36.7-16.6-36.7-36.7v-63.7c0-20.1,16.6-36.7,36.7-36.7h102.7
										c20.1,0,36.7,16.6,36.7,36.7v63.7C463.5,622.7,446.9,639.3,426.8,639.3z"/>
								</g>
								<g>
									<path class="st9" d="M416.2,566.6c3.9-6.8,8.2-15,8.4-23.1c0-2.9-0.5-6-3.1-7.7c-2.6-1.9-5.9-1.2-8.1,0.9
										c-5.9,5.6-7.7,13.9-12.4,20.3c-1.4,2-4.2,0.3-4.2-1.7c0,0,0,0,0-0.2c-1.9-6.8-4.8-16.3-12.2-19.1c-3.1-1.2-6.5,0.3-8.5,2.9
										c-1.9,2.5-1.9,5.7-1.4,8.7c1.1,8.1,5.3,15.8,9.3,22.8c4.5,7.4,9.6,14.4,15.6,20.6c3.1-4.3,8.8-12.1,11.3-15.8
										C412.8,572.4,414.5,569.4,416.2,566.6z"/>
									<g>
										<line class="st10" x1="405.2" y1="510.7" x2="349.6" y2="566.5"/>
										<line class="st10" x1="415" y1="519.6" x2="359.4" y2="575.3"/>
										<line class="st10" x1="424.8" y1="528.4" x2="369.1" y2="584.1"/>
										<line class="st10" x1="434.5" y1="537.4" x2="378.9" y2="593"/>
										<line class="st10" x1="444.3" y1="546.2" x2="388.7" y2="601.8"/>
									</g>
								</g>
							</g>
							<path class="st8" d="M418.1,489.5h-85.2c-18.4,0-33.6-15.2-33.6-33.6v-49.3c0-18.4,15.2-33.6,33.6-33.6h85.2
								c18.4,0,33.6,15.2,33.6,33.6v49.3C451.7,474.3,436.5,489.5,418.1,489.5z"/>
							<g>
								<circle class="st5" cx="323" cy="431.3" r="8.7"/>
								<circle class="st5" cx="427.9" cy="431.3" r="8.7"/>
							</g>
						</g>
					</g>
				</g>
			</g>
			<g>
				<g>
					<path class="st11" d="M279.2,1063.7v8.9h11.2v2.5h-13.9v-13.8h11.2v-6.3h-11.1v-2.5h13.8v8.2c0,1.6-1.3,3-3,3H279.2z"/>
					<path class="st11" d="M311.9,1075h-11.1v-22.5h14v19.6C314.9,1073.7,313.5,1075,311.9,1075z M303.5,1054.9v17.7h8.8v-17.7
						H303.5z"/>
					<path class="st11" d="M323.5,1054.9v-2.5h7.7v22.5h-2.7v-20H323.5z"/>
					<path class="st11" d="M341.6,1075v-22.5h13.8v19.6c0,1.6-1.3,2.9-2.9,3h-10.9V1075z M344.2,1054.9v6.3h8.6v-6.3H344.2z
						 M344.2,1063.7v8.9h8.6v-8.9H344.2z"/>
					<path class="st11" d="M365.9,1075.6v-3h4v3H365.9z"/>
					<path class="st11" d="M378.4,1054.9v-2.5h7.7v22.5h-2.7v-20H378.4z"/>
					<path class="st11" d="M399.1,1063.7v8.9h11.2v2.5h-13.9v-13.8h11.2v-6.3h-11.1v-2.5h13.8v8.2c0,1.6-1.3,3-3,3H399.1z"/>
					<path class="st11" d="M420.8,1075.6v-3h4v3H420.8z"/>
					<path class="st11" d="M446.3,1075h-11.1v-22.5h14v19.6C449.2,1073.7,447.9,1075,446.3,1075z M437.8,1054.9v17.7h8.8v-17.7
						H437.8z"/>
					<path class="st11" d="M462.4,1063.7v8.9h11.2v2.5h-13.9v-13.8h11.2v-6.3h-11.1v-2.5h13.8v8.2c0,1.6-1.3,3-3,3H462.4z"/>
					<path class="st11" d="M211.1,1105.9v2.6H206v19.9h-2.8v-19.9h-5.1v-2.6H211.1z"/>
					<path class="st11" d="M232,1105.9h2.7v22.5H232v-11.6h-9.3v11.6H220v-22.5h2.7v8.3h9.3V1105.9z"/>
					<path class="st11" d="M256.5,1128.5h-11.3V1106h11.3v2.5h-8.7v5.9h7.7v2.6h-7.7v9.1h8.7V1128.5z"/>
					<path class="st11" d="M294.4,1116.8h-4.8l4.8,11.6h-2.9l-4.8-11.6h-3.4v11.6h-2.7v-22.5h13.8L294.4,1116.8L294.4,1116.8z
						 M283.3,1108.5v5.9h8.5v-5.9H283.3z"/>
					<path class="st11" d="M319.3,1128.4H305v-22.5h14.3V1128.4z M307.5,1125.9h9v-17.4h-9V1125.9z"/>
					<path class="st11" d="M341.8,1114.4h2.5v14.1h-14.4V1106h12V1114.4z M339,1108.5h-6.5v5.9h6.5V1108.5z M332.5,1125.9h9v-9h-9
						V1125.9z"/>
					<path class="st11" d="M369.1,1128.4h-14.3v-22.5h14.3V1128.4z M357.3,1125.9h9v-17.4h-9V1125.9z"/>
					<path class="st11" d="M390.9,1105.9v2.6h-5.1v19.9H383v-19.9h-5.1v-2.6H390.9z"/>
					<path class="st11" d="M428.1,1128.4h-13.8v-22.5h13.8v2.6h-11v17.4h11V1128.4z"/>
					<path class="st11" d="M452.3,1128.4H438v-22.5h14.3V1128.4z M440.6,1125.9h9v-17.4h-9V1125.9z"/>
					<path class="st11" d="M472.8,1119.5h-3.2l-4.3-8.2v17.1h-2.7v-22.5h2.8l5.8,10.8l5.6-10.8h3.3v22.5h-2.8v-17.7L472.8,1119.5z"
						/>
					<path class="st11" d="M502.6,1114.4h2.5v14.1h-14.4V1106h12V1114.4z M499.8,1108.5h-6.5v5.9h6.5V1108.5z M493.3,1125.9h9v-9h-9
						V1125.9z"/>
					<path class="st11" d="M515.5,1105.9h14.6v22.5h-2.8v-11.6h-9v11.6h-2.8V1105.9z M518.2,1114.4h9v-5.9h-9V1114.4z"/>
					<path class="st11" d="M551.9,1105.9v2.6h-5.1v19.9H544v-19.9h-5.1v-2.6H551.9z"/>
				</g>
				<g>
					<g>
						<line class="st12" x1="83.3" y1="1004.4" x2="667.3" y2="1004.4"/>
						<path class="st6" d="M82.2,996.6c5.6-1.1,10.4,3.7,9.3,9.3c-0.6,3.1-3.1,5.6-6.2,6.2c-5.6,1.1-10.4-3.7-9.3-9.3
							C76.5,999.7,79,997.2,82.2,996.6z"/>
						<path class="st6" d="M660.5,998.6c8.5-6.4,18,3.1,11.6,11.6C663.6,1016.6,654.1,1007.1,660.5,998.6z"/>
					</g>
				</g>
				<g>
					<g>
						<path class="st13" d="M155.5,799l5.7,17.5h-7v36.6h-6.5l-0.1-32.7l-3.6,11.9h-7l8.9-33.3h-8v-7h9.7v-14.9h6.5V792h6.9v7H155.5
							z M190.4,775.6l1.4,42.2H213v6.6h-18.6l4.7,8.2l2.8-5.1h7.7l-6.5,12l8,13.8h-7.8l-4-6.9l-2.7,5h-7.5l6.3-11.7l-8.5-15.1h-13.8
							l-0.1,2.2l9.6,14h-8.4l-2-2.9l-3.6,13.8h-7l4.2-16.7l0.5-10.2h-2.7v-6.9h21.7l-1.4-42.2H190.4z M163.4,811l5.7-12l-6.4-6
							l7-14.9h6.3l-6.3,13.4l1.9,1.9l2-4.6h6.3l-7.4,15.8l4.1-0.1l-0.1-4h5.4l0.6,11.4h-5.4l-0.1-1.8L163.4,811z M198.7,799.2
							l-6.8-6.5l7.4-14.5h6.6l-6.8,13.3l2.4,2.4l2.3-4.8h6.3l-7.7,15.4l4.7-0.1l-0.5-3.6h5.5l1.4,11.4h-5.5l-0.3-2.3l-14.8,0.8
							L198.7,799.2z M197.6,812.4h6.9l2.8,4.2h-6.8L197.6,812.4z"/>
						<path class="st13" d="M313.4,830.4h-7.1v19h-26.9v-21.2h17l-22.1-12.5l-20.2,12.5h17.9v21.2h-26.8v-19h-7l23.5-14.5h-21.7
							v-6.6h30.6l1.1-7.3h6.8l-1.3,7.3h34.2v6.6h-24L313.4,830.4z M272.2,778.8v22.1h-27.3v-22.1H272.2z M306.4,778.8v22.1h-27.3
							v-22.1H306.4z"/>
						<path class="st13" d="M406,845.5l-6.4,5l-23.7-30.7l-22.1,30.7h-9.9l27.8-38.8v-33h8v32.9L406,845.5"/>
						<path class="st13" d="M510.3,796.6v7.7h-28.2l27.7,46.7h-8.7l-25-42.2l-22.3,42.2h-8.4l24.4-46.7h-28.4v-7.7h30.7v-18.2h7.5
							v18.2H510.3z"/>
						<path class="st13" d="M597.2,810.8l15.6,11.1h-10.3l-5.4-4v25.8H555v-25.3l-4,3.2h-9.7l13.9-10.7h-16.3v-5.1h22.3v-2.6h-7.5
							v-5.4h7.5v-2.7h-11.5V790h11.5v-3.3h5.5v3.3H585v-3.3h5.5v3.3h11.5v5.2h-11.5v2.7h7.5v5.4h-7.4v2.6H613v5.1h-15.8V810.8z
							 M546.9,785.4v4.8h-5.1v-9.9h31.5v-3.6h5.4v3.6h31.5v9.9h-5.1v-4.8H546.9z M552.3,852.9l4.5-5.2h9.2l-4.5,5.2H552.3z
							 M558.9,815.4h34.4l-6.5-4.6h-21.8L558.9,815.4z M592.1,822.9v-2.7h-32.3v2.7H592.1z M559.8,828.2v2.7h32.3v-2.7H559.8z
							 M559.8,839h32.3v-2.7h-32.3V839z M566.8,795.2v2.7h18.2v-2.7H566.8z M585.1,803.2h-18.2v2.6h18.2V803.2z M587.6,847.6h8.8
							l4,5.2h-8.8L587.6,847.6z"/>
						<path class="st13" d="M186.1,904.9l17.1-19.5l17.1,18.1h-9.6l-7.3-7.7l-8.2,9.1H186.1L186.1,904.9z M197.1,944.2h-6.3
							l-1.5-11.5h6.3L197.1,944.2z M206.5,927.6V948l10.8-2.3v7.5l-27.7,5.9v-7.4l10.3-2.2v-21.9h-10.7v-6.4H200v-7.1h-7.5v-6.6
							h21.7v6.6h-7.7v7.1h9.9v6.4L206.5,927.6L206.5,927.6z M209.8,941.5l1.5-8.8h6.1l-1.4,8.8H209.8z M221.9,886.3H263v74.1h-6.5
							v-67.6h-28.1v67.6h-6.5V886.3z M252.7,899.3l-2.8,12.2h5.2v6h-9.6v23.7h2.4v-16.5h5.9v22.4H231v-22.4h5.9v16.5h2.4v-23.7h-9.6
							v-6h13.9l2.8-12.2L252.7,899.3L252.7,899.3z M238.5,899.3l2,8h-5.9l-2-8H238.5z"/>
						<path class="st13" d="M285.1,905.8l14.3-19.9l14.4,18.4h-8.2l-6-7.4l-6.4,8.9H285.1z M294.9,944.8h-6l-1.3-11.9h6L294.9,944.8
							z M302.5,927.7v20.7l8.5-2.2v7l-23,5.7v-6.9l8.3-2.2v-22.2H288v-6h8.4v-7.4h-5.9v-6.3h17.9v6.3h-5.9v7.4h7.9v6L302.5,927.7
							L302.5,927.7z M304.6,942.1l1.1-9.2h5.9l-1.3,9.2H304.6z M364.2,910.3H349l3.3,13.1l1.9-5.4h6.9l-6,16.8l6,25h-6.6l-3.4-13.8
							l-4.7,13.4h-7l8.8-24.9l-5.9-24.4h-27.6v-6.1h9.7v-4.3h-7v-6.4h7v-6.5h6.5v6.5h7.1v6.4h-7.1v4.3h10.6v-16.3h6.6v16.3h16.1
							V910.3z M315.7,951.7l8.8-1.7V945h-6.9v-5.5h6.9v-3.6h-8.4v-5.5h25v5.5H331v3.6h8.8v5.5H331v4l9.2-1.7v6.3l-24.6,4.2v-6H315.7
							z M317.1,912.9h21.4V928h-21.4V912.9z M332.7,922.2v-3.6h-9.9v3.6H332.7z M360.5,898.5h-6.6l-2.7-9.7h6.6L360.5,898.5z"/>
						<path class="st13" d="M400.4,905.7V920l6.5-3.6v8l-6.5,3.6v33.2h-6.8v-29.5l-6.1,3.4V927l6.1-3.3v-18h-5.5v-7h5.5v-14.2h6.8
							v14.2h5.9v7L400.4,905.7L400.4,905.7z M441.1,897.6h23.1v18.2h-6.4v-12h-16.7v17.9h-6.4v-17.9h-16.6v12h-6.4v-18.2h23v-5.9
							h-16.8v-6.4H458v6.4h-17V897.6z M416.8,959.5v-32.3h42.1v32.3H416.8z M431.6,907.6v5.9h-10.7v-5.9H431.6z M420.9,921.9v-5.7
							h10.7v5.7H420.9z M422.8,933.3v7h11.9v-7H422.8z M422.8,946.4v6.9h11.9v-6.9H422.8z M440.9,933.3v7h11.9v-7H440.9z
							 M440.9,946.4v6.9h11.9v-6.9H440.9z M454.7,907.6v5.9H444v-5.9H454.7z M444,921.9v-5.7h10.7v5.7H444z"/>
						<path class="st13" d="M550.3,925.1l-2-6.5l-52.7,2.3l16.1-34.1h8.4l-12.2,26l38.3-1.7l-3.3-11.6h7.9l7.4,25.5L550.3,925.1
							L550.3,925.1z M500.4,959.6v-30.7h51v30.7H500.4z M508,936.5V952h35.8v-15.4H508z"/>
					</g>
					<circle class="st0" cx="258.3" cy="789.3" r="6.6"/>
					<circle class="st0" cx="292.7" cy="789.3" r="6.6"/>
					<circle class="st0" cx="259.7" cy="838.3" r="6.6"/>
					<circle class="st0" cx="292.7" cy="838.3" r="6.6"/>
					<g>
						<path class="st14" d="M404.3,844.4c-0.3,0.4-0.1,1.1,0.5,1.1h0.1c1.7,0.1,3.3,0.5,4.7,1.5c1.1,0.9,2.3,2.6,1.9,4.1
							c-0.1,0.4-0.6,1.1-1.1,1c-0.4-0.1-0.6-0.9-0.9-1.1c-0.6-1-2-1.5-3.2-1.4c-1.4,0.3-2.2,1.7-1.8,3.1c0.1,0.6,0.6,1,1.3,1.4
							c0.5,0.3,1.1,0.3,1.5,0.8c0.1,0.1,0.1,0.4,0.3,0.5c0,0.1,0,0.1-0.1,0.1c-0.1,0.1-0.6,0.4-0.9,0.4c-1,0.3-2,0.1-3.1,0
							c-2.2-0.5-3.8-3.3-3.3-5.5c0-0.1,0.1-0.3,0.1-0.4c0.3-0.6-0.4-1-1-0.9c-0.1,0.1-0.4,0.3-0.4,0.4c-0.1,0.3-0.1,0.4-0.1,0.6
							c-0.5,2.6,0.9,5.2,2.9,6.6c0.9,0.6,1.9,0.8,2.9,0.8c1,0,2.2,0,3.1-0.5c0.9-0.4,1.4-1.3,1-2.3c-0.1-0.6-0.5-1-1-1.5
							c-0.5-0.4-1.1-0.4-1.7-0.8c-0.4-0.3-0.4-1.1,0-1.4c0.4-0.3,1-0.1,1.5,0.1c1,0.5,1.3,1.8,2.3,2.3c1.1,0.5,2.6-0.6,2.9-1.7
							c0.5-1.1,0-2.7-0.5-3.7c-1.4-2.7-4.3-4-7.3-4.1H405C404.7,844.2,404.5,844.3,404.3,844.4z"/>
					</g>
				</g>
			</g>
		</g>
	</g>
</g>
</svg>
