<?xml version="1.0" encoding="utf-8"?>
<!-- Generator: Adobe Illustrator 21.1.0, SVG Export Plug-In . SVG Version: 6.00 Build 0)  -->
<svg version="1.1" id="圖層_1" xmlns="http://www.w3.org/2000/svg" xmlns:xlink="http://www.w3.org/1999/xlink" x="0px" y="0px"
	 viewBox="0 0 750 900" style="enable-background:new 0 0 750 900;" xml:space="preserve">
<style type="text/css">
	.st0{fill:#85E4ED;}
	.st1{clip-path:url(#SVGID_2_);}
	.st2{fill:#518287;}
	.st3{fill:none;stroke:#85E4ED;stroke-width:6.2668;stroke-miterlimit:10;}
	.st4{fill:#FFFFFF;}
	.st5{fill:#66A9B0;}
	.st6{fill:#518287;stroke:#518287;stroke-width:1.5488;stroke-miterlimit:10;}
	.st7{fill:#66A9B0;stroke:#518287;stroke-width:6.0513;stroke-miterlimit:10;}
	.st8{fill:#FFFFFF;stroke:#FFFFFF;stroke-width:12.3906;stroke-miterlimit:10;}
	.st9{fill:none;stroke:#66A9B0;stroke-width:1.2104;stroke-miterlimit:10;}
	.st10{fill:none;stroke:#85E4ED;stroke-width:6.194;stroke-miterlimit:10;}
	.st11{fill:#518287;stroke:#518287;stroke-width:0.9221;stroke-miterlimit:10;}
	.st12{fill:#1D3030;stroke:#1D3030;stroke-width:1.0996;stroke-miterlimit:10;}
	.st13{fill:#1D3030;}
	.st14{fill:none;stroke:#66A9B0;stroke-width:6.7925;stroke-miterlimit:10;}
</style>
<rect y="0.4" class="st0" width="763" height="963.9"/>
<g>
	<g id="圖層_2_1_">
		<g>
			<g>
				<g>
					<g>
						<g>
							<g>
								<g>
									<g>
										<g>
											<g>
												<g>
													<g>
														<g>
															<g>
																<g>
																	<g>
																		<g>
																			<defs>
																				<path id="SVGID_1_" d="M751.5,476.4H47.2c-25.8,0-46.7-21-46.7-47v-646.7h751V476.4z"/>
																			</defs>
																			<clipPath id="SVGID_2_">
																				<use xlink:href="#SVGID_1_"  style="overflow:visible;"/>
																			</clipPath>
																			<g class="st1">
																				<g>
																					<g>
																						<polygon class="st2" points="1670.7,602.9 -784.9,593.3 -784.9,-469.9 1670.7,-460 																						"/>
																						<polygon class="st2" points="1948.6,670.3 -507,660.5 -507,-402.5 1948.6,-392.7 																						"/>
																						<g>
																							<path class="st3" d="M190.5-132.6"/>
																							<line class="st3" x1="-435.8" y1="-230.2" x2="-80.9" y2="-230.2"/>
																							<polyline class="st3" points="514.5,-195.3 800,-195.3 800,-287.5 																							"/>
																							<polyline class="st3" points="513.8,371.8 513.8,641.3 1013.7,641.3 1013.7,775.5 																							
																								"/>
																							<line class="st3" x1="487.8" y1="407.9" x2="726.9" y2="407.9"/>
																							<polyline class="st3" points="-274.8,96.7 -274.8,439.3 -442,439.3 																							"/>
																							<polyline class="st3" points="1931.4,552.4 1652.7,552.4 1652.7,331.5 1410.9,331.5 1410.9,747.9 
																								1361.8,747.9 																							"/>
																							<polyline class="st3" points="91.7,441 91.7,620.1 -43.6,620.1 -43.6,426 -195,426 -195,662.6 -560.2,662.6 
																								-560.2,775.5 																							"/>
																							<polyline class="st3" points="837.5,-140.7 716.5,-140.7 716.5,-52.3 671.8,-52.3 671.8,96.7 532.2,96.7 
																								532.2,180.9 																							"/>
																							<polyline class="st3" points="296.5,329.8 296.5,531.1 147.9,531.1 147.9,630.6 																							"/>
																							<polyline class="st3" points="582.2,370.7 582.2,524.3 915.3,524.3 915.3,406.1 1410.4,406.1 
																																															"/>
																							<polyline class="st3" points="-477.1,96.7 -377.6,96.7 -375.4,-64.7 -153.8,-64.7 																							
																								"/>
																							<polyline class="st3" points="-274.8,305.5 -194.3,305.5 -194.3,96.7 																							"/>
																							<polyline class="st3" points="1195.6,317.2 1310.9,317.2 1310.9,168.4 																							"/>
																							<line class="st3" x1="570.3" y1="-64.7" x2="570.3" y2="-196.3"/>
																							<line class="st3" x1="68.9" y1="-229.1" x2="68.9" y2="-527.1"/>
																							<polyline class="st3" points="311.6,-157.5 427.5,-157.5 427.5,-450.4 																							"/>
																							<polyline class="st3" points="-258,775.5 -258,720.4 23,720.4 																							"/>
																							<line class="st3" x1="409" y1="414.9" x2="409" y2="775.5"/>
																							<polyline class="st3" points="409,638 296.2,638 296.2,775.5 																							"/>
																							<polyline class="st3" points="677.6,641.3 677.6,694.6 817.6,694.6 817.6,775.5 																							"/>
																							<polyline class="st3" points="1232.5,674.2 1232.5,727.5 1362.6,727.5 1362.6,808.4 																							
																								"/>
																							<polyline class="st3" points="-195,563.1 -635.9,562.2 -635.9,674.8 																							"/>
																							<polyline class="st3" points="-24.9,176.2 -115.3,176.2 -115.3,426 																							"/>
																							<polyline class="st3" points="-43.6,486.3 50,486.3 50,372.9 330.9,370.9 																							"/>
																							<line class="st3" x1="23" y1="620.1" x2="23" y2="717.9"/>
																							<polyline class="st3" points="-70,-4.9 -70,41.5 -375.4,41.5 																							"/>
																							<line class="st3" x1="722.9" y1="-225.3" x2="722.9" y2="-441.2"/>
																							<line class="st3" x1="226.6" y1="-190.3" x2="226.6" y2="-132.6"/>
																							<line class="st3" x1="1082.6" y1="-287.5" x2="1082.6" y2="-238.8"/>
																							<line class="st3" x1="1159" y1="-287.5" x2="1159" y2="-168.7"/>
																							<polyline class="st3" points="1148.9,96.7 888.1,96.7 888.1,-49.7 																							"/>
																							<line class="st3" x1="677.8" y1="247.5" x2="677.8" y2="335.3"/>
																							<line class="st3" x1="888.1" y1="23.4" x2="1148.9" y2="23.4"/>
																							<polyline class="st3" points="1013.7,-100 1191,-100 1191,-21.7 																							"/>
																							<polyline class="st3" points="1148.9,136.7 1191,136.7 1191,406.5 																							"/>
																							<polyline class="st3" points="915.3,499.7 671.2,499.7 671.2,524.3 																							"/>
																							<polyline class="st3" points="817.6,323.2 1043.5,323.2 1043.5,406.5 																							"/>
																							<line class="st3" x1="915.3" y1="200.8" x2="915.3" y2="323.2"/>
																							<polyline class="st3" points="915.3,261.5 1118.4,261.5 1118.4,406.1 																							"/>
																							<polyline class="st3" points="518,567.3 627.3,567.3 627.3,763.8 																							"/>
																							<line class="st3" x1="582.2" y1="641.3" x2="582.2" y2="775.5"/>
																							<polyline class="st3" points="715.7,641.3 715.7,565.6 1118.4,565.6 1118.4,434.3 1410.4,434.3 
																																															"/>
																							<polyline class="st3" points="1715.9,620.1 1110.6,620.1 1110.6,775.5 																							"/>
																							<line class="st3" x1="1013.7" y1="697.6" x2="1110.6" y2="697.6"/>
																							<line class="st3" x1="926.1" y1="642.1" x2="926.1" y2="775.5"/>
																							<polyline class="st3" points="994.9,581.3 994.9,524.2 1118.4,524.2 																							"/>
																							<polyline class="st3" points="1715.9,677.3 1169.8,677.3 1169.8,775.5 																							"/>
																							<path class="st3" d="M-664.5,271.2"/>
																							<line class="st3" x1="-274.8" y1="183" x2="-477.1" y2="183"/>
																							<polyline class="st3" points="-102.1,717.9 -102.1,524.3 -194.3,524.3 																							"/>
																							<polyline class="st3" points="-319.9,560.5 -319.9,487.3 -618.3,487.3 -618.3,309.9 																							
																								"/>
																							<polyline class="st3" points="-347.3,439.3 -347.3,230.4 -477.1,230.4 																							"/>
																							<polyline class="st3" points="-435.8,-178.4 -261.5,-178.4 -261.5,-64.7 																							"/>
																							<polyline class="st3" points="-261.5,-110.8 -102.1,-110.8 -102.1,-4.9 																							"/>
																							<line class="st3" x1="-234.4" y1="-230.2" x2="-234.4" y2="-424.4"/>
																							<line class="st3" x1="-188.5" y1="-230.2" x2="-188.5" y2="-110.8"/>
																							<line class="st3" x1="39.1" y1="-254.3" x2="39.1" y2="-369.2"/>
																							<polyline class="st3" points="1521,335.3 1521,168.1 1286.6,168.1 1286.6,64.6 1148.7,64.6 
																																															"/>
																							<line class="st3" x1="1453.6" y1="168.1" x2="1453.6" y2="-35.2"/>
																							<polyline class="st3" points="1361.1,168.1 1361.1,230 1521,230 																							"/>
																							<polyline class="st3" points="1339.1,172.5 1339.1,108.4 1393,108.4 1393,-29.3 																							"/>
																							<polyline class="st3" points="324.8,492.2 326.8,677.3 173.2,677.3 102.8,677.3 102.8,775.5 
																																															"/>
																							<line class="st3" x1="-375.4" y1="614.6" x2="-269.7" y2="614.6"/>
																							<line class="st3" x1="-347.3" y1="701" x2="-347.3" y2="748"/>
																							<line class="st3" x1="-395.7" y1="294" x2="-395.7" y2="369.7"/>
																							<line class="st3" x1="-228.5" y1="363.5" x2="-165.6" y2="363.5"/>
																							<line class="st3" x1="-307.4" y1="-9.7" x2="-234.4" y2="-9.7"/>
																							<line class="st3" x1="-383.3" y1="-123.5" x2="-319.9" y2="-123.5"/>
																							<line class="st3" x1="352.8" y1="682.9" x2="352.8" y2="739.8"/>
																							<line class="st3" x1="1263.4" y1="359.6" x2="1366.1" y2="359.6"/>
																							<line class="st3" x1="880.6" y1="608.5" x2="954.4" y2="608.5"/>
																							<line class="st3" x1="522.8" y1="706.4" x2="522.8" y2="748"/>
																							<line class="st3" x1="810.9" y1="4.2" x2="810.9" y2="78.2"/>
																							<line class="st3" x1="965.8" y1="455.4" x2="1043.5" y2="455.4"/>
																							<line class="st3" x1="1181.9" y1="494.3" x2="1181.9" y2="567.3"/>
																							<line class="st3" x1="686.7" y1="451.5" x2="830.2" y2="451.5"/>
																							<line class="st3" x1="954.4" y1="-168.7" x2="954.4" y2="-95.6"/>
																							<line class="st3" x1="149.2" y1="732.4" x2="227.2" y2="732.4"/>
																							<polyline class="st3" points="1232.8,436.5 1231.6,536.4 1410.4,537.9 																							"/>
																							<polyline class="st3" points="1452.6,334.8 1452.6,392.5 1510.2,392.5 1510.2,675 1296.9,675 1296.9,796.9 
																																															"/>
																							<polyline class="st3" points="-491.9,-439.3 -491.9,-306.8 -436.2,-306.8 -438.2,36.5 -476.4,36.5 
																								-478.1,308.7 -440.8,308.7 -440.8,443.8 																							"/>
																							<line class="st3" x1="1441.4" y1="451.6" x2="1441.4" y2="558.2"/>
																							<line class="st3" x1="1205" y1="20.4" x2="1332.8" y2="20.4"/>
																							<line class="st3" x1="1434.7" y1="230" x2="1434.7" y2="331.5"/>
																							<line class="st3" x1="-560.2" y1="490.5" x2="-560.2" y2="566"/>
																							<line class="st3" x1="-570.8" y1="355.5" x2="-570.8" y2="443.8"/>
																							<line class="st3" x1="-447.4" y1="139.3" x2="-319.4" y2="139.3"/>
																							<polyline class="st3" points="1453.6,17.2 1536.5,17.2 1536.5,-109.1 1637.4,-109.1 																							
																								"/>
																							<line class="st3" x1="-498.1" y1="527.4" x2="-395.2" y2="527.4"/>
																							<line class="st3" x1="-552.4" y1="96.7" x2="-552.4" y2="183"/>
																						</g>
																						<g>
																							<circle class="st0" cx="-43.6" cy="425.9" r="11.7"/>
																							<circle class="st0" cx="50" cy="487.9" r="11.7"/>
																							<circle class="st0" cx="-43.6" cy="620.1" r="11.7"/>
																							<circle class="st0" cx="-195" cy="426" r="11.7"/>
																							<circle class="st0" cx="-103.4" cy="524.3" r="11.7"/>
																							<circle class="st0" cx="-195" cy="662.6" r="11.7"/>
																							<circle class="st0" cx="-258" cy="720.4" r="11.7"/>
																							<circle class="st0" cx="-319.9" cy="488.8" r="11.7"/>
																							<circle class="st0" cx="-616.5" cy="488.8" r="11.7"/>
																							<circle class="st0" cx="-375.4" cy="614.6" r="11.7"/>
																							<circle class="st0" cx="-269.7" cy="614.6" r="11.7"/>
																							<circle class="st0" cx="-347.3" cy="697.3" r="11.7"/>
																							<circle class="st0" cx="-347.3" cy="751.5" r="11.7"/>
																							<circle class="st0" cx="-274.8" cy="439.3" r="11.7"/>
																							<circle class="st0" cx="-347.3" cy="230.4" r="11.7"/>
																							<circle class="st0" cx="-549" cy="230.4" r="11.7"/>
																							<circle class="st0" cx="-444.6" cy="139.2" r="11.7"/>
																							<circle class="st0" cx="-318.9" cy="139.2" r="11.7"/>
																							<circle class="st0" cx="-439.9" cy="309" r="11.7"/>
																							<circle class="st0" cx="-439.9" cy="439.3" r="11.7"/>
																							<circle class="st0" cx="-502.5" cy="528.6" r="11.7"/>
																							<circle class="st0" cx="-395.7" cy="528.6" r="11.7"/>
																							<circle class="st0" cx="-395.7" cy="294" r="11.7"/>
																							<circle class="st0" cx="-395.7" cy="371.7" r="11.7"/>
																							<circle class="st0" cx="-194.3" cy="305.5" r="11.7"/>
																							<circle class="st0" cx="-274.8" cy="96.7" r="11.7"/>
																							<circle class="st0" cx="-375.4" cy="93.9" r="11.7"/>
																							<circle class="st0" cx="-375.4" cy="-64.7" r="11.7"/>
																							<circle class="st0" cx="-437" cy="34.9" r="11.7"/>
																							<circle class="st0" cx="-261.5" cy="-178.4" r="11.7"/>
																							<circle class="st0" cx="-313.9" cy="-123.5" r="11.7"/>
																							<circle class="st0" cx="-228.8" cy="-9.7" r="11.7"/>
																							<circle class="st0" cx="-313.9" cy="-9.7" r="11.7"/>
																							<circle class="st0" cx="-662.6" cy="309" r="11.7"/>
																							<circle class="st0" cx="-662.6" cy="31.8" r="11.7"/>
																							<circle class="st0" cx="-571.4" cy="351.8" r="11.7"/>
																							<circle class="st0" cx="-571.4" cy="448.8" r="11.7"/>
																							<circle class="st0" cx="-633.6" cy="561.3" r="11.7"/>
																							<circle class="st0" cx="-103.4" cy="-109.9" r="11.7"/>
																							<circle class="st0" cx="-153.8" cy="-4.9" r="11.7"/>
																							<circle class="st0" cx="-80.2" cy="-230.2" r="11.7"/>
																							<circle class="st0" cx="39.1" cy="-255.2" r="11.7"/>
																							<circle class="st0" cx="39.1" cy="-369.7" r="11.7"/>
																							<line class="st3" x1="513.4" y1="-299.9" x2="513.4" y2="-373.9"/>
																							<circle class="st0" cx="513.4" cy="-300.7" r="11.7"/>
																							<circle class="st0" cx="315.8" cy="-361.3" r="11.7"/>
																							<circle class="st0" cx="315.8" cy="-288.8" r="11.7"/>
																							<circle class="st0" cx="513.4" cy="-374.5" r="11.7"/>
																							<circle class="st0" cx="658.2" cy="-360" r="11.7"/>
																							<circle class="st0" cx="658.2" cy="-277.1" r="11.7"/>
																							<circle class="st0" cx="227.5" cy="-190.3" r="11.7"/>
																							<circle class="st0" cx="227.5" cy="-132.6" r="11.7"/>
																							<circle class="st0" cx="271.9" cy="50.4" r="11.7"/>
																							<circle class="st0" cx="272.9" cy="-64.9" r="11.7"/>
																							<circle class="st0" cx="337.6" cy="19.1" r="11.7"/>
																							<circle class="st0" cx="432.5" cy="-53.7" r="11.7"/>
																							<circle class="st0" cx="716.5" cy="-140.1" r="11.7"/>
																							<circle class="st0" cx="716.5" cy="-53.1" r="11.7"/>
																							<circle class="st0" cx="432.5" cy="49.2" r="11.7"/>
																							<circle class="st0" cx="476.8" cy="49.2" r="11.7"/>
																							<circle class="st0" cx="290.9" cy="120.4" r="11.7"/>
																							<circle class="st0" cx="427.5" cy="-157.5" r="11.7"/>
																							<circle class="st0" cx="474.4" cy="-253.6" r="11.7"/>
																							<circle class="st0" cx="602.3" cy="-258.2" r="11.7"/>
																							<circle class="st0" cx="570.3" cy="-64.7" r="11.7"/>
																							<circle class="st0" cx="532.4" cy="96.5" r="11.7"/>
																							<circle class="st0" cx="635.8" cy="29.5" r="11.7"/>
																							<path class="st0" d="M514.1-206.8c8-1.3,14.8,5.5,13.5,13.5c-0.8,4.8-4.7,8.7-9.5,9.5
																								c-8,1.3-14.8-5.5-13.5-13.5C505.4-202.1,509.3-206,514.1-206.8z"/>
																							<circle class="st0" cx="817.6" cy="-214.3" r="11.7"/>
																							<circle class="st0" cx="904.6" cy="-135.3" r="11.7"/>
																							<circle class="st0" cx="1081.3" cy="-238.8" r="11.7"/>
																							<circle class="st0" cx="904.6" cy="-238.8" r="11.7"/>
																							<circle class="st0" cx="1012.2" cy="-168.7" r="11.7"/>
																							<circle class="st0" cx="954.4" cy="-175.9" r="11.7"/>
																							<circle class="st0" cx="954.4" cy="-88.4" r="11.7"/>
																							<circle class="st0" cx="1189.6" cy="-100" r="11.7"/>
																							<circle class="st0" cx="1012.2" cy="28.3" r="11.7"/>
																							<circle class="st0" cx="888.1" cy="96.7" r="11.7"/>
																							<circle class="st0" cx="810.9" cy="-5.1" r="11.7"/>
																							<circle class="st0" cx="810.9" cy="78.2" r="11.7"/>
																							<circle class="st0" cx="671.2" cy="96.4" r="11.7"/>
																							<path class="st0" d="M662.7-61.7c12.5-9.5,26.6,4.6,17.1,17.1C667.3-35.1,653.2-49.2,662.7-61.7z"/>
																							<circle class="st0" cx="1016.9" cy="151.7" r="11.7"/>
																							<circle class="st0" cx="677.8" cy="247.4" r="11.7"/>
																							<circle class="st0" cx="677.8" cy="336.2" r="11.7"/>
																							<circle class="st0" cx="582.2" cy="524.3" r="11.7"/>
																							<circle class="st0" cx="1271.4" cy="359.6" r="11.7"/>
																							<circle class="st0" cx="915.3" cy="524.3" r="11.7"/>
																							<circle class="st0" cx="715.7" cy="567.3" r="11.7"/>
																							<circle class="st0" cx="1367.3" cy="359.6" r="11.7"/>
																							<circle class="st0" cx="1205.4" cy="19.8" r="11.7"/>
																							<circle class="st0" cx="1334.3" cy="1" r="11.7"/>
																							<circle class="st0" cx="626.7" cy="569.1" r="11.7"/>
																							<circle class="st0" cx="296.2" cy="638" r="11.7"/>
																							<circle class="st0" cx="352.8" cy="677.3" r="11.7"/>
																							<circle class="st0" cx="352.8" cy="748" r="11.7"/>
																							<circle class="st0" cx="513.8" cy="641.3" r="11.7"/>
																							<circle class="st0" cx="522.8" cy="700.7" r="11.7"/>
																							<circle class="st0" cx="522.8" cy="755.2" r="11.7"/>
																							<circle class="st0" cx="817.6" cy="694.6" r="11.7"/>
																							<circle class="st0" cx="1013.7" cy="642.1" r="11.7"/>
																							<circle class="st0" cx="1118.4" cy="566.3" r="11.7"/>
																							<circle class="st0" cx="1181.9" cy="490.5" r="11.7"/>
																							<circle class="st0" cx="1181.9" cy="570.7" r="11.7"/>
																							<circle class="st0" cx="1441.8" cy="451.7" r="11.7"/>
																							<circle class="st0" cx="1453.4" cy="393.5" r="11.7"/>
																							<circle class="st0" cx="1441.8" cy="551.4" r="11.7"/>
																							<circle class="st0" cx="1243.9" cy="535.7" r="11.7"/>
																							<circle class="st0" cx="1118.4" cy="433.8" r="11.7"/>
																							<circle class="st0" cx="1049.4" cy="455.4" r="11.7"/>
																							<circle class="st0" cx="959" cy="455.4" r="11.7"/>
																							<circle class="st0" cx="994.9" cy="524.2" r="11.7"/>
																							<circle class="st0" cx="878.1" cy="608.5" r="11.7"/>
																							<circle class="st0" cx="956.1" cy="608.5" r="11.7"/>
																							<circle class="st0" cx="1110.6" cy="624.3" r="11.7"/>
																							<circle class="st0" cx="915.3" cy="406.1" r="11.7"/>
																							<circle class="st0" cx="680.2" cy="451.5" r="11.7"/>
																							<circle class="st0" cx="724.2" cy="361.2" r="11.7"/>
																							<circle class="st0" cx="672.6" cy="504.9" r="11.7"/>
																							<circle class="st0" cx="834" cy="425.5" r="11.7"/>
																							<circle class="st0" cx="1169.8" cy="677.3" r="11.7"/>
																							<circle class="st0" cx="147.9" cy="532.9" r="11.7"/>
																							<circle class="st0" cx="251.1" cy="677.3" r="11.7"/>
																							<circle class="st0" cx="227.2" cy="732.4" r="11.7"/>
																							<circle class="st0" cx="149.2" cy="732.4" r="11.7"/>
																							<circle class="st0" cx="1043.5" cy="321.9" r="11.7"/>
																							<circle class="st0" cx="1119.1" cy="261.6" r="11.7"/>
																							<circle class="st0" cx="1412" cy="333.5" r="11.7"/>
																							<circle class="st0" cx="915.3" cy="321.9" r="11.7"/>
																							<circle class="st0" cx="-228.5" cy="363.5" r="11.7"/>
																							<circle class="st0" cx="-165.6" cy="363.5" r="11.7"/>
																							<circle class="st0" cx="-70" cy="41.6" r="11.7"/>
																							<circle class="st0" cx="1362.8" cy="230.5" r="11.7"/>
																							<circle class="st0" cx="1519.9" cy="166.5" r="11.7"/>
																							<circle class="st0" cx="1510.3" cy="434.1" r="11.7"/>
																							<circle class="st0" cx="1191" cy="136.7" r="11.7"/>
																							<circle class="st0" cx="1288" cy="67" r="11.7"/>
																							<circle class="st0" cx="1338.4" cy="109.7" r="11.7"/>
																							<circle class="st0" cx="1390.8" cy="109.7" r="11.7"/>
																							<circle class="st0" cx="1288" cy="165.9" r="11.7"/>
																							<circle class="st0" cx="1311.3" cy="317.2" r="11.7"/>
																							<circle class="st0" cx="244.2" cy="-230.2" r="11.7"/>
																							<circle class="st0" cx="351.3" cy="-230.2" r="11.7"/>
																							<circle class="st0" cx="196.1" cy="-368.5" r="11.7"/>
																							<circle class="st0" cx="-115.3" cy="176.2" r="11.7"/>
																							<circle class="st0" cx="82.7" cy="620.1" r="11.7"/>
																							<circle class="st0" cx="23" cy="720.4" r="11.7"/>
																							<circle class="st0" cx="91.7" cy="444.3" r="11.7"/>
																							<circle class="st0" cx="51.4" cy="373.2" r="11.7"/>
																							<circle class="st0" cx="-597.5" cy="185.3" r="11.7"/>
																							<circle class="st0" cx="-597.5" cy="270.6" r="11.7"/>
																							<circle class="st0" cx="-583.9" cy="93.9" r="11.7"/>
																							<circle class="st0" cx="-628.6" cy="-1" r="11.7"/>
																							<circle class="st0" cx="-541.3" cy="-1" r="11.7"/>
																						</g>
																					</g>
																					<line class="st3" x1="-713.4" y1="139.7" x2="-800.7" y2="139.7"/>
																					<polyline class="st3" points="-540.7,30.8 -540.7,-2.3 -630.1,-2.3 -630.1,-194.1 																					"/>
																					<polyline class="st3" points="-618.3,364.3 -690.1,364.8 -800.7,364.8 																					"/>
																					<line class="st3" x1="-713.4" y1="562.2" x2="-713.4" y2="364.3"/>
																				</g>
																			</g>
																		</g>
																	</g>
																</g>
															</g>
														</g>
													</g>
												</g>
											</g>
										</g>
									</g>
								</g>
							</g>
						</g>
					</g>
				</g>
				<g>
					<g>
						<circle class="st0" cx="376.5" cy="340.1" r="271.2"/>
						<g>
							<g>
								<g>
									<g>
										<g>
											<path class="st4" d="M318.2,525.2c-1-5.9-3.3-11.6-5.9-17c-2.4-0.5-4.6-0.8-7-1c-2.2-0.2-4.6-0.3-6.7-1.3
												c-0.6-0.3-1.3-0.6-1.7-1.1c-4.1,5.4-8.4,10.7-11.6,16.7C294.8,527.6,307.2,526.4,318.2,525.2z"/>
											<g>
												<path class="st5" d="M319,408.7c3.6,0.8,7.3,2,10.7,3.3c3.3,1.2,6.5,2.5,9.6,4.2c1.1-3.4,2.3-6.8,4.2-9.9
													c0-0.2,0.2-0.2,0.2-0.3c-1.4-0.8-2.6-1.4-4-2.2c-5-3.1-9.6-6.7-13.8-10.7c-1.9,2.6-3.3,5.7-4.3,8.7
													C320.6,404.1,319.8,406.4,319,408.7z"/>
												<path class="st5" d="M319,441.1c-2.1-0.8-4.3-1.8-6.3-2.7c-0.9-0.5-2.1-0.8-3-1.3c-0.3,1-0.6,2.1-0.8,3
													c-1.6,6.2-3,12.4-4.1,18.6c6.2,2.2,12.6,3.3,18.8,5.6c0.9-3.2,1.9-6.5,3-9.7c1.1-3.3,2.2-6.9,3.2-10.2
													C326,443.8,322.5,442.6,319,441.1z"/>
												<path class="st5" d="M304.2,462.6c-0.6,3.4-1.1,6.8-1.5,10.2c-0.5,3.6-0.9,7-1.5,10.5c0.6,0.2,1.4,0.3,2,0.5
													c2,0.5,4.2,1.1,6.2,1.4c1.9,0.3,3.7,0.8,5.7,0.8c0.6,0,1.2,0,1.9-0.2c0.2,0,0.5-0.2,0.6-0.2c0.5-2,1.1-4,1.5-6
													c0.9-3.9,2-7.7,3.1-11.5C316.1,466.3,309.9,465,304.2,462.6z"/>
												<path class="st5" d="M317.6,412.8c-0.5,1.2-0.8,2.5-1.2,3.7c-1.9,5.6-3.7,11.2-5.4,16.7c1.2,0.5,2.3,0.9,3.4,1.4
													c2,0.8,4.2,1.7,6.2,2.5c3.3,1.2,6.7,2.5,10.2,3.3c1.2-3.9,2.6-7.7,4-11.6c0.9-2.6,1.9-5.3,2.9-7.9
													c-3.3-2-6.8-3.4-10.4-4.6C324.1,414.9,320.7,414.2,317.6,412.8z"/>
												<path class="st5" d="M309,489.7c-2.3-0.5-4.5-1.1-6.7-1.5c-0.6-0.2-1.2-0.3-1.9-0.5c0,0.5-0.2,1.1-0.2,1.5
													c-0.3,2.6-0.9,5.3-1.1,7.9c0,1.4-0.2,2.8,0.3,4c0.2,0.3,0.8,0.9,1.2,1.1c1.1,0.3,2,0.5,3.1,0.6c2.6,0.2,5.3,0.5,7.9,0.9
													c1.7-4.3,3.1-8.7,4.3-13.2c-0.3,0-0.5,0.2-0.8,0.2C313.2,490.5,311,490.2,309,489.7z"/>
											</g>
											<path class="st2" d="M304.8,458.4c-0.3-0.2-0.6-0.2-1.1-0.3c-2.2-0.8-3.7,2.9-1.5,3.9c0.6,0.3,1.2,0.5,1.9,0.8
												c5.9,2.3,11.9,3.7,18,5.6c0.6,0.2,1.1,0.3,1.7,0.5c2.8,0.9,3.7-3.3,1.1-4.2c-0.5-0.2-1.1-0.3-1.5-0.6
												C317.3,461.7,310.8,460.6,304.8,458.4z"/>
											<path class="st2" d="M320.6,437.1c-2-0.8-4.2-1.7-6.2-2.5c-1.1-0.5-2.3-0.9-3.4-1.4c-0.8-0.3-1.7-0.5-2.5-0.6
												c-2-0.3-3.4,2.2-1.4,3.4c0.8,0.5,1.7,0.9,2.8,1.4c0.9,0.5,2,0.8,2.9,1.2c2,0.9,4.2,1.7,6.2,2.6c3.4,1.4,7,2.6,10.5,3.4
												c0.5,0.2,0.9,0.2,1.5,0.3c2.8,0.5,4-3.9,1.2-4.3c-0.5,0-0.9-0.2-1.2-0.3C327.2,439.6,323.8,438.3,320.6,437.1z"/>
											<path class="st2" d="M319,408.7c-0.8-0.2-1.5-0.3-2.3-0.5c-2-0.3-3.4,2.3-1.4,3.4c0.8,0.5,1.5,0.8,2.3,1.1
												c3.1,1.2,6.5,2.2,9.6,3.3c3.6,1.2,7.1,2.6,10.4,4.6c0.5,0.3,0.9,0.5,1.4,0.8c2.5,1.7,4.8-2.3,2.3-4
												c-0.6-0.5-1.4-0.9-2.2-1.2c-3.1-1.7-6.4-3.1-9.6-4.2C326.2,410.7,322.6,409.5,319,408.7z"/>
											<g>
												<path class="st6" d="M343.7,406.1c0,0.2-0.2,0.2-0.2,0.3c-1.9,3.1-3.1,6.5-4.2,9.9c0.8,0.5,1.4,0.8,2.2,1.2
													c2.5,1.7,0.2,5.6-2.3,4c-0.5-0.3-0.9-0.6-1.4-0.8c-0.9,2.6-1.9,5.3-2.9,7.9c-1.4,3.9-2.6,7.7-4,11.6
													c0.5,0.2,0.9,0.2,1.2,0.3c2.8,0.5,1.7,4.8-1.2,4.3c-0.5-0.2-1.1-0.2-1.5-0.3c-1.1,3.3-2.2,6.7-3.1,9.9
													c-0.9,3.1-2,6.4-2.9,9.4c0.5,0.2,1.1,0.3,1.5,0.6c2.6,1.1,1.5,5.1-1.1,4.2c-0.6-0.2-1.1-0.3-1.7-0.5
													c-1.1,3.9-2.2,7.6-3.1,11.5c-0.5,2-0.9,4-1.5,6c0.2,0,0.3,0,0.5,0s0.5,0,0.6,0.2c1.2,0.2,2,1.5,1.5,2.8
													c0,0-0.2,0.2-0.2,0.6c-0.2,0.3-0.5,0.6-0.8,0.8c-0.3,0.2-0.9,0.3-1.2,0.5c-0.5,0.2-1.1,0.2-1.7,0.2
													c-1.2,4.5-2.6,8.8-4.3,13.2c-2.6-0.5-5.3-0.6-7.9-0.9c-1.1-0.2-2-0.2-3.1-0.6c-0.5-0.2-1.1-0.6-1.2-1.1
													c-0.5-1.2-0.5-2.8-0.3-4c0.2-2.6,0.6-5.3,1.1-7.9c0-0.5,0.2-0.9,0.2-1.5c-1.2-0.3-2.3-0.6-3.6-1.1
													c-1.9-0.8-0.9-3.9,0.9-3.7c1.1,0,2,0.3,3.1,0.6c0.5-3.6,0.9-7,1.5-10.5c0.5-3.4,1.1-6.8,1.5-10.2
													c-0.6-0.3-1.2-0.5-1.9-0.8c-2.2-0.9-0.6-4.6,1.5-3.9c0.3,0.2,0.6,0.2,1.1,0.3c1.1-6,2.3-12.1,4-18.1
													c0.3-0.9,0.6-2,0.8-2.9c-0.9-0.5-1.9-0.8-2.8-1.4c-2-1.2-0.6-3.7,1.4-3.4c0.8,0.2,1.7,0.3,2.5,0.6
													c1.7-5.6,3.7-11.2,5.4-16.7c0.5-1.2,0.8-2.5,1.2-3.7c-0.8-0.3-1.5-0.6-2.3-1.1c-2-1.1-0.5-3.7,1.4-3.4
													c0.8,0.2,1.5,0.3,2.3,0.5c0.8-2.3,1.7-4.6,2.6-7c1.2-2.8,2.5-6,4.3-8.7c0.3-0.5,0.8-1.1,1.1-1.4c2-2-1.1-5-3.1-3.1
													c-0.5,0.5-0.8,0.8-1.2,1.2c-4.2,4.6-6.4,11.3-8.4,16.9c-2.5,7-4.5,14.1-7,21.1c-7.4,20.8-9.6,42.9-12.7,64.6
													c-0.3,2.5-0.8,5.6-0.5,8.2c1.9-1.7,5.1,0.9,3.6,3.1c-0.5,0.6-0.8,1.1-1.2,1.7c0.5,0.5,1.1,0.8,1.7,1.1
													c2,0.9,4.3,1.1,6.5,1.2c2.3,0.2,4.5,0.5,6.8,0.9c-0.2-0.3-0.3-0.6-0.5-1.1c-1.2-2.8,2.6-5.1,4-2.3
													c0.2,0.5,0.3,0.8,0.6,1.2c3.1-7.6,5.3-15.5,7.3-23.5c2.2-8.5,4.6-16.9,7.3-25.1c2.8-8.7,5.4-17.3,8.5-25.9
													c1.4-4.2,3.1-8.2,4.5-12.4c1.2-3.6,2.3-7.4,4.3-10.7c0.2-0.2,0.2-0.5,0.3-0.6C348.5,405.8,345.2,404.1,343.7,406.1z"/>
												<path class="st6" d="M311.1,507.7c0.2,0.3,0.3,0.6,0.5,1.1c2.5,5.3,4.6,10.8,5.7,16.6c-10.7,1.2-22.6,2.2-32.1-3.6
													c3.1-5.9,7.3-11,11.3-16.3c0.5-0.6,0.8-1.1,1.2-1.7c1.5-2.2-1.9-4.8-3.6-3.1c0,0-0.2,0.2-0.3,0.2
													c-5.1,6.5-10.7,12.9-14.1,20.4c-0.6,1.4-0.3,2.5,0.9,3.4c11,8.4,26.5,6.8,39.3,5.3c1.2-0.2,2.6-1.1,2.5-2.5
													c-0.9-7.3-3.4-14.4-6.8-20.9c-0.2-0.5-0.3-0.8-0.6-1.2C313.8,502.6,309.9,504.9,311.1,507.7z"/>
												<path class="st6" d="M315.6,486c-1.9,0-3.9-0.3-5.7-0.8c-2-0.5-4.2-0.9-6.2-1.4c-0.6-0.2-1.2-0.3-2-0.5
													c-1.1-0.3-2-0.5-3.1-0.6c-1.9,0-2.9,2.9-0.9,3.7c1.1,0.5,2.3,0.8,3.6,1.1c0.6,0.2,1.2,0.3,1.9,0.5
													c2.2,0.6,4.5,1.2,6.7,1.5c2,0.5,4.2,0.8,6.4,0.8c0.3,0,0.5,0,0.8-0.2c0.6,0,1.1,0,1.7-0.2c0.5-0.2,0.9-0.3,1.2-0.5
													c0.3-0.2,0.6-0.5,0.8-0.8s0.2-0.5,0.2-0.6c0.5-1.1-0.3-2.6-1.5-2.8c-0.2,0-0.5-0.2-0.6-0.2c-0.2,0-0.3,0-0.5,0
													s-0.3,0.2-0.6,0.2C316.8,486,316.2,486,315.6,486z"/>
											</g>
										</g>
										<g>
											<path class="st4" d="M229.5,429c-0.2,0-0.2,0-0.3,0c-6.2,2.3-10.5,10.8-8.1,16.9c1.1,2.6,2.6,5.4,4.8,7.4
												c0.6,0.6,1.9,1.5,2.5,1.5c0.3,0,0.3,0,0.5-0.2c0.5-0.5,0.8-0.9,0.9-1.4c0.8-1.7-0.3-3.3-0.5-5c-0.3-1.9,0-3.7,1.2-5.3
												c2.8-3.1,7.4-3.6,10.4-0.3c2.3,2.6,2.9,6.8,1.7,10.1c-0.3,0.9-1.9,3.1-1.5,4c0.5,1.5,3.1,1.7,4.3,1.2
												c4-1.7,6.5-7.3,6.7-11.5c0.3-5-1.2-9.6-3.9-13.9c-0.2,0-0.2,0-0.3,0C242.1,431.3,235.9,429,229.5,429z"/>
											<g>
												<path class="st5" d="M277.2,341.5c4,7.7,8.7,15,11.8,23.1c1.2-0.8,2.5-1.5,3.7-2.3c-0.5-9.8-0.6-19.7-0.3-29.4
													C286.8,334.7,281.7,337.8,277.2,341.5z"/>
												<path class="st5" d="M273.8,344.5c-1.7,1.5-3.3,3.1-4.8,4.6c-3.1,3.3-6,6.7-8.8,10.2c6.7,3.4,12.1,9.9,15.8,16.4
													c2.9-3.1,6-6,9.4-8.5C282.5,359.2,277.8,351.9,273.8,344.5z"/>
												<path class="st5" d="M257.5,362.9c-2.2,2.9-4.2,5.9-6,9c-1.9,3.1-3.7,6.2-5.3,9.4c5.6,4,11.6,7.3,17,11.5
													c0.3-0.6,0.6-1.1,0.9-1.7c2.6-4.3,5.6-8.4,8.8-12.1c-0.2-0.2-0.3-0.3-0.5-0.5C269.2,372.3,263.9,366,257.5,362.9z"/>
												<path class="st5" d="M244.1,385c-3.4,6.8-6.2,14.1-8.4,21.4c2.8,0.2,5.6,1.1,8.2,2c3.4,1.4,6.7,2.9,9.6,5
													c2.2-5.9,4.6-11.5,7.6-17c0,0-0.2,0-0.2-0.2C255.7,392.2,249.7,389.1,244.1,385z"/>
												<path class="st5" d="M234.5,410.9c-1.2,4.6-2,9.3-2.6,13.9c5.7,0.5,11.2,2.3,16.7,3.7c1.1-3.7,2.3-7.3,3.6-10.8
													c-0.2,0-0.3-0.2-0.5-0.2C246.9,414.2,240.5,410.7,234.5,410.9z"/>
											</g>
											<g>
												<path class="st6" d="M231.1,424.7c0.3,0,0.5,0,0.8,0c0.6-4.6,1.5-9.3,2.6-13.9c-0.5,0-0.9,0-1.4,0c-2.8,0.3-2.8-4,0-4.3
													c0.9-0.2,1.7-0.2,2.6,0c2.2-7.3,5-14.6,8.4-21.4c-0.3-0.2-0.6-0.5-0.9-0.6c-2.2-1.7,0-5.4,2.2-3.7
													c0.3,0.2,0.5,0.3,0.8,0.5c1.7-3.3,3.4-6.4,5.3-9.4c1.9-3.1,4-6,6-9c-0.2,0-0.2-0.2-0.3-0.2c-2.5-1.2-0.3-5,2.2-3.7
													c0.3,0.2,0.5,0.3,0.8,0.5c2.8-3.6,5.7-7,8.8-10.2c1.5-1.7,3.3-3.3,4.8-4.6c-0.3-0.6-0.8-1.4-1.1-2.2
													c-1.2-2.5,2.5-4.6,3.7-2.2c0.3,0.5,0.5,0.9,0.8,1.4c4.6-3.7,9.6-6.7,15.2-8.8c0.3-0.2,0.6-0.2,0.8-0.3
													c2.5-0.8,1.5-4.5-0.6-4.2c-0.2,0-0.3,0-0.5,0c-9.6,3.3-17.5,9.1-24.6,16.3c-6.8,6.7-12.7,14.2-18,22.1
													c-10.5,16-18.1,34.4-21.4,53.3c-0.3,1.7-0.5,3.4-0.8,5.1c0.6-0.2,1.2-0.5,1.9-0.6C230.1,424.2,230.6,424.4,231.1,424.7z
													"/>
												<path class="st6" d="M293.5,361.6c-0.3,0.2-0.5,0.3-0.8,0.5c-1.2,0.8-2.5,1.5-3.7,2.3c0.3,0.8,0.6,1.4,0.8,2.2
													c0.9,2.6-3.3,3.7-4.2,1.2c0-0.2-0.2-0.5-0.3-0.6c-3.4,2.6-6.5,5.4-9.4,8.5c0.2,0.2,0.3,0.5,0.3,0.6
													c1.2,2.2-1.7,4.2-3.3,2.6c-3.3,3.7-6.2,7.7-8.8,12.1c-0.3,0.6-0.6,1.1-0.9,1.7c0.3,0.2,0.5,0.3,0.8,0.6
													c2.2,1.7-0.8,4.6-2.9,3.1c-2.9,5.4-5.4,11.2-7.6,17c0.2,0,0.2,0.2,0.3,0.2c2.2,1.4,0.5,4.8-1.7,3.9
													c-1.2,3.6-2.5,7.3-3.6,10.8c0.3,0,0.5,0.2,0.8,0.2c0.5,0.2,0.9,0.5,1.1,0.8c0.6,0,1.2,0.3,1.7,0.9
													c0.2,0.2,0.2,0.3,0.3,0.5c3.9-12.9,8.4-25.6,15.3-37.2c6.4-10.7,14.9-19.8,25.4-26.6c0.9-0.6,1.7-1.1,2.6-1.7
													C298.1,364.1,296,360.3,293.5,361.6z"/>
												<path class="st6" d="M250.4,429.3c-1.5-0.2-3.1,1.5-2.2,3.3c0,0.2,0.2,0.2,0.2,0.3c2.5,4.3,4.2,9,3.9,13.9
													c-0.3,4-2.6,9.8-6.7,11.5c-1.2,0.5-3.9,0.3-4.3-1.2c-0.3-0.9,1.2-3.3,1.5-4c1.2-3.3,0.6-7.6-1.7-10.1
													c-2.9-3.3-7.6-2.6-10.4,0.3c-1.4,1.5-1.5,3.4-1.2,5.3c0.3,1.7,1.2,3.3,0.5,5c-0.3,0.6-0.6,1.1-0.9,1.4
													c-0.2,0.2-0.3,0.2-0.5,0.2c-0.6,0-1.9-0.9-2.5-1.5c-2.2-2-3.7-4.8-4.8-7.4c-2.3-6.2,2-14.7,8.1-16.9
													c0.5-0.2,0.8-0.3,1.2-0.3c2-0.5,1.9-2.8,0.6-3.9c-0.5-0.3-1.1-0.5-1.7-0.3c-0.6,0.2-1.2,0.3-1.9,0.6
													c-7.1,2.6-11.2,10.7-11.3,18c0,2.9,1.4,6,2.9,8.5c1.5,2.6,3.6,5.3,6.2,6.8c2.5,1.4,5.4,1.1,7.3-1.1
													c1.1-1.4,1.7-3.1,2-4.8c0.2-1.9-0.9-3.6-0.9-5.3c-0.2-1.4,2.2-2.6,3.4-2c1.4,0.6,1.9,2.5,2,3.9c0.3,3.4-2.5,5.9-1.9,9.3
													c0.6,3.7,5.7,5,8.7,4.5c3.6-0.6,6.5-4.2,8.2-7.3c4.3-7.9,2.6-17.2-1.9-24.6c-0.2-0.2-0.2-0.3-0.3-0.5
													C251.7,429.6,251,429.3,250.4,429.3z"/>
												<path class="st6" d="M235.7,406.6c-0.9,0-1.7,0-2.6,0c-2.8,0.3-2.8,4.6,0,4.3c0.5,0,0.9,0,1.4,0c6,0,12.4,3.4,17,6.5
													c0.2,0.2,0.3,0.2,0.5,0.2c2.2,0.9,3.9-2.5,1.7-3.9c-0.2,0-0.2-0.2-0.3-0.2c-2.9-2-6.2-3.6-9.6-5
													C241.3,407.5,238.5,406.7,235.7,406.6z"/>
												<path class="st6" d="M245.3,380.7c-2.3-1.7-4.3,2.2-2.2,3.7c0.3,0.2,0.6,0.5,0.9,0.6c5.4,3.9,11.5,7.1,16.7,11.3
													c0,0,0.2,0,0.2,0.2c2.2,1.4,5-1.4,2.9-3.1c-0.3-0.2-0.5-0.3-0.8-0.6c-5.4-4.2-11.5-7.4-17-11.5
													C245.9,381,245.6,380.9,245.3,380.7z"/>
												<path class="st6" d="M259.4,358.9c-2.5-1.2-4.6,2.5-2.2,3.7c0.2,0,0.2,0.2,0.3,0.2c6.5,3.3,11.6,9.4,14.9,15.6
													c0.2,0.2,0.3,0.3,0.5,0.5c1.5,1.5,4.5-0.5,3.3-2.6c-0.2-0.2-0.2-0.5-0.3-0.6c-3.6-6.5-9.1-13-15.8-16.4
													C259.9,359.2,259.7,359,259.4,358.9z"/>
												<path class="st6" d="M277.2,341.5c-0.3-0.5-0.5-0.9-0.8-1.4c-1.2-2.5-5-0.3-3.7,2.2c0.3,0.8,0.8,1.4,1.1,2.2
													c4,7.6,8.5,14.7,11.6,22.8c0.2,0.2,0.2,0.5,0.3,0.6c0.9,2.6,5.1,1.5,4.2-1.2c-0.3-0.8-0.5-1.4-0.8-2.2
													C285.7,356.5,281.2,349.1,277.2,341.5z"/>
												<path class="st6" d="M231.1,424.7c1.2,0.9,1.4,3.4-0.6,3.9c-0.5,0.2-0.8,0.2-1.2,0.3c0.2,0,0.2,0,0.3,0
													c6.4,0,12.5,2.5,18.6,3.9c0.2,0,0.2,0,0.3,0c0-0.2-0.2-0.2-0.2-0.3c-1.1-1.7,0.6-3.3,2.2-3.3c-0.3-0.3-0.6-0.6-1.1-0.8
													c-0.3,0-0.5-0.2-0.8-0.2c-5.6-1.4-11-3.3-16.7-3.7C231.5,424.7,231.4,424.7,231.1,424.7z"/>
											</g>
										</g>
										<g>
											<path class="st4" d="M523.5,260.4c0.2,0,0.2,0,0.3,0c6.2-2.3,10.5-10.8,8.1-16.9c-1.1-2.6-2.6-5.4-4.8-7.4
												c-0.6-0.6-1.9-1.5-2.5-1.5c-0.3,0-0.3,0-0.5,0.2c-0.5,0.5-0.8,0.9-0.9,1.4c-0.8,1.7,0.3,3.3,0.5,5c0.3,1.9,0,3.7-1.2,5.3
												c-2.8,3.1-7.4,3.6-10.4,0.3c-2.3-2.6-2.9-6.8-1.7-10.1c0.3-0.9,1.9-3.1,1.5-4c-0.5-1.5-3.1-1.7-4.3-1.2
												c-4,1.7-6.5,7.3-6.7,11.5c-0.3,5,1.2,9.6,3.9,13.9c0.2,0,0.2,0,0.3,0C510.9,258,517.1,260.4,523.5,260.4z"/>
											<g>
												<path class="st5" d="M475.8,347.9c-4-7.7-8.7-15-11.8-23.1c-1.2,0.8-2.5,1.5-3.7,2.3c0.5,9.8,0.6,19.7,0.3,29.4
													C466.2,354.7,471.3,351.6,475.8,347.9z"/>
												<path class="st5" d="M479.2,344.9c1.7-1.5,3.3-3.1,4.8-4.6c3.1-3.3,6-6.7,8.8-10.2c-6.7-3.4-12.1-9.9-15.8-16.4
													c-2.9,3.1-6,6-9.4,8.5C470.7,330.2,475.2,337.5,479.2,344.9z"/>
												<path class="st5" d="M495.5,326.5c2.2-2.9,4.2-5.9,6-9s3.7-6.2,5.3-9.4c-5.6-4-11.6-7.3-17-11.5
													c-0.3,0.6-0.6,1.1-0.9,1.7c-2.6,4.3-5.6,8.4-8.8,12.1c0.2,0.2,0.3,0.3,0.5,0.5C484,317,489.1,323.4,495.5,326.5z"/>
												<path class="st5" d="M508.9,304.3c3.4-6.8,6.2-14.1,8.4-21.4c-2.8-0.2-5.6-1.1-8.2-2c-3.4-1.4-6.7-2.9-9.6-5
													c-2.2,5.9-4.6,11.5-7.6,17c0,0,0.2,0,0.2,0.2C497.3,297.2,503.3,300.3,508.9,304.3z"/>
												<path class="st5" d="M518.5,278.5c1.2-4.6,2-9.3,2.6-13.9c-5.7-0.5-11.2-2.3-16.7-3.7c-1.1,3.7-2.3,7.3-3.6,10.8
													c0.2,0,0.3,0.2,0.5,0.2C506.1,275.2,512.5,278.6,518.5,278.5z"/>
											</g>
											<g>
												<path class="st6" d="M521.9,264.7c-0.3,0-0.5,0-0.8,0c-0.6,4.6-1.5,9.3-2.6,13.9c0.5,0,0.9,0,1.4,0c2.8-0.3,2.8,4,0,4.3
													c-0.9,0.2-1.7,0.2-2.6,0c-2.2,7.3-5,14.6-8.4,21.4c0.3,0.2,0.6,0.5,0.9,0.6c2.2,1.7,0,5.4-2.2,3.7
													c-0.3-0.2-0.5-0.3-0.8-0.5c-1.7,3.3-3.4,6.4-5.3,9.4c-1.9,3.1-4,6-6,9c0.2,0,0.2,0.2,0.3,0.2c2.5,1.2,0.3,5-2.2,3.7
													c-0.3-0.2-0.5-0.3-0.8-0.5c-2.8,3.6-5.7,7-8.8,10.2c-1.5,1.7-3.3,3.3-4.8,4.6c0.3,0.6,0.8,1.4,1.1,2.2
													c1.2,2.5-2.5,4.6-3.7,2.2c-0.3-0.5-0.5-0.9-0.8-1.4c-4.6,3.7-9.6,6.7-15.2,8.8c-0.3,0.2-0.6,0.2-0.8,0.3
													c-2.5,0.8-1.5,4.5,0.6,4.2c0.2,0,0.3,0,0.5,0c9.6-3.3,17.5-9.1,24.6-16.3c6.8-6.7,12.7-14.2,18-22.1
													c10.5-16,18.1-34.4,21.4-53.3c0.3-1.7,0.5-3.4,0.8-5.1c-0.6,0.2-1.2,0.5-1.9,0.6C523,265.2,522.4,265,521.9,264.7z"/>
												<path class="st6" d="M459.5,327.7c0.3-0.2,0.5-0.3,0.8-0.5c1.2-0.8,2.5-1.5,3.7-2.3c-0.3-0.8-0.6-1.4-0.8-2.2
													c-0.9-2.6,3.3-3.7,4.2-1.2c0,0.2,0.2,0.5,0.3,0.6c3.4-2.6,6.5-5.4,9.4-8.5c-0.2-0.2-0.3-0.5-0.3-0.6
													c-1.2-2.2,1.7-4.2,3.3-2.6c3.3-3.7,6.2-7.7,8.8-12.1c0.3-0.6,0.6-1.1,0.9-1.7c-0.3-0.2-0.5-0.3-0.8-0.6
													c-2.2-1.7,0.8-4.6,2.9-3.1c2.9-5.4,5.4-11.2,7.6-17c-0.2,0-0.2-0.2-0.3-0.2c-2.2-1.4-0.5-4.8,1.7-3.9
													c1.2-3.6,2.5-7.3,3.6-10.8c-0.3,0-0.5-0.2-0.8-0.2c-0.5-0.2-0.9-0.5-1.1-0.8c-0.6,0-1.2-0.3-1.7-0.9
													c-0.2-0.2-0.2-0.3-0.3-0.5c-3.9,12.9-8.4,25.6-15.3,37.2c-6.4,10.7-14.9,19.8-25.4,26.6c-0.9,0.6-1.7,1.1-2.6,1.7
													C454.9,325.2,457,329.1,459.5,327.7z"/>
												<path class="st6" d="M521.9,264.7c-1.2-0.9-1.4-3.4,0.6-3.9c0.5-0.2,0.8-0.2,1.2-0.3c-0.2,0-0.2,0-0.3,0
													c-6.4,0-12.5-2.5-18.6-3.9c-0.2,0-0.2,0-0.3,0c0,0.2,0.2,0.2,0.2,0.3c1.1,1.7-0.6,3.3-2.2,3.3c0.3,0.3,0.6,0.6,1.1,0.8
													c0.3,0,0.5,0.2,0.8,0.2c5.6,1.4,11,3.3,16.7,3.7C521.5,264.7,521.6,264.7,521.9,264.7z"/>
												<path class="st6" d="M502.6,260c1.5,0.2,3.1-1.5,2.2-3.3c0-0.2-0.2-0.2-0.2-0.3c-2.5-4.3-4.2-9-3.9-13.9
													c0.3-4,2.6-9.8,6.7-11.5c1.2-0.5,3.9-0.3,4.3,1.2c0.3,0.9-1.2,3.3-1.5,4c-1.2,3.3-0.6,7.6,1.7,10.1
													c2.9,3.3,7.6,2.6,10.4-0.3c1.4-1.5,1.5-3.4,1.2-5.3c-0.3-1.7-1.2-3.3-0.5-5c0.3-0.6,0.6-1.1,0.9-1.4
													c0.2-0.2,0.3-0.2,0.5-0.2c0.6,0,1.9,0.9,2.5,1.5c2.2,2,3.7,4.8,4.8,7.4c2.3,6.2-2,14.7-8.1,16.9
													c-0.5,0.2-0.8,0.3-1.2,0.3c-2,0.5-1.9,2.8-0.6,3.9c0.5,0.3,1.1,0.5,1.7,0.3s1.2-0.3,1.9-0.6c7.1-2.6,11.2-10.7,11.3-18
													c0-2.9-1.4-6-2.9-8.5c-1.5-2.6-3.6-5.3-6.2-6.8c-2.5-1.4-5.4-1.1-7.3,1.1c-1.1,1.4-1.7,3.1-2,4.8
													c-0.2,1.9,0.9,3.6,0.9,5.3c0.2,1.4-2.2,2.6-3.4,2c-1.4-0.6-1.9-2.5-2-3.9c-0.3-3.4,2.5-5.9,1.9-9.3
													c-0.6-3.7-5.7-5-8.7-4.5c-3.6,0.6-6.5,4.2-8.2,7.3c-4.3,7.9-2.6,17.2,1.9,24.6c0.2,0.2,0.2,0.3,0.3,0.5
													C501.3,259.7,502,260,502.6,260z"/>
												<path class="st6" d="M517.3,282.8c0.9,0,1.7,0,2.6,0c2.8-0.3,2.8-4.6,0-4.3c-0.5,0-0.9,0-1.4,0c-6,0-12.4-3.4-17-6.5
													c-0.2-0.2-0.3-0.2-0.5-0.2c-2.2-0.9-3.9,2.5-1.7,3.9c0.2,0,0.2,0.2,0.3,0.2c2.9,2,6.2,3.6,9.6,5
													C511.7,281.9,514.5,282.7,517.3,282.8z"/>
												<path class="st6" d="M507.7,308.7c2.3,1.7,4.3-2.2,2.2-3.7c-0.3-0.2-0.6-0.5-0.9-0.6c-5.4-3.9-11.5-7.1-16.7-11.3
													c0,0-0.2,0-0.2-0.2c-2.2-1.4-5,1.4-2.9,3.1c0.3,0.2,0.5,0.3,0.8,0.6c5.4,4.2,11.5,7.4,17,11.5
													C507.1,308.4,507.4,308.5,507.7,308.7z"/>
												<path class="st6" d="M493.6,330.5c2.5,1.2,4.6-2.5,2.2-3.7c-0.2,0-0.2-0.2-0.3-0.2c-6.5-3.3-11.6-9.4-14.9-15.6
													c-0.2-0.2-0.3-0.3-0.5-0.5c-1.5-1.5-4.5,0.5-3.3,2.6c0.2,0.2,0.2,0.5,0.3,0.6c3.6,6.5,9.1,13,15.8,16.4
													C493.1,330.2,493.3,330.4,493.6,330.5z"/>
												<path class="st6" d="M475.8,347.9c0.3,0.5,0.5,0.9,0.8,1.4c1.2,2.5,5,0.3,3.7-2.2c-0.3-0.8-0.8-1.4-1.1-2.2
													c-4-7.6-8.5-14.7-11.6-22.8c-0.2-0.2-0.2-0.5-0.3-0.6c-0.9-2.6-5.1-1.5-4.2,1.2c0.3,0.8,0.5,1.4,0.8,2.2
													C467.3,332.8,471.8,340.3,475.8,347.9z"/>
											</g>
										</g>
										<g>
											<path class="st4" d="M448.8,507c-2.4,0.2-4.7,0.5-7.1,1c-2.4,5.5-4.8,11.2-5.8,17.2c11.1,1.3,23.6,2.1,33.1-3.9
												c-3.2-6.1-7.7-11.2-11.9-16.7c-0.5,0.5-1.1,0.8-1.8,1.1C453.5,506.6,451.1,506.8,448.8,507z"/>
											<g>
												<path class="st5" d="M415.4,420.3c0.9,2.6,2,5.3,2.9,7.9c1.4,3.9,2.8,7.7,4,11.6c3.6-0.8,6.8-2,10.2-3.3
													c2-0.8,4.2-1.7,6.2-2.5c1.1-0.5,2.3-0.9,3.4-1.4c-1.7-5.6-3.7-11.2-5.6-16.7c-0.5-1.2-0.8-2.5-1.2-3.7
													c-3.1,1.2-6.5,2.2-9.6,3.3C422.2,416.9,418.6,418.3,415.4,420.3z"/>
												<path class="st5" d="M410,406.9c1.7,2.9,2.8,6,3.9,9.1c3.1-1.7,6.4-3.1,9.6-4.3c3.4-1.2,7-2.5,10.5-3.3
													c-0.8-2.3-1.7-4.6-2.6-7c-1.1-2.5-2.2-5.4-3.9-7.9c-3.6,3.9-7.4,7.3-11.9,10.1C413.7,404.9,411.8,405.9,410,406.9z"/>
												<path class="st5" d="M434.3,440.8c-3.4,1.4-7,2.6-10.5,3.4c1.1,3.3,2.2,6.7,3.3,9.9c1.1,3.1,2,6.2,2.9,9.4
													c6-2.2,12.4-3.3,18.4-5.6c-1.1-6-2.5-12.1-4-18.1c-0.3-0.9-0.6-2-0.9-2.9c-0.9,0.5-2,0.8-2.9,1.2
													C438.5,439.1,436.3,439.9,434.3,440.8z"/>
												<path class="st5" d="M434.6,479.4c0.5,2,1.1,4,1.5,6c0.2,0,0.3,0.2,0.6,0.2c0.6,0.2,1.2,0.2,1.9,0.2
													c1.9,0,3.9-0.5,5.7-0.8c2-0.5,4.2-0.9,6.2-1.5c0.6-0.2,1.2-0.3,2-0.5c-0.5-3.6-0.9-7-1.5-10.5
													c-0.5-3.4-1.1-6.8-1.7-10.2c-5.7,2.3-11.9,3.9-17.8,5.7C432.4,471.6,433.5,475.5,434.6,479.4z"/>
												<path class="st5" d="M444.5,489.3c-2,0.5-4.2,0.8-6.4,0.8c-0.3,0-0.5,0-0.8-0.2c1.2,4.5,2.6,8.8,4.3,13.2
													c2.6-0.5,5.3-0.8,7.9-0.9c1.1-0.2,2-0.2,3.1-0.6c0.5-0.2,1.1-0.6,1.2-1.1c0.5-1.2,0.5-2.8,0.3-4.2
													c-0.2-2.6-0.8-5.3-1.1-7.9c0-0.5-0.2-0.9-0.2-1.5c-0.6,0.2-1.2,0.3-1.9,0.5C449,488.3,446.7,488.8,444.5,489.3z"/>
											</g>
											<g>
												<path class="st6" d="M442.3,507.2c-0.2,0.3-0.3,0.6-0.5,1.1c2.2-0.5,4.5-0.8,6.8-0.9c2.2-0.2,4.5-0.3,6.5-1.2
													c0.6-0.3,1.2-0.6,1.7-1.1c-0.5-0.6-0.9-1.1-1.2-1.7c-1.5-2.2,1.7-4.8,3.6-3.1c0.3-2.8-0.2-5.9-0.5-8.2
													c-3.3-21.7-5.6-43.8-13.2-64.4c-2.5-7-4.5-14.1-7.1-21.1c-2-5.4-4-11.8-8.1-16.4c-0.5-0.6-1.1-1.2-1.7-1.7
													c-2.2-1.9-5.1,1.1-3.1,3.1c0.6,0.6,1.2,1.4,1.7,2.2c1.5,2.5,2.8,5.3,3.9,7.9c0.9,2.3,1.9,4.6,2.6,7
													c0.8-0.2,1.5-0.3,2.3-0.5c2-0.3,3.4,2.3,1.4,3.4c-0.8,0.5-1.5,0.8-2.3,1.1c0.5,1.2,0.8,2.5,1.2,3.7
													c1.9,5.6,3.9,11.2,5.6,16.7c0.8-0.3,1.7-0.5,2.5-0.6c2-0.3,3.4,2.2,1.4,3.4c-0.8,0.5-1.7,0.9-2.6,1.4
													c0.3,0.9,0.6,2,0.9,2.9c1.7,6,2.9,12.1,4,18.1c0.3-0.2,0.6-0.3,1.1-0.3c2.2-0.9,3.7,2.8,1.5,3.7
													c-0.6,0.3-1.2,0.5-1.9,0.8c0.6,3.4,1.2,6.8,1.7,10.2c0.5,3.6,1.1,7,1.5,10.5c1.1-0.3,2-0.5,3.1-0.6
													c1.9,0,2.9,2.9,1.1,3.7c-1.1,0.5-2.3,0.8-3.4,1.1c0,0.5,0.2,0.9,0.2,1.5c0.3,2.6,0.9,5.3,1.1,7.9
													c0.2,1.4,0.2,2.8-0.3,4.2c-0.2,0.3-0.8,0.9-1.2,1.1c-1.1,0.3-2,0.5-3.1,0.6c-2.6,0.3-5.3,0.5-7.9,0.9
													c-1.7-4.3-3.1-8.7-4.3-13.2c-0.6,0-1.1,0-1.7-0.2c-0.5-0.2-0.9-0.3-1.2-0.5c-0.3-0.2-0.6-0.5-0.8-0.8s-0.3-0.5-0.3-0.6
													c-0.5-1.1,0.3-2.6,1.5-2.8c0.2,0,0.5-0.2,0.6-0.2c0.2,0,0.3,0,0.5,0c-0.5-2-1.1-4-1.5-6c-0.9-3.9-2-7.6-3.3-11.5
													c-0.6,0.2-1.2,0.3-1.7,0.5c-2.8,0.9-3.7-3.3-1.2-4.2c0.5-0.2,1.1-0.5,1.5-0.6c-0.9-3.1-2-6.2-2.9-9.4
													c-1.1-3.3-2.2-6.7-3.3-9.9c-0.5,0.2-0.9,0.3-1.5,0.3c-2.8,0.5-4-3.9-1.2-4.3c0.5,0,0.9-0.2,1.2-0.3
													c-1.2-3.9-2.6-7.7-4-11.6c-0.9-2.6-2-5.3-2.9-7.9c-0.5,0.3-0.9,0.5-1.4,0.8c-2.5,1.7-4.8-2.3-2.3-4
													c0.6-0.5,1.4-0.9,2-1.2c-1.1-3.1-2.2-6.4-3.9-9.1c-0.2-0.3-0.3-0.5-0.5-0.8c-1.7-2.6-5.7-0.2-4.2,2.5
													c0,0.2,0.2,0.2,0.2,0.3c1.9,3.3,2.9,6.8,4.2,10.4c1.4,4.2,3.1,8.2,4.6,12.4c3.1,8.5,5.9,17.2,8.7,25.9
													c2.6,8.4,5.1,16.6,7.4,25.1c2,8.1,4.3,16,7.4,23.5c0.2-0.5,0.3-0.8,0.6-1.2C439.7,502.1,443.6,504.6,442.3,507.2z"/>
												<path class="st6" d="M444.2,484.9c-1.9,0.5-3.7,0.8-5.7,0.8c-0.6,0-1.2,0-1.9-0.2c-0.2,0-0.5-0.2-0.6-0.2
													c-0.2,0-0.3,0-0.5,0s-0.5,0-0.6,0.2c-1.2,0.2-2,1.5-1.5,2.8c0,0,0.2,0.2,0.3,0.6c0.2,0.3,0.5,0.6,0.8,0.8
													c0.3,0.2,0.9,0.3,1.2,0.5c0.5,0.2,1.1,0.2,1.7,0.2c0.3,0,0.5,0.2,0.8,0.2c2.2,0,4.2-0.3,6.4-0.8
													c2.2-0.5,4.5-1.1,6.7-1.7c0.6-0.2,1.2-0.3,1.9-0.5c1.2-0.3,2.3-0.6,3.4-1.1c1.9-0.8,0.9-3.9-1.1-3.7
													c-1.1,0-2,0.3-3.1,0.6c-0.6,0.2-1.4,0.3-2,0.5C448.4,483.8,446.2,484.5,444.2,484.9z"/>
												<path class="st6" d="M428.4,464.2c-2.5,1.1-1.5,5.1,1.2,4.2c0.6-0.2,1.1-0.3,1.7-0.5c6-1.9,12.1-3.4,17.8-5.7
													c0.6-0.3,1.2-0.5,1.9-0.8c2.2-0.9,0.6-4.6-1.5-3.7c-0.3,0.2-0.6,0.3-1.1,0.3c-6,2.2-12.4,3.3-18.4,5.6
													C429.5,463.7,428.9,463.9,428.4,464.2z"/>
												<path class="st6" d="M432.6,436.6c-3.3,1.4-6.7,2.5-10.2,3.3c-0.5,0.2-0.9,0.2-1.2,0.3c-2.8,0.5-1.5,4.8,1.2,4.3
													c0.5-0.2,1.1-0.2,1.5-0.3c3.6-0.8,7.1-2,10.5-3.4c2-0.8,4.2-1.7,6.2-2.6c0.9-0.5,2-0.8,2.9-1.2c0.9-0.5,1.9-0.8,2.6-1.4
													c2-1.2,0.6-3.7-1.4-3.4c-0.8,0.2-1.7,0.3-2.5,0.6c-1.2,0.5-2.3,0.9-3.4,1.4C436.6,435.1,434.6,435.8,432.6,436.6z"/>
												<path class="st6" d="M413.8,416c-0.8,0.5-1.4,0.8-2,1.2c-2.5,1.7-0.2,5.6,2.3,4c0.5-0.3,0.9-0.6,1.4-0.8
													c3.3-2,6.8-3.4,10.4-4.6c3.1-1.1,6.5-2,9.6-3.3c0.8-0.3,1.5-0.6,2.3-1.1c2-1.1,0.5-3.7-1.4-3.4
													c-0.8,0.2-1.5,0.3-2.3,0.5c-3.6,0.8-7.3,2-10.5,3.3C420,412.9,416.8,414.2,413.8,416z"/>
												<path class="st6" d="M473.6,520.7c-3.6-7.6-9.1-13.9-14.2-20.3c0-0.2-0.2-0.2-0.3-0.2c-1.9-1.7-5.1,1.1-3.6,3.1
													c0.5,0.6,0.8,1.1,1.2,1.7c4,5.3,8.4,10.4,11.5,16.1c-9.3,5.9-21.4,5-31.9,3.7c0.9-5.7,3.3-11.3,5.6-16.6
													c0.2-0.3,0.3-0.6,0.5-1.1c1.2-2.8-2.6-5.1-4-2.3c-0.2,0.5-0.3,0.8-0.6,1.2c-3.4,6.5-5.9,13.8-6.7,21.1
													c-0.2,1.5,1.2,2.3,2.5,2.5c12.9,1.5,28.3,2.9,39.3-5.6C473.9,523.2,474.4,521.9,473.6,520.7z"/>
											</g>
										</g>
									</g>
								</g>
							</g>
							<g>
								<g>
									<rect x="370.8" y="164.5" class="st2" width="11.2" height="24.6"/>
									<g>
										<g>
											<circle class="st2" cx="376.5" cy="168.2" r="7.3"/>
											<path class="st2" d="M376.5,156.4c5.4,0,9.9,3.6,11.5,8.5l4.8-4.8c-2.9-5.9-9.1-10.1-16.3-10.1s-13.3,4.2-16.3,10.1
												l4.8,4.8C366.4,160.1,371.1,156.4,376.5,156.4z"/>
											<path class="st2" d="M376.5,146c8.2,0,15.3,4.5,19.2,11.2l4.5-4.5c-5.1-7.7-13.9-12.9-23.9-12.9s-18.7,5.1-23.9,12.9
												l4.5,4.5C361,150.5,368.3,146,376.5,146z"/>
											<path class="st2" d="M376.5,135.5c11.2,0,20.9,5.6,26.9,14.1l4.5-4.5c-7.1-9.6-18.6-15.8-31.4-15.8s-24.3,6.2-31.4,16
												l4.5,4.5C355.4,141.1,365.3,135.5,376.5,135.5z"/>
										</g>
									</g>
									<rect x="361.9" y="284.5" class="st2" width="29.1" height="40.6"/>
								</g>
								<g>
									<g>
										<path class="st7" d="M427.8,449H325.1c-20.1,0-36.7-16.6-36.7-36.7v-63.7c0-20.1,16.6-36.7,36.7-36.7h102.7
											c20.1,0,36.7,16.6,36.7,36.7v63.7C464.5,432.4,447.9,449,427.8,449z"/>
									</g>
									<g>
										<path class="st8" d="M417.2,376.4c3.9-6.8,8.2-15,8.4-23.1c0-2.9-0.5-6-3.1-7.7c-2.6-1.9-5.9-1.2-8.1,0.9
											c-5.9,5.6-7.7,13.9-12.4,20.3c-1.4,2-4.2,0.3-4.2-1.7c0,0,0,0,0-0.2c-1.9-6.8-4.8-16.3-12.2-19.1
											c-3.1-1.2-6.5,0.3-8.5,2.9c-1.9,2.5-1.9,5.7-1.4,8.7c1.1,8.1,5.3,15.8,9.3,22.8c4.5,7.4,9.6,14.4,15.6,20.6
											c3.1-4.3,8.8-12.1,11.3-15.8C413.8,382.1,415.5,379.1,417.2,376.4z"/>
										<g>
											<line class="st9" x1="406.2" y1="320.4" x2="350.6" y2="376.2"/>
											<line class="st9" x1="416" y1="329.3" x2="360.4" y2="385"/>
											<line class="st9" x1="425.8" y1="338.1" x2="370.1" y2="393.9"/>
											<line class="st9" x1="435.5" y1="347.1" x2="379.9" y2="402.7"/>
											<line class="st9" x1="445.3" y1="355.9" x2="389.7" y2="411.5"/>
										</g>
									</g>
								</g>
								<path class="st7" d="M419.1,299.2h-85.2c-18.4,0-33.6-15.2-33.6-33.6v-49.2c0-18.4,15.2-33.6,33.6-33.6h85.2
									c18.4,0,33.6,15.2,33.6,33.6v49.3C452.7,284,437.5,299.2,419.1,299.2z"/>
								<g>
									<circle class="st4" cx="324" cy="241" r="8.7"/>
									<circle class="st4" cx="428.9" cy="241" r="8.7"/>
								</g>
							</g>
						</g>
					</g>
				</g>
			</g>
			<polyline class="st10" points="476.6,128.9 476.6,48.4 432.3,48.4 432.3,-54.8 378.7,-54.8 			"/>
		</g>
	</g>
	<g>
		<line class="st3" x1="674" y1="-96.3" x2="605.2" y2="-96.3"/>
		<circle class="st0" cx="674" cy="-96.3" r="11.7"/>
		<circle class="st0" cx="604.2" cy="-96.3" r="11.7"/>
		<polyline class="st3" points="635.6,94.9 635.6,29.7 516.5,29.7 516.5,-144.3 476.5,-144.3 		"/>
		<polyline class="st3" points="617.9,96.7 617.9,164.8 717.5,164.8 		"/>
		<circle class="st0" cx="617.9" cy="165.1" r="11.7"/>
		<polyline class="st3" points="717.5,208.8 717.5,48.4 671.8,48.4 		"/>
		<circle class="st0" cx="717.5" cy="49.7" r="11.7"/>
		<circle class="st0" cx="717.5" cy="208.1" r="11.7"/>
		<circle class="st0" cx="517.8" cy="29.5" r="11.7"/>
		<circle class="st0" cx="517.8" cy="-144.3" r="11.7"/>
		<circle class="st0" cx="379.8" cy="-103.3" r="11.7"/>
		<circle class="st0" cx="312.9" cy="-103.3" r="11.7"/>
		<polyline class="st3" points="381.1,104.7 378.9,-103.3 472.8,-103.3 		"/>
		<line class="st3" x1="313.9" y1="-103.3" x2="313.9" y2="-256.3"/>
		<polyline class="st3" points="666.5,-195.3 666.5,-148.3 570.3,-148.3 		"/>
		<circle class="st0" cx="666.5" cy="-148.3" r="11.7"/>
		<polyline class="st3" points="270.8,-64.3 271.8,-64.3 271.8,56.7 		"/>
	</g>
</g>
<polyline class="st3" points="132.2,138.9 25,138.9 25,313 170,313 "/>
<path class="st3" d="M206.8,41.6"/>
<polyline class="st3" points="143.2,-27 143.2,41.6 184,41.6 184,193.4 "/>
<circle class="st0" cx="184.8" cy="41.6" r="11.7"/>
<circle class="st0" cx="143.2" cy="41.6" r="11.7"/>
<circle class="st0" cx="77.5" cy="199.5" r="11.7"/>
<circle class="st0" cx="133.9" cy="111.4" r="11.7"/>
<circle class="st0" cx="77.5" cy="275.7" r="11.7"/>
<circle class="st0" cx="25.4" cy="313" r="11.7"/>
<circle class="st0" cx="25.4" cy="138.2" r="11.7"/>
<g>
	<g>
		<g>
			<path class="st11" d="M295.4,809.9v7.4h9.3v2.1h-11.6v-11.5h9.3v-5.2h-9.2v-2.1h11.5v6.8c0,1.3-1,2.5-2.5,2.5H295.4L295.4,809.9z
				"/>
			<path class="st11" d="M322.5,819.3h-9.2v-18.7H325v16.3C325.1,818.2,324,819.3,322.5,819.3z M315.6,802.6v14.7h7.3v-14.7H315.6z"
				/>
			<path class="st11" d="M332.2,802.6v-2.1h6.4v18.7h-2.3v-16.6H332.2z"/>
			<path class="st11" d="M347.3,819.3v-18.7h11.5v16.3c0,1.3-1,2.4-2.4,2.5L347.3,819.3L347.3,819.3z M349.4,802.6v5.2h7.1v-5.2
				H349.4z M349.4,809.9v7.4h7.1v-7.4H349.4z"/>
			<path class="st11" d="M367.4,819.8v-2.5h3.3v2.5H367.4z"/>
			<path class="st11" d="M377.8,802.6v-2.1h6.4v18.7h-2.3v-16.6H377.8z"/>
			<path class="st11" d="M395,809.9v7.4h9.3v2.1h-11.6v-11.5h9.3v-5.2h-9.2v-2.1h11.5v6.8c0,1.3-1,2.5-2.5,2.5H395L395,809.9z"/>
			<path class="st11" d="M413,819.8v-2.5h3.3v2.5H413z"/>
			<path class="st11" d="M434.2,819.3H425v-18.7h11.7v16.3C436.7,818.2,435.5,819.3,434.2,819.3z M427.2,802.6v14.7h7.3v-14.7H427.2
				z"/>
			<path class="st11" d="M447.6,809.9v7.4h9.3v2.1h-11.6v-11.5h9.3v-5.2h-9.2v-2.1h11.5v6.8c0,1.3-1,2.5-2.5,2.5H447.6L447.6,809.9z
				"/>
			<path class="st11" d="M238.8,844.9v2.2h-4.3v16.5h-2.4v-16.5h-4.3v-2.2H238.8z"/>
			<path class="st11" d="M256.2,844.9h2.3v18.7h-2.3v-9.7h-7.7v9.7h-2.3v-18.7h2.3v6.9h7.7V844.9z"/>
			<path class="st11" d="M276.5,863.7h-9.4V845h9.4v2.1h-7.2v4.9h6.4v2.2h-6.4v7.6h7.2V863.7z"/>
			<path class="st11" d="M308,854h-4l4,9.7h-2.4l-4-9.7h-2.8v9.7h-2.3V845H308V854L308,854z M298.8,847.1v4.9h7v-4.9H298.8z"/>
			<path class="st11" d="M328.7,863.6h-11.9v-18.7h11.9V863.6z M318.9,861.5h7.5v-14.4h-7.5V861.5z"/>
			<path class="st11" d="M347.4,852h2.1v11.7h-12V845h10L347.4,852L347.4,852z M345.1,847.1h-5.4v4.9h5.4V847.1z M339.7,861.5h7.5
				V854h-7.5V861.5z"/>
			<path class="st11" d="M370.1,863.6h-11.9v-18.7h11.9V863.6z M360.3,861.5h7.5v-14.4h-7.5V861.5z"/>
			<path class="st11" d="M388.2,844.9v2.2h-4.3v16.5h-2.3v-16.5h-4.3v-2.2H388.2z"/>
			<path class="st11" d="M419.1,863.6h-11.5v-18.7h11.5v2.2H410v14.4h9.1V863.6z"/>
			<path class="st11" d="M439.2,863.6h-11.9v-18.7h11.9V863.6z M429.5,861.5h7.5v-14.4h-7.5V861.5z"/>
			<path class="st11" d="M456.2,856.2h-2.7l-3.6-6.8v14.2h-2.3v-18.7h2.4l4.8,9l4.6-9h2.8v18.7h-2.4v-14.7L456.2,856.2z"/>
			<path class="st11" d="M481,852h2.1v11.7h-12V845h10L481,852L481,852z M478.7,847.1h-5.4v4.9h5.4V847.1z M473.3,861.5h7.5V854
				h-7.5V861.5z"/>
			<path class="st11" d="M491.7,844.9h12.1v18.7h-2.4v-9.7H494v9.7h-2.3V844.9z M494,852h7.5v-4.9H494V852z"/>
			<path class="st11" d="M522,844.9v2.2h-4.3v16.5h-2.3v-16.5h-4.3v-2.2H522z"/>
		</g>
		<g>
			<g>
				<path class="st12" d="M192.6,589.9l4.7,14.5h-5.8v30.4h-5.4l-0.1-27.1l-3,9.9h-5.8l7.4-27.7H178v-5.8h8.1v-12.3h5.4v12.3h5.7
					v5.8L192.6,589.9L192.6,589.9z M221.7,570.5l1.1,35.1h17.6v5.5H225l3.9,6.8l2.4-4.3h6.4l-5.4,10l6.6,11.5h-6.5l-3.3-5.7
					l-2.3,4.2h-6.3l5.2-9.7l-7-12.5h-11.5l-0.1,1.8l8,11.7h-7l-1.7-2.4l-3,11.5h-5.8l3.5-13.9l0.4-8.4h-2.3V606h18l-1.1-35.1
					L221.7,570.5L221.7,570.5z M199.2,599.9l4.7-10l-5.3-5l5.8-12.3h5.2l-5.2,11.1l1.6,1.6l1.7-3.8h5.2l-6.2,13.1l3.4-0.1l-0.1-3.3
					h4.5l0.5,9.5h-4.5l-0.1-1.5L199.2,599.9z M228.5,590.1l-5.7-5.4l6.2-12.1h5.5l-5.7,11l2,2l1.9-4h5.2l-6.4,12.8l3.9-0.1l-0.4-3
					h4.6l1.1,9.5h-4.6l-0.3-1.9l-12.3,0.7L228.5,590.1z M227.6,601.1h5.7l2.4,3.5H230L227.6,601.1z"/>
				<path class="st12" d="M323.9,616H318v15.8h-22.4v-17.6h14.1l-18.4-10.3l-16.8,10.3h14.9v17.6h-22.3V616h-5.8l19.5-12.1h-18v-5.5
					h25.4l0.9-6.1h5.7l-1,6.1h28.4v5.5h-19.9L323.9,616z M289.6,573.2v18.4h-22.7v-18.4H289.6z M318,573.2v18.4h-22.7v-18.4H318z"/>
				<path class="st12" d="M400.7,628.6l-5.3,4.2l-19.7-25.5l-18.4,25.5H349l23.1-32.3v-27.4h6.6v27.3L400.7,628.6"/>
				<path class="st12" d="M487.4,588v6.4H464l23.1,38.8h-7.2L459.1,598l-18.5,35.1h-7l20.3-38.8h-23.6V588h25.4v-15.1h6.3V588H487.4
					z"/>
				<path class="st12" d="M559.7,599.7l13,9.2h-8.5l-4.5-3.3v21.4h-35V606l-3.3,2.7h-8.1l11.6-8.9h-13.6v-4.3h18.4v-2.2h-6.3v-4.5
					h6.3v-2.3h-9.5v-4.3h9.5v-2.8h4.6v2.8h15.2v-2.8h4.6v2.8h9.6v4.4H554v2.3h6.3v4.5h-6.2v2.2h18.6v4.3L559.7,599.7L559.7,599.7
					L559.7,599.7z M517.8,578.7v4h-4.3v-8.3h26.2v-3h4.5v3h26.2v8.3h-4.3v-4H517.8z M522.3,634.7l3.7-4.4h7.7l-3.7,4.4H522.3z
					 M527.8,603.5h28.6l-5.4-3.8h-18.1L527.8,603.5z M555.4,609.8v-2.3h-26.9v2.3H555.4z M528.5,614.2v2.3h26.9v-2.3H528.5z
					 M528.5,623.2h26.9v-2.3h-26.9V623.2z M534.3,586.8v2.3h15.1v-2.3H534.3z M549.6,593.5h-15.2v2.2h15.2V593.5z M551.7,630.3h7.3
					l3.3,4.4H555L551.7,630.3z"/>
				<path class="st12" d="M218.1,677.9l14.2-16.2l14.2,15h-8l-6.1-6.4l-6.8,7.6H218.1L218.1,677.9z M227.2,710.6h-5.2l-1.2-9.6h5.2
					L227.2,710.6z M235,696.8v17l9-1.9v6.3l-23.1,4.9v-6.2l8.5-1.8v-18.2h-8.9v-5.3h9v-6h-6.3v-5.5h18v5.5H235v5.9h8.3v5.3H235
					L235,696.8z M237.8,708.4l1.2-7.3h5l-1.1,7.3H237.8z M247.8,662.4h34.2V724h-5.4v-56.2h-23.3V724h-5.4L247.8,662.4L247.8,662.4z
					 M273.4,673.3l-2.4,10.2h4.4v5h-8v19.7h2v-13.7h4.9v18.6h-19v-18.6h4.9v13.7h2v-19.7h-8v-5h11.6l2.4-10.2H273.4L273.4,673.3z
					 M261.6,673.3l1.7,6.6h-4.9l-1.7-6.6H261.6z"/>
				<path class="st12" d="M300.3,678.7l11.9-16.5l12,15.3h-6.8l-5-6.2l-5.3,7.4L300.3,678.7L300.3,678.7z M308.5,711.1h-5l-1-9.9h5
					L308.5,711.1z M314.7,696.9v17.2l7-1.8v5.8l-19.1,4.7v-5.7l6.9-1.8v-18.4h-6.9v-5h7v-6.2h-4.9v-5.2h14.9v5.2h-4.9v6.2h6.5v5
					L314.7,696.9L314.7,696.9z M316.5,708.8l0.9-7.7h4.9l-1,7.7H316.5z M366,682.4h-12.6l2.8,10.9l1.6-4.5h5.7l-5,13.9l5,20.8h-5.5
					l-2.8-11.5l-3.9,11.1h-5.8l7.3-20.7l-4.9-20.3h-23v-5h8.1v-3.6h-5.8v-5.3h5.8v-5.4h5.4v5.4h5.9v5.3h-5.9v3.6h8.8v-13.6h5.5v13.6
					H366L366,682.4L366,682.4z M325.8,716.8l7.3-1.4v-4.2h-5.7v-4.6h5.7v-3h-7v-4.6h20.8v4.6h-8.4v3h7.3v4.6h-7.3v3.3l7.7-1.4v5.2
					l-20.4,3.5L325.8,716.8L325.8,716.8L325.8,716.8z M326.9,684.6h17.7v12.5h-17.7V684.6z M339.9,692.3v-3h-8.3v3H339.9z
					 M362.9,672.6h-5.5l-2.3-8.1h5.5L362.9,672.6z"/>
				<path class="st12" d="M396.1,678.6v11.9l5.4-3v6.6l-5.4,3v27.6h-5.7v-24.5l-5,2.8v-6.7l5-2.8v-15h-4.6v-5.8h4.6V661h5.7v11.8
					h4.9v5.8H396.1L396.1,678.6z M429.9,671.8h19.2v15.1h-5.3v-9.9h-13.9V692h-5.3v-14.9h-13.8v10h-5.3v-15.1h19.1V667h-13.9v-5.3
					H444v5.3h-14.1L429.9,671.8L429.9,671.8z M409.7,723.3v-26.9h35v26.9H409.7z M422.1,680.2v4.9h-8.9v-4.9H422.1z M413.1,692v-4.7
					h8.9v4.7H413.1z M414.8,701.5v5.8h9.9v-5.8H414.8z M414.8,712.4v5.7h9.9v-5.7H414.8z M429.8,701.5v5.8h9.9v-5.8H429.8z
					 M429.8,712.4v5.7h9.9v-5.7H429.8z M441.2,680.2v4.9h-8.9v-4.9H441.2z M432.3,692v-4.7h8.9v4.7H432.3z"/>
				<path class="st12" d="M520.7,694.7l-1.7-5.4l-43.7,1.9l13.4-28.4h7l-10.2,21.6l31.8-1.4l-2.8-9.7h6.5l6.2,21.2L520.7,694.7
					L520.7,694.7z M479.2,723.4v-25.5h42.4v25.5H479.2z M485.5,704.2v12.9h29.7v-12.8L485.5,704.2L485.5,704.2z"/>
			</g>
			<circle class="st0" cx="278" cy="581.9" r="5.5"/>
			<circle class="st0" cx="306.6" cy="581.9" r="5.5"/>
			<circle class="st0" cx="279.2" cy="622.6" r="5.5"/>
			<circle class="st0" cx="306.6" cy="622.6" r="5.5"/>
			<g>
				<path class="st13" d="M399.4,627.6c-0.3,0.4-0.1,0.9,0.4,0.9h0.1c1.4,0.1,2.8,0.4,3.9,1.2c0.9,0.8,1.9,2.2,1.6,3.4
					c-0.1,0.4-0.5,0.9-0.9,0.9c-0.4-0.1-0.5-0.8-0.8-0.9c-0.5-0.9-1.7-1.2-2.7-1.1c-1.1,0.3-1.8,1.4-1.5,2.6c0.1,0.5,0.5,0.9,1,1.1
					c0.4,0.3,0.9,0.3,1.2,0.7c0.1,0.1,0.1,0.4,0.3,0.4c0,0.1,0,0.1-0.1,0.1c-0.1,0.1-0.5,0.4-0.8,0.4c-0.9,0.3-1.7,0.1-2.6,0
					c-1.8-0.4-3.1-2.8-2.8-4.6c0-0.1,0.1-0.3,0.1-0.4c0.3-0.5-0.4-0.9-0.9-0.8c-0.1,0.1-0.4,0.3-0.4,0.4c-0.1,0.3-0.1,0.4-0.1,0.5
					c-0.4,2.2,0.8,4.4,2.4,5.5c0.8,0.5,1.6,0.7,2.4,0.7s1.8,0,2.6-0.4c0.8-0.4,1.1-1,0.9-1.9c-0.1-0.5-0.4-0.9-0.9-1.2
					c-0.4-0.4-0.9-0.4-1.4-0.7c-0.4-0.3-0.4-0.9,0-1.1c0.4-0.3,0.9-0.1,1.2,0.1c0.9,0.4,1,1.5,1.9,1.9c0.9,0.4,2.2-0.5,2.4-1.4
					c0.4-0.9,0-2.3-0.4-3c-1.1-2.3-3.6-3.3-6.1-3.4h0.1C399.7,627.5,399.5,627.6,399.4,627.6z"/>
			</g>
		</g>
	</g>
	<g>
		<g>
			<line class="st14" x1="140.2" y1="758.3" x2="616.3" y2="758.3"/>
			<circle class="st5" cx="133.1" cy="758.3" r="11.5"/>
			<circle class="st5" cx="616.9" cy="758.3" r="11.5"/>
		</g>
	</g>
</g>
<line class="st3" x1="47.5" y1="414.3" x2="123.6" y2="414.3"/>
<polyline class="st3" points="723.7,452.1 723.7,361.7 755.3,361.7 "/>
<line class="st3" x1="777" y1="133.1" x2="717" y2="134.3"/>
<polyline class="st3" points="272.9,18 337.7,18 337.7,75 "/>
<polyline class="st3" points="25,275.7 78,275.7 78,199.5 173.1,199.5 "/>
<line class="st3" x1="565" y1="-41" x2="565" y2="29.7"/>
<line class="st3" x1="133.9" y1="199.5" x2="133.9" y2="114.6"/>
<line class="st3" x1="135.3" y1="168.2" x2="197.9" y2="168.2"/>
</svg>
