<?xml version="1.0" encoding="utf-8"?>
<!-- Generator: Adobe Illustrator 21.1.0, SVG Export Plug-In . SVG Version: 6.00 Build 0)  -->
<svg version="1.1" id="圖層_1" xmlns="http://www.w3.org/2000/svg" xmlns:xlink="http://www.w3.org/1999/xlink" x="0px" y="0px"
	 viewBox="0 0 750 950" style="enable-background:new 0 0 750 950;" xml:space="preserve">
<style type="text/css">
	.st0{fill:#85E4ED;}
	.st1{clip-path:url(#SVGID_2_);}
	.st2{fill:#518287;}
	.st3{fill:none;stroke:#85E4ED;stroke-width:6.2668;stroke-miterlimit:10;}
	.st4{fill:#FFFFFF;}
	.st5{fill:#66A9B0;}
	.st6{fill:#518287;stroke:#518287;stroke-width:1.5488;stroke-miterlimit:10;}
	.st7{fill:#66A9B0;stroke:#518287;stroke-width:6.0513;stroke-miterlimit:10;}
	.st8{fill:#FFFFFF;stroke:#FFFFFF;stroke-width:12.3906;stroke-miterlimit:10;}
	.st9{fill:none;stroke:#66A9B0;stroke-width:1.2104;stroke-miterlimit:10;}
	.st10{fill:none;stroke:#85E4ED;stroke-width:6.194;stroke-miterlimit:10;}
	.st11{fill:#518287;stroke:#518287;stroke-width:0.9798;stroke-miterlimit:10;}
	.st12{fill:none;stroke:#66A9B0;stroke-width:4.6731;stroke-miterlimit:10;}
	.st13{fill:#1D3030;stroke:#1D3030;stroke-width:1.1683;stroke-miterlimit:10;}
	.st14{fill:#1D3030;}
</style>
<rect x="-3" y="0.4" class="st0" width="763" height="963.9"/>
<g>
	<g id="圖層_2_1_">
		<g>
			<g>
				<g>
					<g>
						<g>
							<g>
								<g>
									<g>
										<g>
											<g>
												<g>
													<g>
														<g>
															<g>
																<defs>
																	<path id="SVGID_1_" d="M751,480H46.7C20.9,480,0,459,0,433v-646.7h751V480z"/>
																</defs>
																<clipPath id="SVGID_2_">
																	<use xlink:href="#SVGID_1_"  style="overflow:visible;"/>
																</clipPath>
																<g class="st1">
																	<g>
																		<g>
																			<polygon class="st2" points="1669.2,606.5 -786.4,596.9 -786.4,-466.3 1669.2,-456.4 																			"/>
																			<polygon class="st2" points="1863.3,605.3 -592.3,595.5 -592.3,-467.5 1863.3,-457.7 																			"/>
																			<g>
																				<path class="st3" d="M189-129"/>
																				<line class="st3" x1="-437.3" y1="-226.6" x2="-82.4" y2="-226.6"/>
																				<polyline class="st3" points="513,-191.7 798.5,-191.7 798.5,-283.9 																				"/>
																				<polyline class="st3" points="512.3,375.4 512.3,644.9 1012.2,644.9 1012.2,779.1 																				"/>
																				<polyline class="st3" points="486.3,376.5 816.1,376.5 816.1,204.4 1147.4,204.4 1147.4,-19 1714.4,-19 
																																									"/>
																				<polyline class="st3" points="-276.3,100.3 -276.3,442.9 -443.5,442.9 																				"/>
																				<polyline class="st3" points="1929.9,556 1651.2,556 1651.2,335.1 1409.4,335.1 1409.4,751.5 1360.3,751.5 
																																									"/>
																				<polyline class="st3" points="421,458.4 81.2,458.4 81.2,623.7 -45.1,623.7 -45.1,429.6 -196.5,429.6 
																					-196.5,666.2 -561.7,666.2 -561.7,779.1 																				"/>
																				<polyline class="st3" points="836,-137.1 715,-137.1 715,-48.7 670.3,-48.7 670.3,100.3 530.7,100.3 
																					530.7,184.5 																				"/>
																				<polyline class="st3" points="295,333.4 295,534.7 146.4,534.7 146.4,634.2 																				"/>
																				<polyline class="st3" points="580.7,374.3 580.7,527.9 913.8,527.9 913.8,409.7 1408.9,409.7 
																																									"/>
																				<polyline class="st3" points="-478.6,100.3 -379.1,100.3 -376.9,-61.1 -155.3,-61.1 																				"/>
																				<polyline class="st3" points="-276.3,309.1 -195.8,309.1 -195.8,100.3 																				"/>
																				<polyline class="st3" points="1194.1,320.8 1309.4,320.8 1309.4,172 																				"/>
																				<line class="st3" x1="568.8" y1="-61.1" x2="568.8" y2="-192.7"/>
																				<line class="st3" x1="67.4" y1="-225.5" x2="67.4" y2="-523.5"/>
																				<polyline class="st3" points="310.1,-153.9 426,-153.9 426,-446.8 																				"/>
																				<polyline class="st3" points="-259.5,779.1 -259.5,724 21.5,724 																				"/>
																				<line class="st3" x1="407.5" y1="418.5" x2="407.5" y2="779.1"/>
																				<polyline class="st3" points="407.5,641.6 294.7,641.6 294.7,779.1 																				"/>
																				<polyline class="st3" points="676.1,644.9 676.1,698.2 816.1,698.2 816.1,779.1 																				"/>
																				<polyline class="st3" points="1231,677.8 1231,731.1 1361.1,731.1 1361.1,812 																				"/>
																				<polyline class="st3" points="-196.5,566.7 -637.4,565.8 -637.4,678.4 																				"/>
																				<polyline class="st3" points="-26.4,179.8 -116.8,179.8 -116.8,429.6 																				"/>
																				<polyline class="st3" points="-45.1,489.9 29.5,489.9 29.5,376.5 329.4,374.5 																				"/>
																				<line class="st3" x1="21.5" y1="623.7" x2="21.5" y2="721.5"/>
																				<polyline class="st3" points="-71.5,-1.3 -71.5,45.1 -376.9,45.1 																				"/>
																				<polyline class="st3" points="127,-186.7 271,-186.7 271,19.9 359,19.9 																				"/>
																				<polyline class="st3" points="472.9,130 472.9,-250.6 600.8,-250.6 601.1,-355.8 601.4,-460 
																																									"/>
																				<line class="st3" x1="721.4" y1="-221.7" x2="721.4" y2="-437.6"/>
																				<polyline class="st3" points="225.1,-186.7 225.1,-129 165.5,-129 165.4,104.1 																				"/>
																				<line class="st3" x1="1081.1" y1="-283.9" x2="1081.1" y2="-235.2"/>
																				<line class="st3" x1="1157.5" y1="-283.9" x2="1157.5" y2="-165.1"/>
																				<polyline class="st3" points="1147.4,100.3 886.6,100.3 886.6,-46.1 																				"/>
																				<line class="st3" x1="686.3" y1="236.1" x2="686.3" y2="323.9"/>
																				<line class="st3" x1="886.6" y1="27" x2="1147.4" y2="27"/>
																				<polyline class="st3" points="1012.2,-96.4 1189.5,-96.4 1189.5,-18.1 																				"/>
																				<polyline class="st3" points="1147.4,140.3 1189.5,140.3 1189.5,410.1 																				"/>
																				<polyline class="st3" points="913.8,503.3 669.7,503.3 669.7,527.9 																				"/>
																				<polyline class="st3" points="816.1,326.8 1042,326.8 1042,410.1 																				"/>
																				<line class="st3" x1="913.8" y1="204.4" x2="913.8" y2="326.8"/>
																				<polyline class="st3" points="913.8,265.1 1116.9,265.1 1116.9,409.7 																				"/>
																				<polyline class="st3" points="516.5,570.9 625.8,570.9 625.8,767.4 																				"/>
																				<line class="st3" x1="580.7" y1="644.9" x2="580.7" y2="779.1"/>
																				<polyline class="st3" points="714.2,644.9 714.2,569.2 1116.9,569.2 1116.9,437.9 1408.9,437.9 
																																									"/>
																				<polyline class="st3" points="1714.4,623.7 1109.1,623.7 1109.1,779.1 																				"/>
																				<line class="st3" x1="1012.2" y1="701.2" x2="1109.1" y2="701.2"/>
																				<line class="st3" x1="924.6" y1="645.7" x2="924.6" y2="779.1"/>
																				<polyline class="st3" points="993.4,584.9 993.4,527.8 1116.9,527.8 																				"/>
																				<polyline class="st3" points="1714.4,680.9 1168.3,680.9 1168.3,779.1 																				"/>
																				<path class="st3" d="M-666,274.8"/>
																				<line class="st3" x1="-276.3" y1="186.6" x2="-478.6" y2="186.6"/>
																				<polyline class="st3" points="-103.6,721.5 -103.6,527.9 -195.8,527.9 																				"/>
																				<polyline class="st3" points="-321.4,564.1 -321.4,490.9 -619.8,490.9 -619.8,313.5 																				"/>
																				<polyline class="st3" points="-348.8,442.9 -348.8,234 -478.6,234 																				"/>
																				<polyline class="st3" points="-437.3,-174.8 -263,-174.8 -263,-61.1 																				"/>
																				<polyline class="st3" points="-263,-107.2 -103.6,-107.2 -103.6,-1.3 																				"/>
																				<line class="st3" x1="-235.9" y1="-226.6" x2="-235.9" y2="-420.8"/>
																				<line class="st3" x1="-190" y1="-226.6" x2="-190" y2="-107.2"/>
																				<line class="st3" x1="37.6" y1="-250.7" x2="37.6" y2="-365.6"/>
																				<polyline class="st3" points="1519.5,338.9 1519.5,171.7 1285.1,171.7 1285.1,68.2 1147.2,68.2 
																																									"/>
																				<line class="st3" x1="1452.1" y1="171.7" x2="1452.1" y2="-31.6"/>
																				<polyline class="st3" points="1359.6,171.7 1359.6,233.6 1519.5,233.6 																				"/>
																				<polyline class="st3" points="1337.6,176.1 1337.6,112 1391.5,112 1391.5,-25.7 																				"/>
																				<polyline class="st3" points="323.3,495.8 325.3,680.9 171.7,680.9 101.3,680.9 101.3,779.1 
																																									"/>
																				<line class="st3" x1="-376.9" y1="618.2" x2="-271.2" y2="618.2"/>
																				<line class="st3" x1="-348.8" y1="704.6" x2="-348.8" y2="751.6"/>
																				<line class="st3" x1="-397.2" y1="297.6" x2="-397.2" y2="373.3"/>
																				<line class="st3" x1="-230" y1="367.1" x2="-167.1" y2="367.1"/>
																				<line class="st3" x1="-308.9" y1="-6.1" x2="-235.9" y2="-6.1"/>
																				<line class="st3" x1="-384.8" y1="-119.9" x2="-321.4" y2="-119.9"/>
																				<line class="st3" x1="351.3" y1="686.5" x2="351.3" y2="743.4"/>
																				<line class="st3" x1="1261.9" y1="363.2" x2="1364.6" y2="363.2"/>
																				<line class="st3" x1="879.1" y1="612.1" x2="952.9" y2="612.1"/>
																				<line class="st3" x1="521.3" y1="710" x2="521.3" y2="751.6"/>
																				<line class="st3" x1="809.4" y1="7.8" x2="809.4" y2="81.8"/>
																				<line class="st3" x1="964.3" y1="459" x2="1042" y2="459"/>
																				<line class="st3" x1="1180.4" y1="497.9" x2="1180.4" y2="570.9"/>
																				<line class="st3" x1="685.2" y1="429.1" x2="828.7" y2="429.1"/>
																				<line class="st3" x1="952.9" y1="-165.1" x2="952.9" y2="-92"/>
																				<line class="st3" x1="147.7" y1="736" x2="225.7" y2="736"/>
																				<polyline class="st3" points="1231.3,440.1 1230.1,540 1408.9,541.5 																				"/>
																				<polyline class="st3" points="1451.1,338.4 1451.1,396.1 1508.7,396.1 1508.7,678.6 1295.4,678.6 1295.4,800.5 
																																									"/>
																				<polyline class="st3" points="-493.4,-435.7 -493.4,-303.2 -437.7,-303.2 -439.7,40.1 -477.9,40.1 
																					-479.6,312.3 -442.3,312.3 -442.3,447.4 																				"/>
																				<line class="st3" x1="1439.9" y1="455.2" x2="1439.9" y2="561.8"/>
																				<line class="st3" x1="1203.5" y1="24" x2="1331.3" y2="24"/>
																				<line class="st3" x1="1433.2" y1="233.6" x2="1433.2" y2="335.1"/>
																				<line class="st3" x1="-561.7" y1="494.1" x2="-561.7" y2="569.6"/>
																				<line class="st3" x1="-572.3" y1="359.1" x2="-572.3" y2="447.4"/>
																				<line class="st3" x1="-448.9" y1="142.9" x2="-320.9" y2="142.9"/>
																				<polyline class="st3" points="1452.1,20.8 1535,20.8 1535,-105.5 1635.9,-105.5 																				"/>
																				<line class="st3" x1="-499.6" y1="531" x2="-396.7" y2="531"/>
																				<line class="st3" x1="-553.9" y1="100.3" x2="-553.9" y2="186.6"/>
																			</g>
																			<g>
																				<circle class="st0" cx="-45.1" cy="429.5" r="11.7"/>
																				<circle class="st0" cx="29.5" cy="491.5" r="11.7"/>
																				<circle class="st0" cx="-45.1" cy="623.7" r="11.7"/>
																				<circle class="st0" cx="-196.5" cy="429.6" r="11.7"/>
																				<circle class="st0" cx="-104.9" cy="527.9" r="11.7"/>
																				<circle class="st0" cx="-196.5" cy="666.2" r="11.7"/>
																				<circle class="st0" cx="-259.5" cy="724" r="11.7"/>
																				<circle class="st0" cx="-321.4" cy="492.4" r="11.7"/>
																				<circle class="st0" cx="-618" cy="492.4" r="11.7"/>
																				<circle class="st0" cx="-376.9" cy="618.2" r="11.7"/>
																				<circle class="st0" cx="-271.2" cy="618.2" r="11.7"/>
																				<circle class="st0" cx="-348.8" cy="700.9" r="11.7"/>
																				<circle class="st0" cx="-348.8" cy="755.1" r="11.7"/>
																				<circle class="st0" cx="-276.3" cy="442.9" r="11.7"/>
																				<circle class="st0" cx="-348.8" cy="234" r="11.7"/>
																				<circle class="st0" cx="-550.5" cy="234" r="11.7"/>
																				<circle class="st0" cx="-446.1" cy="142.8" r="11.7"/>
																				<circle class="st0" cx="-320.4" cy="142.8" r="11.7"/>
																				<circle class="st0" cx="-441.4" cy="312.6" r="11.7"/>
																				<circle class="st0" cx="-441.4" cy="442.9" r="11.7"/>
																				<circle class="st0" cx="-504" cy="532.2" r="11.7"/>
																				<circle class="st0" cx="-397.2" cy="532.2" r="11.7"/>
																				<circle class="st0" cx="-397.2" cy="297.6" r="11.7"/>
																				<circle class="st0" cx="-397.2" cy="375.3" r="11.7"/>
																				<circle class="st0" cx="-195.8" cy="309.1" r="11.7"/>
																				<circle class="st0" cx="-276.3" cy="100.3" r="11.7"/>
																				<circle class="st0" cx="-376.9" cy="97.5" r="11.7"/>
																				<circle class="st0" cx="-376.9" cy="-61.1" r="11.7"/>
																				<circle class="st0" cx="-438.5" cy="38.5" r="11.7"/>
																				<circle class="st0" cx="-263" cy="-174.8" r="11.7"/>
																				<circle class="st0" cx="-315.4" cy="-119.9" r="11.7"/>
																				<circle class="st0" cx="-230.3" cy="-6.1" r="11.7"/>
																				<circle class="st0" cx="-315.4" cy="-6.1" r="11.7"/>
																				<circle class="st0" cx="-664.1" cy="312.6" r="11.7"/>
																				<circle class="st0" cx="-664.1" cy="35.4" r="11.7"/>
																				<circle class="st0" cx="-572.9" cy="355.4" r="11.7"/>
																				<circle class="st0" cx="-572.9" cy="452.4" r="11.7"/>
																				<circle class="st0" cx="-635.1" cy="564.9" r="11.7"/>
																				<circle class="st0" cx="-104.9" cy="-106.3" r="11.7"/>
																				<circle class="st0" cx="-155.3" cy="-1.3" r="11.7"/>
																				<circle class="st0" cx="-81.7" cy="-226.6" r="11.7"/>
																				<circle class="st0" cx="37.6" cy="-251.6" r="11.7"/>
																				<circle class="st0" cx="37.6" cy="-366.1" r="11.7"/>
																				<line class="st3" x1="511.9" y1="-296.3" x2="511.9" y2="-370.3"/>
																				<circle class="st0" cx="511.9" cy="-297.1" r="11.7"/>
																				<circle class="st0" cx="314.3" cy="-357.7" r="11.7"/>
																				<circle class="st0" cx="314.3" cy="-285.2" r="11.7"/>
																				<circle class="st0" cx="511.9" cy="-370.9" r="11.7"/>
																				<circle class="st0" cx="656.7" cy="-356.4" r="11.7"/>
																				<circle class="st0" cx="656.7" cy="-273.5" r="11.7"/>
																				<circle class="st0" cx="271" cy="-186.7" r="11.7"/>
																				<circle class="st0" cx="226" cy="-186.7" r="11.7"/>
																				<circle class="st0" cx="226" cy="-129" r="11.7"/>
																				<circle class="st0" cx="167.4" cy="-129" r="11.7"/>
																				<circle class="st0" cx="165.4" cy="103.9" r="11.7"/>
																				<circle class="st0" cx="235.4" cy="60" r="11.7"/>
																				<circle class="st0" cx="235.4" cy="-61.3" r="11.7"/>
																				<circle class="st0" cx="271" cy="20.2" r="11.7"/>
																				<circle class="st0" cx="407" cy="-50.1" r="11.7"/>
																				<circle class="st0" cx="715" cy="-136.5" r="11.7"/>
																				<circle class="st0" cx="715" cy="-49.5" r="11.7"/>
																				<circle class="st0" cx="407" cy="52.8" r="11.7"/>
																				<circle class="st0" cx="289.4" cy="124" r="11.7"/>
																				<circle class="st0" cx="426" cy="-153.9" r="11.7"/>
																				<circle class="st0" cx="472.9" cy="-250" r="11.7"/>
																				<circle class="st0" cx="600.8" cy="-254.6" r="11.7"/>
																				<circle class="st0" cx="568.8" cy="-61.1" r="11.7"/>
																				<circle class="st0" cx="530.9" cy="100.1" r="11.7"/>
																				<circle class="st0" cx="591.3" cy="14.1" r="11.7"/>
																				<path class="st0" d="M512.6-203.2c8-1.3,14.8,5.5,13.5,13.5c-0.8,4.8-4.7,8.7-9.5,9.5
																					c-8,1.3-14.8-5.5-13.5-13.5C503.9-198.5,507.8-202.4,512.6-203.2z"/>
																				<circle class="st0" cx="816.1" cy="-210.7" r="11.7"/>
																				<circle class="st0" cx="903.1" cy="-131.7" r="11.7"/>
																				<circle class="st0" cx="1079.8" cy="-235.2" r="11.7"/>
																				<circle class="st0" cx="903.1" cy="-235.2" r="11.7"/>
																				<circle class="st0" cx="1010.7" cy="-165.1" r="11.7"/>
																				<circle class="st0" cx="952.9" cy="-172.3" r="11.7"/>
																				<circle class="st0" cx="952.9" cy="-84.8" r="11.7"/>
																				<circle class="st0" cx="1188.1" cy="-96.4" r="11.7"/>
																				<circle class="st0" cx="1010.7" cy="31.9" r="11.7"/>
																				<circle class="st0" cx="886.6" cy="100.3" r="11.7"/>
																				<circle class="st0" cx="809.4" cy="-1.5" r="11.7"/>
																				<circle class="st0" cx="809.4" cy="81.8" r="11.7"/>
																				<circle class="st0" cx="669.7" cy="100" r="11.7"/>
																				<path class="st0" d="M661.2-58.1c12.5-9.5,26.6,4.6,17.1,17.1C665.8-31.5,651.7-45.6,661.2-58.1z"/>
																				<circle class="st0" cx="1015.4" cy="155.3" r="11.7"/>
																				<circle class="st0" cx="816.1" cy="204.4" r="11.7"/>
																				<circle class="st0" cx="686.3" cy="236" r="11.7"/>
																				<circle class="st0" cx="686.3" cy="324.8" r="11.7"/>
																				<circle class="st0" cx="580.7" cy="527.9" r="11.7"/>
																				<circle class="st0" cx="1269.9" cy="363.2" r="11.7"/>
																				<circle class="st0" cx="913.8" cy="527.9" r="11.7"/>
																				<circle class="st0" cx="714.2" cy="570.9" r="11.7"/>
																				<circle class="st0" cx="1365.8" cy="363.2" r="11.7"/>
																				<circle class="st0" cx="1203.9" cy="23.4" r="11.7"/>
																				<circle class="st0" cx="1332.8" cy="4.6" r="11.7"/>
																				<circle class="st0" cx="625.2" cy="572.7" r="11.7"/>
																				<circle class="st0" cx="294.7" cy="641.6" r="11.7"/>
																				<circle class="st0" cx="351.3" cy="680.9" r="11.7"/>
																				<circle class="st0" cx="351.3" cy="751.6" r="11.7"/>
																				<circle class="st0" cx="512.3" cy="644.9" r="11.7"/>
																				<circle class="st0" cx="521.3" cy="704.3" r="11.7"/>
																				<circle class="st0" cx="521.3" cy="758.8" r="11.7"/>
																				<circle class="st0" cx="816.1" cy="698.2" r="11.7"/>
																				<circle class="st0" cx="1012.2" cy="645.7" r="11.7"/>
																				<circle class="st0" cx="1116.9" cy="569.9" r="11.7"/>
																				<circle class="st0" cx="1180.4" cy="494.1" r="11.7"/>
																				<circle class="st0" cx="1180.4" cy="574.3" r="11.7"/>
																				<circle class="st0" cx="1440.3" cy="455.3" r="11.7"/>
																				<circle class="st0" cx="1451.9" cy="397.1" r="11.7"/>
																				<circle class="st0" cx="1440.3" cy="555" r="11.7"/>
																				<circle class="st0" cx="1242.4" cy="539.3" r="11.7"/>
																				<circle class="st0" cx="1116.9" cy="437.4" r="11.7"/>
																				<circle class="st0" cx="1047.9" cy="459" r="11.7"/>
																				<circle class="st0" cx="957.5" cy="459" r="11.7"/>
																				<circle class="st0" cx="993.4" cy="527.8" r="11.7"/>
																				<circle class="st0" cx="876.6" cy="612.1" r="11.7"/>
																				<circle class="st0" cx="954.6" cy="612.1" r="11.7"/>
																				<circle class="st0" cx="1109.1" cy="627.9" r="11.7"/>
																				<circle class="st0" cx="913.8" cy="409.7" r="11.7"/>
																				<circle class="st0" cx="678.7" cy="429.1" r="11.7"/>
																				<circle class="st0" cx="671.1" cy="508.5" r="11.7"/>
																				<circle class="st0" cx="832.5" cy="429.1" r="11.7"/>
																				<circle class="st0" cx="1168.3" cy="680.9" r="11.7"/>
																				<circle class="st0" cx="146.4" cy="536.5" r="11.7"/>
																				<circle class="st0" cx="249.6" cy="680.9" r="11.7"/>
																				<circle class="st0" cx="225.7" cy="736" r="11.7"/>
																				<circle class="st0" cx="147.7" cy="736" r="11.7"/>
																				<circle class="st0" cx="816.1" cy="375.3" r="11.7"/>
																				<circle class="st0" cx="1042" cy="325.5" r="11.7"/>
																				<circle class="st0" cx="1117.6" cy="265.2" r="11.7"/>
																				<circle class="st0" cx="1410.5" cy="337.1" r="11.7"/>
																				<circle class="st0" cx="913.8" cy="325.5" r="11.7"/>
																				<circle class="st0" cx="-230" cy="367.1" r="11.7"/>
																				<circle class="st0" cx="-167.1" cy="367.1" r="11.7"/>
																				<circle class="st0" cx="-71.5" cy="45.2" r="11.7"/>
																				<circle class="st0" cx="1361.3" cy="234.1" r="11.7"/>
																				<circle class="st0" cx="1518.4" cy="170.1" r="11.7"/>
																				<circle class="st0" cx="1508.8" cy="437.7" r="11.7"/>
																				<circle class="st0" cx="1189.5" cy="140.3" r="11.7"/>
																				<circle class="st0" cx="1286.5" cy="70.6" r="11.7"/>
																				<circle class="st0" cx="1336.9" cy="113.3" r="11.7"/>
																				<circle class="st0" cx="1389.3" cy="113.3" r="11.7"/>
																				<circle class="st0" cx="1286.5" cy="169.5" r="11.7"/>
																				<circle class="st0" cx="1309.8" cy="320.8" r="11.7"/>
																				<circle class="st0" cx="242.7" cy="-226.6" r="11.7"/>
																				<circle class="st0" cx="349.8" cy="-226.6" r="11.7"/>
																				<circle class="st0" cx="194.6" cy="-364.9" r="11.7"/>
																				<circle class="st0" cx="-116.8" cy="179.8" r="11.7"/>
																				<circle class="st0" cx="81.2" cy="623.7" r="11.7"/>
																				<circle class="st0" cx="21.5" cy="724" r="11.7"/>
																				<circle class="st0" cx="81.2" cy="459.9" r="11.7"/>
																				<circle class="st0" cx="30.9" cy="376.8" r="11.7"/>
																				<circle class="st0" cx="-599" cy="188.9" r="11.7"/>
																				<circle class="st0" cx="-599" cy="274.2" r="11.7"/>
																				<circle class="st0" cx="-585.4" cy="97.5" r="11.7"/>
																				<circle class="st0" cx="-630.1" cy="2.6" r="11.7"/>
																				<circle class="st0" cx="-542.8" cy="2.6" r="11.7"/>
																			</g>
																		</g>
																		<line class="st3" x1="-714.9" y1="143.3" x2="-802.2" y2="143.3"/>
																		<polyline class="st3" points="-542.2,34.4 -542.2,1.3 -631.6,1.3 -631.6,-190.5 																		"/>
																		<polyline class="st3" points="-619.8,367.9 -691.6,368.4 -802.2,368.4 																		"/>
																		<line class="st3" x1="-714.9" y1="565.8" x2="-714.9" y2="367.9"/>
																	</g>
																</g>
															</g>
														</g>
													</g>
												</g>
											</g>
										</g>
									</g>
								</g>
							</g>
						</g>
					</g>
				</g>
				<g>
					<g>
						<circle class="st0" cx="375" cy="359.7" r="271.2"/>
						<g>
							<g>
								<g>
									<g>
										<g>
											<path class="st4" d="M316.7,544.8c-1-5.9-3.3-11.6-5.9-17c-2.4-0.5-4.6-0.8-7-1c-2.2-0.2-4.6-0.3-6.7-1.3
												c-0.6-0.3-1.3-0.6-1.7-1.1c-4.1,5.4-8.4,10.7-11.6,16.7C293.3,547.2,305.7,546,316.7,544.8z"/>
											<g>
												<path class="st5" d="M317.5,428.3c3.6,0.8,7.3,2,10.7,3.3c3.3,1.2,6.5,2.5,9.6,4.2c1.1-3.4,2.3-6.8,4.2-9.9
													c0-0.2,0.2-0.2,0.2-0.3c-1.4-0.8-2.6-1.4-4-2.2c-5-3.1-9.6-6.7-13.8-10.7c-1.9,2.6-3.3,5.7-4.3,8.7
													C319.1,423.7,318.3,426,317.5,428.3z"/>
												<path class="st5" d="M317.5,460.7c-2.1-0.8-4.3-1.8-6.3-2.7c-0.9-0.5-2.1-0.8-3-1.3c-0.3,1-0.6,2.1-0.8,3
													c-1.6,6.2-3,12.4-4.1,18.6c6.2,2.2,12.6,3.3,18.8,5.6c0.9-3.2,1.9-6.5,3-9.7c1.1-3.3,2.2-6.9,3.2-10.2
													C324.5,463.4,321,462.2,317.5,460.7z"/>
												<path class="st5" d="M302.7,482.2c-0.6,3.4-1.1,6.8-1.5,10.2c-0.5,3.6-0.9,7-1.5,10.5c0.6,0.2,1.4,0.3,2,0.5
													c2,0.5,4.2,1.1,6.2,1.4c1.9,0.3,3.7,0.8,5.7,0.8c0.6,0,1.2,0,1.9-0.2c0.2,0,0.5-0.2,0.6-0.2c0.5-2,1.1-4,1.5-6
													c0.9-3.9,2-7.7,3.1-11.5C314.6,485.9,308.4,484.6,302.7,482.2z"/>
												<path class="st5" d="M316.1,432.4c-0.5,1.2-0.8,2.5-1.2,3.7c-1.9,5.6-3.7,11.2-5.4,16.7c1.2,0.5,2.3,0.9,3.4,1.4
													c2,0.8,4.2,1.7,6.2,2.5c3.3,1.2,6.7,2.5,10.2,3.3c1.2-3.9,2.6-7.7,4-11.6c0.9-2.6,1.9-5.3,2.9-7.9
													c-3.3-2-6.8-3.4-10.4-4.6C322.6,434.5,319.2,433.8,316.1,432.4z"/>
												<path class="st5" d="M307.5,509.3c-2.3-0.5-4.5-1.1-6.7-1.5c-0.6-0.2-1.2-0.3-1.9-0.5c0,0.5-0.2,1.1-0.2,1.5
													c-0.3,2.6-0.9,5.3-1.1,7.9c0,1.4-0.2,2.8,0.3,4c0.2,0.3,0.8,0.9,1.2,1.1c1.1,0.3,2,0.5,3.1,0.6c2.6,0.2,5.3,0.5,7.9,0.9
													c1.7-4.3,3.1-8.7,4.3-13.2c-0.3,0-0.5,0.2-0.8,0.2C311.7,510.1,309.5,509.8,307.5,509.3z"/>
											</g>
											<path class="st2" d="M303.3,478c-0.3-0.2-0.6-0.2-1.1-0.3c-2.2-0.8-3.7,2.9-1.5,3.9c0.6,0.3,1.2,0.5,1.9,0.8
												c5.9,2.3,11.9,3.7,18,5.6c0.6,0.2,1.1,0.3,1.7,0.5c2.8,0.9,3.7-3.3,1.1-4.2c-0.5-0.2-1.1-0.3-1.5-0.6
												C315.8,481.3,309.3,480.2,303.3,478z"/>
											<path class="st2" d="M319.1,456.7c-2-0.8-4.2-1.7-6.2-2.5c-1.1-0.5-2.3-0.9-3.4-1.4c-0.8-0.3-1.7-0.5-2.5-0.6
												c-2-0.3-3.4,2.2-1.4,3.4c0.8,0.5,1.7,0.9,2.8,1.4c0.9,0.5,2,0.8,2.9,1.2c2,0.9,4.2,1.7,6.2,2.6c3.4,1.4,7,2.6,10.5,3.4
												c0.5,0.2,0.9,0.2,1.5,0.3c2.8,0.5,4-3.9,1.2-4.3c-0.5,0-0.9-0.2-1.2-0.3C325.7,459.2,322.3,457.9,319.1,456.7z"/>
											<path class="st2" d="M317.5,428.3c-0.8-0.2-1.5-0.3-2.3-0.5c-2-0.3-3.4,2.3-1.4,3.4c0.8,0.5,1.5,0.8,2.3,1.1
												c3.1,1.2,6.5,2.2,9.6,3.3c3.6,1.2,7.1,2.6,10.4,4.6c0.5,0.3,0.9,0.5,1.4,0.8c2.5,1.7,4.8-2.3,2.3-4
												c-0.6-0.5-1.4-0.9-2.2-1.2c-3.1-1.7-6.4-3.1-9.6-4.2C324.7,430.3,321.1,429.1,317.5,428.3z"/>
											<g>
												<path class="st6" d="M342.2,425.7c0,0.2-0.2,0.2-0.2,0.3c-1.9,3.1-3.1,6.5-4.2,9.9c0.8,0.5,1.4,0.8,2.2,1.2
													c2.5,1.7,0.2,5.6-2.3,4c-0.5-0.3-0.9-0.6-1.4-0.8c-0.9,2.6-1.9,5.3-2.9,7.9c-1.4,3.9-2.6,7.7-4,11.6
													c0.5,0.2,0.9,0.2,1.2,0.3c2.8,0.5,1.7,4.8-1.2,4.3c-0.5-0.2-1.1-0.2-1.5-0.3c-1.1,3.3-2.2,6.7-3.1,9.9
													c-0.9,3.1-2,6.4-2.9,9.4c0.5,0.2,1.1,0.3,1.5,0.6c2.6,1.1,1.5,5.1-1.1,4.2c-0.6-0.2-1.1-0.3-1.7-0.5
													c-1.1,3.9-2.2,7.6-3.1,11.5c-0.5,2-0.9,4-1.5,6c0.2,0,0.3,0,0.5,0s0.5,0,0.6,0.2c1.2,0.2,2,1.5,1.5,2.8
													c0,0-0.2,0.2-0.2,0.6c-0.2,0.3-0.5,0.6-0.8,0.8c-0.3,0.2-0.9,0.3-1.2,0.5c-0.5,0.2-1.1,0.2-1.7,0.2
													c-1.2,4.5-2.6,8.8-4.3,13.2c-2.6-0.5-5.3-0.6-7.9-0.9c-1.1-0.2-2-0.2-3.1-0.6c-0.5-0.2-1.1-0.6-1.2-1.1
													c-0.5-1.2-0.5-2.8-0.3-4c0.2-2.6,0.6-5.3,1.1-7.9c0-0.5,0.2-0.9,0.2-1.5c-1.2-0.3-2.3-0.6-3.6-1.1
													c-1.9-0.8-0.9-3.9,0.9-3.7c1.1,0,2,0.3,3.1,0.6c0.5-3.6,0.9-7,1.5-10.5c0.5-3.4,1.1-6.8,1.5-10.2
													c-0.6-0.3-1.2-0.5-1.9-0.8c-2.2-0.9-0.6-4.6,1.5-3.9c0.3,0.2,0.6,0.2,1.1,0.3c1.1-6,2.3-12.1,4-18.1
													c0.3-0.9,0.6-2,0.8-2.9c-0.9-0.5-1.9-0.8-2.8-1.4c-2-1.2-0.6-3.7,1.4-3.4c0.8,0.2,1.7,0.3,2.5,0.6
													c1.7-5.6,3.7-11.2,5.4-16.7c0.5-1.2,0.8-2.5,1.2-3.7c-0.8-0.3-1.5-0.6-2.3-1.1c-2-1.1-0.5-3.7,1.4-3.4
													c0.8,0.2,1.5,0.3,2.3,0.5c0.8-2.3,1.7-4.6,2.6-7c1.2-2.8,2.5-6,4.3-8.7c0.3-0.5,0.8-1.1,1.1-1.4c2-2-1.1-5-3.1-3.1
													c-0.5,0.5-0.8,0.8-1.2,1.2c-4.2,4.6-6.4,11.3-8.4,16.9c-2.5,7-4.5,14.1-7,21.1c-7.4,20.8-9.6,42.9-12.7,64.6
													c-0.3,2.5-0.8,5.6-0.5,8.2c1.9-1.7,5.1,0.9,3.6,3.1c-0.5,0.6-0.8,1.1-1.2,1.7c0.5,0.5,1.1,0.8,1.7,1.1
													c2,0.9,4.3,1.1,6.5,1.2c2.3,0.2,4.5,0.5,6.8,0.9c-0.2-0.3-0.3-0.6-0.5-1.1c-1.2-2.8,2.6-5.1,4-2.3
													c0.2,0.5,0.3,0.8,0.6,1.2c3.1-7.6,5.3-15.5,7.3-23.5c2.2-8.5,4.6-16.9,7.3-25.1c2.8-8.7,5.4-17.3,8.5-25.9
													c1.4-4.2,3.1-8.2,4.5-12.4c1.2-3.6,2.3-7.4,4.3-10.7c0.2-0.2,0.2-0.5,0.3-0.6C347,425.4,343.7,423.7,342.2,425.7z"/>
												<path class="st6" d="M309.6,527.3c0.2,0.3,0.3,0.6,0.5,1.1c2.5,5.3,4.6,10.8,5.7,16.6c-10.7,1.2-22.6,2.2-32.1-3.6
													c3.1-5.9,7.3-11,11.3-16.3c0.5-0.6,0.8-1.1,1.2-1.7c1.5-2.2-1.9-4.8-3.6-3.1c0,0-0.2,0.2-0.3,0.2
													c-5.1,6.5-10.7,12.9-14.1,20.4c-0.6,1.4-0.3,2.5,0.9,3.4c11,8.4,26.5,6.8,39.3,5.3c1.2-0.2,2.6-1.1,2.5-2.5
													c-0.9-7.3-3.4-14.4-6.8-20.9c-0.2-0.5-0.3-0.8-0.6-1.2C312.3,522.2,308.4,524.5,309.6,527.3z"/>
												<path class="st6" d="M314.1,505.6c-1.9,0-3.9-0.3-5.7-0.8c-2-0.5-4.2-0.9-6.2-1.4c-0.6-0.2-1.2-0.3-2-0.5
													c-1.1-0.3-2-0.5-3.1-0.6c-1.9,0-2.9,2.9-0.9,3.7c1.1,0.5,2.3,0.8,3.6,1.1c0.6,0.2,1.2,0.3,1.9,0.5
													c2.2,0.6,4.5,1.2,6.7,1.5c2,0.5,4.2,0.8,6.4,0.8c0.3,0,0.5,0,0.8-0.2c0.6,0,1.1,0,1.7-0.2c0.5-0.2,0.9-0.3,1.2-0.5
													c0.3-0.2,0.6-0.5,0.8-0.8s0.2-0.5,0.2-0.6c0.5-1.1-0.3-2.6-1.5-2.8c-0.2,0-0.5-0.2-0.6-0.2c-0.2,0-0.3,0-0.5,0
													s-0.3,0.2-0.6,0.2C315.3,505.6,314.7,505.6,314.1,505.6z"/>
											</g>
										</g>
										<g>
											<path class="st4" d="M228,448.6c-0.2,0-0.2,0-0.3,0c-6.2,2.3-10.5,10.8-8.1,16.9c1.1,2.6,2.6,5.4,4.8,7.4
												c0.6,0.6,1.9,1.5,2.5,1.5c0.3,0,0.3,0,0.5-0.2c0.5-0.5,0.8-0.9,0.9-1.4c0.8-1.7-0.3-3.3-0.5-5c-0.3-1.9,0-3.7,1.2-5.3
												c2.8-3.1,7.4-3.6,10.4-0.3c2.3,2.6,2.9,6.8,1.7,10.1c-0.3,0.9-1.9,3.1-1.5,4c0.5,1.5,3.1,1.7,4.3,1.2
												c4-1.7,6.5-7.3,6.7-11.5c0.3-5-1.2-9.6-3.9-13.9c-0.2,0-0.2,0-0.3,0C240.6,450.9,234.4,448.6,228,448.6z"/>
											<g>
												<path class="st5" d="M275.7,361.1c4,7.7,8.7,15,11.8,23.1c1.2-0.8,2.5-1.5,3.7-2.3c-0.5-9.8-0.6-19.7-0.3-29.4
													C285.3,354.3,280.2,357.4,275.7,361.1z"/>
												<path class="st5" d="M272.3,364.1c-1.7,1.5-3.3,3.1-4.8,4.6c-3.1,3.3-6,6.7-8.8,10.2c6.7,3.4,12.1,9.9,15.8,16.4
													c2.9-3.1,6-6,9.4-8.5C281,378.8,276.3,371.5,272.3,364.1z"/>
												<path class="st5" d="M256,382.5c-2.2,2.9-4.2,5.9-6,9c-1.9,3.1-3.7,6.2-5.3,9.4c5.6,4,11.6,7.3,17,11.5
													c0.3-0.6,0.6-1.1,0.9-1.7c2.6-4.3,5.6-8.4,8.8-12.1c-0.2-0.2-0.3-0.3-0.5-0.5C267.7,391.9,262.4,385.6,256,382.5z"/>
												<path class="st5" d="M242.6,404.6c-3.4,6.8-6.2,14.1-8.4,21.4c2.8,0.2,5.6,1.1,8.2,2c3.4,1.4,6.7,2.9,9.6,5
													c2.2-5.9,4.6-11.5,7.6-17c0,0-0.2,0-0.2-0.2C254.2,411.8,248.2,408.7,242.6,404.6z"/>
												<path class="st5" d="M233,430.5c-1.2,4.6-2,9.3-2.6,13.9c5.7,0.5,11.2,2.3,16.7,3.7c1.1-3.7,2.3-7.3,3.6-10.8
													c-0.2,0-0.3-0.2-0.5-0.2C245.4,433.8,239,430.3,233,430.5z"/>
											</g>
											<g>
												<path class="st6" d="M229.6,444.3c0.3,0,0.5,0,0.8,0c0.6-4.6,1.5-9.3,2.6-13.9c-0.5,0-0.9,0-1.4,0c-2.8,0.3-2.8-4,0-4.3
													c0.9-0.2,1.7-0.2,2.6,0c2.2-7.3,5-14.6,8.4-21.4c-0.3-0.2-0.6-0.5-0.9-0.6c-2.2-1.7,0-5.4,2.2-3.7
													c0.3,0.2,0.5,0.3,0.8,0.5c1.7-3.3,3.4-6.4,5.3-9.4c1.9-3.1,4-6,6-9c-0.2,0-0.2-0.2-0.3-0.2c-2.5-1.2-0.3-5,2.2-3.7
													c0.3,0.2,0.5,0.3,0.8,0.5c2.8-3.6,5.7-7,8.8-10.2c1.5-1.7,3.3-3.3,4.8-4.6c-0.3-0.6-0.8-1.4-1.1-2.2
													c-1.2-2.5,2.5-4.6,3.7-2.2c0.3,0.5,0.5,0.9,0.8,1.4c4.6-3.7,9.6-6.7,15.2-8.8c0.3-0.2,0.6-0.2,0.8-0.3
													c2.5-0.8,1.5-4.5-0.6-4.2c-0.2,0-0.3,0-0.5,0c-9.6,3.3-17.5,9.1-24.6,16.3c-6.8,6.7-12.7,14.2-18,22.1
													c-10.5,16-18.1,34.4-21.4,53.3c-0.3,1.7-0.5,3.4-0.8,5.1c0.6-0.2,1.2-0.5,1.9-0.6C228.6,443.8,229.1,444,229.6,444.3z"
													/>
												<path class="st6" d="M292,381.2c-0.3,0.2-0.5,0.3-0.8,0.5c-1.2,0.8-2.5,1.5-3.7,2.3c0.3,0.8,0.6,1.4,0.8,2.2
													c0.9,2.6-3.3,3.7-4.2,1.2c0-0.2-0.2-0.5-0.3-0.6c-3.4,2.6-6.5,5.4-9.4,8.5c0.2,0.2,0.3,0.5,0.3,0.6
													c1.2,2.2-1.7,4.2-3.3,2.6c-3.3,3.7-6.2,7.7-8.8,12.1c-0.3,0.6-0.6,1.1-0.9,1.7c0.3,0.2,0.5,0.3,0.8,0.6
													c2.2,1.7-0.8,4.6-2.9,3.1c-2.9,5.4-5.4,11.2-7.6,17c0.2,0,0.2,0.2,0.3,0.2c2.2,1.4,0.5,4.8-1.7,3.9
													c-1.2,3.6-2.5,7.3-3.6,10.8c0.3,0,0.5,0.2,0.8,0.2c0.5,0.2,0.9,0.5,1.1,0.8c0.6,0,1.2,0.3,1.7,0.9
													c0.2,0.2,0.2,0.3,0.3,0.5c3.9-12.9,8.4-25.6,15.3-37.2c6.4-10.7,14.9-19.8,25.4-26.6c0.9-0.6,1.7-1.1,2.6-1.7
													C296.6,383.7,294.5,379.9,292,381.2z"/>
												<path class="st6" d="M248.9,448.9c-1.5-0.2-3.1,1.5-2.2,3.3c0,0.2,0.2,0.2,0.2,0.3c2.5,4.3,4.2,9,3.9,13.9
													c-0.3,4-2.6,9.8-6.7,11.5c-1.2,0.5-3.9,0.3-4.3-1.2c-0.3-0.9,1.2-3.3,1.5-4c1.2-3.3,0.6-7.6-1.7-10.1
													c-2.9-3.3-7.6-2.6-10.4,0.3c-1.4,1.5-1.5,3.4-1.2,5.3c0.3,1.7,1.2,3.3,0.5,5c-0.3,0.6-0.6,1.1-0.9,1.4
													c-0.2,0.2-0.3,0.2-0.5,0.2c-0.6,0-1.9-0.9-2.5-1.5c-2.2-2-3.7-4.8-4.8-7.4c-2.3-6.2,2-14.7,8.1-16.9
													c0.5-0.2,0.8-0.3,1.2-0.3c2-0.5,1.9-2.8,0.6-3.9c-0.5-0.3-1.1-0.5-1.7-0.3c-0.6,0.2-1.2,0.3-1.9,0.6
													c-7.1,2.6-11.2,10.7-11.3,18c0,2.9,1.4,6,2.9,8.5c1.5,2.6,3.6,5.3,6.2,6.8c2.5,1.4,5.4,1.1,7.3-1.1
													c1.1-1.4,1.7-3.1,2-4.8c0.2-1.9-0.9-3.6-0.9-5.3c-0.2-1.4,2.2-2.6,3.4-2c1.4,0.6,1.9,2.5,2,3.9c0.3,3.4-2.5,5.9-1.9,9.3
													c0.6,3.7,5.7,5,8.7,4.5c3.6-0.6,6.5-4.2,8.2-7.3c4.3-7.9,2.6-17.2-1.9-24.6c-0.2-0.2-0.2-0.3-0.3-0.5
													C250.2,449.2,249.5,448.9,248.9,448.9z"/>
												<path class="st6" d="M234.2,426.2c-0.9,0-1.7,0-2.6,0c-2.8,0.3-2.8,4.6,0,4.3c0.5,0,0.9,0,1.4,0c6,0,12.4,3.4,17,6.5
													c0.2,0.2,0.3,0.2,0.5,0.2c2.2,0.9,3.9-2.5,1.7-3.9c-0.2,0-0.2-0.2-0.3-0.2c-2.9-2-6.2-3.6-9.6-5
													C239.8,427.1,237,426.3,234.2,426.2z"/>
												<path class="st6" d="M243.8,400.3c-2.3-1.7-4.3,2.2-2.2,3.7c0.3,0.2,0.6,0.5,0.9,0.6c5.4,3.9,11.5,7.1,16.7,11.3
													c0,0,0.2,0,0.2,0.2c2.2,1.4,5-1.4,2.9-3.1c-0.3-0.2-0.5-0.3-0.8-0.6c-5.4-4.2-11.5-7.4-17-11.5
													C244.4,400.6,244.1,400.5,243.8,400.3z"/>
												<path class="st6" d="M257.9,378.5c-2.5-1.2-4.6,2.5-2.2,3.7c0.2,0,0.2,0.2,0.3,0.2c6.5,3.3,11.6,9.4,14.9,15.6
													c0.2,0.2,0.3,0.3,0.5,0.5c1.5,1.5,4.5-0.5,3.3-2.6c-0.2-0.2-0.2-0.5-0.3-0.6c-3.6-6.5-9.1-13-15.8-16.4
													C258.4,378.8,258.2,378.6,257.9,378.5z"/>
												<path class="st6" d="M275.7,361.1c-0.3-0.5-0.5-0.9-0.8-1.4c-1.2-2.5-5-0.3-3.7,2.2c0.3,0.8,0.8,1.4,1.1,2.2
													c4,7.6,8.5,14.7,11.6,22.8c0.2,0.2,0.2,0.5,0.3,0.6c0.9,2.6,5.1,1.5,4.2-1.2c-0.3-0.8-0.5-1.4-0.8-2.2
													C284.2,376.1,279.7,368.7,275.7,361.1z"/>
												<path class="st6" d="M229.6,444.3c1.2,0.9,1.4,3.4-0.6,3.9c-0.5,0.2-0.8,0.2-1.2,0.3c0.2,0,0.2,0,0.3,0
													c6.4,0,12.5,2.5,18.6,3.9c0.2,0,0.2,0,0.3,0c0-0.2-0.2-0.2-0.2-0.3c-1.1-1.7,0.6-3.3,2.2-3.3c-0.3-0.3-0.6-0.6-1.1-0.8
													c-0.3,0-0.5-0.2-0.8-0.2c-5.6-1.4-11-3.3-16.7-3.7C230,444.3,229.9,444.3,229.6,444.3z"/>
											</g>
										</g>
										<g>
											<path class="st4" d="M522,280c0.2,0,0.2,0,0.3,0c6.2-2.3,10.5-10.8,8.1-16.9c-1.1-2.6-2.6-5.4-4.8-7.4
												c-0.6-0.6-1.9-1.5-2.5-1.5c-0.3,0-0.3,0-0.5,0.2c-0.5,0.5-0.8,0.9-0.9,1.4c-0.8,1.7,0.3,3.3,0.5,5c0.3,1.9,0,3.7-1.2,5.3
												c-2.8,3.1-7.4,3.6-10.4,0.3c-2.3-2.6-2.9-6.8-1.7-10.1c0.3-0.9,1.9-3.1,1.5-4c-0.5-1.5-3.1-1.7-4.3-1.2
												c-4,1.7-6.5,7.3-6.7,11.5c-0.3,5,1.2,9.6,3.9,13.9c0.2,0,0.2,0,0.3,0C509.4,277.6,515.6,280,522,280z"/>
											<g>
												<path class="st5" d="M474.3,367.5c-4-7.7-8.7-15-11.8-23.1c-1.2,0.8-2.5,1.5-3.7,2.3c0.5,9.8,0.6,19.7,0.3,29.4
													C464.7,374.3,469.8,371.2,474.3,367.5z"/>
												<path class="st5" d="M477.7,364.5c1.7-1.5,3.3-3.1,4.8-4.6c3.1-3.3,6-6.7,8.8-10.2c-6.7-3.4-12.1-9.9-15.8-16.4
													c-2.9,3.1-6,6-9.4,8.5C469.2,349.8,473.7,357.1,477.7,364.5z"/>
												<path class="st5" d="M494,346.1c2.2-2.9,4.2-5.9,6-9s3.7-6.2,5.3-9.4c-5.6-4-11.6-7.3-17-11.5c-0.3,0.6-0.6,1.1-0.9,1.7
													c-2.6,4.3-5.6,8.4-8.8,12.1c0.2,0.2,0.3,0.3,0.5,0.5C482.5,336.6,487.6,343,494,346.1z"/>
												<path class="st5" d="M507.4,323.9c3.4-6.8,6.2-14.1,8.4-21.4c-2.8-0.2-5.6-1.1-8.2-2c-3.4-1.4-6.7-2.9-9.6-5
													c-2.2,5.9-4.6,11.5-7.6,17c0,0,0.2,0,0.2,0.2C495.8,316.8,501.8,319.9,507.4,323.9z"/>
												<path class="st5" d="M517,298.1c1.2-4.6,2-9.3,2.6-13.9c-5.7-0.5-11.2-2.3-16.7-3.7c-1.1,3.7-2.3,7.3-3.6,10.8
													c0.2,0,0.3,0.2,0.5,0.2C504.6,294.8,511,298.2,517,298.1z"/>
											</g>
											<g>
												<path class="st6" d="M520.4,284.3c-0.3,0-0.5,0-0.8,0c-0.6,4.6-1.5,9.3-2.6,13.9c0.5,0,0.9,0,1.4,0c2.8-0.3,2.8,4,0,4.3
													c-0.9,0.2-1.7,0.2-2.6,0c-2.2,7.3-5,14.6-8.4,21.4c0.3,0.2,0.6,0.5,0.9,0.6c2.2,1.7,0,5.4-2.2,3.7
													c-0.3-0.2-0.5-0.3-0.8-0.5c-1.7,3.3-3.4,6.4-5.3,9.4c-1.9,3.1-4,6-6,9c0.2,0,0.2,0.2,0.3,0.2c2.5,1.2,0.3,5-2.2,3.7
													c-0.3-0.2-0.5-0.3-0.8-0.5c-2.8,3.6-5.7,7-8.8,10.2c-1.5,1.7-3.3,3.3-4.8,4.6c0.3,0.6,0.8,1.4,1.1,2.2
													c1.2,2.5-2.5,4.6-3.7,2.2c-0.3-0.5-0.5-0.9-0.8-1.4c-4.6,3.7-9.6,6.7-15.2,8.8c-0.3,0.2-0.6,0.2-0.8,0.3
													c-2.5,0.8-1.5,4.5,0.6,4.2c0.2,0,0.3,0,0.5,0c9.6-3.3,17.5-9.1,24.6-16.3c6.8-6.7,12.7-14.2,18-22.1
													c10.5-16,18.1-34.4,21.4-53.3c0.3-1.7,0.5-3.4,0.8-5.1c-0.6,0.2-1.2,0.5-1.9,0.6C521.5,284.8,520.9,284.6,520.4,284.3z"
													/>
												<path class="st6" d="M458,347.3c0.3-0.2,0.5-0.3,0.8-0.5c1.2-0.8,2.5-1.5,3.7-2.3c-0.3-0.8-0.6-1.4-0.8-2.2
													c-0.9-2.6,3.3-3.7,4.2-1.2c0,0.2,0.2,0.5,0.3,0.6c3.4-2.6,6.5-5.4,9.4-8.5c-0.2-0.2-0.3-0.5-0.3-0.6
													c-1.2-2.2,1.7-4.2,3.3-2.6c3.3-3.7,6.2-7.7,8.8-12.1c0.3-0.6,0.6-1.1,0.9-1.7c-0.3-0.2-0.5-0.3-0.8-0.6
													c-2.2-1.7,0.8-4.6,2.9-3.1c2.9-5.4,5.4-11.2,7.6-17c-0.2,0-0.2-0.2-0.3-0.2c-2.2-1.4-0.5-4.8,1.7-3.9
													c1.2-3.6,2.5-7.3,3.6-10.8c-0.3,0-0.5-0.2-0.8-0.2c-0.5-0.2-0.9-0.5-1.1-0.8c-0.6,0-1.2-0.3-1.7-0.9
													c-0.2-0.2-0.2-0.3-0.3-0.5c-3.9,12.9-8.4,25.6-15.3,37.2c-6.4,10.7-14.9,19.8-25.4,26.6c-0.9,0.6-1.7,1.1-2.6,1.7
													C453.4,344.8,455.5,348.7,458,347.3z"/>
												<path class="st6" d="M520.4,284.3c-1.2-0.9-1.4-3.4,0.6-3.9c0.5-0.2,0.8-0.2,1.2-0.3c-0.2,0-0.2,0-0.3,0
													c-6.4,0-12.5-2.5-18.6-3.9c-0.2,0-0.2,0-0.3,0c0,0.2,0.2,0.2,0.2,0.3c1.1,1.7-0.6,3.3-2.2,3.3c0.3,0.3,0.6,0.6,1.1,0.8
													c0.3,0,0.5,0.2,0.8,0.2c5.6,1.4,11,3.3,16.7,3.7C520,284.3,520.1,284.3,520.4,284.3z"/>
												<path class="st6" d="M501.1,279.6c1.5,0.2,3.1-1.5,2.2-3.3c0-0.2-0.2-0.2-0.2-0.3c-2.5-4.3-4.2-9-3.9-13.9
													c0.3-4,2.6-9.8,6.7-11.5c1.2-0.5,3.9-0.3,4.3,1.2c0.3,0.9-1.2,3.3-1.5,4c-1.2,3.3-0.6,7.6,1.7,10.1
													c2.9,3.3,7.6,2.6,10.4-0.3c1.4-1.5,1.5-3.4,1.2-5.3c-0.3-1.7-1.2-3.3-0.5-5c0.3-0.6,0.6-1.1,0.9-1.4
													c0.2-0.2,0.3-0.2,0.5-0.2c0.6,0,1.9,0.9,2.5,1.5c2.2,2,3.7,4.8,4.8,7.4c2.3,6.2-2,14.7-8.1,16.9
													c-0.5,0.2-0.8,0.3-1.2,0.3c-2,0.5-1.9,2.8-0.6,3.9c0.5,0.3,1.1,0.5,1.7,0.3c0.6-0.2,1.2-0.3,1.9-0.6
													c7.1-2.6,11.2-10.7,11.3-18c0-2.9-1.4-6-2.9-8.5c-1.5-2.6-3.6-5.3-6.2-6.8c-2.5-1.4-5.4-1.1-7.3,1.1
													c-1.1,1.4-1.7,3.1-2,4.8c-0.2,1.9,0.9,3.6,0.9,5.3c0.2,1.4-2.2,2.6-3.4,2c-1.4-0.6-1.9-2.5-2-3.9
													c-0.3-3.4,2.5-5.9,1.9-9.3c-0.6-3.7-5.7-5-8.7-4.5c-3.6,0.6-6.5,4.2-8.2,7.3c-4.3,7.9-2.6,17.2,1.9,24.6
													c0.2,0.2,0.2,0.3,0.3,0.5C499.8,279.3,500.5,279.6,501.1,279.6z"/>
												<path class="st6" d="M515.8,302.4c0.9,0,1.7,0,2.6,0c2.8-0.3,2.8-4.6,0-4.3c-0.5,0-0.9,0-1.4,0c-6,0-12.4-3.4-17-6.5
													c-0.2-0.2-0.3-0.2-0.5-0.2c-2.2-0.9-3.9,2.5-1.7,3.9c0.2,0,0.2,0.2,0.3,0.2c2.9,2,6.2,3.6,9.6,5
													C510.2,301.5,513,302.3,515.8,302.4z"/>
												<path class="st6" d="M506.2,328.3c2.3,1.7,4.3-2.2,2.2-3.7c-0.3-0.2-0.6-0.5-0.9-0.6c-5.4-3.9-11.5-7.1-16.7-11.3
													c0,0-0.2,0-0.2-0.2c-2.2-1.4-5,1.4-2.9,3.1c0.3,0.2,0.5,0.3,0.8,0.6c5.4,4.2,11.5,7.4,17,11.5
													C505.6,328,505.9,328.1,506.2,328.3z"/>
												<path class="st6" d="M492.1,350.1c2.5,1.2,4.6-2.5,2.2-3.7c-0.2,0-0.2-0.2-0.3-0.2c-6.5-3.3-11.6-9.4-14.9-15.6
													c-0.2-0.2-0.3-0.3-0.5-0.5c-1.5-1.5-4.5,0.5-3.3,2.6c0.2,0.2,0.2,0.5,0.3,0.6c3.6,6.5,9.1,13,15.8,16.4
													C491.6,349.8,491.8,350,492.1,350.1z"/>
												<path class="st6" d="M474.3,367.5c0.3,0.5,0.5,0.9,0.8,1.4c1.2,2.5,5,0.3,3.7-2.2c-0.3-0.8-0.8-1.4-1.1-2.2
													c-4-7.6-8.5-14.7-11.6-22.8c-0.2-0.2-0.2-0.5-0.3-0.6c-0.9-2.6-5.1-1.5-4.2,1.2c0.3,0.8,0.5,1.4,0.8,2.2
													C465.8,352.4,470.3,359.9,474.3,367.5z"/>
											</g>
										</g>
										<g>
											<path class="st4" d="M447.3,526.6c-2.4,0.2-4.7,0.5-7.1,1c-2.4,5.5-4.8,11.2-5.8,17.2c11.1,1.3,23.6,2.1,33.1-3.9
												c-3.2-6.1-7.7-11.2-11.9-16.7c-0.5,0.5-1.1,0.8-1.8,1.1C452,526.2,449.6,526.4,447.3,526.6z"/>
											<g>
												<path class="st5" d="M413.9,439.9c0.9,2.6,2,5.3,2.9,7.9c1.4,3.9,2.8,7.7,4,11.6c3.6-0.8,6.8-2,10.2-3.3
													c2-0.8,4.2-1.7,6.2-2.5c1.1-0.5,2.3-0.9,3.4-1.4c-1.7-5.6-3.7-11.2-5.6-16.7c-0.5-1.2-0.8-2.5-1.2-3.7
													c-3.1,1.2-6.5,2.2-9.6,3.3C420.7,436.5,417.1,437.9,413.9,439.9z"/>
												<path class="st5" d="M408.5,426.5c1.7,2.9,2.8,6,3.9,9.1c3.1-1.7,6.4-3.1,9.6-4.3c3.4-1.2,7-2.5,10.5-3.3
													c-0.8-2.3-1.7-4.6-2.6-7c-1.1-2.5-2.2-5.4-3.9-7.9c-3.6,3.9-7.4,7.3-11.9,10.1C412.2,424.5,410.3,425.5,408.5,426.5z"/>
												<path class="st5" d="M432.8,460.4c-3.4,1.4-7,2.6-10.5,3.4c1.1,3.3,2.2,6.7,3.3,9.9c1.1,3.1,2,6.2,2.9,9.4
													c6-2.2,12.4-3.3,18.4-5.6c-1.1-6-2.5-12.1-4-18.1c-0.3-0.9-0.6-2-0.9-2.9c-0.9,0.5-2,0.8-2.9,1.2
													C437,458.7,434.8,459.5,432.8,460.4z"/>
												<path class="st5" d="M433.1,499c0.5,2,1.1,4,1.5,6c0.2,0,0.3,0.2,0.6,0.2c0.6,0.2,1.2,0.2,1.9,0.2
													c1.9,0,3.9-0.5,5.7-0.8c2-0.5,4.2-0.9,6.2-1.5c0.6-0.2,1.2-0.3,2-0.5c-0.5-3.6-0.9-7-1.5-10.5
													c-0.5-3.4-1.1-6.8-1.7-10.2c-5.7,2.3-11.9,3.9-17.8,5.7C430.9,491.2,432,495.1,433.1,499z"/>
												<path class="st5" d="M443,508.9c-2,0.5-4.2,0.8-6.4,0.8c-0.3,0-0.5,0-0.8-0.2c1.2,4.5,2.6,8.8,4.3,13.2
													c2.6-0.5,5.3-0.8,7.9-0.9c1.1-0.2,2-0.2,3.1-0.6c0.5-0.2,1.1-0.6,1.2-1.1c0.5-1.2,0.5-2.8,0.3-4.2
													c-0.2-2.6-0.8-5.3-1.1-7.9c0-0.5-0.2-0.9-0.2-1.5c-0.6,0.2-1.2,0.3-1.9,0.5C447.5,507.9,445.2,508.4,443,508.9z"/>
											</g>
											<g>
												<path class="st6" d="M440.8,526.8c-0.2,0.3-0.3,0.6-0.5,1.1c2.2-0.5,4.5-0.8,6.8-0.9c2.2-0.2,4.5-0.3,6.5-1.2
													c0.6-0.3,1.2-0.6,1.7-1.1c-0.5-0.6-0.9-1.1-1.2-1.7c-1.5-2.2,1.7-4.8,3.6-3.1c0.3-2.8-0.2-5.9-0.5-8.2
													c-3.3-21.7-5.6-43.8-13.2-64.4c-2.5-7-4.5-14.1-7.1-21.1c-2-5.4-4-11.8-8.1-16.4c-0.5-0.6-1.1-1.2-1.7-1.7
													c-2.2-1.9-5.1,1.1-3.1,3.1c0.6,0.6,1.2,1.4,1.7,2.2c1.5,2.5,2.8,5.3,3.9,7.9c0.9,2.3,1.9,4.6,2.6,7
													c0.8-0.2,1.5-0.3,2.3-0.5c2-0.3,3.4,2.3,1.4,3.4c-0.8,0.5-1.5,0.8-2.3,1.1c0.5,1.2,0.8,2.5,1.2,3.7
													c1.9,5.6,3.9,11.2,5.6,16.7c0.8-0.3,1.7-0.5,2.5-0.6c2-0.3,3.4,2.2,1.4,3.4c-0.8,0.5-1.7,0.9-2.6,1.4
													c0.3,0.9,0.6,2,0.9,2.9c1.7,6,2.9,12.1,4,18.1c0.3-0.2,0.6-0.3,1.1-0.3c2.2-0.9,3.7,2.8,1.5,3.7
													c-0.6,0.3-1.2,0.5-1.9,0.8c0.6,3.4,1.2,6.8,1.7,10.2c0.5,3.6,1.1,7,1.5,10.5c1.1-0.3,2-0.5,3.1-0.6
													c1.9,0,2.9,2.9,1.1,3.7c-1.1,0.5-2.3,0.8-3.4,1.1c0,0.5,0.2,0.9,0.2,1.5c0.3,2.6,0.9,5.3,1.1,7.9
													c0.2,1.4,0.2,2.8-0.3,4.2c-0.2,0.3-0.8,0.9-1.2,1.1c-1.1,0.3-2,0.5-3.1,0.6c-2.6,0.3-5.3,0.5-7.9,0.9
													c-1.7-4.3-3.1-8.7-4.3-13.2c-0.6,0-1.1,0-1.7-0.2c-0.5-0.2-0.9-0.3-1.2-0.5c-0.3-0.2-0.6-0.5-0.8-0.8s-0.3-0.5-0.3-0.6
													c-0.5-1.1,0.3-2.6,1.5-2.8c0.2,0,0.5-0.2,0.6-0.2c0.2,0,0.3,0,0.5,0c-0.5-2-1.1-4-1.5-6c-0.9-3.9-2-7.6-3.3-11.5
													c-0.6,0.2-1.2,0.3-1.7,0.5c-2.8,0.9-3.7-3.3-1.2-4.2c0.5-0.2,1.1-0.5,1.5-0.6c-0.9-3.1-2-6.2-2.9-9.4
													c-1.1-3.3-2.2-6.7-3.3-9.9c-0.5,0.2-0.9,0.3-1.5,0.3c-2.8,0.5-4-3.9-1.2-4.3c0.5,0,0.9-0.2,1.2-0.3
													c-1.2-3.9-2.6-7.7-4-11.6c-0.9-2.6-2-5.3-2.9-7.9c-0.5,0.3-0.9,0.5-1.4,0.8c-2.5,1.7-4.8-2.3-2.3-4
													c0.6-0.5,1.4-0.9,2-1.2c-1.1-3.1-2.2-6.4-3.9-9.1c-0.2-0.3-0.3-0.5-0.5-0.8c-1.7-2.6-5.7-0.2-4.2,2.5
													c0,0.2,0.2,0.2,0.2,0.3c1.9,3.3,2.9,6.8,4.2,10.4c1.4,4.2,3.1,8.2,4.6,12.4c3.1,8.5,5.9,17.2,8.7,25.9
													c2.6,8.4,5.1,16.6,7.4,25.1c2,8.1,4.3,16,7.4,23.5c0.2-0.5,0.3-0.8,0.6-1.2C438.2,521.7,442.1,524.2,440.8,526.8z"/>
												<path class="st6" d="M442.7,504.5c-1.9,0.5-3.7,0.8-5.7,0.8c-0.6,0-1.2,0-1.9-0.2c-0.2,0-0.5-0.2-0.6-0.2
													c-0.2,0-0.3,0-0.5,0s-0.5,0-0.6,0.2c-1.2,0.2-2,1.5-1.5,2.8c0,0,0.2,0.2,0.3,0.6c0.2,0.3,0.5,0.6,0.8,0.8
													c0.3,0.2,0.9,0.3,1.2,0.5c0.5,0.2,1.1,0.2,1.7,0.2c0.3,0,0.5,0.2,0.8,0.2c2.2,0,4.2-0.3,6.4-0.8
													c2.2-0.5,4.5-1.1,6.7-1.7c0.6-0.2,1.2-0.3,1.9-0.5c1.2-0.3,2.3-0.6,3.4-1.1c1.9-0.8,0.9-3.9-1.1-3.7
													c-1.1,0-2,0.3-3.1,0.6c-0.6,0.2-1.4,0.3-2,0.5C446.9,503.4,444.7,504.1,442.7,504.5z"/>
												<path class="st6" d="M426.9,483.8c-2.5,1.1-1.5,5.1,1.2,4.2c0.6-0.2,1.1-0.3,1.7-0.5c6-1.9,12.1-3.4,17.8-5.7
													c0.6-0.3,1.2-0.5,1.9-0.8c2.2-0.9,0.6-4.6-1.5-3.7c-0.3,0.2-0.6,0.3-1.1,0.3c-6,2.2-12.4,3.3-18.4,5.6
													C428,483.3,427.4,483.5,426.9,483.8z"/>
												<path class="st6" d="M431.1,456.2c-3.3,1.4-6.7,2.5-10.2,3.3c-0.5,0.2-0.9,0.2-1.2,0.3c-2.8,0.5-1.5,4.8,1.2,4.3
													c0.5-0.2,1.1-0.2,1.5-0.3c3.6-0.8,7.1-2,10.5-3.4c2-0.8,4.2-1.7,6.2-2.6c0.9-0.5,2-0.8,2.9-1.2c0.9-0.5,1.9-0.8,2.6-1.4
													c2-1.2,0.6-3.7-1.4-3.4c-0.8,0.2-1.7,0.3-2.5,0.6c-1.2,0.5-2.3,0.9-3.4,1.4C435.1,454.7,433.1,455.4,431.1,456.2z"/>
												<path class="st6" d="M412.3,435.6c-0.8,0.5-1.4,0.8-2,1.2c-2.5,1.7-0.2,5.6,2.3,4c0.5-0.3,0.9-0.6,1.4-0.8
													c3.3-2,6.8-3.4,10.4-4.6c3.1-1.1,6.5-2,9.6-3.3c0.8-0.3,1.5-0.6,2.3-1.1c2-1.1,0.5-3.7-1.4-3.4
													c-0.8,0.2-1.5,0.3-2.3,0.5c-3.6,0.8-7.3,2-10.5,3.3C418.5,432.5,415.3,433.8,412.3,435.6z"/>
												<path class="st6" d="M472.1,540.3c-3.6-7.6-9.1-13.9-14.2-20.3c0-0.2-0.2-0.2-0.3-0.2c-1.9-1.7-5.1,1.1-3.6,3.1
													c0.5,0.6,0.8,1.1,1.2,1.7c4,5.3,8.4,10.4,11.5,16.1c-9.3,5.9-21.4,5-31.9,3.7c0.9-5.7,3.3-11.3,5.6-16.6
													c0.2-0.3,0.3-0.6,0.5-1.1c1.2-2.8-2.6-5.1-4-2.3c-0.2,0.5-0.3,0.8-0.6,1.2c-3.4,6.5-5.9,13.8-6.7,21.1
													c-0.2,1.5,1.2,2.3,2.5,2.5c12.9,1.5,28.3,2.9,39.3-5.6C472.4,542.8,472.9,541.5,472.1,540.3z"/>
											</g>
										</g>
									</g>
								</g>
							</g>
							<g>
								<g>
									<rect x="369.3" y="184.1" class="st2" width="11.2" height="24.6"/>
									<g>
										<g>
											<circle class="st2" cx="375" cy="187.8" r="7.3"/>
											<path class="st2" d="M375,176c5.4,0,9.9,3.6,11.5,8.5l4.8-4.8c-2.9-5.9-9.1-10.1-16.3-10.1s-13.3,4.2-16.3,10.1l4.8,4.8
												C364.9,179.7,369.6,176,375,176z"/>
											<path class="st2" d="M375,165.6c8.2,0,15.3,4.5,19.2,11.2l4.5-4.5c-5.1-7.7-13.9-12.9-23.9-12.9s-18.7,5.1-23.9,12.9
												l4.5,4.5C359.5,170.1,366.8,165.6,375,165.6z"/>
											<path class="st2" d="M375,155.1c11.2,0,20.9,5.6,26.9,14.1l4.5-4.5c-7.1-9.6-18.6-15.8-31.4-15.8s-24.3,6.2-31.4,16
												l4.5,4.5C353.9,160.7,363.8,155.1,375,155.1z"/>
										</g>
									</g>
									<rect x="360.4" y="304.1" class="st2" width="29.1" height="40.6"/>
								</g>
								<g>
									<g>
										<path class="st7" d="M426.3,468.6H323.6c-20.1,0-36.7-16.6-36.7-36.7v-63.7c0-20.1,16.6-36.7,36.7-36.7h102.7
											c20.1,0,36.7,16.6,36.7,36.7v63.7C463,452,446.4,468.6,426.3,468.6z"/>
									</g>
									<g>
										<path class="st8" d="M415.7,396c3.9-6.8,8.2-15,8.4-23.1c0-2.9-0.5-6-3.1-7.7c-2.6-1.9-5.9-1.2-8.1,0.9
											c-5.9,5.6-7.7,13.9-12.4,20.3c-1.4,2-4.2,0.3-4.2-1.7c0,0,0,0,0-0.2c-1.9-6.8-4.8-16.3-12.2-19.1
											c-3.1-1.2-6.5,0.3-8.5,2.9c-1.9,2.5-1.9,5.7-1.4,8.7c1.1,8.1,5.3,15.8,9.3,22.8c4.5,7.4,9.6,14.4,15.6,20.6
											c3.1-4.3,8.8-12.1,11.3-15.8C412.3,401.7,414,398.7,415.7,396z"/>
										<g>
											<line class="st9" x1="404.7" y1="340" x2="349.1" y2="395.8"/>
											<line class="st9" x1="414.5" y1="348.9" x2="358.9" y2="404.6"/>
											<line class="st9" x1="424.3" y1="357.7" x2="368.6" y2="413.5"/>
											<line class="st9" x1="434" y1="366.7" x2="378.4" y2="422.3"/>
											<line class="st9" x1="443.8" y1="375.5" x2="388.2" y2="431.1"/>
										</g>
									</g>
								</g>
								<path class="st7" d="M417.6,318.8h-85.2c-18.4,0-33.6-15.2-33.6-33.6V236c0-18.4,15.2-33.6,33.6-33.6h85.2
									c18.4,0,33.6,15.2,33.6,33.6v49.3C451.2,303.6,436,318.8,417.6,318.8z"/>
								<g>
									<circle class="st4" cx="322.5" cy="260.6" r="8.7"/>
									<circle class="st4" cx="427.4" cy="260.6" r="8.7"/>
								</g>
							</g>
						</g>
					</g>
				</g>
			</g>
			<polyline class="st10" points="475.1,52 406.8,52 406.8,-51.2 358.2,-51.2 			"/>
		</g>
	</g>
	<g>
		<line class="st3" x1="672.5" y1="-92.7" x2="603.7" y2="-92.7"/>
		<circle class="st0" cx="672.5" cy="-92.7" r="11.7"/>
		<circle class="st0" cx="602.7" cy="-92.7" r="11.7"/>
		<polyline class="st3" points="591.1,100.3 591.1,14.3 515,14.3 515,-140.7 475,-140.7 		"/>
		<polyline class="st3" points="614.4,100.3 614.4,168.4 801,168.4 		"/>
		<circle class="st0" cx="614.4" cy="168.7" r="11.7"/>
		<polyline class="st3" points="731,168.4 731,52 670.3,52 		"/>
		<circle class="st0" cx="731" cy="53.3" r="11.7"/>
		<circle class="st0" cx="516.3" cy="14.1" r="11.7"/>
		<circle class="st0" cx="516.3" cy="-140.7" r="11.7"/>
		<circle class="st0" cx="360.3" cy="-99.7" r="11.7"/>
		<circle class="st0" cx="311.4" cy="-99.7" r="11.7"/>
		<polyline class="st3" points="359.4,105.3 359.4,-99.7 471.3,-99.7 		"/>
		<line class="st3" x1="312.4" y1="-99.7" x2="312.4" y2="-252.7"/>
		<polyline class="st3" points="665,-191.7 665,-144.7 568.8,-144.7 		"/>
		<circle class="st0" cx="665" cy="-144.7" r="11.7"/>
		<polyline class="st3" points="269.3,-60.7 234.3,-60.7 234.3,59.3 167.9,59.3 		"/>
		<line class="st3" x1="300.8" y1="19.9" x2="300.8" y2="141.3"/>
	</g>
</g>
<polyline class="st3" points="-13,148.9 89,148.9 89,208.8 89,276 170,276 "/>
<circle class="st0" cx="89.4" cy="150.2" r="11.7"/>
<circle class="st0" cx="37" cy="208.5" r="11.7"/>
<circle class="st0" cx="37" cy="313.3" r="11.7"/>
<circle class="st0" cx="89.4" cy="276" r="11.7"/>
<polyline class="st3" points="89.4,208.8 37.4,208.8 37.4,312 -32.6,312 "/>
<line class="st3" x1="188.6" y1="187.8" x2="88.7" y2="187.8"/>
<g>
	<g>
		<path class="st11" d="M290.4,859.5v7.8h9.9v2.2h-12.3v-12.2h9.9v-5.6h-9.8v-2.2h12.2v7.3c0,1.4-1.1,2.6-2.6,2.6H290.4z"/>
		<path class="st11" d="M319.3,869.4h-9.8v-19.8h12.4v17.3C322,868.3,320.7,869.4,319.3,869.4z M311.9,851.7v15.6h7.7v-15.6H311.9z"
			/>
		<path class="st11" d="M329.5,851.7v-2.2h6.8v19.8H334v-17.7H329.5z"/>
		<path class="st11" d="M345.5,869.4v-19.8h12.2v17.3c0,1.4-1.1,2.6-2.6,2.6L345.5,869.4L345.5,869.4z M347.8,851.7v5.6h7.6v-5.6
			H347.8z M347.8,859.5v7.8h7.6v-7.8H347.8z"/>
		<path class="st11" d="M366.9,870v-2.6h3.5v2.6H366.9z"/>
		<path class="st11" d="M378,851.7v-2.2h6.8v19.8h-2.4v-17.7H378z"/>
		<path class="st11" d="M396.3,859.5v7.8h9.9v2.2h-12.3v-12.2h9.9v-5.6H394v-2.2h12.2v7.3c0,1.4-1.1,2.6-2.6,2.6H396.3z"/>
		<path class="st11" d="M415.5,870v-2.6h3.5v2.6H415.5z"/>
		<path class="st11" d="M438,869.4h-9.8v-19.8h12.4v17.3C440.5,868.3,439.4,869.4,438,869.4z M430.4,851.7v15.6h7.7v-15.6H430.4z"/>
		<path class="st11" d="M452.1,859.5v7.8h9.9v2.2h-12.3v-12.2h9.9v-5.6h-9.8v-2.2H462v7.3c0,1.4-1.1,2.6-2.6,2.6H452.1z"/>
		<path class="st11" d="M230.3,896.7v2.3h-4.5v17.6h-2.5V899h-4.5v-2.3H230.3z"/>
		<path class="st11" d="M248.8,896.7h2.4v19.8h-2.4v-10.2h-8.2v10.2h-2.4v-19.8h2.4v7.4h8.2V896.7z"/>
		<path class="st11" d="M270.4,916.7h-10v-19.8h10v2.2h-7.7v5.2h6.8v2.3h-6.8v8h7.7V916.7z"/>
		<path class="st11" d="M303.8,906.4h-4.3l4.3,10.2h-2.6l-4.3-10.2h-3v10.2h-2.4v-19.8h12.2L303.8,906.4L303.8,906.4z M294,899v5.2
			h7.5V899H294z"/>
		<path class="st11" d="M325.8,916.6h-12.7v-19.8h12.7V916.6z M315.4,914.4h7.9V899h-7.9V914.4z"/>
		<path class="st11" d="M345.7,904.2h2.2v12.5h-12.8v-19.8h10.6V904.2z M343.2,899h-5.8v5.2h5.8V899z M337.5,914.4h7.9v-7.9h-7.9
			V914.4z"/>
		<path class="st11" d="M369.8,916.6h-12.7v-19.8h12.7V916.6z M359.4,914.4h7.9V899h-7.9V914.4z"/>
		<path class="st11" d="M389,896.7v2.3h-4.5v17.6H382V899h-4.5v-2.3H389z"/>
		<path class="st11" d="M421.9,916.6h-12.2v-19.8h12.2v2.3h-9.7v15.4h9.7V916.6z"/>
		<path class="st11" d="M443.2,916.6h-12.7v-19.8h12.7V916.6z M432.9,914.4h7.9V899h-7.9V914.4z"/>
		<path class="st11" d="M461.4,908.7h-2.8l-3.8-7.3v15.1h-2.4v-19.8h2.5l5.1,9.5l4.9-9.5h2.9v19.8h-2.5V901L461.4,908.7z"/>
		<path class="st11" d="M487.6,904.2h2.2v12.5h-12.8v-19.8h10.6V904.2z M485.2,899h-5.8v5.2h5.8V899z M479.4,914.4h7.9v-7.9h-7.9
			V914.4z"/>
		<path class="st11" d="M499.1,896.7h12.8v19.8h-2.5v-10.2h-7.9v10.2h-2.5V896.7z M501.4,904.2h7.9V899h-7.9V904.2z"/>
		<path class="st11" d="M531.2,896.7v2.3h-4.5v17.6h-2.5V899h-4.5v-2.3H531.2z"/>
	</g>
	<g>
		<g>
			<line class="st12" x1="117.5" y1="807.1" x2="633.1" y2="807.1"/>
			<path class="st5" d="M116.5,800.2c4.9-0.9,9.2,3.3,8.2,8.2c-0.5,2.7-2.7,5-5.5,5.5c-4.9,0.9-9.2-3.3-8.2-8.2
				C111.5,803,113.7,800.8,116.5,800.2z"/>
			<path class="st5" d="M627,802c7.5-5.7,15.9,2.8,10.2,10.2C629.8,817.9,621.4,809.5,627,802z"/>
		</g>
	</g>
	<g>
		<g>
			<path class="st13" d="M181.2,625.8l5.1,15.4h-6.2v32.3h-5.7l-0.1-28.8l-3.2,10.5h-6.2l7.9-29.4h-7.1v-6.2h8.6v-13.2h5.7v13.2h6.1
				v6.2H181.2z M212.1,605.1l1.2,37.3H232v5.9h-16.4l4.2,7.2l2.5-4.5h6.8l-5.7,10.6l7.1,12.2h-6.9l-3.5-6.1l-2.4,4.4h-6.6l5.5-10.4
				l-7.5-13.3h-12.2l-0.1,1.9l8.4,12.4h-7.4l-1.8-2.6l-3.2,12.2h-6.2l3.7-14.8l0.5-9h-2.4v-6.1h19.1l-1.2-37.3H212.1z M188.2,636.4
				l5.1-10.6l-5.6-5.3l6.2-13.2h5.5l-5.5,11.8l1.7,1.7l1.8-4.1h5.5l-6.5,14l3.6-0.1l-0.1-3.5h4.7l0.6,10h-4.7l-0.1-1.6L188.2,636.4z
				 M219.4,625.9l-6-5.7l6.5-12.8h5.9l-6,11.7l2.1,2.1l2-4.3h5.5l-6.8,13.6l4.2-0.1l-0.5-3.2h4.8l1.2,10h-4.8l-0.2-2l-13.1,0.7
				L219.4,625.9z M218.4,637.6h6.1l2.5,3.7h-6L218.4,637.6z"/>
			<path class="st13" d="M320.6,653.5h-6.3v16.8h-23.8v-18.7h15l-19.5-11l-17.8,11H284v18.7h-23.6v-16.8h-6.2l20.7-12.8h-19.1v-5.9
				h27l1-6.4h6l-1.1,6.4h30.2v5.9h-21.2L320.6,653.5z M284.2,607.9v19.5h-24.1v-19.5H284.2z M314.4,607.9v19.5h-24.1v-19.5H314.4z"
				/>
			<path class="st13" d="M402.4,666.8l-5.6,4.4L375.8,644l-19.5,27.1h-8.8l24.5-34.2v-29.2h7.1v29.1L402.4,666.8"/>
			<path class="st13" d="M494.5,623.7v6.8h-24.9l24.4,41.2h-7.7l-22.1-37.3l-19.7,37.3h-7.4l21.5-41.2h-25.1v-6.8h27.1v-16.1h6.6
				v16.1H494.5z"/>
			<path class="st13" d="M571.2,636.2l13.7,9.8h-9.1l-4.7-3.5v22.7h-37.2v-22.3l-3.5,2.8h-8.6l12.3-9.5h-14.4v-4.5h19.7v-2.3h-6.6
				v-4.7h6.6v-2.4h-10.1v-4.6h10.1v-2.9h4.8v2.9h16.1v-2.9h4.8v2.9h10.1v4.6h-10.1v2.4h6.6v4.7h-6.5v2.3h19.8v4.5h-14V636.2z
				 M526.8,613.7v4.3h-4.5v-8.8h27.8v-3.2h4.7v3.2h27.8v8.8h-4.5v-4.3H526.8z M531.5,673.3l3.9-4.6h8.1l-3.9,4.6H531.5z
				 M537.4,640.2h30.4l-5.7-4.1h-19.3L537.4,640.2z M566.7,646.9v-2.4h-28.5v2.4H566.7z M538.2,651.6v2.4h28.5v-2.4H538.2z
				 M538.2,661h28.5v-2.4h-28.5V661z M544.4,622.4v2.4h16.1v-2.4H544.4z M560.5,629.5h-16.1v2.3h16.1V629.5z M562.7,668.7h7.8
				l3.5,4.6h-7.8L562.7,668.7z"/>
			<path class="st13" d="M208.2,719.3l15.1-17.2l15.1,16H230l-6.4-6.8l-7.2,8H208.2L208.2,719.3z M217.9,753.9h-5.5l-1.4-10.1h5.5
				L217.9,753.9z M226.2,739.3v18l9.6-2v6.6l-24.4,5.2v-6.5l9.1-1.9v-19.4H211v-5.6h9.5v-6.3h-6.6v-5.9H233v5.9h-6.8v6.3h8.8v5.6
				L226.2,739.3L226.2,739.3z M229.2,751.6l1.4-7.8h5.4l-1.2,7.8H229.2z M239.9,702.8h36.3v65.4h-5.7v-59.7h-24.8v59.7h-5.7V702.8z
				 M267,714.3l-2.5,10.8h4.6v5.3h-8.4v20.9h2.1v-14.5h5.2v19.8h-20.2v-19.8h5.2v14.5h2.1v-20.9h-8.4v-5.3H259l2.5-10.8H267
				L267,714.3z M254.5,714.3l1.8,7.1h-5.2l-1.8-7.1H254.5z"/>
			<path class="st13" d="M295.6,720l12.6-17.6l12.7,16.2h-7.2l-5.3-6.5l-5.6,7.9H295.6z M304.3,754.5H299l-1.1-10.5h5.3L304.3,754.5
				z M311,739.4v18.2l7.5-1.9v6.2l-20.3,5.1v-6.1l7.3-1.9v-19.6h-7.4v-5.3h7.4v-6.5h-5.2v-5.5h15.8v5.5H311v6.5h7v5.3L311,739.4
				L311,739.4z M312.8,752.1l1-8.1h5.2l-1.1,8.1H312.8z M365.4,724H352l2.9,11.6l1.7-4.7h6.1l-5.3,14.9l5.3,22.1h-5.9l-3-12.2
				l-4.2,11.8h-6.2l7.8-22l-5.2-21.5h-24.3v-5.4h8.6v-3.8h-6.2v-5.6h6.2v-5.7h5.7v5.7h6.3v5.6H336v3.8h9.3v-14.4h5.9v14.4h14.2V724z
				 M322.6,760.6l7.8-1.5v-4.5h-6.1v-4.8h6.1v-3.2H323v-4.8H345v4.8h-8.9v3.2h7.8v4.8h-7.8v3.5l8.1-1.5v5.5l-21.7,3.7v-5.3H322.6z
				 M323.9,726.4h18.9v13.3h-18.9V726.4z M337.6,734.6v-3.2h-8.8v3.2H337.6z M362.2,713.6h-5.9l-2.4-8.6h5.9L362.2,713.6z"/>
			<path class="st13" d="M397.4,719.9v12.6l5.7-3.2v7.1l-5.7,3.2v29.3h-6v-26l-5.4,3v-7.2l5.4-2.9v-15.9h-4.8v-6.2h4.8v-12.5h6v12.5
				h5.2v6.2H397.4L397.4,719.9z M433.3,712.8h20.4v16.1h-5.6v-10.6h-14.8v15.8h-5.6v-15.8h-14.6v10.6h-5.6v-16.1h20.3v-5.2h-14.9
				V702h35.5v5.6h-15V712.8z M411.9,767.5V739h37.2v28.5H411.9z M425,721.6v5.2h-9.5v-5.2H425z M415.5,734.2v-5.1h9.5v5.1H415.5z
				 M417.2,744.4v6.2h10.5v-6.2H417.2z M417.2,755.9v6.1h10.5v-6.1H417.2z M433.2,744.4v6.2h10.5v-6.2H433.2z M433.2,755.9v6.1h10.5
				v-6.1H433.2z M445.4,721.6v5.2h-9.5v-5.2H445.4z M435.9,734.2v-5.1h9.5v5.1H435.9z"/>
			<path class="st13" d="M529.7,737.1l-1.8-5.7l-46.5,2l14.2-30.1h7.4l-10.8,23l33.8-1.5l-2.9-10.2h7l6.5,22.5H529.7L529.7,737.1z
				 M485.7,767.6v-27.1h45v27.1H485.7z M492.4,747.2v13.6h31.6v-13.6H492.4z"/>
		</g>
		<circle class="st0" cx="272" cy="617.2" r="5.9"/>
		<circle class="st0" cx="302.4" cy="617.2" r="5.9"/>
		<circle class="st0" cx="273.2" cy="660.5" r="5.9"/>
		<circle class="st0" cx="302.4" cy="660.5" r="5.9"/>
		<g>
			<path class="st14" d="M400.9,665.9c-0.2,0.3-0.1,1,0.5,1h0.1c1.5,0.1,2.9,0.5,4.2,1.4c1,0.8,2,2.3,1.7,3.6c-0.1,0.3-0.6,1-1,0.9
				c-0.3-0.1-0.6-0.8-0.8-1c-0.6-0.9-1.8-1.4-2.8-1.2c-1.2,0.2-1.9,1.5-1.6,2.7c0.1,0.6,0.6,0.9,1.1,1.2c0.5,0.2,1,0.2,1.4,0.7
				c0.1,0.1,0.1,0.3,0.2,0.5c0,0.1,0,0.1-0.1,0.1c-0.1,0.1-0.6,0.3-0.8,0.3c-0.9,0.2-1.8,0.1-2.7,0c-1.9-0.5-3.4-2.9-2.9-4.8
				c0-0.1,0.1-0.2,0.1-0.3c0.2-0.6-0.3-0.9-0.9-0.8c-0.1,0.1-0.3,0.2-0.3,0.3c-0.1,0.2-0.1,0.3-0.1,0.6c-0.5,2.3,0.8,4.6,2.6,5.9
				c0.8,0.6,1.7,0.7,2.6,0.7s1.9,0,2.7-0.5c0.8-0.3,1.2-1.1,0.9-2c-0.1-0.6-0.5-0.9-0.9-1.4c-0.5-0.3-1-0.3-1.5-0.7
				c-0.3-0.2-0.3-1,0-1.2s0.9-0.1,1.4,0.1c0.9,0.5,1.1,1.6,2,2c1,0.5,2.3-0.6,2.6-1.5c0.5-1,0-2.4-0.5-3.3c-1.2-2.4-3.8-3.5-6.4-3.6
				h-0.1C401.2,665.7,401,665.8,400.9,665.9z"/>
		</g>
	</g>
</g>
</svg>
