<?xml version="1.0" encoding="utf-8"?>
<!-- Generator: Adobe Illustrator 21.1.0, SVG Export Plug-In . SVG Version: 6.00 Build 0)  -->
<svg version="1.1" id="圖層_1" xmlns="http://www.w3.org/2000/svg" xmlns:xlink="http://www.w3.org/1999/xlink" x="0px" y="0px"
	 viewBox="0 0 1126 768" style="enable-background:new 0 0 1126 768;" xml:space="preserve">
<style type="text/css">
	.st0{fill:#85E4ED;}
	.st1{clip-path:url(#SVGID_2_);}
	.st2{fill:#518287;}
	.st3{fill:none;stroke:#85E4ED;stroke-width:4;stroke-miterlimit:10;}
	.st4{fill:#FFFFFF;}
	.st5{fill:#66A9B0;}
	.st6{fill:#518287;stroke:#518287;stroke-miterlimit:10;}
	.st7{fill:#66A9B0;stroke:#518287;stroke-width:3.907;stroke-miterlimit:10;}
	.st8{fill:#FFFFFF;stroke:#FFFFFF;stroke-width:8;stroke-miterlimit:10;}
	.st9{fill:none;stroke:#66A9B0;stroke-width:0.7815;stroke-miterlimit:10;}
	.st10{fill:#518287;stroke:#518287;stroke-width:0.8701;stroke-miterlimit:10;}
	.st11{fill:none;stroke:#66A9B0;stroke-width:4.1499;stroke-miterlimit:10;}
	.st12{fill:#1D3030;stroke:#1D3030;stroke-width:1.0375;stroke-miterlimit:10;}
	.st13{fill:#1D3030;}
</style>
<g>
	<rect x="-15" y="-10" class="st0" width="1158" height="797"/>
	<g>
		<g>
			<g>
				<g>
					<circle class="st0" cx="499.5" cy="25.7" r="7.4"/>
					<g>
						<g>
							<g>
								<g>
									<g>
										<g>
											<g>
												<defs>
													<path id="SVGID_1_" d="M1126.5,320H29.5c-16.6,0-30-13.4-30-30V0h1127V320z"/>
												</defs>
												<clipPath id="SVGID_2_">
													<use xlink:href="#SVGID_1_"  style="overflow:visible;"/>
												</clipPath>
												<g class="st1">
													<g>
														<g>
															<polygon class="st2" points="1400.5,515.1 -166.8,508.9 -166.8,-169.6 1400.5,-163.4 															"/>
															<g>
																<polyline class="st3" points="-186,-131 274.1,-131 274.1,-64.9 428.7,-64.9 428.7,61.5 																"/>
																<polyline class="st3" points="654.1,-120.9 836.3,-120.9 836.3,-167.6 																"/>
																<polyline class="st3" points="653.7,253.2 653.7,425.2 972.6,425.2 972.6,510.9 																"/>
																<polyline class="st3" points="637,253.9 847.5,253.9 847.5,144 1059,144 1059,1.4 1420.9,1.4 																"/>
																<polyline class="st3" points="511.1,171.7 309.7,171.7 309.7,77.6 150.3,77.6 150.3,296.3 43.6,296.3 
																																	"/>
																<polyline class="st3" points="1558.5,368.5 1380.6,368.5 1380.6,227.4 1226.2,227.4 1226.2,493.2 1195,493.2 
																																	"/>
																<polyline class="st3" points="595.4,306.2 378.4,306.2 378.4,411.7 297.9,411.7 297.9,287.8 201.2,287.8 
																	201.2,438.8 -31.9,438.8 -31.9,510.9 																"/>
																<polyline class="st3" points="550,87.5 550,-131 481.5,-131 481.5,-167.6 																"/>
																<polyline class="st3" points="1420.9,-91.8 972.6,-91.8 972.6,-15.9 781.2,-15.9 781.2,77.6 618.9,77.6 
																																	"/>
																<polyline class="st3" points="514.9,226.4 514.9,354.8 420.1,354.8 420.1,418.4 																"/>
																<polyline class="st3" points="697.2,252.5 697.2,350.5 909.9,350.5 909.9,275.1 1225.9,275.1 																"/>
																<polyline class="st3" points="21.1,77.6 84.7,77.6 86,-25.4 227.5,-25.4 227.5,12.7 386.2,12.7 386.2,141.4 
																	438.8,141.4 																"/>
																<polyline class="st3" points="150.3,210.9 201.7,210.9 201.7,77.6 																"/>
																<polyline class="st3" points="1086.8,218.3 1162.4,218.3 1162.4,123.4 																"/>
																<polyline class="st3" points="655.3,-25.4 710.1,-25.4 710.1,-120.9 																"/>
																<line class="st3" x1="369.6" y1="-64.9" x2="369.6" y2="-167.6"/>
																<polyline class="st3" points="550.6,-64.9 598.6,-64.9 598.6,-167.6 																"/>
																<polyline class="st3" points="161,510.9 161,475.7 340.4,475.7 																"/>
																<line class="st3" x1="586.7" y1="280.7" x2="586.7" y2="510.9"/>
																<polyline class="st3" points="586.7,423.1 514.8,423.1 514.8,510.9 																"/>
																<polyline class="st3" points="758.2,425.2 758.2,459.2 847.5,459.2 847.5,510.9 																"/>
																<polyline class="st3" points="1112.3,446.2 1112.3,480.3 1195.4,480.3 1195.4,531.9 																"/>
																<polyline class="st3" points="201.2,375.3 -80.2,374.7 -80.2,446.5 																"/>
																<polyline class="st3" points="309.7,128.3 252.1,128.3 252.1,287.8 																"/>
																<polyline class="st3" points="297.9,326.3 345.5,326.3 345.5,253.9 536.9,252.6 																"/>
																<line class="st3" x1="340.4" y1="411.7" x2="340.4" y2="474"/>
																<polyline class="st3" points="359.4,12.7 359.4,97.2 309.7,97.2 																"/>
																<polyline class="st3" points="281,12.7 281,42.3 86,42.3 																"/>
																<polyline class="st3" points="321.7,-64.9 321.7,-25.4 428.7,-25.4 																"/>
																<polyline class="st3" points="369.6,-105.5 499.7,-105.5 499.7,26.2 548.1,26.2 																"/>
																<polyline class="st3" points="628.5,73.5 628.5,-146.3 710.1,-146.3 710.1,-167.6 																"/>
																<line class="st3" x1="767.7" y1="-120.9" x2="767.7" y2="-167.6"/>
																<line class="st3" x1="412.8" y1="-105.5" x2="412.8" y2="-167.6"/>
																<polyline class="st3" points="1016.7,-167.6 1016.7,-136.6 903.9,-136.6 903.9,-70.5 749.9,-70.5 749.9,26.8 
																	692.5,26.8 692.5,77.9 																"/>
																<line class="st3" x1="1065.5" y1="-167.6" x2="1065.5" y2="-91.8"/>
																<polyline class="st3" points="1059,77.6 892.5,77.6 892.5,-15.9 																"/>
																<line class="st3" x1="781.1" y1="164.3" x2="781.1" y2="220.3"/>
																<polyline class="st3" points="659,112.7 975.9,112.7 975.9,144 																"/>
																<line class="st3" x1="892.5" y1="30.8" x2="1059" y2="30.8"/>
																<polyline class="st3" points="972.6,-48 1085.9,-48 1085.9,1.9 																"/>
																<polyline class="st3" points="1059,103.2 1085.9,103.2 1085.9,275.3 																"/>
																<polyline class="st3" points="909.9,334.8 754.1,334.8 754.1,350.5 																"/>
																<polyline class="st3" points="847.5,222.2 991.7,222.2 991.7,275.3 																"/>
																<line class="st3" x1="909.9" y1="144" x2="909.9" y2="222.2"/>
																<polyline class="st3" points="909.9,182.8 1039.6,182.8 1039.6,275.1 																"/>
																<polyline class="st3" points="656.3,377.9 726.1,377.9 726.1,503.4 																"/>
																<line class="st3" x1="697.2" y1="425.2" x2="697.2" y2="510.9"/>
																<polyline class="st3" points="782.5,425.2 782.5,376.9 1039.6,376.9 1039.6,293.1 1225.9,293.1 																"/>
																<polyline class="st3" points="1420.9,411.7 1034.5,411.7 1034.5,510.9 																"/>
																<line class="st3" x1="972.6" y1="461.2" x2="1034.5" y2="461.2"/>
																<line class="st3" x1="916.7" y1="425.7" x2="916.7" y2="510.9"/>
																<polyline class="st3" points="960.7,386.9 960.7,350.4 1039.6,350.4 																"/>
																<polyline class="st3" points="1420.9,448.1 1072.4,448.1 1072.4,510.9 																"/>
																<path class="st3" d="M-98.5,189"/>
																<line class="st3" x1="150.3" y1="132.7" x2="21.1" y2="132.7"/>
																<polyline class="st3" points="260.5,474 260.5,350.5 201.7,350.5 																"/>
																<polyline class="st3" points="121.5,373.6 121.5,326.9 -69,326.9 -69,213.7 																"/>
																<polyline class="st3" points="104,296.3 104,162.9 21.1,162.9 																"/>
																<line class="st3" x1="297.9" y1="218.3" x2="357.2" y2="218.3"/>
																<polyline class="st3" points="-186,-98 158.8,-98 158.8,-25.4 																"/>
																<polyline class="st3" points="158.8,-54.8 260.5,-54.8 260.5,12.7 																"/>
																<line class="st3" x1="176" y1="-131" x2="176" y2="-167.6"/>
																<line class="st3" x1="205.4" y1="-131" x2="205.4" y2="-54.8"/>
																<polyline class="st3" points="303.9,-65.9 303.9,-120.9 334.6,-120.9 334.6,-167.6 																"/>
																<polyline class="st3" points="1296.5,229.8 1296.5,123.2 1146.9,123.2 1146.9,57.1 1058.8,57.1 																"/>
																<line class="st3" x1="1253.5" y1="123.2" x2="1253.5" y2="-6.6"/>
																<polyline class="st3" points="1194.5,123.2 1194.5,162.7 1296.5,162.7 																"/>
																<polyline class="st3" points="1180.4,126 1180.4,85 1214.8,85 1214.8,-2.9 																"/>
																<polyline class="st3" points="533,330 534.3,448.1 436.2,448.1 391.3,448.1 391.3,510.9 																"/>
																<line class="st3" x1="86" y1="408.2" x2="153.6" y2="408.2"/>
																<line class="st3" x1="104" y1="463.3" x2="104" y2="493.3"/>
																<line class="st3" x1="73.1" y1="203.5" x2="73.1" y2="251.9"/>
																<line class="st3" x1="179.9" y1="247.9" x2="220" y2="247.9"/>
																<line class="st3" x1="129.5" y1="9.7" x2="176" y2="9.7"/>
																<line class="st3" x1="81" y1="-63" x2="121.5" y2="-63"/>
																<line class="st3" x1="550.8" y1="451.7" x2="550.8" y2="488"/>
																<line class="st3" x1="1132.2" y1="245.4" x2="1197.7" y2="245.4"/>
																<line class="st3" x1="887.8" y1="404.2" x2="934.9" y2="404.2"/>
																<line class="st3" x1="659.4" y1="466.7" x2="659.4" y2="493.3"/>
																<line class="st3" x1="843.3" y1="18.6" x2="843.3" y2="65.8"/>
																<line class="st3" x1="942.1" y1="306.5" x2="991.7" y2="306.5"/>
																<line class="st3" x1="1080" y1="331.4" x2="1080" y2="377.9"/>
																<line class="st3" x1="763.9" y1="287.4" x2="855.6" y2="287.4"/>
																<line class="st3" x1="934.9" y1="-91.8" x2="934.9" y2="-45.2"/>
																<line class="st3" x1="462.9" y1="-65.9" x2="462.9" y2="115.4"/>
																<line class="st3" x1="420.9" y1="483.3" x2="470.7" y2="483.3"/>
																<polyline class="st3" points="1112.6,294.4 1111.8,358.2 1225.9,359.2 																"/>
																<polyline class="st3" points="1252.8,229.6 1252.8,266.4 1289.6,266.4 1289.6,446.7 1153.4,446.7 1153.4,524.5 
																																	"/>
																<polyline class="st3" points="47.3,-165.3 46,39.2 21.5,39.2 20.5,212.9 44.3,212.9 44.3,299.2 																"/>
																<line class="st3" x1="1245.7" y1="304.1" x2="1245.7" y2="372.2"/>
																<line class="st3" x1="1094.7" y1="28.9" x2="1176.4" y2="28.9"/>
																<line class="st3" x1="1241.4" y1="162.7" x2="1241.4" y2="227.4"/>
																<line class="st3" x1="-31.9" y1="328.9" x2="-31.9" y2="377.2"/>
																<line class="st3" x1="-38.7" y1="242.8" x2="-38.7" y2="299.2"/>
																<line class="st3" x1="40.1" y1="104.8" x2="121.8" y2="104.8"/>
																<polyline class="st3" points="1253.5,26.8 1306.4,26.8 1306.4,-53.7 1370.8,-53.7 																"/>
																<line class="st3" x1="7.7" y1="352.4" x2="73.3" y2="352.4"/>
																<line class="st3" x1="-26.9" y1="77.6" x2="-26.9" y2="132.7"/>
															</g>
															<g>
																<circle class="st0" cx="297.9" cy="287.7" r="7.4"/>
																<circle class="st0" cx="345.5" cy="327.3" r="7.4"/>
																<circle class="st0" cx="297.9" cy="411.7" r="7.4"/>
																<circle class="st0" cx="201.2" cy="287.8" r="7.4"/>
																<circle class="st0" cx="259.7" cy="350.5" r="7.4"/>
																<circle class="st0" cx="201.2" cy="438.8" r="7.4"/>
																<circle class="st0" cx="161" cy="475.7" r="7.4"/>
																<circle class="st0" cx="121.5" cy="327.9" r="7.4"/>
																<circle class="st0" cx="-67.9" cy="327.9" r="7.4"/>
																<circle class="st0" cx="86" cy="408.2" r="7.4"/>
																<circle class="st0" cx="153.6" cy="408.2" r="7.4"/>
																<circle class="st0" cx="104" cy="460.9" r="7.4"/>
																<circle class="st0" cx="104" cy="495.6" r="7.4"/>
																<circle class="st0" cx="150.3" cy="296.3" r="7.4"/>
																<circle class="st0" cx="104" cy="162.9" r="7.4"/>
																<circle class="st0" cx="-24.7" cy="162.9" r="7.4"/>
																<circle class="st0" cx="41.9" cy="104.7" r="7.4"/>
																<circle class="st0" cx="122.1" cy="104.7" r="7.4"/>
																<circle class="st0" cx="44.9" cy="213.1" r="7.4"/>
																<circle class="st0" cx="44.9" cy="296.3" r="7.4"/>
																<circle class="st0" cx="5" cy="353.3" r="7.4"/>
																<circle class="st0" cx="73.1" cy="353.3" r="7.4"/>
																<circle class="st0" cx="73.1" cy="203.5" r="7.4"/>
																<circle class="st0" cx="73.1" cy="253.1" r="7.4"/>
																<circle class="st0" cx="201.7" cy="210.9" r="7.4"/>
																<circle class="st0" cx="150.3" cy="77.6" r="7.4"/>
																<circle class="st0" cx="86" cy="75.8" r="7.4"/>
																<circle class="st0" cx="86" cy="-25.4" r="7.4"/>
																<circle class="st0" cx="46.8" cy="38.2" r="7.4"/>
																<circle class="st0" cx="158.8" cy="-98" r="7.4"/>
																<circle class="st0" cx="125.3" cy="-63" r="7.4"/>
																<circle class="st0" cx="179.6" cy="9.7" r="7.4"/>
																<circle class="st0" cx="125.3" cy="9.7" r="7.4"/>
																<circle class="st0" cx="-97.3" cy="213.1" r="7.4"/>
																<circle class="st0" cx="-97.3" cy="36.2" r="7.4"/>
																<circle class="st0" cx="-39.1" cy="240.4" r="7.4"/>
																<circle class="st0" cx="-39.1" cy="302.3" r="7.4"/>
																<circle class="st0" cx="-78.7" cy="374.1" r="7.4"/>
																<circle class="st0" cx="259.7" cy="-54.3" r="7.4"/>
																<circle class="st0" cx="227.5" cy="12.7" r="7.4"/>
																<circle class="st0" cx="274.5" cy="-131" r="7.4"/>
																<circle class="st0" cx="334.6" cy="-121.4" r="7.4"/>
																<circle class="st0" cx="428.7" cy="-65.9" r="7.4"/>
																<circle class="st0" cx="412.8" cy="-105.5" r="7.4"/>
																<circle class="st0" cx="499.7" cy="-105.5" r="7.4"/>
																<circle class="st0" cx="462.9" cy="-70.5" r="7.4"/>
																<circle class="st0" cx="428.5" cy="62.7" r="7.4"/>
																<circle class="st0" cx="598.6" cy="-64.9" r="7.4"/>
																<circle class="st0" cx="628.5" cy="-146" r="7.4"/>
																<circle class="st0" cx="710.1" cy="-149" r="7.4"/>
																<circle class="st0" cx="710.1" cy="-25.4" r="7.4"/>
																<circle class="st0" cx="749.7" cy="27.8" r="7.4"/>
																<circle class="st0" cx="694" cy="27.8" r="7.4"/>
																<circle class="st0" cx="665.2" cy="-120.9" r="7.4"/>
																<circle class="st0" cx="847.5" cy="-120.9" r="7.4"/>
																<circle class="st0" cx="749.9" cy="-70.5" r="7.4"/>
																<circle class="st0" cx="903.1" cy="-70.5" r="7.4"/>
																<circle class="st0" cx="1015.8" cy="-136.6" r="7.4"/>
																<circle class="st0" cx="903.1" cy="-136.6" r="7.4"/>
																<circle class="st0" cx="971.8" cy="-91.8" r="7.4"/>
																<circle class="st0" cx="934.9" cy="-96.4" r="7.4"/>
																<circle class="st0" cx="934.9" cy="-40.5" r="7.4"/>
																<circle class="st0" cx="1085" cy="-48" r="7.4"/>
																<circle class="st0" cx="971.8" cy="-15.9" r="7.4"/>
																<circle class="st0" cx="780.9" cy="-15.9" r="7.4"/>
																<circle class="st0" cx="892.5" cy="77.6" r="7.4"/>
																<circle class="st0" cx="843.3" cy="12.6" r="7.4"/>
																<circle class="st0" cx="843.3" cy="65.8" r="7.4"/>
																<circle class="st0" cx="780.9" cy="75.5" r="7.4"/>
																<circle class="st0" cx="976.7" cy="112.7" r="7.4"/>
																<circle class="st0" cx="847.5" cy="144" r="7.4"/>
																<circle class="st0" cx="781.1" cy="164.2" r="7.4"/>
																<circle class="st0" cx="781.1" cy="220.9" r="7.4"/>
																<circle class="st0" cx="697.2" cy="350.5" r="7.4"/>
																<circle class="st0" cx="1137.2" cy="245.4" r="7.4"/>
																<circle class="st0" cx="909.9" cy="350.5" r="7.4"/>
																<circle class="st0" cx="782.5" cy="377.9" r="7.4"/>
																<circle class="st0" cx="1198.4" cy="245.4" r="7.4"/>
																<circle class="st0" cx="1095.1" cy="28.5" r="7.4"/>
																<circle class="st0" cx="1177.4" cy="16.5" r="7.4"/>
																<circle class="st0" cx="725.7" cy="379.1" r="7.4"/>
																<circle class="st0" cx="514.8" cy="423.1" r="7.4"/>
																<circle class="st0" cx="550.8" cy="448.1" r="7.4"/>
																<circle class="st0" cx="550.8" cy="493.3" r="7.4"/>
																<circle class="st0" cx="653.7" cy="425.2" r="7.4"/>
																<circle class="st0" cx="659.4" cy="463.1" r="7.4"/>
																<circle class="st0" cx="659.4" cy="497.9" r="7.4"/>
																<circle class="st0" cx="847.5" cy="459.2" r="7.4"/>
																<circle class="st0" cx="972.6" cy="425.7" r="7.4"/>
																<circle class="st0" cx="1039.6" cy="377.3" r="7.4"/>
																<circle class="st0" cx="1080" cy="328.9" r="7.4"/>
																<circle class="st0" cx="1080" cy="380.1" r="7.4"/>
																<circle class="st0" cx="1245.9" cy="304.2" r="7.4"/>
																<circle class="st0" cx="1253.3" cy="267.1" r="7.4"/>
																<circle class="st0" cx="1245.9" cy="367.8" r="7.4"/>
																<circle class="st0" cx="1119.6" cy="357.8" r="7.4"/>
																<circle class="st0" cx="1039.6" cy="292.8" r="7.4"/>
																<circle class="st0" cx="995.5" cy="306.5" r="7.4"/>
																<circle class="st0" cx="937.8" cy="306.5" r="7.4"/>
																<circle class="st0" cx="960.7" cy="350.4" r="7.4"/>
																<circle class="st0" cx="886.1" cy="404.2" r="7.4"/>
																<circle class="st0" cx="935.9" cy="404.2" r="7.4"/>
																<circle class="st0" cx="1034.5" cy="414.3" r="7.4"/>
																<circle class="st0" cx="909.9" cy="275.1" r="7.4"/>
																<circle class="st0" cx="759.9" cy="287.4" r="7.4"/>
																<circle class="st0" cx="755" cy="338.1" r="7.4"/>
																<circle class="st0" cx="858" cy="287.4" r="7.4"/>
																<circle class="st0" cx="1072.4" cy="448.1" r="7.4"/>
																<circle class="st0" cx="420.1" cy="356" r="7.4"/>
																<circle class="st0" cx="486" cy="448.1" r="7.4"/>
																<circle class="st0" cx="470.7" cy="483.3" r="7.4"/>
																<circle class="st0" cx="420.9" cy="483.3" r="7.4"/>
																<circle class="st0" cx="847.5" cy="253.1" r="7.4"/>
																<circle class="st0" cx="991.7" cy="221.3" r="7.4"/>
																<circle class="st0" cx="1040" cy="182.9" r="7.4"/>
																<circle class="st0" cx="1226.9" cy="228.7" r="7.4"/>
																<circle class="st0" cx="909.9" cy="221.3" r="7.4"/>
																<circle class="st0" cx="179.9" cy="247.9" r="7.4"/>
																<circle class="st0" cx="220" cy="247.9" r="7.4"/>
																<circle class="st0" cx="281" cy="42.4" r="7.4"/>
																<circle class="st0" cx="1195.6" cy="163" r="7.4"/>
																<circle class="st0" cx="1295.9" cy="122.1" r="7.4"/>
																<circle class="st0" cx="1289.7" cy="293" r="7.4"/>
																<circle class="st0" cx="1085.9" cy="103.2" r="7.4"/>
																<circle class="st0" cx="1147.8" cy="58.6" r="7.4"/>
																<circle class="st0" cx="1180" cy="85.9" r="7.4"/>
																<circle class="st0" cx="1213.4" cy="85.9" r="7.4"/>
																<circle class="st0" cx="1147.8" cy="121.8" r="7.4"/>
																<circle class="st0" cx="1162.7" cy="218.3" r="7.4"/>
																<circle class="st0" cx="481.5" cy="-131" r="7.4"/>
																<circle class="st0" cx="321.7" cy="-25.4" r="7.4"/>
																<circle class="st0" cx="310.9" cy="77.6" r="7.4"/>
																<circle class="st0" cx="359.2" cy="97.4" r="7.4"/>
																<circle class="st0" cx="386.2" cy="12.7" r="7.4"/>
																<circle class="st0" cx="386.2" cy="140.7" r="7.4"/>
																<circle class="st0" cx="252.1" cy="128.3" r="7.4"/>
																<circle class="st0" cx="310.9" cy="172.6" r="7.4"/>
																<circle class="st0" cx="294.8" cy="218.3" r="7.4"/>
																<circle class="st0" cx="357.2" cy="218.3" r="7.4"/>
																<circle class="st0" cx="378.4" cy="411.7" r="7.4"/>
																<circle class="st0" cx="340.4" cy="475.7" r="7.4"/>
																<circle class="st0" cx="378.4" cy="307.1" r="7.4"/>
																<circle class="st0" cx="346.4" cy="254.1" r="7.4"/>
																<circle class="st0" cx="-55.7" cy="134.1" r="7.4"/>
																<circle class="st0" cx="-55.7" cy="188.6" r="7.4"/>
																<circle class="st0" cx="-47" cy="75.8" r="7.4"/>
																<circle class="st0" cx="-75.5" cy="15.2" r="7.4"/>
																<circle class="st0" cx="-19.8" cy="15.2" r="7.4"/>
															</g>
														</g>
														<line class="st3" x1="-129.7" y1="105" x2="-185.4" y2="105"/>
														<polyline class="st3" points="-19.5,35.5 -19.5,14.4 -76.5,14.4 -76.5,-108.1 														"/>
														<polyline class="st3" points="-69,248.4 -114.8,248.7 -185.4,248.7 														"/>
														<line class="st3" x1="-129.7" y1="374.7" x2="-129.7" y2="248.4"/>
													</g>
												</g>
											</g>
										</g>
									</g>
								</g>
							</g>
						</g>
					</g>
				</g>
			</g>
		</g>
		<g>
			<g>
				<circle class="st0" cx="563" cy="224.6" r="175.1"/>
				<g>
					<g>
						<g>
							<g>
								<g>
									<path class="st4" d="M525.4,344.1c-0.6-3.8-2.2-7.5-3.8-11c-1.5-0.3-3-0.5-4.5-0.6c-1.4-0.1-3-0.2-4.3-0.8
										c-0.4-0.2-0.8-0.4-1.1-0.7c-2.7,3.5-5.4,6.9-7.5,10.8C510.3,345.6,518.3,344.9,525.4,344.1z"/>
									<g>
										<path class="st5" d="M525.9,268.9c2.3,0.5,4.7,1.3,6.9,2.1c2.1,0.8,4.2,1.6,6.2,2.7c0.7-2.2,1.5-4.4,2.7-6.4
											c0-0.1,0.1-0.1,0.1-0.2c-0.9-0.5-1.7-0.9-2.6-1.4c-3.2-2-6.2-4.3-8.9-6.9c-1.2,1.7-2.1,3.7-2.8,5.6
											C526.9,265.9,526.4,267.4,525.9,268.9z"/>
										<path class="st5" d="M525.9,289.8c-1.3-0.5-2.8-1.1-4.1-1.7c-0.6-0.3-1.3-0.5-1.9-0.8c-0.2,0.6-0.4,1.3-0.5,2
											c-1,4-1.9,8-2.7,12c4,1.4,8.2,2.2,12.1,3.6c0.6-2.1,1.2-4.2,1.9-6.3c0.7-2.2,1.4-4.4,2-6.6
											C530.4,291.6,528.1,290.7,525.9,289.8z"/>
										<path class="st5" d="M516.3,303.7c-0.4,2.2-0.7,4.4-1,6.6c-0.3,2.3-0.6,4.5-1,6.8c0.4,0.1,0.9,0.2,1.3,0.3
											c1.3,0.3,2.7,0.7,4,0.9c1.2,0.2,2.4,0.5,3.7,0.5c0.4,0,0.8,0,1.2-0.1c0.1,0,0.3-0.1,0.4-0.1c0.3-1.3,0.7-2.6,1-3.9
											c0.6-2.5,1.3-5,2-7.4C524,306.1,520,305.2,516.3,303.7z"/>
										<path class="st5" d="M525,271.5c-0.3,0.8-0.5,1.6-0.8,2.4c-1.2,3.6-2.4,7.2-3.5,10.8c0.8,0.3,1.5,0.6,2.2,0.9
											c1.3,0.5,2.7,1.1,4,1.6c2.1,0.8,4.3,1.6,6.6,2.1c0.8-2.5,1.7-5,2.6-7.5c0.6-1.7,1.2-3.4,1.9-5.1c-2.1-1.3-4.4-2.2-6.7-3
											C529.2,272.9,527,272.4,525,271.5z"/>
										<path class="st5" d="M519.4,321.2c-1.5-0.3-2.9-0.7-4.3-1c-0.4-0.1-0.8-0.2-1.2-0.3c0,0.3-0.1,0.7-0.1,1
											c-0.2,1.7-0.6,3.4-0.7,5.1c0,0.9-0.1,1.8,0.2,2.6c0.1,0.2,0.5,0.6,0.8,0.7c0.7,0.2,1.3,0.3,2,0.4c1.7,0.1,3.4,0.3,5.1,0.6
											c1.1-2.8,2-5.6,2.8-8.5c-0.2,0-0.3,0.1-0.5,0.1C522.1,321.7,520.7,321.5,519.4,321.2z"/>
									</g>
									<path class="st2" d="M516.7,301c-0.2-0.1-0.4-0.1-0.7-0.2c-1.4-0.5-2.4,1.9-1,2.5c0.4,0.2,0.8,0.3,1.2,0.5
										c3.8,1.5,7.7,2.4,11.6,3.6c0.4,0.1,0.7,0.2,1.1,0.3c1.8,0.6,2.4-2.1,0.7-2.7c-0.3-0.1-0.7-0.2-1-0.4
										C524.8,303.1,520.6,302.4,516.7,301z"/>
									<path class="st2" d="M526.9,287.2c-1.3-0.5-2.7-1.1-4-1.6c-0.7-0.3-1.5-0.6-2.2-0.9c-0.5-0.2-1.1-0.3-1.6-0.4
										c-1.3-0.2-2.2,1.4-0.9,2.2c0.5,0.3,1.1,0.6,1.8,0.9c0.6,0.3,1.3,0.5,1.9,0.8c1.3,0.6,2.7,1.1,4,1.7
										c2.2,0.9,4.5,1.7,6.8,2.2c0.3,0.1,0.6,0.1,1,0.2c1.8,0.3,2.6-2.5,0.8-2.8c-0.3,0-0.6-0.1-0.8-0.2
										C531.2,288.8,529,288,526.9,287.2z"/>
									<path class="st2" d="M525.9,268.9c-0.5-0.1-1-0.2-1.5-0.3c-1.3-0.2-2.2,1.5-0.9,2.2c0.5,0.3,1,0.5,1.5,0.7
										c2,0.8,4.2,1.4,6.2,2.1c2.3,0.8,4.6,1.7,6.7,3c0.3,0.2,0.6,0.3,0.9,0.5c1.6,1.1,3.1-1.5,1.5-2.6c-0.4-0.3-0.9-0.6-1.4-0.8
										c-2-1.1-4.1-2-6.2-2.7C530.5,270.2,528.2,269.4,525.9,268.9z"/>
									<g>
										<path class="st6" d="M541.8,267.2c0,0.1-0.1,0.1-0.1,0.2c-1.2,2-2,4.2-2.7,6.4c0.5,0.3,0.9,0.5,1.4,0.8
											c1.6,1.1,0.1,3.6-1.5,2.6c-0.3-0.2-0.6-0.4-0.9-0.5c-0.6,1.7-1.2,3.4-1.9,5.1c-0.9,2.5-1.7,5-2.6,7.5
											c0.3,0.1,0.6,0.1,0.8,0.2c1.8,0.3,1.1,3.1-0.8,2.8c-0.3-0.1-0.7-0.1-1-0.2c-0.7,2.1-1.4,4.3-2,6.4c-0.6,2-1.3,4.1-1.9,6.1
											c0.3,0.1,0.7,0.2,1,0.4c1.7,0.7,1,3.3-0.7,2.7c-0.4-0.1-0.7-0.2-1.1-0.3c-0.7,2.5-1.4,4.9-2,7.4c-0.3,1.3-0.6,2.6-1,3.9
											c0.1,0,0.2,0,0.3,0s0.3,0,0.4,0.1c0.8,0.1,1.3,1,1,1.8c0,0-0.1,0.1-0.1,0.4c-0.1,0.2-0.3,0.4-0.5,0.5s-0.6,0.2-0.8,0.3
											c-0.3,0.1-0.7,0.1-1.1,0.1c-0.8,2.9-1.7,5.7-2.8,8.5c-1.7-0.3-3.4-0.4-5.1-0.6c-0.7-0.1-1.3-0.1-2-0.4
											c-0.3-0.1-0.7-0.4-0.8-0.7c-0.3-0.8-0.3-1.8-0.2-2.6c0.1-1.7,0.4-3.4,0.7-5.1c0-0.3,0.1-0.6,0.1-1
											c-0.8-0.2-1.5-0.4-2.3-0.7c-1.2-0.5-0.6-2.5,0.6-2.4c0.7,0,1.3,0.2,2,0.4c0.3-2.3,0.6-4.5,1-6.8c0.3-2.2,0.7-4.4,1-6.6
											c-0.4-0.2-0.8-0.3-1.2-0.5c-1.4-0.6-0.4-3,1-2.5c0.2,0.1,0.4,0.1,0.7,0.2c0.7-3.9,1.5-7.8,2.6-11.7
											c0.2-0.6,0.4-1.3,0.5-1.9c-0.6-0.3-1.2-0.5-1.8-0.9c-1.3-0.8-0.4-2.4,0.9-2.2c0.5,0.1,1.1,0.2,1.6,0.4
											c1.1-3.6,2.4-7.2,3.5-10.8c0.3-0.8,0.5-1.6,0.8-2.4c-0.5-0.2-1-0.4-1.5-0.7c-1.3-0.7-0.3-2.4,0.9-2.2
											c0.5,0.1,1,0.2,1.5,0.3c0.5-1.5,1.1-3,1.7-4.5c0.8-1.8,1.6-3.9,2.8-5.6c0.2-0.3,0.5-0.7,0.7-0.9c1.3-1.3-0.7-3.2-2-2
											c-0.3,0.3-0.5,0.5-0.8,0.8c-2.7,3-4.1,7.3-5.4,10.9c-1.6,4.5-2.9,9.1-4.5,13.6c-4.8,13.4-6.2,27.7-8.2,41.7
											c-0.2,1.6-0.5,3.6-0.3,5.3c1.2-1.1,3.3,0.6,2.3,2c-0.3,0.4-0.5,0.7-0.8,1.1c0.3,0.3,0.7,0.5,1.1,0.7
											c1.3,0.6,2.8,0.7,4.2,0.8c1.5,0.1,2.9,0.3,4.4,0.6c-0.1-0.2-0.2-0.4-0.3-0.7c-0.8-1.8,1.7-3.3,2.6-1.5
											c0.1,0.3,0.2,0.5,0.4,0.8c2-4.9,3.4-10,4.7-15.2c1.4-5.5,3-10.9,4.7-16.2c1.8-5.6,3.5-11.2,5.5-16.7c0.9-2.7,2-5.3,2.9-8
											c0.8-2.3,1.5-4.8,2.8-6.9c0.1-0.1,0.1-0.3,0.2-0.4C544.9,267,542.8,265.9,541.8,267.2z"/>
										<path class="st6" d="M520.8,332.8c0.1,0.2,0.2,0.4,0.3,0.7c1.6,3.4,3,7,3.7,10.7c-6.9,0.8-14.6,1.4-20.7-2.3
											c2-3.8,4.7-7.1,7.3-10.5c0.3-0.4,0.5-0.7,0.8-1.1c1-1.4-1.2-3.1-2.3-2c0,0-0.1,0.1-0.2,0.1c-3.3,4.2-6.9,8.3-9.1,13.2
											c-0.4,0.9-0.2,1.6,0.6,2.2c7.1,5.4,17.1,4.4,25.4,3.4c0.8-0.1,1.7-0.7,1.6-1.6c-0.6-4.7-2.2-9.3-4.4-13.5
											c-0.1-0.3-0.2-0.5-0.4-0.8C522.5,329.5,520,331,520.8,332.8z"/>
										<path class="st6" d="M523.7,318.8c-1.2,0-2.5-0.2-3.7-0.5c-1.3-0.3-2.7-0.6-4-0.9c-0.4-0.1-0.8-0.2-1.3-0.3
											c-0.7-0.2-1.3-0.3-2-0.4c-1.2,0-1.9,1.9-0.6,2.4c0.7,0.3,1.5,0.5,2.3,0.7c0.4,0.1,0.8,0.2,1.2,0.3c1.4,0.4,2.9,0.8,4.3,1
											c1.3,0.3,2.7,0.5,4.1,0.5c0.2,0,0.3,0,0.5-0.1c0.4,0,0.7,0,1.1-0.1c0.3-0.1,0.6-0.2,0.8-0.3c0.2-0.1,0.4-0.3,0.5-0.5
											s0.1-0.3,0.1-0.4c0.3-0.7-0.2-1.7-1-1.8c-0.1,0-0.3-0.1-0.4-0.1c-0.1,0-0.2,0-0.3,0s-0.2,0.1-0.4,0.1
											C524.5,318.8,524.1,318.8,523.7,318.8z"/>
									</g>
								</g>
								<g>
									<path class="st4" d="M468.1,282c-0.1,0-0.1,0-0.2,0c-4,1.5-6.8,7-5.2,10.9c0.7,1.7,1.7,3.5,3.1,4.8c0.4,0.4,1.2,1,1.6,1
										c0.2,0,0.2,0,0.3-0.1c0.3-0.3,0.5-0.6,0.6-0.9c0.5-1.1-0.2-2.1-0.3-3.2c-0.2-1.2,0-2.4,0.8-3.4c1.8-2,4.8-2.3,6.7-0.2
										c1.5,1.7,1.9,4.4,1.1,6.5c-0.2,0.6-1.2,2-1,2.6c0.3,1,2,1.1,2.8,0.8c2.6-1.1,4.2-4.7,4.3-7.4c0.2-3.2-0.8-6.2-2.5-9
										c-0.1,0-0.1,0-0.2,0C476.2,283.5,472.2,282,468.1,282z"/>
									<g>
										<path class="st5" d="M498.9,225.5c2.6,5,5.6,9.7,7.6,14.9c0.8-0.5,1.6-1,2.4-1.5c-0.3-6.3-0.4-12.7-0.2-19
											C505.1,221.1,501.8,223.1,498.9,225.5z"/>
										<path class="st5" d="M496.7,227.4c-1.1,1-2.1,2-3.1,3c-2,2.1-3.9,4.3-5.7,6.6c4.3,2.2,7.8,6.4,10.2,10.6
											c1.9-2,3.9-3.9,6.1-5.5C502.3,236.9,499.3,232.2,496.7,227.4z"/>
										<path class="st5" d="M486.2,239.3c-1.4,1.9-2.7,3.8-3.9,5.8c-1.2,2-2.4,4-3.4,6.1c3.6,2.6,7.5,4.7,11,7.4
											c0.2-0.4,0.4-0.7,0.6-1.1c1.7-2.8,3.6-5.4,5.7-7.8c-0.1-0.1-0.2-0.2-0.3-0.3C493.7,245.4,490.3,241.3,486.2,239.3z"/>
										<path class="st5" d="M477.5,253.6c-2.2,4.4-4,9.1-5.4,13.8c1.8,0.1,3.6,0.7,5.3,1.3c2.2,0.9,4.3,1.9,6.2,3.2
											c1.4-3.8,3-7.4,4.9-11c0,0-0.1,0-0.1-0.1C485,258.2,481.1,256.2,477.5,253.6z"/>
										<path class="st5" d="M471.3,270.3c-0.8,3-1.3,6-1.7,9c3.7,0.3,7.2,1.5,10.8,2.4c0.7-2.4,1.5-4.7,2.3-7
											c-0.1,0-0.2-0.1-0.3-0.1C479.3,272.4,475.2,270.2,471.3,270.3z"/>
									</g>
									<g>
										<path class="st6" d="M469.1,279.2c0.2,0,0.3,0,0.5,0c0.4-3,1-6,1.7-9c-0.3,0-0.6,0-0.9,0c-1.8,0.2-1.8-2.6,0-2.8
											c0.6-0.1,1.1-0.1,1.7,0c1.4-4.7,3.2-9.4,5.4-13.8c-0.2-0.1-0.4-0.3-0.6-0.4c-1.4-1.1,0-3.5,1.4-2.4
											c0.2,0.1,0.3,0.2,0.5,0.3c1.1-2.1,2.2-4.1,3.4-6.1c1.2-2,2.6-3.9,3.9-5.8c-0.1,0-0.1-0.1-0.2-0.1
											c-1.6-0.8-0.2-3.2,1.4-2.4c0.2,0.1,0.3,0.2,0.5,0.3c1.8-2.3,3.7-4.5,5.7-6.6c1-1.1,2.1-2.1,3.1-3
											c-0.2-0.4-0.5-0.9-0.7-1.4c-0.8-1.6,1.6-3,2.4-1.4c0.2,0.3,0.3,0.6,0.5,0.9c3-2.4,6.2-4.3,9.8-5.7
											c0.2-0.1,0.4-0.1,0.5-0.2c1.6-0.5,1-2.9-0.4-2.7c-0.1,0-0.2,0-0.3,0c-6.2,2.1-11.3,5.9-15.9,10.5
											c-4.4,4.3-8.2,9.2-11.6,14.3c-6.8,10.3-11.7,22.2-13.8,34.4c-0.2,1.1-0.3,2.2-0.5,3.3c0.4-0.1,0.8-0.3,1.2-0.4
											C468.5,278.9,468.8,279,469.1,279.2z"/>
										<path class="st6" d="M509.4,238.5c-0.2,0.1-0.3,0.2-0.5,0.3c-0.8,0.5-1.6,1-2.4,1.5c0.2,0.5,0.4,0.9,0.5,1.4
											c0.6,1.7-2.1,2.4-2.7,0.8c0-0.1-0.1-0.3-0.2-0.4c-2.2,1.7-4.2,3.5-6.1,5.5c0.1,0.1,0.2,0.3,0.2,0.4
											c0.8,1.4-1.1,2.7-2.1,1.7c-2.1,2.4-4,5-5.7,7.8c-0.2,0.4-0.4,0.7-0.6,1.1c0.2,0.1,0.3,0.2,0.5,0.4c1.4,1.1-0.5,3-1.9,2
											c-1.9,3.5-3.5,7.2-4.9,11c0.1,0,0.1,0.1,0.2,0.1c1.4,0.9,0.3,3.1-1.1,2.5c-0.8,2.3-1.6,4.7-2.3,7c0.2,0,0.3,0.1,0.5,0.1
											c0.3,0.1,0.6,0.3,0.7,0.5c0.4,0,0.8,0.2,1.1,0.6c0.1,0.1,0.1,0.2,0.2,0.3c2.5-8.3,5.4-16.5,9.9-24
											c4.1-6.9,9.6-12.8,16.4-17.2c0.6-0.4,1.1-0.7,1.7-1.1C512.4,240.1,511,237.6,509.4,238.5z"/>
										<path class="st6" d="M481.6,282.2c-1-0.1-2,1-1.4,2.1c0,0.1,0.1,0.1,0.1,0.2c1.6,2.8,2.7,5.8,2.5,9
											c-0.2,2.6-1.7,6.3-4.3,7.4c-0.8,0.3-2.5,0.2-2.8-0.8c-0.2-0.6,0.8-2.1,1-2.6c0.8-2.1,0.4-4.9-1.1-6.5
											c-1.9-2.1-4.9-1.7-6.7,0.2c-0.9,1-1,2.2-0.8,3.4c0.2,1.1,0.8,2.1,0.3,3.2c-0.2,0.4-0.4,0.7-0.6,0.9
											c-0.1,0.1-0.2,0.1-0.3,0.1c-0.4,0-1.2-0.6-1.6-1c-1.4-1.3-2.4-3.1-3.1-4.8c-1.5-4,1.3-9.5,5.2-10.9
											c0.3-0.1,0.5-0.2,0.8-0.2c1.3-0.3,1.2-1.8,0.4-2.5c-0.3-0.2-0.7-0.3-1.1-0.2c-0.4,0.1-0.8,0.2-1.2,0.4
											c-4.6,1.7-7.2,6.9-7.3,11.6c0,1.9,0.9,3.9,1.9,5.5c1,1.7,2.3,3.4,4,4.4c1.6,0.9,3.5,0.7,4.7-0.7c0.7-0.9,1.1-2,1.3-3.1
											c0.1-1.2-0.6-2.3-0.6-3.4c-0.1-0.9,1.4-1.7,2.2-1.3c0.9,0.4,1.2,1.6,1.3,2.5c0.2,2.2-1.6,3.8-1.2,6
											c0.4,2.4,3.7,3.2,5.6,2.9c2.3-0.4,4.2-2.7,5.3-4.7c2.8-5.1,1.7-11.1-1.2-15.9c-0.1-0.1-0.1-0.2-0.2-0.3
											C482.4,282.4,482,282.2,481.6,282.2z"/>
										<path class="st6" d="M472.1,267.5c-0.6,0-1.1,0-1.7,0c-1.8,0.2-1.8,3,0,2.8c0.3,0,0.6,0,0.9,0c3.9,0,8,2.2,11,4.2
											c0.1,0.1,0.2,0.1,0.3,0.1c1.4,0.6,2.5-1.6,1.1-2.5c-0.1,0-0.1-0.1-0.2-0.1c-1.9-1.3-4-2.3-6.2-3.2
											C475.7,268.1,473.9,267.6,472.1,267.5z"/>
										<path class="st6" d="M478.3,250.8c-1.5-1.1-2.8,1.4-1.4,2.4c0.2,0.1,0.4,0.3,0.6,0.4c3.5,2.5,7.4,4.6,10.8,7.3
											c0,0,0.1,0,0.1,0.1c1.4,0.9,3.2-0.9,1.9-2c-0.2-0.1-0.3-0.2-0.5-0.4c-3.5-2.7-7.4-4.8-11-7.4
											C478.7,251,478.5,250.9,478.3,250.8z"/>
										<path class="st6" d="M487.4,236.7c-1.6-0.8-3,1.6-1.4,2.4c0.1,0,0.1,0.1,0.2,0.1c4.2,2.1,7.5,6.1,9.6,10.1
											c0.1,0.1,0.2,0.2,0.3,0.3c1,1,2.9-0.3,2.1-1.7c-0.1-0.1-0.1-0.3-0.2-0.4c-2.3-4.2-5.9-8.4-10.2-10.6
											C487.7,236.9,487.6,236.8,487.4,236.7z"/>
										<path class="st6" d="M498.9,225.5c-0.2-0.3-0.3-0.6-0.5-0.9c-0.8-1.6-3.2-0.2-2.4,1.4c0.2,0.5,0.5,0.9,0.7,1.4
											c2.6,4.9,5.5,9.5,7.5,14.7c0.1,0.1,0.1,0.3,0.2,0.4c0.6,1.7,3.3,1,2.7-0.8c-0.2-0.5-0.3-0.9-0.5-1.4
											C504.4,235.2,501.5,230.4,498.9,225.5z"/>
										<path class="st6" d="M469.1,279.2c0.8,0.6,0.9,2.2-0.4,2.5c-0.3,0.1-0.5,0.1-0.8,0.2c0.1,0,0.1,0,0.2,0
											c4.1,0,8.1,1.6,12,2.5c0.1,0,0.1,0,0.2,0c0-0.1-0.1-0.1-0.1-0.2c-0.7-1.1,0.4-2.1,1.4-2.1c-0.2-0.2-0.4-0.4-0.7-0.5
											c-0.2,0-0.3-0.1-0.5-0.1c-3.6-0.9-7.1-2.1-10.8-2.4C469.4,279.2,469.3,279.2,469.1,279.2z"/>
									</g>
								</g>
								<g>
									<path class="st4" d="M657.9,173.1c0.1,0,0.1,0,0.2,0c4-1.5,6.8-7,5.2-10.9c-0.7-1.7-1.7-3.5-3.1-4.8c-0.4-0.4-1.2-1-1.6-1
										c-0.2,0-0.2,0-0.3,0.1c-0.3,0.3-0.5,0.6-0.6,0.9c-0.5,1.1,0.2,2.1,0.3,3.2c0.2,1.2,0,2.4-0.8,3.4c-1.8,2-4.8,2.3-6.7,0.2
										c-1.5-1.7-1.9-4.4-1.1-6.5c0.2-0.6,1.2-2,1-2.6c-0.3-1-2-1.1-2.8-0.8c-2.6,1.1-4.2,4.7-4.3,7.4c-0.2,3.2,0.8,6.2,2.5,9
										c0.1,0,0.1,0,0.2,0C649.8,171.6,653.8,173.1,657.9,173.1z"/>
									<g>
										<path class="st5" d="M627.1,229.6c-2.6-5-5.6-9.7-7.6-14.9c-0.8,0.5-1.6,1-2.4,1.5c0.3,6.3,0.4,12.7,0.2,19
											C620.9,234,624.2,232,627.1,229.6z"/>
										<path class="st5" d="M629.3,227.7c1.1-1,2.1-2,3.1-3c2-2.1,3.9-4.3,5.7-6.6c-4.3-2.2-7.8-6.4-10.2-10.6
											c-1.9,2-3.9,3.9-6.1,5.5C623.8,218.2,626.7,222.9,629.3,227.7z"/>
										<path class="st5" d="M639.8,215.8c1.4-1.9,2.7-3.8,3.9-5.8s2.4-4,3.4-6.1c-3.6-2.6-7.5-4.7-11-7.4
											c-0.2,0.4-0.4,0.7-0.6,1.1c-1.7,2.8-3.6,5.4-5.7,7.8c0.1,0.1,0.2,0.2,0.3,0.3C632.4,209.7,635.7,213.8,639.8,215.8z"/>
										<path class="st5" d="M648.5,201.5c2.2-4.4,4-9.1,5.4-13.8c-1.8-0.1-3.6-0.7-5.3-1.3c-2.2-0.9-4.3-1.9-6.2-3.2
											c-1.4,3.8-3,7.4-4.9,11c0,0,0.1,0,0.1,0.1C641,196.9,644.9,198.9,648.5,201.5z"/>
										<path class="st5" d="M654.7,184.8c0.8-3,1.3-6,1.7-9c-3.7-0.3-7.2-1.5-10.8-2.4c-0.7,2.4-1.5,4.7-2.3,7
											c0.1,0,0.2,0.1,0.3,0.1C646.7,182.7,650.8,184.9,654.7,184.8z"/>
									</g>
									<g>
										<path class="st6" d="M656.9,175.9c-0.2,0-0.3,0-0.5,0c-0.4,3-1,6-1.7,9c0.3,0,0.6,0,0.9,0c1.8-0.2,1.8,2.6,0,2.8
											c-0.6,0.1-1.1,0.1-1.7,0c-1.4,4.7-3.2,9.4-5.4,13.8c0.2,0.1,0.4,0.3,0.6,0.4c1.4,1.1,0,3.5-1.4,2.4
											c-0.2-0.1-0.3-0.2-0.5-0.3c-1.1,2.1-2.2,4.1-3.4,6.1s-2.6,3.9-3.9,5.8c0.1,0,0.1,0.1,0.2,0.1c1.6,0.8,0.2,3.2-1.4,2.4
											c-0.2-0.1-0.3-0.2-0.5-0.3c-1.8,2.3-3.7,4.5-5.7,6.6c-1,1.1-2.1,2.1-3.1,3c0.2,0.4,0.5,0.9,0.7,1.4c0.8,1.6-1.6,3-2.4,1.4
											c-0.2-0.3-0.3-0.6-0.5-0.9c-3,2.4-6.2,4.3-9.8,5.7c-0.2,0.1-0.4,0.1-0.5,0.2c-1.6,0.5-1,2.9,0.4,2.7c0.1,0,0.2,0,0.3,0
											c6.2-2.1,11.3-5.9,15.9-10.5c4.4-4.3,8.2-9.2,11.6-14.3c6.8-10.3,11.7-22.2,13.8-34.4c0.2-1.1,0.3-2.2,0.5-3.3
											c-0.4,0.1-0.8,0.3-1.2,0.4C657.6,176.2,657.2,176.1,656.9,175.9z"/>
										<path class="st6" d="M616.6,216.6c0.2-0.1,0.3-0.2,0.5-0.3c0.8-0.5,1.6-1,2.4-1.5c-0.2-0.5-0.4-0.9-0.5-1.4
											c-0.6-1.7,2.1-2.4,2.7-0.8c0,0.1,0.1,0.3,0.2,0.4c2.2-1.7,4.2-3.5,6.1-5.5c-0.1-0.1-0.2-0.3-0.2-0.4
											c-0.8-1.4,1.1-2.7,2.1-1.7c2.1-2.4,4-5,5.7-7.8c0.2-0.4,0.4-0.7,0.6-1.1c-0.2-0.1-0.3-0.2-0.5-0.4c-1.4-1.1,0.5-3,1.9-2
											c1.9-3.5,3.5-7.2,4.9-11c-0.1,0-0.1-0.1-0.2-0.1c-1.4-0.9-0.3-3.1,1.1-2.5c0.8-2.3,1.6-4.7,2.3-7c-0.2,0-0.3-0.1-0.5-0.1
											c-0.3-0.1-0.6-0.3-0.7-0.5c-0.4,0-0.8-0.2-1.1-0.6c-0.1-0.1-0.1-0.2-0.2-0.3c-2.5,8.3-5.4,16.5-9.9,24
											c-4.1,6.9-9.6,12.8-16.4,17.2c-0.6,0.4-1.1,0.7-1.7,1.1C613.6,215,615,217.5,616.6,216.6z"/>
										<path class="st6" d="M656.9,175.9c-0.8-0.6-0.9-2.2,0.4-2.5c0.3-0.1,0.5-0.1,0.8-0.2c-0.1,0-0.1,0-0.2,0
											c-4.1,0-8.1-1.6-12-2.5c-0.1,0-0.1,0-0.2,0c0,0.1,0.1,0.1,0.1,0.2c0.7,1.1-0.4,2.1-1.4,2.1c0.2,0.2,0.4,0.4,0.7,0.5
											c0.2,0,0.3,0.1,0.5,0.1c3.6,0.9,7.1,2.1,10.8,2.4C656.6,175.9,656.7,175.9,656.9,175.9z"/>
										<path class="st6" d="M644.4,172.9c1,0.1,2-1,1.4-2.1c0-0.1-0.1-0.1-0.1-0.2c-1.6-2.8-2.7-5.8-2.5-9
											c0.2-2.6,1.7-6.3,4.3-7.4c0.8-0.3,2.5-0.2,2.8,0.8c0.2,0.6-0.8,2.1-1,2.6c-0.8,2.1-0.4,4.9,1.1,6.5
											c1.9,2.1,4.9,1.7,6.7-0.2c0.9-1,1-2.2,0.8-3.4c-0.2-1.1-0.8-2.1-0.3-3.2c0.2-0.4,0.4-0.7,0.6-0.9c0.1-0.1,0.2-0.1,0.3-0.1
											c0.4,0,1.2,0.6,1.6,1c1.4,1.3,2.4,3.1,3.1,4.8c1.5,4-1.3,9.5-5.2,10.9c-0.3,0.1-0.5,0.2-0.8,0.2c-1.3,0.3-1.2,1.8-0.4,2.5
											c0.3,0.2,0.7,0.3,1.1,0.2c0.4-0.1,0.8-0.2,1.2-0.4c4.6-1.7,7.2-6.9,7.3-11.6c0-1.9-0.9-3.9-1.9-5.5c-1-1.7-2.3-3.4-4-4.4
											c-1.6-0.9-3.5-0.7-4.7,0.7c-0.7,0.9-1.1,2-1.3,3.1c-0.1,1.2,0.6,2.3,0.6,3.4c0.1,0.9-1.4,1.7-2.2,1.3
											c-0.9-0.4-1.2-1.6-1.3-2.5c-0.2-2.2,1.6-3.8,1.2-6c-0.4-2.4-3.7-3.2-5.6-2.9c-2.3,0.4-4.2,2.7-5.3,4.7
											c-2.8,5.1-1.7,11.1,1.2,15.9c0.1,0.1,0.1,0.2,0.2,0.3C643.6,172.7,644,172.9,644.4,172.9z"/>
										<path class="st6" d="M653.9,187.6c0.6,0,1.1,0,1.7,0c1.8-0.2,1.8-3,0-2.8c-0.3,0-0.6,0-0.9,0c-3.9,0-8-2.2-11-4.2
											c-0.1-0.1-0.2-0.1-0.3-0.1c-1.4-0.6-2.5,1.6-1.1,2.5c0.1,0,0.1,0.1,0.2,0.1c1.9,1.3,4,2.3,6.2,3.2
											C650.3,187,652.1,187.5,653.9,187.6z"/>
										<path class="st6" d="M647.7,204.3c1.5,1.1,2.8-1.4,1.4-2.4c-0.2-0.1-0.4-0.3-0.6-0.4c-3.5-2.5-7.4-4.6-10.8-7.3
											c0,0-0.1,0-0.1-0.1c-1.4-0.9-3.2,0.9-1.9,2c0.2,0.1,0.3,0.2,0.5,0.4c3.5,2.7,7.4,4.8,11,7.4
											C647.3,204.1,647.5,204.2,647.7,204.3z"/>
										<path class="st6" d="M638.6,218.4c1.6,0.8,3-1.6,1.4-2.4c-0.1,0-0.1-0.1-0.2-0.1c-4.2-2.1-7.5-6.1-9.6-10.1
											c-0.1-0.1-0.2-0.2-0.3-0.3c-1-1-2.9,0.3-2.1,1.7c0.1,0.1,0.1,0.3,0.2,0.4c2.3,4.2,5.9,8.4,10.2,10.6
											C638.3,218.2,638.4,218.3,638.6,218.4z"/>
										<path class="st6" d="M627.1,229.6c0.2,0.3,0.3,0.6,0.5,0.9c0.8,1.6,3.2,0.2,2.4-1.4c-0.2-0.5-0.5-0.9-0.7-1.4
											c-2.6-4.9-5.5-9.5-7.5-14.7c-0.1-0.1-0.1-0.3-0.2-0.4c-0.6-1.7-3.3-1-2.7,0.8c0.2,0.5,0.3,0.9,0.5,1.4
											C621.6,219.9,624.5,224.7,627.1,229.6z"/>
									</g>
								</g>
								<g>
									<path class="st4" d="M609.7,332.3c-1.6,0.1-3,0.3-4.6,0.6c-1.6,3.5-3.1,7.3-3.7,11.1c7.2,0.8,15.3,1.3,21.4-2.5
										c-2.1-3.9-5-7.3-7.7-10.8c-0.3,0.3-0.7,0.5-1.1,0.7C612.7,332.1,611.1,332.2,609.7,332.3z"/>
									<g>
										<path class="st5" d="M588.1,276.4c0.6,1.7,1.3,3.4,1.9,5.1c0.9,2.5,1.8,5,2.6,7.5c2.3-0.5,4.4-1.3,6.6-2.1
											c1.3-0.5,2.7-1.1,4-1.6c0.7-0.3,1.5-0.6,2.2-0.9c-1.1-3.6-2.4-7.2-3.6-10.8c-0.3-0.8-0.5-1.6-0.8-2.4
											c-2,0.8-4.2,1.4-6.2,2.1C592.5,274.2,590.2,275.1,588.1,276.4z"/>
										<path class="st5" d="M584.6,267.7c1.1,1.9,1.8,3.9,2.5,5.9c2-1.1,4.1-2,6.2-2.8c2.2-0.8,4.5-1.6,6.8-2.1
											c-0.5-1.5-1.1-3-1.7-4.5c-0.7-1.6-1.4-3.5-2.5-5.1c-2.3,2.5-4.8,4.7-7.7,6.5C587,266.4,585.8,267.1,584.6,267.7z"/>
										<path class="st5" d="M600.3,289.6c-2.2,0.9-4.5,1.7-6.8,2.2c0.7,2.1,1.4,4.3,2.1,6.4c0.7,2,1.3,4,1.9,6.1
											c3.9-1.4,8-2.1,11.9-3.6c-0.7-3.9-1.6-7.8-2.6-11.7c-0.2-0.6-0.4-1.3-0.6-1.9c-0.6,0.3-1.3,0.5-1.9,0.8
											C603,288.5,601.6,289,600.3,289.6z"/>
										<path class="st5" d="M600.5,314.5c0.3,1.3,0.7,2.6,1,3.9c0.1,0,0.2,0.1,0.4,0.1c0.4,0.1,0.8,0.1,1.2,0.1
											c1.2,0,2.5-0.3,3.7-0.5c1.3-0.3,2.7-0.6,4-1c0.4-0.1,0.8-0.2,1.3-0.3c-0.3-2.3-0.6-4.5-1-6.8c-0.3-2.2-0.7-4.4-1.1-6.6
											c-3.7,1.5-7.7,2.5-11.5,3.7C599.1,309.5,599.8,312,600.5,314.5z"/>
										<path class="st5" d="M606.9,320.9c-1.3,0.3-2.7,0.5-4.1,0.5c-0.2,0-0.3,0-0.5-0.1c0.8,2.9,1.7,5.7,2.8,8.5
											c1.7-0.3,3.4-0.5,5.1-0.6c0.7-0.1,1.3-0.1,2-0.4c0.3-0.1,0.7-0.4,0.8-0.7c0.3-0.8,0.3-1.8,0.2-2.7
											c-0.1-1.7-0.5-3.4-0.7-5.1c0-0.3-0.1-0.6-0.1-1c-0.4,0.1-0.8,0.2-1.2,0.3C609.8,320.3,608.3,320.6,606.9,320.9z"/>
									</g>
									<g>
										<path class="st6" d="M605.5,332.5c-0.1,0.2-0.2,0.4-0.3,0.7c1.4-0.3,2.9-0.5,4.4-0.6c1.4-0.1,2.9-0.2,4.2-0.8
											c0.4-0.2,0.8-0.4,1.1-0.7c-0.3-0.4-0.6-0.7-0.8-1.1c-1-1.4,1.1-3.1,2.3-2c0.2-1.8-0.1-3.8-0.3-5.3
											c-2.1-14-3.6-28.3-8.5-41.6c-1.6-4.5-2.9-9.1-4.6-13.6c-1.3-3.5-2.6-7.6-5.2-10.6c-0.3-0.4-0.7-0.8-1.1-1.1
											c-1.4-1.2-3.3,0.7-2,2c0.4,0.4,0.8,0.9,1.1,1.4c1,1.6,1.8,3.4,2.5,5.1c0.6,1.5,1.2,3,1.7,4.5c0.5-0.1,1-0.2,1.5-0.3
											c1.3-0.2,2.2,1.5,0.9,2.2c-0.5,0.3-1,0.5-1.5,0.7c0.3,0.8,0.5,1.6,0.8,2.4c1.2,3.6,2.5,7.2,3.6,10.8
											c0.5-0.2,1.1-0.3,1.6-0.4c1.3-0.2,2.2,1.4,0.9,2.2c-0.5,0.3-1.1,0.6-1.7,0.9c0.2,0.6,0.4,1.3,0.6,1.9
											c1.1,3.9,1.9,7.8,2.6,11.7c0.2-0.1,0.4-0.2,0.7-0.2c1.4-0.6,2.4,1.8,1,2.4c-0.4,0.2-0.8,0.3-1.2,0.5
											c0.4,2.2,0.8,4.4,1.1,6.6c0.3,2.3,0.7,4.5,1,6.8c0.7-0.2,1.3-0.3,2-0.4c1.2,0,1.9,1.9,0.7,2.4c-0.7,0.3-1.5,0.5-2.2,0.7
											c0,0.3,0.1,0.6,0.1,1c0.2,1.7,0.6,3.4,0.7,5.1c0.1,0.9,0.1,1.8-0.2,2.7c-0.1,0.2-0.5,0.6-0.8,0.7c-0.7,0.2-1.3,0.3-2,0.4
											c-1.7,0.2-3.4,0.3-5.1,0.6c-1.1-2.8-2-5.6-2.8-8.5c-0.4,0-0.7,0-1.1-0.1c-0.3-0.1-0.6-0.2-0.8-0.3
											c-0.2-0.1-0.4-0.3-0.5-0.5s-0.2-0.3-0.2-0.4c-0.3-0.7,0.2-1.7,1-1.8c0.1,0,0.3-0.1,0.4-0.1c0.1,0,0.2,0,0.3,0
											c-0.3-1.3-0.7-2.6-1-3.9c-0.6-2.5-1.3-4.9-2.1-7.4c-0.4,0.1-0.8,0.2-1.1,0.3c-1.8,0.6-2.4-2.1-0.8-2.7
											c0.3-0.1,0.7-0.3,1-0.4c-0.6-2-1.3-4-1.9-6.1c-0.7-2.1-1.4-4.3-2.1-6.4c-0.3,0.1-0.6,0.2-1,0.2c-1.8,0.3-2.6-2.5-0.8-2.8
											c0.3,0,0.6-0.1,0.8-0.2c-0.8-2.5-1.7-5-2.6-7.5c-0.6-1.7-1.3-3.4-1.9-5.1c-0.3,0.2-0.6,0.3-0.9,0.5
											c-1.6,1.1-3.1-1.5-1.5-2.6c0.4-0.3,0.9-0.6,1.3-0.8c-0.7-2-1.4-4.1-2.5-5.9c-0.1-0.2-0.2-0.3-0.3-0.5
											c-1.1-1.7-3.7-0.1-2.7,1.6c0,0.1,0.1,0.1,0.1,0.2c1.2,2.1,1.9,4.4,2.7,6.7c0.9,2.7,2,5.3,3,8c2,5.5,3.8,11.1,5.6,16.7
											c1.7,5.4,3.3,10.7,4.8,16.2c1.3,5.2,2.8,10.3,4.8,15.2c0.1-0.3,0.2-0.5,0.4-0.8C603.8,329.2,606.3,330.8,605.5,332.5z"/>
										<path class="st6" d="M606.7,318.1c-1.2,0.3-2.4,0.5-3.7,0.5c-0.4,0-0.8,0-1.2-0.1c-0.1,0-0.3-0.1-0.4-0.1
											c-0.1,0-0.2,0-0.3,0s-0.3,0-0.4,0.1c-0.8,0.1-1.3,1-1,1.8c0,0,0.1,0.1,0.2,0.4c0.1,0.2,0.3,0.4,0.5,0.5s0.6,0.2,0.8,0.3
											c0.3,0.1,0.7,0.1,1.1,0.1c0.2,0,0.3,0.1,0.5,0.1c1.4,0,2.7-0.2,4.1-0.5c1.4-0.3,2.9-0.7,4.3-1.1c0.4-0.1,0.8-0.2,1.2-0.3
											c0.8-0.2,1.5-0.4,2.2-0.7c1.2-0.5,0.6-2.5-0.7-2.4c-0.7,0-1.3,0.2-2,0.4c-0.4,0.1-0.9,0.2-1.3,0.3
											C609.4,317.4,608,317.8,606.7,318.1z"/>
										<path class="st6" d="M596.5,304.7c-1.6,0.7-1,3.3,0.8,2.7c0.4-0.1,0.7-0.2,1.1-0.3c3.9-1.2,7.8-2.2,11.5-3.7
											c0.4-0.2,0.8-0.3,1.2-0.5c1.4-0.6,0.4-3-1-2.4c-0.2,0.1-0.4,0.2-0.7,0.2c-3.9,1.4-8,2.1-11.9,3.6
											C597.2,304.4,596.8,304.5,596.5,304.7z"/>
										<path class="st6" d="M599.2,286.9c-2.1,0.9-4.3,1.6-6.6,2.1c-0.3,0.1-0.6,0.1-0.8,0.2c-1.8,0.3-1,3.1,0.8,2.8
											c0.3-0.1,0.7-0.1,1-0.2c2.3-0.5,4.6-1.3,6.8-2.2c1.3-0.5,2.7-1.1,4-1.7c0.6-0.3,1.3-0.5,1.9-0.8c0.6-0.3,1.2-0.5,1.7-0.9
											c1.3-0.8,0.4-2.4-0.9-2.2c-0.5,0.1-1.1,0.2-1.6,0.4c-0.8,0.3-1.5,0.6-2.2,0.9C601.8,285.9,600.5,286.4,599.2,286.9z"/>
										<path class="st6" d="M587.1,273.6c-0.5,0.3-0.9,0.5-1.3,0.8c-1.6,1.1-0.1,3.6,1.5,2.6c0.3-0.2,0.6-0.4,0.9-0.5
											c2.1-1.3,4.4-2.2,6.7-3c2-0.7,4.2-1.3,6.2-2.1c0.5-0.2,1-0.4,1.5-0.7c1.3-0.7,0.3-2.4-0.9-2.2c-0.5,0.1-1,0.2-1.5,0.3
											c-2.3,0.5-4.7,1.3-6.8,2.1C591.1,271.6,589,272.4,587.1,273.6z"/>
										<path class="st6" d="M625.7,341.2c-2.3-4.9-5.9-9-9.2-13.1c0-0.1-0.1-0.1-0.2-0.1c-1.2-1.1-3.3,0.7-2.3,2
											c0.3,0.4,0.5,0.7,0.8,1.1c2.6,3.4,5.4,6.7,7.4,10.4c-6,3.8-13.8,3.2-20.6,2.4c0.6-3.7,2.1-7.3,3.6-10.7
											c0.1-0.2,0.2-0.4,0.3-0.7c0.8-1.8-1.7-3.3-2.6-1.5c-0.1,0.3-0.2,0.5-0.4,0.8c-2.2,4.2-3.8,8.9-4.3,13.6
											c-0.1,1,0.8,1.5,1.6,1.6c8.3,1,18.3,1.9,25.4-3.6C625.9,342.8,626.2,342,625.7,341.2z"/>
									</g>
								</g>
							</g>
						</g>
					</g>
					<g>
						<g>
							<rect x="559.3" y="111.2" class="st2" width="7.2" height="15.9"/>
							<g>
								<g>
									<circle class="st2" cx="563" cy="113.6" r="4.7"/>
									<path class="st2" d="M563,106c3.5,0,6.4,2.3,7.4,5.5l3.1-3.1c-1.9-3.8-5.9-6.5-10.5-6.5s-8.6,2.7-10.5,6.5l3.1,3.1
										C556.5,108.4,559.5,106,563,106z"/>
									<path class="st2" d="M563,99.3c5.3,0,9.9,2.9,12.4,7.2l2.9-2.9c-3.3-5-9-8.3-15.4-8.3s-12.1,3.3-15.4,8.3l2.9,2.9
										C553,102.2,557.7,99.3,563,99.3z"/>
									<path class="st2" d="M563,92.5c7.2,0,13.5,3.6,17.4,9.1l2.9-2.9c-4.6-6.2-12-10.2-20.3-10.2s-15.7,4-20.3,10.3l2.9,2.9
										C549.4,96.1,555.8,92.5,563,92.5z"/>
								</g>
							</g>
							<rect x="553.6" y="188.7" class="st2" width="18.8" height="26.2"/>
						</g>
						<g>
							<g>
								<path class="st7" d="M596.1,294.9h-66.3c-13,0-23.7-10.7-23.7-23.7v-41.1c0-13,10.7-23.7,23.7-23.7h66.3
									c13,0,23.7,10.7,23.7,23.7v41.1C619.8,284.2,609.1,294.9,596.1,294.9z"/>
							</g>
							<g>
								<path class="st8" d="M589.3,248c2.5-4.4,5.3-9.7,5.4-14.9c0-1.9-0.3-3.9-2-5c-1.7-1.2-3.8-0.8-5.2,0.6c-3.8,3.6-5,9-8,13.1
									c-0.9,1.3-2.7,0.2-2.7-1.1c0,0,0,0,0-0.1c-1.2-4.4-3.1-10.5-7.9-12.3c-2-0.8-4.2,0.2-5.5,1.9c-1.2,1.6-1.2,3.7-0.9,5.6
									c0.7,5.2,3.4,10.2,6,14.7c2.9,4.8,6.2,9.3,10.1,13.3c2-2.8,5.7-7.8,7.3-10.2C587.1,251.7,588.2,249.8,589.3,248z"/>
								<g>
									<line class="st9" x1="582.2" y1="211.9" x2="546.3" y2="247.9"/>
									<line class="st9" x1="588.5" y1="217.6" x2="552.6" y2="253.6"/>
									<line class="st9" x1="594.8" y1="223.3" x2="558.9" y2="259.3"/>
									<line class="st9" x1="601.1" y1="229.1" x2="565.2" y2="265"/>
									<line class="st9" x1="607.4" y1="234.8" x2="571.5" y2="270.7"/>
								</g>
							</g>
						</g>
						<path class="st7" d="M590.5,198.2h-55c-11.9,0-21.7-9.8-21.7-21.7v-31.8c0-11.9,9.8-21.7,21.7-21.7h55
							c11.9,0,21.7,9.8,21.7,21.7v31.8C612.2,188.4,602.4,198.2,590.5,198.2z"/>
						<g>
							<circle class="st4" cx="529.1" cy="160.6" r="5.6"/>
							<circle class="st4" cx="596.8" cy="160.6" r="5.6"/>
						</g>
					</g>
				</g>
			</g>
		</g>
		<g>
			<g>
				<path class="st10" d="M487.9,604.8v7h8.8v1.9h-10.9v-10.8h8.8v-4.9h-8.7V596h10.8v6.5c0,1.3-1,2.3-2.3,2.3H487.9z"/>
				<path class="st10" d="M513.6,613.6h-8.7V596h11v15.4C515.9,612.6,514.8,613.6,513.6,613.6z M506.9,597.9v13.8h6.9v-13.8H506.9z"
					/>
				<path class="st10" d="M522.6,597.9V596h6v17.6h-2.1v-15.7H522.6z"/>
				<path class="st10" d="M536.8,613.6V596h10.8v15.4c0,1.3-1,2.3-2.3,2.3L536.8,613.6L536.8,613.6z M538.9,597.9v4.9h6.7v-4.9
					H538.9z M538.9,604.8v7h6.7v-7H538.9z"/>
				<path class="st10" d="M555.8,614.1v-2.3h3.1v2.3H555.8z"/>
				<path class="st10" d="M565.6,597.9V596h6v17.6h-2.1v-15.7H565.6z"/>
				<path class="st10" d="M581.9,604.8v7h8.8v1.9h-10.9v-10.8h8.8v-4.9h-8.7V596h10.8v6.5c0,1.3-1,2.3-2.3,2.3H581.9z"/>
				<path class="st10" d="M598.9,614.1v-2.3h3.1v2.3H598.9z"/>
				<path class="st10" d="M618.9,613.6h-8.7V596h11v15.4C621.2,612.6,620.2,613.6,618.9,613.6z M612.2,597.9v13.8h6.9v-13.8H612.2z"
					/>
				<path class="st10" d="M631.5,604.8v7h8.8v1.9h-10.9v-10.8h8.8v-4.9h-8.7V596h10.8v6.5c0,1.3-1,2.3-2.3,2.3H631.5z"/>
				<path class="st10" d="M434.5,637.9v2h-4v15.6h-2.2v-15.6h-4v-2H434.5z"/>
				<path class="st10" d="M450.9,637.9h2.1v17.6h-2.1v-9.1h-7.3v9.1h-2.1v-17.6h2.1v6.5h7.3V637.9z"/>
				<path class="st10" d="M470.1,655.6h-8.9V638h8.9v1.9h-6.8v4.6h6v2h-6v7.1h6.8V655.6z"/>
				<path class="st10" d="M499.8,646.5H496l3.8,9.1h-2.3l-3.8-9.1h-2.7v9.1H489v-17.6h10.8L499.8,646.5L499.8,646.5z M491.1,639.9
					v4.6h6.6v-4.6H491.1z"/>
				<path class="st10" d="M519.3,655.5h-11.2v-17.6h11.2V655.5z M510.1,653.6h7v-13.7h-7V653.6z"/>
				<path class="st10" d="M537,644.5h1.9v11.1h-11.3V638h9.4V644.5z M534.8,639.9h-5.1v4.6h5.1V639.9z M529.7,653.6h7v-7h-7V653.6z"
					/>
				<path class="st10" d="M558.3,655.5h-11.2v-17.6h11.2V655.5z M549.1,653.6h7v-13.7h-7V653.6z"/>
				<path class="st10" d="M575.5,637.9v2h-4v15.6h-2.2v-15.6h-4v-2H575.5z"/>
				<path class="st10" d="M604.6,655.5h-10.8v-17.6h10.8v2H596v13.7h8.6V655.5z"/>
				<path class="st10" d="M623.6,655.5h-11.2v-17.6h11.2V655.5z M614.5,653.6h7v-13.7h-7V653.6z"/>
				<path class="st10" d="M639.7,648.6h-2.5l-3.4-6.5v13.4h-2.1v-17.6h2.2l4.5,8.5l4.4-8.5h2.6v17.6h-2.2v-13.8L639.7,648.6z"/>
				<path class="st10" d="M663,644.5h1.9v11.1h-11.3V638h9.4V644.5z M660.8,639.9h-5.1v4.6h5.1V639.9z M655.7,653.6h7v-7h-7V653.6z"
					/>
				<path class="st10" d="M673.2,637.9h11.4v17.6h-2.2v-9.1h-7v9.1h-2.2V637.9z M675.3,644.5h7v-4.6h-7V644.5z"/>
				<path class="st10" d="M701.7,637.9v2h-4v15.6h-2.2v-15.6h-4v-2H701.7z"/>
			</g>
			<g>
				<g>
					<line class="st11" x1="138.4" y1="558.3" x2="988.1" y2="558.3"/>
					<circle class="st5" cx="138.7" cy="558.3" r="6.2"/>
					<circle class="st5" cx="987.3" cy="558.3" r="6.2"/>
				</g>
			</g>
			<g>
				<g>
					<path class="st12" d="M390.9,397.3l4.5,13.7h-5.5v28.7h-5.1l-0.1-25.6l-2.8,9.3h-5.5l7-26.1h-6.3v-5.5h7.6v-11.7h5.1v11.7h5.4
						v5.5H390.9z M418.3,378.9l1.1,33.1H436v5.2h-14.6l3.7,6.4l2.2-4h6l-5.1,9.4l6.3,10.8h-6.1l-3.1-5.4l-2.1,3.9h-5.9l4.9-9.2
						l-6.7-11.8h-10.8l-0.1,1.7l7.5,11h-6.6l-1.6-2.3l-2.8,10.8h-5.5l3.3-13.1l0.4-8h-2.1V412h17l-1.1-33.1H418.3z M397.1,406.7
						l4.5-9.4l-5-4.7l5.5-11.7h4.9l-4.9,10.5l1.5,1.5l1.6-3.6h4.9l-5.8,12.4l3.2-0.1l-0.1-3.1h4.2l0.5,8.9h-4.2l-0.1-1.4
						L397.1,406.7z M424.8,397.4l-5.3-5.1l5.8-11.4h5.2l-5.3,10.4l1.9,1.9l1.8-3.8h4.9l-6,12.1l3.7-0.1l-0.4-2.8h4.3l1.1,8.9h-4.3
						l-0.2-1.8l-11.6,0.6L424.8,397.4z M423.9,407.8h5.4l2.2,3.3h-5.3L423.9,407.8z"/>
					<path class="st12" d="M514.7,421.9h-5.6v14.9H488v-16.6h13.3l-17.3-9.8l-15.8,9.8h14v16.6h-21v-14.9h-5.5l18.4-11.4h-17v-5.2
						h24l0.9-5.7h5.3l-1,5.7h26.8v5.2h-18.8L514.7,421.9z M482.4,381.4v17.3H461v-17.3H482.4z M509.2,381.4v17.3h-21.4v-17.3H509.2z
						"/>
					<path class="st12" d="M587.3,433.7l-5,3.9l-18.6-24.1l-17.3,24.1h-7.8l21.8-30.4v-25.9h6.3v25.8L587.3,433.7"/>
					<path class="st12" d="M669.1,395.4v6H647l21.7,36.6h-6.8l-19.6-33.1L624.8,438h-6.6l19.1-36.6H615v-6h24.1v-14.3h5.9v14.3
						H669.1z"/>
					<path class="st12" d="M737.2,406.5l12.2,8.7h-8.1l-4.2-3.1v20.2h-33v-19.8L701,415h-7.6l10.9-8.4h-12.8v-4H709v-2h-5.9v-4.2
						h5.9v-2.1h-9v-4.1h9v-2.6h4.3v2.6h14.3v-2.6h4.3v2.6h9v4.1h-9v2.1h5.9v4.2H732v2h17.6v4h-12.4V406.5z M697.8,386.6v3.8h-4v-7.8
						h24.7v-2.8h4.2v2.8h24.7v7.8h-4v-3.8H697.8z M702,439.5l3.5-4.1h7.2l-3.5,4.1H702z M707.2,410.1h27l-5.1-3.6H712L707.2,410.1z
						 M733.2,416v-2.1h-25.3v2.1H733.2z M707.9,420.2v2.1h25.3v-2.1H707.9z M707.9,428.6h25.3v-2.1h-25.3V428.6z M713.4,394.3v2.1
						h14.3v-2.1H713.4z M727.7,400.6h-14.3v2h14.3V400.6z M729.7,435.4h6.9l3.1,4.1h-6.9L729.7,435.4z"/>
					<path class="st12" d="M414.9,480.3l13.4-15.3l13.4,14.2h-7.5l-5.7-6l-6.4,7.1L414.9,480.3L414.9,480.3z M423.5,511.1h-4.9
						l-1.2-9h4.9L423.5,511.1z M430.9,498.1v16l8.5-1.8v5.9l-21.7,4.6V517l8.1-1.7v-17.2h-8.4v-5h8.4v-5.6h-5.9v-5.2h17v5.2h-6v5.6
						h7.8v5L430.9,498.1L430.9,498.1z M433.5,509l1.2-6.9h4.8l-1.1,6.9H433.5z M443,465.7h32.2v58.1h-5.1v-53h-22v53H443V465.7z
						 M467.1,475.9l-2.2,9.6h4.1v4.7h-7.5v18.6h1.9v-12.9h4.6v17.6h-17.9v-17.6h4.6v12.9h1.9v-18.6h-7.5v-4.7H460l2.2-9.6
						L467.1,475.9L467.1,475.9z M456,475.9l1.6,6.3H453l-1.6-6.3H456z"/>
					<path class="st12" d="M492.5,481l11.2-15.6l11.3,14.4h-6.4l-4.7-5.8l-5,7H492.5z M500.2,511.6h-4.7l-1-9.3h4.7L500.2,511.6z
						 M506.2,498.2v16.2l6.7-1.7v5.5l-18,4.5v-5.4l6.5-1.7v-17.4h-6.6v-4.7h6.6v-5.8h-4.6v-4.9h14v4.9h-4.6v5.8h6.2v4.7L506.2,498.2
						L506.2,498.2z M507.8,509.5l0.9-7.2h4.6l-1,7.2H507.8z M554.5,484.5h-11.9l2.6,10.3l1.5-4.2h5.4l-4.7,13.2l4.7,19.6h-5.2
						l-2.7-10.8l-3.7,10.5H535l6.9-19.5l-4.6-19.1h-21.6v-4.8h7.6v-3.4h-5.5v-5h5.5v-5.1h5.1v5.1h5.6v5h-5.6v3.4h8.3v-12.8h5.2v12.8
						h12.6V484.5z M516.5,517l6.9-1.3v-4H518v-4.3h5.4v-2.8h-6.6v-4.3h19.6v4.3h-7.9v2.8h6.9v4.3h-6.9v3.1l7.2-1.3v4.9l-19.3,3.3
						L516.5,517L516.5,517z M517.6,486.6h16.8v11.8h-16.8V486.6z M529.8,493.9v-2.8H522v2.8H529.8z M551.6,475.3h-5.2l-2.1-7.6h5.2
						L551.6,475.3z"/>
					<path class="st12" d="M582.9,480.9v11.2l5.1-2.8v6.3l-5.1,2.8v26h-5.3v-23.1l-4.8,2.7v-6.4l4.8-2.6v-14.1h-4.3v-5.5h4.3v-11.1
						h5.3v11.1h4.6v5.5L582.9,480.9L582.9,480.9z M614.8,474.6h18.1v14.3h-5v-9.4h-13.1v14h-5v-14h-13v9.4h-5v-14.3h18V470h-13.2v-5
						h31.5v5h-13.3V474.6z M595.8,523.1v-25.3h33v25.3H595.8z M607.4,482.4v4.6H599v-4.6H607.4z M599,493.6v-4.5h8.4v4.5H599z
						 M600.5,502.6v5.5h9.3v-5.5H600.5z M600.5,512.8v5.4h9.3v-5.4H600.5z M614.7,502.6v5.5h9.3v-5.5H614.7z M614.7,512.8v5.4h9.3
						v-5.4H614.7z M625.5,482.4v4.6h-8.4v-4.6H625.5z M617.1,493.6v-4.5h8.4v4.5H617.1z"/>
					<path class="st12" d="M700.4,496.1l-1.6-5.1l-41.3,1.8l12.6-26.7h6.6l-9.6,20.4l30-1.3l-2.6-9.1h6.2l5.8,20L700.4,496.1
						L700.4,496.1z M661.3,523.2v-24.1h40v24.1H661.3z M667.3,505.1v12.1h28.1v-12.1H667.3z"/>
				</g>
				<circle class="st0" cx="471.5" cy="389.7" r="5.2"/>
				<circle class="st0" cx="498.5" cy="389.7" r="5.2"/>
				<circle class="st0" cx="472.6" cy="428.1" r="5.2"/>
				<circle class="st0" cx="498.5" cy="428.1" r="5.2"/>
				<g>
					<path class="st13" d="M586,432.9c-0.2,0.3-0.1,0.9,0.4,0.9h0.1c1.3,0.1,2.6,0.4,3.7,1.2c0.9,0.7,1.8,2,1.5,3.2
						c-0.1,0.3-0.5,0.9-0.9,0.8c-0.3-0.1-0.5-0.7-0.7-0.9c-0.5-0.8-1.6-1.2-2.5-1.1c-1.1,0.2-1.7,1.3-1.4,2.4c0.1,0.5,0.5,0.8,1,1.1
						c0.4,0.2,0.9,0.2,1.2,0.6c0.1,0.1,0.1,0.3,0.2,0.4c0,0.1,0,0.1-0.1,0.1c-0.1,0.1-0.5,0.3-0.7,0.3c-0.8,0.2-1.6,0.1-2.4,0
						c-1.7-0.4-3-2.6-2.6-4.3c0-0.1,0.1-0.2,0.1-0.3c0.2-0.5-0.3-0.8-0.8-0.7c-0.1,0.1-0.3,0.2-0.3,0.3c-0.1,0.2-0.1,0.3-0.1,0.5
						c-0.4,2,0.7,4.1,2.3,5.2c0.7,0.5,1.5,0.6,2.3,0.6s1.7,0,2.4-0.4c0.7-0.3,1.1-1,0.8-1.8c-0.1-0.5-0.4-0.8-0.8-1.2
						c-0.4-0.3-0.9-0.3-1.3-0.6c-0.3-0.2-0.3-0.9,0-1.1s0.8-0.1,1.2,0.1c0.8,0.4,1,1.4,1.8,1.8c0.9,0.4,2-0.5,2.3-1.3
						c0.4-0.9,0-2.1-0.4-2.9c-1.1-2.1-3.4-3.1-5.7-3.2h-0.1C586.3,432.7,586.1,432.8,586,432.9z"/>
				</g>
			</g>
		</g>
	</g>
</g>
</svg>
