<?xml version="1.0" encoding="utf-8"?>
<!-- Generator: Adobe Illustrator 21.1.0, SVG Export Plug-In . SVG Version: 6.00 Build 0)  -->
<svg version="1.1" id="圖層_1" xmlns="http://www.w3.org/2000/svg" xmlns:xlink="http://www.w3.org/1999/xlink" x="0px" y="0px"
	 viewBox="0 0 1126 620" style="enable-background:new 0 0 1126 620;" xml:space="preserve">
<style type="text/css">
	.st0{fill:#85E4ED;}
	.st1{clip-path:url(#SVGID_2_);}
	.st2{fill:#518287;}
	.st3{fill:none;stroke:#85E4ED;stroke-width:4;stroke-miterlimit:10;}
	.st4{fill:#FFFFFF;}
	.st5{fill:#66A9B0;}
	.st6{fill:#518287;stroke:#518287;stroke-width:0.9075;stroke-miterlimit:10;}
	.st7{fill:#66A9B0;stroke:#518287;stroke-width:3.5455;stroke-miterlimit:10;}
	.st8{fill:#FFFFFF;stroke:#FFFFFF;stroke-width:7.2599;stroke-miterlimit:10;}
	.st9{fill:none;stroke:#66A9B0;stroke-width:0.7092;stroke-miterlimit:10;}
	.st10{fill:#518287;stroke:#518287;stroke-width:0.6424;stroke-miterlimit:10;}
	.st11{fill:none;stroke:#66A9B0;stroke-width:8.1756;stroke-miterlimit:10;}
	.st12{fill:#1D3030;stroke:#1D3030;stroke-width:0.7659;stroke-miterlimit:10;}
	.st13{fill:#1D3030;}
</style>
<g id="圖層_4">
	<rect class="st0" width="1126" height="620"/>
</g>
<g id="圖層_5_1_">
	<g id="圖層_3">
		<g id="圖層_5">
			<g>
				<g>
					<g>
						<circle class="st0" cx="499.5" cy="25.7" r="7.4"/>
						<g>
							<g>
								<g>
									<g>
										<g>
											<g>
												<g>
													<g>
														<g>
															<g>
																<g>
																	<defs>
																		<path id="SVGID_1_" d="M1126.5,320H29.5c-16.6,0-30-13.4-30-30V0h1127V320z"/>
																	</defs>
																	<clipPath id="SVGID_2_">
																		<use xlink:href="#SVGID_1_"  style="overflow:visible;"/>
																	</clipPath>
																	<g class="st1">
																		<g>
																			<g>
																				<polygon class="st2" points="1400.5,515.1 -166.8,508.9 -166.8,-169.6 1400.5,-163.4 																				"/>
																				<g>
																					<polyline class="st3" points="-186,-131 274.1,-131 274.1,-64.9 428.7,-64.9 428.7,61.5 																					
																						"/>
																					<polyline class="st3" points="654.1,-120.9 836.3,-120.9 836.3,-167.6 																					"/>
																					<polyline class="st3" points="653.7,290 653.7,425.2 972.6,425.2 972.6,510.9 																					"/>
																					<polyline class="st3" points="706.2,253.9 824.5,253.9 824.5,144 1059,144 1059,1.4 1420.9,1.4 
																																											"/>
																					<polyline class="st3" points="439.8,171.7 309.7,171.7 309.7,77.6 150.3,77.6 150.3,296.3 43.6,296.3 
																																											"/>
																					<polyline class="st3" points="1558.5,368.5 1380.6,368.5 1380.6,227.4 1226.2,227.4 1226.2,493.2 1195,493.2 
																																											"/>
																					<polyline class="st3" points="464.2,306.2 378.4,306.2 378.4,411.7 297.9,411.7 297.9,287.8 201.2,287.8 
																						201.2,438.8 -31.9,438.8 -31.9,510.9 																					"/>
																					<polyline class="st3" points="550,87.5 550,-131 481.5,-131 481.5,-167.6 																					"/>
																					<polyline class="st3" points="1420.9,-91.8 972.6,-91.8 972.6,-15.9 781.2,-15.9 781.2,88.6 628.5,88.6 
																																											"/>
																					<polyline class="st3" points="514.9,305.1 514.9,354.8 420.1,354.8 420.1,418.4 																					"/>
																					<polyline class="st3" points="1059,103.2 1085.9,103.2 1085.9,265.3 909.9,265.3 909.9,350.5 697.2,350.5 
																						697.2,268.7 																					"/>
																					<polyline class="st3" points="21.1,77.6 84.7,77.6 86,-25.4 227.5,-25.4 227.5,12.7 386.2,12.7 386.2,141.4 
																						438.8,141.4 																					"/>
																					<polyline class="st3" points="150.3,210.9 201.7,210.9 201.7,77.6 																					"/>
																					<polyline class="st3" points="1086.8,218.3 1162.4,218.3 1162.4,123.4 																					"/>
																					<polyline class="st3" points="655.3,-25.4 710.1,-25.4 710.1,-120.9 																					"/>
																					<line class="st3" x1="369.6" y1="-64.9" x2="369.6" y2="-167.6"/>
																					<polyline class="st3" points="550.6,-64.9 598.6,-64.9 598.6,-167.6 																					"/>
																					<polyline class="st3" points="161,510.9 161,475.7 340.4,475.7 																					"/>
																					<line class="st3" x1="586.7" y1="300.9" x2="586.7" y2="510.9"/>
																					<polyline class="st3" points="586.7,423.1 514.8,423.1 514.8,510.9 																					"/>
																					<polyline class="st3" points="758.2,425.2 758.2,459.2 847.5,459.2 847.5,510.9 																					"/>
																					<polyline class="st3" points="1112.3,446.2 1112.3,480.3 1195.4,480.3 1195.4,531.9 																					"/>
																					<polyline class="st3" points="201.2,375.3 -80.2,374.7 -80.2,446.5 																					"/>
																					<polyline class="st3" points="309.7,128.3 252.1,128.3 252.1,287.8 																					"/>
																					<polyline class="st3" points="297.9,326.3 345.5,326.3 345.5,253.9 447.3,252.6 																					"/>
																					<line class="st3" x1="340.4" y1="411.7" x2="340.4" y2="474"/>
																					<polyline class="st3" points="359.4,12.7 359.4,97.2 309.7,97.2 																					"/>
																					<polyline class="st3" points="281,12.7 281,42.3 86,42.3 																					"/>
																					<polyline class="st3" points="321.7,-64.9 321.7,-25.4 428.7,-25.4 																					"/>
																					<polyline class="st3" points="369.6,-105.5 499.7,-105.5 499.7,26.2 548.1,26.2 																					"/>
																					<polyline class="st3" points="628.5,102.1 628.5,-146.3 710.1,-146.3 710.1,-167.6 																					"/>
																					<line class="st3" x1="767.7" y1="-120.9" x2="767.7" y2="-167.6"/>
																					<line class="st3" x1="412.8" y1="-105.5" x2="412.8" y2="-167.6"/>
																					<polyline class="st3" points="1016.7,-167.6 1016.7,-136.6 903.9,-136.6 903.9,-70.5 749.9,-70.5 749.9,26.8 
																						692.5,26.8 692.5,88.9 																					"/>
																					<line class="st3" x1="1065.5" y1="-167.6" x2="1065.5" y2="-91.8"/>
																					<polyline class="st3" points="1059,77.6 892.5,77.6 892.5,-15.9 																					"/>
																					<line class="st3" x1="758.1" y1="164.3" x2="758.1" y2="220.3"/>
																					<polyline class="st3" points="659,118.7 951.9,118.7 951.9,144 																					"/>
																					<line class="st3" x1="892.5" y1="30.8" x2="1059" y2="30.8"/>
																					<polyline class="st3" points="972.6,-48 1085.9,-48 1085.9,1.9 																					"/>
																					<polyline class="st3" points="909.9,334.8 754.1,334.8 754.1,350.5 																					"/>
																					<polyline class="st3" points="824.5,222.2 991.7,222.2 991.7,265.3 																					"/>
																					<line class="st3" x1="909.9" y1="144" x2="909.9" y2="222.2"/>
																					<polyline class="st3" points="909.9,191.8 1039.6,191.8 1039.6,265.1 																					"/>
																					<polyline class="st3" points="656.3,377.9 726.1,377.9 726.1,503.4 																					"/>
																					<line class="st3" x1="697.2" y1="425.2" x2="697.2" y2="510.9"/>
																					<polyline class="st3" points="782.5,425.2 782.5,376.9 1039.6,376.9 1039.6,293.1 1225.9,293.1 
																																											"/>
																					<polyline class="st3" points="1420.9,411.7 1034.5,411.7 1034.5,510.9 																					"/>
																					<line class="st3" x1="972.6" y1="461.2" x2="1034.5" y2="461.2"/>
																					<line class="st3" x1="916.7" y1="425.7" x2="916.7" y2="510.9"/>
																					<polyline class="st3" points="960.7,386.9 960.7,350.4 1039.6,350.4 																					"/>
																					<polyline class="st3" points="1420.9,448.1 1072.4,448.1 1072.4,510.9 																					"/>
																					<path class="st3" d="M-98.5,189"/>
																					<line class="st3" x1="150.3" y1="132.7" x2="21.1" y2="132.7"/>
																					<polyline class="st3" points="260.5,474 260.5,350.5 201.7,350.5 																					"/>
																					<polyline class="st3" points="121.5,373.6 121.5,326.9 -69,326.9 -69,213.7 																					"/>
																					<polyline class="st3" points="104,296.3 104,162.9 21.1,162.9 																					"/>
																					<line class="st3" x1="297.9" y1="218.3" x2="357.2" y2="218.3"/>
																					<polyline class="st3" points="-186,-98 158.8,-98 158.8,-25.4 																					"/>
																					<polyline class="st3" points="158.8,-54.8 260.5,-54.8 260.5,12.7 																					"/>
																					<line class="st3" x1="176" y1="-131" x2="176" y2="-167.6"/>
																					<line class="st3" x1="205.4" y1="-131" x2="205.4" y2="-54.8"/>
																					<polyline class="st3" points="303.9,-65.9 303.9,-120.9 334.6,-120.9 334.6,-167.6 																					"/>
																					<polyline class="st3" points="1296.5,229.8 1296.5,123.2 1146.9,123.2 1146.9,57.1 1058.8,57.1 
																																											"/>
																					<line class="st3" x1="1253.5" y1="123.2" x2="1253.5" y2="-6.6"/>
																					<polyline class="st3" points="1194.5,123.2 1194.5,162.7 1296.5,162.7 																					"/>
																					<polyline class="st3" points="1180.4,126 1180.4,85 1214.8,85 1214.8,-2.9 																					"/>
																					<polyline class="st3" points="533,330 534.3,448.1 436.2,448.1 391.3,448.1 391.3,510.9 																					
																						"/>
																					<line class="st3" x1="86" y1="408.2" x2="153.6" y2="408.2"/>
																					<line class="st3" x1="104" y1="463.3" x2="104" y2="493.3"/>
																					<line class="st3" x1="73.1" y1="203.5" x2="73.1" y2="251.9"/>
																					<line class="st3" x1="179.9" y1="247.9" x2="220" y2="247.9"/>
																					<line class="st3" x1="129.5" y1="9.7" x2="176" y2="9.7"/>
																					<line class="st3" x1="81" y1="-63" x2="121.5" y2="-63"/>
																					<line class="st3" x1="550.8" y1="451.7" x2="550.8" y2="488"/>
																					<line class="st3" x1="1132.2" y1="245.4" x2="1197.7" y2="245.4"/>
																					<line class="st3" x1="887.8" y1="404.2" x2="934.9" y2="404.2"/>
																					<line class="st3" x1="659.4" y1="466.7" x2="659.4" y2="493.3"/>
																					<line class="st3" x1="843.3" y1="18.6" x2="843.3" y2="65.8"/>
																					<line class="st3" x1="942.1" y1="306.5" x2="991.7" y2="306.5"/>
																					<line class="st3" x1="1080" y1="331.4" x2="1080" y2="377.9"/>
																					<line class="st3" x1="763.9" y1="287.4" x2="855.6" y2="287.4"/>
																					<line class="st3" x1="934.9" y1="-91.8" x2="934.9" y2="-45.2"/>
																					<line class="st3" x1="462.9" y1="-65.9" x2="462.9" y2="115.4"/>
																					<line class="st3" x1="420.9" y1="483.3" x2="470.7" y2="483.3"/>
																					<polyline class="st3" points="1112.6,294.4 1111.8,358.2 1225.9,359.2 																					"/>
																					<polyline class="st3" points="1252.8,229.6 1252.8,266.4 1289.6,266.4 1289.6,446.7 1153.4,446.7 
																						1153.4,524.5 																					"/>
																					<polyline class="st3" points="47.3,-165.3 46,39.2 21.5,39.2 20.5,212.9 44.3,212.9 44.3,299.2 
																																											"/>
																					<line class="st3" x1="1245.7" y1="304.1" x2="1245.7" y2="372.2"/>
																					<line class="st3" x1="1094.7" y1="28.9" x2="1176.4" y2="28.9"/>
																					<line class="st3" x1="1241.4" y1="162.7" x2="1241.4" y2="227.4"/>
																					<line class="st3" x1="-31.9" y1="328.9" x2="-31.9" y2="377.2"/>
																					<line class="st3" x1="-38.7" y1="242.8" x2="-38.7" y2="299.2"/>
																					<line class="st3" x1="40.1" y1="104.8" x2="121.8" y2="104.8"/>
																					<polyline class="st3" points="1253.5,26.8 1306.4,26.8 1306.4,-53.7 1370.8,-53.7 																					"/>
																					<line class="st3" x1="7.7" y1="352.4" x2="73.3" y2="352.4"/>
																					<line class="st3" x1="-26.9" y1="77.6" x2="-26.9" y2="132.7"/>
																				</g>
																				<g>
																					<circle class="st0" cx="297.9" cy="287.7" r="7.4"/>
																					<circle class="st0" cx="345.5" cy="327.3" r="7.4"/>
																					<circle class="st0" cx="297.9" cy="411.7" r="7.4"/>
																					<circle class="st0" cx="201.2" cy="287.7" r="7.4"/>
																					<circle class="st0" cx="259.7" cy="350.5" r="7.4"/>
																					<circle class="st0" cx="201.2" cy="438.8" r="7.4"/>
																					<circle class="st0" cx="161" cy="475.7" r="7.4"/>
																					<circle class="st0" cx="121.5" cy="327.9" r="7.4"/>
																					<circle class="st0" cx="-67.9" cy="327.9" r="7.4"/>
																					<circle class="st0" cx="86" cy="408.2" r="7.4"/>
																					<circle class="st0" cx="153.6" cy="408.2" r="7.4"/>
																					<circle class="st0" cx="104" cy="460.9" r="7.4"/>
																					<circle class="st0" cx="104" cy="495.6" r="7.4"/>
																					<circle class="st0" cx="150.3" cy="296.3" r="7.4"/>
																					<circle class="st0" cx="104" cy="162.9" r="7.4"/>
																					<circle class="st0" cx="-24.7" cy="162.9" r="7.4"/>
																					<circle class="st0" cx="41.9" cy="104.7" r="7.4"/>
																					<circle class="st0" cx="122.1" cy="104.7" r="7.4"/>
																					<circle class="st0" cx="44.9" cy="213.1" r="7.4"/>
																					<circle class="st0" cx="44.9" cy="296.3" r="7.4"/>
																					<circle class="st0" cx="5" cy="353.3" r="7.4"/>
																					<circle class="st0" cx="73.1" cy="353.3" r="7.4"/>
																					<circle class="st0" cx="73.1" cy="203.5" r="7.4"/>
																					<circle class="st0" cx="73.1" cy="253.1" r="7.4"/>
																					<circle class="st0" cx="201.7" cy="210.9" r="7.4"/>
																					<circle class="st0" cx="150.3" cy="77.6" r="7.4"/>
																					<circle class="st0" cx="86" cy="75.8" r="7.4"/>
																					<circle class="st0" cx="86" cy="-25.4" r="7.4"/>
																					<circle class="st0" cx="46.8" cy="38.2" r="7.4"/>
																					<circle class="st0" cx="20.8" cy="38.2" r="7.4"/>
																					<circle class="st0" cx="20.8" cy="213.1" r="7.4"/>
																					<circle class="st0" cx="158.8" cy="-98" r="7.4"/>
																					<circle class="st0" cx="125.3" cy="-63" r="7.4"/>
																					<circle class="st0" cx="179.6" cy="9.7" r="7.4"/>
																					<circle class="st0" cx="125.3" cy="9.7" r="7.4"/>
																					<circle class="st0" cx="-97.3" cy="213.1" r="7.4"/>
																					<circle class="st0" cx="-97.3" cy="36.2" r="7.4"/>
																					<circle class="st0" cx="-39.1" cy="240.4" r="7.4"/>
																					<circle class="st0" cx="-39.1" cy="302.3" r="7.4"/>
																					<circle class="st0" cx="-78.7" cy="374.1" r="7.4"/>
																					<circle class="st0" cx="259.7" cy="-54.3" r="7.4"/>
																					<circle class="st0" cx="227.5" cy="12.7" r="7.4"/>
																					<circle class="st0" cx="274.5" cy="-131" r="7.4"/>
																					<circle class="st0" cx="334.6" cy="-121.4" r="7.4"/>
																					<circle class="st0" cx="428.7" cy="-65.9" r="7.4"/>
																					<circle class="st0" cx="412.8" cy="-105.5" r="7.4"/>
																					<circle class="st0" cx="499.7" cy="-105.5" r="7.4"/>
																					<circle class="st0" cx="462.9" cy="-70.5" r="7.4"/>
																					<circle class="st0" cx="428.5" cy="62.7" r="7.4"/>
																					<circle class="st0" cx="598.6" cy="-64.9" r="7.4"/>
																					<circle class="st0" cx="628.5" cy="-146" r="7.4"/>
																					<circle class="st0" cx="710.1" cy="-149" r="7.4"/>
																					<circle class="st0" cx="710.1" cy="-25.4" r="7.4"/>
																					<circle class="st0" cx="749.7" cy="27.8" r="7.4"/>
																					<circle class="st0" cx="694" cy="27.8" r="7.4"/>
																					<circle class="st0" cx="665.2" cy="-120.9" r="7.4"/>
																					<circle class="st0" cx="847.5" cy="-120.9" r="7.4"/>
																					<circle class="st0" cx="749.9" cy="-70.5" r="7.4"/>
																					<circle class="st0" cx="903.1" cy="-70.5" r="7.4"/>
																					<circle class="st0" cx="1015.8" cy="-136.6" r="7.4"/>
																					<circle class="st0" cx="903.1" cy="-136.6" r="7.4"/>
																					<circle class="st0" cx="971.8" cy="-91.8" r="7.4"/>
																					<circle class="st0" cx="934.9" cy="-96.4" r="7.4"/>
																					<circle class="st0" cx="934.9" cy="-40.5" r="7.4"/>
																					<circle class="st0" cx="1085" cy="-48" r="7.4"/>
																					<circle class="st0" cx="971.8" cy="-15.9" r="7.4"/>
																					<circle class="st0" cx="780.9" cy="-15.9" r="7.4"/>
																					<circle class="st0" cx="892.5" cy="77.6" r="7.4"/>
																					<circle class="st0" cx="843.3" cy="12.6" r="7.4"/>
																					<circle class="st0" cx="843.3" cy="65.8" r="7.4"/>
																					<circle class="st0" cx="780.9" cy="86.5" r="7.4"/>
																					<circle class="st0" cx="951.7" cy="118.7" r="7.4"/>
																					<circle class="st0" cx="1058.8" cy="144" r="7.4"/>
																					<circle class="st0" cx="1058.8" cy="0" r="7.4"/>
																					<circle class="st0" cx="824.5" cy="144" r="7.4"/>
																					<circle class="st0" cx="758.1" cy="164.2" r="7.4"/>
																					<circle class="st0" cx="758.1" cy="220.9" r="7.4"/>
																					<circle class="st0" cx="697.2" cy="350.5" r="7.4"/>
																					<circle class="st0" cx="1137.2" cy="245.4" r="7.4"/>
																					<circle class="st0" cx="909.9" cy="350.5" r="7.4"/>
																					<circle class="st0" cx="782.5" cy="377.9" r="7.4"/>
																					<circle class="st0" cx="1198.4" cy="245.4" r="7.4"/>
																					<circle class="st0" cx="1095.1" cy="28.5" r="7.4"/>
																					<circle class="st0" cx="1177.4" cy="16.5" r="7.4"/>
																					<circle class="st0" cx="725.7" cy="379.1" r="7.4"/>
																					<circle class="st0" cx="514.8" cy="423.1" r="7.4"/>
																					<circle class="st0" cx="550.8" cy="448.1" r="7.4"/>
																					<circle class="st0" cx="550.8" cy="493.3" r="7.4"/>
																					<circle class="st0" cx="653.7" cy="425.2" r="7.4"/>
																					<circle class="st0" cx="659.4" cy="463.1" r="7.4"/>
																					<circle class="st0" cx="659.4" cy="497.9" r="7.4"/>
																					<circle class="st0" cx="847.5" cy="459.2" r="7.4"/>
																					<circle class="st0" cx="972.6" cy="425.7" r="7.4"/>
																					<circle class="st0" cx="1039.6" cy="377.3" r="7.4"/>
																					<circle class="st0" cx="1080" cy="328.9" r="7.4"/>
																					<circle class="st0" cx="1080" cy="380.1" r="7.4"/>
																					<circle class="st0" cx="1245.9" cy="304.2" r="7.4"/>
																					<circle class="st0" cx="1253.3" cy="267.1" r="7.4"/>
																					<circle class="st0" cx="1245.9" cy="367.8" r="7.4"/>
																					<circle class="st0" cx="1119.6" cy="357.8" r="7.4"/>
																					<circle class="st0" cx="1039.6" cy="292.8" r="7.4"/>
																					<circle class="st0" cx="995.5" cy="306.5" r="7.4"/>
																					<circle class="st0" cx="937.8" cy="306.5" r="7.4"/>
																					<circle class="st0" cx="960.7" cy="350.4" r="7.4"/>
																					<circle class="st0" cx="886.1" cy="404.2" r="7.4"/>
																					<circle class="st0" cx="935.9" cy="404.2" r="7.4"/>
																					<circle class="st0" cx="1034.5" cy="414.3" r="7.4"/>
																					<circle class="st0" cx="909.9" cy="265.1" r="7.4"/>
																					<circle class="st0" cx="1086" cy="265.1" r="7.4"/>
																					<circle class="st0" cx="759.9" cy="287.4" r="7.4"/>
																					<circle class="st0" cx="755" cy="338.1" r="7.4"/>
																					<circle class="st0" cx="858" cy="287.4" r="7.4"/>
																					<circle class="st0" cx="1072.4" cy="448.1" r="7.4"/>
																					<circle class="st0" cx="420.1" cy="356" r="7.4"/>
																					<circle class="st0" cx="486" cy="448.1" r="7.4"/>
																					<circle class="st0" cx="470.7" cy="483.3" r="7.4"/>
																					<circle class="st0" cx="420.9" cy="483.3" r="7.4"/>
																					<circle class="st0" cx="824.5" cy="253.1" r="7.4"/>
																					<circle class="st0" cx="991.7" cy="221.3" r="7.4"/>
																					<circle class="st0" cx="1040" cy="191.9" r="7.4"/>
																					<circle class="st0" cx="1226.9" cy="228.7" r="7.4"/>
																					<circle class="st0" cx="179.9" cy="247.9" r="7.4"/>
																					<circle class="st0" cx="220" cy="247.9" r="7.4"/>
																					<circle class="st0" cx="281" cy="42.4" r="7.4"/>
																					<circle class="st0" cx="1195.6" cy="163" r="7.4"/>
																					<circle class="st0" cx="1295.9" cy="122.1" r="7.4"/>
																					<circle class="st0" cx="1289.7" cy="293" r="7.4"/>
																					<circle class="st0" cx="1086" cy="103.2" r="7.4"/>
																					<circle class="st0" cx="1147.8" cy="58.6" r="7.4"/>
																					<circle class="st0" cx="1180" cy="85.9" r="7.4"/>
																					<circle class="st0" cx="1213.4" cy="85.9" r="7.4"/>
																					<circle class="st0" cx="1147.8" cy="121.8" r="7.4"/>
																					<circle class="st0" cx="1162.7" cy="218.3" r="7.4"/>
																					<circle class="st0" cx="481.5" cy="-131" r="7.4"/>
																					<circle class="st0" cx="321.7" cy="-25.4" r="7.4"/>
																					<circle class="st0" cx="310.9" cy="77.6" r="7.4"/>
																					<circle class="st0" cx="359.2" cy="97.4" r="7.4"/>
																					<circle class="st0" cx="386.2" cy="12.7" r="7.4"/>
																					<circle class="st0" cx="499.7" cy="26.2" r="7.4"/>
																					<circle class="st0" cx="386.2" cy="140.7" r="7.4"/>
																					<circle class="st0" cx="252.1" cy="128.3" r="7.4"/>
																					<circle class="st0" cx="310.9" cy="172.6" r="7.4"/>
																					<circle class="st0" cx="294.8" cy="218.3" r="7.4"/>
																					<circle class="st0" cx="357.2" cy="218.3" r="7.4"/>
																					<circle class="st0" cx="378.4" cy="411.7" r="7.4"/>
																					<circle class="st0" cx="340.4" cy="475.7" r="7.4"/>
																					<circle class="st0" cx="378.4" cy="307.1" r="7.4"/>
																					<circle class="st0" cx="346.4" cy="254.1" r="7.4"/>
																					<circle class="st0" cx="-55.7" cy="134.1" r="7.4"/>
																					<circle class="st0" cx="-55.7" cy="188.6" r="7.4"/>
																					<circle class="st0" cx="-47" cy="75.8" r="7.4"/>
																					<circle class="st0" cx="-75.5" cy="15.2" r="7.4"/>
																					<circle class="st0" cx="-19.8" cy="15.2" r="7.4"/>
																				</g>
																			</g>
																			<line class="st3" x1="-129.7" y1="105" x2="-185.4" y2="105"/>
																			<polyline class="st3" points="-19.5,35.5 -19.5,14.4 -76.5,14.4 -76.5,-108.1 																			"/>
																			<polyline class="st3" points="-69,248.4 -114.8,248.7 -185.4,248.7 																			"/>
																			<line class="st3" x1="-129.7" y1="374.7" x2="-129.7" y2="248.4"/>
																		</g>
																	</g>
																</g>
															</g>
														</g>
													</g>
												</g>
											</g>
										</g>
									</g>
								</g>
							</g>
						</g>
					</g>
				</g>
			</g>
		</g>
		<g id="圖層_7">
			<g id="圖層_11">
				<g>
					<g>
						<circle class="st0" cx="563" cy="214.4" r="158.9"/>
						<g>
							<g>
								<g>
									<g>
										<g>
											<path class="st4" d="M528.9,322.8c-0.5-3.4-2-6.8-3.4-10c-1.4-0.3-2.7-0.5-4.1-0.5c-1.3-0.1-2.7-0.2-3.9-0.7
												c-0.4-0.2-0.7-0.4-1-0.6c-2.5,3.2-4.9,6.3-6.8,9.8C515.2,324.2,522.4,323.6,528.9,322.8z"/>
											<g>
												<path class="st5" d="M529.3,254.6c2.1,0.5,4.3,1.2,6.3,1.9c1.9,0.7,3.8,1.5,5.6,2.5c0.6-2,1.4-4,2.5-5.8
													c0-0.1,0.1-0.1,0.1-0.2c-0.8-0.5-1.5-0.8-2.4-1.3c-2.9-1.8-5.6-3.9-8.1-6.3c-1.1,1.5-1.9,3.4-2.5,5.1
													C530.2,251.9,529.8,253.2,529.3,254.6z"/>
												<path class="st5" d="M529.3,273.6c-1.2-0.5-2.5-1-3.7-1.5c-0.5-0.3-1.2-0.5-1.7-0.7c-0.2,0.5-0.4,1.2-0.5,1.8
													c-0.9,3.6-1.7,7.3-2.5,10.9c3.6,1.3,7.4,2,11,3.3c0.5-1.9,1.1-3.8,1.7-5.7c0.6-2,1.3-4,1.8-6
													C533.4,275.2,531.3,274.4,529.3,273.6z"/>
												<path class="st5" d="M520.6,286.2c-0.4,2-0.6,4-0.9,6c-0.3,2.1-0.5,4.1-0.9,6.2c0.4,0.1,0.8,0.2,1.2,0.3
													c1.2,0.3,2.5,0.6,3.6,0.8c1.1,0.2,2.2,0.5,3.4,0.5c0.4,0,0.7,0,1.1-0.1c0.1,0,0.3-0.1,0.4-0.1c0.3-1.2,0.6-2.4,0.9-3.5
													c0.5-2.3,1.2-4.5,1.8-6.7C527.6,288.4,524,287.5,520.6,286.2z"/>
												<path class="st5" d="M528.5,257c-0.3,0.7-0.5,1.5-0.7,2.2c-1.1,3.3-2.2,6.5-3.2,9.8c0.7,0.3,1.4,0.5,2,0.8
													c1.2,0.5,2.5,1,3.6,1.5c1.9,0.7,3.9,1.5,6,1.9c0.7-2.3,1.5-4.5,2.4-6.8c0.5-1.5,1.1-3.1,1.7-4.6c-1.9-1.2-4-2-6.1-2.7
													C532.3,258.2,530.3,257.8,528.5,257z"/>
												<path class="st5" d="M523.4,302.1c-1.4-0.3-2.6-0.6-3.9-0.9c-0.4-0.1-0.7-0.2-1.1-0.3c0,0.3-0.1,0.6-0.1,0.9
													c-0.2,1.5-0.5,3.1-0.6,4.6c0,0.8-0.1,1.6,0.2,2.4c0.1,0.2,0.5,0.5,0.7,0.6c0.6,0.2,1.2,0.3,1.8,0.4
													c1.5,0.1,3.1,0.3,4.6,0.5c1-2.5,1.8-5.1,2.5-7.7c-0.2,0-0.3,0.1-0.5,0.1C525.9,302.5,524.6,302.3,523.4,302.1z"/>
											</g>
											<path class="st2" d="M521,283.7c-0.2-0.1-0.4-0.1-0.6-0.2c-1.3-0.5-2.2,1.7-0.9,2.3c0.4,0.2,0.7,0.3,1.1,0.5
												c3.4,1.4,7,2.2,10.5,3.3c0.4,0.1,0.6,0.2,1,0.3c1.6,0.5,2.2-1.9,0.6-2.5c-0.3-0.1-0.6-0.2-0.9-0.4
												C528.3,285.6,524.5,285,521,283.7z"/>
											<path class="st2" d="M530.2,271.2c-1.2-0.5-2.5-1-3.6-1.5c-0.6-0.3-1.4-0.5-2-0.8c-0.5-0.2-1-0.3-1.5-0.4
												c-1.2-0.2-2,1.3-0.8,2c0.5,0.3,1,0.5,1.6,0.8c0.5,0.3,1.2,0.5,1.7,0.7c1.2,0.5,2.5,1,3.6,1.5c2,0.8,4.1,1.5,6.2,2
												c0.3,0.1,0.5,0.1,0.9,0.2c1.6,0.3,2.4-2.3,0.7-2.5c-0.3,0-0.5-0.1-0.7-0.2C534.1,272.7,532.1,271.9,530.2,271.2z"/>
											<path class="st2" d="M529.3,254.6c-0.5-0.1-0.9-0.2-1.4-0.3c-1.2-0.2-2,1.4-0.8,2c0.5,0.3,0.9,0.5,1.4,0.6
												c1.8,0.7,3.8,1.3,5.6,1.9c2.1,0.7,4.2,1.5,6.1,2.7c0.3,0.2,0.5,0.3,0.8,0.5c1.5,1,2.8-1.4,1.4-2.4
												c-0.4-0.3-0.8-0.5-1.3-0.7c-1.8-1-3.7-1.8-5.6-2.5C533.5,255.8,531.4,255.1,529.3,254.6z"/>
											<g>
												<path class="st6" d="M543.8,253.1c0,0.1-0.1,0.1-0.1,0.2c-1.1,1.8-1.8,3.8-2.5,5.8c0.5,0.3,0.8,0.5,1.3,0.7
													c1.5,1,0.1,3.3-1.4,2.4c-0.3-0.2-0.5-0.4-0.8-0.5c-0.5,1.5-1.1,3.1-1.7,4.6c-0.8,2.3-1.5,4.5-2.4,6.8
													c0.3,0.1,0.5,0.1,0.7,0.2c1.6,0.3,1,2.8-0.7,2.5c-0.3-0.1-0.6-0.1-0.9-0.2c-0.6,1.9-1.3,3.9-1.8,5.8
													c-0.5,1.8-1.2,3.7-1.7,5.5c0.3,0.1,0.6,0.2,0.9,0.4c1.5,0.6,0.9,3-0.6,2.5c-0.4-0.1-0.6-0.2-1-0.3
													c-0.6,2.3-1.3,4.4-1.8,6.7c-0.3,1.2-0.5,2.4-0.9,3.5c0.1,0,0.2,0,0.3,0s0.3,0,0.4,0.1c0.7,0.1,1.2,0.9,0.9,1.6
													c0,0-0.1,0.1-0.1,0.4c-0.1,0.2-0.3,0.4-0.5,0.5s-0.5,0.2-0.7,0.3c-0.3,0.1-0.6,0.1-1,0.1c-0.7,2.6-1.5,5.2-2.5,7.7
													c-1.5-0.3-3.1-0.4-4.6-0.5c-0.6-0.1-1.2-0.1-1.8-0.4c-0.3-0.1-0.6-0.4-0.7-0.6c-0.3-0.7-0.3-1.6-0.2-2.4
													c0.1-1.5,0.4-3.1,0.6-4.6c0-0.3,0.1-0.5,0.1-0.9c-0.7-0.2-1.4-0.4-2.1-0.6c-1.1-0.5-0.5-2.3,0.5-2.2
													c0.6,0,1.2,0.2,1.8,0.4c0.3-2.1,0.5-4.1,0.9-6.2c0.3-2,0.6-4,0.9-6c-0.4-0.2-0.7-0.3-1.1-0.5c-1.3-0.5-0.4-2.7,0.9-2.3
													c0.2,0.1,0.4,0.1,0.6,0.2c0.6-3.5,1.4-7.1,2.4-10.6c0.2-0.5,0.4-1.2,0.5-1.7c-0.5-0.3-1.1-0.5-1.6-0.8
													c-1.2-0.7-0.4-2.2,0.8-2c0.5,0.1,1,0.2,1.5,0.4c1-3.3,2.2-6.5,3.2-9.8c0.3-0.7,0.5-1.5,0.7-2.2
													c-0.5-0.2-0.9-0.4-1.4-0.6c-1.2-0.6-0.3-2.2,0.8-2c0.5,0.1,0.9,0.2,1.4,0.3c0.5-1.4,1-2.7,1.5-4.1
													c0.7-1.6,1.5-3.5,2.5-5.1c0.2-0.3,0.5-0.6,0.6-0.8c1.2-1.2-0.6-2.9-1.8-1.8c-0.3,0.3-0.5,0.5-0.7,0.7
													c-2.5,2.7-3.7,6.6-4.9,9.9c-1.5,4.1-2.6,8.3-4.1,12.3c-4.4,12.2-5.6,25.1-7.4,37.8c-0.2,1.5-0.5,3.3-0.3,4.8
													c1.1-1,3,0.5,2.1,1.8c-0.3,0.4-0.5,0.6-0.7,1c0.3,0.3,0.6,0.5,1,0.6c1.2,0.5,2.5,0.6,3.8,0.7c1.4,0.1,2.6,0.3,4,0.5
													c-0.1-0.2-0.2-0.4-0.3-0.6c-0.7-1.6,1.5-3,2.4-1.4c0.1,0.3,0.2,0.5,0.4,0.7c1.8-4.4,3.1-9.1,4.3-13.8
													c1.3-5,2.7-9.9,4.3-14.7c1.6-5.1,3.2-10.2,5-15.2c0.8-2.5,1.8-4.8,2.6-7.3c0.7-2.1,1.4-4.4,2.5-6.3
													c0.1-0.1,0.1-0.3,0.2-0.4C546.6,252.9,544.7,251.9,543.8,253.1z"/>
												<path class="st6" d="M524.7,312.6c0.1,0.2,0.2,0.4,0.3,0.6c1.5,3.1,2.7,6.4,3.4,9.7c-6.3,0.7-13.2,1.3-18.8-2.1
													c1.8-3.4,4.3-6.4,6.6-9.5c0.3-0.4,0.5-0.6,0.7-1c0.9-1.3-1.1-2.8-2.1-1.8c0,0-0.1,0.1-0.2,0.1c-3,3.8-6.3,7.5-8.3,12
													c-0.4,0.8-0.2,1.5,0.5,2c6.4,4.9,15.5,4,23.1,3.1c0.7-0.1,1.5-0.6,1.5-1.5c-0.5-4.3-2-8.4-4-12.3
													c-0.1-0.3-0.2-0.5-0.4-0.7C526.2,309.6,524,311,524.7,312.6z"/>
												<path class="st6" d="M527.3,299.9c-1.1,0-2.3-0.2-3.4-0.5c-1.2-0.3-2.5-0.5-3.6-0.8c-0.4-0.1-0.7-0.2-1.2-0.3
													c-0.6-0.2-1.2-0.3-1.8-0.4c-1.1,0-1.7,1.7-0.5,2.2c0.6,0.3,1.4,0.5,2.1,0.6c0.4,0.1,0.7,0.2,1.1,0.3
													c1.3,0.4,2.6,0.7,3.9,0.9c1.2,0.3,2.5,0.5,3.7,0.5c0.2,0,0.3,0,0.5-0.1c0.4,0,0.6,0,1-0.1c0.3-0.1,0.5-0.2,0.7-0.3
													c0.2-0.1,0.4-0.3,0.5-0.5s0.1-0.3,0.1-0.4c0.3-0.6-0.2-1.5-0.9-1.6c-0.1,0-0.3-0.1-0.4-0.1s-0.2,0-0.3,0
													s-0.2,0.1-0.4,0.1C528.1,299.9,527.7,299.9,527.3,299.9z"/>
											</g>
										</g>
										<g>
											<path class="st4" d="M476.9,266.5c-0.1,0-0.1,0-0.2,0c-3.6,1.4-6.2,6.4-4.7,9.9c0.6,1.5,1.5,3.2,2.8,4.4
												c0.4,0.4,1.1,0.9,1.5,0.9c0.2,0,0.2,0,0.3-0.1c0.3-0.3,0.5-0.5,0.5-0.8c0.5-1-0.2-1.9-0.3-2.9c-0.2-1.1,0-2.2,0.7-3.1
												c1.6-1.8,4.4-2.1,6.1-0.2c1.4,1.5,1.7,4,1,5.9c-0.2,0.5-1.1,1.8-0.9,2.4c0.3,0.9,1.8,1,2.5,0.7c2.4-1,3.8-4.3,3.9-6.7
												c0.2-2.9-0.7-5.6-2.3-8.2c-0.1,0-0.1,0-0.2,0C484.2,267.9,480.6,266.5,476.9,266.5z"/>
											<g>
												<path class="st5" d="M504.8,215.2c2.4,4.5,5.1,8.8,6.9,13.5c0.7-0.5,1.5-0.9,2.2-1.4c-0.3-5.7-0.4-11.5-0.2-17.2
													C510.5,211.2,507.5,213,504.8,215.2z"/>
												<path class="st5" d="M502.8,216.9c-1,0.9-1.9,1.8-2.8,2.7c-1.8,1.9-3.5,3.9-5.2,6c3.9,2,7.1,5.8,9.3,9.6
													c1.7-1.8,3.5-3.5,5.5-5C507.9,225.6,505.2,221.3,502.8,216.9z"/>
												<path class="st5" d="M493.3,227.7c-1.3,1.7-2.5,3.4-3.5,5.3c-1.1,1.8-2.2,3.6-3.1,5.5c3.3,2.4,6.8,4.3,10,6.7
													c0.2-0.4,0.4-0.6,0.5-1c1.5-2.5,3.3-4.9,5.2-7.1c-0.1-0.1-0.2-0.2-0.3-0.3C500.1,233.3,497,229.6,493.3,227.7z"/>
												<path class="st5" d="M485.4,240.7c-2,4-3.6,8.3-4.9,12.5c1.6,0.1,3.3,0.6,4.8,1.2c2,0.8,3.9,1.7,5.6,2.9
													c1.3-3.4,2.7-6.7,4.4-10c0,0-0.1,0-0.1-0.1C492.2,244.9,488.7,243.1,485.4,240.7z"/>
												<path class="st5" d="M479.8,255.9c-0.7,2.7-1.2,5.4-1.5,8.2c3.4,0.3,6.5,1.4,9.8,2.2c0.6-2.2,1.4-4.3,2.1-6.4
													c-0.1,0-0.2-0.1-0.3-0.1C487,257.8,483.3,255.8,479.8,255.9z"/>
											</g>
											<g>
												<path class="st6" d="M477.8,263.9c0.2,0,0.3,0,0.5,0c0.4-2.7,0.9-5.4,1.5-8.2c-0.3,0-0.5,0-0.8,0
													c-1.6,0.2-1.6-2.4,0-2.5c0.5-0.1,1-0.1,1.5,0c1.3-4.3,2.9-8.5,4.9-12.5c-0.2-0.1-0.4-0.3-0.5-0.4c-1.3-1,0-3.2,1.3-2.2
													c0.2,0.1,0.3,0.2,0.5,0.3c1-1.9,2-3.7,3.1-5.5s2.4-3.5,3.5-5.3c-0.1,0-0.1-0.1-0.2-0.1c-1.5-0.7-0.2-2.9,1.3-2.2
													c0.2,0.1,0.3,0.2,0.5,0.3c1.6-2.1,3.4-4.1,5.2-6c0.9-1,1.9-1.9,2.8-2.7c-0.2-0.4-0.5-0.8-0.6-1.3
													c-0.7-1.5,1.5-2.7,2.2-1.3c0.2,0.3,0.3,0.5,0.5,0.8c2.7-2.2,5.6-3.9,8.9-5.2c0.2-0.1,0.4-0.1,0.5-0.2
													c1.5-0.5,0.9-2.6-0.4-2.5c-0.1,0-0.2,0-0.3,0c-5.6,1.9-10.3,5.4-14.4,9.5c-4,3.9-7.4,8.3-10.5,13
													c-6.2,9.3-10.6,20.1-12.5,31.2c-0.2,1-0.3,2-0.5,3c0.4-0.1,0.7-0.3,1.1-0.4C477.2,263.7,477.5,263.8,477.8,263.9z"/>
												<path class="st6" d="M514.4,227c-0.2,0.1-0.3,0.2-0.5,0.3c-0.7,0.5-1.5,0.9-2.2,1.4c0.2,0.5,0.4,0.8,0.5,1.3
													c0.5,1.5-1.9,2.2-2.5,0.7c0-0.1-0.1-0.3-0.2-0.4c-2,1.5-3.8,3.2-5.5,5c0.1,0.1,0.2,0.3,0.2,0.4c0.7,1.3-1,2.5-1.9,1.5
													c-1.9,2.2-3.6,4.5-5.2,7.1c-0.2,0.4-0.4,0.6-0.5,1c0.2,0.1,0.3,0.2,0.5,0.4c1.3,1-0.5,2.7-1.7,1.8
													c-1.7,3.2-3.2,6.5-4.4,10c0.1,0,0.1,0.1,0.2,0.1c1.3,0.8,0.3,2.8-1,2.3c-0.7,2.1-1.5,4.3-2.1,6.4c0.2,0,0.3,0.1,0.5,0.1
													c0.3,0.1,0.5,0.3,0.6,0.5c0.4,0,0.7,0.2,1,0.5c0.1,0.1,0.1,0.2,0.2,0.3c2.3-7.5,4.9-15,9-21.8
													c3.7-6.3,8.7-11.6,14.9-15.6c0.5-0.4,1-0.6,1.5-1C517.1,228.5,515.8,226.2,514.4,227z"/>
												<path class="st6" d="M489.1,266.7c-0.9-0.1-1.8,0.9-1.3,1.9c0,0.1,0.1,0.1,0.1,0.2c1.5,2.5,2.5,5.3,2.3,8.2
													c-0.2,2.4-1.5,5.7-3.9,6.7c-0.7,0.3-2.3,0.2-2.5-0.7c-0.2-0.5,0.7-1.9,0.9-2.4c0.7-1.9,0.4-4.4-1-5.9
													c-1.7-1.9-4.4-1.5-6.1,0.2c-0.8,0.9-0.9,2-0.7,3.1c0.2,1,0.7,1.9,0.3,2.9c-0.2,0.4-0.4,0.6-0.5,0.8
													c-0.1,0.1-0.2,0.1-0.3,0.1c-0.4,0-1.1-0.5-1.5-0.9c-1.3-1.2-2.2-2.8-2.8-4.4c-1.4-3.6,1.2-8.6,4.7-9.9
													c0.3-0.1,0.5-0.2,0.7-0.2c1.2-0.3,1.1-1.6,0.4-2.3c-0.3-0.2-0.6-0.3-1-0.2c-0.4,0.1-0.7,0.2-1.1,0.4
													c-4.2,1.5-6.5,6.3-6.6,10.5c0,1.7,0.8,3.5,1.7,5c0.9,1.5,2.1,3.1,3.6,4c1.5,0.8,3.2,0.6,4.3-0.6c0.6-0.8,1-1.8,1.2-2.8
													c0.1-1.1-0.5-2.1-0.5-3.1c-0.1-0.8,1.3-1.5,2-1.2c0.8,0.4,1.1,1.5,1.2,2.3c0.2,2-1.5,3.4-1.1,5.4
													c0.4,2.2,3.4,2.9,5.1,2.6c2.1-0.4,3.8-2.5,4.8-4.3c2.5-4.6,1.5-10.1-1.1-14.4c-0.1-0.1-0.1-0.2-0.2-0.3
													C489.9,266.9,489.5,266.7,489.1,266.7z"/>
												<path class="st6" d="M480.5,253.3c-0.5,0-1,0-1.5,0c-1.6,0.2-1.6,2.7,0,2.5c0.3,0,0.5,0,0.8,0c3.5,0,7.3,2,10,3.8
													c0.1,0.1,0.2,0.1,0.3,0.1c1.3,0.5,2.3-1.5,1-2.3c-0.1,0-0.1-0.1-0.2-0.1c-1.7-1.2-3.6-2.1-5.6-2.9
													C483.8,253.9,482.1,253.4,480.5,253.3z"/>
												<path class="st6" d="M486.1,238.2c-1.4-1-2.5,1.3-1.3,2.2c0.2,0.1,0.4,0.3,0.5,0.4c3.2,2.3,6.7,4.2,9.8,6.6
													c0,0,0.1,0,0.1,0.1c1.3,0.8,2.9-0.8,1.7-1.8c-0.2-0.1-0.3-0.2-0.5-0.4c-3.2-2.5-6.7-4.4-10-6.7
													C486.5,238.4,486.3,238.3,486.1,238.2z"/>
												<path class="st6" d="M494.4,225.4c-1.5-0.7-2.7,1.5-1.3,2.2c0.1,0,0.1,0.1,0.2,0.1c3.8,1.9,6.8,5.5,8.7,9.2
													c0.1,0.1,0.2,0.2,0.3,0.3c0.9,0.9,2.6-0.3,1.9-1.5c-0.1-0.1-0.1-0.3-0.2-0.4c-2.1-3.8-5.4-7.6-9.3-9.6
													C494.7,225.6,494.6,225.5,494.4,225.4z"/>
												<path class="st6" d="M504.8,215.2c-0.2-0.3-0.3-0.5-0.5-0.8c-0.7-1.5-2.9-0.2-2.2,1.3c0.2,0.5,0.5,0.8,0.6,1.3
													c2.4,4.4,5,8.6,6.8,13.3c0.1,0.1,0.1,0.3,0.2,0.4c0.5,1.5,3,0.9,2.5-0.7c-0.2-0.5-0.3-0.8-0.5-1.3
													C509.8,224,507.2,219.7,504.8,215.2z"/>
												<path class="st6" d="M477.8,263.9c0.7,0.5,0.8,2-0.4,2.3c-0.3,0.1-0.5,0.1-0.7,0.2c0.1,0,0.1,0,0.2,0
													c3.7,0,7.4,1.5,10.9,2.3c0.1,0,0.1,0,0.2,0c0-0.1-0.1-0.1-0.1-0.2c-0.6-1,0.4-1.9,1.3-1.9c-0.2-0.2-0.4-0.4-0.6-0.5
													c-0.2,0-0.3-0.1-0.5-0.1c-3.3-0.8-6.4-1.9-9.8-2.2C478.1,263.9,478,263.9,477.8,263.9z"/>
											</g>
										</g>
										<g>
											<path class="st4" d="M649.1,167.7c0.1,0,0.1,0,0.2,0c3.6-1.4,6.2-6.4,4.7-9.9c-0.6-1.5-1.5-3.2-2.8-4.4
												c-0.4-0.4-1.1-0.9-1.5-0.9c-0.2,0-0.2,0-0.3,0.1c-0.3,0.3-0.5,0.5-0.5,0.8c-0.5,1,0.2,1.9,0.3,2.9c0.2,1.1,0,2.2-0.7,3.1
												c-1.6,1.8-4.4,2.1-6.1,0.2c-1.4-1.5-1.7-4-1-5.9c0.2-0.5,1.1-1.8,0.9-2.4c-0.3-0.9-1.8-1-2.5-0.7c-2.4,1-3.8,4.3-3.9,6.7
												c-0.2,2.9,0.7,5.6,2.3,8.2c0.1,0,0.1,0,0.2,0C641.8,166.3,645.4,167.7,649.1,167.7z"/>
											<g>
												<path class="st5" d="M621.2,218.9c-2.4-4.5-5.1-8.8-6.9-13.5c-0.7,0.5-1.5,0.9-2.2,1.4c0.3,5.7,0.4,11.5,0.2,17.2
													C615.5,222.9,618.5,221.1,621.2,218.9z"/>
												<path class="st5" d="M623.2,217.2c1-0.9,1.9-1.8,2.8-2.7c1.8-1.9,3.5-3.9,5.2-6c-3.9-2-7.1-5.8-9.3-9.6
													c-1.7,1.8-3.5,3.5-5.5,5C618.2,208.6,620.8,212.9,623.2,217.2z"/>
												<path class="st5" d="M632.7,206.4c1.3-1.7,2.5-3.4,3.5-5.3s2.2-3.6,3.1-5.5c-3.3-2.4-6.8-4.3-10-6.7
													c-0.2,0.4-0.4,0.6-0.5,1c-1.5,2.5-3.3,4.9-5.2,7.1c0.1,0.1,0.2,0.2,0.3,0.3C626,200.9,629,204.6,632.7,206.4z"/>
												<path class="st5" d="M640.6,193.4c2-4,3.6-8.3,4.9-12.5c-1.6-0.1-3.3-0.6-4.8-1.2c-2-0.8-3.9-1.7-5.6-2.9
													c-1.3,3.4-2.7,6.7-4.4,10c0,0,0.1,0,0.1,0.1C633.8,189.3,637.3,191.1,640.6,193.4z"/>
												<path class="st5" d="M646.2,178.3c0.7-2.7,1.2-5.4,1.5-8.2c-3.4-0.3-6.5-1.4-9.8-2.2c-0.6,2.2-1.4,4.3-2.1,6.4
													c0.1,0,0.2,0.1,0.3,0.1C639,176.4,642.7,178.4,646.2,178.3z"/>
											</g>
											<g>
												<path class="st6" d="M648.2,170.2c-0.2,0-0.3,0-0.5,0c-0.4,2.7-0.9,5.4-1.5,8.2c0.3,0,0.5,0,0.8,0
													c1.6-0.2,1.6,2.4,0,2.5c-0.5,0.1-1,0.1-1.5,0c-1.3,4.3-2.9,8.5-4.9,12.5c0.2,0.1,0.4,0.3,0.5,0.4c1.3,1,0,3.2-1.3,2.2
													c-0.2-0.1-0.3-0.2-0.5-0.3c-1,1.9-2,3.7-3.1,5.5s-2.4,3.5-3.5,5.3c0.1,0,0.1,0.1,0.2,0.1c1.5,0.7,0.2,2.9-1.3,2.2
													c-0.2-0.1-0.3-0.2-0.5-0.3c-1.6,2.1-3.4,4.1-5.2,6c-0.9,1-1.9,1.9-2.8,2.7c0.2,0.4,0.5,0.8,0.6,1.3
													c0.7,1.5-1.5,2.7-2.2,1.3c-0.2-0.3-0.3-0.5-0.5-0.8c-2.7,2.2-5.6,3.9-8.9,5.2c-0.2,0.1-0.4,0.1-0.5,0.2
													c-1.5,0.5-0.9,2.6,0.4,2.5c0.1,0,0.2,0,0.3,0c5.6-1.9,10.3-5.4,14.4-9.5c4-3.9,7.4-8.3,10.5-13
													c6.2-9.3,10.6-20.1,12.5-31.2c0.2-1,0.3-2,0.5-3c-0.4,0.1-0.7,0.3-1.1,0.4C648.8,170.5,648.5,170.4,648.2,170.2z"/>
												<path class="st6" d="M611.6,207.1c0.2-0.1,0.3-0.2,0.5-0.3c0.7-0.5,1.5-0.9,2.2-1.4c-0.2-0.5-0.4-0.8-0.5-1.3
													c-0.5-1.5,1.9-2.2,2.5-0.7c0,0.1,0.1,0.3,0.2,0.4c2-1.5,3.8-3.2,5.5-5c-0.1-0.1-0.2-0.3-0.2-0.4c-0.7-1.3,1-2.5,1.9-1.5
													c1.9-2.2,3.6-4.5,5.2-7.1c0.2-0.4,0.4-0.6,0.5-1c-0.2-0.1-0.3-0.2-0.5-0.4c-1.3-1,0.5-2.7,1.7-1.8
													c1.7-3.2,3.2-6.5,4.4-10c-0.1,0-0.1-0.1-0.2-0.1c-1.3-0.8-0.3-2.8,1-2.3c0.7-2.1,1.5-4.3,2.1-6.4
													c-0.2,0-0.3-0.1-0.5-0.1c-0.3-0.1-0.5-0.3-0.6-0.5c-0.4,0-0.7-0.2-1-0.5c-0.1-0.1-0.1-0.2-0.2-0.3
													c-2.3,7.5-4.9,15-9,21.8c-3.7,6.3-8.7,11.6-14.9,15.6c-0.5,0.4-1,0.6-1.5,1C608.9,205.7,610.2,208,611.6,207.1z"/>
												<path class="st6" d="M648.2,170.2c-0.7-0.5-0.8-2,0.4-2.3c0.3-0.1,0.5-0.1,0.7-0.2c-0.1,0-0.1,0-0.2,0
													c-3.7,0-7.4-1.5-10.9-2.3c-0.1,0-0.1,0-0.2,0c0,0.1,0.1,0.1,0.1,0.2c0.6,1-0.4,1.9-1.3,1.9c0.2,0.2,0.4,0.4,0.6,0.5
													c0.2,0,0.3,0.1,0.5,0.1c3.3,0.8,6.4,1.9,9.8,2.2C647.9,170.2,648,170.2,648.2,170.2z"/>
												<path class="st6" d="M636.9,167.5c0.9,0.1,1.8-0.9,1.3-1.9c0-0.1-0.1-0.1-0.1-0.2c-1.5-2.5-2.5-5.3-2.3-8.2
													c0.2-2.4,1.5-5.7,3.9-6.7c0.7-0.3,2.3-0.2,2.5,0.7c0.2,0.5-0.7,1.9-0.9,2.4c-0.7,1.9-0.4,4.4,1,5.9
													c1.7,1.9,4.4,1.5,6.1-0.2c0.8-0.9,0.9-2,0.7-3.1c-0.2-1-0.7-1.9-0.3-2.9c0.2-0.4,0.4-0.6,0.5-0.8
													c0.1-0.1,0.2-0.1,0.3-0.1c0.4,0,1.1,0.5,1.5,0.9c1.3,1.2,2.2,2.8,2.8,4.4c1.4,3.6-1.2,8.6-4.7,9.9
													c-0.3,0.1-0.5,0.2-0.7,0.2c-1.2,0.3-1.1,1.6-0.4,2.3c0.3,0.2,0.6,0.3,1,0.2s0.7-0.2,1.1-0.4c4.2-1.5,6.5-6.3,6.6-10.5
													c0-1.7-0.8-3.5-1.7-5s-2.1-3.1-3.6-4c-1.5-0.8-3.2-0.6-4.3,0.6c-0.6,0.8-1,1.8-1.2,2.8c-0.1,1.1,0.5,2.1,0.5,3.1
													c0.1,0.8-1.3,1.5-2,1.2c-0.8-0.4-1.1-1.5-1.2-2.3c-0.2-2,1.5-3.4,1.1-5.4c-0.4-2.2-3.4-2.9-5.1-2.6
													c-2.1,0.4-3.8,2.5-4.8,4.3c-2.5,4.6-1.5,10.1,1.1,14.4c0.1,0.1,0.1,0.2,0.2,0.3C636.1,167.3,636.5,167.5,636.9,167.5z"
													/>
												<path class="st6" d="M645.5,180.8c0.5,0,1,0,1.5,0c1.6-0.2,1.6-2.7,0-2.5c-0.3,0-0.5,0-0.8,0c-3.5,0-7.3-2-10-3.8
													c-0.1-0.1-0.2-0.1-0.3-0.1c-1.3-0.5-2.3,1.5-1,2.3c0.1,0,0.1,0.1,0.2,0.1c1.7,1.2,3.6,2.1,5.6,2.9
													C642.2,180.3,643.9,180.7,645.5,180.8z"/>
												<path class="st6" d="M639.9,196c1.4,1,2.5-1.3,1.3-2.2c-0.2-0.1-0.4-0.3-0.5-0.4c-3.2-2.3-6.7-4.2-9.8-6.6
													c0,0-0.1,0-0.1-0.1c-1.3-0.8-2.9,0.8-1.7,1.8c0.2,0.1,0.3,0.2,0.5,0.4c3.2,2.5,6.7,4.4,10,6.7
													C639.5,195.8,639.7,195.9,639.9,196z"/>
												<path class="st6" d="M631.6,208.8c1.5,0.7,2.7-1.5,1.3-2.2c-0.1,0-0.1-0.1-0.2-0.1c-3.8-1.9-6.8-5.5-8.7-9.2
													c-0.1-0.1-0.2-0.2-0.3-0.3c-0.9-0.9-2.6,0.3-1.9,1.5c0.1,0.1,0.1,0.3,0.2,0.4c2.1,3.8,5.4,7.6,9.3,9.6
													C631.3,208.6,631.4,208.7,631.6,208.8z"/>
												<path class="st6" d="M621.2,218.9c0.2,0.3,0.3,0.5,0.5,0.8c0.7,1.5,2.9,0.2,2.2-1.3c-0.2-0.5-0.5-0.8-0.6-1.3
													c-2.4-4.4-5-8.6-6.8-13.3c-0.1-0.1-0.1-0.3-0.2-0.4c-0.5-1.5-3-0.9-2.5,0.7c0.2,0.5,0.3,0.8,0.5,1.3
													C616.2,210.1,618.8,214.5,621.2,218.9z"/>
											</g>
										</g>
										<g>
											<path class="st4" d="M605.4,312.1c-1.5,0.1-2.7,0.3-4.2,0.5c-1.5,3.2-2.8,6.6-3.4,10.1c6.5,0.7,13.9,1.2,19.4-2.3
												c-1.9-3.5-4.5-6.6-7-9.8c-0.3,0.3-0.6,0.5-1,0.6C608.1,312,606.7,312,605.4,312.1z"/>
											<g>
												<path class="st5" d="M585.8,261.4c0.5,1.5,1.2,3.1,1.7,4.6c0.8,2.3,1.6,4.5,2.4,6.8c2.1-0.5,4-1.2,6-1.9
													c1.2-0.5,2.5-1,3.6-1.5c0.6-0.3,1.4-0.5,2-0.8c-1-3.3-2.2-6.5-3.3-9.8c-0.3-0.7-0.5-1.5-0.7-2.2
													c-1.8,0.7-3.8,1.3-5.6,1.9C589.8,259.4,587.7,260.2,585.8,261.4z"/>
												<path class="st5" d="M582.6,253.5c1,1.7,1.6,3.5,2.3,5.4c1.8-1,3.7-1.8,5.6-2.5c2-0.7,4.1-1.5,6.2-1.9
													c-0.5-1.4-1-2.7-1.5-4.1c-0.6-1.5-1.3-3.2-2.3-4.6c-2.1,2.3-4.4,4.3-7,5.9C584.8,252.3,583.7,253,582.6,253.5z"/>
												<path class="st5" d="M596.8,273.4c-2,0.8-4.1,1.5-6.2,2c0.6,1.9,1.3,3.9,1.9,5.8c0.6,1.8,1.2,3.6,1.7,5.5
													c3.5-1.3,7.3-1.9,10.8-3.3c-0.6-3.5-1.5-7.1-2.4-10.6c-0.2-0.5-0.4-1.2-0.5-1.7c-0.5,0.3-1.2,0.5-1.7,0.7
													C599.3,272.4,598,272.8,596.8,273.4z"/>
												<path class="st5" d="M597,296c0.3,1.2,0.6,2.4,0.9,3.5c0.1,0,0.2,0.1,0.4,0.1c0.4,0.1,0.7,0.1,1.1,0.1
													c1.1,0,2.3-0.3,3.4-0.5c1.2-0.3,2.5-0.5,3.6-0.9c0.4-0.1,0.7-0.2,1.2-0.3c-0.3-2.1-0.5-4.1-0.9-6.2c-0.3-2-0.6-4-1-6
													c-3.4,1.4-7,2.3-10.4,3.4C595.8,291.4,596.4,293.7,597,296z"/>
												<path class="st5" d="M602.8,301.8c-1.2,0.3-2.5,0.5-3.7,0.5c-0.2,0-0.3,0-0.5-0.1c0.7,2.6,1.5,5.2,2.5,7.7
													c1.5-0.3,3.1-0.5,4.6-0.5c0.6-0.1,1.2-0.1,1.8-0.4c0.3-0.1,0.6-0.4,0.7-0.6c0.3-0.7,0.3-1.6,0.2-2.5
													c-0.1-1.5-0.5-3.1-0.6-4.6c0-0.3-0.1-0.5-0.1-0.9c-0.4,0.1-0.7,0.2-1.1,0.3C605.5,301.2,604.1,301.5,602.8,301.8z"/>
											</g>
											<g>
												<path class="st6" d="M601.6,312.3c-0.1,0.2-0.2,0.4-0.3,0.6c1.3-0.3,2.6-0.5,4-0.5c1.3-0.1,2.6-0.2,3.8-0.7
													c0.4-0.2,0.7-0.4,1-0.6c-0.3-0.4-0.5-0.6-0.7-1c-0.9-1.3,1-2.8,2.1-1.8c0.2-1.6-0.1-3.4-0.3-4.8
													c-1.9-12.7-3.3-25.7-7.7-37.8c-1.5-4.1-2.6-8.3-4.2-12.3c-1.2-3.2-2.4-6.9-4.7-9.6c-0.3-0.4-0.6-0.7-1-1
													c-1.3-1.1-3,0.6-1.8,1.8c0.4,0.4,0.7,0.8,1,1.3c0.9,1.5,1.6,3.1,2.3,4.6c0.5,1.4,1.1,2.7,1.5,4.1
													c0.5-0.1,0.9-0.2,1.4-0.3c1.2-0.2,2,1.4,0.8,2c-0.5,0.3-0.9,0.5-1.4,0.6c0.3,0.7,0.5,1.5,0.7,2.2
													c1.1,3.3,2.3,6.5,3.3,9.8c0.5-0.2,1-0.3,1.5-0.4c1.2-0.2,2,1.3,0.8,2c-0.5,0.3-1,0.5-1.5,0.8c0.2,0.5,0.4,1.2,0.5,1.7
													c1,3.5,1.7,7.1,2.4,10.6c0.2-0.1,0.4-0.2,0.6-0.2c1.3-0.5,2.2,1.6,0.9,2.2c-0.4,0.2-0.7,0.3-1.1,0.5c0.4,2,0.7,4,1,6
													c0.3,2.1,0.6,4.1,0.9,6.2c0.6-0.2,1.2-0.3,1.8-0.4c1.1,0,1.7,1.7,0.6,2.2c-0.6,0.3-1.4,0.5-2,0.6c0,0.3,0.1,0.5,0.1,0.9
													c0.2,1.5,0.5,3.1,0.6,4.6c0.1,0.8,0.1,1.6-0.2,2.5c-0.1,0.2-0.5,0.5-0.7,0.6c-0.6,0.2-1.2,0.3-1.8,0.4
													c-1.5,0.2-3.1,0.3-4.6,0.5c-1-2.5-1.8-5.1-2.5-7.7c-0.4,0-0.6,0-1-0.1c-0.3-0.1-0.5-0.2-0.7-0.3
													c-0.2-0.1-0.4-0.3-0.5-0.5s-0.2-0.3-0.2-0.4c-0.3-0.6,0.2-1.5,0.9-1.6c0.1,0,0.3-0.1,0.4-0.1c0.1,0,0.2,0,0.3,0
													c-0.3-1.2-0.6-2.4-0.9-3.5c-0.5-2.3-1.2-4.4-1.9-6.7c-0.4,0.1-0.7,0.2-1,0.3c-1.6,0.5-2.2-1.9-0.7-2.5
													c0.3-0.1,0.6-0.3,0.9-0.4c-0.5-1.8-1.2-3.6-1.7-5.5c-0.6-1.9-1.3-3.9-1.9-5.8c-0.3,0.1-0.5,0.2-0.9,0.2
													c-1.6,0.3-2.4-2.3-0.7-2.5c0.3,0,0.5-0.1,0.7-0.2c-0.7-2.3-1.5-4.5-2.4-6.8c-0.5-1.5-1.2-3.1-1.7-4.6
													c-0.3,0.2-0.5,0.3-0.8,0.5c-1.5,1-2.8-1.4-1.4-2.4c0.4-0.3,0.8-0.5,1.2-0.7c-0.6-1.8-1.3-3.7-2.3-5.4
													c-0.1-0.2-0.2-0.3-0.3-0.5c-1-1.5-3.4-0.1-2.5,1.5c0,0.1,0.1,0.1,0.1,0.2c1.1,1.9,1.7,4,2.5,6.1
													c0.8,2.5,1.8,4.8,2.7,7.3c1.8,5,3.4,10.1,5.1,15.2c1.5,4.9,3,9.7,4.4,14.7c1.2,4.7,2.5,9.3,4.4,13.8
													c0.1-0.3,0.2-0.5,0.4-0.7C600,309.3,602.3,310.8,601.6,312.3z"/>
												<path class="st6" d="M602.7,299.3c-1.1,0.3-2.2,0.5-3.4,0.5c-0.4,0-0.7,0-1.1-0.1c-0.1,0-0.3-0.1-0.4-0.1
													c-0.1,0-0.2,0-0.3,0s-0.3,0-0.4,0.1c-0.7,0.1-1.2,0.9-0.9,1.6c0,0,0.1,0.1,0.2,0.4c0.1,0.2,0.3,0.4,0.5,0.5
													s0.5,0.2,0.7,0.3c0.3,0.1,0.6,0.1,1,0.1c0.2,0,0.3,0.1,0.5,0.1c1.3,0,2.5-0.2,3.7-0.5c1.3-0.3,2.6-0.6,3.9-1
													c0.4-0.1,0.7-0.2,1.1-0.3c0.7-0.2,1.4-0.4,2-0.6c1.1-0.5,0.5-2.3-0.6-2.2c-0.6,0-1.2,0.2-1.8,0.4
													c-0.4,0.1-0.8,0.2-1.2,0.3C605.1,298.6,603.8,299,602.7,299.3z"/>
												<path class="st6" d="M593.4,287.1c-1.5,0.6-0.9,3,0.7,2.5c0.4-0.1,0.6-0.2,1-0.3c3.5-1.1,7.1-2,10.4-3.4
													c0.4-0.2,0.7-0.3,1.1-0.5c1.3-0.5,0.4-2.7-0.9-2.2c-0.2,0.1-0.4,0.2-0.6,0.2c-3.5,1.3-7.3,1.9-10.8,3.3
													C594,286.8,593.7,286.9,593.4,287.1z"/>
												<path class="st6" d="M595.9,270.9c-1.9,0.8-3.9,1.5-6,1.9c-0.3,0.1-0.5,0.1-0.7,0.2c-1.6,0.3-0.9,2.8,0.7,2.5
													c0.3-0.1,0.6-0.1,0.9-0.2c2.1-0.5,4.2-1.2,6.2-2c1.2-0.5,2.5-1,3.6-1.5c0.5-0.3,1.2-0.5,1.7-0.7
													c0.5-0.3,1.1-0.5,1.5-0.8c1.2-0.7,0.4-2.2-0.8-2c-0.5,0.1-1,0.2-1.5,0.4c-0.7,0.3-1.4,0.5-2,0.8
													C598.2,270,597,270.5,595.9,270.9z"/>
												<path class="st6" d="M584.9,258.9c-0.5,0.3-0.8,0.5-1.2,0.7c-1.5,1-0.1,3.3,1.4,2.4c0.3-0.2,0.5-0.4,0.8-0.5
													c1.9-1.2,4-2,6.1-2.7c1.8-0.6,3.8-1.2,5.6-1.9c0.5-0.2,0.9-0.4,1.4-0.6c1.2-0.6,0.3-2.2-0.8-2c-0.5,0.1-0.9,0.2-1.4,0.3
													c-2.1,0.5-4.3,1.2-6.2,1.9C588.5,257.1,586.6,257.8,584.9,258.9z"/>
												<path class="st6" d="M619.9,320.2c-2.1-4.4-5.4-8.2-8.3-11.9c0-0.1-0.1-0.1-0.2-0.1c-1.1-1-3,0.6-2.1,1.8
													c0.3,0.4,0.5,0.6,0.7,1c2.4,3.1,4.9,6.1,6.7,9.4c-5.4,3.4-12.5,2.9-18.7,2.2c0.5-3.4,1.9-6.6,3.3-9.7
													c0.1-0.2,0.2-0.4,0.3-0.6c0.7-1.6-1.5-3-2.4-1.4c-0.1,0.3-0.2,0.5-0.4,0.7c-2,3.8-3.4,8.1-3.9,12.3
													c-0.1,0.9,0.7,1.4,1.5,1.5c7.5,0.9,16.6,1.7,23.1-3.3C620.1,321.7,620.4,320.9,619.9,320.2z"/>
											</g>
										</g>
									</g>
								</g>
							</g>
							<g>
								<g>
									<rect x="559.6" y="111.5" class="st2" width="6.5" height="14.4"/>
									<g>
										<g>
											<circle class="st2" cx="563" cy="113.7" r="4.3"/>
											<path class="st2" d="M563,106.8c3.2,0,5.8,2.1,6.7,5l2.8-2.8c-1.7-3.4-5.4-5.9-9.5-5.9c-4.2,0-7.8,2.5-9.5,5.9l2.8,2.8
												C557.1,109,559.8,106.8,563,106.8z"/>
											<path class="st2" d="M563,100.7c4.8,0,9,2.6,11.3,6.5l2.6-2.6c-3-4.5-8.2-7.5-14-7.5s-11,3-14,7.5l2.6,2.6
												C553.9,103.3,558.2,100.7,563,100.7z"/>
											<path class="st2" d="M563,94.5c6.5,0,12.3,3.3,15.8,8.3l2.6-2.6c-4.2-5.6-10.9-9.3-18.4-9.3s-14.2,3.6-18.4,9.3l2.6,2.6
												C550.7,97.8,556.5,94.5,563,94.5z"/>
										</g>
									</g>
									<rect x="554.5" y="181.8" class="st2" width="17.1" height="23.8"/>
								</g>
								<g>
									<g>
										<path class="st7" d="M593,278.2h-60.2c-11.8,0-21.5-9.7-21.5-21.5v-37.3c0-11.8,9.7-21.5,21.5-21.5H593
											c11.8,0,21.5,9.7,21.5,21.5v37.3C614.5,268.5,604.8,278.2,593,278.2z"/>
									</g>
									<g>
										<path class="st8" d="M586.9,235.6c2.3-4,4.8-8.8,4.9-13.5c0-1.7-0.3-3.5-1.8-4.5c-1.5-1.1-3.4-0.7-4.7,0.5
											c-3.4,3.3-4.5,8.2-7.3,11.9c-0.8,1.2-2.5,0.2-2.5-1c0,0,0,0,0-0.1c-1.1-4-2.8-9.5-7.2-11.2c-1.8-0.7-3.8,0.2-5,1.7
											c-1.1,1.5-1.1,3.4-0.8,5.1c0.6,4.7,3.1,9.3,5.4,13.3c2.6,4.4,5.6,8.4,9.2,12.1c1.8-2.5,5.2-7.1,6.6-9.3
											C584.9,239,585.9,237.3,586.9,235.6z"/>
										<g>
											<line class="st9" x1="580.4" y1="202.9" x2="547.8" y2="235.5"/>
											<line class="st9" x1="586.1" y1="208" x2="553.6" y2="240.7"/>
											<line class="st9" x1="591.9" y1="213.2" x2="559.3" y2="245.9"/>
											<line class="st9" x1="597.6" y1="218.5" x2="565" y2="251.1"/>
											<line class="st9" x1="603.3" y1="223.7" x2="570.7" y2="256.2"/>
										</g>
									</g>
								</g>
								<path class="st7" d="M588,190.4h-49.9c-10.8,0-19.7-8.9-19.7-19.7v-28.9c0-10.8,8.9-19.7,19.7-19.7H588
									c10.8,0,19.7,8.9,19.7,19.7v28.9C607.6,181.5,598.8,190.4,588,190.4z"/>
								<g>
									<circle class="st4" cx="532.2" cy="156.3" r="5.1"/>
									<circle class="st4" cx="593.7" cy="156.3" r="5.1"/>
								</g>
							</g>
						</g>
					</g>
				</g>
			</g>
			<g id="圖層_10">
				<g>
					<path class="st10" d="M507.5,537.5v5.1h6.5v1.4h-8.1v-8h6.5v-3.7H506V531h8v4.8c0,0.9-0.7,1.7-1.7,1.7H507.5z"/>
					<path class="st10" d="M526.5,544h-6.4v-13h8.1v11.3C528.2,543.3,527.4,544,526.5,544z M521.6,532.4v10.2h5.1v-10.2H521.6z"/>
					<path class="st10" d="M533.2,532.4V531h4.5v13h-1.5v-11.6H533.2z"/>
					<path class="st10" d="M543.6,544v-13h8v11.3c0,0.9-0.7,1.7-1.7,1.7H543.6L543.6,544z M545.2,532.4v3.7h5v-3.7H545.2z
						 M545.2,537.5v5.1h5v-5.1H545.2z"/>
					<path class="st10" d="M557.7,544.4v-1.7h2.3v1.7H557.7z"/>
					<path class="st10" d="M565,532.4V531h4.5v13H568v-11.6H565z"/>
					<path class="st10" d="M577,537.5v5.1h6.5v1.4h-8.1v-8h6.5v-3.7h-6.4V531h8v4.8c0,0.9-0.7,1.7-1.7,1.7H577z"/>
					<path class="st10" d="M589.5,544.4v-1.7h2.3v1.7H589.5z"/>
					<path class="st10" d="M604.3,544h-6.4v-13h8.1v11.3C605.9,543.3,605.2,544,604.3,544z M599.3,532.4v10.2h5.1v-10.2H599.3z"/>
					<path class="st10" d="M613.6,537.5v5.1h6.5v1.4H612v-8h6.5v-3.7h-6.4V531h8v4.8c0,0.9-0.7,1.7-1.7,1.7H613.6z"/>
					<path class="st10" d="M468.2,561.9v1.5h-3v11.5h-1.6v-11.5h-3v-1.5H468.2z"/>
					<path class="st10" d="M480.2,561.9h1.5v13h-1.5v-6.7h-5.4v6.7h-1.5v-13h1.5v4.8h5.4V561.9z"/>
					<path class="st10" d="M494.4,575h-6.6v-13h6.6v1.4h-5v3.4h4.5v1.5h-4.5v5.3h5V575z"/>
					<path class="st10" d="M516.3,568.3h-2.8l2.8,6.7h-1.7l-2.8-6.7h-2v6.7h-1.5v-13h8V568.3L516.3,568.3z M509.9,563.4v3.4h4.9
						v-3.4H509.9z"/>
					<path class="st10" d="M530.8,574.9h-8.3v-13h8.3V574.9z M524,573.5h5.2v-10.1H524V573.5z"/>
					<path class="st10" d="M543.8,566.8h1.4v8.2h-8.4v-13h6.9L543.8,566.8L543.8,566.8z M542.2,563.4h-3.8v3.4h3.8V563.4z
						 M538.4,573.5h5.2v-5.2h-5.2V573.5z"/>
					<path class="st10" d="M559.6,574.9h-8.3v-13h8.3V574.9z M552.8,573.5h5.2v-10.1h-5.2V573.5z"/>
					<path class="st10" d="M572.2,561.9v1.5h-3v11.5h-1.6v-11.5h-3v-1.5H572.2z"/>
					<path class="st10" d="M593.7,574.9h-8v-13h8v1.5h-6.4v10.1h6.4V574.9z"/>
					<path class="st10" d="M607.7,574.9h-8.3v-13h8.3V574.9z M601,573.5h5.2v-10.1H601V573.5z"/>
					<path class="st10" d="M619.6,569.8h-1.9l-2.5-4.8v9.9h-1.5v-13h1.6l3.3,6.3l3.2-6.3h1.9v13h-1.6v-10.2L619.6,569.8z"/>
					<path class="st10" d="M636.8,566.8h1.4v8.2h-8.4v-13h6.9L636.8,566.8L636.8,566.8z M635.2,563.4h-3.7v3.4h3.8L635.2,563.4
						L635.2,563.4z M631.5,573.5h5.2v-5.2h-5.2V573.5z"/>
					<path class="st10" d="M644.3,561.9h8.4v13h-1.6v-6.7h-5.2v6.7h-1.6L644.3,561.9L644.3,561.9z M645.9,566.8h5.2v-3.4h-5.2V566.8
						z"/>
					<path class="st10" d="M665.4,561.9v1.5h-3v11.5h-1.6v-11.5h-3v-1.5H665.4z"/>
				</g>
			</g>
			<g id="圖層_9">
				<g>
					<g>
						<line class="st11" x1="111.1" y1="491.6" x2="1023.7" y2="491.6"/>
						<circle class="st5" cx="102.6" cy="491.6" r="13.9"/>
						<circle class="st5" cx="1024.4" cy="491.6" r="13.9"/>
					</g>
				</g>
			</g>
			<g id="圖層_8">
				<g>
					<g>
						<path class="st12" d="M435.9,364.6l3.3,10.1h-4.1v21.2h-3.8l-0.1-18.9l-2.1,6.9H425l5.2-19.3h-4.7v-4.1h5.6v-8.6h3.8v8.6h4
							v4.1L435.9,364.6L435.9,364.6z M456.2,351l0.8,24.4h12.3v3.8h-10.8l2.7,4.7l1.6-3h4.4l-3.7,7.1l4.7,8h-4.5l-2.3-4l-1.6,2.9
							h-4.4l3.6-6.8l-4.9-8.7h-8l-0.1,1.3l5.5,8.1h-4.9l-1.2-1.7l-2.1,8h-4.1l2.4-9.7l0.3-5.9h-1.6v-4h12.6l-0.8-24.4L456.2,351
							L456.2,351z M440.5,371.6l3.3-6.9l-3.7-3.5l4.1-8.6h3.6l-3.6,7.8l1.1,1.1l1.2-2.7h3.6l-4.3,9.2l2.4-0.1l-0.1-2.3h3.1l0.4,6.6
							h-3.1l-0.1-1L440.5,371.6z M461,364.7l-3.9-3.8l4.3-8.4h3.8l-3.9,7.7l1.4,1.4l1.3-2.8h3.6l-4.4,8.9l2.7-0.1l-0.3-2.1h3.2
							l0.8,6.6h-3.2l-0.1-1.3l-8.6,0.4L461,364.7z M460.3,372.4h4l1.6,2.4H462L460.3,372.4z"/>
						<path class="st12" d="M527.3,382.8h-4.1v11h-15.6v-12.3h9.8l-12.8-7.2l-11.7,7.2h10.3v12.3h-15.5v-11h-4.1l13.6-8.4h-12.6
							v-3.8h17.9l0.7-4.2h3.9l-0.7,4.2h19.8v3.8h-13.9L527.3,382.8z M503.5,352.9v12.8h-15.8v-12.8H503.5z M523.3,352.9v12.8h-15.8
							v-12.8H523.3z"/>
						<path class="st12" d="M580.9,391.5l-3.7,2.9l-13.7-17.8l-12.8,17.8h-5.8L561,372v-19.1h4.7v19L580.9,391.5"/>
						<path class="st12" d="M641.3,363.2v4.4H625l16,27h-5l-14.5-24.4l-12.9,24.4h-4.9l14.1-27h-16.5v-4.4h17.8v-10.6h4.4v10.6
							H641.3z"/>
						<path class="st12" d="M691.6,371.4l9,6.4h-6l-3.1-2.3v14.9h-24.4v-14.6l-2.3,1.8h-5.6l8-6.2h-9.4v-3h12.9v-1.5h-4.4V364h4.4
							v-1.6h-6.6v-3h6.6v-1.9h3.2v1.9h10.6v-1.9h3.2v1.9h6.6v3h-6.6v1.6h4.4v3.1h-4.3v1.5h13v3L691.6,371.4L691.6,371.4z
							 M662.5,356.7v2.8h-3v-5.8h18.2v-2.1h3.1v2.1H699v5.8h-3v-2.8H662.5z M665.6,395.8l2.6-3h5.3l-2.6,3H665.6z M669.5,374.1h19.9
							l-3.8-2.7H673L669.5,374.1z M688.7,378.4v-1.6H670v1.6H688.7z M670,381.5v1.6h18.7v-1.6H670z M670,387.7h18.7v-1.6H670V387.7z
							 M674,362.4v1.6h10.6v-1.6H674z M684.6,367.1H674v1.5h10.6V367.1z M686.1,392.8h5.1l2.3,3h-5.1L686.1,392.8z"/>
						<path class="st12" d="M453.7,425.9l9.9-11.3l9.9,10.5H468l-4.2-4.4l-4.7,5.2L453.7,425.9L453.7,425.9z M460,448.6h-3.6
							l-0.9-6.6h3.6L460,448.6z M465.5,439v11.8l6.3-1.3v4.4l-16,3.4V453l6-1.3V439h-6.3v-3.7h6.2v-4.1h-4.4v-3.8h12.6v3.8h-4.4v4.1
							h5.8v3.7H465.5L465.5,439z M467.4,447.1l0.9-5.1h3.5l-0.8,5.1H467.4z M474.4,415.1h23.8V458h-3.8v-39.1h-16.2V458h-3.8V415.1z
							 M492.2,422.7l-1.6,7.1h3v3.5h-5.5V447h1.4v-9.5h3.4v13h-13.2v-13h3.4v9.5h1.4v-13.7H479v-3.5h8l1.6-7.1L492.2,422.7
							L492.2,422.7z M484,422.7l1.2,4.7h-3.4l-1.2-4.7H484z"/>
						<path class="st12" d="M511,426.4l8.3-11.5l8.3,10.6h-4.7l-3.5-4.3l-3.7,5.2L511,426.4L511,426.4z M516.6,449h-3.5l-0.7-6.9
							h3.5L516.6,449z M521.1,439.1v12l4.9-1.3v4.1l-13.3,3.3v-4l4.8-1.3v-12.8h-4.9v-3.5h4.9v-4.3h-3.4v-3.6h10.4v3.6h-3.4v4.3h4.6
							v3.5L521.1,439.1L521.1,439.1z M522.2,447.5l0.7-5.3h3.4l-0.7,5.3H522.2z M556.7,429h-8.8l1.9,7.6l1.1-3.1h4l-3.5,9.7
							l3.5,14.5h-3.8l-2-8l-2.7,7.8h-4.1l5.1-14.4L544,429h-15.9v-3.5h5.6V423h-4.1v-3.7h4.1v-3.8h3.8v3.8h4.1v3.7h-4.1v2.5h6.1V416
							h3.8v9.4h9.3L556.7,429L556.7,429z M528.7,453l5.1-1v-3h-4v-3.2h4v-2.1h-4.9v-3.2h14.5v3.2h-5.9v2.1h5.1v3.2h-5.1v2.3l5.3-1
							v3.6l-14.2,2.4L528.7,453L528.7,453z M529.5,430.6h12.4v8.7h-12.4V430.6z M538.5,435.9v-2.1h-5.8v2.1H538.5z M554.6,422.2
							h-3.8l-1.6-5.6h3.8L554.6,422.2z"/>
						<path class="st12" d="M577.7,426.3v8.3l3.8-2.1v4.7l-3.8,2.1v19.2h-3.9v-17.1l-3.5,2v-4.7l3.5-1.9v-10.4h-3.2v-4.1h3.2v-8.2
							h3.9v8.2h3.4v4.1h-3.4V426.3z M601.2,421.7h13.4v10.6h-3.7v-6.9h-9.7v10.3h-3.7v-10.3h-9.6v6.9h-3.7v-10.6h13.3v-3.4h-9.7
							v-3.7h23.3v3.7h-9.8L601.2,421.7L601.2,421.7z M587.2,457.5v-18.7h24.4v18.7H587.2z M595.8,427.4v3.4h-6.2v-3.4H595.8z
							 M589.6,435.7v-3.3h6.2v3.3H589.6z M590.7,442.4v4.1h6.9v-4.1H590.7z M590.7,449.9v4h6.9v-4H590.7z M601.2,442.4v4.1h6.9v-4.1
							H601.2z M601.2,449.9v4h6.9v-4H601.2z M609.1,427.4v3.4h-6.2v-3.4H609.1z M602.9,435.7v-3.3h6.2v3.3H602.9z"/>
						<path class="st12" d="M664.4,437.6l-1.2-3.8l-30.5,1.3l9.3-19.7h4.9l-7.1,15.1l22.1-1l-1.9-6.7h4.6l4.3,14.8L664.4,437.6
							L664.4,437.6z M635.6,457.6v-17.8h29.5v17.8H635.6z M640,444.2v8.9h20.7v-8.9H640z"/>
					</g>
					<circle class="st0" cx="495.4" cy="359" r="3.8"/>
					<circle class="st0" cx="515.4" cy="359" r="3.8"/>
					<circle class="st0" cx="496.3" cy="387.4" r="3.8"/>
					<circle class="st0" cx="515.4" cy="387.4" r="3.8"/>
					<g>
						<path class="st13" d="M580,390.9c-0.1,0.2-0.1,0.7,0.3,0.7h0.1c1,0.1,1.9,0.3,2.7,0.9c0.7,0.5,1.3,1.5,1.1,2.4
							c-0.1,0.2-0.4,0.7-0.7,0.6c-0.2-0.1-0.4-0.5-0.5-0.7c-0.4-0.6-1.2-0.9-1.8-0.8c-0.8,0.1-1.3,1-1,1.8c0.1,0.4,0.4,0.6,0.7,0.8
							c0.3,0.1,0.7,0.1,0.9,0.4c0.1,0.1,0.1,0.2,0.1,0.3c0,0.1,0,0.1-0.1,0.1c-0.1,0.1-0.4,0.2-0.5,0.2c-0.6,0.1-1.2,0.1-1.8,0
							c-1.3-0.3-2.2-1.9-1.9-3.2c0-0.1,0.1-0.1,0.1-0.2c0.1-0.4-0.2-0.6-0.6-0.5c-0.1,0.1-0.2,0.1-0.2,0.2c-0.1,0.1-0.1,0.2-0.1,0.4
							c-0.3,1.5,0.5,3,1.7,3.8c0.5,0.4,1.1,0.4,1.7,0.4c0.6,0,1.3,0,1.8-0.3c0.5-0.2,0.8-0.7,0.6-1.3c-0.1-0.4-0.3-0.6-0.6-0.9
							c-0.3-0.2-0.7-0.2-1-0.4c-0.2-0.1-0.2-0.7,0-0.8c0.2-0.1,0.6-0.1,0.9,0.1c0.6,0.3,0.7,1,1.3,1.3c0.7,0.3,1.5-0.4,1.7-1
							c0.3-0.7,0-1.6-0.3-2.1c-0.8-1.6-2.5-2.3-4.2-2.4h-0.1C580.2,390.8,580.1,390.8,580,390.9z"/>
					</g>
				</g>
			</g>
		</g>
	</g>
</g>
</svg>
