<?xml version="1.0" encoding="utf-8"?>
<!-- Generator: Adobe Illustrator 21.1.0, SVG Export Plug-In . SVG Version: 6.00 Build 0)  -->
<svg version="1.1" id="圖層_1" xmlns="http://www.w3.org/2000/svg" xmlns:xlink="http://www.w3.org/1999/xlink" x="0px" y="0px"
	 viewBox="0 0 20 20" style="enable-background:new 0 0 20 20;" xml:space="preserve">
<style type="text/css">
	.st0{fill:#85E4ED;}
	.st1{opacity:0.3;}
	.st2{fill:#66A9B0;}
</style>
<rect class="st0" width="20" height="20"/>
<g class="st1">
	<circle class="st2" cx="2.5" cy="2.5" r="2.5"/>
	<circle class="st2" cx="12.5" cy="2.5" r="2.5"/>
	<circle class="st2" cx="22.5" cy="2.5" r="2.5"/>
	<circle class="st2" cx="32.5" cy="2.5" r="2.5"/>
	<circle class="st2" cx="7.5" cy="7.5" r="2.5"/>
	<circle class="st2" cx="17.5" cy="7.5" r="2.5"/>
	<circle class="st2" cx="27.5" cy="7.5" r="2.5"/>
	<circle class="st2" cx="37.5" cy="7.5" r="2.5"/>
	<circle class="st2" cx="2.5" cy="12.5" r="2.5"/>
	<circle class="st2" cx="12.5" cy="12.5" r="2.5"/>
	<circle class="st2" cx="22.5" cy="12.5" r="2.5"/>
	<circle class="st2" cx="32.5" cy="12.5" r="2.5"/>
	<circle class="st2" cx="7.5" cy="17.5" r="2.5"/>
	<circle class="st2" cx="17.5" cy="17.5" r="2.5"/>
	<circle class="st2" cx="27.5" cy="17.5" r="2.5"/>
	<circle class="st2" cx="37.5" cy="17.5" r="2.5"/>
	<circle class="st2" cx="2.5" cy="22.5" r="2.5"/>
	<circle class="st2" cx="12.5" cy="22.5" r="2.5"/>
	<circle class="st2" cx="22.5" cy="22.5" r="2.5"/>
	<circle class="st2" cx="32.5" cy="22.5" r="2.5"/>
	<circle class="st2" cx="7.5" cy="27.5" r="2.5"/>
	<circle class="st2" cx="17.5" cy="27.5" r="2.5"/>
	<circle class="st2" cx="27.5" cy="27.5" r="2.5"/>
	<circle class="st2" cx="37.5" cy="27.5" r="2.5"/>
</g>
</svg>
