<?xml version="1.0" encoding="utf-8"?>
<!-- Generator: Adobe Illustrator 23.0.0, SVG Export Plug-In . SVG Version: 6.00 Build 0)  -->
<svg version="1.1" id="圖層_1" xmlns="http://www.w3.org/2000/svg" xmlns:xlink="http://www.w3.org/1999/xlink" x="0px" y="0px"
	 viewBox="0 0 21 30" style="enable-background:new 0 0 21 30;" xml:space="preserve">
<style type="text/css">
	.st0{opacity:0.25;}
	.st1{fill:#66A9B0;}
</style>
<g class="st0">
	<g>
		<circle class="st1" cx="5" cy="5" r="5"/>
		<circle class="st1" cx="26.43" cy="5" r="5"/>
		<circle class="st1" cx="47.86" cy="5" r="5"/>
		<circle class="st1" cx="69.29" cy="5" r="5"/>
		<circle class="st1" cx="90.71" cy="5" r="5"/>
		<circle class="st1" cx="112.14" cy="5" r="5"/>
		<circle class="st1" cx="133.57" cy="5" r="5"/>
		<circle class="st1" cx="155" cy="5" r="5"/>
	</g>
	<g>
		<circle class="st1" cx="15.71" cy="20" r="5"/>
		<circle class="st1" cx="37.14" cy="20" r="5"/>
		<circle class="st1" cx="58.57" cy="20" r="5"/>
		<circle class="st1" cx="80" cy="20" r="5"/>
		<circle class="st1" cx="101.43" cy="20" r="5"/>
		<circle class="st1" cx="122.86" cy="20" r="5"/>
		<circle class="st1" cx="144.29" cy="20" r="5"/>
	</g>
	<g>
		<circle class="st1" cx="5" cy="35" r="5"/>
		<circle class="st1" cx="26.43" cy="35" r="5"/>
		<circle class="st1" cx="47.86" cy="35" r="5"/>
		<circle class="st1" cx="69.29" cy="35" r="5"/>
		<circle class="st1" cx="90.71" cy="35" r="5"/>
		<circle class="st1" cx="112.14" cy="35" r="5"/>
		<circle class="st1" cx="133.57" cy="35" r="5"/>
		<circle class="st1" cx="155" cy="35" r="5"/>
	</g>
</g>
</svg>
