<?xml version="1.0" encoding="utf-8"?>
<!-- Generator: Adobe Illustrator 21.1.0, SVG Export Plug-In . SVG Version: 6.00 Build 0)  -->
<svg version="1.1" id="圖層_1" xmlns="http://www.w3.org/2000/svg" xmlns:xlink="http://www.w3.org/1999/xlink" x="0px" y="0px"
	 viewBox="0 0 750 250" style="enable-background:new 0 0 750 250;" xml:space="preserve">
<style type="text/css">
	.st0{fill:#85E4ED;}
	.st1{fill:#518287;}
	.st2{fill:#66A9B0;}
	.st3{fill:#518287;stroke:#518287;stroke-width:0.4683;stroke-miterlimit:10;}
	.st4{fill:#FFFFFF;}
	.st5{fill:#66A9B0;stroke:#518287;stroke-width:1.8297;stroke-miterlimit:10;}
	.st6{fill:#FFFFFF;stroke:#FFFFFF;stroke-width:3.7464;stroke-miterlimit:10;}
	.st7{fill:none;stroke:#66A9B0;stroke-width:0.366;stroke-miterlimit:10;}
	.st8{fill:#518287;stroke:#518287;stroke-width:0.5;stroke-miterlimit:10;}
</style>
<rect x="-1" y="89" class="st0" width="752" height="166"/>
<g>
	<g>
		<rect x="-1" y="-3" class="st1" width="752" height="185"/>
	</g>
	<g>
		<g>
			<g>
				<circle class="st0" cx="375" cy="137.2" r="82"/>
				<g>
					<g>
						<g>
							<g>
								<g>
									<g>
										<path class="st2" d="M357.6,157.9c1.1,0.2,2.2,0.6,3.2,1s2,0.8,2.9,1.3c0.3-1,0.7-2.1,1.3-3c0,0,0,0,0.1-0.1
											c-0.4-0.2-0.8-0.4-1.2-0.7c-1.5-0.9-2.9-2-4.1-3.2c-0.6,0.8-1,1.8-1.3,2.6C358.1,156.5,357.9,157.2,357.6,157.9z"/>
										<path class="st2" d="M357.6,167.7c-0.6-0.3-1.2-0.5-1.9-0.8c-0.3-0.1-0.6-0.2-0.9-0.4c-0.1,0.3-0.2,0.6-0.3,0.9
											c-0.5,1.8-0.9,3.6-1.2,5.5c1.8,0.7,3.8,1,5.6,1.7c0.3-1,0.6-1.9,0.9-2.9s0.6-2,1-3C359.7,168.5,358.6,168.1,357.6,167.7z"
											/>
										<path class="st2" d="M353.1,174.2c-0.2,1-0.3,2.1-0.5,3.1c-0.2,1.1-0.3,2.1-0.4,3.2c0.2,0.1,0.4,0.1,0.6,0.2
											c0.6,0.2,1.2,0.3,1.9,0.4c0.6,0.1,1.1,0.2,1.7,0.2c0.2,0,0.4,0,0.6-0.1c0.1,0,0.1,0,0.2-0.1c0.2-0.6,0.3-1.2,0.5-1.8
											c0.3-1.2,0.6-2.3,1-3.5C356.7,175.4,354.9,174.9,353.1,174.2z"/>
										<path class="st2" d="M357.2,159.1c-0.1,0.4-0.3,0.7-0.4,1.1c-0.5,1.7-1.1,3.4-1.7,5.1c0.4,0.1,0.7,0.3,1,0.4
											c0.6,0.2,1.3,0.5,1.9,0.8c1,0.4,2,0.8,3.1,1c0.4-1.2,0.8-2.4,1.2-3.5c0.3-0.8,0.6-1.6,0.9-2.4c-1-0.6-2-1-3.1-1.4
											C359.2,159.8,358.1,159.5,357.2,159.1z"/>
										<path class="st2" d="M354.6,182.4c-0.7-0.1-1.3-0.3-2-0.5c-0.2,0-0.4-0.1-0.6-0.1c0,0.2,0,0.3-0.1,0.5
											c-0.1,0.8-0.3,1.6-0.3,2.4c0,0.4,0,0.8,0.1,1.2c0,0.1,0.2,0.3,0.4,0.3c0.3,0.1,0.6,0.1,0.9,0.2c0.8,0.1,1.6,0.1,2.4,0.3
											c0.5-1.3,0.9-2.6,1.3-4c-0.1,0-0.2,0-0.2,0C355.8,182.6,355.2,182.5,354.6,182.4z"/>
									</g>
									<path class="st1" d="M353.3,173c-0.1,0-0.2-0.1-0.3-0.1c-0.7-0.3-1.1,0.9-0.5,1.1c0.2,0.1,0.4,0.1,0.6,0.2
										c1.8,0.7,3.6,1.1,5.4,1.7c0.2,0.1,0.3,0.1,0.5,0.2c0.8,0.3,1.1-1,0.3-1.3c-0.2-0.1-0.3-0.1-0.5-0.2
										C357.1,173.9,355.2,173.6,353.3,173z"/>
									<path class="st1" d="M358.1,166.5c-0.6-0.2-1.3-0.5-1.9-0.8c-0.3-0.1-0.7-0.3-1-0.4c-0.2-0.1-0.5-0.2-0.8-0.2
										c-0.6-0.1-1,0.7-0.4,1c0.3,0.2,0.5,0.3,0.8,0.4c0.3,0.1,0.6,0.2,0.9,0.4c0.6,0.3,1.2,0.5,1.9,0.8c1,0.4,2.1,0.8,3.2,1
										c0.2,0,0.3,0.1,0.5,0.1c0.9,0.1,1.2-1.2,0.4-1.3c-0.1,0-0.3-0.1-0.4-0.1C360.1,167.2,359.1,166.9,358.1,166.5z"/>
									<path class="st1" d="M357.6,157.9c-0.2,0-0.5-0.1-0.7-0.1c-0.6-0.1-1,0.7-0.4,1c0.2,0.1,0.5,0.2,0.7,0.3
										c0.9,0.4,2,0.6,2.9,1c1.1,0.4,2.2,0.8,3.1,1.4c0.1,0.1,0.3,0.2,0.4,0.2c0.7,0.5,1.4-0.7,0.7-1.2c-0.2-0.1-0.4-0.3-0.6-0.4
										c-0.9-0.5-1.9-0.9-2.9-1.3C359.8,158.5,358.7,158.2,357.6,157.9z"/>
									<g>
										<path class="st3" d="M365.1,157.1C365,157.1,365,157.1,365.1,157.1c-0.6,1-1,2-1.4,3.1c0.2,0.1,0.4,0.2,0.6,0.4
											c0.7,0.5,0.1,1.7-0.7,1.2c-0.1-0.1-0.3-0.2-0.4-0.2c-0.3,0.8-0.6,1.6-0.9,2.4c-0.4,1.2-0.8,2.4-1.2,3.5
											c0.1,0,0.3,0.1,0.4,0.1c0.9,0.1,0.5,1.4-0.4,1.3c-0.2,0-0.3-0.1-0.5-0.1c-0.3,1-0.6,2-1,3c-0.3,1-0.6,1.9-0.9,2.9
											c0.2,0.1,0.3,0.1,0.5,0.2c0.8,0.3,0.5,1.5-0.3,1.3c-0.2-0.1-0.3-0.1-0.5-0.2c-0.3,1.1-0.7,2.3-1,3.5
											c-0.2,0.6-0.3,1.2-0.5,1.8h0.1c0.1,0,0.1,0,0.2,0c0.4,0,0.6,0.5,0.5,0.8c0,0,0,0.1-0.1,0.2c-0.1,0.1-0.1,0.2-0.2,0.2
											c-0.1,0.1-0.3,0.1-0.4,0.1c-0.2,0-0.3,0-0.5,0.1c-0.4,1.4-0.8,2.7-1.3,4c-0.8-0.2-1.6-0.2-2.4-0.3c-0.3,0-0.6-0.1-0.9-0.2
											c-0.1,0-0.3-0.2-0.4-0.3c-0.2-0.4-0.1-0.8-0.1-1.2c0-0.8,0.2-1.6,0.3-2.4c0-0.2,0-0.3,0.1-0.5c-0.4-0.1-0.7-0.2-1.1-0.3
											c-0.6-0.3-0.3-1.2,0.3-1.1c0.3,0,0.6,0.1,0.9,0.2c0.1-1.1,0.3-2.1,0.4-3.2c0.2-1,0.3-2.1,0.5-3.1
											c-0.2-0.1-0.4-0.1-0.6-0.2c-0.7-0.3-0.2-1.4,0.5-1.1c0.1,0,0.2,0.1,0.3,0.1c0.3-1.8,0.7-3.7,1.2-5.5
											c0.1-0.3,0.2-0.6,0.3-0.9c-0.3-0.1-0.6-0.2-0.8-0.4c-0.6-0.4-0.2-1.1,0.4-1c0.3,0,0.5,0.1,0.8,0.2
											c0.5-1.7,1.1-3.4,1.7-5.1c0.1-0.4,0.2-0.7,0.4-1.1c-0.2-0.1-0.5-0.2-0.7-0.3c-0.6-0.3-0.2-1.1,0.4-1
											c0.2,0,0.5,0.1,0.7,0.1c0.2-0.7,0.5-1.4,0.8-2.1c0.4-0.9,0.7-1.8,1.3-2.6c0.1-0.1,0.2-0.3,0.3-0.4
											c0.6-0.6-0.3-1.5-0.9-0.9c-0.1,0.1-0.2,0.2-0.4,0.4c-1.3,1.4-1.9,3.4-2.5,5.1c-0.8,2.1-1.4,4.3-2.1,6.4
											c-2.2,6.3-2.9,13-3.8,19.5c-0.1,0.7-0.2,1.7-0.1,2.5c0.5-0.5,1.6,0.3,1.1,0.9c-0.1,0.2-0.3,0.3-0.4,0.5
											c0.1,0.1,0.3,0.2,0.5,0.3c0.6,0.3,1.3,0.3,2,0.4c0.7,0.1,1.4,0.1,2.1,0.3c0-0.1-0.1-0.2-0.1-0.3c-0.4-0.8,0.8-1.5,1.2-0.7
											c0.1,0.1,0.1,0.2,0.2,0.4c0.9-2.3,1.6-4.7,2.2-7.1c0.6-2.6,1.4-5.1,2.2-7.6c0.8-2.6,1.7-5.2,2.6-7.8
											c0.4-1.3,0.9-2.5,1.4-3.8c0.4-1.1,0.7-2.2,1.3-3.2c0-0.1,0.1-0.1,0.1-0.2C366.5,157,365.6,156.5,365.1,157.1z"/>
										<path class="st3" d="M356.4,181.3c-0.6,0-1.2-0.1-1.7-0.2c-0.6-0.1-1.3-0.3-1.9-0.4c-0.2,0-0.4-0.1-0.6-0.2
											c-0.3-0.1-0.6-0.2-0.9-0.2c-0.6,0-0.9,0.9-0.3,1.1c0.3,0.1,0.7,0.2,1.1,0.3c0.2,0,0.4,0.1,0.6,0.1c0.7,0.2,1.3,0.4,2,0.5
											c0.6,0.1,1.3,0.2,1.9,0.2c0.1,0,0.2,0,0.2,0c0.2,0,0.3,0,0.5-0.1c0.1,0,0.3-0.1,0.4-0.1c0.1-0.1,0.2-0.1,0.2-0.2
											c0-0.1,0.1-0.2,0.1-0.2c0.2-0.3-0.1-0.8-0.5-0.8c-0.1,0-0.1,0-0.2,0s-0.1,0-0.1,0c-0.1,0-0.1,0-0.2,0.1
											C356.8,181.3,356.6,181.3,356.4,181.3z"/>
										<path class="st3" d="M355.3,187.8c0,0.1,0.1,0.2,0.1,0.3c0.7,1.6,1.4,3.3,1.7,5c-3.2,0.4-6.9,0.7-9.7-1.1
											c0.9-1.8,2.2-3.3,3.4-4.9c0.1-0.2,0.3-0.3,0.4-0.5c0.5-0.6-0.5-1.5-1.1-0.9c0,0-0.1,0-0.1,0.1c-1.6,1.9-3.2,3.9-4.3,6.2
											c-0.2,0.4-0.1,0.8,0.3,1c3.3,2.5,8,2.1,11.9,1.6c0.4,0,0.8-0.3,0.8-0.8c-0.3-2.2-1.1-4.4-2.1-6.3
											c-0.1-0.1-0.1-0.2-0.2-0.4C356,186.3,354.9,187,355.3,187.8z"/>
									</g>
									<path class="st4" d="M357.1,193.2c-0.3-1.7-1-3.4-1.7-5c-0.7-0.2-1.4-0.2-2.1-0.3s-1.3-0.1-2-0.4c-0.2-0.1-0.4-0.2-0.5-0.3
										c-1.2,1.6-2.5,3.1-3.4,4.9C350.2,193.8,353.9,193.5,357.1,193.2z"/>
								</g>
								<g>
									<g>
										<path class="st2" d="M345,137.6c1.2,2.3,2.6,4.5,3.6,7c0.4-0.2,0.8-0.5,1.1-0.7c-0.2-3-0.2-5.9-0.1-8.9
											C347.9,135.5,346.4,136.5,345,137.6z"/>
										<path class="st2" d="M344,138.5c-0.5,0.5-1,0.9-1.5,1.4c-0.9,1-1.8,2-2.7,3.1c2,1.1,3.7,3,4.8,5c0.9-0.9,1.8-1.8,2.9-2.6
											C346.6,142.9,345.2,140.7,344,138.5z"/>
										<path class="st2" d="M339,144c-0.6,0.9-1.3,1.8-1.8,2.7c-0.6,0.9-1.1,1.9-1.6,2.8c1.7,1.2,3.5,2.2,5.2,3.5
											c0.1-0.2,0.2-0.3,0.3-0.5c0.8-1.3,1.7-2.5,2.6-3.6l-0.1-0.1C342.5,146.9,341,145,339,144z"/>
										<path class="st2" d="M335,150.8c-1,2.1-1.9,4.2-2.5,6.5c0.8,0.1,1.7,0.3,2.5,0.6c1,0.4,2,0.9,2.9,1.5
											c0.7-1.8,1.4-3.5,2.3-5.1c0,0,0,0-0.1,0C338.5,152.9,336.6,152,335,150.8z"/>
										<path class="st2" d="M332.1,158.6c-0.4,1.4-0.6,2.8-0.8,4.2c1.7,0.1,3.4,0.7,5.1,1.1c0.3-1.1,0.7-2.2,1.1-3.3
											c0,0-0.1,0-0.1-0.1C335.8,159.6,333.9,158.5,332.1,158.6z"/>
									</g>
									<g>
										<path class="st3" d="M331,162.8c0.1,0,0.1,0,0.2,0c0.2-1.4,0.5-2.8,0.8-4.2c-0.1,0-0.3,0-0.4,0c-0.8,0.1-0.8-1.2,0-1.3
											c0.3,0,0.5,0,0.8,0c0.7-2.2,1.5-4.4,2.5-6.5c-0.1-0.1-0.2-0.1-0.3-0.2c-0.7-0.5,0-1.6,0.7-1.1c0.1,0.1,0.2,0.1,0.2,0.2
											c0.5-1,1-1.9,1.6-2.8c0.6-0.9,1.2-1.8,1.8-2.7h-0.1c-0.8-0.4-0.1-1.5,0.7-1.1c0.1,0,0.1,0.1,0.2,0.1
											c0.8-1.1,1.7-2.1,2.7-3.1c0.5-0.5,1-1,1.5-1.4c-0.1-0.2-0.2-0.4-0.3-0.6c-0.4-0.8,0.7-1.4,1.1-0.7
											c0.1,0.1,0.1,0.3,0.2,0.4c1.4-1.1,2.9-2,4.6-2.7c0.1,0,0.2-0.1,0.3-0.1c0.7-0.3,0.5-1.4-0.2-1.3c0,0-0.1,0-0.2,0
											c-2.9,1-5.3,2.8-7.4,4.9c-2,2-3.8,4.3-5.4,6.7c-3.2,4.8-5.5,10.4-6.5,16.1c-0.1,0.5-0.2,1-0.2,1.5
											c0.2-0.1,0.4-0.1,0.6-0.2C330.7,162.6,330.9,162.6,331,162.8z"/>
										<path class="st3" d="M349.9,143.7c-0.1,0-0.1,0.1-0.2,0.1c-0.4,0.2-0.8,0.5-1.1,0.7c0.1,0.2,0.2,0.4,0.2,0.6
											c0.3,0.8-1,1.1-1.3,0.4c0-0.1-0.1-0.1-0.1-0.2c-1,0.8-2,1.7-2.9,2.6c0,0.1,0.1,0.1,0.1,0.2c0.4,0.7-0.5,1.3-1,0.8
											c-1,1.1-1.9,2.4-2.6,3.6c-0.1,0.2-0.2,0.3-0.3,0.5c0.1,0.1,0.2,0.1,0.2,0.2c0.6,0.5-0.2,1.4-0.9,1
											c-0.9,1.7-1.6,3.4-2.3,5.1c0,0,0.1,0,0.1,0.1c0.7,0.4,0.1,1.5-0.5,1.2c-0.4,1.1-0.7,2.2-1.1,3.3c0.1,0,0.2,0,0.2,0.1
											c0.2,0,0.3,0.1,0.3,0.2c0.2,0,0.4,0.1,0.5,0.3c0,0,0,0.1,0.1,0.1c1.1-3.9,2.5-7.7,4.6-11.2c1.9-3.2,4.5-6,7.7-8
											c0.3-0.2,0.5-0.3,0.8-0.5C351.3,144.4,350.6,143.3,349.9,143.7z"/>
										<path class="st3" d="M331,162.8c0.4,0.3,0.4,1-0.2,1.2c-0.1,0-0.3,0.1-0.4,0.1h0.1c1.9,0,3.8,0.7,5.6,1.2h0.1v-0.1
											c-0.3-0.5,0.2-1,0.6-1c-0.1-0.1-0.2-0.2-0.3-0.2c-0.1,0-0.2,0-0.2-0.1c-1.7-0.4-3.3-1-5.1-1.1
											C331.2,162.8,331.1,162.8,331,162.8z"/>
										<path class="st3" d="M336.9,164.2c-0.5,0-0.9,0.4-0.6,1v0.1c0.8,1.3,1.2,2.7,1.2,4.2c-0.1,1.2-0.8,2.9-2,3.5
											c-0.4,0.2-1.2,0.1-1.3-0.4c-0.1-0.3,0.4-1,0.5-1.2c0.4-1,0.2-2.3-0.5-3.1c-0.9-1-2.3-0.8-3.1,0.1c-0.4,0.5-0.5,1-0.4,1.6
											c0.1,0.5,0.4,1,0.2,1.5c-0.1,0.2-0.2,0.3-0.3,0.4c-0.1,0.1-0.1,0-0.2,0c-0.2,0-0.6-0.3-0.8-0.5c-0.6-0.6-1.1-1.4-1.5-2.3
											c-0.7-1.9,0.6-4.4,2.4-5.1c0.1,0,0.2-0.1,0.4-0.1c0.6-0.1,0.6-0.9,0.2-1.2c-0.1-0.1-0.3-0.2-0.5-0.1
											c-0.2,0-0.4,0.1-0.6,0.2c-2.1,0.8-3.4,3.2-3.4,5.4c0,0.9,0.4,1.8,0.9,2.6s1.1,1.6,1.9,2.1c0.7,0.4,1.6,0.4,2.2-0.3
											c0.3-0.4,0.5-0.9,0.6-1.5s-0.3-1.1-0.3-1.6c0-0.4,0.7-0.8,1-0.6c0.4,0.2,0.6,0.7,0.6,1.2c0.1,1-0.7,1.8-0.6,2.8
											c0.2,1.1,1.7,1.5,2.6,1.4c1.1-0.2,2-1.3,2.5-2.2c1.3-2.4,0.8-5.2-0.5-7.4c0,0,0-0.1-0.1-0.1
											C337.3,164.3,337.1,164.2,336.9,164.2z"/>
										<path class="st3" d="M332.4,157.2c-0.3,0-0.5,0-0.8,0c-0.8,0.1-0.8,1.4,0,1.3c0.1,0,0.3,0,0.4,0c1.8,0,3.7,1,5.2,2
											c0,0,0.1,0,0.1,0.1c0.6,0.3,1.2-0.7,0.5-1.2c0,0-0.1,0-0.1-0.1c-0.9-0.6-1.9-1.1-2.9-1.5
											C334.1,157.5,333.3,157.3,332.4,157.2z"/>
										<path class="st3" d="M335.4,149.4c-0.7-0.5-1.3,0.6-0.7,1.1c0.1,0.1,0.2,0.1,0.3,0.2c1.7,1.2,3.5,2.1,5.1,3.4
											c0,0,0,0,0.1,0c0.7,0.4,1.5-0.4,0.9-1c-0.1-0.1-0.2-0.1-0.2-0.2c-1.6-1.3-3.5-2.3-5.2-3.5
											C335.5,149.5,335.4,149.5,335.4,149.4z"/>
										<path class="st3" d="M339.6,142.9c-0.8-0.4-1.4,0.8-0.7,1.1h0.1c1.9,1,3.5,2.9,4.5,4.7c0,0.1,0.1,0.1,0.1,0.1
											c0.5,0.5,1.4-0.1,1-0.8c0-0.1-0.1-0.1-0.1-0.2c-1.1-2-2.7-3.9-4.8-5C339.7,142.9,339.7,142.9,339.6,142.9z"/>
										<path class="st3" d="M345,137.6c-0.1-0.1-0.1-0.3-0.2-0.4c-0.4-0.8-1.5-0.1-1.1,0.7c0.1,0.2,0.2,0.4,0.3,0.6
											c1.2,2.3,2.6,4.5,3.5,6.9c0,0.1,0.1,0.1,0.1,0.2c0.3,0.8,1.5,0.4,1.3-0.4c-0.1-0.2-0.2-0.4-0.2-0.6
											C347.6,142.1,346.2,139.9,345,137.6z"/>
									</g>
									<path class="st4" d="M330.6,164C330.5,164,330.5,164,330.6,164c-1.9,0.7-3.3,3.2-2.5,5.1c0.3,0.8,0.8,1.6,1.5,2.3
										c0.2,0.2,0.6,0.5,0.8,0.5c0.1,0,0.1,0,0.2,0c0.1-0.1,0.2-0.3,0.3-0.4c0.2-0.5-0.1-1-0.2-1.5c-0.1-0.6,0-1.1,0.4-1.6
										c0.8-0.9,2.3-1.1,3.1-0.1c0.7,0.8,0.9,2.1,0.5,3.1c-0.1,0.3-0.5,0.9-0.5,1.2c0.1,0.5,0.9,0.5,1.3,0.4
										c1.2-0.5,1.9-2.2,2-3.5c0.1-1.5-0.4-2.9-1.2-4.2h-0.1C334.4,164.8,332.5,164.1,330.6,164z"/>
								</g>
								<g>
									<g>
										<path class="st2" d="M405,139.5c-1.2-2.3-2.6-4.5-3.6-7c-0.4,0.2-0.8,0.5-1.1,0.7c0.2,3,0.2,5.9,0.1,8.9
											C402.1,141.6,403.6,140.6,405,139.5z"/>
										<path class="st2" d="M406,138.6c0.5-0.5,1-0.9,1.5-1.4c0.9-1,1.8-2,2.7-3.1c-2-1.1-3.7-3-4.8-5c-0.9,0.9-1.8,1.8-2.9,2.6
											C403.5,134.2,404.8,136.4,406,138.6z"/>
										<path class="st2" d="M411,133.1c0.6-0.9,1.3-1.8,1.8-2.7c0.6-0.9,1.1-1.9,1.6-2.8c-1.7-1.2-3.5-2.2-5.2-3.5
											c-0.1,0.2-0.2,0.3-0.3,0.5c-0.8,1.3-1.7,2.5-2.6,3.6l0.1,0.1C407.5,130.2,409,132.1,411,133.1z"/>
										<path class="st2" d="M415,126.3c1-2.1,1.9-4.2,2.5-6.5c-0.8-0.1-1.7-0.3-2.5-0.6c-1-0.4-2-0.9-2.9-1.5
											c-0.7,1.8-1.4,3.5-2.3,5.1c0,0,0,0,0.1,0C411.5,124.2,413.4,125.2,415,126.3z"/>
										<path class="st2" d="M417.9,118.6c0.4-1.4,0.6-2.8,0.8-4.2c-1.7-0.1-3.4-0.7-5.1-1.1c-0.3,1.1-0.7,2.2-1.1,3.3
											c0,0,0.1,0,0.1,0.1C414.2,117.5,416.1,118.6,417.9,118.6z"/>
									</g>
									<g>
										<path class="st3" d="M419,114.4c-0.1,0-0.1,0-0.2,0c-0.2,1.4-0.5,2.8-0.8,4.2c0.1,0,0.3,0,0.4,0c0.8-0.1,0.8,1.2,0,1.3
											c-0.3,0-0.5,0-0.8,0c-0.7,2.2-1.5,4.4-2.5,6.5c0.1,0.1,0.2,0.1,0.3,0.2c0.7,0.5,0,1.6-0.7,1.1c-0.1-0.1-0.2-0.1-0.2-0.2
											c-0.5,1-1,1.9-1.6,2.8c-0.6,0.9-1.2,1.8-1.8,2.7h0.1c0.8,0.4,0.1,1.5-0.7,1.1c-0.1,0-0.1-0.1-0.2-0.1
											c-0.8,1.1-1.7,2.1-2.7,3.1c-0.5,0.5-1,1-1.5,1.4c0.1,0.2,0.2,0.4,0.3,0.6c0.4,0.8-0.7,1.4-1.1,0.7
											c-0.1-0.1-0.1-0.3-0.2-0.4c-1.4,1.1-2.9,2-4.6,2.7c-0.1,0-0.2,0.1-0.3,0.1c-0.7,0.3-0.5,1.4,0.2,1.3c0,0,0.1,0,0.2,0
											c2.9-1,5.3-2.8,7.4-4.9c2-2,3.8-4.3,5.4-6.7c3.2-4.8,5.5-10.4,6.5-16.1c0.1-0.5,0.2-1,0.2-1.5c-0.2,0.1-0.4,0.1-0.6,0.2
											C419.3,114.5,419.1,114.5,419,114.4z"/>
										<path class="st3" d="M400.1,133.4c0.1,0,0.1-0.1,0.2-0.1c0.4-0.2,0.8-0.5,1.1-0.7c-0.1-0.2-0.2-0.4-0.2-0.6
											c-0.3-0.8,1-1.1,1.3-0.4c0,0.1,0.1,0.1,0.1,0.2c1-0.8,2-1.7,2.9-2.6c0-0.1-0.1-0.1-0.1-0.2c-0.4-0.7,0.5-1.3,1-0.8
											c1-1.1,1.9-2.4,2.6-3.6c0.1-0.2,0.2-0.3,0.3-0.5c-0.1-0.1-0.2-0.1-0.2-0.2c-0.6-0.5,0.2-1.4,0.9-1
											c0.9-1.7,1.6-3.4,2.3-5.1c0,0-0.1,0-0.1-0.1c-0.7-0.4-0.1-1.5,0.5-1.2c0.4-1.1,0.7-2.2,1.1-3.3c-0.1,0-0.2,0-0.2-0.1
											c-0.2,0-0.3-0.1-0.3-0.2c-0.2,0-0.4-0.1-0.5-0.3c0,0,0-0.1-0.1-0.1c-1.1,3.9-2.5,7.7-4.6,11.2c-1.9,3.2-4.5,6-7.7,8
											c-0.3,0.2-0.5,0.3-0.8,0.5C398.7,132.7,399.4,133.8,400.1,133.4z"/>
										<path class="st3" d="M419,114.4c-0.4-0.3-0.4-1,0.2-1.2c0.1,0,0.3-0.1,0.4-0.1h-0.1c-1.9,0-3.8-0.7-5.6-1.2h-0.1v0.1
											c0.3,0.5-0.2,1-0.6,1c0.1,0.1,0.2,0.2,0.3,0.2c0.1,0,0.2,0,0.2,0.1c1.7,0.4,3.3,1,5.1,1.1
											C418.8,114.3,418.9,114.3,419,114.4z"/>
										<path class="st3" d="M413.1,113c0.5,0,0.9-0.4,0.6-1v-0.1c-0.8-1.3-1.2-2.7-1.2-4.2c0.1-1.2,0.8-2.9,2-3.5
											c0.4-0.2,1.2-0.1,1.3,0.4c0.1,0.3-0.4,1-0.5,1.2c-0.4,1-0.2,2.3,0.5,3.1c0.9,1,2.3,0.8,3.1-0.1c0.4-0.5,0.5-1,0.4-1.6
											c-0.1-0.5-0.4-1-0.2-1.5c0.1-0.2,0.2-0.3,0.3-0.4c0.1-0.1,0.1,0,0.2,0c0.2,0,0.6,0.3,0.8,0.5c0.6,0.6,1.1,1.4,1.5,2.3
											c0.7,1.9-0.6,4.4-2.4,5.1c-0.1,0-0.2,0.1-0.4,0.1c-0.6,0.1-0.6,0.9-0.2,1.2c0.1,0.1,0.3,0.2,0.5,0.1
											c0.2,0,0.4-0.1,0.6-0.2c2.1-0.8,3.4-3.2,3.4-5.4c0-0.9-0.4-1.8-0.9-2.6c-0.5-0.8-1.1-1.6-1.9-2.1
											c-0.7-0.4-1.6-0.4-2.2,0.3c-0.3,0.4-0.5,0.9-0.6,1.5s0.3,1.1,0.3,1.6c0,0.4-0.7,0.8-1,0.6c-0.4-0.2-0.6-0.7-0.6-1.2
											c-0.1-1,0.7-1.8,0.6-2.8c-0.2-1.1-1.7-1.5-2.6-1.4c-1.1,0.2-2,1.3-2.5,2.2c-1.3,2.4-0.8,5.2,0.5,7.4c0,0,0,0.1,0.1,0.1
											C412.7,112.9,412.9,112.9,413.1,113z"/>
										<path class="st3" d="M417.6,119.9c0.3,0,0.5,0,0.8,0c0.8-0.1,0.8-1.4,0-1.3c-0.1,0-0.3,0-0.4,0c-1.8,0-3.7-1-5.2-2
											c0,0-0.1,0-0.1-0.1c-0.6-0.3-1.2,0.7-0.5,1.2c0,0,0.1,0,0.1,0.1c0.9,0.6,1.9,1.1,2.9,1.5
											C415.9,119.6,416.7,119.8,417.6,119.9z"/>
										<path class="st3" d="M414.6,127.7c0.7,0.5,1.3-0.6,0.7-1.1c-0.1-0.1-0.2-0.1-0.3-0.2c-1.7-1.2-3.5-2.1-5.1-3.4
											c0,0,0,0-0.1,0c-0.7-0.4-1.5,0.4-0.9,1c0.1,0.1,0.2,0.1,0.2,0.2c1.6,1.3,3.5,2.3,5.2,3.5
											C414.5,127.6,414.6,127.6,414.6,127.7z"/>
										<path class="st3" d="M410.4,134.2c0.8,0.4,1.4-0.8,0.7-1.1H411c-1.9-1-3.5-2.9-4.5-4.7c0-0.1-0.1-0.1-0.1-0.1
											c-0.5-0.5-1.4,0.1-1,0.8c0,0.1,0.1,0.1,0.1,0.2c1.1,2,2.7,3.9,4.8,5C410.3,134.2,410.3,134.2,410.4,134.2z"/>
										<path class="st3" d="M405,139.5c0.1,0.1,0.1,0.3,0.2,0.4c0.4,0.8,1.5,0.1,1.1-0.7c-0.1-0.2-0.2-0.4-0.3-0.6
											c-1.2-2.3-2.6-4.5-3.5-6.9c0-0.1-0.1-0.1-0.1-0.2c-0.3-0.8-1.5-0.4-1.3,0.4c0.1,0.2,0.2,0.4,0.2,0.6
											C402.4,135,403.8,137.2,405,139.5z"/>
									</g>
									<path class="st4" d="M419.4,113.1C419.5,113.1,419.5,113.1,419.4,113.1c1.9-0.7,3.3-3.2,2.5-5.1c-0.3-0.8-0.8-1.6-1.5-2.3
										c-0.2-0.2-0.6-0.5-0.8-0.5c-0.1,0-0.1,0-0.2,0c-0.1,0.1-0.2,0.3-0.3,0.4c-0.2,0.5,0.1,1,0.2,1.5c0.1,0.6,0,1.1-0.4,1.6
										c-0.8,0.9-2.3,1.1-3.1,0.1c-0.7-0.8-0.9-2.1-0.5-3.1c0.1-0.3,0.5-0.9,0.5-1.2c-0.1-0.5-0.9-0.5-1.3-0.4
										c-1.2,0.5-1.9,2.2-2,3.5c-0.1,1.5,0.4,2.9,1.2,4.2h0.1C415.6,112.3,417.5,113,419.4,113.1z"/>
								</g>
								<g>
									<g>
										<path class="st2" d="M386.8,161.4c0.3,0.8,0.6,1.6,0.9,2.4c0.4,1.2,0.8,2.3,1.2,3.5c1.1-0.2,2.1-0.6,3.1-1
											c0.6-0.2,1.3-0.5,1.9-0.8c0.3-0.1,0.7-0.3,1-0.4c-0.5-1.7-1.1-3.4-1.7-5.1c-0.1-0.4-0.3-0.7-0.4-1.1c-0.9,0.4-2,0.7-2.9,1
											C388.8,160.4,387.7,160.8,386.8,161.4z"/>
										<path class="st2" d="M385.1,157.3c0.5,0.9,0.8,1.8,1.2,2.8c0.9-0.5,1.9-0.9,2.9-1.3c1-0.4,2.1-0.8,3.2-1
											c-0.3-0.7-0.5-1.4-0.8-2.1c-0.3-0.8-0.7-1.6-1.2-2.4c-1.1,1.2-2.3,2.2-3.6,3.1C386.2,156.7,385.7,157.1,385.1,157.3z"/>
										<path class="st2" d="M392.5,167.6c-1,0.4-2.1,0.8-3.2,1c0.3,1,0.7,2,1,3c0.3,0.9,0.6,1.9,0.9,2.8c1.8-0.7,3.7-1,5.6-1.7
											c-0.3-1.8-0.7-3.7-1.2-5.5c-0.1-0.3-0.2-0.6-0.3-0.9c-0.3,0.1-0.6,0.2-0.9,0.4C393.7,167.1,393.1,167.3,392.5,167.6z"/>
										<path class="st2" d="M392.5,179.3c0.2,0.6,0.3,1.2,0.5,1.8c0.1,0,0.1,0,0.2,0.1c0.2,0.1,0.4,0.1,0.6,0.1
											c0.6,0,1.2-0.1,1.7-0.2c0.6-0.1,1.3-0.3,1.9-0.4c0.2,0,0.4-0.1,0.6-0.2c-0.2-1.1-0.3-2.1-0.5-3.2c-0.2-1-0.3-2.1-0.5-3.1
											c-1.7,0.7-3.6,1.2-5.4,1.7C391.9,176.9,392.2,178.1,392.5,179.3z"/>
										<path class="st2" d="M395.6,182.3c-0.6,0.1-1.3,0.2-1.9,0.2c-0.1,0-0.2,0-0.2,0c0.4,1.3,0.8,2.7,1.3,4
											c0.8-0.2,1.6-0.2,2.4-0.3c0.3,0,0.6-0.1,0.9-0.2c0.1,0,0.3-0.2,0.4-0.3c0.2-0.4,0.1-0.8,0.1-1.2c0-0.8-0.2-1.6-0.3-2.4
											c0-0.2,0-0.3-0.1-0.5c-0.2,0-0.4,0.1-0.6,0.1C396.9,182,396.2,182.1,395.6,182.3z"/>
									</g>
									<g>
										<path class="st3" d="M394.9,187.7c0,0.1-0.1,0.2-0.1,0.3c0.7-0.2,1.4-0.2,2.1-0.3s1.3-0.1,2-0.4c0.2-0.1,0.4-0.2,0.5-0.3
											c-0.1-0.2-0.3-0.3-0.4-0.5c-0.5-0.6,0.5-1.5,1.1-1c0.1-0.8,0-1.8-0.1-2.5c-1-6.5-1.7-13.2-4-19.5
											c-0.8-2.1-1.4-4.3-2.1-6.3c-0.6-1.6-1.2-3.6-2.4-4.9c-0.2-0.2-0.3-0.4-0.5-0.5c-0.6-0.6-1.5,0.3-0.9,0.9
											c0.2,0.2,0.4,0.4,0.5,0.7c0.5,0.7,0.8,1.6,1.2,2.4c0.3,0.7,0.6,1.4,0.8,2.1c0.2-0.1,0.5-0.1,0.7-0.1c0.6-0.1,1,0.7,0.4,1
											c-0.2,0.1-0.5,0.2-0.7,0.3c0.1,0.4,0.3,0.7,0.4,1.1c0.6,1.7,1.1,3.4,1.7,5.1c0.2-0.1,0.5-0.2,0.8-0.2c0.6-0.1,1,0.7,0.4,1
											c-0.3,0.2-0.5,0.3-0.8,0.4c0.1,0.3,0.2,0.6,0.3,0.9c0.5,1.8,0.9,3.6,1.2,5.5c0.1,0,0.2-0.1,0.3-0.1
											c0.7-0.3,1.1,0.9,0.5,1.1c-0.2,0.1-0.4,0.1-0.6,0.2c0.2,1,0.4,2,0.5,3.1c0.2,1.1,0.3,2.1,0.5,3.2c0.3-0.1,0.6-0.2,0.9-0.2
											c0.6,0,0.9,0.9,0.3,1.1c-0.3,0.2-0.7,0.3-1.1,0.3c0,0.2,0,0.3,0.1,0.5c0.1,0.8,0.3,1.6,0.3,2.4c0,0.4,0.1,0.9-0.1,1.2
											c0,0.1-0.2,0.3-0.4,0.3c-0.3,0.1-0.6,0.1-0.9,0.2c-0.8,0.1-1.6,0.1-2.4,0.3c-0.5-1.3-1-2.6-1.3-4c-0.2,0-0.3,0-0.5-0.1
											c-0.1,0-0.3-0.1-0.4-0.1c-0.1-0.1-0.2-0.1-0.2-0.2c0-0.1-0.1-0.2-0.1-0.2c-0.2-0.3,0.1-0.8,0.5-0.8c0.1,0,0.1,0,0.2,0
											s0.1,0,0.1,0c-0.2-0.6-0.3-1.2-0.5-1.8c-0.3-1.2-0.6-2.3-1-3.5c-0.2,0.1-0.4,0.1-0.5,0.2c-0.8,0.3-1.1-1-0.4-1.3
											c0.2-0.1,0.3-0.1,0.5-0.2c-0.3-0.9-0.6-1.9-0.9-2.8c-0.3-1-0.6-2-1-3c-0.2,0-0.3,0.1-0.5,0.1c-0.9,0.1-1.2-1.2-0.4-1.3
											c0.1,0,0.3-0.1,0.4-0.1c-0.4-1.2-0.8-2.4-1.2-3.5c-0.3-0.8-0.6-1.6-0.9-2.4c-0.1,0.1-0.3,0.2-0.4,0.2
											c-0.7,0.5-1.4-0.7-0.7-1.2c0.2-0.1,0.4-0.3,0.6-0.4c-0.3-0.9-0.7-1.9-1.2-2.8c0-0.1-0.1-0.2-0.1-0.2
											c-0.5-0.8-1.8-0.1-1.3,0.7v0.1c0.6,1,0.9,2.1,1.3,3.1c0.4,1.3,0.9,2.5,1.4,3.8c0.9,2.6,1.8,5.2,2.6,7.8
											c0.8,2.5,1.6,5,2.2,7.6c0.6,2.4,1.3,4.8,2.2,7.1c0.1-0.1,0.1-0.2,0.2-0.4C394.1,186.2,395.3,186.9,394.9,187.7z"/>
										<path class="st3" d="M395.5,180.9c-0.6,0.1-1.1,0.2-1.7,0.2c-0.2,0-0.4,0-0.6-0.1c-0.1,0-0.1,0-0.2-0.1h-0.1
											c-0.1,0-0.1,0-0.2,0c-0.4,0-0.6,0.5-0.5,0.8c0,0,0,0.1,0.1,0.2c0.1,0.1,0.1,0.2,0.2,0.2c0.1,0.1,0.3,0.1,0.4,0.1
											c0.2,0,0.3,0,0.5,0.1c0.1,0,0.2,0,0.2,0c0.6,0,1.3-0.1,1.9-0.2c0.7-0.1,1.3-0.3,2-0.5c0.2-0.1,0.4-0.1,0.6-0.1
											c0.4-0.1,0.7-0.2,1.1-0.3c0.6-0.3,0.3-1.2-0.3-1.1c-0.3,0-0.6,0.1-0.9,0.2c-0.2,0.1-0.4,0.1-0.6,0.2
											C396.7,180.6,396.1,180.8,395.5,180.9z"/>
										<path class="st3" d="M390.7,174.7c-0.8,0.3-0.5,1.5,0.4,1.3c0.2-0.1,0.4-0.1,0.5-0.2c1.8-0.6,3.6-1,5.4-1.7
											c0.2-0.1,0.4-0.1,0.6-0.2c0.6-0.3,0.2-1.4-0.5-1.1c-0.1,0-0.2,0.1-0.3,0.1c-1.8,0.7-3.8,1-5.6,1.7
											C391,174.6,390.8,174.6,390.7,174.7z"/>
										<path class="st3" d="M391.9,166.4c-1,0.4-2,0.8-3.1,1c-0.1,0-0.3,0.1-0.4,0.1c-0.9,0.1-0.5,1.4,0.4,1.3
											c0.2,0,0.3-0.1,0.5-0.1c1.1-0.2,2.2-0.6,3.2-1c0.6-0.3,1.2-0.5,1.9-0.8c0.3-0.1,0.6-0.2,0.9-0.4c0.3-0.1,0.6-0.2,0.8-0.4
											c0.6-0.4,0.2-1.1-0.4-1c-0.3,0-0.5,0.1-0.8,0.2c-0.4,0.1-0.7,0.3-1,0.4C393.2,165.9,392.6,166.1,391.9,166.4z"/>
										<path class="st3" d="M386.3,160.1c-0.2,0.1-0.4,0.2-0.6,0.4c-0.7,0.5,0,1.7,0.7,1.2c0.1-0.1,0.3-0.2,0.4-0.2
											c1-0.6,2-1.1,3.1-1.4c1-0.3,2-0.6,2.9-1c0.2-0.1,0.5-0.2,0.7-0.3c0.6-0.3,0.2-1.1-0.4-1c-0.2,0-0.5,0.1-0.7,0.1
											c-1.1,0.2-2.2,0.6-3.2,1C388.2,159.2,387.2,159.6,386.3,160.1z"/>
										<path class="st3" d="M404.4,191.8c-1.1-2.3-2.8-4.2-4.3-6.1c0,0-0.1,0-0.1-0.1c-0.5-0.5-1.6,0.3-1.1,1
											c0.1,0.2,0.3,0.3,0.4,0.5c1.2,1.6,2.5,3.1,3.5,4.9c-2.8,1.8-6.4,1.5-9.7,1.1c0.3-1.7,1-3.4,1.7-5c0-0.1,0.1-0.2,0.1-0.3
											c0.4-0.8-0.8-1.5-1.2-0.7c-0.1,0.1-0.1,0.2-0.2,0.4c-1,2-1.8,4.1-2,6.4c-0.1,0.4,0.4,0.7,0.8,0.8
											c3.9,0.5,8.6,0.9,11.9-1.7C404.5,192.5,404.6,192.2,404.4,191.8z"/>
									</g>
									<path class="st4" d="M396.8,187.7c-0.7,0.1-1.4,0.1-2.1,0.3c-0.7,1.6-1.4,3.3-1.7,5c3.2,0.4,6.9,0.6,9.7-1.1
										c-0.9-1.8-2.2-3.3-3.5-4.9c-0.1,0.1-0.3,0.2-0.5,0.3C398.2,187.6,397.5,187.7,396.8,187.7z"/>
								</g>
							</g>
						</g>
					</g>
					<g>
						<g>
							<rect x="373.3" y="84.1" class="st1" width="3.4" height="7.4"/>
							<g>
								<g>
									<circle class="st1" cx="375" cy="85.2" r="2.2"/>
									<path class="st1" d="M375,81.6c1.6,0,3,1.1,3.5,2.6l1.5-1.5c-0.9-1.8-2.8-3-4.9-3c-2.2,0-4,1.3-4.9,3l1.5,1.5
										C372,82.8,373.4,81.6,375,81.6z"/>
									<path class="st1" d="M375,78.5c2.5,0,4.6,1.4,5.8,3.4l1.4-1.4c-1.5-2.3-4.2-3.9-7.2-3.9s-5.7,1.5-7.2,3.9l1.4,1.4
										C370.3,79.9,372.5,78.5,375,78.5z"/>
									<path class="st1" d="M375,75.3c3.4,0,6.3,1.7,8.1,4.3l1.4-1.4c-2.2-2.9-5.6-4.8-9.5-4.8s-7.4,1.9-9.5,4.8l1.4,1.4
										C368.6,77,371.6,75.3,375,75.3z"/>
								</g>
							</g>
							<rect x="370.6" y="120.4" class="st1" width="8.8" height="12.3"/>
						</g>
						<g>
							<g>
								<path class="st5" d="M390.5,170.1h-31c-6.1,0-11.1-5-11.1-11.1v-19.2c0-6.1,5-11.1,11.1-11.1h31c6.1,0,11.1,5,11.1,11.1V159
									C401.6,165.1,396.6,170.1,390.5,170.1z"/>
							</g>
							<g>
								<path class="st6" d="M387.3,148.1c1.2-2.1,2.5-4.5,2.5-7c0-0.9-0.1-1.8-0.9-2.3c-0.8-0.6-1.8-0.4-2.4,0.3
									c-1.8,1.7-2.3,4.2-3.7,6.1c-0.4,0.6-1.3,0.1-1.3-0.5l0,0c-0.6-2.1-1.5-4.9-3.7-5.8c-0.9-0.4-2,0.1-2.6,0.9
									c-0.6,0.7-0.6,1.7-0.4,2.6c0.3,2.4,1.6,4.8,2.8,6.9c1.4,2.2,2.9,4.4,4.7,6.2c0.9-1.3,2.7-3.7,3.4-4.8
									C386.3,149.9,386.8,149,387.3,148.1z"/>
								<g>
									<line class="st7" x1="384" y1="131.2" x2="367.2" y2="148.1"/>
									<line class="st7" x1="386.9" y1="133.9" x2="370.1" y2="150.8"/>
									<line class="st7" x1="389.9" y1="136.6" x2="373.1" y2="153.4"/>
									<line class="st7" x1="392.8" y1="139.3" x2="376" y2="156.1"/>
									<line class="st7" x1="395.8" y1="141.9" x2="379" y2="158.8"/>
								</g>
							</g>
						</g>
						<path class="st5" d="M387.9,124.8h-25.8c-5.6,0-10.2-4.6-10.2-10.2V99.7c0-5.6,4.6-10.2,10.2-10.2h25.8
							c5.6,0,10.2,4.6,10.2,10.2v14.9C398,120.2,393.5,124.8,387.9,124.8z"/>
						<g>
							<circle class="st4" cx="359.1" cy="107.2" r="2.6"/>
							<circle class="st4" cx="390.8" cy="107.2" r="2.6"/>
						</g>
					</g>
				</g>
			</g>
		</g>
		<g>
			<path class="st8" d="M317.5,209.4v1.7h-3.4v13.2h-1.8v-13.2h-3.4v-1.7H317.5z"/>
			<path class="st8" d="M331.3,209.4h1.8v14.9h-1.8v-7.7h-6.1v7.7h-1.8v-14.9h1.8v5.6h6.1V209.4z"/>
			<path class="st8" d="M347.6,224.3H340v-14.9h7.6v1.7h-5.7v3.9h5.1v1.7h-5.1v6h5.7V224.3z"/>
			<path class="st8" d="M372.7,216.6h-3.2l3.2,7.7h-1.9l-3.2-7.7h-2.3v7.7h-1.8v-14.9h9.1L372.7,216.6L372.7,216.6z M365.3,211v3.9
				h5.6V211H365.3z"/>
			<path class="st8" d="M389.2,224.3h-9.5v-14.9h9.5V224.3z M381.4,222.6h5.9V211h-5.9V222.6z"/>
			<path class="st8" d="M404.1,214.9h1.6v9.3h-9.6v-14.9h8V214.9z M402.2,211.1h-4.3v3.9h4.3V211.1z M397.9,222.6h5.9v-6h-5.9V222.6
				z"/>
			<path class="st8" d="M422.2,224.3h-9.5v-14.9h9.5V224.3z M414.4,222.6h5.9V211h-5.9V222.6z"/>
			<path class="st8" d="M436.7,209.4v1.7h-3.4v13.2h-1.8v-13.2h-3.4v-1.7H436.7z"/>
		</g>
	</g>
</g>
</svg>
