<?xml version="1.0" encoding="utf-8"?>
<!-- Generator: Adobe Illustrator 21.1.0, SVG Export Plug-In . SVG Version: 6.00 Build 0)  -->
<svg version="1.1" id="圖層_1" xmlns="http://www.w3.org/2000/svg" xmlns:xlink="http://www.w3.org/1999/xlink" x="0px" y="0px"
	 viewBox="0 0 240 180" style="enable-background:new 0 0 240 180;" xml:space="preserve">
<style type="text/css">
	.st0{fill:#85E4ED;}
	.st1{fill:#518287;}
	.st2{fill:#66A9B0;}
	.st3{fill:#518287;stroke:#518287;stroke-width:0.297;stroke-miterlimit:10;}
	.st4{fill:#FFFFFF;}
	.st5{fill:#66A9B0;stroke:#518287;stroke-width:1.1603;stroke-miterlimit:10;}
	.st6{fill:#FFFFFF;stroke:#FFFFFF;stroke-width:2.3758;stroke-miterlimit:10;}
	.st7{fill:none;stroke:#66A9B0;stroke-width:0.2321;stroke-miterlimit:10;}
	.st8{fill:#518287;stroke:#518287;stroke-width:0.5;stroke-miterlimit:10;}
</style>
<g>
	<rect class="st0" width="240" height="180"/>
	<g>
		<rect class="st1" width="240" height="140"/>
		<g>
			<g>
				<g>
					<circle class="st0" cx="120" cy="113.3" r="52"/>
					<g>
						<g>
							<g>
								<g>
									<g>
										<g>
											<path class="st2" d="M109,126.5c0.7,0.1,1.4,0.4,2,0.6c0.6,0.2,1.3,0.5,1.8,0.8c0.2-0.7,0.5-1.3,0.8-1.9c0,0,0,0,0,0
												c-0.3-0.1-0.5-0.3-0.8-0.4c-0.9-0.6-1.8-1.3-2.6-2c-0.4,0.5-0.6,1.1-0.8,1.7C109.3,125.6,109.1,126,109,126.5z"/>
											<path class="st2" d="M108.9,132.7c-0.4-0.2-0.8-0.3-1.2-0.5c-0.2-0.1-0.4-0.1-0.6-0.2c-0.1,0.2-0.1,0.4-0.2,0.6
												c-0.3,1.1-0.5,2.3-0.8,3.5c1.2,0.4,2.4,0.6,3.5,1c0.2-0.6,0.4-1.2,0.6-1.8c0.2-0.6,0.4-1.3,0.6-1.9
												C110.3,133.2,109.6,132.9,108.9,132.7z"/>
											<path class="st2" d="M106.1,136.8c-0.1,0.6-0.2,1.3-0.3,2c-0.1,0.7-0.2,1.3-0.3,2c0.1,0,0.3,0.1,0.4,0.1
												c0.4,0.1,0.8,0.2,1.2,0.3c0.4,0.1,0.7,0.1,1.1,0.1c0.1,0,0.2,0,0.4,0c0,0,0.1,0,0.1,0c0.1-0.4,0.2-0.8,0.3-1.1
												c0.2-0.7,0.4-1.5,0.6-2.2C108.4,137.5,107.2,137.2,106.1,136.8z"/>
											<path class="st2" d="M108.7,127.2c-0.1,0.2-0.2,0.5-0.2,0.7c-0.3,1.1-0.7,2.1-1,3.2c0.2,0.1,0.4,0.2,0.7,0.3
												c0.4,0.2,0.8,0.3,1.2,0.5c0.6,0.2,1.3,0.5,2,0.6c0.2-0.7,0.5-1.5,0.8-2.2c0.2-0.5,0.4-1,0.6-1.5c-0.6-0.4-1.3-0.7-2-0.9
												C110,127.6,109.3,127.5,108.7,127.2z"/>
											<path class="st2" d="M107,142c-0.4-0.1-0.9-0.2-1.3-0.3c-0.1,0-0.2-0.1-0.4-0.1c0,0.1,0,0.2,0,0.3
												c-0.1,0.5-0.2,1-0.2,1.5c0,0.3,0,0.5,0.1,0.8c0,0.1,0.1,0.2,0.2,0.2c0.2,0.1,0.4,0.1,0.6,0.1c0.5,0,1,0.1,1.5,0.2
												c0.3-0.8,0.6-1.7,0.8-2.5c-0.1,0-0.1,0-0.2,0C107.9,142.1,107.4,142.1,107,142z"/>
										</g>
										<path class="st1" d="M106.3,136c-0.1,0-0.1,0-0.2-0.1c-0.4-0.2-0.7,0.5-0.3,0.7c0.1,0.1,0.2,0.1,0.4,0.1
											c1.1,0.4,2.3,0.7,3.4,1.1c0.1,0,0.2,0.1,0.3,0.1c0.5,0.2,0.7-0.6,0.2-0.8c-0.1,0-0.2-0.1-0.3-0.1
											C108.6,136.6,107.4,136.4,106.3,136z"/>
										<path class="st1" d="M109.3,131.9c-0.4-0.2-0.8-0.3-1.2-0.5c-0.2-0.1-0.4-0.2-0.7-0.3c-0.2-0.1-0.3-0.1-0.5-0.1
											c-0.4-0.1-0.7,0.4-0.3,0.7c0.2,0.1,0.3,0.2,0.5,0.3c0.2,0.1,0.4,0.2,0.6,0.2c0.4,0.2,0.8,0.3,1.2,0.5
											c0.7,0.3,1.3,0.5,2,0.7c0.1,0,0.2,0,0.3,0.1c0.5,0.1,0.8-0.7,0.2-0.8c-0.1,0-0.2,0-0.3-0.1
											C110.6,132.4,109.9,132.1,109.3,131.9z"/>
										<path class="st1" d="M109,126.5c-0.1,0-0.3-0.1-0.4-0.1c-0.4-0.1-0.7,0.4-0.3,0.7c0.1,0.1,0.3,0.1,0.5,0.2
											c0.6,0.2,1.2,0.4,1.9,0.6c0.7,0.2,1.4,0.5,2,0.9c0.1,0.1,0.2,0.1,0.3,0.2c0.5,0.3,0.9-0.4,0.4-0.8
											c-0.1-0.1-0.3-0.2-0.4-0.2c-0.6-0.3-1.2-0.6-1.8-0.8C110.4,126.8,109.7,126.6,109,126.5z"/>
										<g>
											<path class="st3" d="M113.7,125.9C113.7,126,113.7,126,113.7,125.9c-0.4,0.6-0.6,1.3-0.9,2c0.1,0.1,0.3,0.2,0.4,0.2
												c0.5,0.3,0,1.1-0.4,0.8c-0.1-0.1-0.2-0.1-0.3-0.2c-0.2,0.5-0.4,1-0.6,1.5c-0.3,0.7-0.5,1.5-0.8,2.2c0.1,0,0.2,0,0.3,0.1
												c0.5,0.1,0.3,0.9-0.2,0.8c-0.1,0-0.2,0-0.3-0.1c-0.2,0.6-0.4,1.3-0.6,1.9c-0.2,0.6-0.4,1.2-0.6,1.8
												c0.1,0,0.2,0.1,0.3,0.1c0.5,0.2,0.3,1-0.2,0.8c-0.1,0-0.2-0.1-0.3-0.1c-0.2,0.7-0.4,1.5-0.6,2.2
												c-0.1,0.4-0.2,0.8-0.3,1.1c0,0,0.1,0,0.1,0c0,0,0.1,0,0.1,0c0.2,0,0.4,0.3,0.3,0.5c0,0,0,0,0,0.1c0,0.1-0.1,0.1-0.2,0.2
												c-0.1,0-0.2,0.1-0.2,0.1c-0.1,0-0.2,0-0.3,0c-0.2,0.9-0.5,1.7-0.8,2.5c-0.5-0.1-1-0.1-1.5-0.2c-0.2,0-0.4,0-0.6-0.1
												c-0.1,0-0.2-0.1-0.2-0.2c-0.1-0.2-0.1-0.5-0.1-0.8c0-0.5,0.1-1,0.2-1.5c0-0.1,0-0.2,0-0.3c-0.2-0.1-0.5-0.1-0.7-0.2
												c-0.4-0.2-0.2-0.7,0.2-0.7c0.2,0,0.4,0.1,0.6,0.1c0.1-0.7,0.2-1.3,0.3-2c0.1-0.7,0.2-1.3,0.3-2c-0.1,0-0.2-0.1-0.4-0.1
												c-0.4-0.2-0.1-0.9,0.3-0.7c0.1,0,0.1,0,0.2,0.1c0.2-1.2,0.5-2.3,0.8-3.5c0.1-0.2,0.1-0.4,0.2-0.6
												c-0.2-0.1-0.4-0.2-0.5-0.3c-0.4-0.2-0.1-0.7,0.3-0.7c0.2,0,0.3,0.1,0.5,0.1c0.3-1.1,0.7-2.1,1-3.2
												c0.1-0.2,0.2-0.5,0.2-0.7c-0.2-0.1-0.3-0.1-0.5-0.2c-0.4-0.2-0.1-0.7,0.3-0.7c0.1,0,0.3,0.1,0.4,0.1
												c0.2-0.4,0.3-0.9,0.5-1.3c0.2-0.5,0.5-1.2,0.8-1.7c0.1-0.1,0.1-0.2,0.2-0.3c0.4-0.4-0.2-1-0.6-0.6
												c-0.1,0.1-0.2,0.2-0.2,0.2c-0.8,0.9-1.2,2.2-1.6,3.2c-0.5,1.3-0.9,2.7-1.3,4c-1.4,4-1.9,8.2-2.4,12.4
												c-0.1,0.5-0.2,1.1-0.1,1.6c0.3-0.3,1,0.2,0.7,0.6c-0.1,0.1-0.2,0.2-0.2,0.3c0.1,0.1,0.2,0.2,0.3,0.2
												c0.4,0.2,0.8,0.2,1.2,0.2c0.4,0,0.9,0.1,1.3,0.2c0-0.1-0.1-0.1-0.1-0.2c-0.2-0.5,0.5-1,0.8-0.5c0,0.1,0.1,0.2,0.1,0.2
												c0.6-1.5,1-3,1.4-4.5c0.4-1.6,0.9-3.2,1.4-4.8c0.5-1.7,1-3.3,1.6-5c0.3-0.8,0.6-1.6,0.9-2.4c0.2-0.7,0.4-1.4,0.8-2
												c0,0,0-0.1,0-0.1C114.6,125.9,114,125.6,113.7,125.9z"/>
											<path class="st3" d="M108.2,141.3c-0.4,0-0.7-0.1-1.1-0.1c-0.4-0.1-0.8-0.2-1.2-0.3c-0.1,0-0.3-0.1-0.4-0.1
												c-0.2-0.1-0.4-0.1-0.6-0.1c-0.4,0-0.5,0.6-0.2,0.7c0.2,0.1,0.4,0.2,0.7,0.2c0.1,0,0.2,0.1,0.4,0.1
												c0.4,0.1,0.8,0.2,1.3,0.3c0.4,0.1,0.8,0.1,1.2,0.1c0.1,0,0.1,0,0.2,0c0.1,0,0.2,0,0.3,0c0.1,0,0.2,0,0.2-0.1
												c0.1,0,0.1-0.1,0.2-0.2c0-0.1,0-0.1,0-0.1c0.1-0.2-0.1-0.5-0.3-0.5c0,0-0.1,0-0.1,0c0,0-0.1,0-0.1,0c0,0-0.1,0-0.1,0
												C108.4,141.3,108.3,141.3,108.2,141.3z"/>
											<path class="st3" d="M107.5,145.4c0,0.1,0.1,0.1,0.1,0.2c0.5,1,0.9,2.1,1.1,3.2c-2,0.2-4.3,0.4-6.1-0.7
												c0.6-1.1,1.4-2.1,2.2-3.1c0.1-0.1,0.2-0.2,0.2-0.3c0.3-0.4-0.3-0.9-0.7-0.6c0,0,0,0,0,0c-1,1.2-2.1,2.5-2.7,3.9
												c-0.1,0.3-0.1,0.5,0.2,0.7c2.1,1.6,5.1,1.3,7.5,1c0.2,0,0.5-0.2,0.5-0.5c-0.2-1.4-0.7-2.8-1.3-4c0-0.1-0.1-0.2-0.1-0.2
												C108,144.4,107.2,144.9,107.5,145.4z"/>
										</g>
										<path class="st4" d="M108.7,148.8c-0.2-1.1-0.6-2.2-1.1-3.2c-0.4-0.1-0.9-0.1-1.3-0.2c-0.4,0-0.9-0.1-1.2-0.2
											c-0.1-0.1-0.2-0.1-0.3-0.2c-0.8,1-1.6,2-2.2,3.1C104.3,149.2,106.6,149,108.7,148.8z"/>
									</g>
									<g>
										<g>
											<path class="st2" d="M101,113.6c0.8,1.5,1.7,2.9,2.3,4.4c0.2-0.2,0.5-0.3,0.7-0.5c-0.1-1.9-0.1-3.8-0.1-5.7
												C102.8,112.3,101.8,112.9,101,113.6z"/>
											<path class="st2" d="M100.3,114.1c-0.3,0.3-0.6,0.6-0.9,0.9c-0.6,0.6-1.2,1.3-1.7,2c1.3,0.7,2.3,1.9,3,3.1
												c0.6-0.6,1.2-1.1,1.8-1.6C102,116.9,101.1,115.6,100.3,114.1z"/>
											<path class="st2" d="M97.2,117.7c-0.4,0.6-0.8,1.1-1.2,1.7c-0.4,0.6-0.7,1.2-1,1.8c1.1,0.8,2.2,1.4,3.3,2.2
												c0.1-0.1,0.1-0.2,0.2-0.3c0.5-0.8,1.1-1.6,1.7-2.3c0,0-0.1-0.1-0.1-0.1C99.4,119.5,98.4,118.3,97.2,117.7z"/>
											<path class="st2" d="M94.6,121.9c-0.6,1.3-1.2,2.7-1.6,4.1c0.5,0,1.1,0.2,1.6,0.4c0.6,0.3,1.3,0.6,1.8,1
												c0.4-1.1,0.9-2.2,1.4-3.3c0,0,0,0,0,0C96.8,123.3,95.7,122.7,94.6,121.9z"/>
											<path class="st2" d="M92.8,126.9c-0.2,0.9-0.4,1.8-0.5,2.7c1.1,0.1,2.1,0.4,3.2,0.7c0.2-0.7,0.4-1.4,0.7-2.1
												c0,0-0.1,0-0.1,0C95.1,127.5,93.9,126.8,92.8,126.9z"/>
										</g>
										<g>
											<path class="st3" d="M92.1,129.5c0,0,0.1,0,0.1,0c0.1-0.9,0.3-1.8,0.5-2.7c-0.1,0-0.2,0-0.3,0c-0.5,0.1-0.5-0.8,0-0.8
												c0.2,0,0.3,0,0.5,0c0.4-1.4,1-2.8,1.6-4.1c-0.1,0-0.1-0.1-0.2-0.1c-0.4-0.3,0-1,0.4-0.7c0,0,0.1,0.1,0.1,0.1
												c0.3-0.6,0.7-1.2,1-1.8c0.4-0.6,0.8-1.2,1.2-1.7c0,0,0,0-0.1,0c-0.5-0.2-0.1-1,0.4-0.7c0,0,0.1,0.1,0.1,0.1
												c0.5-0.7,1.1-1.3,1.7-2c0.3-0.3,0.6-0.6,0.9-0.9c-0.1-0.1-0.1-0.3-0.2-0.4c-0.2-0.5,0.5-0.9,0.7-0.4
												c0,0.1,0.1,0.2,0.1,0.3c0.9-0.7,1.8-1.3,2.9-1.7c0.1,0,0.1,0,0.2-0.1c0.5-0.2,0.3-0.9-0.1-0.8c0,0-0.1,0-0.1,0
												c-1.8,0.6-3.3,1.8-4.7,3.1c-1.3,1.3-2.4,2.7-3.4,4.3c-2,3.1-3.5,6.6-4.1,10.2c-0.1,0.3-0.1,0.6-0.1,1
												c0.1,0,0.2-0.1,0.4-0.1C91.9,129.4,92,129.5,92.1,129.5z"/>
											<path class="st3" d="M104.1,117.4c0,0-0.1,0.1-0.1,0.1c-0.2,0.1-0.5,0.3-0.7,0.5c0.1,0.1,0.1,0.3,0.2,0.4
												c0.2,0.5-0.6,0.7-0.8,0.2c0,0,0-0.1,0-0.1c-0.7,0.5-1.3,1-1.8,1.6c0,0,0,0.1,0.1,0.1c0.2,0.4-0.3,0.8-0.6,0.5
												c-0.6,0.7-1.2,1.5-1.7,2.3c-0.1,0.1-0.1,0.2-0.2,0.3c0,0,0.1,0.1,0.2,0.1c0.4,0.3-0.1,0.9-0.6,0.6
												c-0.6,1.1-1,2.1-1.4,3.3c0,0,0,0,0.1,0c0.4,0.3,0.1,0.9-0.3,0.8c-0.2,0.7-0.5,1.4-0.7,2.1c0.1,0,0.1,0,0.2,0
												c0.1,0,0.2,0.1,0.2,0.1c0.1,0,0.2,0.1,0.3,0.2c0,0,0,0.1,0,0.1c0.7-2.5,1.6-4.9,2.9-7.1c1.2-2.1,2.9-3.8,4.9-5.1
												c0.2-0.1,0.3-0.2,0.5-0.3C105,117.9,104.5,117.2,104.1,117.4z"/>
											<path class="st3" d="M92.1,129.5c0.2,0.2,0.3,0.6-0.1,0.7c-0.1,0-0.2,0-0.2,0.1c0,0,0,0,0.1,0c1.2,0,2.4,0.5,3.6,0.7
												c0,0,0,0,0.1,0c0,0,0,0,0-0.1c-0.2-0.3,0.1-0.6,0.4-0.6c0-0.1-0.1-0.1-0.2-0.1c-0.1,0-0.1,0-0.2,0
												c-1.1-0.3-2.1-0.6-3.2-0.7C92.2,129.5,92.2,129.5,92.1,129.5z"/>
											<path class="st3" d="M95.8,130.4c-0.3,0-0.6,0.3-0.4,0.6c0,0,0,0,0,0.1c0.5,0.8,0.8,1.7,0.7,2.7c0,0.8-0.5,1.9-1.3,2.2
												c-0.2,0.1-0.7,0.1-0.8-0.2c-0.1-0.2,0.2-0.6,0.3-0.8c0.2-0.6,0.1-1.4-0.3-1.9c-0.6-0.6-1.4-0.5-2,0.1
												c-0.3,0.3-0.3,0.6-0.2,1c0,0.3,0.2,0.6,0.1,0.9c0,0.1-0.1,0.2-0.2,0.3c0,0-0.1,0-0.1,0c-0.1,0-0.3-0.2-0.5-0.3
												c-0.4-0.4-0.7-0.9-0.9-1.4c-0.5-1.2,0.4-2.8,1.6-3.2c0.1,0,0.2-0.1,0.2-0.1c0.4-0.1,0.4-0.5,0.1-0.7
												c-0.1-0.1-0.2-0.1-0.3-0.1c-0.1,0-0.2,0.1-0.4,0.1c-1.4,0.5-2.1,2.1-2.2,3.5c0,0.6,0.3,1.2,0.6,1.6
												c0.3,0.5,0.7,1,1.2,1.3c0.5,0.3,1,0.2,1.4-0.2c0.2-0.3,0.3-0.6,0.4-0.9c0-0.4-0.2-0.7-0.2-1c0-0.3,0.4-0.5,0.7-0.4
												c0.3,0.1,0.4,0.5,0.4,0.7c0.1,0.6-0.5,1.1-0.4,1.8c0.1,0.7,1.1,1,1.7,0.9c0.7-0.1,1.3-0.8,1.6-1.4
												c0.8-1.5,0.5-3.3-0.3-4.7c0,0,0-0.1,0-0.1C96.1,130.5,96,130.4,95.8,130.4z"/>
											<path class="st3" d="M93,126c-0.2,0-0.3,0-0.5,0c-0.5,0.1-0.5,0.9,0,0.8c0.1,0,0.2,0,0.3,0c1.1,0,2.4,0.6,3.3,1.3
												c0,0,0.1,0,0.1,0c0.4,0.2,0.8-0.5,0.3-0.8c0,0,0,0-0.1,0c-0.6-0.4-1.2-0.7-1.8-1C94.1,126.2,93.6,126.1,93,126z"/>
											<path class="st3" d="M94.9,121.1c-0.4-0.3-0.8,0.4-0.4,0.7c0.1,0,0.1,0.1,0.2,0.1c1.1,0.8,2.2,1.4,3.2,2.2c0,0,0,0,0,0
												c0.4,0.3,1-0.3,0.6-0.6c0,0-0.1-0.1-0.2-0.1c-1-0.8-2.2-1.4-3.3-2.2C95,121.1,94.9,121.1,94.9,121.1z"/>
											<path class="st3" d="M97.6,116.9c-0.5-0.2-0.9,0.5-0.4,0.7c0,0,0,0,0.1,0c1.2,0.6,2.2,1.8,2.9,3c0,0,0.1,0.1,0.1,0.1
												c0.3,0.3,0.9-0.1,0.6-0.5c0,0,0-0.1-0.1-0.1c-0.7-1.2-1.7-2.5-3-3.1C97.6,117,97.6,116.9,97.6,116.9z"/>
											<path class="st3" d="M101,113.6c0-0.1-0.1-0.2-0.1-0.3c-0.2-0.5-1-0.1-0.7,0.4c0.1,0.1,0.1,0.3,0.2,0.4
												c0.8,1.4,1.6,2.8,2.2,4.4c0,0,0,0.1,0,0.1c0.2,0.5,1,0.3,0.8-0.2c0-0.1-0.1-0.3-0.2-0.4C102.6,116.4,101.7,115,101,113.6
												z"/>
										</g>
										<path class="st4" d="M91.8,130.3C91.8,130.3,91.8,130.3,91.8,130.3c-1.2,0.4-2.1,2.1-1.6,3.2c0.2,0.5,0.5,1,0.9,1.4
											c0.1,0.1,0.4,0.3,0.5,0.3c0,0,0.1,0,0.1,0c0.1-0.1,0.1-0.2,0.2-0.3c0.1-0.3-0.1-0.6-0.1-0.9c-0.1-0.4,0-0.7,0.2-1
											c0.5-0.6,1.4-0.7,2-0.1c0.4,0.5,0.6,1.3,0.3,1.9c-0.1,0.2-0.3,0.6-0.3,0.8c0.1,0.3,0.6,0.3,0.8,0.2
											c0.8-0.3,1.2-1.4,1.3-2.2c0.1-1-0.2-1.9-0.7-2.7c0,0,0,0-0.1,0C94.2,130.8,93,130.4,91.8,130.3z"/>
									</g>
									<g>
										<g>
											<path class="st2" d="M139,114.8c-0.8-1.5-1.7-2.9-2.3-4.4c-0.2,0.2-0.5,0.3-0.7,0.5c0.1,1.9,0.1,3.8,0.1,5.7
												C137.2,116.1,138.2,115.5,139,114.8z"/>
											<path class="st2" d="M139.7,114.2c0.3-0.3,0.6-0.6,0.9-0.9c0.6-0.6,1.2-1.3,1.7-2c-1.3-0.7-2.3-1.9-3-3.1
												c-0.6,0.6-1.2,1.1-1.8,1.6C138,111.4,138.9,112.8,139.7,114.2z"/>
											<path class="st2" d="M142.8,110.7c0.4-0.6,0.8-1.1,1.2-1.7c0.4-0.6,0.7-1.2,1-1.8c-1.1-0.8-2.2-1.4-3.3-2.2
												c-0.1,0.1-0.1,0.2-0.2,0.3c-0.5,0.8-1.1,1.6-1.7,2.3c0,0,0.1,0.1,0.1,0.1C140.6,108.9,141.6,110.1,142.8,110.7z"/>
											<path class="st2" d="M145.4,106.4c0.6-1.3,1.2-2.7,1.6-4.1c-0.5,0-1.1-0.2-1.6-0.4c-0.6-0.3-1.3-0.6-1.8-1
												c-0.4,1.1-0.9,2.2-1.4,3.3c0,0,0,0,0,0C143.2,105.1,144.3,105.7,145.4,106.4z"/>
											<path class="st2" d="M147.2,101.5c0.2-0.9,0.4-1.8,0.5-2.7c-1.1-0.1-2.1-0.4-3.2-0.7c-0.2,0.7-0.4,1.4-0.7,2.1
												c0,0,0.1,0,0.1,0C144.9,100.9,146.1,101.5,147.2,101.5z"/>
										</g>
										<g>
											<path class="st3" d="M147.9,98.8c0,0-0.1,0-0.1,0c-0.1,0.9-0.3,1.8-0.5,2.7c0.1,0,0.2,0,0.3,0c0.5-0.1,0.5,0.8,0,0.8
												c-0.2,0-0.3,0-0.5,0c-0.4,1.4-1,2.8-1.6,4.1c0.1,0,0.1,0.1,0.2,0.1c0.4,0.3,0,1-0.4,0.7c0,0-0.1-0.1-0.1-0.1
												c-0.3,0.6-0.7,1.2-1,1.8c-0.4,0.6-0.8,1.2-1.2,1.7c0,0,0,0,0.1,0c0.5,0.2,0.1,1-0.4,0.7c0,0-0.1-0.1-0.1-0.1
												c-0.5,0.7-1.1,1.3-1.7,2c-0.3,0.3-0.6,0.6-0.9,0.9c0.1,0.1,0.1,0.3,0.2,0.4c0.2,0.5-0.5,0.9-0.7,0.4
												c0-0.1-0.1-0.2-0.1-0.3c-0.9,0.7-1.8,1.3-2.9,1.7c-0.1,0-0.1,0-0.2,0.1c-0.5,0.2-0.3,0.9,0.1,0.8c0,0,0.1,0,0.1,0
												c1.8-0.6,3.3-1.8,4.7-3.1c1.3-1.3,2.4-2.7,3.4-4.3c2-3.1,3.5-6.6,4.1-10.2c0.1-0.3,0.1-0.6,0.1-1c-0.1,0-0.2,0.1-0.4,0.1
												C148.1,98.9,148,98.9,147.9,98.8z"/>
											<path class="st3" d="M135.9,110.9c0,0,0.1-0.1,0.1-0.1c0.2-0.1,0.5-0.3,0.7-0.5c-0.1-0.1-0.1-0.3-0.2-0.4
												c-0.2-0.5,0.6-0.7,0.8-0.2c0,0,0,0.1,0,0.1c0.7-0.5,1.3-1,1.8-1.6c0,0,0-0.1-0.1-0.1c-0.2-0.4,0.3-0.8,0.6-0.5
												c0.6-0.7,1.2-1.5,1.7-2.3c0.1-0.1,0.1-0.2,0.2-0.3c0,0-0.1-0.1-0.2-0.1c-0.4-0.3,0.1-0.9,0.6-0.6c0.6-1.1,1-2.1,1.4-3.3
												c0,0,0,0-0.1,0c-0.4-0.3-0.1-0.9,0.3-0.8c0.2-0.7,0.5-1.4,0.7-2.1c-0.1,0-0.1,0-0.2,0c-0.1,0-0.2-0.1-0.2-0.1
												c-0.1,0-0.2-0.1-0.3-0.2c0,0,0-0.1,0-0.1c-0.7,2.5-1.6,4.9-2.9,7.1c-1.2,2.1-2.9,3.8-4.9,5.1c-0.2,0.1-0.3,0.2-0.5,0.3
												C135,110.5,135.5,111.2,135.9,110.9z"/>
											<path class="st3" d="M147.9,98.8c-0.2-0.2-0.3-0.6,0.1-0.7c0.1,0,0.2,0,0.2-0.1c0,0,0,0-0.1,0c-1.2,0-2.4-0.5-3.6-0.7
												c0,0,0,0-0.1,0c0,0,0,0,0,0.1c0.2,0.3-0.1,0.6-0.4,0.6c0,0.1,0.1,0.1,0.2,0.1c0.1,0,0.1,0,0.2,0c1.1,0.3,2.1,0.6,3.2,0.7
												C147.8,98.8,147.8,98.8,147.9,98.8z"/>
											<path class="st3" d="M144.2,97.9c0.3,0,0.6-0.3,0.4-0.6c0,0,0,0,0-0.1c-0.5-0.8-0.8-1.7-0.7-2.7c0-0.8,0.5-1.9,1.3-2.2
												c0.2-0.1,0.7-0.1,0.8,0.2c0.1,0.2-0.2,0.6-0.3,0.8c-0.2,0.6-0.1,1.4,0.3,1.9c0.6,0.6,1.4,0.5,2-0.1
												c0.3-0.3,0.3-0.6,0.2-1c0-0.3-0.2-0.6-0.1-0.9c0-0.1,0.1-0.2,0.2-0.3c0,0,0.1,0,0.1,0c0.1,0,0.3,0.2,0.5,0.3
												c0.4,0.4,0.7,0.9,0.9,1.4c0.5,1.2-0.4,2.8-1.6,3.2c-0.1,0-0.2,0.1-0.2,0.1c-0.4,0.1-0.4,0.5-0.1,0.7
												c0.1,0.1,0.2,0.1,0.3,0.1c0.1,0,0.2-0.1,0.4-0.1c1.4-0.5,2.1-2.1,2.2-3.5c0-0.6-0.3-1.2-0.6-1.6c-0.3-0.5-0.7-1-1.2-1.3
												c-0.5-0.3-1-0.2-1.4,0.2c-0.2,0.3-0.3,0.6-0.4,0.9c0,0.4,0.2,0.7,0.2,1c0,0.3-0.4,0.5-0.7,0.4c-0.3-0.1-0.4-0.5-0.4-0.7
												c-0.1-0.6,0.5-1.1,0.4-1.8c-0.1-0.7-1.1-1-1.7-0.9c-0.7,0.1-1.3,0.8-1.6,1.4c-0.8,1.5-0.5,3.3,0.3,4.7c0,0,0,0.1,0,0.1
												C143.9,97.9,144.1,97.9,144.2,97.9z"/>
											<path class="st3" d="M147,102.3c0.2,0,0.3,0,0.5,0c0.5-0.1,0.5-0.9,0-0.8c-0.1,0-0.2,0-0.3,0c-1.1,0-2.4-0.6-3.3-1.3
												c0,0-0.1,0-0.1,0c-0.4-0.2-0.8,0.5-0.3,0.8c0,0,0,0,0.1,0c0.6,0.4,1.2,0.7,1.8,1C145.9,102.1,146.5,102.3,147,102.3z"/>
											<path class="st3" d="M145.1,107.3c0.4,0.3,0.8-0.4,0.4-0.7c-0.1,0-0.1-0.1-0.2-0.1c-1.1-0.8-2.2-1.4-3.2-2.2c0,0,0,0,0,0
												c-0.4-0.3-1,0.3-0.6,0.6c0,0,0.1,0.1,0.2,0.1c1,0.8,2.2,1.4,3.3,2.2C145,107.2,145.1,107.2,145.1,107.3z"/>
											<path class="st3" d="M142.4,111.4c0.5,0.2,0.9-0.5,0.4-0.7c0,0,0,0-0.1,0c-1.2-0.6-2.2-1.8-2.9-3c0,0-0.1-0.1-0.1-0.1
												c-0.3-0.3-0.9,0.1-0.6,0.5c0,0,0,0.1,0.1,0.1c0.7,1.2,1.7,2.5,3,3.1C142.4,111.4,142.4,111.4,142.4,111.4z"/>
											<path class="st3" d="M139,114.8c0,0.1,0.1,0.2,0.1,0.3c0.2,0.5,1,0.1,0.7-0.4c-0.1-0.1-0.1-0.3-0.2-0.4
												c-0.8-1.4-1.6-2.8-2.2-4.4c0,0,0-0.1,0-0.1c-0.2-0.5-1-0.3-0.8,0.2c0,0.1,0.1,0.3,0.2,0.4
												C137.4,111.9,138.3,113.3,139,114.8z"/>
										</g>
										<path class="st4" d="M148.2,98C148.2,98,148.2,98,148.2,98c1.2-0.4,2.1-2.1,1.6-3.2c-0.2-0.5-0.5-1-0.9-1.4
											c-0.1-0.1-0.4-0.3-0.5-0.3c0,0-0.1,0-0.1,0c-0.1,0.1-0.1,0.2-0.2,0.3c-0.1,0.3,0.1,0.6,0.1,0.9c0.1,0.4,0,0.7-0.2,1
											c-0.5,0.6-1.4,0.7-2,0.1c-0.4-0.5-0.6-1.3-0.3-1.9c0.1-0.2,0.3-0.6,0.3-0.8c-0.1-0.3-0.6-0.3-0.8-0.2
											c-0.8,0.3-1.2,1.4-1.3,2.2c-0.1,1,0.2,1.9,0.7,2.7c0,0,0,0,0.1,0C145.8,97.6,147,98,148.2,98z"/>
									</g>
									<g>
										<g>
											<path class="st2" d="M127.5,128.7c0.2,0.5,0.4,1,0.6,1.5c0.3,0.7,0.5,1.5,0.8,2.2c0.7-0.1,1.3-0.4,2-0.6
												c0.4-0.2,0.8-0.3,1.2-0.5c0.2-0.1,0.4-0.2,0.7-0.3c-0.3-1.1-0.7-2.1-1.1-3.2c-0.1-0.2-0.2-0.5-0.2-0.7
												c-0.6,0.3-1.2,0.4-1.8,0.6C128.7,128,128.1,128.3,127.5,128.7z"/>
											<path class="st2" d="M126.4,126.1c0.3,0.5,0.5,1.2,0.7,1.8c0.6-0.3,1.2-0.6,1.8-0.8c0.7-0.2,1.3-0.5,2-0.6
												c-0.2-0.4-0.3-0.9-0.5-1.3c-0.2-0.5-0.4-1-0.7-1.5c-0.7,0.7-1.4,1.4-2.3,1.9C127.1,125.7,126.8,125.9,126.4,126.1z"/>
											<path class="st2" d="M131.1,132.6c-0.7,0.3-1.3,0.5-2,0.7c0.2,0.6,0.4,1.3,0.6,1.9c0.2,0.6,0.4,1.2,0.6,1.8
												c1.2-0.4,2.4-0.6,3.5-1.1c-0.2-1.2-0.5-2.3-0.8-3.5c-0.1-0.2-0.1-0.4-0.2-0.6c-0.2,0.1-0.4,0.2-0.6,0.2
												C131.9,132.3,131.5,132.4,131.1,132.6z"/>
											<path class="st2" d="M131.1,140c0.1,0.4,0.2,0.8,0.3,1.1c0,0,0.1,0,0.1,0c0.1,0,0.2,0,0.4,0c0.4,0,0.7-0.1,1.1-0.2
												c0.4-0.1,0.8-0.2,1.2-0.3c0.1,0,0.2-0.1,0.4-0.1c-0.1-0.7-0.2-1.3-0.3-2c-0.1-0.7-0.2-1.3-0.3-2
												c-1.1,0.4-2.3,0.7-3.4,1.1C130.7,138.5,130.9,139.3,131.1,140z"/>
											<path class="st2" d="M133,141.9c-0.4,0.1-0.8,0.1-1.2,0.2c-0.1,0-0.1,0-0.2,0c0.2,0.9,0.5,1.7,0.8,2.5
												c0.5-0.1,1-0.1,1.5-0.2c0.2,0,0.4,0,0.6-0.1c0.1,0,0.2-0.1,0.2-0.2c0.1-0.2,0.1-0.5,0.1-0.8c0-0.5-0.1-1-0.2-1.5
												c0-0.1,0-0.2,0-0.3c-0.1,0-0.2,0.1-0.4,0.1C133.9,141.7,133.5,141.8,133,141.9z"/>
										</g>
										<g>
											<path class="st3" d="M132.6,145.3c0,0.1-0.1,0.1-0.1,0.2c0.4-0.1,0.9-0.2,1.3-0.2c0.4,0,0.9-0.1,1.2-0.2
												c0.1-0.1,0.2-0.1,0.3-0.2c-0.1-0.1-0.2-0.2-0.2-0.3c-0.3-0.4,0.3-0.9,0.7-0.6c0.1-0.5,0-1.1-0.1-1.6
												c-0.6-4.1-1.1-8.4-2.5-12.4c-0.5-1.3-0.9-2.7-1.4-4c-0.4-1-0.8-2.3-1.5-3.1c-0.1-0.1-0.2-0.2-0.3-0.3
												c-0.4-0.4-1,0.2-0.6,0.6c0.1,0.1,0.2,0.3,0.3,0.4c0.3,0.5,0.5,1,0.7,1.5c0.2,0.4,0.4,0.9,0.5,1.3c0.1,0,0.3-0.1,0.4-0.1
												c0.4-0.1,0.7,0.4,0.3,0.7c-0.1,0.1-0.3,0.1-0.4,0.2c0.1,0.2,0.2,0.5,0.2,0.7c0.4,1.1,0.7,2.1,1.1,3.2
												c0.2-0.1,0.3-0.1,0.5-0.1c0.4-0.1,0.7,0.4,0.3,0.7c-0.2,0.1-0.3,0.2-0.5,0.3c0.1,0.2,0.1,0.4,0.2,0.6
												c0.3,1.1,0.6,2.3,0.8,3.5c0.1,0,0.1,0,0.2-0.1c0.4-0.2,0.7,0.5,0.3,0.7c-0.1,0.1-0.2,0.1-0.4,0.1c0.1,0.6,0.2,1.3,0.3,2
												c0.1,0.7,0.2,1.3,0.3,2c0.2-0.1,0.4-0.1,0.6-0.1c0.4,0,0.6,0.6,0.2,0.7c-0.2,0.1-0.4,0.2-0.7,0.2c0,0.1,0,0.2,0,0.3
												c0.1,0.5,0.2,1,0.2,1.5c0,0.3,0,0.5-0.1,0.8c0,0.1-0.1,0.2-0.2,0.2c-0.2,0.1-0.4,0.1-0.6,0.1c-0.5,0-1,0.1-1.5,0.2
												c-0.3-0.8-0.6-1.7-0.8-2.5c-0.1,0-0.2,0-0.3,0c-0.1,0-0.2,0-0.2-0.1c-0.1,0-0.1-0.1-0.2-0.2c0-0.1,0-0.1,0-0.1
												c-0.1-0.2,0-0.5,0.3-0.5c0,0,0.1,0,0.1,0c0,0,0.1,0,0.1,0c-0.1-0.4-0.2-0.8-0.3-1.1c-0.2-0.7-0.4-1.5-0.6-2.2
												c-0.1,0-0.2,0.1-0.3,0.1c-0.5,0.2-0.7-0.6-0.2-0.8c0.1,0,0.2-0.1,0.3-0.1c-0.2-0.6-0.4-1.2-0.6-1.8
												c-0.2-0.6-0.4-1.3-0.6-1.9c-0.1,0-0.2,0-0.3,0.1c-0.5,0.1-0.8-0.7-0.2-0.8c0.1,0,0.2,0,0.2-0.1c-0.2-0.7-0.5-1.5-0.8-2.2
												c-0.2-0.5-0.4-1-0.6-1.5c-0.1,0.1-0.2,0.1-0.3,0.2c-0.5,0.3-0.9-0.4-0.4-0.8c0.1-0.1,0.3-0.2,0.4-0.2
												c-0.2-0.6-0.4-1.2-0.7-1.8c0,0-0.1-0.1-0.1-0.1c-0.3-0.5-1.1,0-0.8,0.5c0,0,0,0,0,0.1c0.4,0.6,0.6,1.3,0.8,2
												c0.3,0.8,0.6,1.6,0.9,2.4c0.6,1.6,1.1,3.3,1.7,5c0.5,1.6,1,3.2,1.4,4.8c0.4,1.5,0.8,3,1.4,4.5c0-0.1,0.1-0.2,0.1-0.2
												C132.1,144.4,132.9,144.8,132.6,145.3z"/>
											<path class="st3" d="M133,141.1c-0.4,0.1-0.7,0.1-1.1,0.2c-0.1,0-0.2,0-0.4,0c0,0-0.1,0-0.1,0c0,0-0.1,0-0.1,0
												c0,0-0.1,0-0.1,0c-0.2,0-0.4,0.3-0.3,0.5c0,0,0,0,0,0.1c0,0.1,0.1,0.1,0.2,0.2c0.1,0,0.2,0.1,0.2,0.1c0.1,0,0.2,0,0.3,0
												c0.1,0,0.1,0,0.2,0c0.4,0,0.8-0.1,1.2-0.2c0.4-0.1,0.9-0.2,1.3-0.3c0.1,0,0.2-0.1,0.4-0.1c0.2-0.1,0.5-0.1,0.7-0.2
												c0.4-0.2,0.2-0.7-0.2-0.7c-0.2,0-0.4,0.1-0.6,0.1c-0.1,0-0.3,0.1-0.4,0.1C133.8,140.9,133.4,141,133,141.1z"/>
											<path class="st3" d="M129.9,137.1c-0.5,0.2-0.3,1,0.2,0.8c0.1,0,0.2-0.1,0.3-0.1c1.1-0.3,2.3-0.6,3.4-1.1
												c0.1,0,0.2-0.1,0.4-0.1c0.4-0.2,0.1-0.9-0.3-0.7c-0.1,0-0.1,0-0.2,0.1c-1.2,0.4-2.4,0.6-3.5,1.1
												C130.1,137,130,137,129.9,137.1z"/>
											<path class="st3" d="M130.7,131.8c-0.6,0.3-1.3,0.5-2,0.6c-0.1,0-0.2,0-0.2,0.1c-0.5,0.1-0.3,0.9,0.2,0.8
												c0.1,0,0.2,0,0.3-0.1c0.7-0.1,1.4-0.4,2-0.7c0.4-0.2,0.8-0.3,1.2-0.5c0.2-0.1,0.4-0.2,0.6-0.2c0.2-0.1,0.4-0.2,0.5-0.3
												c0.4-0.2,0.1-0.7-0.3-0.7c-0.2,0-0.3,0.1-0.5,0.1c-0.2,0.1-0.4,0.2-0.7,0.3C131.5,131.5,131.1,131.7,130.7,131.8z"/>
											<path class="st3" d="M127.2,127.8c-0.1,0.1-0.3,0.2-0.4,0.2c-0.5,0.3,0,1.1,0.4,0.8c0.1-0.1,0.2-0.1,0.3-0.2
												c0.6-0.4,1.3-0.7,2-0.9c0.6-0.2,1.2-0.4,1.8-0.6c0.2-0.1,0.3-0.1,0.4-0.2c0.4-0.2,0.1-0.7-0.3-0.7
												c-0.1,0-0.3,0.1-0.4,0.1c-0.7,0.1-1.4,0.4-2,0.6C128.4,127.2,127.7,127.5,127.2,127.8z"/>
											<path class="st3" d="M138.6,147.9c-0.7-1.4-1.7-2.7-2.7-3.9c0,0,0,0,0,0c-0.3-0.3-1,0.2-0.7,0.6c0.1,0.1,0.2,0.2,0.2,0.3
												c0.8,1,1.6,2,2.2,3.1c-1.8,1.1-4.1,1-6.1,0.7c0.2-1.1,0.6-2.2,1.1-3.2c0-0.1,0.1-0.1,0.1-0.2c0.2-0.5-0.5-1-0.8-0.5
												c0,0.1-0.1,0.2-0.1,0.2c-0.6,1.3-1.1,2.6-1.3,4c0,0.3,0.2,0.5,0.5,0.5c2.5,0.3,5.4,0.6,7.5-1.1
												C138.7,148.4,138.8,148.2,138.6,147.9z"/>
										</g>
										<path class="st4" d="M133.8,145.4c-0.4,0-0.9,0.1-1.3,0.2c-0.5,1-0.9,2.1-1.1,3.2c2,0.2,4.4,0.4,6.1-0.7
											c-0.6-1.1-1.4-2.1-2.2-3.1c-0.1,0.1-0.2,0.2-0.3,0.2C134.7,145.3,134.3,145.3,133.8,145.4z"/>
									</g>
								</g>
							</g>
						</g>
						<g>
							<g>
								<rect x="118.9" y="79.6" class="st1" width="2.1" height="4.7"/>
								<g>
									<g>
										<circle class="st1" cx="120" cy="80.3" r="1.4"/>
										<path class="st1" d="M120,78.1c1,0,1.9,0.7,2.2,1.6l0.9-0.9c-0.6-1.1-1.8-1.9-3.1-1.9c-1.4,0-2.6,0.8-3.1,1.9l0.9,0.9
											C118.1,78.8,119,78.1,120,78.1z"/>
										<path class="st1" d="M120,76.1c1.6,0,2.9,0.9,3.7,2.1l0.9-0.9c-1-1.5-2.7-2.5-4.6-2.5s-3.6,1-4.6,2.5l0.9,0.9
											C117,77,118.4,76.1,120,76.1z"/>
										<path class="st1" d="M120,74.1c2.1,0,4,1.1,5.2,2.7l0.9-0.9c-1.4-1.8-3.6-3-6-3s-4.7,1.2-6,3.1l0.9,0.9
											C116,75.1,117.9,74.1,120,74.1z"/>
									</g>
								</g>
								<rect x="117.2" y="102.6" class="st1" width="5.6" height="7.8"/>
							</g>
							<g>
								<g>
									<path class="st5" d="M129.8,134.2h-19.7c-3.9,0-7-3.2-7-7v-12.2c0-3.9,3.2-7,7-7h19.7c3.9,0,7,3.2,7,7v12.2
										C136.9,131,133.7,134.2,129.8,134.2z"/>
								</g>
								<g>
									<path class="st6" d="M127.8,120.2c0.7-1.3,1.6-2.9,1.6-4.4c0-0.6-0.1-1.2-0.6-1.5c-0.5-0.4-1.1-0.2-1.5,0.2
										c-1.1,1.1-1.5,2.7-2.4,3.9c-0.3,0.4-0.8,0.1-0.8-0.3c0,0,0,0,0,0c-0.4-1.3-0.9-3.1-2.3-3.7c-0.6-0.2-1.2,0.1-1.6,0.6
										c-0.4,0.5-0.4,1.1-0.3,1.7c0.2,1.5,1,3,1.8,4.4c0.9,1.4,1.8,2.8,3,3.9c0.6-0.8,1.7-2.3,2.2-3
										C127.2,121.3,127.5,120.8,127.8,120.2z"/>
									<g>
										<line class="st7" x1="125.7" y1="109.5" x2="115" y2="120.2"/>
										<line class="st7" x1="127.6" y1="111.2" x2="116.9" y2="121.9"/>
										<line class="st7" x1="129.4" y1="112.9" x2="118.8" y2="123.6"/>
										<line class="st7" x1="131.3" y1="114.6" x2="120.7" y2="125.3"/>
										<line class="st7" x1="133.2" y1="116.3" x2="122.5" y2="127"/>
									</g>
								</g>
							</g>
							<path class="st5" d="M128.2,105.5h-16.3c-3.5,0-6.4-2.9-6.4-6.4v-9.4c0-3.5,2.9-6.4,6.4-6.4h16.3c3.5,0,6.4,2.9,6.4,6.4V99
								C134.6,102.5,131.7,105.5,128.2,105.5z"/>
							<g>
								<circle class="st4" cx="109.9" cy="94.3" r="1.7"/>
								<circle class="st4" cx="130" cy="94.3" r="1.7"/>
							</g>
						</g>
					</g>
				</g>
			</g>
			<g>
				<path class="st8" d="M83.6,159.1v1.1h-2.2v8.4h-1.1v-8.4h-2.2v-1.1H83.6z"/>
				<path class="st8" d="M92.3,159.1h1.1v9.5h-1.1v-4.9h-3.9v4.9h-1.1v-9.5h1.1v3.5h3.9V159.1z"/>
				<path class="st8" d="M102.6,168.6l-4.8,0v-9.5h4.8v1.1H99v2.5h3.2v1.1H99v3.8h3.6V168.6z"/>
				<path class="st8" d="M118.5,163.7h-2l2,4.9h-1.2l-2-4.9h-1.4v4.9h-1.1v-9.5h5.8V163.7z M113.9,160.1v2.5h3.6v-2.5H113.9z"/>
				<path class="st8" d="M129,168.5h-6v-9.5l6,0V168.5z M124.1,167.5h3.8v-7.3h-3.8V167.5z"/>
				<path class="st8" d="M138.5,162.6h1v5.9h-6.1v-9.5h5.1V162.6z M137.3,160.2h-2.7v2.5h2.7V160.2z M134.5,167.5h3.8v-3.8h-3.8
					V167.5z"/>
				<path class="st8" d="M149.9,168.5h-6v-9.5l6,0V168.5z M145,167.5h3.8v-7.3H145V167.5z"/>
				<path class="st8" d="M159.1,159.1v1.1H157v8.4h-1.1v-8.4h-2.2v-1.1H159.1z"/>
			</g>
		</g>
	</g>
</g>
</svg>
