<?xml version="1.0" encoding="utf-8"?>
<!-- Generator: Adobe Illustrator 23.0.0, SVG Export Plug-In . SVG Version: 6.00 Build 0)  -->
<svg version="1.1" id="圖層_1" xmlns="http://www.w3.org/2000/svg" xmlns:xlink="http://www.w3.org/1999/xlink" x="0px" y="0px"
	 viewBox="0 0 165 55" style="enable-background:new 0 0 165 55;" xml:space="preserve">
<style type="text/css">
	.st0{fill:#518287;}
	.st1{fill:#284242;}
	.st2{fill:#931E12;}
</style>
<g>
	<path class="st0" d="M140,55H30C16.2,55,5,43.8,5,30l0,0C5,16.2,16.2,5,30,5h110c13.7,0,25,11.2,25,25l0,0
		C165,43.8,153.8,55,140,55z"/>
	<path class="st1" d="M135,50H25C11.2,50,0,38.8,0,25l0,0C0,11.2,11.2,0,25,0h110c13.7,0,25,11.2,25,25l0,0
		C160,38.8,148.8,50,135,50z"/>
	<circle class="st2" cx="16.9" cy="24" r="5"/>
	<circle class="st2" cx="139.9" cy="24" r="5"/>
</g>
</svg>
