<?xml version="1.0" encoding="utf-8"?>
<!-- Generator: Adobe Illustrator 21.1.0, SVG Export Plug-In . SVG Version: 6.00 Build 0)  -->
<svg version="1.1" id="圖層_1" xmlns="http://www.w3.org/2000/svg" xmlns:xlink="http://www.w3.org/1999/xlink" x="0px" y="0px"
	 viewBox="0 0 162 52" style="enable-background:new 0 0 162 52;" xml:space="preserve">
<style type="text/css">
	.st0{fill:#518287;}
	.st1{fill:#284242;}
	.st2{fill:#85E4ED;}
</style>
<g>
	<path class="st0" d="M137.1,52h-110c-13.8,0-25-11.2-25-25l0,0c0-13.8,11.2-25,25-25h110c13.7,0,25,11.2,25,25l0,0
		C162.1,40.8,150.9,52,137.1,52z"/>
	<path class="st1" d="M135.1,50h-110c-13.8,0-25-11.2-25-25l0,0c0-13.8,11.2-25,25-25h110c13.7,0,25,11.2,25,25l0,0
		C160.1,38.8,148.9,50,135.1,50z"/>
	<circle class="st2" cx="17" cy="24" r="5"/>
	<circle class="st2" cx="140" cy="24" r="5"/>
</g>
</svg>
