<svg width="1100" height="376" viewBox="0 0 1100 376" fill="none" xmlns="http://www.w3.org/2000/svg">
<path d="M1031.46 356.95H68.4453C40.9876 356.95 18.7031 334.666 18.7031 307.208V68.4454C18.7031 40.9877 40.9876 18.7031 68.4453 18.7031H1031.46C1058.91 18.7031 1081.2 40.9877 1081.2 68.4454V307.208C1081.2 334.765 1059.01 356.95 1031.46 356.95Z" fill="white"/>
<path d="M986.19 338.247L1008.87 375.753H963.607L986.19 338.247Z" fill="#F71E35"/>
<path d="M963.607 375.753L940.924 338.247H986.19L963.607 375.753Z" fill="#1794A5"/>
<path d="M1008.87 375.753L986.19 338.247H1031.46L1008.87 375.753Z" fill="#032030"/>
<path d="M918.341 375.753L940.924 338.247H895.659L918.341 375.753Z" fill="#F71E35"/>
<path d="M895.659 338.247V375.753H918.341L895.659 338.247Z" fill="#1794A5"/>
<path d="M1031.46 338.247L1008.87 375.753H1031.46V338.247Z" fill="#1794A5"/>
<path d="M940.924 338.247L918.341 375.753H963.607L940.924 338.247Z" fill="#032030"/>
<path d="M850.394 338.247L873.076 375.753H827.811L850.394 338.247Z" fill="#F71E35"/>
<path d="M827.811 375.753L805.128 338.247H850.393L827.811 375.753Z" fill="#1794A5"/>
<path d="M873.076 375.753L850.394 338.247H895.659L873.076 375.753Z" fill="#032030"/>
<path d="M782.545 375.753L805.128 338.247H759.863L782.545 375.753Z" fill="#F71E35"/>
<path d="M759.863 338.247V375.753H782.545L759.863 338.247Z" fill="#1794A5"/>
<path d="M895.659 338.247L873.076 375.753H895.659V338.247Z" fill="#1794A5"/>
<path d="M805.128 338.247L782.545 375.753H827.811L805.128 338.247Z" fill="#032030"/>
<path d="M714.597 338.247L737.28 375.753H692.014L714.597 338.247Z" fill="#F71E35"/>
<path d="M692.014 375.753L669.332 338.247H714.597L692.014 375.753Z" fill="#1794A5"/>
<path d="M737.28 375.753L714.597 338.247H759.863L737.28 375.753Z" fill="#032030"/>
<path d="M646.749 375.753L669.332 338.247H624.066L646.749 375.753Z" fill="#F71E35"/>
<path d="M624.066 338.247V375.753H646.749L624.066 338.247Z" fill="#1794A5"/>
<path d="M759.863 338.247L737.28 375.753H759.863V338.247Z" fill="#1794A5"/>
<path d="M669.332 338.247L646.749 375.753H692.014L669.332 338.247Z" fill="#032030"/>
<path d="M578.801 338.247L601.483 375.753H556.218L578.801 338.247Z" fill="#F71E35"/>
<path d="M556.218 375.753L533.535 338.247H578.801L556.218 375.753Z" fill="#1794A5"/>
<path d="M601.483 375.753L578.801 338.247H624.066L601.483 375.753Z" fill="#032030"/>
<path d="M510.952 375.753L533.535 338.247H488.27L510.952 375.753Z" fill="#F71E35"/>
<path d="M488.27 338.247V375.753H510.952L488.27 338.247Z" fill="#1794A5"/>
<path d="M624.066 338.247L601.483 375.753H624.066V338.247Z" fill="#1794A5"/>
<path d="M533.535 338.247L510.952 375.753H556.218L533.535 338.247Z" fill="#032030"/>
<path d="M443.004 338.247L465.687 375.753H420.421L443.004 338.247Z" fill="#F71E35"/>
<path d="M420.421 375.753L397.739 338.247H443.004L420.421 375.753Z" fill="#1794A5"/>
<path d="M465.687 375.753L443.004 338.247H488.27L465.687 375.753Z" fill="#032030"/>
<path d="M375.156 375.753L397.739 338.247H352.474L375.156 375.753Z" fill="#F71E35"/>
<path d="M352.474 338.247V375.753H375.156L352.474 338.247Z" fill="#1794A5"/>
<path d="M488.27 338.247L465.687 375.753H488.27V338.247Z" fill="#1794A5"/>
<path d="M397.739 338.247L375.156 375.753H420.421L397.739 338.247Z" fill="#032030"/>
<path d="M307.208 338.247L329.891 375.753H284.625L307.208 338.247Z" fill="#F71E35"/>
<path d="M284.625 375.753L261.943 338.247H307.208L284.625 375.753Z" fill="#1794A5"/>
<path d="M329.891 375.753L307.208 338.247H352.474L329.891 375.753Z" fill="#032030"/>
<path d="M239.36 375.753L261.943 338.247H216.677L239.36 375.753Z" fill="#F71E35"/>
<path d="M216.677 338.247V375.753H239.36L216.677 338.247Z" fill="#1794A5"/>
<path d="M352.474 338.247L329.891 375.753H352.474V338.247Z" fill="#1794A5"/>
<path d="M261.943 338.247L239.36 375.753H284.625L261.943 338.247Z" fill="#032030"/>
<path d="M171.412 338.247L194.094 375.753H148.829L171.412 338.247Z" fill="#F71E35"/>
<path d="M148.829 375.753L126.146 338.247H171.412L148.829 375.753Z" fill="#1794A5"/>
<path d="M194.094 375.753L171.412 338.247H216.677L194.094 375.753Z" fill="#032030"/>
<path d="M103.563 375.753L126.146 338.247H80.8809L103.563 375.753Z" fill="#F71E35"/>
<path d="M80.8809 338.247V375.753H103.563L80.8809 338.247Z" fill="#1794A5"/>
<path d="M216.677 338.247L194.094 375.753H216.677V338.247Z" fill="#1794A5"/>
<path d="M126.146 338.247L103.563 375.753H148.829L126.146 338.247Z" fill="#032030"/>
<path d="M49.4438 331.681C48.9463 333.273 48.5484 334.865 48.1505 336.556C47.7525 338.247 47.5536 339.839 47.4541 341.63C47.2551 343.321 47.1556 345.211 47.2551 346.902C47.2551 348.693 47.3546 350.484 47.5536 352.274C47.653 353.17 47.7525 354.065 47.9515 355.06C48.051 355.955 48.25 356.851 48.4489 357.746C48.8469 359.537 49.3443 361.427 49.8417 363.218C50.4386 365.108 51.135 366.899 51.8314 368.689C52.6273 370.48 53.4232 372.37 54.418 374.161C44.2706 371.972 34.5211 367.496 26.3634 361.129L24.7716 359.935L23.2793 358.641L20.3943 356.055C19.3995 355.159 18.6036 354.165 17.7082 353.269C16.8129 352.274 15.9175 351.379 15.1216 350.384C11.9381 346.305 8.95358 342.028 6.76492 337.252C14.6242 339.242 22.4835 339.54 29.6464 338.546C31.4371 338.347 33.2278 337.949 35.0185 337.551C36.8092 337.153 38.401 336.655 40.0922 336.058C41.7835 335.462 43.3752 334.765 44.8675 334.069C45.6634 333.671 46.3598 333.372 47.0561 332.974C48.051 332.577 48.7474 332.179 49.4438 331.681Z" fill="#F71E35"/>
<path d="M6.96393 337.352C7.7598 335.462 8.65516 333.671 9.65001 331.98C10.6449 330.289 11.7392 328.597 12.8335 327.006C14.9227 323.922 17.5093 320.937 20.0959 318.45C20.7923 317.853 21.3892 317.256 22.0856 316.659C22.782 316.062 23.4784 315.465 24.1747 314.968C25.5675 313.874 27.0598 312.879 28.4526 311.884C31.4371 309.994 34.5211 308.501 37.5057 307.308C37.5057 312.083 38.6 316.659 40.6892 320.937C41.684 323.126 43.0768 325.016 44.4696 326.906C44.8675 327.403 45.2655 327.801 45.6634 328.199C46.0613 328.597 46.4593 329.095 46.8572 329.493C47.2551 329.891 47.7526 330.289 48.1505 330.686L48.7474 331.283L49.4438 331.781C48.7474 332.179 47.9515 332.676 47.2551 333.074C46.5588 333.472 45.7629 333.87 45.0665 334.168C43.5742 334.865 41.9825 335.561 40.2912 336.158C38.6 336.755 37.0082 337.252 35.2175 337.65C33.5263 338.048 31.6361 338.446 29.8454 338.645C22.782 339.541 14.8232 339.242 6.96393 337.352Z" fill="#1794A5"/>
<path d="M54.5175 374.261C53.5227 372.47 52.7268 370.58 51.9309 368.789C51.135 366.998 50.4386 365.208 49.9412 363.317C49.3443 361.427 48.9464 359.636 48.5484 357.846C48.3495 356.95 48.1505 356.055 48.051 355.16C47.9515 354.264 47.7526 353.269 47.6531 352.374C47.4541 350.583 47.3546 348.793 47.3546 347.002C47.3546 345.211 47.4541 343.42 47.5536 341.729C47.7526 339.938 47.9515 338.347 48.25 336.655C48.6479 334.964 49.0459 333.273 49.5433 331.781C53.3237 334.666 57.6015 336.655 62.1778 337.65L63.9685 337.949C64.5654 338.048 65.1623 338.148 65.7592 338.148C66.3562 338.148 66.9531 338.148 67.55 338.247L68.4453 338.347H68.6443H69.0422H69.7386H81.0799L69.7386 357.05C67.9479 360.233 65.7592 363.118 63.2721 366.103C61.9788 367.595 60.6855 368.888 59.2928 370.281C57.6015 371.674 56.1093 372.967 54.5175 374.261Z" fill="#032030"/>
<path d="M0 284.625L37.5057 307.208V261.942L0 284.625Z" fill="#F71E35"/>
<path d="M37.5057 261.942H0V284.625L37.5057 261.942Z" fill="#1794A5"/>
<path d="M80.8809 338.247L69.5396 356.95C67.7489 360.134 65.5603 363.019 63.0732 366.003C61.7799 367.496 60.4866 368.789 59.0938 370.182C57.701 371.574 56.1092 372.868 54.5175 374.161C55.8108 374.36 57.1041 374.559 58.3974 374.758C59.6907 374.957 60.984 375.156 62.2773 375.255L66.1572 375.454L68.0474 375.554H68.5448H68.9427H69.6391H80.9804V338.247H80.8809Z" fill="#1794A5"/>
<path d="M37.5057 307.207L0 284.625V307.307C0 317.653 2.38763 328.099 6.96391 337.351C7.75979 335.461 8.65515 333.67 9.65 331.979C10.6448 330.288 11.7392 328.597 12.8335 327.005C14.9227 323.921 17.5093 320.936 20.0959 318.449C20.7923 317.852 21.3892 317.255 22.0856 316.658C22.7819 316.062 23.4783 315.465 24.1747 314.967C25.5675 313.873 27.0598 312.878 28.4526 311.883C31.3376 309.993 34.5211 308.401 37.5057 307.207Z" fill="#032030"/>
<path d="M37.5057 216.677L0 239.359V194.094L37.5057 216.677Z" fill="#F71E35"/>
<path d="M0 194.094L37.5057 171.412V216.677L0 194.094Z" fill="#1794A5"/>
<path d="M0 239.36L37.5057 216.677V261.943L0 239.36Z" fill="#032030"/>
<path d="M0 148.828L37.5057 171.411V126.146L0 148.828Z" fill="#F71E35"/>
<path d="M37.5057 126.146H0V148.828L37.5057 126.146Z" fill="#1794A5"/>
<path d="M37.5057 261.942L0 239.359V261.942H37.5057Z" fill="#1794A5"/>
<path d="M37.5057 171.412L0 148.829V194.094L37.5057 171.412Z" fill="#032030"/>
<path d="M37.5057 80.8808L0 103.563V80.8808V69.5396V68.8432V68.4453V67.9479L0.0994845 66.0577L0.298453 62.1778C0.397938 60.8845 0.596907 59.5912 0.795876 58.2979C0.994845 57.0046 1.19381 55.7113 1.39278 54.418C2.68608 56.0097 4.07886 57.502 5.37216 58.9943C6.76495 60.387 8.05824 61.7798 9.55051 62.9736C12.535 65.4607 15.5196 67.6494 18.6036 69.4401L37.5057 80.8808Z" fill="#F71E35"/>
<path d="M1.39279 54.5174C3.18351 53.5225 5.07372 52.7267 6.86444 51.9308C8.65516 51.1349 10.4459 50.4385 12.3361 49.9411C14.2263 49.3442 16.017 48.8468 17.8077 48.5483C18.7031 48.3493 19.5985 48.1504 20.4938 48.0509C21.3892 47.9514 22.384 47.7524 23.2794 47.6529C25.0701 47.454 26.8608 47.3545 28.6515 47.3545C30.4423 47.3545 32.233 47.454 33.9242 47.5535C35.7149 47.7524 37.3067 47.9514 38.9979 48.2499C40.6892 48.6478 42.3804 49.0457 43.8727 49.5432C40.9876 53.3236 38.9979 57.6014 38.0031 62.1777L37.7046 63.9684C37.6051 64.5653 37.5057 65.1622 37.5057 65.7591C37.5057 66.356 37.5057 66.9529 37.4062 67.5498L37.3067 68.4452C37.3067 68.5447 37.3067 68.5447 37.3067 68.6442V69.0421V69.7385V81.0797L18.7031 69.5395C15.5196 67.7488 12.6345 65.5602 9.65001 63.073C8.15774 61.7797 6.86444 60.4864 5.47166 59.0937C4.07887 57.6014 2.68609 56.1091 1.39279 54.5174Z" fill="#1794A5"/>
<path d="M0 103.563L37.5057 80.8809V126.146L0 103.563Z" fill="#032030"/>
<path d="M38.401 7.06348C36.4113 14.9228 36.1129 22.782 37.1077 29.9449C37.3067 31.7356 37.7046 33.5264 38.1025 35.3171C38.5005 37.1078 38.9979 38.6995 39.5948 40.3908C40.1917 42.082 40.8881 43.6738 41.5845 45.166C41.9824 45.9619 42.2809 46.6583 42.6788 47.3547C43.0768 48.1506 43.5742 48.847 43.9721 49.5434L44.4696 48.847L45.0665 48.2501C45.4644 47.8521 45.8623 47.3547 46.2603 46.9568C46.6582 46.4593 47.1556 46.1609 47.5536 45.7629C47.9515 45.365 48.4489 44.9671 48.8469 44.5691C50.7371 43.1763 52.6273 41.7836 54.8159 40.7887C58.9943 38.6995 63.6701 37.6052 68.4453 37.6052C67.2515 34.6207 65.7592 31.4372 63.869 28.5521C62.9737 27.1593 61.8793 25.6671 60.785 24.2743C60.1881 23.5779 59.6907 22.8815 59.0938 22.1851C58.4969 21.4887 57.9 20.8918 57.3031 20.1954C54.7165 17.5093 51.8314 14.9228 48.7474 12.8336C47.1556 11.7392 45.4644 10.6449 43.7732 9.65007C41.9824 8.75471 40.2912 7.85935 38.401 7.06348Z" fill="#F71E35"/>
<path d="M68.4454 37.5057V0C58.099 0 47.7526 2.38763 38.401 7.0634C40.2912 7.85927 42.082 8.75464 43.7732 9.74948C45.4644 10.7443 47.1557 11.8387 48.7474 12.933C51.8314 15.0222 54.816 17.6088 57.3031 20.1954C57.9 20.8917 58.4969 21.4886 59.0938 22.185C59.6907 22.8814 60.2876 23.5778 60.785 24.2742C61.8794 25.667 62.8742 27.1593 63.8691 28.552C65.7593 31.3376 67.351 34.5211 68.4454 37.5057Z" fill="#1794A5"/>
<path d="M37.5057 126.146L0 103.563V126.146H37.5057Z" fill="#1794A5"/>
<path d="M44.0716 49.5434C43.6737 48.847 43.1763 48.0511 42.7783 47.3547C42.3804 46.6583 41.9825 45.8624 41.684 45.166C40.9876 43.6738 40.2912 42.082 39.6943 40.3908C39.0974 38.6995 38.6 37.1078 38.2021 35.3171C37.8041 33.6258 37.4062 31.7356 37.1077 29.9449C36.1129 22.782 36.4113 14.9228 38.401 7.06348C19.5985 16.0171 5.67063 34.1233 1.49228 54.6171C3.283 53.6222 5.17321 52.8263 6.96393 52.0305C8.75465 51.2346 10.5454 50.5382 12.4356 50.0408C14.3258 49.4439 16.1165 48.9465 17.9072 48.648C18.8026 48.449 19.6979 48.2501 20.5933 48.1506C21.4887 48.0511 22.4835 47.8521 23.3789 47.7526C25.1696 47.5537 26.9603 47.4542 28.751 47.4542C30.5418 47.4542 32.3325 47.5537 34.0237 47.6532C35.8144 47.8521 37.4062 48.0511 39.0974 48.3495C40.7887 48.5485 42.4799 49.0459 44.0716 49.5434Z" fill="#032030"/>
<path d="M113.711 37.5057L91.1277 0H136.393L113.711 37.5057Z" fill="#F71E35"/>
<path d="M136.393 0L158.976 37.5057H113.711L136.393 0Z" fill="#1794A5"/>
<path d="M91.1278 0L113.711 37.5057H68.4453L91.1278 0Z" fill="#032030"/>
<path d="M181.659 0L158.976 37.5057H204.242L181.659 0Z" fill="#F71E35"/>
<path d="M204.242 37.5057V0H181.659L204.242 37.5057Z" fill="#1794A5"/>
<path d="M68.4453 37.5057L91.1278 0H68.4453V37.5057Z" fill="#1794A5"/>
<path d="M158.976 37.5057L181.659 0H136.393L158.976 37.5057Z" fill="#032030"/>
<path d="M249.507 37.5057L226.924 0H272.19L249.507 37.5057Z" fill="#F71E35"/>
<path d="M272.19 0L294.773 37.5057H249.507L272.19 0Z" fill="#1794A5"/>
<path d="M226.924 0L249.507 37.5057H204.242L226.924 0Z" fill="#032030"/>
<path d="M317.455 0L294.773 37.5057H340.038L317.455 0Z" fill="#F71E35"/>
<path d="M340.038 37.5057V0H317.455L340.038 37.5057Z" fill="#1794A5"/>
<path d="M204.242 37.5057L226.924 0H204.242V37.5057Z" fill="#1794A5"/>
<path d="M294.773 37.5057L317.455 0H272.19L294.773 37.5057Z" fill="#032030"/>
<path d="M385.303 37.5057L362.72 0H407.986L385.303 37.5057Z" fill="#F71E35"/>
<path d="M407.986 0L430.569 37.5057H385.303L407.986 0Z" fill="#1794A5"/>
<path d="M362.72 0L385.303 37.5057H340.038L362.72 0Z" fill="#032030"/>
<path d="M453.251 0L430.569 37.5057H475.834L453.251 0Z" fill="#F71E35"/>
<path d="M475.834 37.5057V0H453.251L475.834 37.5057Z" fill="#1794A5"/>
<path d="M340.038 37.5057L362.72 0H340.038V37.5057Z" fill="#1794A5"/>
<path d="M430.569 37.5057L453.251 0H407.986L430.569 37.5057Z" fill="#032030"/>
<path d="M521.1 37.5057L498.517 0H543.782L521.1 37.5057Z" fill="#F71E35"/>
<path d="M543.782 0L566.465 37.5057H521.1L543.782 0Z" fill="#1794A5"/>
<path d="M498.517 0L521.1 37.5057H475.834L498.517 0Z" fill="#032030"/>
<path d="M589.048 0L566.465 37.5057H611.73L589.048 0Z" fill="#F71E35"/>
<path d="M611.73 37.5057V0H589.048L611.73 37.5057Z" fill="#1794A5"/>
<path d="M475.834 37.5057L498.517 0H475.834V37.5057Z" fill="#1794A5"/>
<path d="M566.465 37.5057L589.048 0H543.782L566.465 37.5057Z" fill="#032030"/>
<path d="M656.996 37.5057L634.313 0H679.579L656.996 37.5057Z" fill="#F71E35"/>
<path d="M679.579 0L702.261 37.5057H656.996L679.579 0Z" fill="#1794A5"/>
<path d="M634.313 0L656.996 37.5057H611.73L634.313 0Z" fill="#032030"/>
<path d="M724.844 0L702.261 37.5057H747.527L724.844 0Z" fill="#F71E35"/>
<path d="M747.527 37.5057V0H724.844L747.527 37.5057Z" fill="#1794A5"/>
<path d="M611.73 37.5057L634.313 0H611.73V37.5057Z" fill="#1794A5"/>
<path d="M702.261 37.5057L724.844 0H679.579L702.261 37.5057Z" fill="#032030"/>
<path d="M792.792 37.5057L770.109 0H815.375L792.792 37.5057Z" fill="#F71E35"/>
<path d="M815.375 0L838.057 37.5057H792.792L815.375 0Z" fill="#1794A5"/>
<path d="M770.109 0L792.792 37.5057H747.526L770.109 0Z" fill="#032030"/>
<path d="M860.64 0L838.057 37.5057H883.323L860.64 0Z" fill="#F71E35"/>
<path d="M883.323 37.5057V0H860.64L883.323 37.5057Z" fill="#1794A5"/>
<path d="M747.526 37.5057L770.109 0H747.526V37.5057Z" fill="#1794A5"/>
<path d="M838.057 37.5057L860.64 0H815.375L838.057 37.5057Z" fill="#032030"/>
<path d="M928.588 37.5057L905.906 0H951.171L928.588 37.5057Z" fill="#F71E35"/>
<path d="M951.171 0L973.854 37.5057H928.588L951.171 0Z" fill="#1794A5"/>
<path d="M905.906 0L928.588 37.5057H883.323L905.906 0Z" fill="#032030"/>
<path d="M996.437 0L973.854 37.5057H1019.12L996.437 0Z" fill="#F71E35"/>
<path d="M1019.12 37.5057V0H996.437L1019.12 37.5057Z" fill="#1794A5"/>
<path d="M883.323 37.5057L905.906 0H883.323V37.5057Z" fill="#1794A5"/>
<path d="M973.854 37.5057L996.437 0H951.171L973.854 37.5057Z" fill="#032030"/>
<path d="M1050.46 44.0717C1050.95 42.4799 1051.35 40.8882 1051.75 39.1969C1052.15 37.5057 1052.35 35.9139 1052.45 34.1232C1052.65 32.432 1052.74 30.5418 1052.65 28.8505C1052.65 27.0598 1052.55 25.2691 1052.35 23.4784C1052.25 22.583 1052.15 21.6877 1051.95 20.6928C1051.85 19.7975 1051.65 18.9021 1051.45 18.0067C1051.05 16.216 1050.56 14.3258 1050.06 12.5351C1049.46 10.6449 1048.77 8.85417 1048.07 7.06344C1047.27 5.27272 1046.48 3.38252 1045.48 1.5918C1055.63 3.78046 1065.38 8.25726 1073.54 14.6243L1075.13 15.8181L1076.62 17.1114L1079.51 19.698C1080.5 20.5933 1081.3 21.5882 1082.19 22.4835C1083.09 23.4784 1083.98 24.3737 1084.78 25.3686C1087.96 29.4475 1090.95 33.7253 1093.14 38.5005C1085.28 36.5109 1077.42 36.2124 1070.25 37.2072C1068.46 37.4062 1066.67 37.8042 1064.88 38.2021C1063.09 38.6 1061.5 39.0975 1059.81 39.6944C1058.12 40.2913 1056.53 40.9877 1055.03 41.6841C1054.24 42.082 1053.54 42.3804 1052.84 42.7784C1051.95 43.1763 1051.15 43.5743 1050.46 44.0717Z" fill="#F71E35"/>
<path d="M1092.94 38.4011C1092.14 40.2913 1091.25 42.082 1090.25 43.7733C1089.26 45.4645 1088.16 47.1557 1087.07 48.7475C1084.98 51.8315 1082.39 54.816 1079.8 57.3031C1079.11 57.9001 1078.51 58.497 1077.82 59.0939C1077.12 59.6908 1076.42 60.2877 1075.73 60.7851C1074.33 61.8794 1072.84 62.8743 1071.45 63.8691C1068.46 65.7593 1065.38 67.2516 1062.39 68.4454C1062.39 63.6702 1061.3 59.0939 1059.21 54.816C1058.22 52.6274 1056.82 50.7372 1055.43 48.847C1055.03 48.3495 1054.64 47.9516 1054.24 47.5537C1053.84 47.1557 1053.44 46.6583 1053.04 46.2604C1052.65 45.8624 1052.15 45.4645 1051.75 45.0666L1051.15 44.4696L1050.46 43.9722C1051.15 43.5743 1051.95 43.0769 1052.65 42.6789C1053.34 42.281 1054.14 41.8831 1054.83 41.5846C1056.33 40.8882 1057.92 40.1918 1059.61 39.5949C1061.3 38.998 1062.89 38.5006 1064.68 38.1026C1066.37 37.7047 1068.26 37.3068 1070.06 37.1078C1077.22 36.113 1085.18 36.4114 1092.94 38.4011Z" fill="#1794A5"/>
<path d="M1045.48 1.39307C1046.48 3.18379 1047.27 5.07399 1048.07 6.86471C1048.87 8.65543 1049.56 10.4462 1050.06 12.3364C1050.66 14.2266 1051.05 16.0173 1051.45 17.808C1051.65 18.7034 1051.85 19.5987 1051.95 20.4941C1052.05 21.3895 1052.25 22.3843 1052.35 23.2797C1052.55 25.0704 1052.65 26.8611 1052.65 28.6518C1052.65 30.4425 1052.55 32.2333 1052.45 33.9245C1052.25 35.7152 1052.05 37.307 1051.75 38.9982C1051.35 40.6894 1050.95 42.3807 1050.46 43.8729C1046.68 40.9879 1042.4 38.9982 1037.82 38.0034L1036.03 37.7049C1035.43 37.6054 1034.84 37.5059 1034.24 37.5059C1033.64 37.5059 1033.05 37.5059 1032.45 37.4065L1031.55 37.307H1031.36H1030.96H1030.26H1018.92L1030.26 18.6039C1032.05 15.4204 1034.24 12.5353 1036.73 9.5508C1038.02 8.05853 1039.31 6.76523 1040.71 5.37245C1042.3 4.07915 1043.89 2.68636 1045.48 1.39307Z" fill="#032030"/>
<path d="M1100 91.1283L1062.49 68.4458V113.711L1100 91.1283Z" fill="#F71E35"/>
<path d="M1062.49 113.711H1100V91.1279L1062.49 113.711Z" fill="#1794A5"/>
<path d="M1019.12 37.5059L1030.46 18.8028C1032.25 15.6193 1034.44 12.7343 1036.93 9.74973C1038.22 8.25746 1039.51 6.96416 1040.91 5.57138C1042.3 4.1786 1043.89 2.8853 1045.48 1.592C1044.19 1.39303 1042.9 1.19406 1041.6 0.995095C1040.31 0.796126 1039.02 0.597157 1037.72 0.497672L1033.84 0.298703L1031.95 0.199219H1031.46H1031.06H1030.36H1019.02V37.5059H1019.12Z" fill="#1794A5"/>
<path d="M1062.49 68.4452L1100 91.1277V68.4452C1100 58.0988 1097.61 47.6529 1093.04 38.4009C1092.24 40.2911 1091.34 42.0818 1090.35 43.773C1089.36 45.4643 1088.26 47.1555 1087.17 48.7473C1085.08 51.8313 1082.49 54.8158 1079.9 57.3029C1079.21 57.8998 1078.61 58.4967 1077.91 59.0937C1077.22 59.6906 1076.52 60.2875 1075.83 60.7849C1074.43 61.8792 1072.94 62.8741 1071.55 63.8689C1068.66 65.7591 1065.48 67.3509 1062.49 68.4452Z" fill="#032030"/>
<path d="M1062.49 158.976L1100 136.393V181.659L1062.49 158.976Z" fill="#F71E35"/>
<path d="M1100 181.659L1062.49 204.341V158.976L1100 181.659Z" fill="#1794A5"/>
<path d="M1100 136.393L1062.49 158.976V113.71L1100 136.393Z" fill="#032030"/>
<path d="M1100 226.924L1062.49 204.341V249.606L1100 226.924Z" fill="#F71E35"/>
<path d="M1062.49 249.606H1100V226.924L1062.49 249.606Z" fill="#1794A5"/>
<path d="M1062.49 113.71L1100 136.393V113.71H1062.49Z" fill="#1794A5"/>
<path d="M1062.49 204.341L1100 226.924V181.658L1062.49 204.341Z" fill="#032030"/>
<path d="M1062.49 294.872L1100 272.189V294.872V306.213V306.91V307.307V307.805L1099.9 309.695L1099.7 313.575C1099.6 314.868 1099.4 316.162 1099.2 317.455C1099.01 318.748 1098.81 320.041 1098.61 321.335C1097.31 319.743 1095.92 318.251 1094.63 316.758C1093.24 315.366 1091.94 313.973 1090.45 312.779C1087.46 310.292 1084.48 308.103 1081.4 306.313L1062.49 294.872Z" fill="#F71E35"/>
<path d="M1098.51 321.235C1096.72 322.23 1094.83 323.026 1093.04 323.822C1091.25 324.618 1089.45 325.314 1087.56 325.811C1085.67 326.408 1083.88 326.906 1082.09 327.204C1081.2 327.403 1080.3 327.602 1079.41 327.702C1078.51 327.801 1077.52 328 1076.62 328.1C1074.83 328.299 1073.04 328.398 1071.25 328.398C1069.46 328.398 1067.67 328.299 1065.98 328.199C1064.19 328 1062.59 327.801 1060.9 327.503C1059.21 327.105 1057.52 326.707 1056.03 326.209C1058.91 322.429 1060.9 318.151 1061.9 313.575L1062.2 311.784C1062.3 311.187 1062.39 310.59 1062.39 309.993C1062.39 309.397 1062.39 308.8 1062.49 308.203L1062.59 307.307C1062.59 307.208 1062.59 307.208 1062.59 307.108V306.71V306.014V294.673L1081.3 306.014C1084.48 307.805 1087.37 309.993 1090.35 312.481C1091.84 313.774 1093.14 315.067 1094.53 316.46C1095.92 318.052 1097.21 319.643 1098.51 321.235Z" fill="#1794A5"/>
<path d="M1100 272.189L1062.49 294.872V249.606L1100 272.189Z" fill="#032030"/>
<path d="M1061.6 368.689C1063.59 360.83 1063.89 352.971 1062.89 345.808C1062.69 344.017 1062.3 342.226 1061.9 340.436C1061.5 338.645 1061 337.053 1060.41 335.362C1059.81 333.671 1059.11 332.079 1058.42 330.587C1058.02 329.791 1057.72 329.095 1057.32 328.398C1056.92 327.602 1056.43 326.906 1056.03 326.209L1055.53 326.906L1054.93 327.503C1054.54 327.901 1054.14 328.398 1053.74 328.796C1053.34 329.293 1052.84 329.592 1052.45 329.99C1052.05 330.388 1051.55 330.786 1051.15 331.184C1049.26 332.576 1047.37 333.969 1045.18 334.964C1041.01 337.053 1036.33 338.148 1031.55 338.148C1032.75 341.132 1034.24 344.316 1036.13 347.201C1037.03 348.593 1038.12 350.086 1039.21 351.479C1039.81 352.175 1040.31 352.871 1040.91 353.568C1041.5 354.264 1042.1 354.861 1042.7 355.557C1045.18 358.144 1048.17 360.731 1051.25 362.82C1052.84 363.914 1054.54 365.008 1056.23 366.003C1057.92 366.998 1059.71 367.893 1061.6 368.689Z" fill="#F71E35"/>
<path d="M1031.46 338.247V375.753C1041.8 375.753 1052.25 373.365 1061.6 368.689C1059.71 367.893 1057.92 366.998 1056.23 366.003C1054.54 365.008 1052.84 363.914 1051.25 362.82C1048.17 360.731 1045.18 358.144 1042.7 355.557C1042.1 354.861 1041.5 354.264 1040.91 353.568C1040.31 352.871 1039.71 352.175 1039.22 351.478C1038.12 350.086 1037.13 348.593 1036.13 347.201C1034.24 344.415 1032.65 341.232 1031.46 338.247Z" fill="#1794A5"/>
<path d="M1062.49 249.606L1100 272.189V249.606H1062.49Z" fill="#1794A5"/>
<path d="M1055.93 326.209C1056.33 326.906 1056.82 327.702 1057.22 328.398C1057.62 329.095 1058.02 329.89 1058.32 330.587C1059.01 332.079 1059.71 333.671 1060.31 335.362C1060.9 337.053 1061.4 338.645 1061.8 340.436C1062.2 342.127 1062.59 344.017 1062.89 345.808C1063.89 352.971 1063.59 360.83 1061.6 368.689C1080.4 359.736 1094.33 341.63 1098.51 321.136C1096.72 322.131 1094.83 322.926 1093.04 323.722C1091.25 324.518 1089.45 325.215 1087.56 325.712C1085.67 326.309 1083.88 326.806 1082.09 327.105C1081.2 327.304 1080.3 327.503 1079.41 327.602C1078.51 327.702 1077.52 327.901 1076.62 328C1074.83 328.199 1073.04 328.299 1071.25 328.299C1069.46 328.299 1067.67 328.199 1065.98 328.1C1064.19 327.901 1062.59 327.702 1060.9 327.403C1059.21 327.105 1057.52 326.707 1055.93 326.209Z" fill="#032030"/>
</svg>
