<svg id="圖層_1" data-name="圖層 1" xmlns="http://www.w3.org/2000/svg" xmlns:xlink="http://www.w3.org/1999/xlink" viewBox="0 0 1920 1200"><defs><style>.cls-1{fill:none;}.cls-2,.cls-8{fill:#fff;}.cls-3{clip-path:url(#clip-path);}.cls-4{fill:#d0dfe6;}.cls-5{fill:#f71e35;}.cls-6{fill:#1794a5;}.cls-7{fill:#032030;}.cls-8{stroke:#fff;stroke-miterlimit:10;stroke-width:0.67px;}</style><clipPath id="clip-path"><rect class="cls-1" width="1920" height="1200"/></clipPath></defs><title>工作區域 1</title><rect class="cls-2" width="1920" height="1200"/><g class="cls-3"><path class="cls-4" d="M-13.87,1232H1414.67C876.9,1199.28,312.31,1056.67-13.87,794.83Z"/><path class="cls-5" d="M638.27,1024.14c18.83,38.17,38.28,73.81,58.05,107-27.86-7.33-55.82-14.44-83.85-21.53s-56.23-14.13-84.6-21.47C565.78,1064.5,602.25,1043,638.27,1024.14Z"/><path class="cls-6" d="M527.87,1088.15c-18.81-38.34-36.54-79.5-50.61-123.14,25.79,10.57,52.33,20.48,79.3,30.2s54.32,19.27,81.71,28.93C602.25,1043,565.78,1064.5,527.87,1088.15Z"/><path class="cls-7" d="M696.32,1131.15c-19.76-33.2-39.22-68.84-58.05-107,27.42,9.68,54.89,19.41,82.31,29.4,13.72,4.94,27.4,10.06,41.09,15.09l41,15.38c-17.48,6.49-35.06,13.59-52.78,21.44S714.31,1121.83,696.32,1131.15Z"/><path class="cls-5" d="M355.78,1034.1c5.5-2.89,10.91-5.7,16.3-8.62l16-8.74,15.6-8.64L419,999.35l15-8.62,14.72-8.67,14.4-8.54L477.26,965c-25.81-10.56-50.82-21.83-75.13-34.21s-48-25.79-71.29-40.29q1.4,18.56,3.57,37c1.46,12.23,3.28,24.23,5.32,36.29l1.58,9,1.75,8.87q1.79,8.85,3.79,17.67C349.48,1011.17,352.52,1022.63,355.78,1034.1Z"/><path class="cls-6" d="M330.84,890.51l-59,105.87c27.3,13.69,55.4,26.37,83.94,37.72-3.26-11.47-6.3-22.93-8.93-34.76q-2-8.82-3.79-17.67l-1.75-8.87-1.58-9c-2-12.06-3.86-24.06-5.32-36.29S331.77,902.88,330.84,890.51Z"/><path class="cls-6" d="M802.66,1084c-17.48,6.49-35.06,13.59-52.78,21.44s-35.57,16.38-53.56,25.7c13.95,3.62,27.83,7.42,41.76,11.12l41.67,11.42Z"/><path class="cls-7" d="M477.26,965l-14.21,8.51-14.4,8.54-14.72,8.67-15,8.62-15.31,8.75-15.6,8.64-16,8.74c-5.39,2.92-10.8,5.73-16.3,8.62,28.54,11.36,57.48,21.3,86.27,30.09s57.43,16.59,85.81,24C509.06,1049.81,491.33,1008.65,477.26,965Z"/><path class="cls-5" d="M194.33,793.81q-1.46,20.52-2.41,40.78t-1.22,40q-.16,9.95-.19,19.83c0,6.58.07,13.09.18,19.61Q191,933.58,192,952.9l-19.34-11.49c-3.22-1.92-6.47-3.82-9.66-5.77l-9.53-5.86L134.36,918l-18.82-12c-25.09-15.94-49.72-32.25-74.21-48.67C94.58,834.93,145.69,814,194.33,793.81Z"/><path class="cls-6" d="M41.33,857.4c1-13.8,2.33-27.78,3.73-41.84s2.94-28.23,4.63-42.49,3.55-28.68,5.54-43.21,4.12-29.15,6.38-43.88l16.47,13.8c5.49,4.6,11,9.23,16.49,13.75l16.53,13.64c5.52,4.54,11,9.13,16.56,13.58,22.12,18,44.3,35.79,66.67,53.06C145.69,814,94.58,834.93,41.33,857.4Z"/><path class="cls-7" d="M192,952.9q-.92-19.3-1.27-38.85c-.11-6.52-.19-13-.18-19.61s.08-13.2.19-19.83q.35-19.9,1.22-40t2.41-40.78l16.78,13L228,819.44l8.44,6.34c2.82,2.09,5.66,4.11,8.48,6.18l17,12.33c22.74,16.1,45.67,31.65,68.95,46.22C287.89,911.23,241.34,931.78,192,952.9Z"/><path class="cls-5" d="M-103.21,757q21.33-9.51,42.29-18.68l41.6-18.08q20.61-8.89,40.84-17.44L61.61,686l-8.23-6.9-8.21-7-16.41-14-16.4-14L-4,630.13c-21.84-18.69-43.57-37.65-65.33-56.52Q-89.22,668.14-103.21,757Z"/><path class="cls-6" d="M330.84,890.51c-42.95,20.72-89.5,41.27-138.88,62.39C218,968,244.57,982.63,271.84,996.38Z"/><path class="cls-7" d="M61.61,686,21.52,702.83q-20.23,8.55-40.84,17.44l-41.6,18.08q-21,9.17-42.29,18.68l17.86,12.7,17.95,12.64,18,12.63,9,6.31,9.05,6.27,18.08,12.53c6,4.17,12,8.36,18.14,12.49L23,845c6.09,4.14,12.12,8.3,18.29,12.38,1-13.8,2.33-27.78,3.73-41.84s2.94-28.23,4.63-42.49,3.55-28.68,5.54-43.21S59.35,700.71,61.61,686Z"/><path class="cls-5" d="M786.41,1044.91l-42.08-12.76-21-6.57c-7-2.21-14-4.34-21-6.65l-20.92-6.81L671,1008.7l-10.42-3.53-20.83-7.08c-6.94-2.39-13.84-4.89-20.75-7.33l3-8.23c6.88,2.49,13.73,5,20.62,7.46l20.72,7.2,10.36,3.6,10.4,3.49,20.82,6.94c6.92,2.35,13.91,4.53,20.87,6.79l20.89,6.71,41.92,13"/><path class="cls-7" d="M788.39,1038.36l-41.93-13-20.91-6.7c-7-2.25-13.94-4.43-20.87-6.78l-20.82-6.93-10.41-3.48-10.36-3.59-20.73-7.19c-6.9-2.43-13.76-5-20.64-7.45l12.85-35.66c6.69,2.66,13.36,5.37,20.08,8l20.23,7.75L685,967.17l10.17,3.77,20.38,7.52c6.78,2.54,13.64,4.92,20.46,7.36l20.51,7.3,41.22,14.25"/><path class="cls-2" d="M628.15,965.39c6.28,4.07,12.56,8.17,18.91,12.14l19.16,11.75,9.63,5.83c3.22,1.92,6.46,3.78,9.7,5.67L705.06,1012c7.34.94,14.74,1.74,22.09,2.64l22,2.72c14.68,1.77,29.33,3.57,43.9,5.52-13.08-7.14-26.12-14.32-39.06-21.69l-19.29-11.26c-6.41-3.79-12.84-7.53-19.16-11.46l-21.79-3.27-10.93-1.59-10.9-1.66L650,968.72Z"/><path class="cls-7" d="M777.24,1075.3l-42.78-11.55-21.38-6c-7.12-2-14.26-4-21.37-6.06l-21.35-6.24-10.68-3.14L649,1039.06l-21.32-6.52c-7.11-2.21-14.19-4.54-21.29-6.81l12.84-35.65c6.92,2.44,13.81,4.94,20.74,7.34l20.83,7.08,10.41,3.54,10.45,3.43,20.91,6.82c6.95,2.31,14,4.45,20.95,6.66l21,6.58,42.07,12.79"/><path class="cls-2" d="M612.83,1007.9c6.5,3.86,13,7.75,19.57,11.5l19.77,11.08,9.92,5.49c3.32,1.81,6.65,3.56,10,5.33l20,10.51c7.53.72,15.07,1.27,22.58,1.93l22.48,2c15,1.29,29.9,2.6,44.75,4.06-13.36-6.64-26.67-13.34-39.91-20.22l-19.76-10.54c-6.57-3.55-13.15-7.06-19.65-10.76l-22.33-2.57-11.19-1.25-11.2-1.33-22.49-2.55Z"/><path class="cls-5" d="M619,990.76c-13.86-4.82-27.59-10-41.34-15.14-6.9-2.51-13.7-5.29-20.54-7.94l-10.25-4c-3.42-1.33-6.84-2.67-10.22-4.1l-20.36-8.43-5.09-2.1-5-2.21-10.1-4.42c-13.51-5.77-26.78-12.11-40.13-18.27l4.35-9c13.2,6.21,26.32,12.6,39.71,18.43L510,938l5,2.23,5,2.13,20.18,8.53c3.35,1.45,6.74,2.8,10.14,4.15l10.17,4.08c6.79,2.69,13.53,5.51,20.38,8,13.66,5.2,27.28,10.48,41.06,15.38"/><path class="cls-7" d="M621.72,983.22c-13.78-4.89-27.41-10.17-41.08-15.36-6.86-2.54-13.6-5.36-20.4-8.05l-10.17-4.07c-3.4-1.34-6.79-2.7-10.15-4.15l-20.19-8.51L514.68,941l-5-2.23-10-4.47c-13.4-5.82-26.54-12.21-39.75-18.41l18.83-39.14c12.6,6.42,25.1,13,38,19.11l9.58,4.65,4.8,2.33,4.85,2.24L555.36,914c3.23,1.52,6.5,2.95,9.78,4.38l9.83,4.3c6.57,2.84,13.07,5.81,19.72,8.52,13.25,5.53,26.46,11.14,39.88,16.39"/><path class="cls-2" d="M469.34,896.27c11.4,9.6,22.87,19.34,34.77,28.46l8.91,6.92,4.48,3.44,4.53,3.35q9.08,6.67,18.26,13.31c3.66.65,7.36,1.21,11,1.79l11,1.74c7.35,1.15,14.62,2.43,22,3.48,14.67,2.19,29.2,4.55,43.81,6.63-12.54-8-24.79-16.55-37-25-6.12-4.2-12.07-8.68-18-13.05l-8.93-6.62c-3-2.2-5.93-4.41-8.84-6.71l-21.45-4.19-5.39-1-5.34-1.11-10.73-2.22C498.05,902.61,483.82,899.32,469.34,896.27Z"/><path class="cls-7" d="M606.41,1025.73c-14.21-4.46-28.35-9.34-42.52-14.13-7.1-2.34-14.13-5-21.2-7.47l-10.6-3.8c-3.53-1.25-7.06-2.52-10.57-3.88l-21.12-8-5.28-2-5.25-2.12-10.51-4.23c-14.05-5.51-27.93-11.64-41.89-17.58l18.84-39.14c13.33,6.16,26.58,12.51,40.09,18.28l10.09,4.42,5,2.21,5.08,2.11L537,958.83c3.38,1.43,6.79,2.77,10.21,4.11l10.24,4c6.84,2.66,13.63,5.44,20.53,7.95,13.75,5.13,27.46,10.34,41.31,15.17"/><path class="cls-2" d="M446.89,942.94c12.13,9.34,24.36,18.82,36.92,27.62l9.41,6.69,4.73,3.33,4.77,3.22q9.54,6.42,19.18,12.8c3.82.57,7.65,1,11.47,1.52l11.45,1.46c7.62,1,15.17,2.07,22.77,2.91l22.67,2.77c7.51,1,15.07,1.74,22.57,2.64-13-7.61-25.72-15.72-38.41-23.81-6.35-4-12.59-8.3-18.85-12.48l-9.34-6.34c-3.12-2.11-6.22-4.23-9.27-6.44l-22.37-3.68-5.62-.91-5.6-1-11.23-2C477.08,948.76,462.11,945.73,446.89,942.94Z"/><path class="cls-5" d="M455.94,924.12c-6.62-3.19-13.2-6.48-19.8-9.71-3.29-1.64-6.62-3.21-9.87-4.92l-9.78-5.1-9.78-5.11-4.88-2.56L397,894l-19.3-10.71c-12.68-7.46-25.46-14.78-37.86-22.72l-9.36-5.85-2.34-1.47-2.3-1.52-4.6-3c-6.13-4.08-12.31-8.08-18.38-12.24l6.41-9.3c6,4.16,12.07,8.16,18.1,12.24l4.53,3.05,2.27,1.53,2.31,1.46,9.22,5.86c12.22,7.95,24.81,15.28,37.32,22.77l19,10.75,4.76,2.68,4.83,2.58,9.65,5.13,9.66,5.14c3.21,1.71,6.51,3.29,9.76,4.94,6.52,3.26,13,6.56,19.57,9.78"/><path class="cls-7" d="M459.93,915.84c-6.56-3.21-13.06-6.52-19.6-9.77-3.25-1.65-6.54-3.23-9.76-4.94L420.9,896l-9.67-5.13-4.82-2.57-4.77-2.69-19.06-10.74c-12.52-7.48-25.14-14.82-37.37-22.76L336,846.24l-2.31-1.47-2.27-1.52-4.54-3c-6-4.09-12.13-8.09-18.12-12.25l27.8-40.31c5.58,4.16,11.27,8.16,16.91,12.26l4.23,3.06,2.12,1.53L362,806l8.64,5.89c11.43,8,23.27,15.39,35,23l17.94,10.91,4.49,2.74,4.57,2.62,9.13,5.24,9.14,5.25c3,1.76,6.18,3.38,9.26,5.07l18.61,10.06"/><path class="cls-2" d="M322.64,807.8c4.65,5.85,9.46,11.55,14.27,17.34l3.62,4.33,1.83,2.16,1.86,2.1,7.5,8.41c5,5.6,10.07,11.27,15.35,16.64s10.49,10.91,15.85,16.27l21.72,5.71L410,882.2l5.44,1.32,10.83,2.65,10.76,2.67c3.57.89,7.21,1.65,10.8,2.49l21.49,4.94c-5.6-4.89-11.12-9.89-16.62-14.84-2.74-2.5-5.51-4.93-8.18-7.5l-8-7.69-7.93-7.7-3.94-3.86-3.85-4q-7.67-8-15.2-15.9c-13.67-4.23-27.62-8.28-41.37-12.9l-10.41-3.36-2.61-.84-2.58-.9-5.17-1.8C336.58,812.6,329.58,810.28,322.64,807.8Z"/><path class="cls-7" d="M437.47,962.51c-6.93-3.1-13.84-6.29-20.76-9.44-3.46-1.59-6.95-3.11-10.37-4.78l-10.3-5-10.3-5-5.15-2.51-5.09-2.63L355.1,922.6c-13.43-7.37-27-14.62-40.15-22.51L305,894.26l-2.49-1.46-2.45-1.52-4.9-3c-6.51-4.07-13.1-8.07-19.57-12.22l27.8-40.31c6.07,4.15,12.24,8.15,18.36,12.24l4.59,3,2.3,1.52L331,854l9.35,5.86c12.39,7.94,25.15,15.25,37.82,22.72l19.27,10.71,4.82,2.68,4.88,2.56,9.77,5.11,9.77,5.11c3.25,1.71,6.58,3.28,9.86,4.92,6.6,3.24,13.17,6.52,19.79,9.72"/><path class="cls-2" d="M289.49,855.86c5.14,5.86,10.44,11.55,15.73,17.33l4,4.31,2,2.16,2,2.09,8.22,8.38c5.51,5.57,11,11.22,16.76,16.54s11.42,10.81,17.24,16.12l23,5.52,5.72,1.38L390,931l11.46,2.52L412.82,936c3.79.84,7.62,1.55,11.41,2.33l22.66,4.61c-6-4.78-11.9-9.66-17.8-14.51-2.93-2.44-5.9-4.81-8.78-7.33l-8.63-7.56L403.11,906l-4.25-3.8-4.18-3.91q-8.34-7.85-16.53-15.7c-14.59-4.13-29.47-8.09-44.16-12.66l-11.13-3.33-2.79-.83-2.76-.9-5.53-1.78C304.4,860.66,296.92,858.34,289.49,855.86Z"/><path class="cls-5" d="M302.86,836.48l-18.09-12.67c-3-2.08-6-4.29-8.94-6.48L267,810.76l-8.87-6.58-8.71-6.78-8.71-6.78-4.36-3.39L232,783.74l-17.08-14c-5.65-4.72-11.19-9.55-16.79-14.32-2.79-2.41-5.61-4.76-8.36-7.21l-8.23-7.35-8.22-7.35c-2.75-2.44-5.49-4.89-8.17-7.41l8.54-9.24c2.63,2.52,5.33,5,8,7.41l8.1,7.35L198,739c2.7,2.44,5.49,4.79,8.23,7.19,5.51,4.77,11,9.6,16.53,14.31l16.82,14,4.22,3.48,4.28,3.39,8.58,6.78,8.57,6.78,8.73,6.57,8.74,6.56c2.91,2.19,5.81,4.4,8.8,6.48l17.8,12.67"/><path class="cls-7" d="M308.74,828l-17.83-12.67c-3-2.08-5.9-4.29-8.81-6.47l-8.75-6.57-8.74-6.57L256,788.89l-8.58-6.78-4.29-3.39-4.22-3.48-16.85-14c-5.56-4.72-11-9.55-16.55-14.32-2.75-2.4-5.53-4.75-8.24-7.19l-8.12-7.35-8.11-7.35c-2.71-2.44-5.42-4.89-8.06-7.41l37-40c2.47,2.53,5,5,7.54,7.41l7.58,7.33,7.58,7.34c2.54,2.44,5.13,4.78,7.69,7.17,5.15,4.75,10.26,9.58,15.45,14.28l15.7,13.91,3.93,3.47,4,3.38,8,6.75,8,6.76,8.14,6.55,8.15,6.55c2.71,2.18,5.41,4.39,8.2,6.46l16.62,12.66"/><path class="cls-2" d="M191.49,697.64c1.8,3.37,3.67,6.66,5.55,10l5.68,9.87,5.74,9.89c1.93,3.28,3.94,6.48,5.93,9.72,4,6.45,8,13,12.14,19.38s8.42,12.69,12.7,19c1.75.74,3.46,1.5,5.22,2.21l5.26,2.12,10.47,4.23,10.4,4.23,10.48,4,10.41,4c3.46,1.34,6.89,2.7,10.4,3.93l20.77,7.57q-6.88-8.87-13.6-17.71c-2.26-2.91-4.42-6-6.58-9L296,772c-2.13-3-4.26-6-6.36-9.07l-6.14-9.28-6.07-9.27-3-4.63-2.92-4.73-19.92-8.9c-6.64-3-13.24-6.18-19.94-9.26-3.33-1.56-6.71-3.07-10-4.68l-10-4.84-10.06-4.83C198.2,700.94,194.82,699.33,191.49,697.64Z"/><path class="cls-7" d="M275.59,876l-19.28-12.68c-3.23-2.09-6.37-4.3-9.53-6.5l-9.46-6.58-9.46-6.6-9.29-6.8-9.29-6.81-4.65-3.41-4.56-3.49-18.21-14c-6-4.73-11.92-9.57-17.88-14.36-3-2.4-6-4.78-8.9-7.22l-8.74-7.36-8.75-7.36c-2.92-2.45-5.84-4.9-8.67-7.42l37-40c2.67,2.52,5.41,5,8.16,7.41l8.21,7.35,8.22,7.35c2.74,2.44,5.57,4.8,8.35,7.2,5.59,4.77,11.13,9.61,16.77,14.32l17.06,14,4.27,3.48,4.35,3.39,8.7,6.79,8.7,6.78,8.86,6.58,8.86,6.56c3,2.19,5.89,4.4,8.93,6.48l18.06,12.68"/><path class="cls-2" d="M147.41,745.38c2,3.36,4.07,6.66,6.17,10l6.31,9.9,6.37,9.89c2.15,3.28,4.38,6.5,6.59,9.75,4.45,6.48,8.87,13,13.47,19.43s9.34,12.74,14.08,19.1c1.86.74,3.68,1.5,5.56,2.22l5.61,2.13L222.75,832l11.09,4.25,11.2,4,11.13,4c3.69,1.35,7.36,2.7,11.11,3.94l22.21,7.58q-7.59-8.85-15-17.71c-2.51-2.92-4.9-6-7.3-9L260,820.06c-2.37-3-4.75-6-7.08-9.1l-6.84-9.3-6.78-9.3-3.35-4.65L232.66,783l-21.28-9c-7.09-3-14.13-6.21-21.27-9.31-3.55-1.57-7.16-3.1-10.69-4.71l-10.63-4.84-10.69-4.86C154.52,748.68,150.93,747.07,147.41,745.38Z"/><path class="cls-5" d="M165.18,726.13l-16.15-15c-2.71-2.49-5.35-5-8-7.6l-7.94-7.64c-10.67-10.12-21-20.59-31.41-30.93-5.18-5.21-10.27-10.49-15.41-15.74S76,638.73,71,633.38l-15.18-16c-5.07-5.3-10-10.72-15-16.07L50.92,592c4.95,5.37,9.84,10.81,14.85,16.12l15,16c5,5.36,10.06,10.6,15.12,15.86s10.11,10.55,15.22,15.76c10.3,10.35,20.46,20.84,31,31l7.82,7.65c2.61,2.55,5.21,5.11,7.88,7.6l15.93,15"/><path class="cls-7" d="M173,717.66l-15.94-15c-2.67-2.49-5.27-5-7.89-7.6l-7.83-7.65c-10.53-10.12-20.7-20.61-31-30.95-5.11-5.22-10.15-10.51-15.23-15.76S84.93,630.19,80,624.83l-15-16c-5-5.31-9.91-10.75-14.87-16.12L94.15,552c4.7,5.43,9.35,10.94,14.1,16.3l14.2,16.13c4.71,5.42,9.51,10.69,14.29,16s9.56,10.63,14.38,15.87c9.7,10.38,19.3,21,29.17,31.07l7.36,7.67c2.45,2.56,4.9,5.14,7.4,7.61l14.93,15"/><path class="cls-2" d="M72.11,572.35c3,7.12,6,14.31,9.14,21.36s6.27,14.11,9.46,21.16,6.47,14,9.79,21,6.65,14,10.1,20.87c13.66,6.95,27.06,14,40.61,20.79l10.09,5.12c3.35,1.71,6.69,3.42,10.08,5.06l20.11,9.94q-5.4-10-10.69-20c-1.77-3.31-3.47-6.72-5.18-10.11l-5.07-10.17c-6.78-13.46-13.13-27.36-19.43-41.09l-19.58-10.83c-6.56-3.61-13.17-7.19-19.72-10.91Z"/><path class="cls-7" d="M128.92,765.4l-17.15-15c-2.88-2.49-5.67-5-8.47-7.58l-8.4-7.63c-11.31-10.11-22.17-20.51-33.22-30.81-5.47-5.18-10.83-10.42-16.26-15.63S34.58,678.32,29.29,673l-16-15.8C8,652,2.79,646.63-2.48,641.33l44.07-40.76c5,5.36,10,10.78,15,16.08l15.17,16c5,5.34,10.18,10.57,15.3,15.83S97.3,659,102.48,664.18c10.43,10.33,20.72,20.81,31.37,30.93l7.93,7.64c2.64,2.55,5.27,5.11,8,7.6l16.13,15"/><path class="cls-2" d="M19.55,621c3.33,7,6.61,14.15,10.07,21.14s6.92,14,10.43,21,7.14,13.92,10.8,20.85S58.18,697.78,62,704.65c14.39,6.91,28.47,13.92,42.8,20.65l10.66,5.1c3.54,1.7,7.06,3.4,10.65,5l21.32,9.94q-6-10-11.9-20c-2-3.32-3.87-6.71-5.76-10.09l-5.64-10.14c-7.57-13.46-14.6-27.27-21.63-41l-20.61-10.7C75,649.91,68,646.36,61.16,642.71Z"/><path class="cls-5" d="M40.75,601.36c-5-5.38-10-10.72-15-16.14L10.93,569l-7.42-8.12-7.35-8.18-14.71-16.36c-9.79-10.92-19.47-21.93-29.21-32.89l-29-33.05,11.43-9.91,28.72,33.2c9.63,11,19.22,22.07,28.9,33L6.84,543.11l7.27,8.21,7.34,8.15,14.67,16.3C41,581.2,46,586.55,50.92,592"/><path class="cls-7" d="M50.07,592.73c-4.94-5.39-9.92-10.74-14.81-16.17l-14.69-16.3-7.34-8.15L6,543.91-8.61,527.49c-9.7-11-19.29-22-28.93-33l-28.74-33.2,49.56-42.94,27.47,33.85c9.2,11.2,18.37,22.47,27.6,33.6l13.87,16.69,6.94,8.34,7,8.26,14,16.52c4.66,5.51,9.37,10.91,14.06,16.37"/><path class="cls-2" d="M-41.5,439.81q7.92,22.2,16.16,44.25c5.56,14.62,11.16,29.25,17,43.73L11.93,539l20.16,11.16,40,22.24c-3-7.12-6-14.2-8.83-21.39l-8.54-21.59-4.2-10.81-4.11-10.91-8.08-21.86c-13.15-7.66-26.34-15.41-39.67-23S-28,447.41-41.5,439.81Z"/><path class="cls-7" d="M-2.48,641.33C-7.72,636-13,630.73-18.2,625.39l-15.55-16-7.78-8-7.7-8L-64.61,577.2c-10.24-10.74-20.33-21.54-30.51-32.31l-30.24-32.41,49.55-42.94,29,33.07c9.73,11,19.4,22,29.19,32.9l14.69,16.36,7.35,8.19,7.41,8.12,14.82,16.25c4.95,5.42,10,10.76,15,16.14"/><path class="cls-2" d="M-100.59,491q8.69,21.81,17.68,43.46c6.09,14.39,12.2,28.76,18.58,43l21.1,10.86,21,10.87L19.55,621c-3.27-7-6.57-14.06-9.73-21.16L.42,578.48-4.22,567.8l-4.52-10.75-8.9-21.54c-13.7-7.45-27.4-14.94-41.26-22.33S-86.59,498.34-100.59,491Z"/><path class="cls-4" d="M1207.89,485.47c-173.93,365.8-196.61,669.74-696.76,783h1686V-36.88h-424C1548.58,3.15,1361.41,162.6,1207.89,485.47Z"/><path class="cls-5" d="M1470.26-26.29q8.54,2.23,16.77,4.23c5.5,1.39,10.93,2.75,16.26,4l15.77,3.62q7.79,1.72,15.34,3.19a471.16,471.16,0,0,0,58,8.27c-15,7.77-29.63,15.8-44.12,23.92l-10.75,6.2-5.36,3.1-5.28,3.18c-3.51,2.12-7,4.21-10.52,6.36L1506,46.3c-13.61,8.82-27,17.64-39.58,27.18L1461.67,77,1457,80.64l-4.63,3.64c-1.53,1.21-3.1,2.39-4.57,3.66l-9,7.51c-1.51,1.22-3,2.53-4.39,3.82l-4.33,3.87c.21-3,.46-6,.74-9s.59-6,1-8.92q1.18-8.81,2.81-17.51c.52-2.93,1.16-5.74,1.79-8.58s1.33-5.65,2-8.46,1.45-5.6,2.22-8.39,1.65-5.46,2.52-8.17c1.75-5.4,3.58-10.82,5.6-16.05s4.17-10.34,6.42-15.41L1457-1.16l1.77-3.7c1.19-2.45,2.41-4.89,3.66-7.3C1464.94-17,1467.54-21.77,1470.26-26.29Z"/><path class="cls-6" d="M1430.16,103.15l-8.13-1.34-8.23-1.24L1396.74,98c-11.5-1.55-23.68-3.31-36.13-4.72-6.24-.73-12.73-1.57-19.16-2.21l-19.88-2c-6.77-.69-13.54-1.26-20.54-1.91s-14.16-1.27-21.3-1.81c3.48-3,7.15-6,10.78-8.88s7.22-5.88,10.94-8.72l11.15-8.5c3.67-2.87,7.56-5.53,11.34-8.28,7.53-5.53,15.41-10.67,23.17-15.86,3.92-2.55,7.93-5,11.88-7.46,2-1.23,4-2.49,6-3.68l6.06-3.52,6-3.5c2-1.16,4-2.34,6.08-3.42l12.25-6.58c2-1.12,4.11-2.12,6.17-3.16l6.19-3.08,6.18-3.07,6.24-2.9c4.16-1.9,8.29-3.88,12.46-5.7l12.52-5.37,3.13-1.33L1451.4-19l6.28-2.5c4.19-1.65,8.37-3.33,12.58-4.83-2.72,4.52-5.32,9.31-7.81,14.13-1.25,2.41-2.47,4.85-3.66,7.3L1457-1.16l-1.71,3.79q-3.37,7.61-6.42,15.41c-2,5.23-3.86,10.65-5.6,16.05q-1.3,4.06-2.52,8.17c-.77,2.79-1.51,5.58-2.22,8.39s-1.39,5.63-2,8.46-1.27,5.65-1.79,8.58q-1.62,8.7-2.81,17.51c-.42,2.91-.73,5.92-1,8.92S1430.37,100.13,1430.16,103.15Z"/><path class="cls-5" d="M1315.27,250.2c-2.83-7.23-5.43-14.3-7.94-21.43s-4.87-14.24-7.06-21.28-4.15-14-6-21-3.58-13.91-5-20.73-2.8-13.68-4-20.48l-.85-5.1-.74-5q-.71-5-1.29-10.07c-.77-6.69-1.47-13.4-1.86-20s-.68-13.22-.8-19.8l-10.6,9c-3.56,3-7,6.09-10.46,9.14l-5.21,4.59-2.6,2.31-2.53,2.34-10.13,9.38c-3.43,3.11-6.7,6.28-10,9.45l-9.91,9.54c-6.45,6.41-12.9,12.87-19.23,19.38a892.4,892.4,0,0,0-70.11,81.24l49.85,2.24,48.07,2.3,45.66,2.13C1287.28,249,1301.57,249.72,1315.27,250.2Z"/><path class="cls-6" d="M1128.94,241.72l137.86,92.8c16.56-28.19,32.33-56.56,48.47-84.32-13.7-.48-28-1.17-42.75-1.81l-45.66-2.13-48.07-2.3Z"/><path class="cls-7" d="M1279.73,85.31q.18,9.87.8,19.8c.39,6.6,1.09,13.31,1.86,20q.58,5,1.29,10.07l.74,5,.85,5.1q1.77,10.2,4,20.48c1.44,6.82,3.17,13.77,5,20.73s3.85,14,6,21,4.57,14.17,7.06,21.28,5.11,14.2,7.94,21.43l12.33-20.58,6.31-10.09c2.11-3.36,4.19-6.78,6.39-10l6.55-9.85,1.64-2.47,1.68-2.4,3.37-4.81,3.38-4.82c1.13-1.59,2.24-3.25,3.42-4.77l7.07-9.29c2.33-3.14,4.78-6.11,7.21-9.12s4.83-6.09,7.34-9c5-5.83,10-11.75,15.31-17.32,5.15-5.76,10.61-11.13,16-16.66,2.74-2.7,5.56-5.32,8.35-8,1.4-1.32,2.78-2.68,4.2-4l4.33-3.85-8.13-1.34-8.23-1.24L1396.74,98c-11.5-1.55-23.68-3.31-36.13-4.72-6.25-.73-12.73-1.57-19.16-2.2L1321.57,89c-6.77-.69-13.54-1.26-20.54-1.91S1286.87,85.85,1279.73,85.31Z"/><path class="cls-5" d="M1017.33,426.58c34-3.68,67.75-6.44,101.27-8l12.49-.55,12.51-.41c8.33-.25,16.57-.45,24.82-.55,16.57-.17,32.86-.14,49.17.29-3.92,6.78-7.63,13.73-11.41,20.61l-5.53,10.44-2.76,5.23-2.69,5.28-5.36,10.57q-2.61,5.34-5.28,10.65c-1.79,3.53-3.49,7.13-5.23,10.71s-3.48,7.14-5.15,10.77c-6.83,14.4-13.37,29.06-19.81,43.83s-12.86,29.71-19.1,44.8q-30.9-39.12-60.73-79.87C1054.8,483.18,1035.6,455.29,1017.33,426.58Z"/><path class="cls-6" d="M1135.27,590.27c-33.1,4.12-66.27,9-99.43,14.32s-66,11.16-98.75,17.12q8.77-24.16,17.83-48.58c3-8.16,6.17-16.26,9.41-24.4s6.48-16.29,9.75-24.44,6.65-16.32,10.11-24.49,6.9-16.35,10.52-24.48c7.29-16.27,14.75-32.54,22.62-48.74,18.27,28.71,37.47,56.6,57.21,83.82S1114.67,564.19,1135.27,590.27Z"/><path class="cls-7" d="M1217.59,417.38c-16.31-.43-32.6-.46-49.17-.29-8.25.1-16.49.3-24.82.55l-12.51.41-12.49.55c-33.52,1.54-67.25,4.3-101.27,8,7.9-16.19,15.95-32.37,24.66-48.31l3.22-6,3.32-6,6.64-11.92c4.56-7.9,9-15.82,13.78-23.64,2.36-3.91,4.64-7.86,7.07-11.74l7.23-11.67c2.38-3.9,5-7.7,7.45-11.54l3.77-5.75,1.87-2.84,1.84-2.72c2.46-3.63,5-7.2,7.49-10.79s5-7.21,7.54-10.76c5.22-7.09,10.38-14.23,15.73-21.22,6.14,14.74,12.76,29.61,19.55,44.41s14.08,29.72,21.41,44.54Q1192,375.28,1217.59,417.38Z"/><path class="cls-5" d="M1059.72,777.57c-19.4-26.05-39.48-51.89-60-77.77s-41.62-51.87-62.61-78.09l-4.35,12c-1.47,4-2.89,8-4.28,12l-8.35,24q-8.31,23.9-16.66,47.41-8.13,23.56-16.49,46.7c-2.81,7.68-5.62,15.38-8.5,23l-8.56,22.81c30.11-4.5,61.28-9.49,93-15S1026.85,783.46,1059.72,777.57Z"/><path class="cls-6" d="M869.9,809.69l146.43,64,5.81-12,2.89-6,2.77-6c3.74-8,7.34-16.06,11-24.09q10.74-24.06,21-48c-32.87,5.89-65.19,11.72-96.86,17.17S900,805.19,869.9,809.69Z"/><path class="cls-6" d="M1128.94,241.72c6.14,14.74,12.76,29.61,19.55,44.41s14.08,29.72,21.41,44.54q22.08,44.61,47.69,86.71c2-3.39,3.84-6.84,5.85-10.2l6-10.11c1-1.69,2-3.35,3-5l3-5,3-5,1.53-2.54,1.63-2.62c2.16-3.49,4.25-7,6.38-10.56s4.27-7,6.33-10.6c4.17-7,8.43-14,12.48-21.16Z"/><path class="cls-7" d="M937.09,621.71c21,26.22,42.09,52.21,62.61,78.09s40.62,51.72,60,77.77q10-24,19.57-47.77l9.59-23.65c1.61-3.92,3.16-7.87,4.69-11.79l4.63-11.78q9.24-23.46,18.55-46.54c3.16-7.64,6.17-15.36,9.25-23s6.17-15.22,9.27-22.8c-33.1,4.12-66.27,9-99.43,14.32S969.79,615.75,937.09,621.71Z"/><path class="cls-5" d="M789.26,982.19c13.47-.4,27.4-.87,41.49-1.63s28.56-1.65,43.32-2.73c29.35-2.26,59.82-5.32,91.21-9.15q-14,23.36-29.07,46.18c-10.1,15.2-20.75,30.07-31.77,44.67s-22.58,28.8-34.64,42.57c-2.95,3.49-6,6.87-9.08,10.28s-6.08,6.82-9.26,10.1l-9.47,9.91c-1.56,1.66-3.16,3.29-4.78,4.9l-4.83,4.85c-.36-3.29-.73-6.58-1.14-9.87s-.85-6.59-1.36-9.92q-1.5-10-3.35-19.93c-1.21-6.62-2.7-13.37-4.23-20.05s-3.17-13.34-5-20.08-3.77-13.41-5.83-20.08-4.34-13.43-6.67-20.11c-1.17-3.34-2.38-6.68-3.59-10s-2.52-6.68-3.82-10C794.75,995.42,792.09,988.81,789.26,982.19Z"/><path class="cls-6" d="M832.37,1142.14c-57.16-1-108.47-4-152.84-4.79,2.57-3.11,5.16-6.2,7.78-9.24s5.09-6.21,7.64-9.3l3.8-4.66,1.89-2.33,1.85-2.37c2.46-3.16,4.9-6.32,7.39-9.43s4.87-6.31,7.3-9.47,4.85-6.29,7.17-9.52l7-9.64c2.4-3.15,4.63-6.43,6.94-9.64,9.23-12.85,17.84-26.09,26.44-39.26l6.32-10c2.07-3.34,4.08-6.73,6.13-10.09l3.06-5,3-5.07c2-3.39,4-6.74,6-10.14,2.83,6.62,5.49,13.23,8.09,19.9q1.95,5,3.82,10c1.21,3.32,2.42,6.66,3.59,10,2.33,6.68,4.59,13.41,6.67,20.11s4,13.37,5.83,20.08,3.49,13.39,5,20.08,3,13.43,4.23,20.05,2.35,13.29,3.35,19.93c.51,3.33,1,6.63,1.36,9.92S832,1138.85,832.37,1142.14Z"/><path class="cls-7" d="M965.28,968.68c-31.39,3.83-61.86,6.89-91.21,9.15-14.76,1.08-29.13,2-43.32,2.72s-28,1.24-41.49,1.64c3.87-6.85,7.81-13.64,11.51-20.59s7.48-13.85,11.17-20.8q10.84-21,20.85-42.57l4.91-10.85,2.44-5.43,2.37-5.48c1.56-3.67,3.22-7.27,4.78-11l4.7-11q9.25-22.17,17.91-44.81C907.12,861.18,939.71,914,965.28,968.68Z"/><path class="cls-5" d="M660,1271.61c1.94-4.75,3.78-9.58,5.46-14.55s3.15-10.19,4.54-15.41,2.69-10.5,3.75-16,2-11,2.88-16.66,1.5-11.39,2-17.22.91-11.75,1.19-17.69.32-12.07.28-18.18-.18-12.25-.56-18.54c-20.83,24.63-43,48.54-66.21,72.1-5.73,6-11.7,11.69-17.56,17.61l-4.43,4.41-4.51,4.32-9,8.77c-6,5.82-12.15,11.57-18.2,17.47s-12.35,11.53-18.42,17.56a142.92,142.92,0,0,1,25.6-6.47,236,236,0,0,1,28.4-3q7.41-.41,15.2-.45c2.59,0,5.22,0,7.87,0s5.29,0,8,.11c5.38.12,10.91.38,16.54.69S654.12,1271.15,660,1271.61Z"/><path class="cls-6" d="M869.9,809.69c37.22,51.49,69.81,104.33,95.38,159,9.26-15.58,18.23-31.3,26.65-47.19s16.57-31.84,24.4-47.82Z"/><path class="cls-7" d="M679.53,1137.35c.38,6.29.53,12.43.56,18.54s-.05,12.18-.28,18.18-.66,11.86-1.19,17.69-1.16,11.62-2,17.22-1.79,11.19-2.87,16.66-2.38,10.76-3.76,16-2.9,10.37-4.54,15.41-3.52,9.8-5.46,14.55c3.88-2.16,7.8-4.29,11.67-6.49l11.48-6.83c3.82-2.3,7.71-4.52,11.47-6.93s7.53-4.8,11.31-7.2,7.5-4.9,11.22-7.4,7.48-5,11.17-7.54l11-7.87c3.65-2.62,7.33-5.24,10.9-8s7.21-5.43,10.78-8.2,7.06-5.63,10.6-8.45c7.08-5.63,14-11.46,20.9-17.39,13.6-12,27.19-24.18,40-37.19C775.21,1141.19,723.9,1138.12,679.53,1137.35Z"/><path class="cls-7" d="M2021.2-83.28c-18.55,6.63-37.07,13.28-55.43,20.15s-36.61,13.91-54.71,21.05-36,14.59-53.6,22.31c-4.43,1.9-8.77,3.92-13.15,5.87l-6.56,3-6.49,3c-4.31,2-8.65,4-12.93,6.09l-12.78,6.28L1791-34.35l13.76-5.21c4.6-1.7,9.22-3.32,13.83-5l6.93-2.47,7-2.38c4.65-1.57,9.27-3.21,13.94-4.72,18.64-6.16,37.42-11.93,56.26-17.49s37.79-10.83,56.79-15.88,38-10,57.1-14.84"/><path class="cls-5" d="M1791.27-33.61C1773-26.49,1755-19,1737.19-10.79s-35.18,17-52.26,26.49-33.67,19.73-49.87,30.55l-6,4.1-3,2c-1,.69-2,1.42-3,2.12L1611.12,63c-7.78,5.87-15.6,11.67-23.14,17.85l-9-11.51c7.85-6.09,16-11.84,24-17.65l12.3-8.41c1-.7,2-1.41,3.08-2.09l3.13-2,6.26-4c16.74-10.69,33.85-20.8,51.41-30s35.45-17.8,53.59-25.76,36.58-15.12,55.14-21.91"/><path class="cls-7" d="M1788.19-41.82c-18.53,6.82-36.93,14.07-55.06,22s-36,16.56-53.47,25.82-34.59,19.38-51.28,30.08l-6.24,4-3.12,2c-1,.68-2,1.4-3.08,2.09l-12.26,8.42c-8,5.82-16.12,11.57-24,17.67l-39-49.84c4.62-2.85,9.16-5.76,13.85-8.49l13.9-8.34,14.1-8c1.17-.66,2.33-1.34,3.51-2l3.57-1.92,7.12-3.82c19-10.09,38.37-19.47,58-27.81s39.38-15.88,59.21-22.67,39.77-12.65,59.66-18.06"/><path class="cls-2" d="M1560.23,45.4c10.16-3.89,20.37-7.5,30.37-11.2l15.09-5.26c2.48-.91,5-1.73,7.52-2.56l7.5-2.5c20-6.58,39.76-12.67,59.43-18.14a519.2,519.2,0,0,1,48.46-36.35,581.17,581.17,0,0,1,52.31-30.61c-20.42,2.88-41.13,5.87-62.15,9.34s-42.32,7.45-64,12A505,505,0,0,0,1604.68,0l-5.89,5.39-2.92,2.71c-1,.91-1.91,1.85-2.87,2.78L1581.68,22C1574.35,29.72,1567.1,37.39,1560.23,45.4Z"/><path class="cls-7" d="M1805.55,4.46C1788.63,13,1772,21.78,1756,31.13s-31.6,19.24-46.62,29.58S1680,82.06,1666.05,93.49a490.06,490.06,0,0,0-39.82,36.26l-39-49.84c7.57-6.17,15.41-12,23.21-17.84l11.92-8.49c1-.71,2-1.43,3-2.12l3-2,6.07-4.09c16.25-10.82,32.88-21.08,50-30.51s34.6-18.22,52.37-26.43,35.9-15.65,54.17-22.74"/><path class="cls-2" d="M1606.73,104.83c17.2-8.45,34.42-16.24,51.62-23.54s34.25-14.3,51.41-20.86a466.53,466.53,0,0,1,41.65-40.11,534.5,534.5,0,0,1,46.86-35.26c-18.81,4.56-37.7,9.12-56.66,14s-38,10.13-57.16,15.74a451.92,451.92,0,0,0-42.1,42.55L1637.52,63l-2.4,2.84c-.79,1-1.55,1.93-2.33,2.9-3.1,3.88-6.14,7.79-9.15,11.69s-5.83,8-8.68,12S1609.43,100.7,1606.73,104.83Z"/><path class="cls-5" d="M1588,80.87q-22.79,18.28-44.06,38.37l-5.34,5-5.22,5.12c-3.46,3.42-7,6.79-10.4,10.26-6.8,7-13.66,13.92-20.25,21.11s-13.16,14.39-19.69,21.64c-3.26,3.63-6.4,7.37-9.6,11s-6.42,7.35-9.5,11.13c-6.2,7.52-12.53,14.93-18.52,22.62l-9.11,11.44-8.87,11.62-16.34-12.61,9.22-11.69,9.48-11.49c6.25-7.71,12.85-15.14,19.36-22.64,3.23-3.78,6.61-7.41,9.94-11.08s6.64-7.36,10.06-11c6.84-7.19,13.6-14.44,20.65-21.44,3.51-3.51,6.93-7.11,10.54-10.52l10.7-10.36c3.59-3.43,7.28-6.76,10.91-10.15l5.48-5,5.58-4.93,5.59-4.94c1.86-1.64,3.7-3.3,5.62-4.88l11.4-9.6c3.82-3.18,7.75-6.23,11.61-9.35,2-1.54,3.86-3.13,5.83-4.64l5.93-4.52"/><path class="cls-7" d="M1579.73,70.32l-5.91,4.52c-2,1.52-3.87,3.1-5.81,4.65-3.85,3.12-7.77,6.17-11.57,9.36l-11.36,9.6c-1.91,1.59-3.75,3.25-5.6,4.9l-5.57,4.93-5.56,4.94-5.46,5.06c-3.61,3.39-7.29,6.72-10.86,10.15l-10.67,10.37c-3.59,3.42-7,7-10.49,10.53-7,7-13.76,14.27-20.58,21.46-3.4,3.61-6.67,7.32-10,11s-6.68,7.31-9.9,11.08c-6.48,7.5-13.06,14.93-19.29,22.64L1421.63,227l-9.19,11.69L1341.62,184c3.47-4.08,7.13-8,10.69-12l5.51-5.89c1.83-2,3.67-3.92,5.56-5.83,3.76-3.85,7.44-7.74,11.32-11.49s7.76-7.48,11.64-11.22,7.8-7.32,11.8-10.87,7.9-7.13,12-10.63c8.2-6.94,16.33-13.86,24.78-20.58l6.27-5.07c2.07-1.69,4.2-3.36,6.35-5l12.84-9.86c4.29-3.26,8.71-6.43,13.06-9.64l6.53-4.78,6.67-4.68,6.61-4.7c2.21-1.57,4.39-3.15,6.66-4.65L1513.34,38c4.5-3,9.13-5.9,13.68-8.83l6.81-4.41,6.9-4.31"/><path class="cls-2" d="M1377,211.35c4.75-2.87,9.58-5.65,14.32-8.47l14.43-8.19c9.52-5.47,19.26-10.65,28.77-15.85,4.73-2.64,9.56-5.12,14.31-7.64s9.43-5.08,14.19-7.54c9.52-4.92,18.82-9.91,28.2-14.71,4.52-9.34,9.52-18.36,14.61-27.4,2.59-4.49,5.3-8.88,8-13.31,1.37-2.2,2.73-4.42,4.13-6.61l4.3-6.47,4.35-6.47c1.46-2.15,2.92-4.32,4.47-6.4q4.58-6.32,9.27-12.59c3.15-4.16,6.46-8.18,9.74-12.26,1.67-2,3.28-4.09,5-6.08l5.12-6-7.65,2.85-7.63,3c-5.09,2-10.31,3.87-15.44,5.88L1514,63.17c-2.63,1-5.18,2.07-7.77,3.12l-7.79,3.15-7.91,3.11-7.85,3.21-15.87,6.44-15.94,6.58c-2.68,1.1-5.36,2.21-8,3.35l-8,3.39c-6.12,9-11.74,18.16-17.26,27.42-2.72,4.65-5.26,9.39-7.84,14.11s-5.07,9.45-7.44,14.37c-4.82,9.73-9.44,19.54-13.59,29.58-2.12,5-4.12,10-6.12,15.07S1378.82,206.22,1377,211.35Z"/><path class="cls-7" d="M1626.23,129.75c-6.39,6.25-12.39,13-18.4,19.69l-8.85,10.2c-1.49,1.67-2.92,3.44-4.36,5.18l-4.31,5.21-4.25,5.25-4.16,5.39c-2.75,3.61-5.54,7.13-8.26,10.77-5.38,7.35-10.8,14.56-16,22.06-5.32,7.34-10.4,15-15.56,22.51-2.61,3.73-5.13,7.6-7.69,11.38s-5.21,7.54-7.63,11.33c-4.9,7.62-10.09,14.92-14.93,22.56-2.43,3.8-5,7.46-7.52,11.21s-4.84,7.62-7.4,11.32l-70.82-54.64,8.9-11.63,9.14-11.44c6-7.7,12.36-15.11,18.59-22.62,3.09-3.78,6.34-7.43,9.53-11.13s6.37-7.41,9.65-11c6.54-7.24,13-14.57,19.76-21.63s13.51-14.1,20.33-21.08c3.44-3.47,7-6.84,10.45-10.26l5.24-5.11,5.36-5q21.32-20.07,44.22-38.33"/><path class="cls-2" d="M1461.47,276.49c4.26-2.66,8.38-5.4,12.52-8.09s8.41-5.24,12.49-7.91c8.13-5.4,16.46-10.46,24.38-15.78,3.94-2.66,8.09-5.22,12-7.9s7.89-5.36,11.86-7.94,7.8-5.27,11.64-7.93l2.87-2,2.89-1.95,5.75-3.9c2.87-9.7,6.13-19.07,9.51-28.55,1.73-4.69,3.56-9.28,5.41-13.92.93-2.31,1.86-4.64,2.83-6.94s2-4.53,3-6.78a398.51,398.51,0,0,1,28.08-52.07c-17.19,8.31-34.42,17.16-51.89,26.36l-6.6,3.43-6.55,3.53-13.27,7c-8.8,4.83-17.83,9.54-26.79,14.48-4.41,9.3-8.37,18.91-12.24,28.47-1.94,4.78-3.72,9.68-5.52,14.52s-3.58,9.68-5.17,14.62c-3.23,9.84-6.46,19.53-9.22,29.5-1.4,5-2.84,9.86-4.19,14.79Z"/><path class="cls-5" d="M1427.42,250.22c-6,7.68-11.64,15.65-17.46,23.47l-2.16,2.94-2.11,3-4.22,6c-2.81,4-5.67,7.94-8.43,12-11,16.1-21.94,32.28-32.32,48.83-10.53,16.45-20.54,33.25-30.46,50.09-9.76,16.95-19.4,34-28.65,51.23l-18.24-9.81c9.29-17.46,19-34.71,28.81-51.9,10-17.09,20.08-34.14,30.71-50.88,2.65-4.18,5.25-8.4,7.95-12.55l8.16-12.44,4.08-6.22,4.19-6.14,8.41-12.28c2.83-4.07,5.75-8.08,8.63-12.13l4.33-6,2.17-3,2.23-3c6-7.93,11.83-15.94,18-23.7"/><path class="cls-7" d="M1412.44,238.67c-6.19,7.74-12,15.75-18,23.67l-2.22,3-2.17,3-4.32,6c-2.87,4-5.79,8.05-8.61,12.12l-8.4,12.26-4.18,6.13-4.08,6.21-8.15,12.42c-2.7,4.15-5.29,8.36-8,12.54-10.62,16.71-20.7,33.74-30.68,50.81-9.82,17.17-19.51,34.41-28.8,51.85l-79-42.51c9.44-18.32,19.37-36.56,29.47-54.75,10.29-18.15,20.72-36.28,31.78-54.21,2.77-4.48,5.46-9,8.29-13.45l4.25-6.69,4.34-6.63,4.34-6.63,4.47-6.59c2.94-4.41,6.06-8.7,9.11-13s6.3-8.58,9.44-12.87c1.59-2.13,3.23-4.23,4.85-6.34l2.43-3.17,2.5-3.13c6.63-8.38,13.4-16.62,20.49-24.68"/><path class="cls-2" d="M1245.38,417.46c16-14.42,32.39-28.46,48.86-42.18,16.63-13.63,33.31-27,50.42-39.67,1-5.18,2-10.42,3.11-15.59l3.36-15.59,1.72-7.82,1.84-7.79c1.22-5.21,2.51-10.4,3.79-15.62,5.33-20.76,11.33-41.51,18.55-61.85-19.07,11.32-37.91,23.28-56.31,35.94-4.56,3.18-9.19,6.35-13.68,9.63l-6.8,4.9-6.69,5-6.7,5-6.64,5.09c-4.42,3.4-8.73,6.87-13.1,10.34-4.62,22-8.51,43.89-12.19,65.56C1251.42,374.54,1248.15,396,1245.38,417.46Z"/><path class="cls-7" d="M1496.88,303.81c-2.52,3.72-5.06,7.42-7.48,11.24s-5,7.51-7.52,11.24-4.94,7.58-7.45,11.32-5.12,7.44-7.62,11.21c-10,15.16-20.34,30.07-30.32,45.44s-19.76,31-29.38,46.77-18.88,32-28,48.38l-79-42.52c9.26-17.27,18.9-34.31,28.67-51.28,9.92-16.87,19.94-33.68,30.47-50.16s21.32-32.78,32.36-48.9c2.77-4,5.64-8,8.45-12l4.23-6,2.11-3,2.17-2.95c5.84-7.83,11.49-15.8,17.51-23.49"/><path class="cls-2" d="M1339.61,468.15c15.81-13.37,31.91-26.22,48-38.69s32.54-24.36,49.12-35.61c.9-4.82,1.75-9.71,2.71-14.51l1.44-7.23,1.38-7.29,1.4-7.32,1.51-7.26c1-4.83,2-9.77,2.93-14.69s2.08-9.76,3.15-14.67,2-9.94,3.17-14.8,2.3-9.8,3.41-14.79,2.34-9.88,3.6-14.8c-4.23,2.66-8.49,5.31-12.66,8.08s-8.48,5.46-12.76,8.2l-3.22,2.06-3.17,2.1-6.37,4.22c-4.28,2.81-8.62,5.6-12.9,8.47-17,11.52-34.34,23.32-51.16,35.83-4.09,20.54-7.57,41.13-10.89,61.51C1345.18,427.46,1342.2,447.77,1339.61,468.15Z"/><path class="cls-5" d="M1301.61,447.71l-6.95,12.93-6.83,13-3.42,6.5-3.35,6.54-6.71,13.08q-6.61,13.13-13.16,26.29c-4.32,8.81-8.68,17.59-12.91,26.44l-6.4,13.25-6.31,13.3c-4.23,8.86-8.36,17.77-12.54,26.65q-12.46,26.7-24.74,53.52l-17.83-8.11q12.13-26.93,24.49-53.79c4.14-9,8.25-17.91,12.46-26.82l6.29-13.39,6.36-13.36c4.22-8.92,8.58-17.78,12.88-26.66s8.73-17.71,13.14-26.55l6.7-13.22,3.36-6.6,3.42-6.58,6.83-13.15,7-13.09"/><path class="cls-7" d="M1284.89,438.72l-7,13.07-6.84,13.14-3.42,6.57-3.35,6.6-6.71,13.21q-6.6,13.24-13.14,26.52c-4.3,8.88-8.66,17.73-12.88,26.65l-6.37,13.35-6.29,13.38c-4.21,8.91-8.32,17.87-12.46,26.81q-12.37,26.84-24.52,53.76l-77.28-35.17q11.56-27.35,23.46-54.93c4-9.2,8-18.37,12.11-27.56l6.16-13.77,6.27-13.8c4.14-9.19,8.46-18.4,12.71-27.6s8.67-18.41,13.06-27.62l6.69-13.8,3.35-6.91,3.42-6.89,6.87-13.79,7.1-13.73"/><path class="cls-2" d="M1143.3,634.2q21.59-22.87,43.68-45.51c7.39-7.53,14.77-15,22.28-22.48l11.23-11.15L1231.81,544c.91-10.45,2-20.88,2.94-31.38l3.18-31.54,1.72-15.83q.84-7.94,1.8-15.88l1.87-15.94,2.06-16-12,10.79-11.8,10.93-5.9,5.5-5.83,5.53-11.64,11.12q-11.54,11.16-23,22.48c-7.55,7.54-15.17,15.13-22.6,22.74l-1.34,16.14-1.25,16.07c-.88,10.7-1.61,21.35-2.37,32Z"/><path class="cls-7" d="M1379.13,489.41Q1365.44,513.91,1352,539q-6.66,12.59-13.26,25.23c-4.36,8.49-8.76,16.92-13.07,25.49-8.72,17-17.15,34.37-25.83,51.65s-17.19,34.79-25.76,52.37l-77.28-35.17q12.27-26.82,24.71-53.54c4.18-8.88,8.31-17.8,12.54-26.66l6.31-13.31,6.39-13.26c4.23-8.86,8.59-17.64,12.91-26.46s8.75-17.56,13.16-26.31l6.7-13.09,3.36-6.55,3.42-6.5,6.83-13,6.95-12.95"/><path class="cls-2" d="M1235.45,676.13q22.27-22.33,44.94-44.11c15.16-14.45,30.2-28.85,45.53-42.79L1329,559l3.29-30.24q3.43-30.19,7.28-60.6c-15.83,13.23-31.48,26.9-47,40.84q-11.56,10.5-23.07,21.18c-7.61,7.16-15.27,14.32-22.79,21.6Z"/><path class="cls-5" d="M1198.29,659.22C1181.9,695,1165.66,730.83,1149,766.56q-12.42,26.82-25.22,53.5c-8.56,17.77-17.21,35.51-26.15,53.12l-16.1-8c8.74-17.55,17.17-35.27,25.58-53s16.62-35.57,24.75-53.46c16.32-35.75,32.34-71.68,48.56-107.56"/><path class="cls-7" d="M1181.94,651.78c-16.23,35.88-32.27,71.8-48.61,107.55q-12.22,26.83-24.79,53.46c-8.42,17.74-16.88,35.45-25.63,53l-69.78-34.92c3.94-8.63,7.79-17.39,11.65-26.12l11.52-26.33c7.65-17.66,15.26-35.37,22.78-53.3l22.59-54,23-54.5"/><path class="cls-2" d="M1048,848.34c14.17-14.59,28.26-29.47,42.57-44.38l43-45.12c2-20.64,3.65-41.34,5.23-62.11s3.07-41.58,4.52-62.53q-21.55,22.75-42.63,45.54c-14,15.17-27.85,30.36-41.59,45.39-1.34,20.78-2.91,41.34-4.72,61.89l-1.44,15.36c-.48,5.12-1,10.27-1.49,15.36C1050.37,828,1049.28,838.19,1048,848.34Z"/><path class="cls-7" d="M1274.09,693.71l-25.79,53q-13,26.63-26.44,53.38c-8.89,17.83-18,35.75-27.19,53.66-4.63,9-9.28,17.92-14.08,26.86s-9.56,17.88-14.49,26.81l-69.77-34.92c8.92-17.6,17.55-35.34,26.1-53.11s16.91-35.62,25.18-53.5c16.6-35.73,32.82-71.59,49.2-107.36"/><path class="cls-2" d="M1131.21,890q22.82-22.38,45.52-45l45.37-45.32q4-30.93,7.31-61.75t6-61.73c-14.82,14.78-29.53,29.74-44.16,44.73s-29.2,30-43.68,45q-3.12,31.1-7.12,62.09C1137.8,848.67,1134.76,869.32,1131.21,890Z"/><path class="cls-5" d="M1097.67,873.18c-8.86,17.65-18.06,35.14-27.42,52.56-4.77,8.66-9.43,17.37-14.36,26l-7.32,12.91-7.5,12.81-3.76,6.4-3.85,6.34-7.72,12.69-7.92,12.57c-1.33,2.09-2.63,4.19-4,6.27l-4.08,6.21-8.18,12.41-8.41,12.26c-1.41,2-2.79,4.1-4.23,6.12l-4.34,6c-2.9,4-5.75,8.08-8.69,12.07l-12.82-9.35c2.85-4,5.62-8,8.44-12l4.2-6c1.4-2,2.73-4,4.1-6.07l8.16-12.16,8-12.31,4-6.16c1.31-2.06,2.58-4.15,3.87-6.23l7.7-12.47,7.51-12.6,3.75-6.3,3.66-6.36,7.29-12.72,7.13-12.84c4.79-8.53,9.33-17.2,14-25.81,9.13-17.33,18.11-34.74,26.77-52.33"/><path class="cls-7" d="M1082.91,865.8c-8.68,17.59-17.68,35-26.82,52.35-4.67,8.61-9.22,17.29-14,25.83l-7.14,12.83-7.31,12.74-3.67,6.36-3.75,6.31-7.53,12.6-7.72,12.48c-1.29,2.08-2.56,4.17-3.88,6.23l-4,6.16-8,12.33-8.19,12.16c-1.37,2-2.7,4.08-4.11,6.08l-4.21,6c-2.83,4-5.6,8-8.46,12l-55.55-40.48c9.83-15.33,19.45-30.81,28.57-46.8l3.49-5.94c1.15-2,2.26-4,3.39-6l6.77-12.06,6.61-12.22,3.3-6.11,3.22-6.19L970.39,920l6.29-12.52c2.1-4.18,4.19-8.35,6.23-12.59l6.21-12.63c8.17-17,16.22-34,24-51.39"/><path class="cls-2" d="M936.38,1048c3.85-3,7.63-6.19,11.48-9.3l5.77-4.68c1.93-1.56,3.8-3.18,5.72-4.78l11.49-9.61,11.41-9.83,5.76-4.93,5.69-5,11.44-10.09,11.36-10.27,5.72-5.16,5.66-5.22,3.24-15,3-15c1-5,1.92-10,2.78-15.06l2.61-15.06c3.27-20.16,6.17-40.3,8.55-60.61-14,14.57-28.17,28.84-42.16,42.9l-10.54,10.45c-3.46,3.5-7,6.93-10.47,10.36l-10.42,10.26L964,932.39l-1.25,7.36L961.36,947c-.91,4.86-1.83,9.75-2.8,14.61l-3.08,14.51c-.53,2.42-1.05,4.86-1.6,7.27l-1.72,7.2C947.69,1010,942.34,1029,936.38,1048Z"/><path class="cls-7" d="M1166.1,907.43c-9.72,17.87-19.86,35.71-30.16,53.49-5.26,8.88-10.41,17.77-15.92,26.56l-8.16,13.21-8.36,13.16-4.2,6.57L1095,1027l-8.62,13.06-8.86,13c-1.48,2.15-2.94,4.32-4.44,6.47l-4.57,6.43c-3,4.29-6.08,8.57-9.19,12.82l-9.48,12.68c-1.59,2.11-3.14,4.23-4.76,6.32l-4.89,6.27c-3.27,4.17-6.49,8.36-9.81,12.5L974.84,1076c2.93-4,5.78-8,8.68-12.06l4.32-6c1.44-2,2.81-4.07,4.22-6.11l8.39-12.25,8.16-12.4,4.07-6.21c1.34-2.08,2.64-4.18,4-6.27l7.9-12.56,7.7-12.68,3.85-6.34,3.75-6.4,7.48-12.8,7.31-12.9c4.91-8.57,9.56-17.29,14.33-25.94,9.33-17.41,18.51-34.9,27.36-52.54"/><path class="cls-2" d="M1002.61,1096.25c4.3-3.24,8.52-6.55,12.83-9.83l6.45-5c2.15-1.66,4.23-3.35,6.36-5l12.8-10.13L1053.7,1056l6.35-5.2,6.25-5.26,12.59-10.59,12.46-10.73,6.27-5.39,6.18-5.44,4.29-15.39,4-15.42c2.68-10.25,4.94-20.57,7.26-30.85,4.43-20.6,8.46-41.16,11.88-61.74-15.1,14.85-30.34,29.54-45.5,44-7.68,7.21-15.18,14.45-22.9,21.53l-11.45,10.64-11.51,10.5c-.59,2.52-1.16,5-1.78,7.56l-1.9,7.53c-1.28,5-2.55,10.05-3.89,15.07l-4.22,15c-.72,2.5-1.42,5-2.17,7.51l-2.31,7.47c-1.55,5-3.1,10-4.73,15l-5.12,14.86c-.88,2.48-1.72,5-2.64,7.44l-2.78,7.38C1006.43,1086.39,1004.58,1091.34,1002.61,1096.25Z"/><path class="cls-5" d="M975.91,1076.79c-6,7.9-11.83,15.93-18.07,23.65-3.09,3.88-6.1,7.82-9.26,11.65l-9.53,11.45c-3.13,3.85-6.46,7.53-9.72,11.27l-4.91,5.6c-1.63,1.88-3.27,3.74-5,5.54l-10.13,10.93-2.53,2.73-2.61,2.66-5.22,5.32c-3.5,3.52-6.89,7.15-10.52,10.55l-10.76,10.32c-1.77,1.74-3.63,3.38-5.48,5l-5.53,5c-3.7,3.32-7.34,6.7-11.18,9.86L844.1,1218c-3.82,3.18-7.77,6.2-11.65,9.31l-5.84,4.62c-1.94,1.56-4,3-6,4.47l-12,8.85L801,1234.68l11.64-8.84c1.92-1.49,3.9-2.9,5.78-4.46l5.67-4.6c3.76-3.1,7.59-6.1,11.3-9.26l11-9.58c3.72-3.14,7.25-6.5,10.83-9.8l5.36-5c1.78-1.66,3.59-3.29,5.3-5,6.94-6.84,14-13.59,20.62-20.71l5.06-5.27,2.53-2.64,2.45-2.71,9.81-10.83c1.65-1.79,3.24-3.64,4.82-5.49l4.76-5.55c3.15-3.72,6.39-7.36,9.42-11.18l9.22-11.35c3.07-3.79,6-7.7,9-11.54,6-7.65,11.7-15.61,17.52-23.45"/><path class="cls-7" d="M964.16,1068.22c-5.83,7.84-11.5,15.81-17.57,23.46-3,3.85-5.93,7.76-9,11.55l-9.25,11.36c-3,3.82-6.28,7.47-9.44,11.19l-4.77,5.55c-1.59,1.86-3.18,3.71-4.84,5.5l-9.83,10.84-2.46,2.71-2.54,2.64-5.07,5.28c-6.67,7.12-13.72,13.87-20.67,20.72-1.72,1.73-3.53,3.36-5.32,5l-5.38,5c-3.59,3.31-7.13,6.67-10.86,9.81l-11.06,9.58c-3.71,3.16-7.55,6.17-11.32,9.26l-5.69,4.61c-1.88,1.56-3.87,3-5.79,4.46l-11.67,8.84-33.23-45.77c6.71-5.91,13.56-11.58,20-17.72,3.27-3,6.6-6,9.81-9.07l9.55-9.36c3.22-3.05,6.26-6.33,9.35-9.55l4.63-4.82c1.54-1.61,3.1-3.19,4.57-4.87,6-6.68,12-13.17,17.79-20l4.37-5.08,2.19-2.53,2.11-2.62,8.47-10.43c.7-.88,1.42-1.73,2.11-2.62l2-2.67,4.1-5.35c2.72-3.58,5.51-7.07,8.12-10.77l8-10.93c2.67-3.63,5.2-7.4,7.81-11.09,5.24-7.32,10.16-15,15.2-22.53"/><path class="cls-2" d="M785,1212.67l13.1-6c2.19-1,4.44-2,6.6-3l6.53-3.18,6.58-3.17c2.19-1.07,4.44-2.07,6.59-3.22l13.1-6.73c4.44-2.2,8.71-4.63,13.08-7l6.56-3.56c2.2-1.18,4.4-2.37,6.54-3.64l13-7.49,3.29-1.88,3.23-2,6.49-3.93,3.61-6.62c.59-1.1,1.2-2.19,1.78-3.31l1.7-3.37,6.7-13.47c1.13-2.22,2.16-4.51,3.2-6.79l3.1-6.83c2-4.56,4.12-9.06,6-13.71l5.64-13.82c1.84-4.6,3.53-9.31,5.27-13.94,3.51-9.22,6.55-18.74,9.65-28.07-7.75,6-15.26,12.1-23,17.82-3.86,2.89-7.63,5.84-11.5,8.65l-11.53,8.41c-3.77,2.85-7.7,5.49-11.53,8.21l-5.75,4-2.86,2c-1,.67-1.94,1.31-2.91,2l-11.55,7.76-2.86,1.94-2.92,1.86-5.81,3.71c-3.87,8.7-8.18,17.06-12.49,25.61-1.07,2.16-2.22,4.21-3.37,6.3l-3.46,6.24c-2.34,4.17-4.65,8.41-7.18,12.43l-7.56,12.25c-2.58,4.06-5.32,8-8,12l-4.1,6c-1.36,2-2.83,3.9-4.25,5.86Z"/><path class="cls-7" d="M1030.38,1116.49c-6.76,8.22-13.34,16.51-20.37,24.56-3.49,4-6.89,8.12-10.46,12.1L988.76,1165c-3.55,4-7.33,7.81-11,11.69l-5.56,5.81-2.79,2.89c-.93,1-1.9,1.9-2.85,2.85l-11.47,11.32-2.87,2.83-3,2.76-5.91,5.51-5.9,5.51c-1,.91-2,1.84-3,2.73l-3,2.68-12.2,10.62c-2,1.79-4.12,3.48-6.21,5.2l-6.27,5.13c-4.18,3.41-8.31,6.87-12.65,10.11l-12.86,9.85c-4.31,3.25-8.76,6.33-13.14,9.5l-6.59,4.7c-2.19,1.57-4.49,3-6.73,4.51l-13.52,8.91L808,1244.36l12-8.85c2-1.49,4-2.91,5.95-4.47l5.83-4.62c3.86-3.11,7.81-6.12,11.61-9.3l11.36-9.62c3.82-3.16,7.46-6.54,11.14-9.86l5.52-5c1.84-1.67,3.7-3.31,5.47-5.05l10.72-10.31c3.63-3.39,7-7,10.5-10.54l5.21-5.32,2.6-2.66,2.53-2.73,10.1-10.92c1.7-1.8,3.34-3.66,5-5.53l4.9-5.6c3.25-3.74,6.58-7.42,9.7-11.27l9.5-11.44c3.15-3.82,6.15-7.76,9.24-11.63,6.22-7.72,12-15.74,18-23.64"/><path class="cls-2" d="M824.63,1267.25l15-6.07c2.49-1,5.06-2,7.53-3.09l7.44-3.26,7.49-3.29c2.49-1.11,5.06-2.16,7.5-3.35l14.91-7c5-2.3,9.91-4.83,14.88-7.29l7.46-3.73c2.5-1.24,5-2.49,7.43-3.81l14.82-7.87,3.72-2,3.65-2.07,7.32-4.15,4.44-6.85c.73-1.15,1.48-2.28,2.2-3.44l2.1-3.49,8.33-13.94c1.4-2.31,2.7-4.68,4-7l3.9-7.08c2.57-4.72,5.18-9.4,7.55-14.21l7.17-14.32c2.33-4.79,4.49-9.67,6.7-14.49,4.49-9.62,8.43-19.46,12.46-29.17-8.68,6.37-17.1,12.8-25.84,18.92-4.35,3.08-8.58,6.2-12.95,9.2l-13.07,8.93c-4.28,3-8.76,5.83-13.12,8.7l-6.54,4.3c-2.17,1.43-4.34,2.85-6.57,4.22l-13.19,8.25-3.27,2-3.34,2-6.64,4c-2.55,4.43-5,9-7.76,13.31l-8.17,13.12c-1.35,2.21-2.81,4.33-4.25,6.46l-4.36,6.42c-2.93,4.27-5.84,8.61-9,12.73l-9.36,12.51c-3.18,4.15-6.53,8.14-9.83,12.21l-5,6.08c-1.67,2-3.45,3.94-5.18,5.92Z"/><path class="cls-7" d="M801.62,1235.56c-3.93,2.89-8,5.65-11.93,8.48l-6,4.22c-2,1.41-4.06,2.69-6.09,4l-12.24,8c-4.11,2.63-8.33,5.09-12.48,7.65-8.27,5.2-16.9,9.78-25.39,14.6-2.11,1.22-4.29,2.32-6.46,3.43l-6.52,3.36-6.51,3.35-3.26,1.68-3.31,1.56c-8.85,4.12-17.61,8.47-26.65,12.18l-13.48,5.77-13.67,5.32-6.83,2.66c-2.27.91-4.61,1.65-6.91,2.48l-13.85,4.84-3.46,1.22c-1.16.4-2.33.74-3.5,1.11l-7,2.19-14,4.39L581,1299.51l12.89-5.35,6.43-2.66c1.07-.44,2.15-.85,3.21-1.32l3.17-1.41,12.66-5.62c2.09-1,4.23-1.82,6.29-2.86l6.2-3,12.37-6c4.06-2.11,8.07-4.32,12.13-6.4,8.17-4,16-8.7,23.92-13.1l3-1.67,2.9-1.78,5.8-3.54,5.78-3.53c1.93-1.18,3.87-2.33,5.73-3.61,7.5-5,15.12-9.79,22.35-15.15,14.72-10.28,28.82-21.32,42.56-32.68"/></g><path class="cls-6" d="M1660.43,596.13a1.29,1.29,0,0,1-1.31-1.43l.54-5.86a1.56,1.56,0,0,1,1.58-1.43,1.28,1.28,0,0,1,1.27,1.43l-.54,5.86A1.52,1.52,0,0,1,1660.43,596.13Zm7.63-18.16a1.11,1.11,0,0,1,1.16-1.31,1.39,1.39,0,0,1,1.5,1.31l.62,5.4a1.13,1.13,0,0,1-1.19,1.31h-.58a.79.79,0,0,1-.85-.74.51.51,0,0,0-.39-.34l-.65,0a1,1,0,0,0-.85.89V596.9a1.46,1.46,0,0,1-1.5,1.5,1.44,1.44,0,0,1-1.51-1.5V584.64a.94.94,0,0,0-.84-.85l-1.47.08a1.5,1.5,0,0,1-1.31-2.28l2.16-3.93a1.19,1.19,0,0,0-.16-1.31l-1.42-1.35a3.46,3.46,0,0,1-.58-4.28l2.62-4.28a3,3,0,0,1,2.62-1.54.86.86,0,0,1,.81,1.31l-3.35,5.63a1.26,1.26,0,0,0,.15,1.39l.5.46a.87.87,0,0,0,1.16-.12l.77-1.54a2.9,2.9,0,0,1,2.51-1.43,1,1,0,0,1,.77,1.47l-4.47,8.06a.52.52,0,0,0,.5.73l2.7-.08a.83.83,0,0,0,.77-.88Zm.16,11.72a1.33,1.33,0,0,1,1.35-1.39,1.46,1.46,0,0,1,1.5,1.39l.19,3.31a1.32,1.32,0,0,1-1.35,1.43,1.46,1.46,0,0,1-1.5-1.43Zm5.82,6.94a1.1,1.1,0,0,1-1.08-1.35l.73-3.51a1.73,1.73,0,0,1,1.66-1.39,1.12,1.12,0,0,1,1.08,1.39l-.69,3.51A1.75,1.75,0,0,1,1674,596.63Zm14.11-30a2.71,2.71,0,0,1,2.74,2.74V581a2.7,2.7,0,0,1-2.74,2.74h-11.53a2.69,2.69,0,0,1-2.73-2.74v-11.6a2.7,2.7,0,0,1,2.73-2.74h2.05a.93.93,0,0,0,.81-.57l.19-.51a2.38,2.38,0,0,1,2.16-1.38,1,1,0,0,1,.92,1.42l-.19.47a.44.44,0,0,0,.38.57Zm-.62,14.46a.81.81,0,0,0,.81-.77V570a.83.83,0,0,0-.81-.81h-10.25a.83.83,0,0,0-.81.81v10.29a.81.81,0,0,0,.81.77Zm-8.4,6.25a1.41,1.41,0,0,1,1.46,1.46v5.75a.84.84,0,0,0,.81.77h5.75a1.47,1.47,0,0,1,0,2.93h-6.75a2.71,2.71,0,0,1-2.74-2.74V588.8A1.42,1.42,0,0,1,1679.13,587.34Zm-1-8a1.9,1.9,0,0,1,1-1.7l1.85-.89a.63.63,0,0,0,.23-1l-.81-1a.17.17,0,0,0-.19,0,.71.71,0,0,1-.47.23h-1.08a.62.62,0,0,1-.5-1l.39-.46a.75.75,0,0,0,0-.88l-.5-.54a.62.62,0,0,1,.42-1.05h1a1,1,0,0,1,.66.27c0,.08.11.08.19,0l.16-.19a2.75,2.75,0,0,1,2.08-1H1685a1.9,1.9,0,0,1,1.77,2.62l-1.39,3.39a1.16,1.16,0,0,0,.27,1.27l.85,1a.59.59,0,0,1-.42,1,3.28,3.28,0,0,1-2.47-1.08l-.08-.12a.57.57,0,0,0-.69-.11l-3.62,1.77A.7.7,0,0,1,1678.13,579.36Zm6.86,10.71a3.12,3.12,0,0,1-2.59-1.42l-.69-1a.83.83,0,0,1,.69-1.32,3.07,3.07,0,0,1,2.59,1.39l.77,1A.88.88,0,0,1,1685,590.07Zm-2.2-17.69a1,1,0,0,0-.81.35.63.63,0,0,0,0,.8l1,1.08a.51.51,0,0,0,.85-.15l.54-1.35a.55.55,0,0,0-.54-.73Zm6.59,15.92a2,2,0,0,1,1.89,1.39l1.27,4.28a1.06,1.06,0,0,1-1,1.38,2,2,0,0,1-1.89-1.38l-1.27-4.28A1.07,1.07,0,0,1,1689.38,588.3Z"/><path class="cls-6" d="M1714.4,585.83a1.59,1.59,0,0,1,1.62,1.62v.81a.71.71,0,0,0,.73.69h12.57a1.55,1.55,0,0,1,0,3.09h-8.75a.32.32,0,0,0-.2.54L1726,597a.86.86,0,0,1-.54,1.58,7.48,7.48,0,0,1-4.74-1.66l-5.63-4.39a1,1,0,0,0-1.23,0l-5.28,4.35a7,7,0,0,1-4.55,1.66.93.93,0,0,1-.54-1.58l5.28-4.39a.34.34,0,0,0-.23-.58h-9.41a1.55,1.55,0,0,1,0-3.09h13a.69.69,0,0,0,.69-.69v-.81A1.62,1.62,0,0,1,1714.4,585.83Zm-14.88-7.9a1.3,1.3,0,0,1-1.31-1.31v-.16a1.44,1.44,0,0,1,1.46-1.46H1704a.83.83,0,0,0,.77-.81v-1.62a.87.87,0,0,0-.77-.81h-2.43a2.76,2.76,0,0,1-2.77-2.77v-1.43a1.49,1.49,0,0,1,3,0v.62a.59.59,0,0,0,.61.57H1704a.79.79,0,0,0,.77-.77v-1.65a1.51,1.51,0,1,1,3,0V584.1a1.51,1.51,0,0,1-3,0v-5.28a.83.83,0,0,0-.77-.81h-.19a.94.94,0,0,0-.93.77l-.81,4.62a1.81,1.81,0,0,1-1.77,1.51,1.28,1.28,0,0,1-1.27-1.51l.88-5.09A.35.35,0,0,0,1699.52,577.93Zm27-1.74a.58.58,0,0,0,.54.54h2.78a1.47,1.47,0,0,1,0,2.93h-2.51a.91.91,0,0,0-.81.81v4.4a1.47,1.47,0,0,1-2.93,0v-4.4a.87.87,0,0,0-.81-.81h-10.94a1.47,1.47,0,1,1,0-2.93H1723a.58.58,0,0,0,.54-.54V576a1.47,1.47,0,0,1,2.93,0Zm.89-11.29a1.35,1.35,0,0,1,1,2.2l-3.39,4.24a7.9,7.9,0,0,1-4.47,2.77l-8.18,1.78a1.09,1.09,0,0,1-1.31-1.08,1.65,1.65,0,0,1,1.31-1.62l2-.43a.43.43,0,0,0,.23-.73l-1.31-1.43a.35.35,0,0,0-.42,0,.63.63,0,0,1-.93-.54v-.39a2.62,2.62,0,0,1,1.27-2.23l2-1.12a10.26,10.26,0,0,1,5.2-1.39Zm-12.22,17.15a.94.94,0,0,1,.77-1.5,4,4,0,0,1,3.16,1.5l.73.93a.94.94,0,0,1-.73,1.54,4.15,4.15,0,0,1-3.2-1.54Zm1-13.3a.59.59,0,0,0-.15.93l1.58,1.77a1.24,1.24,0,0,0,1.23.39l.89-.19a.38.38,0,0,0,.19-.66l-2.27-2.24a1,1,0,0,0-1.16-.15Zm7.94,18.82a.56.56,0,0,1-.38,1h-1.85a3.92,3.92,0,0,1-2.58-1,.61.61,0,0,1,.34-1h1.89A3.78,3.78,0,0,1,1724.07,587.57Zm-1.92-18a.7.7,0,0,0,1-.07l1.12-1.39a.36.36,0,0,0-.27-.58h-3.16a.29.29,0,0,0-.2.5Z"/><path class="cls-6" d="M1753.06,569.91a1,1,0,0,0-1.19,0l-9.1,6.94a8,8,0,0,1-4.9,1.66,1,1,0,0,1-.54-1.66l12.92-9.91a3.77,3.77,0,0,1,4.47,0l13.3,9.95a.93.93,0,0,1-.58,1.66,8.33,8.33,0,0,1-5-1.66Zm1.77,16.42a.76.76,0,0,0-.73.74v6a.76.76,0,0,0,.73.73h10.26a1.68,1.68,0,0,1,1.66,1.7,1.66,1.66,0,0,1-1.66,1.66h-25.25a1.65,1.65,0,0,1-1.66-1.66,1.68,1.68,0,0,1,1.66-1.7h10.25a.76.76,0,0,0,.74-.73v-6a.77.77,0,0,0-.74-.74h-6.9a1.68,1.68,0,0,1-1.69-1.69,1.65,1.65,0,0,1,1.69-1.66h6.9a.77.77,0,0,0,.74-.77v-2.43a.77.77,0,0,0-.74-.77h-3.58a1.68,1.68,0,0,1-1.7-1.66,1.72,1.72,0,0,1,1.7-1.7h11.91a1.72,1.72,0,0,1,1.7,1.7,1.68,1.68,0,0,1-1.7,1.66h-3.59a.77.77,0,0,0-.73.77v2.43a.77.77,0,0,0,.73.77h6.91a1.68,1.68,0,0,1,1.69,1.66,1.71,1.71,0,0,1-1.69,1.69Zm-11.14,1.74a2.81,2.81,0,0,1,2.59,1.66l.46,1a1.21,1.21,0,0,1-1.08,1.7,2.87,2.87,0,0,1-2.62-1.7l-.43-1A1.16,1.16,0,0,1,1743.69,588.07Zm16.23,4.32a1.22,1.22,0,0,1-1.11-1.7l.42-1a2.74,2.74,0,0,1,2.54-1.66,1.2,1.2,0,0,1,1.12,1.66l-.42,1A2.74,2.74,0,0,1,1759.92,592.39Z"/><path class="cls-5" d="M1397.46,574.92c0-6.14,4.61-11,10.49-10.74a10.81,10.81,0,0,1,10.75,10.74v52.47a3.39,3.39,0,0,0,3.33,3.33h61.42a3.63,3.63,0,0,0,3.59-3.33V574.92a10.48,10.48,0,0,1,10.74-10.74,10.6,10.6,0,0,1,10.5,10.74V726.69a10.77,10.77,0,0,1-10.5,10.75A10.64,10.64,0,0,1,1487,726.69V654a3.63,3.63,0,0,0-3.59-3.33h-63a23.16,23.16,0,0,1-23-23.29Z"/><path class="cls-5" d="M1608.33,737.18h-67.82a18,18,0,0,1-17.66-17.66V581.84c0-9.48,8.19-17.41,17.66-17.41H1614c9,0,16.89,7.93,16.89,17.41V713.9C1630.85,726.44,1620.36,737.18,1608.33,737.18ZM1543.83,587V714.41a3.24,3.24,0,0,0,3.59,3.58h58.86c2,0,3.33-1.28,3.33-3.58V587c0-2.05-1.28-3.07-3.33-3.07h-58.86C1545.11,583.88,1543.83,584.9,1543.83,587Z"/><path class="cls-6" d="M1740.63,618.74a1.69,1.69,0,0,0,1.29,1.43h26.31a5.29,5.29,0,1,1,0,10.58h-26.31a1.53,1.53,0,0,0-1.29,1.29,3.53,3.53,0,0,1-3.72,3.72h-3.29a3.46,3.46,0,0,1-3.72-3.72,1.52,1.52,0,0,0-1.28-1.29h-29.75a1.53,1.53,0,0,0-1.29,1.29,3.45,3.45,0,0,1-3.71,3.72h-3.29a3.53,3.53,0,0,1-3.72-3.72,1.53,1.53,0,0,0-1.29-1.29h-26.31a5.29,5.29,0,1,1,0-10.58h26.17a1.43,1.43,0,0,0,1.43-1.43,3.67,3.67,0,0,1,3.86-3.86h2.86a3.71,3.71,0,0,1,4,3.86,1.67,1.67,0,0,0,1.43,1.43h29.47a1.42,1.42,0,0,0,1.42-1.43,3.68,3.68,0,0,1,3.87-3.86h2.86A3.71,3.71,0,0,1,1740.63,618.74Zm-18.31,64.07a3.1,3.1,0,0,0-3,2.86V688a3,3,0,0,0,3,2.86h33.61a10.13,10.13,0,0,1,10.16,10.29v30.75a5.51,5.51,0,1,1-11,0v-26.6a3.12,3.12,0,0,0-3-3h-29.75a3.12,3.12,0,0,0-3,3V710a3,3,0,0,0,3,2.86l9.16-.43a1,1,0,0,0,.86-1.14,3,3,0,0,1,3-3.58h2.29a7.85,7.85,0,0,1,7.58,5.87l2.14,8.15a4.53,4.53,0,0,1-4.43,5.86h-2a5.37,5.37,0,0,1-5-3.86,1.5,1.5,0,0,0-1.43-1.14l-49,1.57a4.92,4.92,0,0,1-5.15-5,5.07,5.07,0,0,1,5.15-5.29l19.88-.57a3.12,3.12,0,0,0,3-3v-5a3.12,3.12,0,0,0-3-3h-29.75a3.12,3.12,0,0,0-3,3v26.46a5.58,5.58,0,1,1-11.16,0V701.11a10.13,10.13,0,0,1,10.15-10.29h33.76a3,3,0,0,0,3-2.86v-2.29a3.1,3.1,0,0,0-3-2.86h-22.6a10.26,10.26,0,0,1-10.3-10.3V651.77a10.16,10.16,0,0,1,10.3-10.29h62.07a10.16,10.16,0,0,1,10.3,10.29v20.74a10.26,10.26,0,0,1-10.3,10.3Zm-14-29a3,3,0,0,0-3-2.86h-20.46a2.86,2.86,0,0,0-2.85,2.86v.57a3,3,0,0,0,2.85,2.86h20.46a3.1,3.1,0,0,0,3-2.86ZM1682,670.37a2.86,2.86,0,0,0,2.85,2.86h20.46a3,3,0,0,0,3-2.86v-.29a3.1,3.1,0,0,0-3-2.86h-20.46a3,3,0,0,0-2.85,2.86Zm60.78-13.16a3,3,0,0,0,2.86-2.86v-.57a2.87,2.87,0,0,0-2.86-2.86h-20.46a3,3,0,0,0-3,2.86v.57a3.1,3.1,0,0,0,3,2.86Zm-23.46,13.16a3,3,0,0,0,3,2.86h20.46a2.87,2.87,0,0,0,2.86-2.86v-.29a3,3,0,0,0-2.86-2.86h-20.46a3.1,3.1,0,0,0-3,2.86Z"/><path class="cls-6" d="M1404.06,836.36a2.72,2.72,0,0,1,0-5.43h20.49a.94.94,0,0,0,.94-1V812.76a.91.91,0,0,0-.94-.94H1409.2a2.83,2.83,0,0,1,0-5.65h15.35a.91.91,0,0,0,.94-.94V793.72a.91.91,0,0,0-.94-.94h-20.49a2.67,2.67,0,0,1-2.6-2.75,2.61,2.61,0,0,1,2.6-2.68h22.59a4.82,4.82,0,0,1,4.85,4.92v37.5a6.49,6.49,0,0,1-6.44,6.59Z"/><path class="cls-6" d="M1474.29,790.24a5.43,5.43,0,0,1,5.07-3.4,2.48,2.48,0,0,1,2.17,3.4l-19.91,46.84a5.21,5.21,0,0,1-5,3.47,2.53,2.53,0,0,1-2.32-3.47Z"/><path class="cls-6" d="M1506.94,836.36a2.72,2.72,0,0,1,0-5.43h20.49a.94.94,0,0,0,.94-1V812.76a.91.91,0,0,0-.94-.94h-15.35a2.83,2.83,0,0,1,0-5.65h15.35a.91.91,0,0,0,.94-.94V793.72a.91.91,0,0,0-.94-.94h-20.49a2.67,2.67,0,0,1-2.6-2.75,2.61,2.61,0,0,1,2.6-2.68h22.59a4.82,4.82,0,0,1,4.85,4.92v37.5a6.49,6.49,0,0,1-6.44,6.59Z"/><path class="cls-6" d="M1579.7,836.28h-19.18a5.09,5.09,0,0,1-5-5V792.34a5,5,0,0,1,5-4.92h20.78a5,5,0,0,1,4.77,4.92V829.7A6.61,6.61,0,0,1,1579.7,836.28Zm-18.24-42.49v36.05a.92.92,0,0,0,1,1h16.65a.9.9,0,0,0,.94-1V793.79a.83.83,0,0,0-.94-.87h-16.65C1561.82,792.92,1561.46,793.21,1561.46,793.79Z"/><path class="cls-6" d="M1459.13,883.4a2.54,2.54,0,0,1-2.67,2.68h-8.26a1.51,1.51,0,0,0-1.37,1.59l2,10.42c0,.44.8.51.87.07a4.61,4.61,0,0,1,4.13-2.6h.14a1.89,1.89,0,0,1,1.67,2.75l-4.2,9.34a4.13,4.13,0,0,0-.36,2.68l3,16.57a2.12,2.12,0,0,1-2.17,2.68,3.43,3.43,0,0,1-3.33-2.68l-1.37-7.16c-.08-.66-1.09-.73-1.45-.08l-2.75,6.08a4.92,4.92,0,0,1-4.34,2.68,1.9,1.9,0,0,1-1.67-2.68l7.38-16.36a4.44,4.44,0,0,0,.29-2.6l-3.4-19.11a1.9,1.9,0,0,0-1.88-1.59h-39.16a2.68,2.68,0,0,1,0-5.36H1412a1.88,1.88,0,0,0,1.59-1.81v-1.45a1.84,1.84,0,0,0-1.59-1.66h-9a2.5,2.5,0,1,1,0-5h9.48a1.38,1.38,0,0,0,1.16-1.16V869a2.5,2.5,0,1,1,5,0v.65a1.38,1.38,0,0,0,1.16,1.16H1429a2.5,2.5,0,1,1,0,5h-8.76a1.84,1.84,0,0,0-1.66,1.66v1.45a1.88,1.88,0,0,0,1.66,1.81h18.32a1.82,1.82,0,0,0,1.59-1.81V870a2.72,2.72,0,0,1,5.43,0v8.9a2.07,2.07,0,0,0,1.81,1.81h9A2.54,2.54,0,0,1,1459.13,883.4ZM1421.49,888a1.68,1.68,0,0,1,1.45,2.53l-.43.72a.87.87,0,0,0,.79,1.24h5.79a2.5,2.5,0,0,1,0,5h-7a1.79,1.79,0,0,0-1.66,1.59v1a1.85,1.85,0,0,0,1.66,1.59h4.34a2.57,2.57,0,1,1,0,5.14h-4.34a1.85,1.85,0,0,0-1.66,1.66v1a1.85,1.85,0,0,0,1.66,1.66h4.34a2.41,2.41,0,0,1,2.61,2.53,2.61,2.61,0,0,1-2.61,2.83h-4.34a1.85,1.85,0,0,0-1.66,1.66V919a1.78,1.78,0,0,0,1.66,1.59h7a2.54,2.54,0,0,1,0,5.07H1407.3a5,5,0,0,1-5.06-5.07V903.3a1.7,1.7,0,0,0-1.52-1.52,2.73,2.73,0,0,1-2.32-4.12l4.27-6.95a5.31,5.31,0,0,1,4.56-2.75,1.46,1.46,0,0,1,1.3,2.24l-.5.87c-.29.65,0,1.38.72,1.38h6.08a2,2,0,0,0,1.81-1.16l.44-.51A4.92,4.92,0,0,1,1421.49,888Zm-7.31,13.68a1.77,1.77,0,0,0,1.59-1.59v-1a1.71,1.71,0,0,0-1.59-1.59h-5.36a1.79,1.79,0,0,0-1.66,1.59v1a1.85,1.85,0,0,0,1.66,1.59Zm0,9.48a1.78,1.78,0,0,0,1.59-1.66v-1a1.78,1.78,0,0,0-1.59-1.66h-5.36a1.85,1.85,0,0,0-1.66,1.66v1a1.85,1.85,0,0,0,1.66,1.66Zm0,9.48a1.7,1.7,0,0,0,1.59-1.59v-.87a1.78,1.78,0,0,0-1.59-1.66h-5.36a1.85,1.85,0,0,0-1.66,1.66V919a1.78,1.78,0,0,0,1.66,1.59Zm42.93-45a2.28,2.28,0,0,1-2.17,3,4.27,4.27,0,0,1-4-3l-.79-2.68a2.24,2.24,0,0,1,2.17-2.89,4,4,0,0,1,3.91,2.89Z"/><path class="cls-6" d="M1500.89,918.29a1.44,1.44,0,0,0,1.38,1.45h21.28a3.26,3.26,0,1,1,0,6.51h-53.86a3.26,3.26,0,0,1,0-6.51h3.91a1.4,1.4,0,0,0,1.38-1.45V895a3.26,3.26,0,0,1,3.33-3.26,3.3,3.3,0,0,1,3.26,3.26v23.31a1.39,1.39,0,0,0,1.37,1.45h10a1.4,1.4,0,0,0,1.38-1.45v-45.1a3.31,3.31,0,0,1,3.33-3.26,3.24,3.24,0,0,1,3.25,3.26v15a1.38,1.38,0,0,0,1.38,1.38h15.35a3.31,3.31,0,0,1,3.32,3.33,3.26,3.26,0,0,1-3.32,3.26h-15.35a1.42,1.42,0,0,0-1.38,1.37Z"/><path class="cls-6" d="M1548.73,906.05a2.41,2.41,0,0,0,1.67-2.31V869.21a2.82,2.82,0,0,1,5.64,0V926a2.82,2.82,0,0,1-5.64,0v-12.6a1.31,1.31,0,0,0-1.67-1.3l-11.29,4.49a2.06,2.06,0,0,1-2.75-2.17v-1.3a2.57,2.57,0,0,1,1.59-2.39,1.18,1.18,0,0,0,.87-1.09V877a2.55,2.55,0,0,1,2.75-2.75,2.58,2.58,0,0,1,2.75,2.75v29.47a1.31,1.31,0,0,0,1.67,1.3Zm47.85-26.63c0,2.09-1,3.11-2.75,3.11h-.43a1.7,1.7,0,0,0-1.6,1.3l-7.89,20.34a3.15,3.15,0,0,0,.22,2.54l9.48,18.24a1.83,1.83,0,0,1-1.59,2.75,5.61,5.61,0,0,1-4.92-3L1581,913.65a1.39,1.39,0,0,0-2.17-.36l-6.52,11.44a5.75,5.75,0,0,1-5.07,3c-1.16,0-2.17-1.31-1.37-2.32l10.28-18a3.08,3.08,0,0,0,0-2.75l-6.37-11.95c-.22-.79-1.6-.65-1.74.15l-.72,3.19a3.56,3.56,0,0,1-3.48,2.75,2.06,2.06,0,0,1-2.1-2.75l5.72-25.85a3.6,3.6,0,0,1,3.47-2.68,2,2,0,0,1,2.11,2.68l-1,4.71c-.22.72.72,1.73,1.45,1.73h20.34A2.52,2.52,0,0,1,1596.58,879.42ZM1578.48,897a1,1,0,0,0,1.89-.08l5.28-12.74a1.32,1.32,0,0,0-1.3-1.66h-11.66a1.15,1.15,0,0,0-1.08,1.59Z"/><path class="cls-6" d="M1612.35,871.24a5,5,0,0,1,4.63-3.12,2.22,2.22,0,0,1,2.1,3.12l-2.6,6.37a6.75,6.75,0,0,0-.51,2.67v46.11a3.15,3.15,0,1,1-6.3,0v-31.7c0-.07-.14-.07-.14,0a2.49,2.49,0,0,1-2.25,1.38h-1.8a2.24,2.24,0,0,1-2.1-3.12Zm50.09,30a3.2,3.2,0,0,1,3.12,3.18,3.12,3.12,0,0,1-3.12,3h-13.1A1.39,1.39,0,0,0,1648,909v17.44a3.19,3.19,0,1,1-6.37,0V909a1.39,1.39,0,0,0-1.38-1.45h-14.55a3.13,3.13,0,0,1-3.18-3,3.2,3.2,0,0,1,3.18-3.18h14.55a1.33,1.33,0,0,0,1.38-1.38V886.73a1.39,1.39,0,0,0-1.38-1.45h-8.32a1.73,1.73,0,0,0-1.67,1.23l-.51,1.59a4.35,4.35,0,0,1-4.19,3.11,2.49,2.49,0,0,1-2.32-3.18l3.91-13.54a4.41,4.41,0,0,1,4.13-3.11,2.52,2.52,0,0,1,2.38,3.11l-.94,3.19a1,1,0,0,0,1,1.37h6.51a1.37,1.37,0,0,0,1.38-1.37v-7.39a3.19,3.19,0,0,1,6.37,0v7.39a1.37,1.37,0,0,0,1.37,1.37h10.28a3.12,3.12,0,1,1,0,6.23h-10.28a1.39,1.39,0,0,0-1.37,1.45V899.9a1.33,1.33,0,0,0,1.37,1.38Z"/><circle class="cls-6" cx="1631.76" cy="810.84" r="24.43"/><path class="cls-8" d="M1642.2,810a.22.22,0,0,0,.22-.26.86.86,0,0,1,.85-1h.49a1.76,1.76,0,0,1,1.77,1.47l.13.65a1.8,1.8,0,0,1-1.8,2.09H1619.3a1.47,1.47,0,0,1,0-2.94Z"/><path class="cls-6" d="M833.58,428.13a1,1,0,0,0-1.29.05l-10.2,9.53a7.11,7.11,0,0,1-4.88,2,1.16,1.16,0,0,1-.75-2l14.1-13.26a3.48,3.48,0,0,1,4.7,0l14.59,13.3a1.12,1.12,0,0,1-.75,2,7.43,7.43,0,0,1-5-2Zm1.1,26.66a.88.88,0,0,0,.85.89H846a1.8,1.8,0,1,1,0,3.59H819.69a1.8,1.8,0,0,1,0-3.59h10.56a.85.85,0,0,0,.84-.89v-4.35a.85.85,0,0,0-.84-.88h-7.76a1.8,1.8,0,1,1,0-3.6h7.76a.85.85,0,0,0,.84-.88v-3.46a.84.84,0,0,0-.84-.85h-5.72a1.8,1.8,0,0,1,0-3.59h16.81a1.8,1.8,0,1,1,0,3.59h-5.81a.88.88,0,0,0-.85.85v3.46a.88.88,0,0,0,.85.88h7.76a1.8,1.8,0,1,1,0,3.6h-7.76a.88.88,0,0,0-.85.88Z"/><path class="cls-6" d="M814.73,472.39a3.1,3.1,0,0,1,3.14-3.15H848.7a3.15,3.15,0,0,1,3.19,3.15v31.72a3.18,3.18,0,0,1-3.19,3.19H817.87a3.14,3.14,0,0,1-3.14-3.19Zm32.77,31.45a1,1,0,0,0,.89-.89V473.64a1,1,0,0,0-.89-.94H819.07a1,1,0,0,0-.93.94V503a1,1,0,0,0,.93.89Zm-9.58-11.62a1.73,1.73,0,0,0,.22-1.55l-2.21-8a1.16,1.16,0,0,0-1.11-.84H822.89a1.55,1.55,0,1,1,0-3.1H834.2a.48.48,0,0,0,.48-.62l-.22-.71a1.25,1.25,0,0,1,1.2-1.6,2.23,2.23,0,0,1,2.13,1.6l.18.71a.86.86,0,0,0,.84.62h5a1.55,1.55,0,0,1,0,3.1h-4a.64.64,0,0,0-.62.84l1.33,4.75a.22.22,0,0,0,.4,0,3.26,3.26,0,0,1,2.75-1.5,1,1,0,0,1,.85,1.5l-2.27,3.64a2.19,2.19,0,0,0-.22,1.55l1.6,5.81a1.25,1.25,0,0,1-1.2,1.6,2.24,2.24,0,0,1-2.13-1.6l-.58-2.13a.39.39,0,0,0-.7-.08l-.8,1.33a3.41,3.41,0,0,1-2.8,1.51,1,1,0,0,1-.88-1.51Zm-14.59,6.25a1.22,1.22,0,0,1-1.55-1.19,2,2,0,0,1,1.55-2l9.49-2.31a1.24,1.24,0,0,1,1.55,1.25,2.08,2.08,0,0,1-1.55,2Zm-.62-11.93A3.23,3.23,0,0,1,826,483.3h3.86a3.22,3.22,0,0,1,3.23,3.24v2.13a3.25,3.25,0,0,1-3.23,3.24H826a3.25,3.25,0,0,1-3.24-3.24Zm6.61,2.53a.85.85,0,0,0,.84-.89V487a.84.84,0,0,0-.84-.85h-2.89a.85.85,0,0,0-.84.85v1.19a.86.86,0,0,0,.84.89ZM844,476.74a.89.89,0,0,1-.84,1.2h-.49a1.84,1.84,0,0,1-1.73-1.2.87.87,0,0,1,.8-1.2h.58A1.81,1.81,0,0,1,844,476.74Z"/><path class="cls-6" d="M816.81,519.76a3.32,3.32,0,0,1,3.33-3.19h30.33a1.74,1.74,0,0,1,1.78,1.73,1.78,1.78,0,0,1-1.78,1.77H839.3a1.27,1.27,0,0,0-1.16.8L837,524.2a.62.62,0,0,0,.57.84h7.72a3.18,3.18,0,0,1,3.19,3.2v9.27a3.21,3.21,0,0,1-3.19,3.23h-5.9a.82.82,0,0,0-.84.85v11.13a1.78,1.78,0,0,1-3.55,0V541.59a.85.85,0,0,0-.84-.85h-6a3.25,3.25,0,0,1-3.23-3.23v-9.27a3.22,3.22,0,0,1,3.23-3.2h3.51a1.24,1.24,0,0,0,1.15-.84l1.2-3.33a.58.58,0,0,0-.53-.8H821.11a.88.88,0,0,0-.88.89L819,552.45a1.82,1.82,0,0,1-1.82,1.73,1.7,1.7,0,0,1-1.69-1.73Zm8.74,31.67a1.34,1.34,0,0,1-1.2-1.95l1.33-2.7a3.61,3.61,0,0,1,3.19-2,1.36,1.36,0,0,1,1.2,2l-1.37,2.7A3.54,3.54,0,0,1,825.55,551.43ZM844,531a.89.89,0,0,0,.89-.89v-.71a.89.89,0,0,0-.89-.88H829.45a.89.89,0,0,0-.89.88v.71a.89.89,0,0,0,.89.89Zm-15.48,5.28a.88.88,0,0,0,.89.84H844a.88.88,0,0,0,.89-.84v-.71a.85.85,0,0,0-.89-.84H829.45a.85.85,0,0,0-.89.84Zm15.62,10.47a1.31,1.31,0,0,1,1.11-2,3.81,3.81,0,0,1,3.28,2l1.55,2.75a1.27,1.27,0,0,1-1.11,1.9,3.8,3.8,0,0,1-3.28-1.9Z"/><path class="cls-6" d="M820,564.78a3.15,3.15,0,0,1,2.88-1.9,1.39,1.39,0,0,1,1.29,1.9l-1.64,4a4.36,4.36,0,0,0-.31,1.68v28.26a2,2,0,0,1-3.91,0V579.29c0-.09,0-.09-.09,0a1.44,1.44,0,0,1-1.33.89h-1.1a1.37,1.37,0,0,1-1.29-1.91Zm20.89,29.5a.88.88,0,0,0,.89.84h8.87a1.91,1.91,0,0,1,0,3.82H827.32a1.91,1.91,0,0,1,0-3.82h8.83a.84.84,0,0,0,.84-.84v-6.56a.85.85,0,0,0-.84-.89H830.6a1.88,1.88,0,0,1-1.86-1.91A1.91,1.91,0,0,1,830.6,583h5.55a.81.81,0,0,0,.84-.84v-6.52a.84.84,0,0,0-.84-.84h-7.59a1.91,1.91,0,0,1,0-3.82h20.81a1.91,1.91,0,0,1,0,3.82h-7.63a.88.88,0,0,0-.89.84v6.52a.85.85,0,0,0,.89.84h5.54a1.92,1.92,0,0,1,1.91,1.91,1.89,1.89,0,0,1-1.91,1.91h-5.54a.89.89,0,0,0-.89.89Zm-.31-27.77a1.35,1.35,0,0,1-1.2,2,3.51,3.51,0,0,1-3.15-2l-.35-.66a1.34,1.34,0,0,1,1.2-2,3.47,3.47,0,0,1,3.14,2Z"/><path class="cls-6" d="M847.68,626.61a1.87,1.87,0,0,1,0,3.73h-8.29a.59.59,0,0,0-.49.84l7.23,13.62a1.3,1.3,0,0,1-1.11,1.91,3.6,3.6,0,0,1-3.19-1.91l-7.23-13.62a1.51,1.51,0,0,0-1.33-.84H822.93a1,1,0,0,0-1,.93v9.23a.87.87,0,0,0,.94.8l4.65-.67a1.6,1.6,0,0,1,1.87,1.6,2.16,2.16,0,0,1-1.87,2.17l-6.16.89a2.69,2.69,0,0,1-3.15-2.71v-30a3.17,3.17,0,0,1,3.19-3.19h22.71a3.15,3.15,0,0,1,3.2,3.19v5.32a3.12,3.12,0,0,1-3.2,3.15h-7a.85.85,0,0,0-.8.89l.49,3.77a1,1,0,0,0,1,.88Zm-24.75-13.39a1,1,0,0,0-1,.89v2.3a1,1,0,0,0,1,.93h19.74a.93.93,0,0,0,.89-.93v-2.3a.89.89,0,0,0-.89-.89Zm0,7.85a1,1,0,0,0-1,.89v3.77a1,1,0,0,0,1,.88h9.27a.81.81,0,0,0,.8-.88l-.49-3.77a1,1,0,0,0-1-.89Z"/><path class="cls-6" d="M851.45,662.5a1.84,1.84,0,0,1-1.86,2h-3.82a1.61,1.61,0,0,0-1.37.71l-8.25,14.72a1.1,1.1,0,0,0,.26,1.33l11.67,9a1,1,0,0,1-.58,1.77,9.25,9.25,0,0,1-5.67-2L834.11,684a1.34,1.34,0,0,0-1.51,0L825.33,690a8.52,8.52,0,0,1-5.37,2,1,1,0,0,1-.62-1.77l10.82-8.87a1.13,1.13,0,0,0,.22-1.42l-8.87-14.77a1.61,1.61,0,0,0-1.37-.71h-3.2a1.84,1.84,0,0,1-1.86-2,1.82,1.82,0,0,1,1.86-1.87h13.58a1,1,0,0,0,.93-.93v-2.08a1.82,1.82,0,1,1,3.63,0v2.08a1,1,0,0,0,.94.93h13.57A1.82,1.82,0,0,1,851.45,662.5Zm-18.76,14.28a.62.62,0,0,0,1-.09l6.47-11.44a.56.56,0,0,0-.53-.8h-13.3a.58.58,0,0,0-.49.89Z"/><path class="cls-6" d="M816.37,712a1,1,0,0,1-.67-1.73l7.27-6.74a3.61,3.61,0,0,1,4.8-.09l7.85,6.83A1,1,0,0,1,835,712h-.71a5.17,5.17,0,0,1-3.37-1.24l0,0a.23.23,0,0,0-.36.17,1.7,1.7,0,0,1-1.73,1.73h-6.47a1.71,1.71,0,0,1-1.73-1.68c0-.14-.23-.27-.31-.14h-.05a4.47,4.47,0,0,1-3.06,1.2Zm16.94,11.53a3.22,3.22,0,0,1-3.19,3.24H821a.93.93,0,0,0-.93.85l-1,10.82a1.74,1.74,0,0,1-1.73,1.55,1.4,1.4,0,0,1-1.42-1.55l2-21.29a3.56,3.56,0,0,1,3.55-3.2h8.56a3.19,3.19,0,0,1,3.19,3.24ZM823.42,739a3.22,3.22,0,0,1-3.19-3.24v-3.68a3.17,3.17,0,0,1,3.19-3.19H831a3.21,3.21,0,0,1,3.24,3.19v3.68A3.26,3.26,0,0,1,831,739Zm-2.88-16.24a.83.83,0,0,0,.79.85h8.12a.85.85,0,0,0,0-1.69h-8A.92.92,0,0,0,820.54,722.77Zm9.71-5a.79.79,0,0,0-.75-.8h-7.59a.84.84,0,0,0-.89.8.77.77,0,0,0,.76.84h7.72A.83.83,0,0,0,830.25,717.81Zm-1.6-8.25a.32.32,0,0,0,.18-.58L826,706.45a1,1,0,0,0-1.29,0L822.13,709a.33.33,0,0,0,.22.58ZM824.22,732a.86.86,0,0,0-.89.84v2.22a.88.88,0,0,0,.89.84h6.07a.87.87,0,0,0,.85-.84v-2.22a.85.85,0,0,0-.85-.84Zm16.85.13a1.8,1.8,0,0,1-1.82-1.82v-23.5a1.8,1.8,0,1,1,3.6,0v23.5A1.79,1.79,0,0,1,841.07,732.13Zm6.74-28.34a1.83,1.83,0,0,1,1.82-1.82,1.8,1.8,0,0,1,1.82,1.82v34.33a1.8,1.8,0,0,1-1.82,1.82,1.83,1.83,0,0,1-1.82-1.82Z"/><path class="cls-6" d="M762.34,278.35a1.67,1.67,0,1,1,0-3.33h11a1.67,1.67,0,1,1,0,3.33Zm2.75,28.34a3.19,3.19,0,0,1-3.19-3.24v-7.14a3.18,3.18,0,0,1,3.19-3.19h5.46a3.22,3.22,0,0,1,3.24,3.19v7.14a3.23,3.23,0,0,1-3.24,3.24ZM771.43,281a1.75,1.75,0,1,1,0,3.5h-7.27a1.75,1.75,0,0,1,0-3.5Zm-7.31,9.4a1.73,1.73,0,0,1,0-3.46h7.36a1.73,1.73,0,1,1,0,3.46ZM771,269.08a1.78,1.78,0,1,1,0,3.55h-6.3a1.78,1.78,0,0,1,0-3.55Zm-4.92,27.32a.84.84,0,0,0-.84.84v5.33a.84.84,0,0,0,.84.84h3.55a.88.88,0,0,0,.88-.84v-5.33a.88.88,0,0,0-.88-.84Zm30.47,8.43a1.06,1.06,0,0,1-.71,1.86,7.05,7.05,0,0,1-4.79-1.86l-3.46-3.24a.86.86,0,0,0-1.24,0l-3,2.88a7,7,0,0,1-4.74,1.87,1.13,1.13,0,0,1-.76-1.87l6-5.67a.91.91,0,0,0,.14-1.25l-3.46-4.48a1.18,1.18,0,0,1,1-1.9,4.79,4.79,0,0,1,3.82,1.95l1.24,1.68a.53.53,0,0,0,.89-.08l1.95-4.17a.53.53,0,0,0-.49-.76H778.62a1.87,1.87,0,0,1-1.86-1.86,1.84,1.84,0,0,1,1.86-1.86H792.5a2,2,0,0,1,1.82,2.88l-4.39,9.18a.85.85,0,0,1-.18.27v0ZM784.12,273a1.09,1.09,0,0,0-1.06.84l-1.78,7.9a2.39,2.39,0,0,1-2.35,1.86,1.55,1.55,0,0,1-1.51-1.86l2.13-9.45a4,4,0,0,1,3.9-3.15h5.33a3.27,3.27,0,0,1,3.24,3.24v6.34a.85.85,0,0,0,.84.89h3.19A1.92,1.92,0,0,1,798,281.5a2,2,0,0,1-1.91,1.9h-4.66a3.25,3.25,0,0,1-3.23-3.23v-6.3a.86.86,0,0,0-.85-.89Z"/><path class="cls-6" d="M762.56,325.36a1.78,1.78,0,0,1-1.81-1.81,1.81,1.81,0,0,1,1.81-1.87h13.13a1.82,1.82,0,0,1,1.87,1.87,1.81,1.81,0,0,1-1.87,1.81Zm2.84,28a3.11,3.11,0,0,1-3.19-3.15v-7.45a3.15,3.15,0,0,1,3.19-3.19h7.54a3.18,3.18,0,0,1,3.2,3.19v7.45a3.14,3.14,0,0,1-3.2,3.15Zm8.34-25.5a1.71,1.71,0,0,1,0,3.41h-9.09a1.71,1.71,0,1,1,0-3.41Zm-9.09,9.27a1.71,1.71,0,0,1-1.73-1.73,1.67,1.67,0,0,1,1.73-1.69h9.09a1.63,1.63,0,0,1,1.69,1.69,1.67,1.67,0,0,1-1.69,1.73Zm8.52-21.2a1.73,1.73,0,1,1,0,3.46h-8a1.73,1.73,0,1,1,0-3.46Zm-6.7,27a1,1,0,0,0-.93.89v5.27a1,1,0,0,0,.93.93h5.41a.93.93,0,0,0,.89-.93v-5.27a.92.92,0,0,0-.89-.89Zm31-13.71a2,2,0,0,1,0,4H792.5a.93.93,0,0,0-.93.89v17.39a2,2,0,0,1-4,0V334.1a.92.92,0,0,0-.89-.89h-4.88a2,2,0,0,1,0-4h4.88a.92.92,0,0,0,.89-.88V317.42a2,2,0,0,1,4,0v10.92a.93.93,0,0,0,.93.88Z"/><path class="cls-6" d="M775.78,367.59a.42.42,0,0,0-.44.35l-.49,2.71a.63.63,0,0,0,.62.75h1.24a1.69,1.69,0,0,1,0,3.38H763a1.69,1.69,0,1,1,0-3.38h1.28a.71.71,0,0,0,.67-.79l-.53-2.67a.43.43,0,0,0-.45-.35,1.47,1.47,0,0,1-1.46-1.46v-.22a1.68,1.68,0,0,1,1.69-1.69h3.63a.49.49,0,0,0,.49-.49v-.18a1.67,1.67,0,0,1,1.64-1.64,1.64,1.64,0,0,1,1.64,1.64v.18a.49.49,0,0,0,.49.49h3.46a1.65,1.65,0,0,1,1.64,1.69v.22A1.44,1.44,0,0,1,775.78,367.59Zm-.49,18.76a.54.54,0,0,0-.53.53v4.35a.42.42,0,0,0,.62.36l.67-.36a1.17,1.17,0,0,1,1.73,1,3.28,3.28,0,0,1-1.73,2.88l-1.91,1a1.94,1.94,0,0,1-2.88-1.68v-7.23a.86.86,0,0,0-.85-.89h-.75a1,1,0,0,0-1,.89L767,397.66a2,2,0,0,1-2,1.73,1.47,1.47,0,0,1-1.46-1.73l1.73-10.82a.46.46,0,0,0-.4-.49,1.79,1.79,0,0,1-1.82-1.77v-4.84a3.25,3.25,0,0,1,3.24-3.23h7.8a3.25,3.25,0,0,1,3.24,3.23v4.66A2,2,0,0,1,775.29,386.35Zm-8.07-6.52a.89.89,0,0,0-.89.89v1.46a.86.86,0,0,0,.89.85H773a.82.82,0,0,0,.84-.85v-1.46a.85.85,0,0,0-.84-.89Zm1.33-12.24a.68.68,0,0,0-.66.84l.44,2.13a1.13,1.13,0,0,0,1.06.84h1.07a1,1,0,0,0,1-.84l.4-2.13a.75.75,0,0,0-.76-.84Zm28.12,3.81a1.69,1.69,0,1,1,0,3.38h-14.5a1.69,1.69,0,1,1,0-3.38h1.51a.65.65,0,0,0,.62-.84l-.62-2.62a.54.54,0,0,0-.54-.35,1.52,1.52,0,0,1-1.46-1.51v-.17a1.67,1.67,0,0,1,1.64-1.69h3.91a.49.49,0,0,0,.48-.49v-.18a1.67,1.67,0,0,1,1.64-1.64,1.64,1.64,0,0,1,1.65,1.64v.18a.49.49,0,0,0,.48.49h4a1.69,1.69,0,0,1,0,3.37.57.57,0,0,0-.58.4l-.62,2.57a.67.67,0,0,0,.62.84Zm-3.1,23.82a.88.88,0,0,0,.84.89h2.93a1.73,1.73,0,1,1,0,3.46h-4.08a3.23,3.23,0,0,1-3.24-3.24v-9.09a.86.86,0,0,0-.84-.89h-.31a1,1,0,0,0-1,.89l-1.68,10.42a2.09,2.09,0,0,1-2.05,1.73,1.52,1.52,0,0,1-1.46-1.73L784.39,387a.59.59,0,0,0-.54-.67A2.31,2.31,0,0,1,781.5,384v-4.26a3.22,3.22,0,0,1,3.2-3.23h9.4a3.22,3.22,0,0,1,3.24,3.23v3.64a3,3,0,0,1-3,3,.8.8,0,0,0-.8.8Zm-7.9-15.39a.86.86,0,0,0-.84.89v1.46a.82.82,0,0,0,.84.85h7.45a.86.86,0,0,0,.89-.85v-1.46a.89.89,0,0,0-.89-.89Zm2.13-12.24a.62.62,0,0,0-.62.8l.53,2.17a1.09,1.09,0,0,0,1.07.84h1a1.05,1.05,0,0,0,1.06-.84l.58-2.17a.67.67,0,0,0-.67-.8Z"/><path class="cls-6" d="M791.66,425.38c-.27,0-.35.36-.13.54l5,3.59a.85.85,0,0,1-.49,1.55,8,8,0,0,1-4.74-1.59h0a.33.33,0,0,0-.53.26v9.18a3.22,3.22,0,0,1-3.24,3.2h-14.9a3.22,3.22,0,0,1-3.24-3.2v-9.05c0-.22-.27-.35-.4-.22a5.74,5.74,0,0,1-3.55,1.24h-.48a.88.88,0,0,1-.54-1.55l4.44-3.41a.3.3,0,0,0-.18-.54h-6.12a1.26,1.26,0,1,1,0-2.52h9.4a.67.67,0,1,0,0-1.33h-1.77a1.35,1.35,0,0,1-1.38-1.34,1.38,1.38,0,0,1,1.38-1.37h1.77a.68.68,0,0,0,.67-.66.66.66,0,0,0-.67-.67h-3.86a1.36,1.36,0,0,1-1.33-1.33,1.33,1.33,0,0,1,1.33-1.33h4.17a.39.39,0,0,0,.36-.36,1.31,1.31,0,0,1,1.33-1.33h.13a1.3,1.3,0,0,1,1.33,1.33.39.39,0,0,0,.36.36h8.6a.39.39,0,0,0,.36-.36,1.3,1.3,0,0,1,1.33-1.33h.13a1.34,1.34,0,0,1,1.33,1.33.35.35,0,0,0,.36.36H792a1.34,1.34,0,0,1,1.33,1.33,1.37,1.37,0,0,1-1.33,1.33h-3.86a.66.66,0,0,0-.67.67.68.68,0,0,0,.67.66h1.77a1.39,1.39,0,0,1,1.38,1.37,1.36,1.36,0,0,1-1.38,1.34h-1.82a.67.67,0,0,0,0,1.33h9.45a1.26,1.26,0,1,1,0,2.52Zm-25.86-12.9a.57.57,0,0,0-.53.53v.62a1.29,1.29,0,1,1-2.57,0v-1.2a2.54,2.54,0,0,1,2.53-2.57h13.08a.32.32,0,0,0,.35-.35v-.05a1.39,1.39,0,0,1,1.38-1.37,1.34,1.34,0,0,1,1.33,1.37v.05a.36.36,0,0,0,.4.35h13.08a2.54,2.54,0,0,1,2.53,2.57v1.2a1.31,1.31,0,1,1-2.61,0V413a.54.54,0,0,0-.54-.53Zm4,34.24a.82.82,0,0,1-.62-1.33,3.8,3.8,0,0,1,2.89-1.33h1.19a.8.8,0,0,1,.62,1.33,3.76,3.76,0,0,1-2.88,1.33Zm17.75-15.17a.69.69,0,0,0,0-1.37h-15a.69.69,0,0,0,0,1.37Zm-15,2.71a.67.67,0,0,0,0,1.33h15a.67.67,0,0,0,0-1.33Zm-.66,4.74a.68.68,0,0,0,.66.67h15a.68.68,0,0,0,.66-.67.69.69,0,0,0-.66-.71h-15A.69.69,0,0,0,771.88,439Zm.18-11.8a.3.3,0,0,0,.17.54H788c.26,0,.35-.36.13-.54l-1.86-1.33a2.79,2.79,0,0,0-1.55-.49h-9.36a2.4,2.4,0,0,0-1.55.54Zm4-9.71a.67.67,0,0,0-.71.67.69.69,0,0,0,.71.66H784a.69.69,0,0,0,.71-.66.67.67,0,0,0-.71-.67Zm8.61,4.7a.68.68,0,0,0-.67-.66h-8a.67.67,0,1,0,0,1.33h8A.68.68,0,0,0,784.7,422.19Zm2.3,23.2a.82.82,0,0,1,.67-1.33h1.15a3.34,3.34,0,0,1,2.66,1.33.82.82,0,0,1-.66,1.33h-1.16A3.34,3.34,0,0,1,787,445.39Z"/><path class="cls-6" d="M782.21,466.1a2.24,2.24,0,0,1-2.17,2.17,2.18,2.18,0,0,1-2.19-2.17,2.14,2.14,0,0,1,2.19-2.19A2.18,2.18,0,0,1,782.21,466.1Z"/><path class="cls-6" d="M799.16,493.34a1.92,1.92,0,0,1-1.91,1.9h-6a.86.86,0,0,0-.89.85v25.1a1.92,1.92,0,0,1-1.9,1.91,2,2,0,0,1-1.91-1.91v-25.1a.82.82,0,0,0-.84-.85h-4a1.2,1.2,0,0,0-1.16.8l-.84,2.35A2.89,2.89,0,0,1,777,500.3a1.44,1.44,0,0,1-1.38-1.91l3.95-10.91a2.86,2.86,0,0,1,2.75-2,1.45,1.45,0,0,1,1.38,2l-1.16,3.15a.61.61,0,0,0,.58.8h14.15A1.92,1.92,0,0,1,799.16,493.34ZM779,515.2a1.57,1.57,0,0,1-1.55-1.91l1.55-6.91a2.47,2.47,0,0,1,2.4-1.91,1.58,1.58,0,0,1,1.55,1.91l-1.55,6.91A2.48,2.48,0,0,1,779,515.2Zm16.06-10.73a2.4,2.4,0,0,1,2.35,1.86l1.55,6.79a1.56,1.56,0,0,1-1.51,1.9,2.45,2.45,0,0,1-2.39-1.9l-1.51-6.79A1.55,1.55,0,0,1,795.08,504.47Z"/><path class="cls-6" d="M798.67,555.39a1.69,1.69,0,0,1-1.69,1.68h-6.61a1.32,1.32,0,0,0-1.19.76l-2.22,5a.75.75,0,0,0,.49,1l6.16,1.65a2.22,2.22,0,0,1,1.64,2.17,1.33,1.33,0,0,1-1.64,1.33l-8.69-2.35a3.5,3.5,0,0,0-1.64-.05l-15.88,3a1.49,1.49,0,0,1-1.78-1.46A2.23,2.23,0,0,1,767.4,566l8.07-1.55a.2.2,0,0,0,0-.4l-3.15-1a3,3,0,0,1-2-3.95l.44-1.24a.61.61,0,0,0-.58-.8h-7a1.71,1.71,0,0,1,0-3.41h8.48a1,1,0,0,0,.93-.67l.26-.71a2.59,2.59,0,0,1,2.44-1.77,1.31,1.31,0,0,1,1.25,1.77l-.27.71a.49.49,0,0,0,.49.67H797A1.7,1.7,0,0,1,798.67,555.39Zm-25.11-16.64a.93.93,0,0,0,.94-.88V536.4a1,1,0,0,0-.94-.93H766a1.63,1.63,0,0,1-1.68-1.68A1.66,1.66,0,0,1,766,532.1h28a1.66,1.66,0,0,1,1.68,1.69,1.63,1.63,0,0,1-1.68,1.68h-6.92a.93.93,0,0,0-.89.93v1.47a.89.89,0,0,0,.89.88h4.34a3.14,3.14,0,0,1,3.15,3.2V546a3.11,3.11,0,0,1-3.15,3.19H769.13A3.11,3.11,0,0,1,766,546V542a3.14,3.14,0,0,1,3.15-3.2ZM770.33,542a.94.94,0,0,0-.94.89v2.17a1,1,0,0,0,.94.93h3.23a1,1,0,0,0,.94-.93v-2.17a.94.94,0,0,0-.94-.89Zm12.06,20.18a1,1,0,0,0,1.2-.57l1.82-3.77a.53.53,0,0,0-.49-.76H775.6a1.15,1.15,0,0,0-1.15.8l-.44,1.29a.77.77,0,0,0,.53,1ZM782,538.75a.89.89,0,0,0,.88-.88V536.4a.93.93,0,0,0-.88-.93h-3.24a1,1,0,0,0-.89.93v1.47a.92.92,0,0,0,.89.88ZM778.71,542a.93.93,0,0,0-.89.89v2.17a1,1,0,0,0,.89.93H782a.93.93,0,0,0,.88-.93v-2.17A.89.89,0,0,0,782,542Zm12.51.89a.93.93,0,0,0-.93-.89h-3.15a.89.89,0,0,0-.89.89v2.17a.93.93,0,0,0,.89.93h3.15a1,1,0,0,0,.93-.93Z"/><path class="cls-6" d="M779.68,598.85a1.32,1.32,0,0,0-1.24.76l-4.7,9.44a.5.5,0,0,0,.49.71l13.84-1.06a.63.63,0,0,0,.57-.84l-.57-1.51a1.44,1.44,0,0,1,1.33-2,3.19,3.19,0,0,1,2.93,2l2.75,7.14a1.5,1.5,0,0,1-1.38,2,3.22,3.22,0,0,1-2.93-2l-.09-.31a1,1,0,0,0-.88-.58l-19.87,1.47a1.84,1.84,0,0,1-1.78-2.66l5.9-11.8a.53.53,0,0,0-.49-.76H765a2,2,0,1,1,0-4H777.2A.81.81,0,0,0,778,594v-5.19a.85.85,0,0,0-.84-.89H768a2,2,0,1,1,0-4h9.22a.85.85,0,0,0,.84-.89v-2.7a2,2,0,0,1,4,0v2.7a.85.85,0,0,0,.84.89h9.22a2,2,0,1,1,0,4h-9.22a.85.85,0,0,0-.84.89V594a.81.81,0,0,0,.84.84h12.24a2,2,0,1,1,0,4Z"/><path class="cls-6" d="M774.72,628.88a1.45,1.45,0,0,1-1.55-1.51,1.49,1.49,0,0,1,1.55-1.55h8.34a3,3,0,0,1,3.06,3.15l-.62,31.8a1.48,1.48,0,0,1-1.56,1.51,1.43,1.43,0,0,1-1.46-1.51l.22-11.17a1,1,0,0,0-.93-.94h-1.64a1.14,1.14,0,0,0-1.11.94l-2.08,11.13a1.87,1.87,0,0,1-1.87,1.55,1.24,1.24,0,0,1-1.24-1.55L776,649.24a.54.54,0,0,0-.48-.58h-.18a1.51,1.51,0,0,1-1.55-1.55,1.49,1.49,0,0,1,1.55-1.55h.57a.72.72,0,0,0,.67-.67l.18-5.5a.73.73,0,0,0-.67-.75h-.71a1.52,1.52,0,0,1-1.59-1.55,1.54,1.54,0,0,1,1.59-1.6h.85a.89.89,0,0,0,.75-.75l.18-4.93a1,1,0,0,0-.89-.93Zm4.92,15.7a1,1,0,0,0,.93,1h1.24a1,1,0,0,0,.94-1l.08-5a1,1,0,0,0-.93-1h-1.11a1.09,1.09,0,0,0-1,1Zm2.35-9.09a1,1,0,0,0,1-.93l0-4.7a1,1,0,0,0-.93-1h-.89a1.05,1.05,0,0,0-1,1l-.18,4.7a1,1,0,0,0,.93.93Zm14.59-10a2.45,2.45,0,0,1,2.44,3.06l-1.68,7.72a2.83,2.83,0,0,0,.13,1.64l.62,1.51a15.72,15.72,0,0,1,1.24,6.21v5.41a3,3,0,0,1-3.06,3.06h-1.59a1.51,1.51,0,0,1,0-3h.84a.84.84,0,0,0,.75-.75V644a4.39,4.39,0,0,0-.31-1.68l-.75-1.82a10.27,10.27,0,0,1-.53-6.12l1-4.84a.82.82,0,0,0-.76-.93H792.5a1,1,0,0,0-1,.93v31.27a1.5,1.5,0,0,1-1.55,1.51,1.48,1.48,0,0,1-1.56-1.51V628.62a3.1,3.1,0,0,1,3.24-3.11Z"/><path class="cls-6" d="M772.68,687.52a1.1,1.1,0,0,1,1,1.64l-1.15,2.57a1.35,1.35,0,0,0,0,1.16l.23.39a1.06,1.06,0,0,1-.89,1.65h-.76a2,2,0,0,1-1.81-1.11c-.18-.05-.58,0-.58.17v13.75a1.59,1.59,0,0,1-1.69,1.69,1.65,1.65,0,0,1-1.73-1.69V697.63c0-.31-.53-.35-.57-.09l-.4,1a2.76,2.76,0,0,1-2.53,1.64,1.22,1.22,0,0,1-1.11-1.68l6.61-17.12a.72.72,0,0,0-.67-.93h-4.08a1.65,1.65,0,0,1-1.68-1.82,1.59,1.59,0,0,1,1.68-1.64h1.38a1.15,1.15,0,0,0,1-1v-3.55a1.61,1.61,0,0,1,1.68-1.73,1.65,1.65,0,0,1,1.73,1.73V676a1.11,1.11,0,0,0,1.06,1h.23a2.18,2.18,0,0,1,2,3l-2.31,6a1.94,1.94,0,0,0,.13,1.56l.4.88c.23.09.49.09.58-.17a1.61,1.61,0,0,1,1.42-.8Zm16.14,16.32a1,1,0,0,0,.93.93h7.9a1.65,1.65,0,0,1,1.73,1.73,1.68,1.68,0,0,1-1.73,1.73H776.76A1.68,1.68,0,0,1,775,706.5a1.65,1.65,0,0,1,1.73-1.73h7.8a1,1,0,0,0,.94-.93v-2a1.1,1.1,0,0,0-.94-1.06h-5a1.69,1.69,0,1,1,0-3.38h5a1,1,0,0,0,.94-1v-3a1,1,0,0,0-.94-.93h-4.25a3.07,3.07,0,0,1-3.11-3.15V675.72a3,3,0,0,1,3.11-3.1h13.83a3,3,0,0,1,3.11,3.1v13.66a3.07,3.07,0,0,1-3.11,3.15h-4.39a1,1,0,0,0-.93.93v3a1,1,0,0,0,.93,1h5.06a1.69,1.69,0,1,1,0,3.38h-5.06a1.1,1.1,0,0,0-.93,1.06Zm-13.48-6.56.09-.09v-.05l-.09-.09Zm10.16-20.45a1,1,0,0,0-.94-.93h-3.1a1,1,0,0,0-1,.93v3.1a1.05,1.05,0,0,0,1,1h3.1a1,1,0,0,0,.94-1Zm-5,11.4a1,1,0,0,0,1,.93h3.1a1,1,0,0,0,.94-.93v-3a1,1,0,0,0-.94-1h-3.1a1.05,1.05,0,0,0-1,1ZM793,680.91a1.05,1.05,0,0,0,1-1v-3.1a1,1,0,0,0-1-.93h-3.2a1,1,0,0,0-.93.93v3.1a1,1,0,0,0,.93,1Zm-4.13,7.32a1,1,0,0,0,.93.93H793a1,1,0,0,0,1-.93v-3a1.05,1.05,0,0,0-1-1h-3.2a1,1,0,0,0-.93,1Z"/><path class="cls-6" d="M784.09,719.49a1.15,1.15,0,0,1,1.14,1.11v4.79a1.2,1.2,0,0,1-.2.63l-3.36,5a1.36,1.36,0,0,0-.32.89v2.79a1.15,1.15,0,0,1-1.11,1.14,1.18,1.18,0,0,1-1.14-1.14V731a1.3,1.3,0,0,1,.2-.63l3.45-5a1.19,1.19,0,0,0,.29-.85v-2.46c0-.28-.17-.4-.46-.4H777.5c-.28,0-.45.12-.45.4v1.34a1.11,1.11,0,0,1-1.06,1.14,1.18,1.18,0,0,1-1.14-1.14V720.6a1.15,1.15,0,0,1,1.11-1.11Zm-5,18.48a1.18,1.18,0,0,1,1.14-1.11,1.15,1.15,0,0,1,1.11,1.11V740a1.16,1.16,0,0,1-1.11,1.14A1.19,1.19,0,0,1,779.1,740Z"/><path class="cls-6" d="M767.08,487.26a3.17,3.17,0,0,1,2.93-1.91,1.37,1.37,0,0,1,1.28,1.91l-2.75,6.25a4.09,4.09,0,0,0-.35,1.64v26.26a1.89,1.89,0,0,1-1.91,1.91,1.93,1.93,0,0,1-1.95-1.91V503.23c0-.05,0-.05,0-.05a.84.84,0,0,1-.76.49H762a1.36,1.36,0,0,1-1.24-1.91Z"/><path class="cls-6" d="M764.15,654.3a3.27,3.27,0,0,1-3.24-3.24V631.81a3.22,3.22,0,0,1,3.24-3.19H768a3.18,3.18,0,0,1,3.2,3.19v19.25a3.22,3.22,0,0,1-3.2,3.24Zm1.51-21.87a.88.88,0,0,0-.89.84V649.6a.86.86,0,0,0,.89.84h.84a.82.82,0,0,0,.85-.84V633.27a.85.85,0,0,0-.85-.84Z"/><path class="cls-6" d="M833.05,272.32a.57.57,0,0,0-.58-.62H822.09a.56.56,0,0,0-.62.62v12.55a1.71,1.71,0,0,1-3.41,0V271.12a3.13,3.13,0,0,1,3.06-3.06h12.33a3.13,3.13,0,0,1,3.06,3.06v11.22a.54.54,0,0,0,.58.58h7a.51.51,0,0,0,.54-.58V269.83a1.69,1.69,0,0,1,3.37,0v13.71a3.08,3.08,0,0,1-3,3h-7.89a4.1,4.1,0,0,1-4-3.95Z"/><path class="cls-6" d="M818.06,308.33V296.58a3.13,3.13,0,0,1,3.06-3.06H845a3.09,3.09,0,0,1,3,3.06v12.73a3,3,0,0,1-3,2.93H822.09A4.05,4.05,0,0,1,818.06,308.33Zm26-11.17H822a.57.57,0,0,0-.63.62V308a.56.56,0,0,0,.63.58h22.08a.51.51,0,0,0,.54-.58v-10.2C844.63,297.38,844.45,297.16,844.09,297.16Z"/><path class="cls-6" d="M833.05,326a.58.58,0,0,0-.58-.63H822.09a.57.57,0,0,0-.62.63v12.55a1.71,1.71,0,0,1-3.41,0V324.79a3.13,3.13,0,0,1,3.06-3.06h12.33a3.13,3.13,0,0,1,3.06,3.06V336a.54.54,0,0,0,.58.58h7a.51.51,0,0,0,.54-.58V323.5a1.69,1.69,0,0,1,3.37,0v13.71a3.08,3.08,0,0,1-3,3h-7.89a4.09,4.09,0,0,1-4-3.94Z"/><path class="cls-6" d="M818.06,362V350.25a3.13,3.13,0,0,1,3.06-3.06H845a3.09,3.09,0,0,1,3,3.06V363a3,3,0,0,1-3,2.92H822.09A4,4,0,0,1,818.06,362Zm26-11.18H822a.57.57,0,0,0-.63.62v10.21a.55.55,0,0,0,.63.57h22.08a.5.5,0,0,0,.54-.57V351.44C844.63,351.05,844.45,350.82,844.09,350.82Z"/><path class="cls-6" d="M814.08,399.47l.44-.87a4.63,4.63,0,0,1,2.47-.69l15.76-.09q14.43-.09,15.64,0a4.81,4.81,0,0,1,2.17.56,2,2,0,0,1,.43,1.56l-.43.87a3.2,3.2,0,0,1-2.43.43q-29.28,0-30.45.09l-2.3.17-.86-.43A2,2,0,0,1,814.08,399.47Z"/><path class="cls-7" d="M399.66,344.73a5,5,0,0,0-4.65,2.82L377.42,382.9a1.87,1.87,0,0,0,1.83,2.65l51.77-4a2.4,2.4,0,0,0,2.16-3.15L431,372.77a5.37,5.37,0,0,1,5-7.46A11.87,11.87,0,0,1,447,372.77l10.29,26.72a5.59,5.59,0,0,1-5.14,7.63,12,12,0,0,1-11-7.63l-.33-1.16a3.63,3.63,0,0,0-3.32-2.16l-74.34,5.48a6.86,6.86,0,0,1-6.64-10l22.07-44.14a2,2,0,0,0-1.82-2.82h-32.2a7.47,7.47,0,0,1,0-14.94h45.8a3,3,0,0,0,3.16-3.15V307.22a3.2,3.2,0,0,0-3.16-3.32H355.85a7.47,7.47,0,1,1,0-14.93h34.51a3.19,3.19,0,0,0,3.16-3.32V275.53a7.47,7.47,0,1,1,14.93,0v10.12a3.19,3.19,0,0,0,3.16,3.32h34.51a7.47,7.47,0,1,1,0,14.93H411.61a3.2,3.2,0,0,0-3.16,3.32v19.42a3,3,0,0,0,3.16,3.15h45.8a7.47,7.47,0,0,1,0,14.94Z"/><path class="cls-7" d="M358,434.67a6.8,6.8,0,0,1,7,7v3.65a2.77,2.77,0,0,0,2.83,2.65h11.28a7,7,0,0,1,7,7,6.87,6.87,0,0,1-7,6.81H359.5a3.29,3.29,0,0,0-3.15,3.31v13.45a3.26,3.26,0,0,0,3.15,3.15h13.77a11.79,11.79,0,0,1,11.78,12.11l-2,72.85a7,7,0,0,1-7.13,7,6.63,6.63,0,0,1-6.64-7l1.82-67.7a3.18,3.18,0,0,0-3.15-3.32h-9.62a3.6,3.6,0,0,0-3.65,3.15l-8,67.87a7.88,7.88,0,0,1-7.8,7,6.07,6.07,0,0,1-6.14-7L342.57,484V464.37a2.62,2.62,0,0,0-2.65-2.65h-3a6.83,6.83,0,0,1-6.8-6.81,7,7,0,0,1,6.8-7h11.28a2.66,2.66,0,0,0,2.82-2.65v-3.65A6.91,6.91,0,0,1,358,434.67Zm53.44,26.55a3.93,3.93,0,0,0-3.82,2.82l-1.16,3.65a10.16,10.16,0,0,1-9.62,7.14,5.63,5.63,0,0,1-5.31-7.14L399,442a10.3,10.3,0,0,1,9.79-7.3,5.55,5.55,0,0,1,5.31,7.3l-.66,2.32a2,2,0,0,0,1.83,2.66h48.95a7.14,7.14,0,1,1,0,14.27Zm53.27,44.64a4.28,4.28,0,0,1,3,7.3l-12.12,12.45a5.26,5.26,0,0,0-1.16,5.31l13.11,35.34a5.35,5.35,0,0,1-5,7.3,11.3,11.3,0,0,1-10.45-7.3L426,495.9a1.49,1.49,0,0,0-2.49-.5l-1.66,1.33a.17.17,0,0,0,.17.17.52.52,0,0,1,.5.49v71.86a7.22,7.22,0,0,1-14.44,0V510.34a3.29,3.29,0,0,0-3.32-3.15H401a4.68,4.68,0,0,1-3.15-8.14l26.39-23.89a27.94,27.94,0,0,1,18.75-7.3c3.32,0,5.31,5,2.82,7.3l-10.12,9.29v.17a1.21,1.21,0,0,1,1.66.66L447,511a1.29,1.29,0,0,0,2.16.5,18.34,18.34,0,0,1,13.28-5.64Z"/><path class="cls-7" d="M363.65,602.43a4.62,4.62,0,0,1,3.81,7.14L349,636.45a15.94,15.94,0,0,1-13.27,7.14,4.57,4.57,0,0,1-3.82-7.14l17.92-26.88A16.63,16.63,0,0,1,363.65,602.43Zm-8,44a16.33,16.33,0,0,1,13.61-7.14,4.62,4.62,0,0,1,3.82,7.14l-6,8.8a10.55,10.55,0,0,0-1.82,6v72.68a7.37,7.37,0,0,1-7.31,7.31,7.22,7.22,0,0,1-7.13-7.31V681.09c0-.66-.83-.83-1.33-.33a14.73,14.73,0,0,1-12.11,6.47h-1a4.6,4.6,0,0,1-3.65-7.3Zm109.86-1a7.26,7.26,0,0,1,7.3,7.31,7.16,7.16,0,0,1-7.3,7.3H445.13a3.3,3.3,0,0,0-3.16,3.32V734a7.14,7.14,0,1,1-14.27,0V663.34a3.32,3.32,0,0,0-3.32-3.32h-30.7a7.26,7.26,0,0,1-7.3-7.3,7.37,7.37,0,0,1,7.3-7.31Zm-4.65-40a7.14,7.14,0,1,1,0,14.27H401.65a7.14,7.14,0,0,1,0-14.27Z"/><path class="cls-7" d="M529.75,381.11c5.42,2.33,10.59-2.08,10.59-7.9a16.4,16.4,0,0,0-10.59-15,150.79,150.79,0,0,1-15.5-7c-5.42-2.74-10.58-.75-10.58,4.43,0,6.44,4.39,14.06,10.58,17.61A124.16,124.16,0,0,0,529.75,381.11Z"/><path class="cls-7" d="M514.25,311.13c5.17,1.72,10.33,3.33,15.5,4.78,5.42,1.66,10.59-3.22,10.59-9.28,0-7.2-4.39-13.21-10.59-14.5-5.17-1.08-10.33-2.2-15.5-3.29a8.7,8.7,0,0,0-10.58,8.25C503.67,303.06,508.06,309.09,514.25,311.13Z"/><path class="cls-7" d="M569.26,339.23c7-1.39,13.17-7.66,15.49-15l2.84-9.68a9.24,9.24,0,0,1,6.72-6.34c39.33-8.4,78.67-19.38,118-15.35,5.94.67,10.59-3.28,10.59-9.54,0-6-4.65-11.17-10.59-11-37.27.52-74.54,7-111.82,12.74a2.13,2.13,0,0,1-2.32-2.86c.17-.47.34-.94.52-1.41,2.06-5.61-1.81-11-7.23-10.52-7,.7-13.17,6.16-15.5,13.6-4.73,14.84-9.47,29.93-14.2,44.87C559.7,334.7,563.58,340.37,569.26,339.23Z"/><path class="cls-6" d="M533.62,428.06c-6.45-.83-11.88,1.78-13.17,7.74-3.87,17.62-7.75,34.13-11.62,49.71-1,4.43,3.1,12.56,8.78,15.48,6.2,3.22,11.88.43,12.91-5.4q5.94-26.44,11.88-55.69C543.69,434,539.3,428.82,533.62,428.06Z"/><path class="cls-7" d="M698.38,387.62c.25-2.45,2.32-4,5.16-3a69.93,69.93,0,0,1,7,2.8c5.68,2.62,10.59,1.16,10.59-5,0-5.93-4.91-13.93-10.59-16.12-1.81-.72-3.61-1.36-5.42-1.93-2.07-.65-3.87-2.85-3.62-5q1.29-15.41,2.59-30.71c1-9.54-7-19.12-17-18.88-25.13.24-50.27,7.22-75.4,14.2C601,326.79,592,337.52,590.43,349.35l-3.87,34.29a9,9,0,0,1-5.68,7c-2.58.82-5.17,1.59-7.75,2.3a15,15,0,0,0-10.59,13.71c0,6.25,4.65,10.19,10.59,8.43,1.81-.52,3.62-1.09,5.42-1.68a2.7,2.7,0,0,1,3.62,3q-2.58,20.86-5.17,41.43c-1.29,10.4,6.46,16.69,16.27,12.33,24.79-10.86,49.58-25.4,74.37-28.7a3.93,3.93,0,0,1,4.39,4.43q-.37,6.22-.77,12.51c-.52,5.8,3.87,10.28,9.56,10.63s10.84-3.17,11.36-9.1q.51-6.19,1-12.33c.26-2.81,2.58-4.33,5.42-3.34a64,64,0,0,1,8,3.42c5.68,2.87,10.33,1.59,10.33-4.58,0-5.89-4.65-14.05-10.33-16.71a67.82,67.82,0,0,0-6.46-2.67c-2.58-.91-4.39-3.43-4.13-5.68Q697.22,402.72,698.38,387.62Zm-73.09,42.05c-.25,2.93-2.84,6.13-5.68,7.44-5.42,2.49-10.84,5.05-16.27,7.54-2.84,1.3-4.9-.12-4.39-2.95q1.95-16.33,3.88-32.67a9.32,9.32,0,0,1,5.42-7.24c5.25-2.24,10.5-4.5,15.75-6.67,2.59-1.07,4.65.37,4.39,3Q626.85,413.78,625.29,429.67Zm6.72-63c-.26,2.82-2.84,5.75-5.68,6.83-5,1.89-10,3.87-15,5.85-2.58,1-4.65-.5-4.39-3.2q1.54-13.18,3.1-26.24a8.59,8.59,0,0,1,5.68-6.77c4.73-1.54,9.47-3.07,14.2-4.53,2.58-.79,4.65.81,4.39,3.33Q633.17,354.19,632,366.66Zm43.12,48.68a6,6,0,0,1-5.42,5.23,105.89,105.89,0,0,0-18.85,4.07c-2.58.78-4.91-.69-4.39-3.39q1.68-15.6,3.36-30.84a7.41,7.41,0,0,1,5.42-6.18,109.93,109.93,0,0,1,17.56-3.08,4.09,4.09,0,0,1,4.65,4.4Q676.29,400.27,675.13,415.34Z"/><path class="cls-6" d="M534.4,554.73a64.14,64.14,0,0,1-16.79-6.08c-10.33-5.42-17.56-6.09-17.56,4.1V659a24.54,24.54,0,0,0,17.56,22.9,140.47,140.47,0,0,0,16.79,3.74c10.33,1.67,18.85-4,18.85-12.84V572.47C553.25,562.46,544.73,556.88,534.4,554.73Z"/><path class="cls-7" d="M716.19,546.73l-.51-.38c-1.55-1.16-3.88-5.15-3.88-6.79v-6.29c0-10.85-7.23-23.49-17.56-26.6-13.17-4-26.34-3.17-39.51.13-1,.25-3.35-1.5-3.35-2.56,0-4.51-2.33-6.26-6.46-4.86l-2.84,1a9.35,9.35,0,0,0-6.46,9.29c0,1-2.32,4.34-3.35,4.76-13.86,5.68-27.72,12.69-41.58,18.35-5.16,2.1-8,5.87-8,10.66,0,5,2.84,6.81,8,4.79,13.08-5.16,26.17-11.5,39.25-16.8,2.58-1.07,5.68,1.2,5.68,3.6,0,2.65-3.1,7-5.68,8-19.11,7.51-38.22,17.18-57.33,22.25-5.16,1.37-8.26,4.82-8.26,9.7,0,6.3,3.1,8.48,8.26,7.23,19-4.69,38-13.75,57.07-20.79,2.59-1,5.94,1.35,5.94,4.05s-3.35,7.29-5.94,8.2c-12.91,4.53-25.82,10-38.73,14.37-5.42,1.85-8.26,5.61-8.26,10.51s2.84,6.83,8.26,5.15c12.83-4,25.65-9,38.48-13.1,2.58-.85,6.19,1.85,6.19,4.86V647c0,2.78-3.61,7.24-6.19,7.68-11,1.92-22,4.25-33.06,6.23-2.32.41-5.68-2.18-5.68-4.6s3.62-6.31,6.2-6.89q5.16-1.11,10.33-2.3c10.33-2.31,17.3-11.12,17.3-22.15V614.58c0-5.08-2.58-7.23-7.75-5.57-4.9,1.59-7.49,5.25-7.49,10.13v6.69c0,2.33-3.35,6.33-5.68,6.94q-3.74,1-7.49,2c-2.06.52-4.9-1.49-4.9-3.45.08-1.25.17-2.51.26-3.76,0-4.95-2.85-7.07-8.27-5.71s-8.52,4.75-8.52,9.5q-1,49.29-2.07,94.94c-.25,4.37,2.85,7.31,8,7.87s8.26-1.91,8.52-6.62q.25-9.15.52-18.42c0-2.59,3.61-5.78,6.45-5.89l6.72-.24c2.84-.12,6.45,3.07,6.45,5.92v17c0,4.86,2.59,7.91,7.49,8.37,5.17.48,7.75-2.31,7.75-7.52V704.58c0-11-7-19.28-17.3-18.11q-5.55.56-11.11,1.07c-2.58.22-5.94-2.63-5.94-5.26,0-2.39,3.62-5.95,6.2-6.31,11-1.45,22-3.18,33.06-4.58,2.58-.34,6.19,3.15,6.19,6V727c0,5.67,2.84,9.07,8,9.57,4.91.47,7.75-2.57,7.75-8.55V676.22c0-2.9,3.61-7.18,6.19-7.26A150.65,150.65,0,0,1,694,671.79c2.59.54,5.94,5.25,5.94,8.2,0,3.24-3.35,6.31-5.94,5.83-4-.77-7.91-1.37-11.87-1.83-11.88-1.26-18.86,8.76-18.85,20.71v24.58c0,5.8,2.58,9.43,7.48,9.93s9-2.81,9-8.39V710.5c0-3.38,3.36-7,6.2-6.62q3.87.51,7.75,1.15c2.84.47,6.19,5,6.19,8.32v23.53c0,6.08,3.1,10.07,8.27,10.59s8-2.63,8-8.3V622.28a14.42,14.42,0,0,0-8-13.13c-5.17-2.53-8.27-.37-8.27,5.34v4.59c0,2.28-2.84,4.5-4.9,4A85.45,85.45,0,0,0,685.2,621c-2.32-.37-5.42-4.17-5.42-6.77v-7.81a8.61,8.61,0,0,0-9-8.67c-4.9.09-7.48,3.24-7.48,8.64v11.46c0,11.86,7,19,18.85,20.29A96.37,96.37,0,0,1,694,640.24c2.59.61,5.94,5.43,5.94,8.35s-3.35,5.72-5.94,5.15a125.71,125.71,0,0,0-36.41-2.59c-2.58.13-6.19-3.55-6.19-6.4V591.61c0-3.06,3.61-7.68,6.19-8.07,12.23-1.88,24.45-1.82,36.67,1.71,10.33,2.94,17.56.13,17.56-11v-7.19a2.52,2.52,0,0,1,3.88-1.82l.51.38c5.17,3.75,8.27,3.78,8.27-3.29C724.46,557,721.36,550.61,716.19,546.73Zm-26.6,19.51c-10.75-2.39-21.51-2.08-32.27-.2-2.59.44-5.94-2.39-5.94-5.12s3.35-7.09,5.94-7.57c10.76-2,21.52-2.41,32.27,0,2.59.54,5.94,5.23,5.94,8S692.18,566.79,689.59,566.24Zm.26-32c-10.93-2.49-21.86-2-32.79.3a5.1,5.1,0,0,1-5.68-4.61c0-2.43,3.09-6.75,5.68-7.31,10.93-2.36,21.86-3,32.79-.47,2.33.49,5.68,5.11,5.68,7.61C695.53,532.49,692.18,534.74,689.85,534.24Z"/></svg>