<svg width="250" height="225" viewBox="0 0 250 225" fill="none" xmlns="http://www.w3.org/2000/svg">
<g clip-path="url(#clip0)">
<path d="M240.931 75.0004C240.761 74.8577 240.488 74.8577 240.318 75.0182L235.438 79.4873C234.801 80.0697 233.975 80.4025 233.101 80.4025C232.658 80.4025 232.403 79.7785 232.743 79.4873L239.493 73.271C240.106 72.6886 241.107 72.6886 241.745 73.2531L248.725 79.4873C249.083 79.8201 248.853 80.4025 248.367 80.4025C247.475 80.4025 246.625 80.0697 245.97 79.4873L240.931 75.0004ZM241.466 87.4925C241.466 87.7183 241.654 87.9085 241.866 87.9085H246.898C247.384 87.9085 247.766 88.2829 247.766 88.7405C247.766 89.216 247.384 89.5904 246.898 89.5904H234.291C233.823 89.5904 233.441 89.216 233.441 88.7405C233.441 88.2829 233.823 87.9085 234.291 87.9085H239.341C239.572 87.9085 239.742 87.7243 239.742 87.4925V85.4541C239.742 85.2282 239.572 85.0381 239.341 85.0381H235.626C235.141 85.0381 234.758 84.6637 234.758 84.1882C234.758 83.7306 235.141 83.3562 235.626 83.3562H239.341C239.572 83.3562 239.742 83.172 239.742 82.9402V81.3178C239.742 81.1098 239.572 80.9255 239.341 80.9255H236.604C236.136 80.9255 235.754 80.5511 235.754 80.0935C235.754 79.6181 236.136 79.2437 236.604 79.2437H244.646C245.132 79.2437 245.514 79.6181 245.514 80.0935C245.514 80.5511 245.132 80.9255 244.646 80.9255H241.866C241.654 80.9255 241.466 81.1098 241.466 81.3178V82.9402C241.466 83.166 241.654 83.3562 241.866 83.3562H245.581C246.067 83.3562 246.449 83.7306 246.449 84.1882C246.449 84.6637 246.067 85.0381 245.581 85.0381H241.866C241.654 85.0381 241.466 85.2223 241.466 85.4541V87.4925V87.4925Z" fill="#1794A5"/>
<path d="M231.911 95.7413C231.911 94.9093 232.567 94.2675 233.417 94.2675H248.167C249.017 94.2675 249.697 94.9093 249.697 95.7413V110.599C249.697 111.431 249.017 112.096 248.167 112.096H233.417C232.567 112.096 231.911 111.431 231.911 110.599V95.7413ZM247.596 110.474C247.809 110.474 248.021 110.266 248.021 110.058V96.3178C248.021 96.092 247.809 95.8839 247.596 95.8839H233.987C233.757 95.8839 233.544 96.092 233.544 96.3178V110.058C233.544 110.266 233.757 110.474 233.987 110.474H247.596ZM243.013 105.03C243.159 104.822 243.202 104.555 243.123 104.305L242.06 100.567C242 100.341 241.787 100.175 241.532 100.175H235.82C235.396 100.175 235.08 99.842 235.08 99.4497C235.08 99.0575 235.402 98.7247 235.82 98.7247H241.235C241.405 98.7247 241.508 98.5761 241.466 98.4335L241.356 98.1007C241.247 97.7263 241.526 97.3519 241.927 97.3519C242.394 97.3519 242.819 97.6609 242.947 98.1007L243.032 98.4335C243.092 98.6177 243.244 98.7247 243.432 98.7247H245.836C246.237 98.7247 246.577 99.0575 246.577 99.4497C246.577 99.842 246.237 100.175 245.836 100.175H243.948C243.736 100.175 243.59 100.359 243.651 100.567L244.288 102.79C244.306 102.873 244.434 102.897 244.476 102.813C244.749 102.38 245.259 102.106 245.794 102.106C246.176 102.106 246.407 102.498 246.194 102.813L245.114 104.519C244.986 104.745 244.944 105.018 245.004 105.244L245.769 107.966C245.872 108.34 245.599 108.715 245.199 108.715C244.731 108.715 244.306 108.406 244.179 107.966L243.906 106.968C243.863 106.825 243.651 106.801 243.566 106.926L243.183 107.55C242.886 107.984 242.376 108.257 241.848 108.257C241.466 108.257 241.235 107.865 241.423 107.55L243.013 105.03ZM236.033 107.96C235.651 108.067 235.292 107.776 235.292 107.401C235.292 106.968 235.59 106.569 236.033 106.468L240.573 105.387C240.956 105.28 241.314 105.571 241.314 105.969C241.314 106.403 240.998 106.801 240.573 106.902L236.033 107.96ZM235.735 102.368C235.735 101.518 236.434 100.852 237.283 100.852H239.129C239.978 100.852 240.676 101.518 240.676 102.368V103.366C240.676 104.198 239.978 104.882 239.129 104.882H237.283C236.434 104.882 235.735 104.198 235.735 103.366V102.368ZM238.898 103.556C239.129 103.556 239.299 103.372 239.299 103.14V102.582C239.299 102.374 239.129 102.189 238.898 102.189H237.52C237.289 102.189 237.119 102.374 237.119 102.582V103.14C237.119 103.366 237.289 103.556 237.52 103.556H238.898ZM245.903 97.7738C246.006 98.0413 245.794 98.3325 245.502 98.3325H245.272C244.889 98.3325 244.573 98.1066 244.446 97.7738C244.337 97.5064 244.531 97.2152 244.828 97.2152H245.102C245.454 97.2152 245.775 97.447 245.903 97.7738Z" fill="#1794A5"/>
<path d="M232.907 117.938C232.931 117.106 233.647 116.441 234.497 116.441H249.017C249.484 116.441 249.867 116.791 249.867 117.249C249.867 117.707 249.484 118.081 249.017 118.081H243.669C243.414 118.081 243.202 118.247 243.117 118.455L242.546 120.012C242.485 120.197 242.607 120.405 242.819 120.405H246.51C247.36 120.405 248.039 121.07 248.039 121.902V126.247C248.039 127.079 247.36 127.762 246.51 127.762H243.687C243.457 127.762 243.287 127.928 243.287 128.154V133.372C243.287 133.83 242.904 134.18 242.437 134.18C241.969 134.18 241.587 133.83 241.587 133.372V128.154C241.587 127.928 241.399 127.762 241.186 127.762H238.34C237.49 127.762 236.792 127.079 236.792 126.247V121.902C236.792 121.07 237.49 120.405 238.34 120.405H240.015C240.27 120.405 240.482 120.238 240.567 120.012L241.138 118.455C241.223 118.289 241.077 118.081 240.883 118.081H234.959C234.728 118.081 234.534 118.265 234.534 118.497L233.963 133.253C233.939 133.711 233.562 134.062 233.095 134.062C232.652 134.062 232.27 133.687 232.288 133.253L232.907 117.938ZM237.089 132.772C236.604 132.772 236.306 132.273 236.519 131.857L237.156 130.591C237.453 130.032 238.048 129.676 238.686 129.676C239.153 129.676 239.469 130.175 239.256 130.591L238.601 131.857C238.303 132.421 237.726 132.772 237.089 132.772ZM245.945 123.216C246.176 123.216 246.37 123.031 246.37 122.8V122.467C246.37 122.241 246.182 122.051 245.945 122.051H238.965C238.734 122.051 238.54 122.235 238.54 122.467V122.8C238.54 123.025 238.734 123.216 238.965 123.216H245.945ZM238.534 125.688C238.534 125.896 238.728 126.08 238.959 126.08H245.939C246.17 126.08 246.364 125.896 246.364 125.688V125.355C246.364 125.129 246.176 124.963 245.939 124.963H238.959C238.728 124.963 238.534 125.129 238.534 125.355V125.688ZM246.006 130.591C245.775 130.175 246.067 129.676 246.534 129.676C247.171 129.676 247.785 130.026 248.106 130.591L248.847 131.881C249.077 132.273 248.786 132.772 248.319 132.772C247.663 132.772 247.068 132.421 246.747 131.881L246.006 130.591Z" fill="#1794A5"/>
<path d="M234.418 139.03C234.649 138.489 235.201 138.139 235.796 138.139C236.264 138.139 236.579 138.596 236.409 139.03L235.626 140.902C235.523 141.152 235.481 141.419 235.481 141.692V154.933C235.481 155.433 235.056 155.825 234.546 155.825C234.036 155.825 233.611 155.433 233.611 154.933V145.829C233.611 145.787 233.587 145.787 233.569 145.811C233.459 146.061 233.21 146.227 232.931 146.227H232.403C231.917 146.227 231.596 145.752 231.79 145.335L234.418 139.03ZM244.416 152.847C244.416 153.055 244.604 153.24 244.841 153.24H249.084C249.593 153.24 249.994 153.632 249.994 154.131C249.994 154.63 249.593 155.023 249.084 155.023H237.939C237.429 155.023 237.028 154.63 237.028 154.131C237.028 153.632 237.429 153.24 237.939 153.24H242.164C242.394 153.24 242.564 153.055 242.564 152.847V149.775C242.564 149.549 242.394 149.359 242.164 149.359H239.511C239.025 149.359 238.619 148.967 238.619 148.467C238.619 147.992 239.019 147.576 239.511 147.576H242.164C242.394 147.576 242.564 147.41 242.564 147.184V144.129C242.564 143.921 242.394 143.737 242.164 143.737H238.534C238.024 143.737 237.623 143.345 237.623 142.845C237.623 142.346 238.024 141.954 238.534 141.954H248.489C248.999 141.954 249.399 142.346 249.399 142.845C249.399 143.345 248.999 143.737 248.489 143.737H244.841C244.61 143.737 244.416 143.921 244.416 144.129V147.184C244.416 147.41 244.604 147.576 244.841 147.576H247.493C248.003 147.576 248.404 147.992 248.404 148.467C248.404 148.967 248.003 149.359 247.493 149.359H244.841C244.61 149.359 244.416 149.543 244.416 149.775V152.847V152.847ZM244.264 139.838C244.476 140.272 244.161 140.753 243.693 140.753C243.056 140.753 242.461 140.403 242.188 139.838L242.018 139.529C241.806 139.095 242.127 138.614 242.589 138.614C243.226 138.614 243.821 138.965 244.094 139.529L244.264 139.838Z" fill="#1794A5"/>
<path d="M247.681 168.002C248.191 168.002 248.574 168.376 248.574 168.876C248.574 169.375 248.191 169.749 247.681 169.749H243.712C243.523 169.749 243.396 169.975 243.481 170.141L246.941 176.524C247.153 176.94 246.856 177.416 246.413 177.416C245.757 177.416 245.18 177.065 244.883 176.524L241.423 170.141C241.296 169.892 241.041 169.749 240.786 169.749H235.839C235.608 169.749 235.371 169.957 235.371 170.183V174.504C235.371 174.729 235.602 174.896 235.814 174.878L238.042 174.569C238.528 174.51 238.934 174.836 238.934 175.318C238.934 175.835 238.552 176.275 238.042 176.334L235.092 176.75C234.285 176.875 233.587 176.292 233.587 175.484V161.435C233.587 160.603 234.267 159.937 235.116 159.937H245.982C246.85 159.937 247.511 160.603 247.511 161.435V163.931C247.511 164.763 246.856 165.405 245.982 165.405H242.607C242.394 165.405 242.206 165.613 242.224 165.821L242.455 167.586C242.498 167.836 242.71 168.002 242.941 168.002H247.681V168.002ZM235.839 161.726C235.608 161.726 235.371 161.91 235.371 162.142V163.224C235.371 163.45 235.602 163.658 235.839 163.658H245.284C245.514 163.658 245.709 163.45 245.709 163.224V162.142C245.709 161.916 245.52 161.726 245.284 161.726H235.839ZM235.839 165.405C235.608 165.405 235.371 165.613 235.371 165.821V167.586C235.371 167.812 235.602 168.002 235.839 168.002H240.276C240.507 168.002 240.677 167.794 240.658 167.586L240.428 165.821C240.409 165.571 240.173 165.405 239.942 165.405H235.839Z" fill="#1794A5"/>
<path d="M249.49 184.815C249.49 185.355 249.108 185.73 248.598 185.73H246.771C246.516 185.73 246.243 185.855 246.115 186.063L242.17 192.962C242.06 193.147 242.109 193.462 242.297 193.586L247.882 197.806C248.264 198.056 248.052 198.638 247.608 198.638C246.631 198.638 245.636 198.305 244.889 197.723L241.199 194.876C240.986 194.727 240.713 194.727 240.476 194.876L236.992 197.723C236.27 198.305 235.359 198.638 234.424 198.638C234.042 198.638 233.811 198.038 234.127 197.806L239.305 193.652C239.493 193.509 239.535 193.218 239.414 192.986L235.171 186.069C235.044 185.861 234.77 185.736 234.515 185.736H232.986C232.476 185.736 232.094 185.361 232.094 184.821C232.094 184.321 232.476 183.947 232.986 183.947H239.481C239.711 183.947 239.924 183.739 239.924 183.513V182.538C239.924 182.039 240.282 181.689 240.792 181.689C241.302 181.689 241.66 182.039 241.66 182.538V183.513C241.66 183.739 241.872 183.947 242.103 183.947H248.598C249.108 183.941 249.49 184.315 249.49 184.815ZM240.507 191.506C240.616 191.649 240.907 191.649 240.992 191.465L244.094 186.104C244.179 185.956 244.07 185.73 243.839 185.73H237.472C237.241 185.73 237.132 185.956 237.241 186.146L240.507 191.506Z" fill="#1794A5"/>
<path d="M232.7 207.986C232.276 207.986 232.063 207.469 232.385 207.178L235.863 204.016C236.5 203.434 237.496 203.416 238.157 203.975L241.915 207.178C242.23 207.469 242.042 207.986 241.599 207.986H241.259C240.664 207.986 240.094 207.778 239.645 207.404L239.626 207.386C239.566 207.344 239.456 207.386 239.456 207.469C239.456 207.927 239.098 208.278 238.631 208.278H235.529C235.086 208.278 234.704 207.927 234.704 207.487C234.704 207.428 234.6 207.362 234.558 207.428H234.534C234.151 207.778 233.623 207.986 233.071 207.986H232.7ZM240.804 213.388C240.804 214.221 240.124 214.904 239.274 214.904H234.922C234.691 214.904 234.497 215.07 234.479 215.296L234.012 220.366C233.969 220.782 233.611 221.091 233.186 221.091C232.785 221.091 232.464 220.758 232.506 220.366L233.483 210.387C233.568 209.537 234.309 208.89 235.183 208.89H239.28C240.13 208.89 240.81 209.555 240.81 210.405V213.388H240.804ZM236.075 220.663C235.226 220.663 234.546 219.979 234.546 219.147V217.424C234.546 216.592 235.226 215.926 236.075 215.926H239.705C240.555 215.926 241.253 216.592 241.253 217.424V219.147C241.253 219.979 240.555 220.663 239.705 220.663H236.075ZM234.691 213.056C234.691 213.264 234.861 213.448 235.074 213.448H238.959C239.171 213.448 239.341 213.282 239.341 213.056C239.341 212.83 239.171 212.663 238.959 212.663H235.141C234.904 212.663 234.716 212.824 234.691 213.056ZM239.341 210.726C239.341 210.518 239.171 210.352 238.983 210.352H235.353C235.122 210.352 234.928 210.518 234.928 210.726C234.91 210.934 235.074 211.118 235.286 211.118H238.977C239.171 211.124 239.341 210.934 239.341 210.726ZM238.576 206.863C238.704 206.863 238.789 206.679 238.661 206.596L237.326 205.413C237.156 205.27 236.883 205.27 236.713 205.413L235.462 206.596C235.353 206.679 235.42 206.863 235.566 206.863H238.576ZM236.458 217.376C236.227 217.376 236.033 217.543 236.033 217.768V218.808C236.033 219.016 236.221 219.201 236.458 219.201H239.365C239.578 219.201 239.766 219.016 239.766 218.808V217.768C239.766 217.543 239.578 217.376 239.365 217.376H236.458ZM244.519 217.442C244.033 217.442 243.651 217.067 243.651 216.592V205.579C243.651 205.104 244.033 204.73 244.519 204.73C244.986 204.73 245.369 205.104 245.369 205.579V216.592C245.369 217.067 244.986 217.442 244.519 217.442ZM247.748 204.159C247.748 203.684 248.149 203.309 248.616 203.309C249.102 203.309 249.484 203.684 249.484 204.159V220.247C249.484 220.722 249.102 221.097 248.616 221.097C248.149 221.097 247.748 220.722 247.748 220.247V204.159Z" fill="#1794A5"/>
<path d="M206.842 4.81978C206.399 4.81978 206.035 4.46914 206.035 4.05313C206.035 3.6193 206.393 3.26272 206.842 3.26272H212.087C212.53 3.26272 212.894 3.61335 212.894 4.05313C212.894 4.46914 212.536 4.81978 212.087 4.81978H206.842ZM208.159 18.1023C207.31 18.1023 206.63 17.4367 206.63 16.5869V13.241C206.63 12.409 207.31 11.7433 208.159 11.7433H210.769C211.619 11.7433 212.317 12.409 212.317 13.241V16.5869C212.317 17.4367 211.619 18.1023 210.769 18.1023H208.159ZM211.194 6.04403C211.662 6.04403 212.044 6.41844 212.044 6.85228C212.044 7.30988 211.662 7.68429 211.194 7.68429H207.716C207.249 7.68429 206.891 7.30988 206.891 6.85228C206.891 6.41844 207.249 6.04403 207.716 6.04403H211.194ZM207.692 10.4537C207.249 10.4537 206.885 10.0793 206.885 9.64547C206.885 9.21164 207.243 8.83723 207.692 8.83723H211.219C211.662 8.83723 212.044 9.21164 212.044 9.64547C212.044 10.0793 211.662 10.4537 211.219 10.4537H207.692ZM210.982 0.475464C211.449 0.475464 211.832 0.849871 211.832 1.30748C211.832 1.76509 211.449 2.1395 210.982 2.1395H207.965C207.498 2.1395 207.115 1.76509 207.115 1.30748C207.115 0.849871 207.498 0.475464 207.965 0.475464H210.982V0.475464ZM208.627 13.2766C208.396 13.2766 208.226 13.4609 208.226 13.6689V16.1649C208.226 16.3729 208.396 16.5572 208.627 16.5572H210.326C210.557 16.5572 210.751 16.3729 210.751 16.1649V13.6689C210.751 13.4609 210.563 13.2766 210.326 13.2766H208.627ZM223.207 17.2287C223.565 17.5377 223.334 18.1023 222.867 18.1023C222.017 18.1023 221.192 17.7873 220.573 17.2287L218.915 15.7133C218.746 15.5468 218.491 15.5468 218.321 15.7133L216.876 17.0623C216.263 17.6209 215.431 17.9359 214.606 17.9359C214.181 17.9359 213.926 17.3535 214.248 17.0623L217.137 14.3999C217.307 14.2572 217.349 14.0076 217.198 13.8174L215.541 11.7196C215.267 11.3452 215.516 10.8281 216.008 10.8281C216.706 10.8281 217.386 11.1609 217.835 11.7433L218.43 12.5338C218.539 12.6823 218.77 12.6586 218.855 12.4922L219.79 10.5369C219.875 10.3705 219.747 10.1863 219.559 10.1863H214.636C214.15 10.1863 213.744 9.79405 213.744 9.31267C213.744 8.81346 214.144 8.43905 214.636 8.43905H221.277C221.999 8.43905 222.466 9.16409 222.145 9.7881L220.045 14.0908C220.02 14.1324 220.002 14.174 219.96 14.2156V14.2394L223.207 17.2287ZM217.264 2.3059C217.009 2.3059 216.821 2.4723 216.755 2.69814L215.905 6.39467C215.802 6.89388 215.334 7.26828 214.782 7.26828C214.314 7.26828 213.956 6.83445 214.059 6.39467L215.079 1.96715C215.267 1.11731 216.056 0.493293 216.949 0.493293H219.498C220.348 0.493293 221.046 1.17673 221.046 2.00875V4.98024C221.046 5.20607 221.216 5.39625 221.447 5.39625H222.976C223.462 5.39625 223.887 5.78848 223.887 6.28769C223.887 6.76313 223.462 7.17914 222.976 7.17914H220.749C219.899 7.17914 219.201 6.4957 219.201 5.66368V2.72191C219.201 2.49608 219.031 2.3059 218.8 2.3059H217.264Z" fill="#1794A5"/>
<path d="M206.951 26.8504C206.466 26.8504 206.083 26.476 206.083 26.0006C206.083 25.5013 206.466 25.1269 206.951 25.1269H213.234C213.744 25.1269 214.126 25.5013 214.126 26.0006C214.126 26.476 213.744 26.8504 213.234 26.8504H206.951ZM208.311 39.9606C207.443 39.9606 206.781 39.3188 206.781 38.4867V34.9982C206.781 34.1662 207.437 33.5006 208.311 33.5006H211.923C212.773 33.5006 213.452 34.1662 213.452 34.9982V38.4867C213.452 39.3188 212.773 39.9606 211.923 39.9606H208.311ZM212.299 28.0152C212.767 28.0152 213.106 28.3659 213.106 28.8056C213.106 29.2633 212.767 29.6139 212.299 29.6139H207.947C207.48 29.6139 207.121 29.2633 207.121 28.8056C207.121 28.3718 207.48 28.0152 207.947 28.0152H212.299ZM207.947 32.3595C207.48 32.3595 207.121 32.0089 207.121 31.5513C207.121 31.0937 207.48 30.7609 207.947 30.7609H212.299C212.767 30.7609 213.106 31.0937 213.106 31.5513C213.106 32.0089 212.767 32.3595 212.299 32.3595H207.947ZM212.026 22.4229C212.512 22.4229 212.876 22.7735 212.876 23.2311C212.876 23.6887 212.518 24.0394 212.026 24.0394H208.202C207.734 24.0394 207.376 23.6887 207.376 23.2311C207.376 22.7735 207.734 22.4229 208.202 22.4229H212.026ZM208.815 35.0814C208.584 35.0814 208.372 35.2894 208.372 35.4974V37.9697C208.372 38.1955 208.584 38.4035 208.815 38.4035H211.407C211.637 38.4035 211.832 38.1955 211.832 37.9697V35.4974C211.832 35.2894 211.644 35.0814 211.407 35.0814H208.815ZM223.632 28.6571C224.184 28.6571 224.585 29.0731 224.585 29.5901C224.585 30.1072 224.184 30.5232 223.632 30.5232H221.277C221.046 30.5232 220.834 30.7074 220.834 30.9392V39.087C220.834 39.604 220.409 40.0022 219.881 40.0022C219.352 40.0022 218.928 39.61 218.928 39.087V30.9451C218.928 30.7193 218.715 30.5291 218.503 30.5291H216.166C215.638 30.5291 215.231 30.1131 215.231 29.5961C215.231 29.079 215.632 28.663 216.166 28.663H218.503C218.715 28.663 218.928 28.4788 218.928 28.247V23.136C218.928 22.619 219.352 22.2208 219.881 22.2208C220.409 22.2208 220.834 22.6131 220.834 23.136V28.247C220.834 28.4728 221.046 28.663 221.277 28.663H223.632V28.6571Z" fill="#1794A5"/>
<path d="M213.276 46.6345C213.167 46.6345 213.088 46.694 213.064 46.8009L212.833 48.0668C212.791 48.2332 212.936 48.4174 213.131 48.4174H213.726C214.169 48.4174 214.533 48.7681 214.533 49.2078C214.533 49.6417 214.175 49.9983 213.726 49.9983H207.164C206.721 49.9983 206.357 49.6476 206.357 49.2078C206.357 48.774 206.715 48.4174 207.164 48.4174H207.777C207.965 48.4174 208.117 48.2332 208.093 48.043L207.838 46.795C207.819 46.694 207.728 46.6286 207.625 46.6286C207.243 46.6286 206.927 46.3136 206.927 45.9452V45.8441C206.927 45.4103 207.285 45.0537 207.734 45.0537H209.477C209.604 45.0537 209.707 44.9527 209.707 44.8279V44.7447C209.707 44.3287 210.065 43.978 210.49 43.978C210.933 43.978 211.273 44.3287 211.273 44.7447V44.8279C211.273 44.9527 211.376 45.0537 211.504 45.0537H213.161C213.604 45.0537 213.944 45.4043 213.944 45.8441V45.9452C213.956 46.3255 213.659 46.6345 213.276 46.6345ZM213.04 55.4242C212.894 55.4242 212.785 55.549 212.785 55.6738V57.7122C212.785 57.8549 212.955 57.9618 213.082 57.8786L213.398 57.7122C213.756 57.5042 214.223 57.7717 214.223 58.1877C214.223 58.7463 213.908 59.2693 213.398 59.5367L212.487 60.0122C211.874 60.345 211.109 59.9052 211.109 59.2218V55.8343C211.109 55.6084 210.939 55.4183 210.709 55.4183H210.351C210.12 55.4183 209.926 55.6025 209.883 55.8343L209.058 60.7194C208.997 61.177 208.572 61.5276 208.105 61.5276C207.662 61.5276 207.322 61.1354 207.407 60.7194L208.232 55.65C208.25 55.5431 208.147 55.4242 208.044 55.4242C207.558 55.4242 207.176 55.0498 207.176 54.5922V52.3279C207.176 51.4959 207.874 50.8124 208.724 50.8124H212.457C213.307 50.8124 214.005 51.4959 214.005 52.3279V54.509C213.999 55.0082 213.574 55.4242 213.04 55.4242ZM209.179 52.3695C208.948 52.3695 208.754 52.5597 208.754 52.7855V53.469C208.754 53.6948 208.942 53.8612 209.179 53.8612H211.959C212.19 53.8612 212.36 53.6948 212.36 53.469V52.7855C212.36 52.5597 212.19 52.3695 211.959 52.3695H209.179ZM209.816 46.6345C209.604 46.6345 209.458 46.8188 209.501 47.0268L209.713 48.0252C209.774 48.251 209.986 48.4174 210.223 48.4174H210.733C210.964 48.4174 211.176 48.251 211.219 48.0252L211.407 47.0268C211.425 46.8188 211.279 46.6345 211.049 46.6345H209.816ZM223.274 48.4234C223.717 48.4234 224.081 48.774 224.081 49.2138C224.081 49.6476 223.723 50.0042 223.274 50.0042H216.33C215.887 50.0042 215.522 49.6536 215.522 49.2138C215.522 48.7799 215.88 48.4234 216.33 48.4234H217.052C217.264 48.4234 217.41 48.2154 217.349 48.0311L217.052 46.8069C217.009 46.7059 216.924 46.6405 216.797 46.6405C216.415 46.6405 216.099 46.3077 216.099 45.9333V45.8501C216.099 45.4162 216.457 45.0596 216.882 45.0596H218.752C218.879 45.0596 218.982 44.9586 218.982 44.8338V44.7506C218.982 44.3346 219.34 43.984 219.765 43.984C220.208 43.984 220.548 44.3346 220.548 44.7506V44.8338C220.548 44.9586 220.658 45.0596 220.779 45.0596H222.691C223.134 45.0596 223.498 45.4103 223.498 45.8501C223.498 46.2839 223.14 46.6405 222.715 46.6405C222.588 46.6405 222.485 46.6999 222.442 46.8247L222.145 48.0311C222.084 48.2154 222.248 48.4234 222.442 48.4234H223.274ZM221.787 59.5843C221.787 59.8101 221.975 60.0003 222.187 60.0003H223.589C224.057 60.0003 224.415 60.3509 224.415 60.8085C224.415 61.2661 224.057 61.6168 223.589 61.6168H221.635C220.785 61.6168 220.087 60.9512 220.087 60.1013V55.8402C220.087 55.6144 219.917 55.4242 219.686 55.4242H219.535C219.304 55.4242 219.091 55.6084 219.067 55.8402L218.26 60.7253C218.175 61.1829 217.774 61.5336 217.283 61.5336C216.858 61.5336 216.518 61.1413 216.585 60.7253L217.392 55.7392C217.41 55.5728 217.283 55.4301 217.137 55.4301C216.5 55.4301 216.014 54.9547 216.014 54.3307V52.3338C216.014 51.5018 216.694 50.8184 217.544 50.8184H222.041C222.909 50.8184 223.589 51.5018 223.589 52.3338V54.0395C223.589 54.8061 222.952 55.4301 222.169 55.4301C221.957 55.4301 221.787 55.5965 221.787 55.8045V59.5843ZM218.011 52.3695C217.78 52.3695 217.61 52.5597 217.61 52.7855V53.469C217.61 53.6948 217.78 53.8612 218.011 53.8612H221.574C221.805 53.8612 221.999 53.6948 221.999 53.469V52.7855C221.999 52.5597 221.811 52.3695 221.574 52.3695H218.011ZM219.025 46.6345C218.812 46.6345 218.667 46.8188 218.727 47.0089L218.982 48.0252C219.043 48.251 219.237 48.4174 219.492 48.4174H219.978C220.233 48.4174 220.445 48.251 220.488 48.0252L220.761 47.0089C220.803 46.8247 220.658 46.6345 220.445 46.6345H219.025Z" fill="#1794A5"/>
<path d="M220.876 73.7167C220.749 73.7167 220.706 73.8831 220.815 73.9663L223.213 75.6482C223.529 75.874 223.383 76.3732 222.982 76.3732C222.175 76.3732 221.368 76.1058 220.712 75.6244H220.694C220.585 75.5412 220.439 75.6244 220.439 75.7492V80.0519C220.439 80.8839 219.741 81.5496 218.891 81.5496H211.759C210.909 81.5496 210.211 80.8839 210.211 80.0519V75.8146C210.211 75.7136 210.084 75.6482 210.023 75.7136C209.537 76.088 208.942 76.296 208.323 76.296H208.093C207.71 76.296 207.54 75.8205 207.838 75.5709L209.962 73.9723C210.071 73.8891 210.005 73.7227 209.877 73.7227H206.945C206.605 73.7227 206.332 73.4552 206.332 73.1224C206.332 72.8075 206.605 72.54 206.945 72.54H211.443C211.613 72.54 211.759 72.3974 211.759 72.231C211.759 72.0646 211.613 71.9219 211.443 71.9219H210.593C210.235 71.9219 209.938 71.6545 209.938 71.2979C209.938 70.9473 210.235 70.6561 210.593 70.6561H211.443C211.613 70.6561 211.759 70.5075 211.759 70.3471C211.759 70.1569 211.613 70.0321 211.443 70.0321H209.598C209.258 70.0321 208.961 69.7409 208.961 69.4081C208.961 69.0574 209.258 68.7841 209.598 68.7841H211.595C211.68 68.7841 211.765 68.7009 211.765 68.6177C211.765 68.267 212.038 67.9936 212.402 67.9936H212.463C212.821 67.9936 213.1 68.2611 213.1 68.6177C213.1 68.7009 213.185 68.7841 213.27 68.7841H217.386C217.471 68.7841 217.556 68.7009 217.556 68.6177C217.556 68.267 217.829 67.9936 218.193 67.9936H218.254C218.594 67.9936 218.891 68.2611 218.891 68.6177C218.891 68.7009 218.952 68.7841 219.061 68.7841H221.058C221.398 68.7841 221.696 69.0515 221.696 69.4081C221.696 69.7409 221.398 70.0321 221.058 70.0321H219.213C219.043 70.0321 218.897 70.1569 218.897 70.3471C218.897 70.5135 219.043 70.6561 219.213 70.6561H220.063C220.421 70.6561 220.718 70.9473 220.718 71.2979C220.718 71.6486 220.421 71.9219 220.063 71.9219H219.195C219.025 71.9219 218.897 72.0646 218.897 72.231C218.897 72.3974 219.025 72.54 219.195 72.54H223.717C224.057 72.54 224.33 72.8075 224.33 73.1224C224.33 73.4552 224.057 73.7227 223.717 73.7227H220.876V73.7167ZM208.499 67.6668C208.372 67.6668 208.244 67.7916 208.244 67.9164V68.2076C208.244 68.5582 207.971 68.8316 207.631 68.8316C207.291 68.8316 207.018 68.5642 207.018 68.2076V67.649C207.018 66.9833 207.546 66.4425 208.226 66.4425H214.49C214.6 66.4425 214.66 66.3831 214.66 66.2761V66.2583C214.66 65.9077 214.958 65.6165 215.316 65.6165C215.674 65.6165 215.953 65.9077 215.953 66.2583V66.2761C215.953 66.3831 216.038 66.4425 216.141 66.4425H222.406C223.086 66.4425 223.614 66.9833 223.614 67.649V68.2076C223.614 68.5582 223.341 68.8316 223.001 68.8316C222.643 68.8316 222.363 68.5642 222.363 68.2076V67.9164C222.363 67.7916 222.254 67.6668 222.108 67.6668H208.499ZM210.411 83.7128C210.096 83.7128 209.902 83.3384 210.114 83.0888C210.454 82.6966 210.964 82.4648 211.492 82.4648H212.062C212.402 82.4648 212.572 82.8392 212.36 83.0888C212.02 83.481 211.51 83.7128 210.982 83.7128H210.411ZM218.903 76.605C219.073 76.605 219.219 76.4624 219.219 76.296C219.219 76.1117 219.073 75.9632 218.903 75.9632H211.729C211.559 75.9632 211.413 76.1058 211.413 76.296C211.413 76.4624 211.559 76.605 211.729 76.605H218.903ZM211.729 77.8709C211.559 77.8709 211.413 78.0194 211.413 78.1799C211.413 78.3463 211.559 78.4949 211.729 78.4949H218.903C219.073 78.4949 219.219 78.3463 219.219 78.1799C219.219 78.0135 219.073 77.8709 218.903 77.8709H211.729ZM211.407 80.0935C211.407 80.2599 211.553 80.4026 211.723 80.4026H218.897C219.067 80.4026 219.213 80.2599 219.213 80.0935C219.213 79.9093 219.067 79.7607 218.897 79.7607H211.723C211.559 79.7607 211.407 79.9093 211.407 80.0935ZM211.492 74.5666C211.383 74.6498 211.449 74.8162 211.577 74.8162H219.11C219.237 74.8162 219.28 74.6498 219.17 74.5666L218.278 73.9426C218.066 73.7999 217.793 73.7167 217.538 73.7167H213.058C212.785 73.7167 212.53 73.7999 212.317 73.9663L211.492 74.5666ZM213.422 70.0143C213.234 70.0143 213.082 70.1391 213.082 70.3292C213.082 70.4956 213.228 70.6383 213.422 70.6383H217.198C217.392 70.6383 217.538 70.4897 217.538 70.3292C217.538 70.1391 217.392 70.0143 217.198 70.0143H213.422ZM217.544 72.2191C217.544 72.0527 217.398 71.9101 217.228 71.9101H213.41C213.24 71.9101 213.094 72.0527 213.094 72.2191C213.094 72.3855 213.24 72.5281 213.41 72.5281H217.228C217.392 72.5281 217.544 72.3855 217.544 72.2191ZM218.648 83.0888C218.436 82.8392 218.624 82.4648 218.964 82.4648H219.516C220.002 82.4648 220.494 82.6906 220.791 83.0888C221.004 83.3384 220.809 83.7128 220.469 83.7128H219.917C219.431 83.7128 218.946 83.481 218.648 83.0888Z" fill="#1794A5"/>
<path d="M216.354 92.7936C216.354 93.3285 215.862 93.8099 215.316 93.8099C214.77 93.8099 214.266 93.382 214.266 92.7936C214.266 92.2053 214.715 91.7655 215.316 91.7655C215.917 91.7655 216.354 92.2588 216.354 92.7936Z" fill="#1794A5"/>
<path d="M224.463 105.553C224.463 106.052 224.039 106.445 223.553 106.445H220.688C220.457 106.445 220.263 106.611 220.263 106.837V118.598C220.263 119.073 219.862 119.489 219.352 119.489C218.867 119.489 218.442 119.073 218.442 118.598V106.837C218.442 106.611 218.272 106.445 218.041 106.445H216.129C215.874 106.445 215.662 106.587 215.577 106.819L215.176 107.919C214.988 108.459 214.454 108.81 213.859 108.81C213.373 108.81 213.052 108.352 213.204 107.919L215.091 102.808C215.279 102.249 215.814 101.892 216.409 101.892C216.894 101.892 217.234 102.35 217.064 102.808L216.512 104.281C216.451 104.448 216.572 104.656 216.785 104.656H223.553C224.039 104.656 224.463 105.054 224.463 105.553ZM214.824 115.799C214.339 115.799 213.974 115.365 214.084 114.907L214.824 111.663C214.952 111.146 215.419 110.771 215.971 110.771C216.457 110.771 216.821 111.205 216.712 111.663L215.971 114.907C215.844 115.424 215.377 115.799 214.824 115.799ZM222.509 110.771C223.061 110.771 223.529 111.146 223.632 111.645L224.372 114.824C224.476 115.282 224.117 115.716 223.65 115.716C223.098 115.716 222.63 115.341 222.503 114.824L221.78 111.645C221.683 111.205 222.042 110.771 222.509 110.771Z" fill="#1794A5"/>
<path d="M224.227 134.626C224.227 135.06 223.869 135.417 223.419 135.417H220.257C220.002 135.417 219.79 135.565 219.686 135.767L218.624 138.097C218.539 138.281 218.648 138.513 218.855 138.572L221.805 139.339C222.272 139.464 222.588 139.88 222.588 140.355C222.588 140.771 222.205 141.08 221.805 140.979L217.647 139.88C217.392 139.82 217.119 139.797 216.864 139.862L209.264 141.276C208.821 141.36 208.414 141.027 208.414 140.593C208.414 140.117 208.772 139.701 209.264 139.595L213.125 138.869C213.234 138.852 213.234 138.703 213.125 138.685L211.619 138.228C210.812 138.002 210.369 137.146 210.666 136.379L210.879 135.797C210.939 135.613 210.794 135.423 210.606 135.423H207.249C206.806 135.423 206.442 135.072 206.442 134.632C206.442 134.175 206.8 133.824 207.249 133.824H211.304C211.492 133.824 211.686 133.699 211.747 133.515L211.874 133.182C212.044 132.683 212.512 132.35 213.04 132.35C213.483 132.35 213.78 132.766 213.635 133.182L213.507 133.515C213.446 133.681 213.568 133.824 213.738 133.824H223.419C223.869 133.818 224.227 134.169 224.227 134.626ZM212.214 126.835C212.445 126.835 212.657 126.651 212.657 126.419V125.736C212.657 125.51 212.445 125.302 212.214 125.302H208.602C208.135 125.302 207.795 124.969 207.795 124.511C207.795 124.077 208.135 123.721 208.602 123.721H222.017C222.485 123.721 222.825 124.071 222.825 124.511C222.825 124.969 222.485 125.302 222.017 125.302H218.703C218.472 125.302 218.278 125.51 218.278 125.736V126.419C218.278 126.645 218.466 126.835 218.703 126.835H220.785C221.635 126.835 222.29 127.501 222.29 128.333V130.246C222.29 131.096 221.635 131.744 220.785 131.744H210.09C209.24 131.744 208.584 131.102 208.584 130.246V128.333C208.584 127.501 209.24 126.835 210.09 126.835H212.214ZM210.666 128.35C210.436 128.35 210.223 128.535 210.223 128.766V129.783C210.223 130.008 210.436 130.216 210.666 130.216H212.214C212.445 130.216 212.657 130.008 212.657 129.783V128.766C212.657 128.541 212.445 128.35 212.214 128.35H210.666ZM216.439 137.806C216.67 137.865 216.906 137.746 217.009 137.538L217.877 135.773C217.962 135.607 217.835 135.423 217.647 135.423H213.191C212.936 135.423 212.706 135.571 212.639 135.797L212.427 136.397C212.342 136.605 212.469 136.813 212.682 136.873L216.439 137.806ZM216.226 126.835C216.457 126.835 216.651 126.651 216.651 126.419V125.736C216.651 125.51 216.457 125.302 216.226 125.302H214.679C214.466 125.302 214.254 125.51 214.254 125.736V126.419C214.254 126.645 214.466 126.835 214.679 126.835H216.226ZM214.679 128.35C214.466 128.35 214.254 128.535 214.254 128.766V129.783C214.254 130.008 214.466 130.216 214.679 130.216H216.226C216.457 130.216 216.651 130.008 216.651 129.783V128.766C216.651 128.541 216.457 128.35 216.226 128.35H214.679ZM220.664 128.766C220.664 128.541 220.451 128.35 220.22 128.35H218.715C218.484 128.35 218.29 128.535 218.29 128.766V129.783C218.29 130.008 218.478 130.216 218.715 130.216H220.22C220.451 130.216 220.664 130.008 220.664 129.783V128.766Z" fill="#1794A5"/>
<path d="M215.146 154.993C214.891 154.993 214.66 155.118 214.551 155.343L212.299 159.771C212.214 159.919 212.342 160.104 212.53 160.104L219.152 159.604C219.365 159.587 219.492 159.396 219.425 159.212L219.152 158.505C218.964 158.047 219.304 157.572 219.79 157.572C220.403 157.572 220.955 157.946 221.192 158.505L222.509 161.851C222.697 162.309 222.339 162.808 221.853 162.808C221.24 162.808 220.688 162.416 220.451 161.851L220.409 161.702C220.348 161.536 220.154 161.435 219.984 161.435L210.472 162.118C209.792 162.16 209.307 161.477 209.622 160.87L212.445 155.343C212.53 155.177 212.402 154.993 212.214 154.993H208.099C207.571 154.993 207.146 154.577 207.146 154.06C207.146 153.543 207.571 153.127 208.099 153.127H213.956C214.187 153.127 214.357 152.96 214.357 152.734V150.304C214.357 150.078 214.187 149.888 213.956 149.888H209.543C209.015 149.888 208.59 149.472 208.59 148.955C208.59 148.438 209.015 148.022 209.543 148.022H213.956C214.187 148.022 214.357 147.837 214.357 147.606V146.34C214.357 145.823 214.782 145.407 215.31 145.407C215.838 145.407 216.263 145.823 216.263 146.34V147.606C216.263 147.831 216.433 148.022 216.663 148.022H221.076C221.604 148.022 222.029 148.438 222.029 148.955C222.029 149.472 221.604 149.888 221.076 149.888H216.663C216.433 149.888 216.263 150.072 216.263 150.304V152.734C216.263 152.96 216.433 153.127 216.663 153.127H222.521C223.049 153.127 223.474 153.543 223.474 154.06C223.474 154.577 223.049 154.993 222.521 154.993H215.146V154.993Z" fill="#1794A5"/>
<path d="M212.767 169.06C212.323 169.06 212.026 168.769 212.026 168.353C212.026 167.937 212.323 167.628 212.767 167.628H216.755C217.604 167.628 218.242 168.269 218.217 169.101L217.92 184C217.92 184.416 217.604 184.708 217.179 184.708C216.779 184.708 216.481 184.416 216.481 184L216.591 178.765C216.591 178.557 216.36 178.331 216.148 178.331H215.365C215.134 178.331 214.879 178.497 214.836 178.765L213.841 183.983C213.756 184.399 213.416 184.708 212.949 184.708C212.548 184.708 212.269 184.375 212.354 183.983L213.392 178.598C213.41 178.474 213.283 178.331 213.161 178.331H213.076C212.651 178.331 212.336 178.022 212.336 177.606C212.336 177.172 212.657 176.881 213.076 176.881H213.349C213.519 176.881 213.665 176.714 213.665 176.572L213.75 173.993C213.774 173.826 213.604 173.642 213.434 173.642H213.094C212.651 173.642 212.33 173.327 212.33 172.917C212.33 172.483 212.651 172.168 213.094 172.168H213.495C213.665 172.168 213.835 171.984 213.853 171.817L213.938 169.512C213.938 169.304 213.726 169.078 213.513 169.078H212.767V169.06ZM215.122 176.417C215.122 176.643 215.334 176.875 215.565 176.875H216.16C216.372 176.875 216.603 176.649 216.603 176.417L216.645 174.088C216.645 173.862 216.415 173.63 216.202 173.63H215.674C215.443 173.63 215.231 173.856 215.207 174.088L215.122 176.417ZM216.245 172.162C216.475 172.162 216.688 171.954 216.712 171.728L216.73 169.523C216.73 169.298 216.518 169.066 216.287 169.066H215.862C215.632 169.066 215.395 169.292 215.395 169.523L215.31 171.728C215.31 171.936 215.522 172.162 215.753 172.162H216.245ZM223.231 167.485C224.014 167.485 224.567 168.151 224.397 168.917L223.589 172.531C223.529 172.798 223.571 173.071 223.65 173.297L223.948 174.004C224.348 174.92 224.542 175.918 224.542 176.916V179.454C224.542 180.262 223.905 180.886 223.08 180.886H222.315C221.89 180.886 221.592 180.595 221.592 180.179C221.592 179.763 221.89 179.472 222.315 179.472H222.715C222.885 179.472 223.073 179.288 223.073 179.121V176.126C223.073 175.859 223.031 175.585 222.922 175.336L222.564 174.486C222.181 173.571 222.096 172.572 222.309 171.615L222.794 169.351C222.837 169.143 222.649 168.917 222.436 168.917H221.271C221.04 168.917 220.803 169.125 220.803 169.351V184C220.803 184.416 220.463 184.708 220.063 184.708C219.638 184.708 219.322 184.416 219.322 184V168.935C219.322 168.103 219.978 167.479 220.87 167.479H223.231V167.485Z" fill="#1794A5"/>
<path d="M211.789 196.534C212.172 196.534 212.445 196.909 212.257 197.301L211.704 198.507C211.619 198.674 211.644 198.882 211.729 199.048L211.832 199.232C212.062 199.607 211.789 199.999 211.407 199.999H211.049C210.666 199.999 210.369 199.815 210.181 199.482C210.096 199.464 209.908 199.482 209.908 199.565V206.007C209.908 206.483 209.592 206.798 209.1 206.798C208.609 206.798 208.293 206.489 208.275 206.007V201.271C208.275 201.122 208.02 201.104 208.002 201.229L207.813 201.705C207.601 202.138 207.176 202.471 206.605 202.471C206.223 202.471 205.926 202.097 206.077 201.681L209.24 193.658C209.301 193.491 209.179 193.224 208.924 193.224H206.97C206.502 193.224 206.162 192.915 206.162 192.374C206.162 191.917 206.502 191.607 206.97 191.607H207.625C207.838 191.607 208.093 191.358 208.093 191.15V189.486C208.093 189.01 208.408 188.678 208.9 188.678C209.392 188.678 209.725 189.01 209.725 189.486V191.126C209.725 191.352 209.956 191.602 210.235 191.602H210.345C211.024 191.602 211.534 192.267 211.279 193.016L210.175 195.845C210.09 196.071 210.114 196.344 210.235 196.57L210.423 196.986C210.533 197.027 210.654 197.027 210.697 196.903C210.824 196.695 211.055 196.528 211.376 196.528H211.789V196.534ZM219.516 204.183C219.516 204.391 219.729 204.617 219.96 204.617H223.735C224.221 204.617 224.561 204.949 224.561 205.425C224.561 205.883 224.221 206.233 223.735 206.233H213.738C213.252 206.233 212.912 205.883 212.912 205.425C212.912 204.949 213.252 204.617 213.738 204.617H217.471C217.701 204.617 217.914 204.391 217.914 204.183V203.268C217.914 203.042 217.701 202.768 217.471 202.768H215.091C214.624 202.768 214.284 202.436 214.284 201.978C214.284 201.52 214.624 201.188 215.091 201.188H217.471C217.701 201.188 217.914 200.962 217.914 200.73V199.316C217.914 199.09 217.701 198.882 217.471 198.882H215.431C214.581 198.882 213.944 198.24 213.944 197.408V191.007C213.944 190.175 214.581 189.551 215.431 189.551H222.054C222.903 189.551 223.541 190.175 223.541 191.007V197.408C223.541 198.24 222.903 198.882 222.054 198.882H219.953C219.723 198.882 219.51 199.09 219.51 199.316V200.73C219.51 200.956 219.723 201.188 219.953 201.188H222.375C222.861 201.188 223.201 201.52 223.201 201.978C223.201 202.436 222.861 202.768 222.375 202.768H219.953C219.723 202.768 219.51 203.036 219.51 203.268V204.183H219.516ZM213.064 201.11C213.064 201.11 213.088 201.092 213.106 201.069V201.051C213.088 201.033 213.064 201.009 213.064 201.009V201.11ZM217.926 191.53C217.926 191.322 217.714 191.096 217.483 191.096H215.996C215.765 191.096 215.528 191.322 215.528 191.53V192.986C215.528 193.212 215.759 193.444 215.996 193.444H217.483C217.714 193.444 217.926 193.218 217.926 192.986V191.53ZM215.522 196.867C215.522 197.093 215.753 197.301 215.99 197.301H217.477C217.708 197.301 217.92 197.093 217.92 196.867V195.476C217.92 195.251 217.708 195.019 217.477 195.019H215.99C215.759 195.019 215.522 195.245 215.522 195.476V196.867ZM221.489 193.438C221.72 193.438 221.957 193.212 221.957 192.98V191.524C221.957 191.316 221.726 191.09 221.489 191.09H219.96C219.729 191.09 219.516 191.316 219.516 191.524V192.98C219.516 193.206 219.729 193.438 219.96 193.438H221.489ZM219.516 196.867C219.516 197.093 219.729 197.301 219.96 197.301H221.489C221.72 197.301 221.957 197.093 221.957 196.867V195.476C221.957 195.251 221.726 195.019 221.489 195.019H219.96C219.729 195.019 219.516 195.245 219.516 195.476V196.867Z" fill="#1794A5"/>
<path d="M217.252 211.516C217.538 211.516 217.799 211.754 217.799 212.039V214.286C217.799 214.393 217.756 214.488 217.701 214.577L216.093 216.901C215.996 217.008 215.941 217.156 215.941 217.317V218.624C215.941 218.904 215.698 219.159 215.407 219.159C215.122 219.159 214.861 218.904 214.861 218.624V216.925C214.861 216.818 214.903 216.722 214.958 216.633L216.609 214.292C216.706 214.197 216.748 214.054 216.748 213.888V212.741C216.748 212.604 216.67 212.556 216.53 212.556H214.102C213.968 212.556 213.883 212.61 213.883 212.741V213.371C213.883 213.65 213.665 213.906 213.38 213.906C213.094 213.906 212.833 213.65 212.833 213.371V212.033C212.833 211.754 213.094 211.51 213.367 211.51H217.252V211.516ZM214.867 220.175C214.867 219.908 215.128 219.652 215.413 219.652C215.698 219.652 215.947 219.908 215.947 220.175V221.138C215.947 221.417 215.704 221.673 215.413 221.673C215.128 221.673 214.867 221.417 214.867 221.138V220.175Z" fill="#1794A5"/>
<path d="M209.112 102.707C209.343 102.166 209.895 101.815 210.515 101.815C211 101.815 211.322 102.291 211.128 102.707L209.81 105.636C209.701 105.862 209.64 106.136 209.64 106.403V118.705C209.64 119.204 209.24 119.596 208.73 119.596C208.22 119.596 207.795 119.204 207.795 118.705V110.183C207.795 110.165 207.777 110.165 207.777 110.165C207.716 110.308 207.565 110.391 207.419 110.391H206.678C206.211 110.391 205.895 109.915 206.083 109.499L209.112 102.707Z" fill="#1794A5"/>
<path d="M207.71 180.97C206.86 180.97 206.162 180.286 206.162 179.454V170.433C206.162 169.601 206.86 168.935 207.71 168.935H209.556C210.405 168.935 211.085 169.601 211.085 170.433V179.454C211.085 180.286 210.405 180.97 209.556 180.97H207.71ZM208.433 170.724C208.202 170.724 208.008 170.914 208.008 171.116V178.765C208.008 178.991 208.196 179.157 208.433 179.157H208.833C209.064 179.157 209.234 178.991 209.234 178.765V171.116C209.234 170.908 209.064 170.724 208.833 170.724H208.433Z" fill="#1794A5"/>
<path d="M240.683 1.99684C240.683 1.83044 240.579 1.70563 240.409 1.70563H235.444C235.256 1.70563 235.147 1.81261 235.147 1.99684V7.88038C235.147 8.29639 234.764 8.6708 234.339 8.6708C233.896 8.6708 233.514 8.29639 233.514 7.88038V1.43226C233.514 0.665613 234.194 0 234.977 0H240.877C241.66 0 242.34 0.665613 242.34 1.43226V6.69179C242.34 6.85819 242.449 6.95922 242.613 6.95922H245.963C246.133 6.95922 246.218 6.85225 246.218 6.69179V0.832016C246.218 0.416008 246.601 0.0416008 247.026 0.0416008C247.451 0.0416008 247.833 0.416008 247.833 0.832016V7.25043C247.833 7.99924 247.177 8.66486 246.388 8.66486H242.607C241.569 8.66486 240.676 7.79124 240.676 6.81659V1.99684H240.683Z" fill="#1794A5"/>
<path d="M233.508 18.8689V13.3597C233.508 12.5931 234.188 11.9275 234.971 11.9275H246.388C247.171 11.9275 247.833 12.5931 247.833 13.3597V19.3265C247.833 20.0515 247.177 20.6993 246.388 20.6993H235.438C234.4 20.6993 233.508 19.8495 233.508 18.8689ZM245.969 13.6331H235.395C235.207 13.6331 235.098 13.7401 235.098 13.9243V18.7025C235.098 18.8689 235.207 18.9699 235.395 18.9699H245.963C246.133 18.9699 246.218 18.8629 246.218 18.7025V13.9243C246.224 13.7342 246.139 13.6331 245.969 13.6331Z" fill="#1794A5"/>
<path d="M240.683 27.1416C240.683 26.9752 240.579 26.8504 240.409 26.8504H235.444C235.256 26.8504 235.147 26.9514 235.147 27.1416V33.0252C235.147 33.4412 234.764 33.8156 234.339 33.8156C233.896 33.8156 233.514 33.4412 233.514 33.0252V26.577C233.514 25.8104 234.194 25.1448 234.977 25.1448H240.877C241.66 25.1448 242.34 25.8104 242.34 26.577V31.8366C242.34 32.003 242.449 32.104 242.613 32.104H245.963C246.133 32.104 246.218 31.997 246.218 31.8366V25.9768C246.218 25.5608 246.601 25.1864 247.026 25.1864C247.451 25.1864 247.833 25.5608 247.833 25.9768V32.4011C247.833 33.15 247.177 33.8156 246.388 33.8156H242.607C241.569 33.8156 240.676 32.942 240.676 31.9673V27.1416H240.683Z" fill="#1794A5"/>
<path d="M233.508 44.0137V38.5105C233.508 37.7439 234.188 37.0782 234.971 37.0782H246.388C247.171 37.0782 247.833 37.7439 247.833 38.5105V44.4772C247.833 45.2023 247.177 45.8501 246.388 45.8501H235.438C234.4 45.8441 233.508 44.9943 233.508 44.0137ZM245.969 38.7779H235.395C235.207 38.7779 235.098 38.8849 235.098 39.0691V43.8473C235.098 44.0137 235.207 44.1147 235.395 44.1147H245.963C246.133 44.1147 246.218 44.0077 246.218 43.8473V39.0691C246.224 38.8849 246.139 38.7779 245.969 38.7779Z" fill="#1794A5"/>
<path d="M231.608 61.5692L231.814 61.1651C232.172 60.9512 232.567 60.8383 232.998 60.8383C233.423 60.8383 235.942 60.8264 240.543 60.7967C245.144 60.7669 247.639 60.761 248.027 60.7788C248.416 60.7907 248.762 60.8799 249.065 61.0403C249.229 61.2305 249.302 61.4742 249.272 61.7713L249.065 62.1754C248.731 62.3894 248.349 62.4607 247.906 62.3775C238.564 62.3775 233.708 62.3894 233.332 62.4191C232.961 62.4488 232.591 62.4726 232.233 62.5023L231.82 62.3002C231.644 62.1101 231.577 61.8664 231.608 61.5692Z" fill="#1794A5"/>
<path d="M33.2759 35.9253C32.3229 35.9253 31.4488 36.3948 31.0543 37.2446L22.6351 53.8077C22.3195 54.3544 22.793 55.0498 23.5092 55.0498L48.2871 53.1837C49.0822 53.1064 49.5557 52.4051 49.319 51.7039L48.2871 49.0592C47.5708 47.3477 48.8455 45.5588 50.6726 45.5588C52.9731 45.5588 55.043 46.9614 55.911 49.0592L60.8338 61.5751C61.5501 63.2867 60.1964 65.1528 58.3694 65.1528C56.0688 65.1528 53.9989 63.673 53.1309 61.5751L52.9731 61.0284C52.7364 60.4044 52.0201 60.0181 51.3828 60.0181L15.8064 62.5855C13.263 62.74 11.4359 60.1726 12.6317 57.9202L23.1936 37.2387C23.5092 36.6147 23.0358 35.9193 22.3195 35.9193H6.9077C4.9228 35.9193 3.33246 34.3623 3.33246 32.4189C3.33246 30.4756 4.9228 28.9185 6.9077 28.9185H28.8266C29.7006 28.9185 30.338 28.2945 30.338 27.4387V18.3519C30.338 17.4961 29.7006 16.7948 28.8266 16.7948H12.31C10.3251 16.7948 8.73478 15.2378 8.73478 13.2944C8.73478 11.3511 10.3251 9.79402 12.31 9.79402H28.8266C29.7006 9.79402 30.338 9.09275 30.338 8.23696V3.50041C30.338 1.55706 31.9283 0 33.9132 0C35.8981 0 37.4885 1.55706 37.4885 3.50041V8.2429C37.4885 9.09869 38.1258 9.79996 38.9999 9.79996H55.5165C57.5014 9.79996 59.0917 11.357 59.0917 13.3004C59.0917 15.2437 57.5014 16.8008 55.5165 16.8008H38.9938C38.1198 16.8008 37.4824 17.5021 37.4824 18.3578V27.4565C37.4824 28.3123 38.1198 28.9363 38.9938 28.9363H60.9127C62.8976 28.9363 64.4879 30.4934 64.4879 32.4368C64.4879 34.3801 62.8976 35.9372 60.9127 35.9372H33.2759V35.9253Z" fill="#032030"/>
<path d="M13.3419 78.0609C15.2479 78.0609 16.6744 79.4635 16.6744 81.3295V83.0411C16.6744 83.7424 17.3117 84.2832 18.0219 84.2832H23.4242C25.2513 84.2832 26.7567 85.763 26.7567 87.5459C26.7567 89.3347 25.2452 90.7313 23.4242 90.7313H14.0582C13.263 90.7313 12.5467 91.4326 12.5467 92.2884V98.5879C12.5467 99.3665 13.263 100.068 14.0582 100.068H20.6502C23.8248 100.068 26.3682 102.635 26.2893 105.743L25.3363 139.88C25.3363 141.669 23.8248 143.142 21.9189 143.142C20.0918 143.142 18.6653 141.663 18.7442 139.88L19.6183 108.156C19.6183 107.3 18.981 106.599 18.1069 106.599H13.4997C12.6256 106.599 11.8305 107.223 11.7516 108.079L7.93959 139.88C7.70286 141.746 6.11251 143.142 4.20653 143.142C2.37945 143.142 1.0319 141.663 1.26863 139.88L5.95469 101.155V91.9794C5.95469 91.2781 5.39625 90.7373 4.68606 90.7373H3.25353C1.50537 90.7373 0 89.3347 0 87.5518C0 85.763 1.51144 84.2891 3.25353 84.2891H8.65585C9.45103 84.2891 10.0034 83.7424 10.0034 83.0471V81.3355C10.0095 79.4635 11.5148 78.0609 13.3419 78.0609ZM38.9149 90.5055C38.0408 90.5055 37.3246 91.0522 37.0878 91.8248L36.5294 93.5364C35.8921 95.4798 34.065 96.8823 31.9223 96.8823C30.1741 96.8823 28.9055 95.1707 29.3789 93.5364L32.9542 81.4841C33.5915 79.4635 35.4975 78.0609 37.6402 78.0609C39.4673 78.0609 40.7359 79.7725 40.1836 81.4841L39.8679 82.5716C39.7101 83.1956 40.1046 83.8137 40.742 83.8137H64.1723C66.0783 83.8137 67.5897 85.2935 67.5897 87.1596C67.5897 89.0257 66.0783 90.5055 64.1723 90.5055H38.9149ZM64.409 111.419C66.2361 111.419 67.1102 113.594 65.8415 114.842L60.0447 120.672C59.4073 121.373 59.1706 122.306 59.4862 123.162L65.7626 139.725C66.4 141.36 65.2042 143.148 63.3771 143.148C61.1555 143.148 59.1706 141.746 58.3754 139.725L45.9076 106.76C45.7498 106.29 45.1124 106.136 44.7179 106.528L43.9227 107.152C43.9227 107.152 43.9227 107.229 44.0016 107.229C44.0805 107.229 44.2383 107.306 44.2383 107.461V141.128C44.2383 142.994 42.7269 144.474 40.742 144.474C38.836 144.474 37.3246 142.994 37.3246 141.128V113.523C37.3246 112.744 36.6083 112.043 35.7342 112.043H33.9072C31.8433 112.043 30.8904 109.553 32.3957 108.233L45.0214 97.0368C47.4858 94.8617 50.6604 93.6137 53.9929 93.6137C55.5832 93.6137 56.5362 95.9433 55.3404 97.0368L50.4965 101.393V101.47C50.8122 101.316 51.1339 101.47 51.2917 101.779L55.8988 113.832C56.0567 114.301 56.6151 114.378 56.9308 114.063C58.6 112.352 60.9005 111.419 63.2861 111.419H64.409Z" fill="#032030"/>
<path d="M16.0431 156.669C17.7912 156.669 18.8231 158.612 17.8701 160.015L9.05647 172.608C7.62394 174.706 5.24449 175.954 2.70115 175.954C0.952984 175.954 -0.15783 174.01 0.874074 172.608L9.45102 160.015C10.8775 157.917 13.4208 156.669 16.0431 156.669ZM12.2311 177.273C13.6636 175.175 16.122 173.927 18.7442 173.927C20.4924 173.927 21.5243 175.87 20.5713 177.273L17.7123 181.391C17.1539 182.17 16.8382 183.18 16.8382 184.191V218.25C16.8382 220.116 15.2479 221.673 13.3419 221.673C11.4359 221.673 9.92448 220.116 9.92448 218.25V193.521C9.92448 193.212 9.52993 193.135 9.28713 193.367C8.01849 195.233 5.79079 196.397 3.49025 196.397H3.01679C1.26863 196.397 0.236722 194.454 1.26863 192.974L12.2311 177.273ZM64.8036 176.809C66.7885 176.809 68.2999 178.366 68.2999 180.233C68.2999 182.176 66.7885 183.656 64.8036 183.656H55.0369C54.2417 183.656 53.5255 184.357 53.5255 185.213V218.339C53.5255 220.128 52.014 221.685 50.108 221.685C48.2021 221.685 46.6906 220.128 46.6906 218.339V185.213C46.6906 184.357 45.9744 183.656 45.1003 183.656H30.4108C28.5048 183.656 26.9145 182.176 26.9145 180.233C26.9145 178.366 28.5048 176.809 30.4108 176.809H64.8036ZM62.5819 158.071C64.4879 158.071 65.9994 159.551 65.9994 161.417C65.9994 163.283 64.4879 164.763 62.5819 164.763H34.2289C32.4018 164.763 30.8903 163.283 30.8903 161.417C30.8903 159.551 32.4018 158.071 34.2289 158.071H62.5819Z" fill="#032030"/>
<path d="M95.53 52.9698C98.128 54.0633 100.599 51.9951 100.599 49.2673C100.599 46.1472 98.4983 43.3421 95.53 42.2189C93.0595 41.2978 90.589 40.2102 88.1125 38.9562C85.5145 37.6725 83.044 38.6056 83.044 41.0363C83.044 44.0494 85.1442 47.6211 88.1125 49.2851C90.589 50.7293 93.0595 51.9535 95.53 52.9698Z" fill="#032030"/>
<path d="M88.1185 20.1764C90.589 20.9846 93.0595 21.7394 95.5361 22.4169C98.134 23.1954 100.605 20.9074 100.605 18.0726C100.605 14.697 98.5043 11.88 95.5361 11.2798C93.0656 10.7746 90.5951 10.2457 88.1185 9.74053C85.5205 9.14623 83.05 11.1668 83.05 13.6035C83.05 16.3967 85.1503 19.2255 88.1185 20.1764Z" fill="#032030"/>
<path d="M114.438 33.346C117.777 32.6923 120.739 29.7565 121.856 26.2977C122.311 24.7822 122.76 23.2667 123.215 21.7572C123.707 20.2418 124.945 19.0948 126.426 18.7857C145.25 14.8515 164.079 9.71082 182.902 11.5947C185.743 11.9097 187.97 10.0555 187.97 7.12563C187.97 4.32055 185.749 1.88987 182.902 1.96713C165.062 2.21079 147.228 5.22982 129.389 7.93982C128.648 8.05273 128.029 7.39307 128.278 6.59671C128.363 6.37682 128.442 6.15693 128.527 5.93109C129.516 3.3043 127.665 0.760706 125.067 1.00437C121.728 1.33123 118.766 3.89265 117.649 7.37524C115.385 14.3285 113.115 21.3947 110.851 28.3955C109.867 31.2244 111.719 33.8809 114.438 33.346Z" fill="#032030"/>
<path d="M97.3874 74.9647C94.2978 74.5724 91.6998 75.8026 91.0867 78.5899C89.2354 86.8506 87.378 94.5824 85.5266 101.88C85.0349 103.955 87.0077 107.77 89.7271 109.137C92.6953 110.646 95.4147 109.333 95.9063 106.605C97.8002 98.3443 99.694 89.6319 101.594 80.5095C102.207 77.7698 100.107 75.3212 97.3874 74.9647Z" fill="#1794A5"/>
<path d="M176.231 56.0184C176.352 54.8715 177.342 54.1642 178.701 54.6159C179.812 54.9903 180.923 55.4241 182.04 55.9234C184.759 57.1536 187.108 56.4701 187.108 53.564C187.108 50.7827 184.759 47.0327 182.04 46.0105C181.172 45.6717 180.31 45.3746 179.442 45.1071C178.453 44.7981 177.591 43.77 177.712 42.7478C178.125 37.934 178.538 33.1439 178.95 28.3598C179.442 23.8848 175.612 19.3978 170.792 19.5108C158.761 19.6237 146.737 22.8923 134.706 26.1609C129.637 27.51 125.316 32.5378 124.575 38.0825C123.956 43.4372 123.337 48.7977 122.724 54.1524C122.475 55.6143 121.364 56.9931 120.004 57.421C118.766 57.8073 117.534 58.1698 116.296 58.5026C113.455 59.2692 111.227 62.1219 111.227 64.927C111.227 67.8509 113.455 69.6992 116.296 68.879C117.164 68.6294 118.026 68.3679 118.894 68.0886C119.883 67.7736 120.745 68.4749 120.624 69.5149C119.798 76.0344 118.979 82.5122 118.153 88.9247C117.534 93.7979 121.243 96.7456 125.941 94.7072C137.808 89.62 149.669 82.8034 161.529 81.2582C162.768 81.0978 163.757 82.12 163.63 83.3324C163.508 85.2757 163.381 87.2309 163.259 89.1921C163.01 91.9081 165.111 94.0119 167.83 94.1723C170.549 94.315 173.02 92.6866 173.269 89.9112C173.433 87.9738 173.597 86.0483 173.76 84.1347C173.882 82.8213 174.999 82.1081 176.358 82.5717C177.633 83.0055 178.914 83.5404 180.189 84.1763C182.908 85.5194 185.13 84.9251 185.13 82.0308C185.13 79.2733 182.902 75.452 180.189 74.2039C179.157 73.7226 178.131 73.3066 177.099 72.95C175.861 72.5221 174.999 71.3394 175.12 70.2875C175.49 65.4856 175.861 60.7372 176.231 56.0184ZM141.256 75.7253C141.134 77.0922 139.896 78.5958 138.536 79.2079C135.938 80.3727 133.346 81.5732 130.748 82.7381C129.389 83.3502 128.399 82.6846 128.648 81.3593C129.267 76.2543 129.886 71.1493 130.499 66.0502C130.621 64.6536 131.738 63.2213 133.097 62.6567C135.61 61.6108 138.123 60.547 140.636 59.5307C141.875 59.0315 142.864 59.709 142.737 60.9392C142.245 65.8303 141.753 70.763 141.256 75.7253ZM144.473 46.2006C144.351 47.52 143.113 48.8988 141.753 49.4039C139.362 50.2894 136.976 51.2165 134.585 52.1436C133.346 52.625 132.363 51.9118 132.484 50.646C132.976 46.5275 133.474 42.4269 133.965 38.35C134.087 36.9772 135.325 35.6103 136.685 35.1824C138.949 34.4573 141.213 33.7382 143.483 33.0607C144.721 32.6923 145.711 33.4351 145.583 34.6178C145.213 38.4391 144.843 42.3021 144.473 46.2006ZM165.111 69.0038C164.989 70.3113 163.872 71.3038 162.513 71.4583C159.508 71.7911 156.497 72.4627 153.493 73.36C152.254 73.7285 151.144 73.0391 151.392 71.7733C151.927 66.9 152.461 62.0862 153.001 57.3259C153.122 56.0125 154.239 54.7645 155.599 54.4257C158.397 53.7304 161.202 53.2252 164 52.9875C165.36 52.8687 166.349 53.8909 166.222 55.0497C165.851 59.6437 165.481 64.297 165.111 69.0038Z" fill="#032030"/>
<path d="M97.7577 134.317C95.0809 133.77 92.404 132.843 89.7271 131.47C84.7861 128.927 81.3262 128.618 81.3262 133.39C81.3262 149.983 81.3262 166.57 81.3262 183.162C81.3262 187.816 84.7861 192.558 89.7271 193.895C92.404 194.656 95.0809 195.227 97.7577 195.649C102.699 196.427 106.778 193.783 106.778 189.634C106.778 174.658 106.778 158.992 106.778 142.637C106.778 137.936 102.699 135.327 97.7577 134.317Z" fill="#1794A5"/>
<path d="M184.759 130.567C184.674 130.508 184.595 130.448 184.51 130.389C183.77 129.848 182.659 127.976 182.659 127.209C182.659 126.223 182.659 125.242 182.659 124.262C182.659 119.18 179.199 113.255 174.258 111.799C167.958 109.939 161.651 110.313 155.35 111.859C154.858 111.977 153.742 111.151 153.742 110.658C153.742 108.548 152.631 107.722 150.652 108.382C150.197 108.531 149.747 108.691 149.292 108.851C147.313 109.553 146.203 111.116 146.203 113.202C146.203 113.695 145.092 115.234 144.594 115.436C137.959 118.099 131.331 121.379 124.696 124.03C122.226 125.016 120.866 126.781 120.866 129.022C120.866 131.369 122.226 132.219 124.696 131.268C130.961 128.85 137.219 125.884 143.483 123.394C144.721 122.895 146.203 123.959 146.203 125.082C146.203 126.324 144.721 128.356 143.483 128.832C134.336 132.35 125.194 136.879 116.047 139.256C113.576 139.898 112.095 141.514 112.089 143.796C112.089 146.75 113.57 147.772 116.047 147.184C125.152 144.985 134.257 140.741 143.356 137.443C144.594 136.985 146.197 138.073 146.197 139.339C146.197 140.599 144.588 142.756 143.356 143.178C137.176 145.3 130.997 147.849 124.818 149.911C122.22 150.779 120.866 152.538 120.866 154.838C120.866 157.126 122.226 158.036 124.818 157.251C130.955 155.373 137.091 153.049 143.234 151.112C144.473 150.714 146.203 151.98 146.203 153.388C146.203 161.364 146.203 169.416 146.203 177.546C146.203 178.848 144.473 180.94 143.234 181.148C137.959 182.045 132.691 183.139 127.416 184.066C126.305 184.256 124.696 183.044 124.696 181.908C124.696 180.779 126.426 178.949 127.665 178.681C129.31 178.337 130.961 177.974 132.606 177.606C137.547 176.524 140.885 172.394 140.885 167.229C140.885 165.601 140.885 163.973 140.885 162.35C140.885 159.973 139.647 158.963 137.176 159.741C134.827 160.484 133.595 162.202 133.595 164.484C133.595 165.53 133.595 166.576 133.595 167.616C133.595 168.709 131.987 170.581 130.876 170.866C129.68 171.181 128.484 171.484 127.294 171.782C126.305 172.025 124.945 171.08 124.945 170.165C124.988 169.577 125.03 168.994 125.067 168.406C125.067 166.088 123.707 165.096 121.115 165.732C118.523 166.356 117.036 167.96 117.036 170.183C116.708 185.581 116.374 200.427 116.047 214.666C115.925 216.716 117.406 218.095 119.877 218.357C122.347 218.618 123.835 217.459 123.956 215.254C124.041 212.396 124.12 209.519 124.205 206.625C124.205 205.413 125.935 203.915 127.294 203.868C128.363 203.832 129.437 203.796 130.505 203.761C131.865 203.701 133.595 205.199 133.595 206.536C133.595 209.187 133.595 211.831 133.595 214.482C133.595 216.758 134.833 218.19 137.176 218.404C139.647 218.63 140.885 217.323 140.885 214.88C140.885 211.421 140.885 207.968 140.885 204.527C140.885 199.375 137.547 195.494 132.606 196.041C130.833 196.213 129.061 196.386 127.294 196.54C126.056 196.641 124.454 195.31 124.454 194.08C124.454 192.962 126.184 191.292 127.422 191.12C132.697 190.443 137.966 189.634 143.24 188.981C144.479 188.82 146.209 190.454 146.209 191.774C146.209 199.464 146.209 207.225 146.209 215.052C146.209 217.709 147.568 219.302 150.039 219.533C152.388 219.753 153.748 218.333 153.748 215.534C153.748 207.338 153.748 199.238 153.748 191.245C153.748 189.884 155.478 187.881 156.716 187.84C162.525 187.655 168.334 187.964 174.143 189.171C175.381 189.42 176.984 191.631 176.984 193.016C176.984 194.531 175.375 195.969 174.143 195.744C172.249 195.381 170.355 195.102 168.461 194.888C162.78 194.3 159.441 198.994 159.441 204.593C159.441 208.408 159.441 212.247 159.441 216.11C159.441 218.826 160.68 220.526 163.023 220.764C165.372 220.995 167.351 219.444 167.351 216.835C167.351 213.644 167.351 210.47 167.351 207.309C167.351 205.728 168.959 204.034 170.319 204.206C171.557 204.361 172.789 204.539 174.028 204.747C175.387 204.973 176.996 207.107 176.996 208.646C176.996 212.301 176.996 215.974 176.996 219.67C176.996 222.517 178.477 224.389 180.953 224.632C183.424 224.87 184.784 223.402 184.784 220.746C184.784 202.263 184.784 184.006 184.784 165.981C184.784 163.396 183.424 161.049 180.953 159.83C178.483 158.642 177.002 159.652 176.996 162.326C176.996 163.045 176.996 163.759 176.996 164.478C176.996 165.547 175.636 166.587 174.647 166.332C173.081 165.91 171.515 165.589 169.949 165.357C168.838 165.185 167.351 163.408 167.351 162.19C167.351 160.965 167.351 159.747 167.351 158.529C167.351 156.092 165.372 154.422 163.023 154.464C160.674 154.505 159.441 155.985 159.441 158.517C159.441 160.3 159.441 162.089 159.441 163.889C159.441 169.446 162.78 172.78 168.461 173.392C170.355 173.612 172.249 173.939 174.143 174.397C175.381 174.688 176.984 176.946 176.984 178.313C176.984 179.668 175.375 180.993 174.143 180.726C168.334 179.406 162.525 179.163 156.716 179.513C155.478 179.579 153.748 177.849 153.748 176.512C153.748 168.103 153.748 159.801 153.748 151.617C153.748 150.179 155.478 148.016 156.716 147.837C162.567 146.958 168.413 146.982 174.264 148.634C179.205 150.012 182.671 148.693 182.665 143.493C182.665 142.37 182.665 141.247 182.665 140.123C182.665 139.339 183.776 138.745 184.517 139.274C184.602 139.333 184.68 139.386 184.765 139.446C187.236 141.205 188.723 141.223 188.723 137.907C188.711 135.369 187.23 132.386 184.759 130.567ZM172.031 139.713C166.883 138.59 161.73 138.733 156.582 139.618C155.344 139.82 153.742 138.495 153.742 137.217C153.742 135.934 155.35 133.889 156.582 133.669C161.73 132.718 166.883 132.54 172.031 133.669C173.269 133.925 174.871 136.124 174.871 137.443C174.871 138.745 173.263 139.969 172.031 139.713ZM172.152 124.719C166.92 123.554 161.687 123.792 156.455 124.856C155.217 125.1 153.735 123.953 153.735 122.699C153.735 121.563 155.217 119.537 156.455 119.275C161.687 118.164 166.92 117.891 172.152 119.05C173.263 119.281 174.871 121.445 174.871 122.615C174.871 123.899 173.263 124.951 172.152 124.719Z" fill="#032030"/>
</g>
<defs>
<clipPath id="clip0">
<rect width="250" height="224.65" fill="white"/>
</clipPath>
</defs>
</svg>
