<?xml version="1.0" encoding="utf-8"?>
<!-- Generator: Adobe Illustrator 24.0.1, SVG Export Plug-In . SVG Version: 6.00 Build 0)  -->
<svg version="1.1" id="圖層_1" xmlns="http://www.w3.org/2000/svg" xmlns:xlink="http://www.w3.org/1999/xlink" x="0px" y="0px"
	 viewBox="0 0 90 30" style="enable-background:new 0 0 90 30;" xml:space="preserve">
<style type="text/css">
	.st0{fill:#F71E35;}
	.st1{fill:#1794A5;}
	.st2{fill:#032030;}
</style>
<g>
	<path class="st0" d="M77.5,7.9C57-1.6,13.8,4,6.6,10c-0.3,0.2-2.7,1.8-2.7,5s2.5,4.8,2.7,5c7.2,6,50.4,11.6,70.9,2.1
		c3.5-1.6,8.6-4.6,8.6-7.1C86.1,12.4,81,9.4,77.5,7.9z"/>
	<g>
		<g>
			<g>
				<path class="st0" d="M72,3.1c0.6,2,1.2,4,1.6,6c-2-0.7-4-1.3-6.1-1.7C68.9,5.9,70.4,4.5,72,3.1z"/>
				<path class="st1" d="M67.5,7.4c-0.7-1.9-1.4-3.9-2.3-5.8C67.5,2,69.7,2.5,72,3.1C70.4,4.5,68.9,5.9,67.5,7.4z"/>
				<path class="st2" d="M73.6,9.1c-0.4-2-0.9-4-1.6-6c2.2,0.6,4.5,1.4,6.6,2.4C76.8,6.6,75.1,7.8,73.6,9.1z"/>
				<path class="st0" d="M61.1,6.3c1.3-1.6,2.7-3.2,4.1-4.7c-2.3-0.4-4.5-0.7-6.8-0.9C59.4,2.5,60.3,4.4,61.1,6.3z"/>
				<path class="st1" d="M58.4,0.7l-0.5,5.2C59,6,60,6.1,61.1,6.3C60.3,4.4,59.4,2.5,58.4,0.7z"/>
				<path class="st1" d="M78.6,5.5c-1.8,1.1-3.5,2.3-5.1,3.6c1,0.3,1.9,0.8,2.9,1.2L78.6,5.5z"/>
				<path class="st2" d="M65.2,1.6c-1.4,1.5-2.8,3.1-4.1,4.7c2.1,0.3,4.3,0.6,6.3,1.1C66.8,5.4,66,3.5,65.2,1.6z"/>
			</g>
			<g>
				<path class="st0" d="M51.6,0.2c1.1,1.8,2.1,3.6,3.1,5.4c-2.2-0.1-4.3-0.2-6.5-0.2C49.2,3.7,50.4,1.9,51.6,0.2z"/>
				<path class="st1" d="M48.1,5.4c-1.1-1.8-2.2-3.5-3.4-5.2c2.3,0,4.5,0,6.8,0.1C50.4,1.9,49.2,3.7,48.1,5.4z"/>
				<path class="st2" d="M54.6,5.7c-1-1.8-2-3.6-3.1-5.4c2.3,0.1,4.5,0.2,6.8,0.4C57.1,2.3,55.8,4,54.6,5.7z"/>
				<path class="st0" d="M41.6,5.5c1-1.8,2.1-3.6,3.2-5.3c-2.3,0-4.5,0.1-6.8,0.3C39.2,2.1,40.4,3.8,41.6,5.5z"/>
				<path class="st1" d="M38,0.4l0.3,5.2c1.1-0.1,2.2-0.1,3.3-0.2C40.4,3.8,39.2,2.1,38,0.4z"/>
				<path class="st1" d="M58.4,0.7c-1.3,1.6-2.5,3.3-3.7,5c1.1,0.1,2.2,0.2,3.2,0.3L58.4,0.7z"/>
				<path class="st2" d="M44.8,0.2c-1.1,1.8-2.2,3.5-3.2,5.3c2.2-0.1,4.4-0.1,6.5-0.1C47,3.7,45.9,1.9,44.8,0.2z"/>
			</g>
			<g>
				<path class="st0" d="M31.2,1c1.3,1.6,2.6,3.3,3.8,4.9c-2.2,0.2-4.4,0.4-6.5,0.7C29.4,4.7,30.3,2.9,31.2,1z"/>
				<path class="st1" d="M28.5,6.6c-1.3-1.6-2.7-3.2-4-4.7C26.7,1.5,29,1.3,31.2,1C30.3,2.9,29.4,4.7,28.5,6.6z"/>
				<path class="st2" d="M35,5.9c-1.2-1.7-2.5-3.3-3.8-4.9c2.3-0.2,4.5-0.4,6.8-0.6C36.9,2.2,36,4.1,35,5.9z"/>
				<path class="st0" d="M22.1,7.6c0.7-1.9,1.6-3.8,2.4-5.7c-2.2,0.4-4.5,0.7-6.7,1.3C19.2,4.6,20.7,6.1,22.1,7.6z"/>
				<path class="st1" d="M17.7,3.1l1.1,5.1C19.9,8,21,7.8,22.1,7.6C20.7,6.1,19.2,4.6,17.7,3.1z"/>
				<path class="st1" d="M38,0.4c-1,1.8-2,3.6-3,5.5c1.1-0.1,2.2-0.2,3.3-0.2L38,0.4z"/>
				<path class="st2" d="M24.5,1.9c-0.9,1.9-1.7,3.8-2.4,5.7c2.1-0.4,4.3-0.7,6.5-1C27.2,5,25.9,3.4,24.5,1.9z"/>
			</g>
			<g>
				<path class="st0" d="M11,5c1.7,1.3,3.2,2.6,4.7,4.1c-2.1,0.6-4.1,1.2-5.8,2C10,9,10.5,7,11,5z"/>
				<path class="st1" d="M9.9,11c-1.2-0.9-2.5-1.7-4.1-2.1l0.1-0.1C5.3,8.7,4.8,8.6,4.2,8.5c0.3-0.2,0.6-0.5,1-0.7L4.9,7.9
					C6,7.1,7.1,6.6,8,6.1c1-0.5,2-0.8,3-1.2C10.5,7,10,9,9.9,11z"/>
				<path class="st2" d="M15.7,9c-1.5-1.4-3-2.8-4.7-4.1c2.2-0.8,4.5-1.3,6.7-1.8C17,5.1,16.3,7.1,15.7,9z"/>
				<path class="st0" d="M6.6,14c-1.5-1.1-2.4-3.2-2.4-5.5c-1.1,1-2.1,2.4-2.6,3.9c-0.5,1.6-0.5,3.2-0.1,4.8
					C2.8,15.2,4.8,14.1,6.6,14z"/>
				<path class="st1" d="M1.5,17.2l5.1-1.4c-0.2-0.6-0.1-1.3,0-1.8C4.8,14.1,2.8,15.2,1.5,17.2z"/>
				<path class="st1" d="M17.7,3.1c-0.7,2-1.4,3.9-2,5.9c1-0.3,2.1-0.5,3.1-0.8L17.7,3.1z"/>
				<path class="st2" d="M4.2,8.5c0,2.3,0.9,4.4,2.4,5.5c0.1-0.4,0.3-0.7,0.5-1s0.6-0.6,0.9-0.8L8.3,12c0.4-0.3,1-0.7,1.6-1
					c-1.2-0.9-2.5-1.7-4.1-2.1l0.1-0.1C5.3,8.7,4.8,8.6,4.2,8.5z"/>
			</g>
			<g>
				<path class="st0" d="M7.4,23.6c-0.1-0.7-0.2-1.5-0.3-2.2c0-0.7,0-1.4,0.1-2.1l0.1,0.1c-0.1-0.5,0-0.7,0.1-1s0.2-0.6,0.3-0.9
					c0.1,0.1,0.2,0.2,0.3,0.2v0.1l0.1,0.1L8.3,18l0.2,0.2L8.3,18c0.5,0.3,1.1,0.7,1.8,1.1c0.4,0.2,0.7,0.3,1.1,0.5
					c0.4,0.2,0.8,0.3,1.2,0.4C10.9,21.3,9.3,22.5,7.4,23.6z"/>
				<path class="st1" d="M12.5,20c0.4,2,1,4,1.6,6c-2.2-0.6-4.5-1.3-6.8-2.4C9.3,22.5,10.9,21.3,12.5,20z"/>
				<path class="st2" d="M7.6,17.4c-0.1,0.3-0.2,0.6-0.3,0.9c-0.1,0.3-0.2,0.6-0.1,1l-0.1-0.1C7,19.8,7,20.6,7,21.3s0.1,1.5,0.3,2.2
					c-0.4-0.2-0.8-0.4-1.2-0.6c-0.4-0.2-0.8-0.6-1.2-0.9l-0.2-0.2c0.2,0.2,0.1,0.1,0,0l-0.3-0.2c-0.2-0.1-0.4-0.3-0.5-0.5
					c-0.4-0.3-0.7-0.7-1-1.1c-0.6-0.8-1.1-1.8-1.4-2.9C3.7,18.3,5.9,18.2,7.6,17.4z"/>
				<path class="st0" d="M18.6,21.7c-1.4,1.5-2.9,2.9-4.5,4.3c2.2,0.6,4.5,1.1,6.7,1.5C20,25.6,19.3,23.6,18.6,21.7z"/>
				<path class="st1" d="M20.8,27.5l1-5.2c-1.1-0.2-2.1-0.4-3.2-0.6C19.3,23.6,20,25.6,20.8,27.5z"/>
				<path class="st1" d="M1.5,17.2c2.1,1.1,4.4,1,6.1,0.2c-0.5-0.5-0.8-1-1-1.6L1.5,17.2z"/>
				<path class="st2" d="M14.1,26c1.6-1.4,3.1-2.8,4.5-4.3c-2.1-0.5-4.2-1-6.1-1.7C12.9,22,13.5,24,14.1,26z"/>
			</g>
			<g>
				<path class="st0" d="M27.6,28.6c-0.9-1.9-1.7-3.8-2.5-5.7c2.2,0.3,4.3,0.6,6.5,0.9C30.2,25.4,28.9,27,27.6,28.6z"/>
				<path class="st1" d="M31.5,23.7c0.9,1.9,1.8,3.7,2.8,5.5c-2.3-0.2-4.5-0.4-6.8-0.7C28.9,27,30.2,25.4,31.5,23.7z"/>
				<path class="st2" d="M25,22.9c0.8,1.9,1.7,3.8,2.5,5.7c-2.2-0.3-4.5-0.6-6.7-1.1C22.3,26,23.7,24.4,25,22.9z"/>
				<path class="st0" d="M38,24.3c-1.2,1.7-2.4,3.3-3.7,5c2.3,0.2,4.5,0.3,6.8,0.4C40,27.9,39,26.1,38,24.3z"/>
				<path class="st1" d="M41.1,29.7l0.2-5.2c-1.1,0-2.2-0.1-3.3-0.2C39,26.1,40,27.9,41.1,29.7z"/>
				<path class="st1" d="M20.8,27.5c1.4-1.5,2.8-3.1,4.2-4.6c-1.1-0.2-2.2-0.3-3.2-0.6L20.8,27.5z"/>
				<path class="st2" d="M34.3,29.3c1.3-1.7,2.5-3.3,3.7-5c-2.2-0.1-4.4-0.3-6.5-0.6C32.4,25.6,33.3,27.4,34.3,29.3z"/>
			</g>
			<g>
				<path class="st0" d="M47.9,29.8c-1.1-1.8-2.2-3.5-3.3-5.3c2.2,0,4.4,0,6.5,0C50.1,26.3,49,28.1,47.9,29.8z"/>
				<path class="st1" d="M51.1,24.5c1.1,1.7,2.3,3.4,3.6,5.1c-2.3,0.1-4.5,0.2-6.8,0.2C49,28.1,50.1,26.3,51.1,24.5z"/>
				<path class="st2" d="M44.6,24.6c1.1,1.8,2.2,3.5,3.3,5.3c-2.3,0-4.5,0-6.8-0.1C42.3,28,43.5,26.3,44.6,24.6z"/>
				<path class="st0" d="M57.6,24.1c-0.9,1.8-1.9,3.7-2.9,5.5c2.3-0.1,4.5-0.4,6.8-0.6C60.2,27.4,58.9,25.8,57.6,24.1z"/>
				<path class="st1" d="M61.5,29l-0.7-5.2c-1.1,0.1-2.1,0.3-3.2,0.3C58.9,25.8,60.2,27.4,61.5,29z"/>
				<path class="st1" d="M41.1,29.7c1.2-1.7,2.4-3.4,3.5-5.2c-1.1,0-2.2,0-3.3-0.1L41.1,29.7z"/>
				<path class="st2" d="M54.7,29.6c1-1.8,2-3.6,2.9-5.5c-2.2,0.2-4.3,0.3-6.5,0.4C52.3,26.2,53.5,27.9,54.7,29.6z"/>
			</g>
			<g>
				<path class="st0" d="M68.3,27.8c-1.5-1.5-2.9-3-4.3-4.5c2.1-0.4,4.2-0.8,6.3-1.4C69.8,23.9,69.1,25.9,68.3,27.8z"/>
				<path class="st1" d="M70.3,21.9c1.5,1.4,3.1,2.8,4.8,4c-2.2,0.8-4.5,1.4-6.7,1.9C69.1,25.9,69.8,23.9,70.3,21.9z"/>
				<path class="st2" d="M64.1,23.3c1.3,1.5,2.8,3.1,4.3,4.5c-2.3,0.5-4.5,0.9-6.8,1.2C62.4,27.1,63.3,25.2,64.1,23.3z"/>
				<path class="st0" d="M76.2,19.8c-0.2,2-0.6,4.1-1.1,6.1c1.1-0.4,2.2-0.8,3.3-1.3c1.1-0.5,2.1-1,3.2-1.6
					C79.7,22.1,77.9,21,76.2,19.8z"/>
				<path class="st1" d="M81.6,23L79,18.4c-0.9,0.5-1.9,1-2.8,1.4C77.9,21,79.7,22.1,81.6,23z"/>
				<path class="st1" d="M61.5,29c0.9-1.9,1.8-3.8,2.5-5.7c-1.1,0.2-2.1,0.3-3.2,0.5L61.5,29z"/>
				<path class="st2" d="M75.1,25.9c0.5-2,0.9-4.1,1.1-6.1c-1.9,0.8-3.9,1.5-5.9,2.1C71.8,23.3,73.4,24.7,75.1,25.9z"/>
			</g>
			<g>
				<path class="st0" d="M87.7,18.2c-1.2,0.2-2.3,0-3.3-0.3s-1.9-0.6-2.8-1.1c0.8-0.6,1.5-1.2,1.8-1.7c0-0.1,0.1-0.1,0.1-0.1l0,0
					c0,0,0,0.1,0-0.1c0.4-0.1,0.8-0.3,1.3-0.3s1,0.2,1.4,0.5c0.2,0.1,0.4,0.3,0.6,0.5s0.3,0.5,0.4,0.7
					C87.4,16.9,87.5,17.6,87.7,18.2z"/>
				<path class="st1" d="M83.4,14.9c0.6-0.7,1-1.7,1.2-2.7s0.3-2.1,0.3-3.2c1,0.8,2,1.6,3,3.1c0.1,0.2,0.2,0.4,0.4,0.7
					c0.1,0.2,0.2,0.5,0.3,0.8c0.1,0.3,0.2,0.5,0.2,0.8s0.1,0.5,0,0.8c0,0.3,0,0.6-0.1,0.8l-0.2,0.8c-0.1,0.3-0.2,0.5-0.4,0.7
					c-0.1,0.2-0.2,0.4-0.4,0.6c-0.1-0.5-0.3-1.2-0.5-1.8c-0.1-0.3-0.3-0.5-0.4-0.7c-0.2-0.2-0.4-0.4-0.6-0.5
					c-0.4-0.3-0.9-0.5-1.4-0.5C84.3,14.6,83.8,14.8,83.4,14.9z"/>
				<path class="st2" d="M81.5,16.8c0.9,0.4,1.8,0.8,2.8,1.1c1,0.2,2.1,0.5,3.3,0.3c-1,1.3-2,2.2-3,2.9c-1,0.7-2,1.4-3.1,2
					C81.7,20.9,81.8,18.8,81.5,16.8z"/>
				<path class="st0" d="M79.2,11.7c1.8-1,3.6-1.9,5.7-2.6c-2-1.5-4.1-2.6-6.3-3.6C79,7.6,79.2,9.6,79.2,11.7z"/>
				<path class="st1" d="M78.6,5.5l-2.2,4.8c1,0.4,1.9,0.9,2.8,1.4C79.2,9.6,79,7.6,78.6,5.5z"/>
				<path class="st1" d="M81.6,23c0.2-2.1,0.2-4.2,0-6.2c-0.8,0.6-1.7,1.1-2.6,1.6L81.6,23z"/>
				<path class="st2" d="M84.9,9.1c-2.1,0.6-3.9,1.5-5.7,2.6c0.9,0.5,1.7,1,2.5,1.6c0.7,0.6,1.4,1.2,1.7,1.7c0.6-0.7,1-1.7,1.2-2.7
					C84.8,11.3,84.9,10.2,84.9,9.1z"/>
			</g>
		</g>
	</g>
</g>
</svg>
