<svg width="69" height="100" viewBox="0 0 69 100" fill="none" xmlns="http://www.w3.org/2000/svg">
<g clip-path="url(#clip0)">
<path d="M68.0272 28.8787C68.0272 12.9258 52.7851 0 34.0136 0C15.2421 0 0 12.9258 0 28.8787C0 36.2537 3.43143 43.2756 7.97398 48.9376C11.4316 53.2396 15.6996 56.8029 19.1833 61.0526C22.5036 65.1062 24.3795 69.5979 25.6344 74.6649H33.6607H34.0986H42.1248C42.2621 74.6649 44.0007 68.5649 44.2229 67.9961C47.0792 61.0853 53.04 56.2668 58.0205 50.9317C63.4258 45.0736 68.0272 37.0186 68.0272 28.8787Z" fill="#032030"/>
<path d="M64.8115 28.8787C64.8115 12.9258 51.0204 0 34.0136 0C17.0068 0 3.20923 12.9258 3.20923 28.8787C3.20923 36.2537 6.31385 43.2756 10.4185 48.9376C13.5493 53.2396 17.4121 56.8029 20.569 61.0526C23.5886 65.1062 25.2749 69.5979 26.4187 74.6649H33.6868H34.0659H41.334C41.4713 74.6649 43.0203 68.5649 43.236 67.9961C45.8177 61.0853 51.21 56.2668 55.7264 50.9317C60.6219 45.0736 64.8115 37.0186 64.8115 28.8787Z" fill="#FDF7EA"/>
<path d="M57.5238 28.8787C57.5238 12.9258 46.9942 0 34.0136 0C21.033 0 10.5034 12.9258 10.5034 28.8787C10.5034 36.2537 12.8695 43.2756 16.0002 48.9376C18.3924 53.2396 21.3337 56.8029 23.752 61.0526C26.0396 65.1062 27.3468 69.5979 28.2161 74.6649H33.7652H34.0659H39.615C39.7261 74.6649 40.8961 68.5649 41.0856 67.9961C43.0726 61.0853 47.1837 56.2668 50.6348 50.9317C54.3407 45.0736 57.5238 37.0186 57.5238 28.8787Z" fill="#1794A5"/>
<path d="M49.4126 28.8787C49.4126 12.9258 42.5301 0 34.0136 0C25.4972 0 18.6082 12.9258 18.6082 28.8787C18.6082 36.2537 20.1572 43.2756 22.203 48.9376C23.752 53.2396 25.6867 56.8029 27.288 61.0526C28.7848 65.1062 29.6279 69.5979 30.1966 74.6649H33.8175H34.0071H37.6281C37.6803 74.6649 38.4712 68.5649 38.5823 67.9961C39.8895 61.0853 42.5824 56.2668 44.8112 50.9317C47.3145 45.0736 49.4126 37.0186 49.4126 28.8787Z" fill="#FDF7EA"/>
<path d="M40.0007 28.8787C40.0007 12.9258 37.3013 0 34.0136 0C30.726 0 28.0266 12.9258 28.0266 28.8787C28.0266 36.2537 28.6279 43.2756 29.4123 48.9376C30.0136 53.2396 30.7718 56.8029 31.3992 61.0526C32.0005 65.1062 32.3273 69.5979 32.543 74.6649H33.9548H34.0071H35.4189C35.445 74.6649 35.7457 68.5649 35.798 67.9961C36.3143 61.0853 37.347 56.2668 38.2228 50.9317C39.1836 45.0736 40.0007 37.0186 40.0007 28.8787Z" fill="#F71E35"/>
<path d="M23.484 68.7806C24.3794 70.8467 25.0919 73.0239 25.6605 75.3122H33.6868H34.1247H42.151C42.2882 75.3122 43.8373 69.866 44.1902 68.7806H23.484Z" fill="#F71E35"/>
<path d="M27.2946 73.8672H26.641V84.0732H27.2946V73.8672Z" fill="#F71E35"/>
<path d="M41.4125 73.6515H40.7589V83.8574H41.4125V73.6515Z" fill="#F71E35"/>
<path d="M34.3405 73.7888H33.6869V83.9948H34.3405V73.7888Z" fill="#F71E35"/>
<path d="M27.9417 91.2062C27.9417 93.5207 26.824 94.1157 25.4384 94.1157C24.0527 94.1157 22.9351 93.5142 22.9351 91.2062C22.9351 89.3821 24.8697 84.9493 25.4645 85.0539C26.5037 85.25 27.9417 89.5455 27.9417 91.2062Z" fill="#F71E35"/>
<path opacity="0.5" d="M23.6736 90.5524C23.6736 89.7352 23.4318 90.0882 23.4318 90.9905C23.4318 93.1153 24.4645 93.658 25.7194 93.658C26.0658 93.658 23.6736 92.9257 23.6736 90.5524Z" fill="white"/>
<path d="M45.3603 91.2062C45.3603 93.5207 44.2426 94.1157 42.8569 94.1157C41.4713 94.1157 40.3536 93.5142 40.3536 91.2062C40.3536 89.3821 42.2883 84.9493 42.8831 85.0539C43.9158 85.25 45.3603 89.5455 45.3603 91.2062Z" fill="#F71E35"/>
<path opacity="0.5" d="M41.1118 90.5524C41.1118 89.7352 40.87 90.0882 40.87 90.9905C40.87 93.1153 41.9027 93.658 43.1576 93.658C43.4779 93.658 41.1118 92.9257 41.1118 90.5524Z" fill="white"/>
<path d="M40.4321 100H27.9744C26.8044 100 25.824 99.0454 25.824 97.849L25.3861 85.8189C25.3861 84.6486 26.3404 83.6678 27.5365 83.6678H40.8439C42.0138 83.6678 42.9942 84.6224 42.9942 85.8189L42.5563 97.849C42.5825 99.0193 41.602 100 40.4321 100Z" fill="#032030"/>
<path d="M42.9354 87.6953L42.9877 85.8189C42.9877 84.6486 42.0334 83.6678 40.8373 83.6678H27.5365C26.3665 83.6678 25.3861 84.6224 25.3861 85.8189L25.4384 87.6953H42.9354Z" fill="#032030"/>
<path d="M42.4452 86.7996H25.9874C24.8174 86.7996 23.837 85.845 23.837 84.6485C23.837 83.4782 24.7913 82.4975 25.9874 82.4975H42.4517C43.6217 82.4975 44.6021 83.4521 44.6021 84.6485C44.5694 85.8188 43.6151 86.7996 42.4452 86.7996Z" fill="#032030"/>
<path d="M34.0135 87.5057L30.3207 93.6189H37.6999L34.0135 87.5057Z" fill="#F71E35"/>
<path d="M27.3664 24.5243C27.3664 24.9559 27.0135 25.3089 26.5625 25.3089H24.6213C24.484 25.3089 24.3664 25.4266 24.3664 25.5835V36.1556C24.3664 36.6067 23.9938 36.999 23.5233 36.999C23.0723 36.999 22.6801 36.6067 22.6801 36.1556V25.5835C22.6801 25.4266 22.5625 25.3089 22.4448 25.3089H20.484C20.0526 25.3089 19.6801 24.9559 19.6801 24.5243C19.6801 24.0732 20.0526 23.7202 20.484 23.7202H26.5625C27.0135 23.7202 27.3664 24.0732 27.3664 24.5243Z" fill="#032030" stroke="#032030" stroke-width="0.25" stroke-miterlimit="10"/>
<path d="M37.0725 36.999H31.2881C30.543 36.999 29.9547 36.391 29.9547 35.6456V25.0735C29.9547 24.3282 30.543 23.7202 31.2881 23.7202H37.0725C37.8176 23.7202 38.4058 24.3086 38.4058 25.0539V35.6456C38.4058 36.391 37.8176 36.999 37.0725 36.999ZM31.8567 35.4299H36.4646C36.6215 35.4299 36.7391 35.3122 36.7391 35.1749V25.5443C36.7391 25.407 36.6215 25.2893 36.4646 25.2893H31.8567C31.6998 25.2893 31.5822 25.407 31.5822 25.5443V35.1749C31.5822 35.3122 31.6998 35.4299 31.8567 35.4299Z" fill="#032030" stroke="#032030" stroke-width="0.25" stroke-miterlimit="10"/>
<path d="M43.4256 23.7202H48.8962C49.6413 23.7202 50.2296 24.3086 50.2296 25.0539V28.8591C50.2296 29.6044 49.6413 30.2125 48.8962 30.2125H44.0334C43.8962 30.2125 43.7785 30.3302 43.7785 30.4675V36.1556C43.7785 36.6263 43.3863 36.999 42.9354 36.999C42.4648 36.999 42.1118 36.6263 42.1118 36.1556V25.0539C42.1118 24.3086 42.7001 23.7202 43.4256 23.7202ZM44.0334 28.6433H48.3472C48.4845 28.6433 48.6021 28.5256 48.6021 28.3883V25.5443C48.6021 25.3874 48.4845 25.2697 48.3472 25.2697H44.0334C43.8962 25.2697 43.7785 25.3874 43.7785 25.5443V28.3883C43.7785 28.5256 43.8962 28.6433 44.0334 28.6433Z" fill="#032030" stroke="#032030" stroke-width="0.25" stroke-miterlimit="10"/>
</g>
<defs>
<clipPath id="clip0">
<rect width="68.0272" height="100" fill="white"/>
</clipPath>
</defs>
</svg>
