<?xml version="1.0" encoding="utf-8"?>
<!-- Generator: Adobe Illustrator 24.0.1, SVG Export Plug-In . SVG Version: 6.00 Build 0)  -->
<svg version="1.1" id="圖層_1" xmlns="http://www.w3.org/2000/svg" xmlns:xlink="http://www.w3.org/1999/xlink" x="0px" y="0px"
	 viewBox="0 0 240 240" style="enable-background:new 0 0 240 240;" xml:space="preserve">
<style type="text/css">
	.st0{fill:#E7E7DE;}
	.st1{fill:#00587A;}
</style>
<circle class="st0" cx="120" cy="120" r="120"/>
<circle class="st1" cx="120" cy="120" r="107.1"/>
<g>
	<g>
		<g>
			<circle class="st0" cx="115.1" cy="117.4" r="57.5"/>
		</g>
		<g>
			<path class="st0" d="M118.7,192c-43.2,0-78.4-35.2-78.4-78.4s35.2-78.4,78.4-78.4c43.2,0,78.4,35.2,78.4,78.4
				S161.9,192,118.7,192z M118.7,43.9C80.3,43.9,49,75.2,49,113.6s31.3,69.7,69.7,69.7c38.4,0,69.7-31.2,69.7-69.7
				S157.1,43.9,118.7,43.9z"/>
		</g>
		<g>
			<path class="st0" d="M119.3,206.3c-50,0-90.7-40.7-90.7-90.7c0-50,40.7-90.7,90.7-90.7c50,0,90.7,40.7,90.7,90.7
				C210.1,165.6,169.4,206.3,119.3,206.3z M119.3,29.3C71.8,29.3,33,68,33,115.6c0,47.6,38.7,86.3,86.3,86.3
				c47.6,0,86.3-38.7,86.3-86.3C205.6,68,166.9,29.3,119.3,29.3z"/>
		</g>
		<g>
			<path class="st0" d="M121.1,214.9c-52.2,0-94.7-42.5-94.7-94.7s42.5-94.7,94.7-94.7c52.2,0,94.7,42.5,94.7,94.7
				S173.3,214.9,121.1,214.9z M121.1,26.6c-51.6,0-93.7,42-93.7,93.7s42,93.7,93.7,93.7c51.7,0,93.7-42,93.7-93.7
				S172.8,26.6,121.1,26.6z"/>
		</g>
		<g>
			<path class="st0" d="M124.2,175.8c-33.7,0-61.2-27.5-61.2-61.2s27.5-61.2,61.2-61.2s61.2,27.5,61.2,61.2S158,175.8,124.2,175.8z
				 M124.2,54.3c-33.3,0-60.3,27.1-60.3,60.3c0,33.3,27.1,60.3,60.3,60.3s60.3-27.1,60.3-60.3C184.6,81.4,157.5,54.3,124.2,54.3z"/>
		</g>
		<g>
			<path class="st0" d="M114.1,198.3c-45.5,0-82.5-37-82.5-82.5c0-45.5,37-82.5,82.5-82.5s82.5,37,82.5,82.5
				C196.6,161.3,159.6,198.3,114.1,198.3z M114.1,34.4c-44.9,0-81.4,36.5-81.4,81.4s36.5,81.4,81.4,81.4s81.4-36.5,81.4-81.4
				S158.9,34.4,114.1,34.4z"/>
		</g>
		<g>
			<path class="st0" d="M113.8,177.8c-33.7,0-61.2-27.5-61.2-61.2c0-33.7,27.5-61.2,61.2-61.2S175,82.9,175,116.6
				C175,150.4,147.5,177.8,113.8,177.8z M113.8,56.3c-33.3,0-60.3,27.1-60.3,60.3S80.5,177,113.8,177s60.3-27.1,60.3-60.3
				S147.1,56.3,113.8,56.3z"/>
		</g>
		<g>
			<path class="st0" d="M120,230c-60.7,0-110-49.3-110-110S59.3,10,120,10s110,49.3,110,110S180.7,230,120,230z M120,21.9
				c-54.1,0-98.1,44-98.1,98.1s44,98.1,98.1,98.1c54.1,0,98.1-44,98.1-98.1S174.1,21.9,120,21.9z"/>
		</g>
		<g>
			<path class="st1" d="M120.7,148.8c-18.7,0-33.9-15.2-33.9-33.9C86.7,96.2,102,81,120.7,81s33.9,15.2,33.9,33.9
				C154.6,133.6,139.4,148.8,120.7,148.8z M120.7,89.8c-13.9,0-25.2,11.3-25.2,25.2c0,13.9,11.3,25.2,25.2,25.2s25.2-11.3,25.2-25.2
				C145.8,101,134.5,89.8,120.7,89.8z"/>
		</g>
		<g>
			<g>
				<path class="st1" d="M120.7,135.9c-10.2,0-18.5-8.3-18.5-18.5s8.3-18.5,18.5-18.5s18.5,8.3,18.5,18.5S130.9,135.9,120.7,135.9z
					 M120.7,103.5c-7.6,0-13.9,6.2-13.9,13.9c0,7.6,6.2,13.9,13.9,13.9s13.9-6.2,13.9-13.9C134.5,109.7,128.3,103.5,120.7,103.5z"/>
			</g>
			<g>
				<path class="st1" d="M128,116h3.5c0.8,0,1.1-0.4,1.1-1.1s-0.4-1.1-1.1-1.1h-5.3c-0.6-0.8-1-1.5-1.6-2.4h5.3
					c0.8,0,1.1-0.4,1.1-1.1c0-0.8-0.4-1.1-1.1-1.1h-3.3c0.4-0.6,0.7-1,0.9-1.6c0.3-0.3,0.4-0.6,0.4-0.9c0-0.4-0.1-0.7-0.4-0.9
					c-0.3-0.3-0.6-0.4-0.9-0.4c-0.5,0-0.9,0.2-1.2,0.6c-0.4,0.9-0.8,1.8-1.3,2.5c-0.2,0.3-0.3,0.5-0.5,0.8h-2.4
					c0.2-0.6,0.3-1.1,0.4-1.7c0.1-0.4,0.2-0.8,0.2-1.3c0-0.3-0.2-0.6-0.5-0.8c-0.3-0.3-0.7-0.4-1-0.4c-0.7,0-1,0.3-1.1,0.9
					c-0.2,1.1-0.4,2.2-0.7,3.2H116c0.3-0.2,0.5-0.6,0.5-1c0-0.3-0.1-0.5-0.2-0.8c-0.6-0.8-1-1.3-1.7-1.9c-0.3-0.3-0.6-0.4-0.8-0.4
					c-0.9,0-1.5,0.5-1.5,1.3c0,0.2,0.1,0.4,0.3,0.8c0.6,0.7,1.1,1.2,1.7,1.9h0.1h-2.7c-0.8,0-1.1,0.4-1.1,1.1c0,0.8,0.4,1.1,1.1,1.1
					h6c-0.2,0.3-0.3,0.7-0.5,0.9c-0.3,0.5-0.6,1-0.9,1.5h-6.4c-0.8,0-1.1,0.4-1.1,1.1c0,0.8,0.4,1.1,1.1,1.1h4.5
					c-0.1,0.2-0.3,0.3-0.4,0.4c-1.1,1.1-2.8,2.4-5,3.7c-0.3,0.3-0.5,0.6-0.5,0.9c0,0.4,0.2,0.8,0.5,1c0.3,0.3,0.7,0.4,1,0.4
					c0.3,0,0.5-0.1,0.8-0.2c0.4-0.3,0.8-0.5,1.1-0.8v4c0,1.7,0.7,2.9,2,3.5c1.2,0.5,3.9,0.7,7.9,0.7c4.1,0,6.7-0.2,7.6-0.6
					c1.1-0.4,1.8-1.1,2-2.1c0.2-0.8,0.3-1.4,0.3-2.2c-0.1-1-0.5-1.6-1.3-1.7c-0.8,0.1-1.2,0.5-1.3,1.3c0,1.2-0.2,2-0.6,2.2
					c-0.2,0.3-0.7,0.4-1.4,0.5c-1.2,0.1-3.4,0.2-6.3,0.2c-2.5,0-4.3-0.2-5.4-0.5c-0.7-0.2-1-0.8-1-1.8v-3.7c0-0.7,0.3-1,0.8-1h9.6
					c0.5,0,0.8,0.4,0.8,1v0.3c0,1-0.8,1.5-2.4,1.5c-0.7,0-1.7-0.1-3-0.4c-0.4-0.1-0.7-0.1-0.9-0.1c-0.8,0-1.1,0.5-1.1,1.4
					c0,0.6,0.3,0.9,0.9,1.2c1.7,0.3,3.2,0.5,4.4,0.5c3.1,0,4.6-1.1,4.6-3.3v-2c0-0.4,0-0.7-0.1-0.8c0.8,0.8,1.7,1.5,2.7,2.3
					c0.4,0.3,0.8,0.5,1.2,0.5c0.8,0,1.3-0.5,1.3-1.4c0-0.3-0.2-0.6-0.5-0.9C130.6,118.5,129.1,117.3,128,116z M119.2,113.5
					c0.4-0.7,0.8-1.4,1-2.2h1.6c0.4,0.8,0.8,1.6,1.3,2.4h-4C119.2,113.7,119.2,113.6,119.2,113.5z M125.5,118.2H116
					c0.7-0.7,1.3-1.4,1.8-2.2h6.9c0.5,0.8,1.1,1.5,1.9,2.3C126.2,118.3,125.8,118.2,125.5,118.2z"/>
			</g>
		</g>
		<g>
			<g>
				<g>
					<path class="st1" d="M120.9,161.2c-19.3,0-37.3-12.3-43.5-31.6c-0.5-1.6,0.4-3.4,2-3.9c1.6-0.5,3.4,0.4,3.9,2
						c5.3,16.7,20.9,27.3,37.6,27.3c4,0,8-0.6,12-1.9c20.6-6.6,32.1-28.8,25.5-49.5c-0.5-1.6,0.4-3.4,2-3.9c1.6-0.5,3.4,0.4,3.9,2
						c7.6,23.9-5.6,49.7-29.5,57.3C130.2,160.5,125.5,161.2,120.9,161.2z"/>
				</g>
				<g>
					<path class="st1" d="M66.3,135.8c-1.3,0-2.6-0.9-3-2.2c-0.8-2.7-0.5-5.5,0.9-7.9c1.3-2.4,3.5-4.2,6.2-5
						c2.7-0.8,5.5-0.5,7.9,0.9c2.4,1.3,4.2,3.5,5,6.2c0.5,1.6-0.5,3.4-2.1,3.8c-1.6,0.5-3.4-0.5-3.8-2.1c-0.7-2.2-3-3.5-5.2-2.9
						c-1.1,0.3-2,1-2.5,2c-0.5,1-0.7,2.1-0.4,3.2c0.5,1.6-0.5,3.4-2.1,3.8C66.9,135.8,66.6,135.8,66.3,135.8z"/>
				</g>
			</g>
			<g>
				<circle class="st1" cx="69.9" cy="109.1" r="8.6"/>
			</g>
		</g>
	</g>
</g>
</svg>
