<?xml version="1.0" encoding="utf-8"?>
<!-- Generator: Adobe Illustrator 24.0.1, SVG Export Plug-In . SVG Version: 6.00 Build 0)  -->
<svg version="1.1" id="圖層_1" xmlns="http://www.w3.org/2000/svg" xmlns:xlink="http://www.w3.org/1999/xlink" x="0px" y="0px"
	 viewBox="0 0 240 240" style="enable-background:new 0 0 240 240;" xml:space="preserve">
<style type="text/css">
	.st0{fill:#E6E6E6;}
	.st1{fill:#414141;}
</style>
<circle class="st0" cx="119.5" cy="119.5" r="120"/>
<circle class="st1" cx="119.5" cy="119.5" r="107.1"/>
<g>
	<g>
		<g>
			<circle class="st0" cx="114.6" cy="116.9" r="57.5"/>
		</g>
		<g>
			<path class="st0" d="M118.2,191.5c-43.2,0-78.4-35.2-78.4-78.4s35.2-78.4,78.4-78.4c43.2,0,78.4,35.2,78.4,78.4
				S161.4,191.5,118.2,191.5z M118.2,43.4c-38.4,0-69.7,31.3-69.7,69.7s31.3,69.7,69.7,69.7c38.4,0,69.7-31.2,69.7-69.7
				S156.6,43.4,118.2,43.4z"/>
		</g>
		<g>
			<path class="st0" d="M118.8,205.8c-50,0-90.7-40.7-90.7-90.7c0-50,40.7-90.7,90.7-90.7c50,0,90.7,40.7,90.7,90.7
				C209.6,165.1,168.9,205.8,118.8,205.8z M118.8,28.8c-47.6,0-86.3,38.7-86.3,86.3c0,47.6,38.7,86.3,86.3,86.3
				c47.6,0,86.3-38.7,86.3-86.3C205.1,67.5,166.4,28.8,118.8,28.8z"/>
		</g>
		<g>
			<path class="st0" d="M120.6,214.4C68.4,214.4,26,172,26,119.8s42.5-94.7,94.7-94.7c52.2,0,94.7,42.5,94.7,94.7
				S172.8,214.4,120.6,214.4z M120.6,26.1C69,26.1,27,68.1,27,119.8s42,93.7,93.7,93.7c51.7,0,93.7-42,93.7-93.7
				S172.3,26.1,120.6,26.1z"/>
		</g>
		<g>
			<path class="st0" d="M123.7,175.3c-33.7,0-61.2-27.5-61.2-61.2S90,52.9,123.7,52.9s61.2,27.5,61.2,61.2S157.5,175.3,123.7,175.3z
				 M123.7,53.8c-33.3,0-60.3,27.1-60.3,60.3c0,33.3,27.1,60.3,60.3,60.3s60.3-27.1,60.3-60.3C184.1,80.9,157,53.8,123.7,53.8z"/>
		</g>
		<g>
			<path class="st0" d="M113.6,197.8c-45.5,0-82.5-37-82.5-82.5c0-45.5,37-82.5,82.5-82.5s82.5,37,82.5,82.5
				C196.1,160.8,159.1,197.8,113.6,197.8z M113.6,33.9c-44.9,0-81.4,36.5-81.4,81.4s36.5,81.4,81.4,81.4s81.4-36.5,81.4-81.4
				S158.4,33.9,113.6,33.9z"/>
		</g>
		<g>
			<path class="st0" d="M113.3,177.3c-33.7,0-61.2-27.5-61.2-61.2c0-33.7,27.5-61.2,61.2-61.2s61.2,27.5,61.2,61.2
				C174.5,149.9,147,177.3,113.3,177.3z M113.3,55.8c-33.3,0-60.3,27.1-60.3,60.3s27.1,60.3,60.3,60.3s60.3-27.1,60.3-60.3
				S146.6,55.8,113.3,55.8z"/>
		</g>
		<g>
			<path class="st0" d="M119.5,229.5c-60.7,0-110-49.3-110-110s49.3-110,110-110s110,49.3,110,110S180.2,229.5,119.5,229.5z
				 M119.5,21.4c-54.1,0-98.1,44-98.1,98.1s44,98.1,98.1,98.1c54.1,0,98.1-44,98.1-98.1S173.6,21.4,119.5,21.4z"/>
		</g>
		<g>
			<path class="st1" d="M120.2,148.3c-18.7,0-33.9-15.2-33.9-33.9c0-18.7,15.2-33.9,33.9-33.9s33.9,15.2,33.9,33.9
				C154.1,133.1,138.9,148.3,120.2,148.3z M120.2,89.3c-13.9,0-25.2,11.3-25.2,25.2c0,13.9,11.3,25.2,25.2,25.2s25.2-11.3,25.2-25.2
				C145.3,100.5,134,89.3,120.2,89.3z"/>
		</g>
		<g>
			<g>
				<path class="st1" d="M120.2,135.4c-10.2,0-18.5-8.3-18.5-18.5s8.3-18.5,18.5-18.5s18.5,8.3,18.5,18.5S130.4,135.4,120.2,135.4z
					 M120.2,103c-7.6,0-13.9,6.2-13.9,13.9c0,7.6,6.2,13.9,13.9,13.9s13.9-6.2,13.9-13.9C134,109.2,127.8,103,120.2,103z"/>
			</g>
			<g>
				<path class="st1" d="M127.5,115.5h3.5c0.8,0,1.1-0.4,1.1-1.1s-0.4-1.1-1.1-1.1h-5.3c-0.6-0.8-1-1.5-1.6-2.4h5.3
					c0.8,0,1.1-0.4,1.1-1.1c0-0.8-0.4-1.1-1.1-1.1h-3.3c0.4-0.6,0.7-1,0.9-1.6c0.3-0.3,0.4-0.6,0.4-0.9c0-0.4-0.1-0.7-0.4-0.9
					c-0.3-0.3-0.6-0.4-0.9-0.4c-0.5,0-0.9,0.2-1.2,0.6c-0.4,0.9-0.8,1.8-1.3,2.5c-0.2,0.3-0.3,0.5-0.5,0.8h-2.4
					c0.2-0.6,0.3-1.1,0.4-1.7c0.1-0.4,0.2-0.8,0.2-1.3c0-0.3-0.2-0.6-0.5-0.8c-0.3-0.3-0.7-0.4-1-0.4c-0.7,0-1,0.3-1.1,0.9
					c-0.2,1.1-0.4,2.2-0.7,3.2h-2.4c0.3-0.2,0.5-0.6,0.5-1c0-0.3-0.1-0.5-0.2-0.8c-0.6-0.8-1-1.3-1.7-1.9c-0.3-0.3-0.6-0.4-0.8-0.4
					c-0.9,0-1.5,0.5-1.5,1.3c0,0.2,0.1,0.4,0.3,0.8c0.6,0.7,1.1,1.2,1.7,1.9h0.1H111c-0.8,0-1.1,0.4-1.1,1.1c0,0.8,0.4,1.1,1.1,1.1
					h6c-0.2,0.3-0.3,0.7-0.5,0.9c-0.3,0.5-0.6,1-0.9,1.5h-6.4c-0.8,0-1.1,0.4-1.1,1.1c0,0.8,0.4,1.1,1.1,1.1h4.5
					c-0.1,0.2-0.3,0.3-0.4,0.4c-1.1,1.1-2.8,2.4-5,3.7c-0.3,0.3-0.5,0.6-0.5,0.9c0,0.4,0.2,0.8,0.5,1c0.3,0.3,0.7,0.4,1,0.4
					c0.3,0,0.5-0.1,0.8-0.2c0.4-0.3,0.8-0.5,1.1-0.8v4c0,1.7,0.7,2.9,2,3.5c1.2,0.5,3.9,0.7,7.9,0.7c4.1,0,6.7-0.2,7.6-0.6
					c1.1-0.4,1.8-1.1,2-2.1c0.2-0.8,0.3-1.4,0.3-2.2c-0.1-1-0.5-1.6-1.3-1.7c-0.8,0.1-1.2,0.5-1.3,1.3c0,1.2-0.2,2-0.6,2.2
					c-0.2,0.3-0.7,0.4-1.4,0.5c-1.2,0.1-3.4,0.2-6.3,0.2c-2.5,0-4.3-0.2-5.4-0.5c-0.7-0.2-1-0.8-1-1.8v-3.7c0-0.7,0.3-1,0.8-1h9.6
					c0.5,0,0.8,0.4,0.8,1v0.3c0,1-0.8,1.5-2.4,1.5c-0.7,0-1.7-0.1-3-0.4c-0.4-0.1-0.7-0.1-0.9-0.1c-0.8,0-1.1,0.5-1.1,1.4
					c0,0.6,0.3,0.9,0.9,1.2c1.7,0.3,3.2,0.5,4.4,0.5c3.1,0,4.6-1.1,4.6-3.3v-2c0-0.4,0-0.7-0.1-0.8c0.8,0.8,1.7,1.5,2.7,2.3
					c0.4,0.3,0.8,0.5,1.2,0.5c0.8,0,1.3-0.5,1.3-1.4c0-0.3-0.2-0.6-0.5-0.9C130.1,118,128.6,116.8,127.5,115.5z M118.7,113
					c0.4-0.7,0.8-1.4,1-2.2h1.6c0.4,0.8,0.8,1.6,1.3,2.4h-4C118.7,113.2,118.7,113.1,118.7,113z M125,117.7h-9.5
					c0.7-0.7,1.3-1.4,1.8-2.2h6.9c0.5,0.8,1.1,1.5,1.9,2.3C125.7,117.8,125.3,117.7,125,117.7z"/>
			</g>
		</g>
		<g>
			<g>
				<g>
					<path class="st1" d="M120.4,160.7c-19.3,0-37.3-12.3-43.5-31.6c-0.5-1.6,0.4-3.4,2-3.9c1.6-0.5,3.4,0.4,3.9,2
						c5.3,16.7,20.9,27.3,37.6,27.3c4,0,8-0.6,12-1.9c20.6-6.6,32.1-28.8,25.5-49.5c-0.5-1.6,0.4-3.4,2-3.9c1.6-0.5,3.4,0.4,3.9,2
						c7.6,23.9-5.6,49.7-29.5,57.3C129.7,160,125,160.7,120.4,160.7z"/>
				</g>
				<g>
					<path class="st1" d="M65.8,135.3c-1.3,0-2.6-0.9-3-2.2c-0.8-2.7-0.5-5.5,0.9-7.9c1.3-2.4,3.5-4.2,6.2-5
						c2.7-0.8,5.5-0.5,7.9,0.9c2.4,1.3,4.2,3.5,5,6.2c0.5,1.6-0.5,3.4-2.1,3.8c-1.6,0.5-3.4-0.5-3.8-2.1c-0.7-2.2-3-3.5-5.2-2.9
						c-1.1,0.3-2,1-2.5,2c-0.5,1-0.7,2.1-0.4,3.2c0.5,1.6-0.5,3.4-2.1,3.8C66.4,135.3,66.1,135.3,65.8,135.3z"/>
				</g>
			</g>
			<g>
				<circle class="st1" cx="69.4" cy="108.6" r="8.6"/>
			</g>
		</g>
	</g>
</g>
</svg>
