<?xml version="1.0" encoding="utf-8"?>
<!-- Generator: Adobe Illustrator 23.0.0, SVG Export Plug-In . SVG Version: 6.00 Build 0)  -->
<svg version="1.1" id="圖層_1" xmlns="http://www.w3.org/2000/svg" xmlns:xlink="http://www.w3.org/1999/xlink" x="0px" y="0px"
	 viewBox="0 0 240 240" style="enable-background:new 0 0 240 240;" xml:space="preserve">
<style type="text/css">
	.st0{fill:#E4D3C1;}
	.st1{fill:#F4F4F4;}
	.st2{fill:#D5374E;}
	.st3{fill:#FFFEFD;}
	.st4{fill:#565656;}
	.st5{fill:none;stroke:#565656;stroke-width:0.6427;stroke-miterlimit:10;}
	.st6{fill:#333333;}
</style>
<g>
	<g>
		<g>
			<circle class="st0" cx="120" cy="120" r="120"/>
			<g>
				<g>
					<g>
						<g>
							<path class="st1" d="M138.6,179.4c4.5,0.1,8.9,0.1,13.4,0.2c0.1,0,0.2,0,0.3,0c4.5,0.1,9,0.2,13.5,0.3
								c13.5,0.3,26.9,0.5,40.4,0.7c0.1,0,0.1,0,0.2,0c0.8,0,1.6,0,2.2-0.4c1.4-0.8,1.5-2.9,1.5-4.6c-1.2-37.8-1.1-75.5,0.3-113.3
								c0.1-1.6,0-3.5-1.2-4.3c-0.6-0.4-1.3-0.5-2-0.6c-5.4-0.7-10.8-1.1-16.2-1.1c-2.8,0-5.5,0-8.3,0.1c-1.2,0.1-5.8-0.5-5.6,1.3
								c0.5,6.4,0.6,12.9,0.4,19.4c0,0.7-0.1,1.5-0.6,1.9c-0.5,0.5-1.2,0.5-1.8,0.5c-2.7,0.1-5.5,0.3-8.2,0.3
								c-1.8,0-3.9,0.8-4.5-1.2c-0.7-2.3-0.2-5.6-0.2-8c0-3.3,0-6.7-0.2-10c0-0.7-0.1-1.4-0.6-1.8c-0.3-0.4-0.8-0.5-1.3-0.6
								c-7.1-1.4-15.3-0.9-22.5-0.4c-4.8,0.3-9.7-0.9-10.8,5.5c-1,5.6-0.8,11.4-0.7,17.1c0,13.4,0.4,26.8,0.3,40.2
								c-0.1,13.5-1.9,54.3-1.7,57.1c0,0.4,0.1,0.8,0.4,1.1s0.7,0.3,1,0.4C130.2,179.7,134.4,179.3,138.6,179.4z"/>
						</g>
						<g>
							<path class="st2" d="M137.5,57.8c0-0.1,0.1-0.1,0.1-0.1c0.2-0.2,1.4-0.1,1.7-0.1c1,0,1.9-0.1,2.9-0.1c0.7,0,8.1-0.4,8.1-0.2
								c0.2,40.8-0.3,81.5-1.4,122.3c-4.3,0-8.6-0.1-12.8-0.1c0.1-9,0.2-18,0.3-26.9s0.2-18,0.3-26.9s0.2-18,0.3-26.9
								s0.2-18,0.3-26.9C137.2,69.3,137,58.6,137.5,57.8z"/>
						</g>
						<g>
							<path class="st2" d="M164.2,170.6c0-3.5,0-7-0.1-10.5c0-6.6-0.1-13.2-0.1-19.8s-0.1-13.2-0.1-19.8c0-6.6-0.1-13.2-0.1-19.8
								c0-3.4,0-6.7-0.1-10.1c0-3.3-0.2-6.6-0.1-9.9c0-0.3,0.1-0.6,0.3-0.9c0-0.1,0.1-0.1,0.2-0.2c0.1,0,0.1,0,0.2,0
								c2.2-0.1,4.4-0.2,6.5-0.3c0.5,0,0.9-0.1,1.4-0.1s0.9-0.1,1.4-0.2c0.4,0,0.9-0.1,1.3-0.1c0.1,0,0.3,0,0.4,0c0.1,0,0.2,0,0.4,0
								h0.1l0.1,0.1c0,0.1,0,0.3,0,0.4c0,0.2,0,0.3,0,0.5s0,0.4,0,0.6c0,0.4,0,0.8,0,1.2c0,0.8,0,1.6,0,2.4c0,0.1,0,0.1,0,0.2
								c0,1.7,0,3.3,0,5s0,3.3,0,5s0,3.3,0,5c0,1.6,0,3.3,0,4.9s0,3.3,0,4.9s0,3.3,0,4.9s0,3.3,0,4.9s0,3.3,0.1,4.9
								c0,1.6,0,3.3,0.1,4.9c0,1.6,0,3.3,0.1,4.9c0,1.6,0,3.3,0.1,4.9c0,1.6,0,3.3,0,4.9c0,1.6,0,3.3,0,4.9c0,1.6,0,3.3,0,4.9
								c0,1.6,0,3.3,0,4.9c0,1.7,0,3.3,0,5s0,3.3,0,5c0,2.9,0,11.8,0,11.8s-5,0-7.1-0.1c-0.7,0-3.3,0.1-5-0.1
								C164,180,164.2,172.3,164.2,170.6z"/>
						</g>
						<g>
							<path class="st2" d="M189,56c2.9-0.3,11.5,0.4,11.5,0.4s0.4,46.7-0.1,55.2c-0.3,4.3-0.4,22.2-0.4,26.6
								c0.1,7.1-0.8,35.3-0.2,42.3c0-0.1-11.2,0-11.5-0.3C188,180,187,99.5,189,57.4V56z"/>
						</g>
					</g>
					<g>
						<g>
							<g>
								<path class="st3" d="M44.6,55.7c0.2,0,1.1-1.4,1.1-1.6c0-1.1-2.2,0.5-2.1,0.8C43.9,55.3,44,55.6,44.6,55.7z"/>
								<path class="st3" d="M43.1,54.2c0.1,0,0.6-1.5,0.7-1.7c0-0.1,0.1-0.2,0-0.2c-0.2-0.8-2.1,1.1-1.8,1.3
									C42.2,53.9,42.4,54.2,43.1,54.2z"/>
								<path class="st3" d="M41,53.5L41,53.5c0-0.1,0-0.2,0-0.3c-0.1-0.5-0.2-1.1-0.3-1.6c-0.1-0.6-0.8,0.4-0.8,0.6
									c-0.1,0.4-0.2,0.9-0.1,1.3C39.7,53.7,40.8,53.8,41,53.5z"/>
								<path class="st3" d="M38.8,54.1C38.8,54.1,38.8,54,38.8,54.1c0-0.1,0-0.2-0.1-0.2c-0.2-0.5-0.5-1-0.7-1.5
									c-0.3-0.6-0.7,0.5-0.7,0.7c0,0.5,0.1,0.9,0.2,1.4C37.7,54.7,38.7,54.4,38.8,54.1z"/>
								<g>
									<path class="st3" d="M36.2,56C36.2,56,36.1,56,36.2,56c-0.1,0-0.1,0-0.2,0c-0.3-0.3-0.3-0.7-0.4-1
										c-0.2-0.4-0.2-0.8-0.2-1.1c0,0,0,0,0-0.1h0.1c0.4,0.1,0.7,0.4,1,0.7c0.2,0.2,0.6,0.4,0.7,0.7C37.3,55.5,36.5,55.7,36.2,56
										C36.2,55.9,36.2,56,36.2,56z"/>
								</g>
							</g>
							<g>
								<path class="st4" d="M30.3,166.9c0.1-3.2,0.1-6.4,0.1-9.7c0-26.4-2.2-53.3,0.9-79.6c0.5-4,1.1-7.9,1.8-11.8
									c1-5,2.7-13.2,7.6-12.7c6.9,0.7,6,13.1,5.9,17.7c-0.9,27-0.1,53.8,0.8,80.8c0.3,7.5,0.5,15.1,0.8,22.6
									c0,1.1,0.1,2.2-0.3,3.2c-0.8,2-3.3,2.3-5.2,2.1c-2.5-0.2-5.1-0.5-7.6-0.9c-1.9-0.3-4.2-0.2-4.8-2.4
									c-0.2-0.8-0.2-1.7-0.2-2.5C30.2,171.5,30.3,169.2,30.3,166.9z"/>
							</g>
							<g>
								<path class="st1" d="M39.1,61.1c-0.2-0.1-0.5-0.2-0.7-0.4c-0.7-0.6-1.2-1.6-0.9-2.5c0.2-0.5,0.6-0.8,1-1.1
									c1.7-0.9,4.2,0.1,4.8,2c0.2,0.6-0.6,1.6-0.9,2c-0.1,0.2-0.3,0.3-0.5,0.4c-0.2,0.1-0.4,0-0.6,0
									C40.6,61.5,39.8,61.4,39.1,61.1z"/>
							</g>
						</g>
						<g>
							<g>
								<path class="st3" d="M103.1,58.3c-0.2,0-1.1-1.4-1.1-1.6c0-1.1,2.2,0.6,2.1,0.8C103.9,57.8,103.7,58.1,103.1,58.3z"/>
								<path class="st3" d="M104.9,57c-0.1,0-0.6-1.5-0.6-1.7c0-0.1-0.1-0.2,0-0.2c0.2-0.8,2.1,1.1,1.8,1.3
									C105.7,56.7,105.5,57,104.9,57z"/>
								<path class="st3" d="M107,56.3L107,56.3c0-0.1,0-0.2,0-0.3c0.1-0.5,0.2-1.1,0.3-1.6c0.1-0.6,0.8,0.4,0.8,0.6
									c0.1,0.4,0.2,0.9,0.1,1.4C108.3,56.6,107.2,56.6,107,56.3z"/>
								<path class="st3" d="M109.2,56.9L109.2,56.9c0-0.1,0-0.2,0.1-0.2c0.3-0.5,0.5-1,0.8-1.5c0.3-0.6,0.6,0.5,0.7,0.8
									c0,0.5-0.1,0.9-0.3,1.4C110.3,57.5,109.2,57.2,109.2,56.9z"/>
								<g>
									<path class="st3" d="M111.8,58.8C111.8,58.8,111.8,58.9,111.8,58.8c0.1,0,0.1,0,0.2,0c0.3-0.3,0.3-0.7,0.4-1
										c0.2-0.4,0.2-0.7,0.2-1.1c0,0,0,0,0-0.1h-0.1c-0.4,0.1-0.7,0.4-1,0.7c-0.2,0.2-0.6,0.4-0.7,0.7
										C110.7,58.4,111.5,58.6,111.8,58.8C111.7,58.8,111.7,58.8,111.8,58.8z"/>
								</g>
							</g>
							<g>
								<path class="st4" d="M111.2,156.8c-0.4,3.8-1.6,20.5-1.9,22.3c0,0.3-0.1,0.6-0.3,0.8c-0.3,0.5-0.9,0.6-1.4,0.6
									c-1.7,0.1-3.5-0.3-5.2-0.5c-2.1-0.3-4.3-0.2-6.5-0.1c-0.5-3.9-0.3-7.9-0.3-11.8c-0.1-3.6,0.2-7.1,0.3-10.7
									c0.3-11.5,1-23,1.7-34.5c1.1-18.3,2.2-36.6,3.2-55c0.1-0.9,0.1-1.8,0.2-2.7c0.1-2.1,0.3-4.4,1.4-6.2
									c0.8-1.3,2.1-2.4,3.6-2.6c2.7-0.5,5.2,1.6,6.7,3.9c2.8,4.5,2.5,9.9,2.7,14.9c0.2,5.8-0.4,11.7-0.7,17.6
									C114.7,101.5,112.6,144.3,111.2,156.8z"/>
							</g>
							<g>
								<path class="st1" d="M105.1,62.4c0,0.1,0,0.2,0,0.2c0.4,1.5,2,2.5,3.6,2.2c1.6-0.4,2.6-2.2,2.2-3.8
									c-0.1-0.4-0.4-0.8-0.7-1.1c-0.6-0.5-1.4-0.6-2.1-0.7c-0.6,0-1.2,0-1.7,0.2C105.4,59.9,104.9,61.3,105.1,62.4z"/>
							</g>
						</g>
						<g>
							<path class="st4" d="M45.2,126C45.2,126.1,45.2,126.1,45.2,126c-0.2,0.2-0.3,0.3-0.3,0.5c-3.6,16.8-8.4,33.1-14.3,49.3
								c-0.3,0.8-0.9,1.5-0.1,2.1c0.8,0.7,3.4,0.7,4.5,0.8c3.6,0.5,7.2,0.9,10.9,1.1c9.9,0.6,19.7,0.2,29.6-0.1s19.7,0.2,29.6,0.7
								c0.3,0,0.6,0,0.8-0.1c0.5-0.3,0.5-1.1,0.4-1.7c-0.5-2.8-1.4-5.9-1.4-8.7c-0.5-3.6-1-7.2-1.4-10.8
								c-1.4-10.9-2.4-22.2-6.4-32.6c-0.7-1.8-2.2-2-4.2-2.2c-15.8-1.2-31.4,0.3-47.2,1.6C45.5,126,45.4,126,45.2,126z"/>
						</g>
						<g>
							<path class="st3" d="M57.7,146.2c1.8,3.7,3.6,7.3,5.3,11.1c1.6,3.6,3.2,7.3,4.5,11.1c0.9,2.6,1.6,5.6,2.3,8.4
								c0.2,1.1,0.2,3.2,1.5,2.4c0.8-0.5,0.9-2.4,1.2-3.1c0.5-1.3,0.9-2.6,1.4-3.9c0.9-2.6,1.8-5.2,2.8-7.8c2-5.2,4.3-10.3,7.2-15.1
								c1.8-3,4.1-5.6,6.2-8.3c1.1-1.4,2.2-2.7,3.2-4c0.5-0.7,1-1.4,1.4-2.2c0.3-0.5,1.1-1.3,0.7-1.9c-0.5-0.8-2.6,0.2-3.2,0.4
								c-4.5,2-8.8,4.5-12.9,7.2c-2.1,1.4-4.1,2.9-6.1,4.5c-1.5,1.2-3.8,3.7-5.9,2.3c-1.7-1.2-3.2-3.3-4.7-4.9
								c-2.6-2.7-5.2-5.5-7.8-8.2c-2-2.1-3.7-5.2-6.5-6.3c-0.1,0,0.2,0.8,0.3,0.9c0.2,0.4,0.5,0.9,0.7,1.3c0.5,0.9,1,1.9,1.5,2.8
								C53.1,137.3,55.5,141.7,57.7,146.2z"/>
						</g>
						<g>
							<g>
								<path class="st4" d="M43.4,121c-0.1-0.3-0.2-0.5-0.3-0.8c-1.1-3.7-0.3-7.5,0-11.2c0.4-3.8,0.6-7.7,0.9-11.5
									c0.7-6.9,1.5-13.7,2.5-20.6c0.3-2.3,0.6-4.6,1.2-6.9c0.6-2.4,1.5-4.2,4.2-4.6c6.2-0.9,12.9-0.7,19.2-0.5
									c6.8,0.2,13.6,0.7,20.4,1.6c1.7,0.2,3.6,0.6,4.7,1.9c0.9,1,1.1,2.5,1.3,3.8c2.2,15.6,2.6,31.5,2.2,47.3
									c-0.1,3.5-0.3,7.3-2.7,9.9c-2.7,3-7.3,3.2-11.3,3.3c-6.5,0.2-13.1,1-19.6,0.5c-6.2-0.5-12.8-2.2-17.8-6
									C46.2,125.5,44.4,123.4,43.4,121z"/>
							</g>
							<g>
								<path class="st4" d="M53.6,66.6c-0.2,0-0.4-0.1-0.6-0.1c-0.3-0.1-0.5-0.4-0.6-0.7c-0.7-1.3-0.2-2.9,0.7-4.1
									c0.9-1.1,2.3-1.8,3.6-2.4c1.1-0.5,2.1-1,3.3-1.1s2.4,0.1,3.3,0.9c0.8,0.7,1.2,1.6,1.5,2.6c0.5,1.6,0.8,3.2,0.9,4.8
									c0,0.2,0,0.4-0.1,0.6s-0.4,0.2-0.6,0.2C64.3,67.2,56.8,67,53.6,66.6z"/>
							</g>
							<g>
								<path class="st4" d="M89,67.4c0.2,0,0.5-0.1,0.6-0.2s0.1-0.3,0.1-0.4c0-1.8-0.9-3.4-1.8-5c-0.5-0.8-0.9-1.6-1.6-2.2
									c-1.1-1-2.7-1.5-4.2-1.4s-3,0.8-4.2,1.8c-0.5,0.4-1,0.9-1.4,1.5c-0.8,1.3-0.6,3-0.4,4.5c0,0.2,0.1,0.4,0.2,0.5
									c0.2,0.2,0.4,0.2,0.7,0.2C80,66.7,87.5,67.5,89,67.4z"/>
							</g>
							<path class="st5" d="M64.4,60.7"/>
							<g>
								<path class="st6" d="M78.9,65.4c-0.2-0.4-0.3-0.9-0.1-1.3c0.1-0.4,0.3-0.7,0.6-1c1-1.2,2.4-2.1,3.9-1.9
									c1.5,0.2,3.1,1.7,3.5,3.8c0,0.1,0,0.2,0,0.3c0,0.3-0.3,0.3-0.6,0.3C83.8,65.8,78.9,65.4,78.9,65.4z"/>
							</g>
							<g>
								<path class="st6" d="M55.1,64.8c-0.2,0-0.4,0-0.6-0.2c0.6-1,1.2-1.9,2-2.7c0.5-0.5,1-1,1.7-1.1c0.6-0.1,1.1,0.2,1.7,0.4
									c0.5,0.2,0.9,0.5,1.4,0.7s1,0.5,1.3,0.9s0.5,1.1,0.3,1.7C62.8,64.6,57.8,65,55.1,64.8z"/>
							</g>
							<path class="st6" d="M62.7,80c0.4,0.1,0.7,0.6,0.6,1c-0.1,0.5-0.5,0.8-1,0.7c-0.4-0.1-0.8-0.5-0.7-0.9
								C61.7,80.3,62.3,79.9,62.7,80z"/>
							<path class="st6" d="M82.8,79.5c0.3-0.3,0.8-0.3,1.2,0c0.4,0.3,0.4,0.8,0.1,1.2c-0.3,0.3-0.8,0.5-1.2,0.2
								C82.5,80.5,82.5,79.9,82.8,79.5z"/>
							<g>
								<g>
									<path class="st3" d="M63.8,103c0.1,1.1,0.4,2.1,1.1,2.8c1.3,1.1,4.6,1.1,6.2,1.3c3.1,0.4,6.2,0.7,9.4,0.7
										c0.3,0,0.7,0,1-0.2c0.2-0.1,0.3-0.4,0.5-0.6c2-4,0.8-9.8,0.5-14c-0.1-1.7-0.2-3.4-1.1-4.8c-1.1-1.5-3-2.1-4.9-2.4
										c-2.2-0.4-4.4-0.4-6.6-0.3c-0.7,0.1-1.4,0.1-2,0.5c-2.1,1.1-2.3,4.4-2.7,6.5c-0.6,2.9-1.1,5.8-1.3,8.8
										C63.8,101.7,63.8,102.3,63.8,103z"/>
								</g>
								<g>
									<path class="st6" d="M73,92.2c-0.1,0-0.1,0-0.2,0c-1.5-0.1-3-0.5-4.1-1.5c-0.2-0.2-0.4-0.4-0.3-0.7c0-0.9,1.7-1,2.3-1.1
										c1.1-0.2,2.1-0.4,3.2-0.6s2.2-0.4,3.3-0.2c1.2,0.3,3.1,1.8,2.1,3.2C78.9,92,78,92,77.2,92C75.8,92,74.4,92.3,73,92.2z"/>
								</g>
								<g>
									<g>
										<path class="st6" d="M75.1,106.1c0.8-0.3,1.6-0.4,2.4-0.4c0.9,0,1.6-0.7,1.6-1.6s-0.7-1.6-1.6-1.6c-1.1,0-2.2,0.2-3.3,0.5
											c-0.8,0.3-1.3,1.1-1.1,1.9C73.4,105.7,74.3,106.4,75.1,106.1L75.1,106.1z"/>
									</g>
								</g>
							</g>
						</g>
					</g>
				</g>
			</g>
		</g>
	</g>
</g>
</svg>
