<?xml version="1.0" encoding="utf-8"?>
<!-- Generator: Adobe Illustrator 25.0.1, SVG Export Plug-In . SVG Version: 6.00 Build 0)  -->
<svg version="1.1" id="圖層_1" xmlns="http://www.w3.org/2000/svg" xmlns:xlink="http://www.w3.org/1999/xlink" x="0px" y="0px"
	 viewBox="0 0 240 240" style="enable-background:new 0 0 240 240;" xml:space="preserve">
<style type="text/css">
	.st0{fill:#E4D3C1;}
	.st1{fill:#99B5D1;}
	.st2{fill:#FFFFFF;}
	.st3{fill:#D1374E;}
	.st4{fill:#565656;}
	.st5{fill:none;stroke:#565656;stroke-width:0.145;stroke-miterlimit:10;}
	.st6{fill:#333333;}
</style>
<g>
	<g>
		<g>
			<circle class="st0" cx="120" cy="120" r="120"/>
		</g>
	</g>
</g>
<g>
	<g>
		<g>
			<g>
				<g>
					<polygon class="st1" points="-41.5,74.6 -44.7,69 -41.5,63.4 -38.3,69 					"/>
					
						<rect x="-42.1" y="36.5" transform="matrix(-1.836970e-16 1 -1 -1.836970e-16 27.4837 110.5273)" class="st1" width="1.2" height="64.9"/>
				</g>
				<g>
					<polygon class="st1" points="23,74.6 19.8,69 23,63.4 26.2,69 					"/>
					
						<rect x="22.4" y="36.5" transform="matrix(-1.836970e-16 1 -1 -1.836970e-16 92.0107 46.0003)" class="st1" width="1.2" height="64.9"/>
				</g>
				<g>
					<polygon class="st1" points="87.5,74.6 84.3,69 87.5,63.4 90.7,69 					"/>
					
						<rect x="87" y="36.5" transform="matrix(-1.836970e-16 1 -1 -1.836970e-16 156.5378 -18.5268)" class="st1" width="1.2" height="64.9"/>
				</g>
				<g>
					<polygon class="st1" points="152.1,74.6 148.9,69 152.1,63.4 155.3,69 					"/>
					
						<rect x="151.5" y="36.5" transform="matrix(-1.836970e-16 1 -1 -1.836970e-16 221.0648 -83.0538)" class="st1" width="1.2" height="64.9"/>
				</g>
				<g>
					<polygon class="st1" points="216.6,74.6 213.4,69 216.6,63.4 219.8,69 					"/>
					
						<rect x="216" y="36.5" transform="matrix(-1.836970e-16 1 -1 -1.836970e-16 285.5918 -147.5809)" class="st1" width="1.2" height="64.9"/>
				</g>
			</g>
		</g>
		<g>
			<g>
				<g>
					<polygon class="st1" points="281.5,74.6 278.3,69 281.5,63.4 284.7,69 					"/>
					
						<rect x="280.9" y="36.5" transform="matrix(-1.836970e-16 1 -1 -1.836970e-16 350.5273 -212.5163)" class="st1" width="1.2" height="64.9"/>
				</g>
			</g>
		</g>
	</g>
	<g>
		<g>
			<g>
				<path class="st2" d="M138.9,180c4.5,0.1,9,0.1,13.4,0.2c0.1,0,0.2,0,0.3,0c4.5,0.1,9,0.2,13.5,0.3c13.5,0.3,27.1,0.5,40.6,0.7
					c0.1,0,0.1,0,0.2,0c0.8,0,1.6,0,2.3-0.4c1.4-0.8,1.6-2.9,1.5-4.7c-1.2-37.9-1.1-75.9,0.3-113.9c0.1-1.6,0-3.5-1.3-4.4
					c-0.6-0.4-1.3-0.5-2-0.6c-5.4-0.7-10.8-1.1-16.2-1.1c-2.8,0-5.6,0-8.3,0.1c-1.2,0.1-5.8-0.5-5.7,1.3c0.5,6.5,0.6,13,0.4,19.5
					c0,0.7-0.1,1.5-0.6,1.9c-0.5,0.5-1.2,0.5-1.8,0.5c-2.8,0.1-5.5,0.3-8.3,0.3c-1.9,0-3.9,0.8-4.5-1.2c-0.7-2.3-0.2-5.6-0.2-8
					c0-3.3,0-6.7-0.2-10c0-0.7-0.1-1.4-0.6-1.8c-0.3-0.4-0.8-0.5-1.3-0.6c-7.2-1.4-15.4-0.9-22.6-0.4c-4.8,0.3-9.8-0.9-10.9,5.5
					c-1,5.7-0.8,11.5-0.7,17.2c0,13.5,0.4,26.9,0.3,40.4c-0.1,13.5-1.9,54.6-1.7,57.4c0,0.4,0.1,0.8,0.4,1.1c0.3,0.3,0.7,0.3,1,0.4
					C130.4,180.3,134.6,179.9,138.9,180z"/>
			</g>
			<g>
				<path class="st3" d="M137.8,57.8c0-0.1,0.1-0.1,0.1-0.1c0.2-0.2,1.4-0.1,1.7-0.1c1,0,1.9-0.1,2.9-0.1c0.7,0,8.1-0.4,8.1-0.2
					c0.2,41-0.3,82-1.4,122.9c-4.3,0-8.6-0.1-12.9-0.1c0.1-9,0.2-18,0.3-27.1c0.1-9,0.2-18,0.3-27.1c0.1-9,0.2-18,0.3-27.1
					c0.1-9,0.2-18,0.3-27.1C137.4,69.3,137.3,58.6,137.8,57.8z"/>
			</g>
			<g>
				<path class="st3" d="M164.6,171.2c0-3.5,0-7-0.1-10.6c0-6.6-0.1-13.3-0.1-19.9c0-6.6-0.1-13.2-0.1-19.9c0-6.6-0.1-13.3-0.1-19.9
					c0-3.4,0-6.7-0.1-10.1c0-3.3-0.2-6.6-0.1-9.9c0-0.3,0.1-0.6,0.3-0.9c0-0.1,0.1-0.1,0.2-0.2c0.1,0,0.1,0,0.2,0
					c2.2-0.1,4.4-0.2,6.6-0.3c0.5,0,0.9-0.1,1.4-0.1c0.5,0,0.9-0.1,1.4-0.2c0.4,0,0.9-0.1,1.3-0.1c0.1,0,0.3,0,0.4,0
					c0.1,0,0.2,0,0.4,0c0,0,0.1,0,0.1,0c0,0,0.1,0.1,0.1,0.1c0,0.1,0,0.3,0,0.4c0,0.2,0,0.3,0,0.5c0,0.2,0,0.4,0,0.6
					c0,0.4,0,0.8,0,1.2c0,0.8,0,1.6,0,2.4c0,0.1,0,0.2,0,0.2c0,1.7,0,3.4,0,5c0,1.7,0,3.3,0,5c0,1.7,0,3.3,0,5c0,1.7,0,3.3,0,5
					c0,1.7,0,3.3,0,5c0,1.6,0,3.3,0,4.9c0,1.6,0,3.3,0,4.9c0,1.6,0,3.3,0.1,4.9c0,1.6,0,3.3,0.1,4.9c0,1.6,0,3.3,0.1,4.9
					c0,1.6,0,3.3,0.1,4.9c0,1.6,0,3.3,0,4.9c0,1.6,0,3.3,0,4.9c0,1.6,0,3.3,0,4.9c0,1.7,0,3.3,0,5c0,1.7,0,3.3,0,5c0,1.7,0,3.3,0,5
					c0,2.9-0.1,11.9-0.1,11.9s-5,0-7.2-0.1c-0.7,0-3.3,0.1-5-0.1C164.4,180.6,164.6,172.9,164.6,171.2z"/>
			</g>
			<g>
				<path class="st3" d="M189.5,56c2.9-0.3,11.5,0.4,11.5,0.4s0.4,46.9-0.1,55.5c-0.3,4.3-0.4,22.3-0.4,26.7
					c0.1,7.1-0.8,35.5-0.2,42.6c0-0.1-11.2,0-11.5-0.3c-0.3-0.3-1.3-81.1,0.7-123.5L189.5,56z"/>
			</g>
		</g>
		<g>
			<path class="st2" d="M44.4,55.7c0.2,0,1.1-1.4,1.1-1.6c0-1.1-2.2,0.5-2.1,0.8C43.6,55.3,43.8,55.6,44.4,55.7z"/>
			<path class="st2" d="M42.8,54.2c0.1,0,0.6-1.5,0.7-1.7c0-0.1,0.1-0.2,0-0.2c-0.2-0.8-2.1,1.1-1.9,1.3
				C42,53.9,42.2,54.2,42.8,54.2z"/>
			<path class="st2" d="M40.7,53.5C40.7,53.5,40.7,53.5,40.7,53.5c0-0.1,0-0.2,0-0.3c-0.1-0.5-0.2-1.1-0.3-1.6
				c-0.1-0.6-0.8,0.4-0.8,0.6c-0.1,0.4-0.2,0.9-0.1,1.4C39.4,53.7,40.6,53.7,40.7,53.5z"/>
			<path class="st2" d="M38.5,54.1C38.5,54.1,38.5,54,38.5,54.1c0-0.1,0-0.2-0.1-0.2c-0.2-0.5-0.5-1-0.7-1.5
				c-0.3-0.6-0.7,0.5-0.7,0.7c0,0.5,0.1,0.9,0.2,1.4C37.4,54.7,38.5,54.4,38.5,54.1z"/>
			<g>
				<path class="st2" d="M35.9,56C35.9,56,35.9,56,35.9,56c-0.1,0-0.1,0-0.2,0c-0.3-0.3-0.3-0.7-0.4-1c-0.2-0.4-0.2-0.8-0.2-1.1
					c0,0,0,0,0-0.1c0,0,0.1,0,0.1,0c0.4,0.1,0.7,0.4,1,0.7c0.2,0.2,0.6,0.4,0.7,0.7C37,55.5,36.2,55.8,35.9,56
					C35.9,55.9,35.9,56,35.9,56z"/>
			</g>
			<g>
				<path class="st4" d="M30,167.5c0.1-3.2,0.1-6.5,0.1-9.7c0-26.5-2.2-53.6,0.9-80c0.5-4,1.1-8,1.8-11.9c1-5,2.7-13.3,7.6-12.8
					c6.9,0.7,6.1,13.2,5.9,17.8c-0.9,27.1-0.1,54.1,0.8,81.2c0.3,7.6,0.5,15.2,0.8,22.8c0,1.1,0.1,2.2-0.3,3.2
					c-0.8,2-3.3,2.3-5.2,2.1c-2.5-0.2-5.1-0.5-7.6-0.9c-1.9-0.3-4.2-0.2-4.8-2.4c-0.2-0.8-0.2-1.7-0.2-2.5
					C29.9,172.1,30,169.8,30,167.5z"/>
			</g>
			<g>
				<defs>
					<path id="SVGID_1_" d="M30,167.5c0.1-3.2,0.1-6.5,0.1-9.7c0-26.5-2.2-53.6,0.9-80c0.5-4,1.1-8,1.8-11.9c1-5,2.7-13.3,7.6-12.8
						c6.9,0.7,6.1,13.2,5.9,17.8c-0.9,27.1-0.1,54.1,0.8,81.2c0.3,7.6,0.5,15.2,0.8,22.8c0,1.1,0.1,2.2-0.3,3.2
						c-0.8,2-3.3,2.3-5.2,2.1c-2.5-0.2-5.1-0.5-7.6-0.9c-1.9-0.3-4.2-0.2-4.8-2.4c-0.2-0.8-0.2-1.7-0.2-2.5
						C29.9,172.1,30,169.8,30,167.5z"/>
				</defs>
				<clipPath id="SVGID_2_">
					<use xlink:href="#SVGID_1_"  style="overflow:visible;"/>
				</clipPath>
			</g>
			<g>
				<path class="st2" d="M38.8,61.1c-0.2-0.1-0.5-0.2-0.7-0.4c-0.7-0.6-1.2-1.6-0.9-2.5c0.2-0.5,0.6-0.9,1-1.1
					c1.7-1,4.2,0.1,4.9,2.1c0.2,0.6-0.6,1.6-0.9,2c-0.2,0.2-0.3,0.3-0.5,0.4c-0.2,0.1-0.4,0-0.6,0C40.3,61.5,39.5,61.4,38.8,61.1z"
					/>
			</g>
			<g>
				<path class="st2" d="M103.2,58.3c-0.2,0-1.1-1.5-1.1-1.7c0-1.1,2.2,0.6,2.1,0.8C104,57.9,103.8,58.2,103.2,58.3z"/>
				<path class="st2" d="M105,57c-0.1,0-0.6-1.5-0.6-1.7c0-0.1-0.1-0.2,0-0.2c0.2-0.8,2.1,1.1,1.8,1.3C105.8,56.7,105.6,57,105,57z"
					/>
				<path class="st2" d="M107.1,56.3C107.1,56.3,107.1,56.3,107.1,56.3c0-0.1,0-0.2,0-0.3c0.1-0.5,0.2-1.1,0.3-1.6
					c0.1-0.6,0.8,0.4,0.8,0.6c0.1,0.4,0.2,0.9,0.1,1.4C108.4,56.6,107.3,56.6,107.1,56.3z"/>
				<path class="st2" d="M109.3,56.9C109.3,56.9,109.3,56.9,109.3,56.9c0-0.1,0-0.2,0.1-0.2c0.3-0.5,0.5-1,0.8-1.5
					c0.3-0.6,0.7,0.5,0.7,0.8c0,0.5-0.1,0.9-0.3,1.4C110.4,57.5,109.3,57.2,109.3,56.9z"/>
				<g>
					<path class="st2" d="M111.9,58.8C111.9,58.9,111.9,58.9,111.9,58.8c0.1,0,0.1,0,0.2,0c0.3-0.3,0.3-0.7,0.4-1
						c0.2-0.4,0.2-0.8,0.2-1.1c0,0,0,0,0-0.1c0,0-0.1,0-0.1,0c-0.4,0.1-0.7,0.4-1,0.7c-0.2,0.2-0.6,0.4-0.7,0.7
						C110.8,58.4,111.6,58.6,111.9,58.8C111.8,58.8,111.9,58.8,111.9,58.8z"/>
				</g>
				<g>
					<path class="st4" d="M111.3,157.4c-0.4,3.8-1.6,20.6-1.9,22.4c0,0.3-0.1,0.6-0.3,0.8c-0.3,0.5-0.9,0.6-1.4,0.6
						c-1.8,0.1-3.5-0.3-5.2-0.5c-2.1-0.3-4.3-0.2-6.5-0.1c-0.5-3.9-0.3-7.9-0.3-11.8c-0.1-3.6,0.2-7.2,0.3-10.7
						c0.3-11.6,1-23.1,1.7-34.7c1.1-18.4,2.2-36.8,3.3-55.3c0.1-0.9,0.1-1.8,0.2-2.8c0.1-2.1,0.3-4.4,1.4-6.2
						c0.8-1.3,2.1-2.4,3.7-2.6c2.7-0.5,5.3,1.6,6.7,3.9c2.8,4.5,2.5,9.9,2.7,15c0.2,5.9-0.4,11.8-0.7,17.7
						C114.9,101.8,112.8,144.7,111.3,157.4z"/>
				</g>
				<g>
					<defs>
						<path id="SVGID_3_" d="M111.3,157.4c-0.4,3.8-1.6,20.6-1.9,22.4c0,0.3-0.1,0.6-0.3,0.8c-0.3,0.5-0.9,0.6-1.4,0.6
							c-1.8,0.1-3.5-0.3-5.2-0.5c-2.1-0.3-4.3-0.2-6.5-0.1c-0.5-3.9-0.3-7.9-0.3-11.8c-0.1-3.6,0.2-7.2,0.3-10.7
							c0.3-11.6,1-23.1,1.7-34.7c1.1-18.4,2.2-36.8,3.3-55.3c0.1-0.9,0.1-1.8,0.2-2.8c0.1-2.1,0.3-4.4,1.4-6.2
							c0.8-1.3,2.1-2.4,3.7-2.6c2.7-0.5,5.3,1.6,6.7,3.9c2.8,4.5,2.5,9.9,2.7,15c0.2,5.9-0.4,11.8-0.7,17.7
							C114.9,101.8,112.8,144.7,111.3,157.4z"/>
					</defs>
					<clipPath id="SVGID_4_">
						<use xlink:href="#SVGID_3_"  style="overflow:visible;"/>
					</clipPath>
				</g>
				<g>
					<path class="st2" d="M105.2,62.4c0,0.1,0,0.2,0,0.2c0.4,1.5,2.1,2.6,3.6,2.2c1.6-0.4,2.7-2.3,2.2-3.8c-0.1-0.4-0.4-0.8-0.7-1.1
						c-0.6-0.5-1.4-0.6-2.1-0.7c-0.6,0-1.2,0-1.7,0.2C105.4,59.9,105,61.4,105.2,62.4z"/>
				</g>
			</g>
			<g>
				<path class="st4" d="M45,126.4C45,126.4,45,126.4,45,126.4c-0.2,0.2-0.3,0.3-0.3,0.5c-3.7,16.8-8.4,33.2-14.4,49.5
					c-0.3,0.8-0.9,1.5-0.1,2.1c0.8,0.7,3.4,0.7,4.5,0.8c3.6,0.5,7.3,0.9,11,1.1c9.9,0.6,19.8,0.2,29.8-0.1c10-0.3,19.8,0.2,29.8,0.7
					c0.3,0,0.6,0,0.8-0.1c0.5-0.3,0.5-1.1,0.4-1.7c-0.5-2.8-1.4-5.9-1.4-8.8c-0.5-3.6-1-7.3-1.4-10.9c-1.4-10.9-2.4-22.3-6.4-32.8
					c-0.7-1.8-2.2-2-4.2-2.2c-15.9-1.2-31.6,0.3-47.4,1.6C45.3,126.3,45.2,126.3,45,126.4z"/>
			</g>
			<g>
				<path class="st2" d="M57.5,146.6c1.8,3.7,3.6,7.4,5.3,11.1c1.7,3.7,3.2,7.4,4.5,11.2c0.9,2.6,1.6,5.6,2.3,8.4
					c0.2,1.1,0.2,3.3,1.6,2.4c0.8-0.5,0.9-2.4,1.2-3.2c0.5-1.3,0.9-2.6,1.4-3.9c0.9-2.6,1.8-5.2,2.8-7.8c2-5.2,4.3-10.4,7.2-15.2
					c1.8-3,4.1-5.6,6.2-8.4c1.1-1.4,2.2-2.7,3.3-4.1c0.5-0.7,1-1.4,1.5-2.2c0.3-0.5,1.1-1.3,0.7-1.9c-0.5-0.8-2.6,0.2-3.3,0.4
					c-4.5,2.1-8.8,4.5-12.9,7.3c-2.1,1.4-4.1,2.9-6.1,4.5c-1.5,1.2-3.8,3.8-5.9,2.3c-1.7-1.2-3.2-3.3-4.7-4.9
					c-2.6-2.7-5.2-5.5-7.8-8.3c-2-2.1-3.8-5.2-6.5-6.3c-0.1,0,0.2,0.8,0.3,0.9c0.2,0.4,0.5,0.9,0.7,1.3c0.5,0.9,1,1.9,1.5,2.8
					C53,137.7,55.3,142.1,57.5,146.6z"/>
			</g>
			<g>
				<g>
					<path class="st4" d="M43.2,121.3c-0.1-0.3-0.2-0.5-0.3-0.8c-1.1-3.7-0.3-7.6,0-11.3c0.4-3.8,0.6-7.7,0.9-11.6
						c0.7-6.9,1.5-13.8,2.5-20.7c0.3-2.3,0.6-4.7,1.2-6.9c0.6-2.4,1.5-4.2,4.2-4.6c6.3-0.9,13-0.7,19.3-0.5
						c6.9,0.2,13.7,0.7,20.5,1.6c1.7,0.2,3.6,0.6,4.7,1.9c0.9,1,1.1,2.5,1.3,3.8c2.2,15.7,2.6,31.6,2.2,47.5
						c-0.1,3.5-0.3,7.4-2.7,9.9c-2.8,3-7.3,3.2-11.4,3.3c-6.6,0.2-13.1,1-19.7,0.5c-6.3-0.5-12.8-2.2-17.9-6
						C46,125.9,44.2,123.8,43.2,121.3z"/>
				</g>
				<g>
					<path class="st4" d="M53.4,66.6c-0.2,0-0.4-0.1-0.6-0.1c-0.3-0.1-0.5-0.4-0.6-0.7c-0.7-1.3-0.2-3,0.7-4.1s2.3-1.8,3.6-2.4
						c1.1-0.5,2.2-1,3.3-1.1c1.2-0.1,2.4,0.1,3.3,0.9c0.8,0.7,1.2,1.6,1.5,2.6c0.5,1.6,0.8,3.2,0.9,4.8c0,0.2,0,0.4-0.1,0.6
						c-0.1,0.2-0.4,0.2-0.6,0.2C64.2,67.3,56.6,67.1,53.4,66.6z"/>
				</g>
				<g>
					<path class="st4" d="M89,67.5c0.2,0,0.5-0.1,0.6-0.2c0.1-0.1,0.1-0.3,0.1-0.4c0-1.8-0.9-3.4-1.8-5c-0.5-0.8-0.9-1.6-1.6-2.2
						c-1.1-1.1-2.7-1.5-4.3-1.4c-1.5,0.1-3,0.8-4.2,1.8c-0.5,0.4-1,0.9-1.4,1.5c-0.8,1.4-0.6,3-0.4,4.6c0,0.2,0.1,0.4,0.2,0.5
						c0.2,0.2,0.4,0.2,0.7,0.2C79.9,66.8,87.5,67.6,89,67.5z"/>
				</g>
				<path class="st5" d="M64.3,60.7"/>
				<g>
					<path class="st6" d="M78.9,65.5c-0.2-0.4-0.3-0.9-0.1-1.3c0.1-0.4,0.3-0.7,0.6-1c1-1.2,2.4-2.1,3.9-1.9s3.1,1.7,3.5,3.8
						c0,0.1,0,0.2,0,0.3c0,0.3-0.3,0.3-0.6,0.3C83.8,65.8,78.9,65.5,78.9,65.5z"/>
				</g>
				<g>
					<path class="st6" d="M55,64.9c-0.2,0-0.4,0-0.6-0.2c0.6-1,1.2-1.9,2-2.7c0.5-0.5,1.1-1,1.7-1.1c0.6-0.1,1.1,0.2,1.7,0.4
						c0.5,0.2,0.9,0.5,1.4,0.7c0.5,0.2,1,0.5,1.3,0.9c0.3,0.4,0.5,1.1,0.3,1.7C62.7,64.7,57.6,65,55,64.9z"/>
				</g>
				<path class="st6" d="M62.6,80.2c0.4,0.1,0.7,0.6,0.6,1c-0.1,0.5-0.6,0.8-1,0.7c-0.4-0.1-0.8-0.5-0.7-0.9
					C61.6,80.4,62.1,80.1,62.6,80.2z"/>
				<path class="st6" d="M82.7,79.7c0.3-0.3,0.8-0.3,1.2,0c0.4,0.3,0.4,0.8,0.1,1.2c-0.3,0.3-0.8,0.5-1.2,0.2
					C82.5,80.7,82.4,80,82.7,79.7z"/>
				<g>
					<g>
						<path class="st2" d="M63.7,103.2c0.1,1.1,0.4,2.1,1.1,2.8c1.3,1.2,4.6,1.1,6.3,1.3c3.1,0.4,6.3,0.7,9.4,0.7c0.3,0,0.7,0,1-0.2
							c0.2-0.1,0.3-0.4,0.5-0.6c2-4,0.8-9.8,0.5-14.1c-0.1-1.7-0.2-3.4-1.1-4.8c-1.1-1.5-3.1-2.1-4.9-2.4c-2.2-0.4-4.4-0.4-6.6-0.3
							c-0.7,0.1-1.4,0.1-2,0.5c-2.1,1.1-2.3,4.4-2.7,6.5c-0.6,2.9-1.1,5.9-1.3,8.8C63.7,102,63.6,102.6,63.7,103.2z"/>
					</g>
					<g>
						<path class="st6" d="M72.9,92.4c-0.1,0-0.2,0-0.2,0c-1.5-0.1-3-0.5-4.1-1.5c-0.2-0.2-0.4-0.4-0.3-0.7c0-0.9,1.8-1,2.4-1.1
							c1.1-0.2,2.1-0.4,3.2-0.6c1.1-0.2,2.2-0.4,3.4-0.2c1.2,0.3,3.1,1.8,2.2,3.2c-0.5,0.7-1.4,0.7-2.2,0.7
							C75.7,92.2,74.3,92.5,72.9,92.4z"/>
					</g>
					<g>
						<g>
							<path class="st6" d="M74.7,105.1c0.9-0.3,1.8-0.5,2.8-0.5c0.5,0,0.5-0.7,0-0.7c-1,0-2,0.1-3,0.5c-0.2,0.1-0.3,0.2-0.2,0.4
								C74.3,105.1,74.5,105.2,74.7,105.1L74.7,105.1z"/>
						</g>
					</g>
				</g>
			</g>
		</g>
	</g>
</g>
</svg>
