<?xml version="1.0" encoding="utf-8"?>
<!-- Generator: Adobe Illustrator 23.0.0, SVG Export Plug-In . SVG Version: 6.00 Build 0)  -->
<svg version="1.1" id="圖層_1" xmlns="http://www.w3.org/2000/svg" xmlns:xlink="http://www.w3.org/1999/xlink" x="0px" y="0px"
	 viewBox="0 0 100 100" style="enable-background:new 0 0 100 100;" xml:space="preserve">
<style type="text/css">
	.st0{display:none;}
	.st1{display:inline;}
	.st2{fill:none;stroke:#FFFFFF;stroke-width:0.5;stroke-linecap:round;stroke-linejoin:round;stroke-miterlimit:10;}
	.st3{fill:#FFFFFF;}
	.st4{fill:none;stroke:#FFFFFF;stroke-linecap:round;stroke-linejoin:round;}
</style>
<g class="st0">
	<g class="st1">
		<rect width="100" height="100"/>
	</g>
</g>
<g>
	<g>
		<g>
			<path class="st2" d="M46,47.8c-1,1.5-1.9,3-3,4.4c-1,1.3-2.1,2.5-3.3,3.7c-0.9,0.9-1.9,1.7-2.9,2.5"/>
			<path class="st2" d="M47.5,49.3c-0.3,0.3-0.6,0.8-0.8,1.2c-0.3,0.4-0.6,0.9-0.9,1.3c-0.6,0.9-1.3,1.7-2,2.5
				c-1.4,1.6-2.8,3.1-4.3,4.6"/>
			<path class="st2" d="M40.8,60.2c4.2-3.9,6-5.6,9.8-12.1"/>
			<path class="st2" d="M50.6,52.2c-1.5,2.8-2.8,3.8-5.3,6.4"/>
			<path class="st2" d="M51.7,54.1c-0.7,1.5-2.7,3.4-5.2,5.8"/>
			<path class="st2" d="M53.3,55.7c-1.7,1.9-3.2,3.7-5.1,5.3"/>
			<path class="st2" d="M54.7,56.7c-1.3,1.9-2.9,3.8-4.6,5.1"/>
			<path class="st2" d="M56.3,57.9c-1.6,2.1-2.4,3.2-4.3,4.9"/>
			<path class="st2" d="M60.2,60.2c-0.9,1.4-2,2.6-3.2,3.8"/>
			<path class="st2" d="M62.4,61c-0.8,1.1-2.7,3.4-2.7,3.4"/>
			<path class="st2" d="M64.2,61.8c-0.4,0.9-1.8,2.4-2.1,2.8"/>
			<path class="st2" d="M66.1,62.5c-0.5,0.8-1.8,2.1-2,2.2"/>
			<path class="st2" d="M58.4,59.1c-0.8,1.3-2,2.6-3.8,4.3"/>
		</g>
		<g>
			<g>
				<g>
					<path class="st3" d="M76.5,65.1c-2.9-0.5-5.9-0.9-8.9-1.7c-2.9-0.8-5.8-1.8-8.5-3.2c-1.4-0.7-2.7-1.5-3.9-2.4
						c-1.2-0.9-2.4-1.9-3.5-3c-0.5-0.6-1.1-1.2-1.5-1.9c-0.2-0.4-0.4-0.8-0.4-1.3c-0.1-0.5,0-1,0.2-1.4c0.3-0.9,0.9-1.5,1.5-2
						c0.6-0.5,1.1-1,1.6-1.6c2.2-2,4.1-4.3,6-6.6c1.9-2.3,4-4.5,6-6.7c4-4.4,8-8.9,12-13.3l0.8,0.8c-4.4,3.9-8.5,8.1-12.3,12.6
						c-0.9,1.1-1.9,2.3-2.8,3.4c-0.9,1.2-1.8,2.4-2.8,3.5c-2,2.2-4.1,4.4-6.5,6.2L51.7,48c-0.6,0.4-1.1,0.9-1.8,1.4
						c-0.3,0.2-0.7,0.4-1.2,0.5c-0.5,0.1-1,0-1.4-0.2c-0.9-0.4-1.4-1.3-1.7-2c-1.1-2.8-1.8-5.8-2-8.8c-0.4-6,1-12.1,4.2-17.3
						c0.2-0.3,0.5-0.3,0.8-0.2c0.2,0.1,0.2,0.3,0.3,0.4c0.2,2.9-0.2,5.8-0.8,8.6c-0.6,2.8-1.3,5.5-1.8,8.3c-0.5,2.8-0.8,5.7-1.8,8.4
						c-1,2.8-2.9,5.2-5.1,7c-2.3,1.8-5,3.1-7.7,3.9c-2.8,0.8-5.7,1.1-8.5,1.3c-2.9,0.1-5.7,0.1-8.5,0.1l-2.1,0c-0.7,0-1.4,0-2.2-0.1
						l-0.1,0c0,0,0,0-0.1,0c0,0-0.1,0-0.2-0.2c-0.2-0.2-0.1-0.8,0.1-0.7c0.1-0.1,0.1-0.1,0.2-0.1l0.1,0l0.3-0.1
						c0.2-0.1,0.4-0.1,0.5-0.2c0.4-0.1,0.7-0.2,1.1-0.3c0.7-0.2,1.4-0.3,2.2-0.4c1.4-0.2,2.9-0.2,4.3-0.1c1.4,0,2.8,0.2,4.3,0.3
						c2.8,0.2,5.6,0.1,8.5,0.1c1.4,0,2.9,0,4.3,0.2c0.7,0.1,1.4,0.2,2.1,0.4c0.7,0.1,1.5,0.4,2.1,0.9c0.7,0.4,1.2,1,1.6,1.7
						c0.4,0.7,0.6,1.4,0.7,2.2c0.3,1.5,0.2,3-0.1,4.4c-0.6,2.9-2,5.5-3.3,8c-0.7,1.2-1.2,2.6-2.2,3.8c-0.3,0.3-0.5,0.6-0.8,0.8
						c-0.2,0.1-0.4,0.3-0.7,0.3c-0.3,0.1-0.7,0-0.9-0.3c-0.5-0.5-0.4-1-0.3-1.5c0.1-0.4,0.2-0.8,0.3-1.1c2.2-5.3,4.6-10.4,7.5-15.4
						c0.4-0.7,0.9-1.5,1.4-2.1c0.3-0.3,0.5-0.7,0.8-1c0.2-0.2,0.3-0.4,0.7-0.5c0.4-0.1,0.8,0.2,0.9,0.3c1.2,1.1,2.6,2.1,4.1,2.9
						c1.5,0.8,3,1.4,4.7,1.9c1.6,0.4,3.3,0.7,5,0.9c3.4,0.4,6.7,0.7,10.1,1c1.7,0.1,3.4,0.2,5.1,0.2c0.8,0,1.7,0,2.5,0l1.3,0
						c0.2,0,0.4,0,0.7,0c0.3,0,0.6-0.2,0.8-0.3c-0.2,0.1-0.4,0.2-0.6,0.2c-0.2,0.1-0.5,0.1-0.6,0.1l-1,0.1c-0.7,0-1.3,0.1-2,0.1
						c-1.3,0-2.7,0-4,0c-2.7-0.1-5.3-0.3-8-0.5c-2.7-0.2-5.3-0.4-8-0.9c-2.7-0.5-5.2-1.4-7.6-2.8c-0.6-0.3-1.1-0.7-1.7-1.1
						c-0.3-0.2-0.5-0.4-0.8-0.6l-0.4-0.3c-0.1-0.1-0.2-0.2-0.3-0.2c0,0-0.2,0.1-0.4,0.3c-0.2,0.2-0.4,0.5-0.6,0.8
						c-0.4,0.5-0.7,1.1-1.1,1.6c-1.3,2.3-2.6,4.6-3.7,7c-1.2,2.4-2.2,4.8-3.3,7.3c-0.3,0.6-0.5,1.2-0.8,1.8
						c-0.1,0.3-0.2,0.6-0.2,0.8c0,0.3,0.1,0.5,0.1,0.5c0,0,0.1,0,0.4-0.1c0.2-0.1,0.4-0.4,0.6-0.6c0.4-0.5,0.7-1,1-1.6
						c1-2.1,2.2-4.2,3.1-6.3c0.9-2.1,1.5-4.4,1.3-6.6c-0.1-1.1-0.4-2.2-1-3.1c-0.6-0.9-1.5-1.5-2.6-1.7c-2.2-0.5-4.6-0.6-6.9-0.6
						c-2.3,0.1-4.7,0.1-7.1,0c-2.4-0.1-4.7-0.4-7-0.3c-1.2,0-2.3,0.1-3.4,0.3c-0.6,0.1-1.1,0.2-1.7,0.4c-0.3,0.1-0.5,0.2-0.8,0.3
						l-0.2,0.1l-0.1,0c0,0-0.1,0,0,0c0,0,0.1,0,0.2-0.2c0.1-0.1,0-0.7-0.1-0.6c-0.1-0.1-0.1-0.1-0.1-0.1c0,0,0,0,0,0c0,0,0,0,0,0
						l0.1,0l0.2,0c2.3,0.1,4.7,0.1,7,0.1c2.3,0,4.7,0,7-0.2c2.3-0.2,4.6-0.5,6.8-1.2c4.4-1.3,8.5-3.9,10.9-7.8
						c1.2-1.9,1.7-4.2,2.2-6.5c0.4-2.3,0.7-4.7,1.2-7c1-4.6,2.4-9.2,2-13.8l1,0.2c-3,5-4.4,10.9-4,16.7c0.2,2.9,0.8,5.8,1.9,8.4
						c0.3,0.6,0.6,1.2,1.1,1.4c0.5,0.2,1,0.1,1.6-0.3c0.5-0.4,1.1-0.9,1.7-1.4l1.7-1.4c2.3-1.8,4.4-3.9,6.3-6.1
						c1-1.1,1.8-2.2,2.8-3.4c0.9-1.2,1.8-2.3,2.8-3.5c3.8-4.6,8-8.8,12.4-12.8l0,0c0.2-0.2,0.6-0.2,0.8,0c0.2,0.2,0.2,0.6,0,0.8
						c-4.1,4.7-8.3,9.3-12.5,13.9c-2.1,2.3-4.2,4.6-6.2,7c-1,1.2-2,2.4-3.1,3.5c-1.1,1.2-2.2,2.2-3.3,3.4c-0.6,0.6-1.1,1-1.5,1.6
						c-0.2,0.3-0.3,0.6-0.4,0.9c0,0.3,0,0.5,0.1,0.8c0.5,1.2,1.7,2.3,2.8,3.3c2.3,2,4.9,3.7,7.7,4.9c2.8,1.2,5.8,2.1,8.8,2.7
						c1.5,0.3,3,0.5,4.6,0.8l2.3,0.4l1.2,0.2c0.2,0.1,0.3,0,0.8,0.2c0.4,0.1,0.7,0.5,0.9,0.7c-0.2-0.1-0.4-0.3-0.6-0.4
						c-0.2-0.1-0.5-0.1-0.7-0.1c-0.3,0-0.5,0.1-0.8,0.2L76.5,65.1z"/>
				</g>
			</g>
		</g>
	</g>
	<g>
		<g>
			<path class="st4" d="M64.4,58c0.5-1.5,1.2-2.8,1.9-4.1c0.6-1,1.1-2,1.6-3c0.2-0.5,0.4-0.9,0.6-1.4c0.2-0.5,0.5-1,0.5-1.5
				c-0.3,0.2-0.5,0.5-0.6,0.8c-0.4,0.8-0.6,1.7-0.8,2.5c-0.2,1-0.2,2-0.2,3c0,0.6,0,1.2,0.3,1.7c0.3,0.5,0.7,0.8,1.2,1
				c1.5,0.7,3.4,0.3,4.4-0.9"/>
		</g>
		<g>
			<path class="st4" d="M64.1,51.8c2.6-0.4,5.2-0.5,7.8-0.3"/>
		</g>
		<g>
			<path class="st4" d="M75.3,51.7c-0.2,1.4-0.2,2.9-0.2,4.3c0,0,0,0.1,0,0.1c0.1,0.1,0.3,0,0.4-0.1c0.3-0.5,0.5-1,0.7-1.5
				c0.2-0.5,0.5-1,1-1.3c0.1,0.6,0.3,1.2,0.6,1.7c0.4,0.5,1.1,0.8,1.6,0.5c0.3-0.2,0.5-0.5,0.7-0.8c0.2-0.6,0.3-1.2,0.3-1.9"/>
		</g>
		<g>
			<path class="st4" d="M82.9,51c0,1,0.2,2,0.4,2.9"/>
		</g>
		<g>
			<path class="st4" d="M85.5,50.1c0.4,0.8,0.8,1.6,1.2,2.4c0.1-0.5,0.2-1,0.3-1.5c0-0.2,0.1-0.4,0.3-0.5c0.1-0.1,0.3-0.1,0.5,0
				s0.3,0.2,0.4,0.3c0.5,0.5,1,0.9,1.7,1.2"/>
		</g>
		<g>
			<path class="st3" d="M81.8,47.8c-0.2,0.3,0.1,0.8,0.4,0.8c0.4,0.1,0.7-0.2,0.9-0.5c0.1-0.2,0.2-0.5,0-0.7
				c-0.1-0.1-0.2-0.1-0.3-0.2c-0.3-0.1-0.8-0.2-1,0.1c-0.2,0.3,0.1,0.7,0,1.1"/>
			<g>
				<g>
					<path class="st3" d="M81.8,48.4c0-0.3-0.2-0.6-0.1-0.9c0-0.2,0.1-0.3,0.3-0.4c0.2-0.1,0.3-0.1,0.5-0.1c0.2,0,0.3,0.1,0.5,0.2
						c0.2,0.1,0.3,0.2,0.3,0.4c0,0.4-0.2,0.7-0.4,0.9c-0.2,0.2-0.6,0.3-0.9,0.1c-0.3-0.2-0.4-0.5-0.2-0.8c-0.2,0.3,0,0.6,0.3,0.7
						c0.3,0.1,0.6,0,0.8-0.2c0.2-0.2,0.3-0.5,0.3-0.7c0-0.2-0.4-0.3-0.6-0.3c-0.3-0.1-0.5,0-0.6,0.2C81.8,47.8,81.9,48.1,81.8,48.4z
						"/>
				</g>
			</g>
		</g>
	</g>
</g>
</svg>
