<?xml version="1.0" encoding="utf-8"?>
<!-- Generator: Adobe Illustrator 25.0.1, SVG Export Plug-In . SVG Version: 6.00 Build 0)  -->
<svg version="1.1" id="圖層_1" xmlns="http://www.w3.org/2000/svg" xmlns:xlink="http://www.w3.org/1999/xlink" x="0px" y="0px"
	 viewBox="0 0 100 80" style="enable-background:new 0 0 100 80;" xml:space="preserve">
<style type="text/css">
	.st0{fill:#634258;}
</style>
<g>
	<g>
		<path class="st0" d="M1.9,45.5c0,0.1,0,0.2-0.1,0.3s0,0.2-0.1,0.3s-0.2,0.2-0.3,0.2S1,46.4,0.9,46.4c-0.2,0-0.3,0-0.5-0.1
			c-0.1,0-0.3-0.1-0.4-0.2l0.2-0.4c0,0,0.1,0.1,0.2,0.1s0,0.2,0.1,0.2s0.1,0.1,0.2,0.1s0.2,0,0.2,0c0.1,0,0.2,0,0.3,0s0.1,0,0.2-0.1
			c0,0,0,0,0.1-0.1c0,0,0,0,0.1-0.1s0-0.1,0-0.1c0-0.1,0-0.1,0-0.2c0-0.1,0-0.2-0.1-0.2c0-0.1-0.1-0.1-0.2-0.2
			c-0.1,0-0.1-0.1-0.2-0.1s-0.2,0-0.3-0.1s-0.2-0.1-0.3-0.1s-0.2-0.1-0.2-0.2s-0.1-0.2-0.2-0.2C0.1,44.3,0,44.2,0,44
			c0-0.1,0-0.2,0.1-0.3s0.1-0.2,0.2-0.3s0.2-0.1,0.3-0.2c0.1,0,0.3-0.1,0.4-0.1s0.2,0,0.4,0c0.1,0,0.2,0,0.3,0.1l-0.1,0.4
			c-0.1,0-0.2-0.1-0.4-0.1c-0.1,0-0.2,0-0.4,0c-0.1,0-0.2,0-0.2,0s-0.1,0-0.2,0.1l-0.1,0.1c0,0.1,0,0.1,0,0.2c0,0.1,0,0.2,0.1,0.2
			c0,0.1,0.1,0.1,0.2,0.2c0.1,0,0.1,0.1,0.2,0.1s0.2,0.1,0.3,0.1s0.2,0.1,0.3,0.1c0.1,0,0.2,0.1,0.2,0.2s0.1,0.2,0.2,0.3
			S1.9,45.3,1.9,45.5z"/>
		<path class="st0" d="M5.5,45.7c-0.1,0.1-0.1,0.3-0.2,0.4c-0.1,0.1-0.2,0.2-0.4,0.2c-0.2,0.1-0.3,0.1-0.6,0.1c-0.2,0-0.3,0-0.5-0.1
			c-0.1,0-0.3-0.1-0.4-0.2S3.3,46,3.2,45.8c-0.1-0.1-0.1-0.3-0.1-0.5v-2.1h0.4v2.1c0,0.2,0,0.3,0.1,0.4s0.1,0.2,0.1,0.2
			S3.8,46,3.9,46c0.1,0,0.2,0,0.3,0c0.2,0,0.3,0,0.4,0C4.9,46.1,5,46,5,46c0.1-0.1,0.1-0.1,0.1-0.2s0-0.2,0-0.4v-2.1h0.4v2
			C5.6,45.4,5.6,45.6,5.5,45.7z"/>
		<path class="st0" d="M9.5,46.4L7.3,44l0,0c0,0.2,0,0.4,0,0.6c0,0.1,0,0.2,0,0.2c0,0.1,0,0.2,0,0.2c0,0.1,0,0.1,0,0.2v0.1v1.1H7
			v-3.2h0.2l2.2,2.4l0,0c0-0.2,0-0.4,0-0.6c0-0.1,0-0.2,0-0.2c0-0.1,0-0.2,0-0.2s0-0.1,0-0.2s0-0.1,0-0.1v-1h0.3v3.2L9.5,46.4
			L9.5,46.4z"/>
		<path class="st0" d="M15.8,46.4L15.5,44l-1.1,2.4h-0.2L13,44l-0.2,2.4h-0.3l0.3-3.2h0.3l1.3,2.6l1.2-2.6h0.3l0.3,3.2H15.8z"/>
		<path class="st0" d="M20.4,44.8c0,0.2,0,0.5-0.1,0.7S20.1,45.9,20,46s-0.3,0.2-0.5,0.3s-0.4,0.1-0.7,0.1c-0.3,0-0.5,0-0.7-0.1
			s-0.3-0.2-0.5-0.3c-0.1-0.1-0.2-0.3-0.3-0.5c-0.1-0.2-0.1-0.4-0.1-0.7c0-0.2,0-0.5,0.1-0.7s0.1-0.4,0.3-0.5
			c0.1-0.1,0.3-0.2,0.5-0.3s0.4-0.1,0.7-0.1c0.3,0,0.5,0,0.7,0.1s0.3,0.2,0.5,0.3c0.1,0.1,0.2,0.3,0.3,0.5
			C20.4,44.3,20.4,44.5,20.4,44.8z M19.9,44.8c0-0.2,0-0.4-0.1-0.5s-0.1-0.3-0.2-0.4c-0.1-0.1-0.2-0.2-0.3-0.3
			c-0.1-0.1-0.3-0.1-0.5-0.1s-0.3,0-0.5,0.1c-0.1,0-0.2,0.1-0.3,0.2c0,0-0.1,0.1-0.1,0.2c0,0.1-0.1,0.2-0.1,0.3s0,0.2,0,0.3
			s0,0.2,0,0.4s0,0.4,0.1,0.6s0.1,0.3,0.2,0.4c0.1,0.1,0.2,0.2,0.3,0.3c0.1,0.1,0.3,0.1,0.5,0.1s0.3,0,0.5-0.1
			c0.1,0,0.2-0.1,0.3-0.2c0,0,0.1-0.1,0.1-0.2c0-0.1,0.1-0.2,0.1-0.3s0-0.2,0-0.3C19.9,45,19.9,44.9,19.9,44.8z"/>
		<path class="st0" d="M24.6,44.8c0,0.2,0,0.5-0.1,0.7s-0.2,0.4-0.3,0.5s-0.3,0.2-0.5,0.3s-0.4,0.1-0.7,0.1c-0.3,0-0.5,0-0.7-0.1
			S22,46.1,21.8,46c-0.1-0.1-0.2-0.3-0.3-0.5c-0.1-0.2-0.1-0.4-0.1-0.7c0-0.2,0-0.5,0.1-0.7s0.1-0.4,0.3-0.5
			c0.1-0.1,0.3-0.2,0.5-0.3s0.4-0.1,0.7-0.1c0.3,0,0.5,0,0.7,0.1s0.3,0.2,0.5,0.3c0.1,0.1,0.2,0.3,0.3,0.5
			C24.6,44.3,24.6,44.5,24.6,44.8z M24.2,44.8c0-0.2,0-0.4-0.1-0.5S24,44,23.9,43.9s-0.2-0.2-0.3-0.3c-0.1-0.1-0.3-0.1-0.5-0.1
			s-0.3,0-0.5,0.1s-0.2,0.1-0.3,0.2c0,0-0.1,0.1-0.1,0.2c0,0.1-0.1,0.2-0.1,0.3s0,0.2,0,0.3s0,0.2,0,0.4s0,0.4,0.1,0.6
			c0,0.2,0.1,0.3,0.2,0.4c0.1,0.1,0.2,0.2,0.3,0.3s0.3,0.1,0.5,0.1s0.3,0,0.5-0.1c0.1,0,0.2-0.1,0.3-0.2c0,0,0.1-0.1,0.1-0.2
			c0-0.1,0.1-0.2,0.1-0.3s0-0.2,0-0.3C24.2,45,24.2,44.9,24.2,44.8z"/>
		<path class="st0" d="M28.4,46.4L26.2,44l0,0c0,0.2,0,0.4,0,0.6c0,0.1,0,0.2,0,0.2V45c0,0.1,0,0.1,0,0.2v0.1v1.1h-0.3v-3.2h0.2
			l2.2,2.4l0,0c0-0.2,0-0.4,0-0.6c0-0.1,0-0.2,0-0.2c0-0.1,0-0.2,0-0.2c0-0.1,0-0.1,0-0.2s0-0.1,0-0.1v-1h0.3v3.2L28.4,46.4
			L28.4,46.4z"/>
		<path class="st0" d="M31.6,46.4v-3.1H32v2.9h1.2v0.2C33.2,46.4,31.6,46.4,31.6,46.4z"/>
		<path class="st0" d="M36.4,46.4L36,45.2h-1.2l-0.4,1.1h-0.3l1.2-3.1l0.4-0.1l1.2,3.2L36.4,46.4L36.4,46.4z M35.9,45l-0.5-1.5
			L34.9,45H35.9z"/>
		<path class="st0" d="M40.2,43.4c-0.1,0-0.2,0-0.3,0.1s-0.2,0.2-0.4,0.3l-0.1,0.1c0,0.1-0.1,0.1-0.2,0.2c-0.1,0.1-0.1,0.1-0.2,0.2
			c-0.1,0.1-0.1,0.1-0.2,0.2c0.1,0.1,0.2,0.3,0.2,0.4s0.2,0.3,0.3,0.4c0.1,0.1,0.2,0.3,0.3,0.4c0.1,0.1,0.2,0.2,0.3,0.3
			s0.2,0.2,0.3,0.2s0.2,0.1,0.3,0.1l0,0v0.1c-0.1,0-0.1,0-0.2,0c-0.1,0-0.1,0-0.2,0c-0.1,0-0.2,0-0.3-0.1c-0.1,0-0.2-0.1-0.3-0.2
			c-0.1-0.1-0.2-0.2-0.2-0.3c-0.1-0.1-0.2-0.2-0.2-0.3c-0.1-0.1-0.2-0.3-0.2-0.4s-0.2-0.3-0.2-0.4c0,0,0,0-0.1,0.1s-0.1,0.1-0.1,0.1
			L38.4,45c0,0,0,0-0.1,0.1v1.3h-0.4v-3.1h0.4v1.5c0,0,0.1-0.1,0.1-0.2c0.1-0.1,0.1-0.1,0.2-0.2c0.1-0.1,0.1-0.1,0.2-0.2
			s0.1-0.1,0.2-0.2c0.1-0.1,0.1-0.1,0.2-0.2c0.1-0.1,0.1-0.1,0.1-0.1c0.1-0.1,0.1-0.1,0.2-0.2c0.1,0,0.1-0.1,0.2-0.1
			c0.1,0,0.1,0,0.2-0.1c0.1,0,0.1,0,0.2,0h0.1h0.1L40.2,43.4L40.2,43.4z"/>
		<path class="st0" d="M43.1,46.4h-1.7v-3.1H43v0.2h-1.2v1.1h1.1v0.2h-1.1v1.3h1.3V46.4z"/>
		<path class="st0" d="M10.6,53.4c0,0.1,0,0.3-0.1,0.4c0,0.1-0.1,0.2-0.2,0.3c-0.1,0.1-0.2,0.1-0.3,0.2c-0.1,0-0.3,0.1-0.5,0.1
			c-0.1,0-0.1,0-0.2,0c-0.1,0-0.2,0-0.2,0c-0.1,0-0.2,0-0.2,0c-0.1,0-0.2,0-0.2,0v-3.1c0.1,0,0.3,0,0.4,0c0.1,0,0.3,0,0.4,0
			c0.2,0,0.3,0,0.5,0c0.1,0,0.2,0.1,0.3,0.1c0.1,0.1,0.2,0.1,0.2,0.2c0,0.1,0.1,0.2,0.1,0.3s0,0.2-0.1,0.3c0,0.1-0.1,0.2-0.1,0.2
			c-0.1,0.1-0.1,0.1-0.2,0.1s-0.1,0.1-0.2,0.1l0,0c0.1,0,0.2,0.1,0.3,0.1c0.1,0.1,0.2,0.1,0.2,0.2c0.1,0.1,0.1,0.2,0.1,0.2
			C10.5,53.2,10.6,53.3,10.6,53.4z M10,51.9c0-0.1,0-0.2,0-0.3s-0.1-0.1-0.1-0.2c-0.1,0-0.1-0.1-0.2-0.1c-0.1,0-0.2,0-0.3,0H9.3H9.2
			c0,0,0,0-0.1,0c0,0,0,0-0.1,0v1.1h0.4c0.1,0,0.2,0,0.2,0s0.1,0,0.2-0.1c0,0,0,0,0.1-0.1s0-0.1,0.1-0.1c0,0,0-0.1,0.1-0.1
			C10,52,10,52,10,51.9z M10.1,53.4c0-0.1,0-0.2-0.1-0.3c0-0.1-0.1-0.2-0.2-0.2s-0.2-0.1-0.2-0.1c-0.1,0-0.2,0-0.3,0H8.9V54
			c0,0,0.1,0,0.2,0s0.2,0,0.2,0h0.1h0.1h0.1h0.1c0,0,0.1,0,0.1-0.1l0.1-0.1c0,0,0-0.1,0.1-0.2S10.1,53.5,10.1,53.4z"/>
		<path class="st0" d="M11.8,54.2v-3.1h0.4V54h1.2v0.2H11.8z"/>
		<path class="st0" d="M16.6,54.2L16.2,53H15l-0.4,1.1h-0.3l1.2-3.1l0.4-0.1l1.2,3.2L16.6,54.2L16.6,54.2z M16.1,52.9l-0.5-1.5
			l-0.5,1.5H16.1z"/>
		<path class="st0" d="M19.2,54.3c-0.2,0-0.4,0-0.6-0.1s-0.3-0.2-0.4-0.3S18,53.6,18,53.4s0-0.5,0-0.7c0-0.3,0-0.6,0.1-0.8
			s0.2-0.4,0.3-0.5c0.1-0.1,0.3-0.2,0.5-0.3s0.3-0.1,0.5-0.1c0.1,0,0.1,0,0.2,0s0.2,0,0.2,0c0.1,0,0.1,0,0.2,0s0.1,0,0.2,0l-0.1,0.4
			c0,0-0.1,0-0.2,0s-0.2,0-0.2,0c-0.1,0-0.2,0-0.3,0c-0.1,0-0.2,0-0.2,0c-0.1,0-0.2,0-0.3,0s-0.2,0.1-0.2,0.1
			c-0.1,0.1-0.2,0.2-0.2,0.4s-0.1,0.4-0.1,0.7c0,0.5,0.1,0.8,0.2,1s0.3,0.4,0.6,0.4c0.1,0,0.2,0,0.3,0c0.1,0,0.2,0,0.3,0
			c0.1,0,0.2,0,0.3,0s0.2,0,0.2-0.1v0.2c-0.1,0-0.2,0.1-0.2,0.1s-0.2,0.1-0.3,0.1s-0.2,0-0.3,0C19.4,54.3,19.3,54.3,19.2,54.3z"/>
		<path class="st0" d="M23.8,51.2c-0.1,0-0.2,0-0.3,0.1c-0.1,0.1-0.2,0.2-0.4,0.3L23,51.7c0,0.1-0.1,0.1-0.2,0.2
			c-0.1,0.1-0.1,0.1-0.2,0.2c-0.1,0.1-0.1,0.1-0.2,0.2c0.1,0.1,0.2,0.3,0.2,0.4c0.1,0.1,0.2,0.3,0.3,0.4c0.1,0.1,0.2,0.3,0.3,0.4
			c0.1,0.1,0.2,0.2,0.3,0.3s0.2,0.2,0.3,0.2c0.1,0,0.2,0.1,0.3,0.1l0,0v0.1c-0.1,0-0.1,0-0.2,0s-0.1,0-0.2,0s-0.2,0-0.3-0.1
			s-0.2-0.1-0.3-0.2c-0.1-0.1-0.2-0.2-0.2-0.3c-0.1-0.1-0.2-0.2-0.2-0.3c-0.1-0.1-0.2-0.3-0.2-0.4s-0.2-0.3-0.2-0.4c0,0,0,0-0.1,0.1
			l-0.1,0.1L22,52.8c0,0,0,0-0.1,0.1v1.3h-0.4v-3.1h0.4v1.5c0,0,0.1-0.1,0.1-0.2c0.1-0.1,0.1-0.1,0.2-0.2s0.1-0.1,0.2-0.2
			c0.1-0.1,0.1-0.1,0.2-0.2c0.1-0.1,0.1-0.1,0.2-0.2s0.1-0.1,0.1-0.1c0.1-0.1,0.1-0.1,0.2-0.2c0.1,0,0.1-0.1,0.2-0.1s0.1,0,0.2-0.1
			s0.1,0,0.2,0h0.1h0.1L23.8,51.2L23.8,51.2z"/>
		<path class="st0" d="M27.3,54.2v-2.9h-1v-0.2h2.3v0.2h-0.9v2.9H27.3z"/>
		<path class="st0" d="M31.4,54.2h-1.7v-3.1h1.6v0.2h-1.2v1.1h1.1v0.2h-1.1V54h1.3L31.4,54.2z"/>
		<path class="st0" d="M34.6,54.2L34.2,53H33l-0.4,1.1h-0.3l1.2-3.1l0.4-0.1l1.2,3.2L34.6,54.2L34.6,54.2z M34.1,52.9l-0.5-1.5
			l-0.5,1.5H34.1z"/>
	</g>
	<path class="st0" d="M26.3,0C15.7,0,7.1,8.6,7.1,19.3c0,10.6,8.6,19.3,19.3,19.3c10.6,0,19.3-8.6,19.3-19.3C45.6,8.6,37,0,26.3,0z
		 M38.6,20.9c-0.3,0.8-0.3,1.8-0.8,2.6c-0.3,1.5-1.4,2.9-2.9,3.6L31.6,28c-1.7,0.6-3.9,1.1-5.7,0.4c-0.8-0.2-1.9-0.1-2.4-1.1
		c-0.1-0.2-0.4-0.8-0.8-0.8c-1.9,0.2-3.5-0.8-4.8-2c-0.5-0.5-0.8-1.1-1.3-1.6c-1-1.3-1.7-2.9-2.3-4.4c-0.1-0.6-0.3-1.3-0.1-2
		c0.4-0.4,0.2-1.5,1-1.4c0.3,0.2,0.5,0.5,0.6,0.8c-0.1,0.1-0.2,0-0.2,0.1c0,0.1,0.1,0.2,0.2,0.2c0.1,0,0.1,0,0.1-0.1
		c0.2,0.2,0.1,0.8,0.5,0.9c0.8,0.2,0.8,1,1,1.6c1,2.1,3,5.3,3,5.3s1,1.7,1.7,1.6s1.6-0.7,2.6-0.3c1,0.4,2,0.9,3.2,0.2
		c0.7-0.5,2.1-1.6,2.1-1.6l2.6-2.5c0,0,2.3-3.2,2.9-5.1c0.2-1.6,0.2-3.5-1.3-4.4c-1.6-0.3-2.9,0.6-4.4,1.1c-1,0.9-2.6,1.4-3.1,2.8
		c-1.4,0.2-2.7-0.4-4.2-0.5L22.3,15c1.1-1.6,2.9-2.4,4.4-3.4c1.6-0.8,3.2-1.5,5.1-1.7l0.1-0.1c1.3,0.1,2.8,0.1,3.8,1
		C38.4,13.4,38.9,17.5,38.6,20.9z M24.1,17.9c0.3-0.1,0.6-0.2,0.9-0.2c1.6,0,2.9,1.3,2.9,2.9s-1.3,2.9-2.9,2.9
		c-0.3,0-0.6-0.1-0.9-0.2c1.1-0.4,1.9-1.4,1.9-2.7S25.3,18.2,24.1,17.9z"/>
	<g>
		<path class="st0" d="M64.2,15.8c0.4,0.3,1.1,0.5,1.4,1.1c0.2,0.2,0.5,0.6,0.6,0.9c0.5,1.1-0.6,2.1-0.7,3.2v0.2c0,0-0.1-0.1-0.2,0
			c-0.1,0,0,0.1,0,0.2s0.1,0,0.1,0s0,0,0-0.1c0.1,1-0.5,1.8-0.3,2.7c0,0.4-0.1,0.8-0.2,1.2c0,0.6-0.1,1.3-0.1,1.9c0,0.2,0,0.3,0,0.5
			c-0.1,0.5,0,1.2-0.1,1.7c0.2,1-0.1,1.8,0,2.9c0,1.6,0,3.3,0,5c0,0.7,0.2,1.3,0.2,2c-0.1,0.3,0,0.7,0,1c0.1,0.6,0,1.1,0,1.7
			c0.1,0.6,0.2,1.2,0.3,1.8c-0.1,0.3,0.2,0.6,0.1,0.9c0.1,0.2,0,0.5,0.1,0.7c0.3,0.7,1,1.3,1.3,1.9c0.1,0.4-0.1,0.7-0.4,1
			c0,0.1,0,0.3-0.2,0.4c-0.3,0-0.5,0-0.6,0.2c-0.8,0.2-1.5-0.2-2.2-0.6c-1.2-0.3-2.5-0.5-3.6-1.2c-0.5-0.2-0.9-0.5-1.3-0.9
			c-0.2-0.4-0.8-0.7-0.5-1.3c0.5,0,0.9,0.6,1.5,0.5c0.8,0.1,1.8-0.1,2.3-1c0.5-0.5,0.2-1.4,0.5-2.1c0.1-0.4-0.2-0.7-0.1-1.2
			c-0.1-0.6,0-1.2,0.1-1.8c-0.2-0.3,0.3-0.5,0-0.9c0.1-0.2-0.1-0.2-0.2-0.4c-0.2-0.5,0.1-1.1,0-1.7c0-0.3,0-0.8,0-1.2
			c0-0.7,0.1-1.5,0-2.2c0.2-0.3,0-0.7,0-1c0.2-1,0.2-2,0.1-3.1c-0.1-0.5,0.1-1.1-0.1-1.6c0.1-0.3-0.2-0.6-0.1-1
			c0.1-0.3,0.5-0.6,0.3-1c0.3-0.3-0.3-0.7,0-1.2c0.1-1.4,0.2-3,0.2-4.5c0-0.3,0.2-0.9-0.3-1.1c-0.8-0.1-1.2,0.7-1.8,0.8
			c-0.5,0.4-1.1,0.4-1.7,0.5c-0.8-0.2-1.1-1.1-1.8-1.4c0-0.3-0.4-0.2-0.4-0.5c0.5-0.3,1.1-0.6,1.7-0.8c0.2-0.4,0.9-0.4,1.4-0.7
			c0.5,0,1-0.4,1.5-0.5c0.2-0.1,0.4,0,0.6-0.1c0.6,0.1,1.1-0.4,1.7-0.1C63.7,15.6,63.9,15.8,64.2,15.8z"/>
		<path class="st0" d="M54.8,24.2l0.2,0.1c0,0,0,0.1,0,0.2c0,0,0.1,0.1,0.2,0c-0.2-0.3,0.3-0.1,0.4-0.2c0.5,0.1,0.9-0.2,1.4-0.1
			c0.7,0,1.5,0.2,2.1,0.4c0.8,0.2,1.6,0.7,2,1.5c0.2,0.2,0.2,0.6,0.1,0.8c-0.2,0.5-0.7,0.8-1.2,0.9c0-0.1-0.1,0-0.2,0
			c-0.8,0-1.7-0.3-2.5,0c-0.2-0.6,1-1.6-0.2-1.9c-0.1-0.1-0.4-0.2-0.6-0.2c-0.1,0-0.2,0.2-0.3,0.3c0.3,0.9,0,1.8-0.3,2.7
			c-0.2,0.7-0.3,1.5-0.8,2c0.2,0.3,0,0.8,0.5,0.9c0.5-0.1,1.3-0.1,1.9-0.1c1.3,0.2,3.2,0,3.7,1.5c-0.1,0.2,0,0.5,0,0.8
			c-0.4,0.8-1.2,1.6-2.1,1.9c-1.4,0.2-2.6-0.7-3.6-1.7c-0.2,0-0.5-0.4-0.8,0c-0.2,0.1,0,0.4-0.2,0.6c-0.1,0.2,0,0.4-0.1,0.7
			c-0.1,0.4-0.4,0.8-0.2,1.2c-0.2,0.6-0.4,1.3-0.5,2c-0.2,0.3,0.1,0.8-0.1,1.1c0.1,0.2-0.1,0.4-0.1,0.7s0,0.5-0.1,0.8
			c0,0.6,0.3,1.2,0.4,1.7c0,0.5-0.1,1,0,1.5c0,0.5,0,0.9,0,1.4c0,0.1-0.1,0-0.1,0c0,0.1,0.1,0.1,0.1,0.1c0,0.2,0,0.5-0.2,0.7
			c-0.4,0-0.8,0.4-1.2,0.1c-0.4-0.3-1-0.6-1.3-1.1c-0.2-0.3-0.7-0.6-0.6-1.1c-0.2-0.4-0.2-0.9-0.2-1.4c0.1-0.8,0.3-1.5,0.4-2.4
			c0.5-0.4,0.2-1.2,0.5-1.7c0-0.2-0.1-0.4,0-0.6c-0.2-0.4,0.3-0.7,0.2-1.1c0.2-0.3,0-0.8,0.2-1.1c-0.1-0.6,0.2-1.2,0.2-1.8
			c-0.1-0.7,0.3-1.2,0.2-1.9c0.1-0.7,0-1.5,0.2-2.2c-0.1-0.4,0.1-0.7,0.1-1.1c0.2-0.7,0-1.5,0.1-2.2c0-0.3,0.2-0.7,0-1.1
			c0.2-0.9-0.2-2,0.5-2.8c0-0.1,0-0.1,0.1-0.2C53.7,23.7,54.3,23.8,54.8,24.2z"/>
	</g>
	<path class="st0" d="M99.7,12.8c-0.2-0.3-0.4-0.7-0.7-0.9c-0.7-0.6-1.7-0.4-2.5-0.6c-1.1,0.5-2.3,0.8-3.3,1.4
		c-0.6,0-0.9-0.7-1.5-0.7c-0.5-0.2-1.1-0.5-1.5-0.3c-0.3,0.3-0.6,0.6-0.6,0.9c-0.3,0.5-0.4,1.1-0.8,1.5c-0.4,1-0.7,2-1.5,2.7
		c-0.6,0.1-0.9,0.6-1.4,0.8c-0.1,0.1-0.4,0-0.4,0.2c0,0.1-0.1,0.2-0.2,0.2C85,18.1,85,18,85,17.8c0.2-0.2,0.1-0.5,0.2-0.7
		c0.3-0.2,0.1-0.7,0.5-0.9c0.3-0.4,0.4-0.9,0.8-1.3c0.2-0.5,0.5-0.9,0.8-1.4c0.4-1.2,1.4-2.2,1.9-3.3c0.5-0.7,1.1-1.4,1.7-2.1
		c0.2-0.4-0.2-0.7-0.3-1c-0.1-0.1-0.1-0.3-0.3-0.4c-0.3-0.4-0.7-0.7-1.2-1c-0.4,0-0.6-0.5-1-0.2s-0.9,0.4-1.3,0.7
		c-0.7,0.3-1.4,0.6-2.1,1C83.8,7.5,83.1,8,82.2,8c-0.2-0.1-0.5-0.2-0.7-0.3c-0.1,0-0.2-0.1-0.4-0.1c0.1,0.2,0.2,0.5,0.3,0.7
		c0.3,0.5,0.5,1,1,1.3c0.7,0.7,1.8,0.6,2.5,1.2c0.1,0.2,0.4,0.3,0.4,0.5c0.1,0.3,0,0.5-0.1,0.7c-0.3,0.3-0.2,0.7-0.6,0.9
		c0,0.4-0.3,0.6-0.4,1c0,0.3-0.1,0.6-0.2,0.8c-0.4,0.3-0.6,0.8-0.7,1.3c-0.2,0.2-0.3,0.4-0.3,0.7c-0.2,0.2-0.1,0.5-0.4,0.6
		c0.1,0.3-0.4,0.3-0.2,0.6c-0.3,0.5-0.5,1-0.7,1.4c0,0.5-0.5,0.7-0.5,1.1c0.1,0.3-0.2,0.6-0.2,0.9L80.6,22c-0.1,0.2-0.1,0.4-0.3,0.6
		c-0.3,0.2-0.4,0.6-0.7,0.7c-0.2-0.1-0.1-0.3-0.1-0.5c0-0.4,0.2-0.8,0.1-1.2c0.2-0.5,0.1-1.1,0.3-1.5c0-0.5,0-1,0.1-1.5
		c-0.1-0.7,0.2-1.3,0.1-2c-0.1,0.2-0.3,0.3-0.3,0.5c0.1,0.3-0.3,0.5-0.1,0.8c-0.1,0.4,0,0.8-0.2,1.2c-0.2,0.8-0.4,1.5-0.4,2.3
		c-0.1,0.7-0.4,1.3-0.3,2c-0.2,0.3-0.2,0.5-0.1,0.8c-0.3,0.6-0.2,1.2-0.4,1.7c0,0.9-0.4,1.5-0.6,2.3c-0.2,0.5-0.2,1.1-0.6,1.5
		c-0.1,0.1-0.3,0.2-0.3,0c0-0.4-0.1-0.7-0.1-1.1c-0.1-0.3,0-0.6-0.1-0.8c0-0.2,0.1-0.5,0-0.7c0-0.8-0.1-1.8,0-2.6c0-0.3-0.1-0.7,0-1
		c0.1-0.5,0.1-1,0.3-1.4c0-0.3,0.1-0.6-0.1-0.9c0.2-0.8,0.3-1.5,0.4-2.3c0.2-0.8,0.1-1.7,0.4-2.5c0-0.3,0.2-0.6,0.2-1
		c0.1-1.1,0.3-2.2,0.4-3.2c0-1.1,0.4-2.2,0.4-3.4c-0.1-1.2-1.5-1.4-2.2-2.1c-0.6-0.2-0.8-0.7-1.4-1c-0.2-0.1-0.4-0.4-0.7-0.5
		c-0.1,0.5,0.2,0.9,0.4,1.3c0.2,0.5,0.2,1,0.4,1.4c0.3,0.8,0.2,1.7,0.3,2.6c-0.2,0.4-0.1,0.8,0,1.2c0.2,0.8,0.1,1.7,0.2,2.5
		c0.1,0.6,0,1.1,0.1,1.7c-0.2,1.2,0,2.3-0.1,3.4c0,0.4,0.1,0.8-0.1,1.1c0.1,0.6-0.1,1.1-0.1,1.7c-0.2,0.4,0,0.7-0.1,1.1
		c0.1,0.6-0.1,1.1-0.1,1.6c0,0.4-0.2,0.8-0.1,1.2c-0.2,0.5-0.1,1.1-0.1,1.5c0.1,0.8-0.2,1.6-0.1,2.4c-0.3,0.3-0.1,0.8-0.1,1.2
		c-0.3,0.8-0.2,1.6-0.5,2.4c0,0.4-0.1,0.8,0,1.2c-0.1,0.5,0,0.9,0,1.3c0.1,0.3,0.1,0.6,0.2,0.8c-0.1,0.4,0.4,0.6,0.3,1
		c0.2,0.1,0.3,0.3,0.4,0.5c0.1,0.1,0.2,0.2,0.4,0.1c0.3,0.1,0.6,0.3,1,0.3c0.7,0.2,0.7-0.7,1-1.1c0.3-0.5,0.3-1.1,0.5-1.7
		c0.2-0.5,0.1-1.1,0.5-1.5c0.1-0.4,0.1-0.9,0.3-1.3c-0.1-0.4,0-0.8,0.1-1.1c0.2-0.5,0.2-1,0.3-1.5c0.3-0.4,0.1-0.9,0.1-1.4
		c0.1-0.1,0.2-0.3,0.2-0.4c0-0.2,0.2-0.4,0.1-0.7c0.1-0.4,0.1-0.8,0.2-1.2c0.1-0.4-0.3-0.8,0.2-1.1c0.2-0.1,0.3,0.2,0.5,0.2
		c0.1,0.2,0.2,0,0.3,0l0.2,0.3l0.3-0.1c0.1,0,0.3,0.1,0.4,0c0-0.3,0.4-0.3,0.4-0.6c0.4,0,0.3-0.4,0.6-0.5c0.4,0,0.7-0.5,1-0.9
		c0.1-0.1,0.3,0,0.4-0.2c0.3-0.1,0.3-0.5,0.6-0.6c0.3-0.1,0.3-0.5,0.6-0.7c0-0.3,0.4-0.3,0.6-0.6c0.3-0.4,0.8-0.7,1-1.3
		c0.2-0.2,0.5-0.1,0.6-0.4c0.4-0.1,0.4-0.8,1-0.6c0.1,0,0.2-0.1,0.4-0.2c0.3-0.2,0.5,0.3,0.8,0.1c0.4,0.1-0.2,0.3-0.1,0.6
		c0.1,0.3,0,0.5-0.1,0.7c-0.3,0.2-0.3,0.5-0.4,0.7c-0.5,0.4-0.6,1.1-1,1.5c-0.6,0.9-1.3,1.8-2.1,2.4c-0.2,0.1-0.3,0.3-0.3,0.5
		c-0.1,0.5-0.4,0.8-0.4,1.3c-0.2,0.4,0.2,0.5,0.1,0.8c0,0.3,0.3,0.1,0.4,0.2c0.3-0.1,0.6,0.2,0.8-0.1c0.2-0.3,0.5-0.6,0.6-1
		c0.2-0.3,0.4-0.6,0.5-0.8c0.3-0.4,0.5-0.9,0.8-1.3s0.7-0.8,1-1.2c0.3-0.1,0.4-0.4,0.7-0.6c0.3-0.2,0.3-0.5,0.6-0.7
		c0.1-0.1,0.3-0.1,0.4-0.2c0.1-0.2,0.3-0.3,0.4-0.2c0.1,0,0.2-0.2,0.3-0.3c0.3-0.3,0.7,0,1,0c0.1-0.1,0.2-0.2,0.4-0.1
		c0.2,0.3,0.6,0.4,0.7,0.8c0.3,0.3,0.1,0.7,0.1,1.1c-0.1,0.1-0.2,0.4-0.2,0.6c-0.4,0.4-0.6,1.2-1.3,1.2c-0.1-0.1-0.3-0.3-0.5-0.4
		c-0.3,0.1-0.5-0.1-0.7,0c-0.5-0.1-0.8,0.3-1.3,0.4c-0.2,0.3-0.6,0.4-0.8,0.6c-0.2,0.3-0.4,0.5-0.6,0.7c-0.7,0.6-0.9,1.5-1.5,2.3
		c-0.1,0.4-0.2,0.8-0.3,1.1c-0.1,0.3,0.1,0.4,0.3,0.5c0,0.2,0.2,0.1,0.3,0.2c0.3,0.4,0.7,0.3,1,0.6c0.1,0.1,0,0.2,0,0.3
		c-0.5,0.6-0.8,1.3-1.3,1.8c-0.3,0.5-0.7,0.8-0.9,1.3c-0.2,0-0.3,0.2-0.5,0.3c-0.4,0.4-0.1,1.1-0.1,1.6c0,0.1,0,0.3,0.1,0.3
		c0.3-0.2,0.6,0.1,0.8,0.2c0.4,0.3,0.5-0.4,0.9-0.4c0.2-0.1,0.5-0.2,0.6-0.4c0.8-0.4,1.7-0.9,2.4-1.6c0.6-0.1,0.7-0.6,1.2-0.8
		c0.3,0,0.4-0.1,0.7-0.2c0.1,0,0.3,0,0.4,0.1c0.1,0.6,0.1,1.3,0,1.9c0.1,0.7,0,1.4-0.1,2.1c-0.1,0.3,0,0.5-0.1,0.7c0,1,0,2-0.3,2.9
		c0,0.2-0.3,0.4-0.1,0.7c-0.1,0.4-0.2,0.8-0.4,1.1c0,0.6-0.6,1-0.6,1.6c-0.1,0.4-0.4,0.7-0.7,1c0,0.1-0.1,0.3-0.1,0.4
		c0.1-0.1,0.4-0.1,0.5-0.3c0.5-0.5,1.2-0.8,1.5-1.5c0.5-0.5,0.7-1.2,1.1-1.8c0.2-0.7,0.3-1.5,0.5-2.2c0-0.4,0.2-0.7,0.3-1.1
		c0.1-1,0.4-1.9,0.3-2.9c0-0.4,0-0.8,0.1-1.2c-0.1-0.7,0-1.4-0.1-2.2c0.1-0.4,0.5-0.6,0.8-0.9c0.1-0.1,0.3-0.3,0.5-0.3
		c0.1-0.2,0.4-0.2,0.6-0.5c0.1-0.4,0.1-0.8,0.1-1.2c-0.2-0.3-0.4-0.6-0.7-0.6c-0.4-0.4-1.1-0.2-1.4-0.7c-0.1-0.5-0.6-0.7-1-1
		c0-0.2,0.2-0.4,0.3-0.6c0.3,0,0.3-0.4,0.6-0.5c0.2-0.1,0.6-0.3,0.6-0.6l0.6-1c0.2-0.2,0.4-0.4,0.4-0.7c0.2-0.8,0.2-1.6-0.1-2.3
		c-0.3-0.6-0.7-1.3-1.4-1.4c-0.3-0.1-0.7,0-0.9-0.3c-0.1-0.3,0.3-0.5,0.4-0.8c0.3,0.1,0.4-0.2,0.7-0.2c0.3-0.3,0.7-0.4,1.1-0.7
		c0.7-0.3,1.1-0.9,1.7-1.5c0.5-0.7,1.2-1.3,1.7-2.1c0.5-0.4,0.6-1,0.8-1.5C100,13.8,99.8,13.3,99.7,12.8z M89.8,19.2
		c-0.2,0-0.4,0-0.6,0c-0.1-0.3,0.1-0.6,0.4-0.8c0.1,0,0.3-0.4,0.4-0.1C90,18.6,90.2,19,89.8,19.2z M89.2,28.3
		c0.3-0.6,0.7-1.1,1.4-1.5c0.2-0.1,0.6-0.1,0.7,0.2c0.1,0.7-0.3,1.2-0.6,1.8c-0.1,0.1-0.2,0.3-0.4,0.4l-0.8,0.7
		c-0.2,0-0.4-0.1-0.4-0.3C88.9,29.2,89.2,28.7,89.2,28.3z M92.6,32.4c-0.2,0.2-0.5,0.1-0.7,0.3c-0.7,0.4-1.4,0.7-2.1,1.2
		c-0.5,0.2-1,0.5-1.6,0.7c-0.1,0-0.2-0.1-0.3-0.2c0.1-0.4,0.5-0.4,0.5-0.7c0.6-0.4,0.7-1.1,1.3-1.6c0.2-0.3,0.6-0.6,0.7-1
		c0.2-0.2,0.4-0.3,0.5-0.6c0.3-0.3,0.6-0.5,1-0.6c0.4,0,0.6,0.3,0.7,0.4C92.8,31,93,31.8,92.6,32.4z M96,15.4c0,0.3-0.5,0.3-0.4,0.7
		c-0.5,0.7-1.1,1.3-1.8,1.8c-0.2,0-0.4,0.3-0.6,0.1c-0.1-0.3,0.1-0.5,0.1-0.8c0.2-0.7,0.4-1.5,0.7-2.2c-0.1-0.3,0.2-0.5,0.1-0.8
		c0.7-0.5,1.5-0.8,2.3-1.2c0.3,0,0.9-0.4,1,0.1C97.2,14,96.6,14.7,96,15.4z"/>
	<g>
		<path class="st0" d="M40.8,56c0.2,0.2,0.5,0.2,0.6,0.4c0,0.2,0,0.3,0.1,0.4c0.1,0,0.2,0,0.3,0.1c0,0.2,0,0.4,0.1,0.6
			c0,0.3,0,0.7-0.2,0.9c0,0.3-0.1,0.6-0.3,0.8c0.1,0.2-0.1,0.3-0.2,0.5c0,0.4-0.4,0.6-0.5,0.8c-0.2,0-0.2,0.3-0.4,0.4
			c-0.1,0.1-0.2,0.4-0.1,0.5c0.1,0.1,0.2,0.2,0.4,0.2c0.1,0,0.1-0.2,0.2-0.2c0.4-0.2,0.6-0.5,0.9-0.5c0.3-0.2,0.6-0.1,0.9-0.2
			c0.2,0.1,0.4-0.2,0.6-0.2c0.2,0.2,0.4,0,0.6,0.1c0.3,0.2,0.2,0.4,0.4,0.6c0,0.2,0.1,0.4,0,0.6c-0.1,0.2-0.4,0.4-0.2,0.6
			c0,0.2-0.2,0.2-0.3,0.4c-0.4,0.5-0.6,1.1-0.8,1.6c-0.1,0.1-0.2,0.2-0.2,0.4c-0.5,0.3-0.4,0.9-0.9,1.2c-0.1,0.1-0.1,0.3-0.2,0.4
			c-0.5,0.6-0.7,1.3-1.2,1.9c0,0.2-0.3,0.5,0,0.6c0.4,0.2,0.6-0.5,1.1-0.5c0-0.2,0.2,0,0.4-0.1s0.5,0,0.8-0.2c0.2,0,0.3,0,0.5,0.1
			c0,0.3,0.3,0.4,0.6,0.5c0,0.4,0.2,0.8,0.1,1.3c-0.2,0.5-0.6,1-0.7,1.6c-0.2,0.3-0.3,0.6-0.5,0.9c0.1,0.4-0.2,0.6-0.3,1
			s-0.4,0.6-0.3,1c0,0.2-0.2,0.3-0.3,0.5c0,0.3-0.2,0.7,0,0.9c0.2,0,0.2-0.1,0.3-0.2c0-0.1-0.1-0.2,0-0.3c0,0,0.1,0.1,0.2,0
			c0.4-0.3,0.4-0.8,0.8-1.1c0.5-0.2,0.6-0.7,1-0.9c0.2,0,0.3-0.1,0.5,0s0.2,0.3,0.2,0.4c-0.2,0.5-0.1,1.1-0.5,1.5
			c-0.4,0.2-0.1,0.7-0.4,0.9c0,0.6-0.5,0.9-0.5,1.5c-0.2,0.4-0.3,0.9-0.7,1.3c-0.3,0.4-0.5,0.8-1,0.8c-0.5,0.3-1.1,0-1.5-0.2
			c-0.7-0.6-0.7-1.5-0.5-2.4c0.1-0.2,0-0.4,0.1-0.6c-0.1-0.4,0.4-0.5,0.1-0.9c0.4-0.5,0.3-1.3,0.7-1.8c-0.1-0.3,0.2-0.5,0.3-0.8
			c0.3-0.7,0.2-1.6,0.8-2.2c0-0.2-0.1-0.5-0.3-0.7c-0.5,0.1-1,0.1-1.3,0.5c-0.3,0.3-0.8,0-1.1,0.4c-0.2,0-0.3,0.1-0.5,0
			c-0.2-0.3-0.6-0.7-0.4-1.1c-0.2-0.5,0.4-0.8,0.4-1.3c0.2-0.2,0.1-0.6,0.5-0.8c0.3-0.5,0.5-1.1,0.6-1.7c0.2-0.2,0.6-0.3,0.5-0.7
			c0.3-0.3,0.3-0.8,0.4-1.1c-0.1-0.1-0.1-0.4-0.3-0.4c-0.2,0.2-0.4,0.2-0.7,0.2c-0.2,0.1-0.4,0.2-0.5,0.4c-0.5,0-0.9,0-1.3-0.4
			c0-0.2,0.1-0.4-0.1-0.6c0-0.4,0.1-0.7,0.1-1.1c0.2-0.4,0.3-0.8,0.4-1.2c0.1-0.2,0-0.5,0.3-0.7c0.2-0.2,0.2-0.5,0.2-0.8
			c0.1-0.3,0.4-0.5,0.4-0.8c0-0.2,0.1-0.2,0.1-0.4c0.2-0.4,0.4-0.9,0.4-1.5c-0.1-0.2,0.2-0.5,0.1-0.7c0.2-0.2,0.1-0.6,0.4-0.5
			c0-0.1,0.2-0.1,0.3,0C40.3,56,40.6,56,40.8,56z"/>
		<path class="st0" d="M57,60.8c0.2,0.2,0.3,0.5,0.6,0.6c0,0.1-0.2,0.2-0.2,0.4c-0.1,0-0.2,0.2-0.3,0.2s-0.2-0.2-0.3-0.2
			c-0.1,0.1-0.1,0.2-0.1,0.3l0.1,0.1c-0.3,0.2-0.6,0.6-1,0.6c-0.3,0.2-0.6,0.1-0.9,0.3c-0.2,0.1-0.6,0-0.6,0.3
			c0.2,0.2,0.2,0.5,0.3,0.8c0.2,0.2,0.2,0.5,0.3,0.8s0.2,0.6,0.3,0.9c0.2,0.1,0,0.4,0.1,0.6c0,0.3,0.1,0.6,0,0.9
			c-0.2,0-0.3-0.2-0.4-0.1c0,0.3,0.4,0.3,0.4,0.6c0,0.3-0.3,0.6-0.2,0.9C55,68.8,55,68.9,55,69c-0.2,0.2-0.4,0.2-0.5,0.4
			c0,0.2-0.1,0.4-0.3,0.5c-0.1,0-0.2,0.1-0.2,0.2c0,0.2-0.2,0.3-0.2,0.5c-0.3,0-0.3,0.2-0.4,0.4v0.2c0.2,0,0.7,0.2,0.8-0.2
			c0.2,0.1,0.4-0.1,0.6,0c0.4,0,0.8,0,1.1-0.1c0.2,0.2,0.5,0.2,0.8,0.1c0.2,0.2,0.6,0.4,0.9,0.4c0.1,0.1,0.3,0,0.5,0.1
			c0.1,0.3,0.4,0.5,0.6,0.7c0,0.3,0.4,0.4,0.3,0.8c0,0.2,0.1,0.3,0,0.4c-0.3,0.1-0.6,0.3-0.9,0.2c0,0,0,0,0-0.1
			c-0.4,0.1-1,0.1-1.4-0.1c-0.4,0.2-0.7-0.1-1.1,0c-0.3,0-0.7,0-0.9-0.1c-0.2,0-0.5-0.2-0.7-0.1c-0.4,0.1-0.7-0.2-1,0
			c-0.3,0.1-0.7,0-0.9,0.1c-0.5,0-1,0.1-1.4,0.2c-0.3,0-0.9,0.2-1-0.2c0-0.3-0.3-0.5-0.1-0.8c0,0-0.1-0.1,0-0.2
			c0.2-0.1,0.4-0.2,0.5-0.5c0.2-0.2,0.5,0,0.8-0.2c0.2,0,0.5,0,0.7-0.3C51.5,71,52,70.9,52,70.6c0.4-0.2,0.2-0.7,0.6-0.9
			c0-0.2,0.2-0.4,0.2-0.7c0.2-0.3,0-0.7,0.2-0.9c0.1-0.4,0.2-0.8,0.1-1.1c0.2-0.5-0.2-1-0.1-1.5c-0.2-0.4-0.2-1.1-0.8-1.3
			c-0.2-0.3-0.6-0.1-0.8-0.2c-0.1,0-0.2,0.1-0.3,0s-0.2-0.3-0.4-0.3v0.1c0,0,0.2,0,0.1,0.2l0,0c0-0.3-0.5-0.6-0.3-0.9
			c0.2-0.1,0.5-0.5,0.8-0.3c0.2,0,0.4-0.1,0.4-0.2v-0.1c0.2,0.2,0.4-0.1,0.7,0c0-0.1,0.1-0.2,0-0.3c0.3-0.1,0.6,0.2,0.8-0.1
			c0.4,0,0.6-0.4,0.9-0.4c0.3-0.4,0.7,0.2,0.9-0.3c0.2-0.3,0.5-0.2,0.8-0.4C56.2,60.4,56.5,61,57,60.8z"/>
	</g>
	<g>
		<path class="st0" d="M91.7,70.4c-0.4-0.1-0.5-0.5-0.9-0.5c-0.3-0.3-0.7-0.5-1.1-0.7c-0.1-0.3-0.4-0.2-0.5-0.4
			c-0.6-0.2-1.1-0.6-1.7-1c-0.1,0-0.3-0.1-0.4-0.2c-0.3,0-0.4-0.3-0.6-0.3c-0.3-0.2-0.7-0.3-1-0.4c-0.3-0.3-0.6-0.2-0.9-0.4
			c-0.2-0.1-0.3-0.2-0.5-0.3c-0.4-0.3-0.9-0.4-1.3-0.7c-0.3-0.3-0.8,0-1-0.4c-0.4,0.1-0.5-0.3-0.9-0.3c-0.4-0.5-1.1-0.3-1.5-0.8
			c-0.3-0.1-0.6-0.2-0.9-0.4c-0.3,0-0.7-0.1-0.9-0.3c-0.1-0.1-0.1-0.2-0.1-0.4c0.2-0.1,0-0.4,0.2-0.5c0.2-0.2,0.5-0.3,0.8-0.5
			c0.4-0.3,0.5-0.7,0.5-1.2c0.1-0.4,0.1-0.9,0.2-1.3c0.2-0.1,0.4-0.3,0.5-0.4c0.1-0.1,0.4,0,0.5-0.2c0.6-0.2,1.1-0.4,1.7-0.5
			c0.2,0.1,0.5-0.1,0.7,0.1c0.4,0.1,0.6,0.3,0.9,0.5c0.2,0.1,0.4,0,0.5-0.2c0-0.3,0.2-0.5,0.2-0.8s0.1-0.6-0.2-0.8
			c0-0.3-0.4-0.2-0.5-0.5c-0.5-0.2-1.1-0.3-1.6-0.4c-0.4-0.1-0.7,0.1-1.1,0.1c-0.2,0.1-0.4,0.1-0.5,0.2c-0.4,0-0.6,0.4-0.9,0.4
			c0-0.5,0.1-1,0.1-1.6c0.1-0.5-0.1-1.1,0.2-1.7c-0.1-0.4,0.1-0.8-0.1-1.2c-0.1-0.1-0.1-0.3-0.2-0.4c-0.4-0.1-0.8-0.4-1.2-0.5
			c-0.3,0.1-0.6,0-1-0.1c-0.1,0-0.2,0.1-0.2,0.2c0.3,0.1,0.4,0.4,0.6,0.6c-0.1,0.4,0.3,0.7,0.1,1.1c0.1,0.5,0,1,0,1.6
			c-0.1,0.3,0,0.6-0.1,1c-0.2,0.2,0,0.6-0.1,0.8c-0.2,0.4-0.1,0.8-0.2,1.2c0,0.4-0.2,0.8-0.2,1.3c0,0.4-0.2,0.8-0.3,1.2
			c0.1,0.1,0,0.3,0,0.4c-0.1,0.1-0.2,0.2-0.3,0.2c-0.2,0.2-0.5,0.1-0.7,0.3c-0.1,0.5-0.6,0.8-0.8,1.1c-0.2,0-0.1,0.3-0.2,0.4
			c-0.3,0.1-0.1-0.2-0.3-0.3c0-0.1,0.1-0.2,0.2-0.2c0,0,0-0.1-0.1-0.2c0-0.4,0.1-0.7,0.1-1c0-0.5,0.1-1.1,0.1-1.7
			c0-0.3,0.2-0.5,0.3-0.8c0.2-0.3,0.3-0.6,0.5-0.9c0.1-0.3,0.2-0.6,0.4-0.8c0.1-0.5,0.3-0.9,0.4-1.3c-0.4,0.3-0.6,0.8-1,0.9
			c-0.1,0-0.3,0-0.3-0.2c0.2-0.5-0.3-1-0.6-1.3c-0.5-0.3-0.8-0.7-1.3-0.8c-0.3,0-0.4-0.3-0.6-0.4c-0.3-0.1-0.5-0.2-0.7-0.4
			c-0.1-0.1-0.3,0.1-0.4-0.1c-0.1,0-0.3-0.1-0.4,0l0.1,0.1c0.4,0.2,0.5,0.5,0.8,0.8c0.1,0.4,0.3,0.7,0.4,1.1c0.2,0.2,0,0.4,0.1,0.7
			c0.2,0.2-0.1,0.5,0.1,0.7c-0.1,0.2,0,0.4,0,0.6c0.1,0.4-0.1,0.8,0.1,1.1c0.1,0.6-0.7,0.6-1.1,0.9c-0.2,0.3-0.5,0.1-0.7,0.4
			c-0.3,0-0.4,0.3-0.6,0.3c-0.3-0.1-0.5,0.3-0.8,0.3c-0.2,0.2-0.6,0.1-0.8,0.2c-0.4,0-0.8,0-1.1-0.2c-0.1,0.1-0.2,0.2-0.3,0.4
			c-0.2,0.4,0.2,0.6,0.2,1c0.2,0.1,0.2,0.3,0.4,0.4c0.1,0.4,0.5,0.8,0.8,1.1c0.1,0.2,0.4,0.1,0.4,0.4c0.3,0,0.4,0.4,0.6,0.4
			c0.2,0.1,0.4,0,0.6-0.1c0.3,0.1,0.4-0.2,0.7-0.1c0.3,0.1,0.4-0.1,0.6-0.3c0.2-0.3,0.5-0.4,0.7-0.7c0.4-0.1,0.2,0.5,0.6,0.6
			c0.2,0.2,0.4,0.4,0.7,0.6c0,0.2-0.2,0.2-0.2,0.4c-0.1,0.5-0.6,0.8-0.9,1.2c-0.2,0.4-0.5,0.7-0.8,1c0,0.4-0.4,0.5-0.5,0.8
			c0,0.1-0.1,0.2-0.2,0.4c-0.3,0.4-0.4,0.8-0.8,1.1c-0.3,0.5-0.6,0.9-0.9,1.4c-0.2,0.5-0.7,0.9-0.9,1.4c-0.6,0.8-1.1,1.7-1.7,2.4
			c0,0.1-0.1,0.3-0.2,0.4c-0.4,0.8-1.3,1.4-1.9,2c-0.1,0.1-0.2,0.2-0.2,0.2c0.3,0,0.5,0,0.8,0c0.1-0.1,0.3-0.1,0.4-0.1
			s0.2-0.2,0.4-0.1c0.1-0.2,0.4-0.1,0.6-0.2s0.3-0.2,0.5-0.2s0.2-0.3,0.4-0.2c0.1-0.3,0.4-0.3,0.6-0.4c0.6-0.3,1-0.9,1.4-1.4
			c0-0.3,0.3-0.5,0.4-0.8v-0.1c0.2-0.3,0.5-0.6,0.6-1c0.4-0.2,0.3-0.6,0.6-0.9c0.2-0.5,0.6-1,1-1.4c0.2-0.2,0.4,0,0.6,0
			c0.2,0.1,0.4,0.4,0.5,0.5c0.1,0.2,0.2,0.4,0.4,0.4c0.3,0.3,0.7,0.3,1.1,0.1c0.1-0.1,0.3-0.1,0.3,0c0.8,0.1,0.4,1,0.5,1.5
			c-0.1,0.5,0,1.1,0.1,1.7c-0.2,0.2-0.2,0.5-0.1,0.7c-0.1,0.3,0,0.5,0,0.8c0.1,0.2-0.2,0.4-0.1,0.6c0,0.9-0.1,1.7,0,2.6
			c0.2,0.2,0.3,0.5,0.5,0.7c0.4,0.2,0.8,0.4,1.2,0.3c0.4-0.2,0.9-0.4,1-0.9c0.2-0.4,0.2-0.9,0.1-1.3c0.1-0.1,0-0.2,0-0.4
			c0-0.7-0.2-1.4-0.1-2.1c0.1-0.1-0.1-0.3,0-0.4c-0.1-0.5-0.1-1-0.1-1.4c-0.1-0.4,0-0.7,0-1.1c0-0.3,0-0.6,0-0.9
			c0.2-0.2,0.6-0.1,0.9-0.3c0.5-0.4,1.1-0.9,1.3-1.4c-0.1-0.2,0.2-0.5-0.1-0.6c0-0.3-0.3-0.4-0.5-0.5c-0.2-0.2-0.4-0.3-0.6-0.4
			c-0.3,0-0.6,0.1-0.9-0.1c-0.2-0.6,0-1.2,0-1.9C78,66,78,65.8,78,65.7c0.2,0.1,0.4,0.3,0.6,0.5c0.4,0.2,0.5,0.5,0.8,0.7
			c0.3,0,0.4,0.4,0.7,0.5c0.2,0.2,0.5,0.3,0.8,0.5c0.3,0.3,0.7,0.3,1.1,0.5c0.1,0.2,0.3,0.1,0.4,0.2c0.4,0,0.8,0.4,1.2,0.5
			c0.2,0.2,0.6,0.2,0.8,0.4c0.3,0,0.6,0.3,0.9,0.3c0.2,0.2,0.5,0.4,0.7,0.4c0.4,0,0.6,0.3,0.9,0.4c0.2,0,0.3,0.3,0.5,0.3
			c0.1,0.2,0.4,0.2,0.6,0.4c0.2,0,0.3,0.3,0.5,0.3c0.1,0.3,0.4,0.2,0.6,0.4c0.1,0.2,0.4-0.1,0.4,0.2c0.1,0,0.2,0.1,0.4,0.2
			c0.3,0.1,0.4,0.2,0.8,0.2c0.1,0.1,0.3,0.1,0.5,0.1c0.4-0.4,0.6-0.8,0.6-1.2C92.2,70.9,91.8,70.8,91.7,70.4z M79.7,58
			c0.2,0,0.3-0.2,0.4-0.3c0.3-0.2,0.6-0.3,0.9-0.3l0.1,0.1c-0.2,0.4-0.6,0.8-0.9,1.1c-0.2,0.1-0.4,0.3-0.6,0.3c-0.2-0.1,0-0.4,0-0.6
			C79.4,58.2,79.5,58.1,79.7,58z M76.1,67C76,67.7,76,68.4,76,69.1c-0.1,0.2-0.3,0.4-0.5,0.4c-0.7,0.1-1.3,0.1-2,0.1
			c-0.2-0.2-0.4,0-0.5-0.1c-0.1-0.4,0.3-0.6,0.4-0.9c0.3-0.4,0.5-0.7,0.8-1.1c0.2-0.2,0.2-0.5,0.5-0.7c0.2-0.4,0.6-0.7,1-1
			c0.1,0,0.1-0.1,0.2-0.1c0.1,0.2,0.1,0.4,0.1,0.5C76.2,66.4,76,66.7,76.1,67z"/>
		<path class="st0" d="M81.4,72.2c0.2,0.2,0.4,0.1,0.6,0.3c0.5,0.3,1,0.7,1.5,1.1c0.4,0.4,0.7,0.8,1.1,1.2c0.3,0.4,0.4,1,0.3,1.5
			c-0.2,0.4-0.7,0.8-1.2,0.8c-0.1-0.1-0.3,0-0.4-0.1c-0.3-0.1-0.6-0.2-0.8-0.3c0-0.1-0.2-0.2-0.2-0.4c-0.3-0.3-0.2-0.7-0.4-1
			c-0.4-0.3-0.2-0.8-0.3-1.2c0-0.1-0.1-0.3-0.1-0.5s-0.2-0.4-0.3-0.6c-0.1-0.2-0.2-0.4-0.3-0.6c-0.1-0.3-0.4-0.4-0.5-0.7
			c0.1,0,0.3-0.2,0.4,0C81,71.9,81.2,72,81.4,72.2z"/>
		<path class="st0" d="M73.1,73.9c0.3,0.3,0.4,0.7,0.7,0.9c0,0.1,0.2,0.2,0.1,0.4c0.1,0.4,0.5,0.5,0.6,0.9c0,0.3,0.4,0.3,0.3,0.5
			c0.1,0.4,0.3,0.8,0.2,1.1l-0.2,0.5c-0.5,0.3-1,0.7-1.6,0.5c-0.2,0.1-0.4-0.1-0.5-0.3c-0.3-0.4-0.4-0.9-0.6-1.4
			c0-0.3-0.3-0.5-0.2-0.8c0.1-0.7,0.3-1.3,0.3-2c0-0.1,0-0.2-0.1-0.2c0-0.3,0.1-0.6,0-0.9c0.2,0,0.4,0.2,0.5,0.3
			C72.8,73.6,72.9,73.8,73.1,73.9z"/>
	</g>
</g>
</svg>
